<?xml version="1.0" encoding="utf-8"?>
<!-- Generator: Adobe Illustrator 16.0.0, SVG Export Plug-In . SVG Version: 6.00 Build 0)  -->
<!DOCTYPE svg PUBLIC "-//W3C//DTD SVG 1.1//EN" "http://www.w3.org/Graphics/SVG/1.1/DTD/svg11.dtd">
<svg version="1.1" id="Layer_1" xmlns="http://www.w3.org/2000/svg" xmlns:xlink="http://www.w3.org/1999/xlink" x="0px" y="0px"
	 width="450px" height="450px" viewBox="0 0 450 450" enable-background="new 0 0 450 450" xml:space="preserve">
<g>
	<g>
		<polygon fill="#B3B3B3" points="154.723,204.635 154.694,204.651 154.693,204.709 		"/>
	</g>
	<g>
		<g>
			<polygon fill="#331905" points="113.785,204.153 113.785,142.663 126.285,135.473 126.285,196.963 			"/>
			<polygon fill="#552A11" points="113.785,204.153 113.785,142.663 112.347,141.858 112.347,203.348 			"/>
		</g>
		<g>
			<polygon fill="#854F22" points="148.145,204.898 137.191,211.2 113.793,197.69 124.747,191.389 			"/>
			<polygon fill="#552A11" points="137.191,213.81 137.191,211.199 113.792,197.689 113.792,200.301 			"/>
		</g>
		<g>
			<g>
				<g>
					<g>
						<g enable-background="new    ">
							<g>
								<polygon fill="#1A1A1A" points="114.637,197.655 120.289,195.414 119.52,187.498 114.766,190.234 								"/>
							</g>
							<g>
								<polygon fill="#666666" points="114.766,190.234 119.52,187.498 119.396,187.432 114.657,190.168 								"/>
							</g>
						</g>
					</g>
					<g>
						<g enable-background="new    ">
							<g>
								<polygon fill="#CCC49C" points="115.841,198.255 114.805,197.678 114.824,190.276 115.86,190.755 								"/>
							</g>
							<g>
								<polygon fill="#FFFFFF" points="115.86,190.844 114.824,190.365 119.423,187.687 120.459,188.166 								"/>
							</g>
							<g>
								<polygon fill="#FCFCF8" points="120.459,188.077 120.479,195.577 115.841,198.255 115.86,190.755 								"/>
							</g>
						</g>
					</g>
					<g>
						<g enable-background="new    ">
							<g>
								<polygon fill="#1A1A1A" points="115.949,198.405 120.703,195.66 120.723,188.079 115.969,190.815 								"/>
							</g>
							<g>
								<polygon fill="#666666" points="115.969,190.815 120.723,188.079 120.599,188.013 115.86,190.75 								"/>
							</g>
							<g>
								<polygon fill="#333333" points="115.86,190.75 115.841,198.339 115.949,198.405 115.969,190.815 								"/>
							</g>
						</g>
					</g>
					<polygon fill="#666666" points="114.886,190.136 116.045,190.692 115.969,190.815 114.657,190.168 					"/>
				</g>
				<g>
					<polygon fill="#333333" points="114.657,190.168 114.637,197.655 115.949,198.405 115.969,190.815 					"/>
				</g>
			</g>
			<g>
				<g>
					<g>
						<g>
							<g enable-background="new    ">
								<g>
									<polygon fill="#B3B3B3" points="116.244,198.518 123.815,196.32 122.059,186.404 116.397,189.663 									"/>
								</g>
								<g>
									<polygon fill="#F2F2F2" points="116.397,189.663 122.059,186.404 121.912,186.325 116.268,189.584 									"/>
								</g>
							</g>
						</g>
						<g>
							<g enable-background="new    ">
								<g>
									<polygon fill="#BAD884" points="118.519,199.704 116.444,198.574 116.467,189.713 118.542,190.771 									"/>
								</g>
								<g>
									<polygon fill="#FDFDFD" points="118.542,191.054 116.467,189.995 121.944,186.806 124.019,187.865 									"/>
								</g>
							</g>
						</g>
						<g>
							<g enable-background="new    ">
								<g>
									<polygon fill="#B3B3B3" points="118.647,199.883 124.309,196.614 124.333,187.585 118.671,190.844 									"/>
								</g>
								<g>
									<polygon fill="#F2F2F2" points="118.671,190.844 124.333,187.585 124.185,187.506 118.542,190.765 									"/>
								</g>
							</g>
						</g>
						<path fill="#F2F2F2" d="M116.541,189.546l2.221,1.151l-0.09,0.146c0,0-2.191-1.125-2.355-1.218
							C116.261,189.594,116.541,189.546,116.541,189.546z"/>
					</g>
					<g>
						<polygon fill="#E1E4EA" points="116.268,189.584 116.244,198.518 118.647,199.883 118.671,190.844 						"/>
					</g>
				</g>
			</g>
			<g>
				<g>
					<g>
						<g>
							<g enable-background="new    ">
								<g>
									<polygon fill="#316154" points="118.905,200.067 125.415,197.311 124.719,186.798 119.058,190.057 									"/>
								</g>
								<g>
									<polygon fill="#5BB59D" points="119.058,190.057 124.719,186.798 124.572,186.719 118.928,189.978 									"/>
								</g>
							</g>
						</g>
						<g>
							<g enable-background="new    ">
								<g>
									<polygon fill="#BAD884" points="120.119,200.695 119.104,200.125 119.127,190.107 120.142,190.606 									"/>
								</g>
								<g>
									<polygon fill="#FDFDFD" points="120.142,190.725 119.127,190.226 124.604,187.037 125.627,187.55 									"/>
								</g>
							</g>
						</g>
						<g>
							<g enable-background="new    ">
								<g>
									<polygon fill="#316154" points="120.248,200.873 125.909,197.604 125.933,187.419 120.271,190.678 									"/>
								</g>
								<g>
									<polygon fill="#5BB59D" points="120.271,190.678 125.933,187.419 125.785,187.341 120.142,190.6 									"/>
								</g>
							</g>
						</g>
						<path fill="#5BB59D" d="M119.201,189.94l1.161,0.592l-0.09,0.146c0,0-1.131-0.565-1.295-0.659
							C118.921,189.988,119.201,189.94,119.201,189.94z"/>
					</g>
					<g>
						<polygon fill="#49917E" points="118.928,189.978 118.905,200.067 120.248,200.873 120.271,190.678 						"/>
					</g>
				</g>
			</g>
			<g>
				<g>
					<g>
						<g>
							<g enable-background="new    ">
								<g>
									<polygon fill="#316154" points="120.763,201.226 127.274,198.469 126.578,187.956 120.916,191.215 									"/>
								</g>
								<g>
									<polygon fill="#FFD685" points="120.916,191.215 126.578,187.956 126.43,187.877 120.787,191.136 									"/>
								</g>
							</g>
						</g>
						<g>
							<g enable-background="new    ">
								<g>
									<polygon fill="#BAD884" points="121.977,201.853 120.963,201.283 120.986,191.265 122,191.764 									"/>
								</g>
								<g>
									<polygon fill="#FDFDFD" points="122,191.883 120.986,191.384 126.463,188.195 127.486,188.708 									"/>
								</g>
							</g>
						</g>
						<g>
							<g enable-background="new    ">
								<g>
									<polygon fill="#E39B42" points="122.106,202.031 127.768,198.763 127.792,188.578 122.13,191.836 									"/>
								</g>
								<g>
									<polygon fill="#FFD685" points="122.13,191.836 127.792,188.578 127.644,188.499 122,191.758 									"/>
								</g>
							</g>
						</g>
						<path fill="#FFD685" d="M121.06,191.098l1.161,0.592l-0.09,0.146c0,0-1.131-0.565-1.295-0.659
							C120.78,191.146,121.06,191.098,121.06,191.098z"/>
					</g>
					<g>
						<polygon fill="#FFAF4D" points="120.787,191.136 120.763,201.226 122.106,202.031 122.13,191.836 						"/>
					</g>
				</g>
			</g>
		</g>
		<g>
			<g>
				<g>
					<g enable-background="new    ">
						<g>
							<polygon fill="#B3B3B3" points="141.042,201.017 141.04,201.309 131.174,207.022 131.176,206.73 							"/>
						</g>
						<g>
							<polygon fill="#B3B3B3" points="131.176,206.73 131.174,207.022 124.459,203.146 124.461,202.854 							"/>
						</g>
						<g>
							<polygon fill="#E1E4EA" points="141.042,201.017 131.176,206.73 124.461,202.854 134.327,197.14 							"/>
						</g>
					</g>
				</g>
				<polygon fill="#E1E4EA" points="125.219,201.705 124.55,201.384 124.55,202.768 125.219,203.25 				"/>
				<g>
					<g enable-background="new    ">
						<g>
							<polygon fill="#EBEBEB" points="140.444,199.967 140.441,201.118 131.173,206.485 131.175,205.333 							"/>
						</g>
						<g>
							<polygon fill="#A8A8A8" points="124.99,201.766 124.99,202.919 131.173,206.485 131.175,205.333 							"/>
						</g>
						<g>
							<polygon fill="#DCDCDC" points="134.21,196.368 125.327,201.512 125.327,201.957 131.175,205.333 140.444,199.967 							"/>
						</g>
					</g>
				</g>
				<g>
					<g enable-background="new    ">
						<g>
							<polygon fill="#B3B3B3" points="141.042,199.329 141.04,199.622 131.174,205.335 131.176,205.043 							"/>
						</g>
						<g>
							<polygon fill="#B3B3B3" points="131.176,205.043 131.174,205.335 124.459,201.458 124.461,201.166 							"/>
						</g>
						<g>
							<polygon fill="#E1E4EA" points="141.042,199.329 131.176,205.043 124.461,201.166 134.327,195.453 							"/>
						</g>
					</g>
				</g>
				<polygon fill="#B3B3B3" points="124.769,203.19 124.459,203.031 124.459,201.284 124.769,201.474 				"/>
			</g>
			<g>
				<g>
					<g enable-background="new    ">
						<g>
							<polygon fill="#2A3049" points="139.211,198.658 139.209,198.913 130.617,203.889 130.619,203.634 							"/>
						</g>
						<g>
							<polygon fill="#243167" points="130.619,203.634 130.617,203.889 124.769,200.513 124.771,200.258 							"/>
						</g>
						<g>
							<polygon fill="#283A85" points="139.211,198.658 130.619,203.634 124.771,200.258 133.363,195.282 							"/>
						</g>
					</g>
				</g>
				<polygon fill="#283A85" points="125.43,199.257 124.848,198.979 124.848,200.184 125.43,200.604 				"/>
				<g>
					<g enable-background="new    ">
						<g>
							<polygon fill="#EBEBEB" points="138.69,197.744 138.688,198.747 130.616,203.42 130.618,202.417 							"/>
						</g>
						<g>
							<polygon fill="#A8A8A8" points="125.231,199.311 125.231,200.315 130.616,203.42 130.618,202.417 							"/>
						</g>
						<g>
							<polygon fill="#DCDCDC" points="133.261,194.609 125.524,199.089 125.524,199.477 130.618,202.417 138.69,197.744 							"/>
						</g>
					</g>
				</g>
				<g>
					<g enable-background="new    ">
						<g>
							<polygon fill="#2A3049" points="139.211,197.188 139.209,197.443 130.617,202.419 130.619,202.165 							"/>
						</g>
						<g>
							<polygon fill="#243167" points="130.619,202.165 130.617,202.419 124.769,199.043 124.771,198.788 							"/>
						</g>
						<g>
							<polygon fill="#283A85" points="139.211,197.188 130.619,202.165 124.771,198.788 133.363,193.812 							"/>
						</g>
					</g>
				</g>
				<polygon fill="#243167" points="125.038,200.551 124.769,200.413 124.769,198.891 125.038,199.056 				"/>
			</g>
			<g>
				<g>
					<g enable-background="new    ">
						<g>
							<polygon fill="#316154" points="127.017,196.432 127.019,196.645 134.192,200.799 134.191,200.586 							"/>
						</g>
						<g>
							<polygon fill="#49917E" points="134.191,200.586 134.192,200.799 139.075,197.98 139.074,197.768 							"/>
						</g>
						<g>
							<polygon fill="#5BB59D" points="127.017,196.432 134.191,200.586 139.074,197.768 131.9,193.613 							"/>
						</g>
					</g>
				</g>
				<polygon fill="#316154" points="138.523,196.932 139.009,196.699 139.009,197.705 138.523,198.056 				"/>
				<g>
					<g enable-background="new    ">
						<g>
							<polygon fill="#A8A8A8" points="127.452,195.668 127.454,196.505 134.193,200.408 134.191,199.57 							"/>
						</g>
						<g>
							<polygon fill="#EBEBEB" points="138.689,196.977 138.689,197.815 134.193,200.408 134.191,199.57 							"/>
						</g>
						<g>
							<polygon fill="#DCDCDC" points="131.985,193.051 138.444,196.792 138.444,197.115 134.191,199.57 127.452,195.668 							"/>
						</g>
					</g>
				</g>
				<g>
					<g enable-background="new    ">
						<g>
							<polygon fill="#316154" points="127.017,195.205 127.019,195.417 134.192,199.572 134.191,199.359 							"/>
						</g>
						<g>
							<polygon fill="#49917E" points="134.191,199.359 134.192,199.572 139.075,196.753 139.074,196.541 							"/>
						</g>
						<g>
							<polygon fill="#5BB59D" points="127.017,195.205 134.191,199.359 139.074,196.541 131.9,192.386 							"/>
						</g>
					</g>
				</g>
				<polygon fill="#638A28" points="138.85,198.012 139.075,197.896 139.075,196.626 138.85,196.764 				"/>
			</g>
		</g>
		<g>
			<polygon fill="#854F22" points="148.145,192.83 137.191,199.131 113.793,185.621 124.747,179.32 			"/>
			<polygon fill="#552A11" points="137.191,201.741 137.191,199.129 113.792,185.621 113.792,188.232 			"/>
		</g>
		<g>
			<g>
				<g>
					<g>
						<g enable-background="new    ">
							<g>
								<polygon fill="#1A1A1A" points="114.561,185.181 121.291,182.512 120.375,173.084 114.713,176.343 								"/>
							</g>
							<g>
								<polygon fill="#666666" points="114.713,176.343 120.375,173.084 120.228,173.005 114.584,176.264 								"/>
							</g>
						</g>
					</g>
					<g>
						<g enable-background="new    ">
							<g>
								<polygon fill="#CCC49C" points="115.994,185.896 114.76,185.208 114.783,176.393 116.018,176.963 								"/>
							</g>
							<g>
								<polygon fill="#FFFFFF" points="116.018,177.069 114.783,176.499 120.26,173.31 121.495,173.879 								"/>
							</g>
							<g>
								<polygon fill="#FCFCF8" points="121.495,173.773 121.518,182.706 115.994,185.896 116.018,176.963 								"/>
							</g>
						</g>
					</g>
					<g>
						<g enable-background="new    ">
							<g>
								<polygon fill="#1A1A1A" points="116.123,186.074 121.785,182.805 121.809,173.776 116.147,177.035 								"/>
							</g>
							<g>
								<polygon fill="#666666" points="116.147,177.035 121.809,173.776 121.661,173.697 116.018,176.956 								"/>
							</g>
							<g>
								<polygon fill="#333333" points="116.018,176.956 115.994,185.995 116.123,186.074 116.147,177.035 								"/>
							</g>
						</g>
					</g>
					<polygon fill="#666666" points="114.856,176.226 116.237,176.889 116.147,177.035 114.584,176.264 					"/>
				</g>
				<g>
					<polygon fill="#333333" points="114.584,176.264 114.561,185.181 116.123,186.074 116.147,177.035 					"/>
				</g>
			</g>
			<g>
				<g>
					<g>
						<g>
							<g enable-background="new    ">
								<g>
									<polygon fill="#B3B3B3" points="116.411,186.005 123.982,183.808 122.226,173.892 116.564,177.15 									"/>
								</g>
								<g>
									<polygon fill="#7C82BB" points="116.564,177.15 122.226,173.892 122.078,173.813 116.435,177.071 									"/>
								</g>
							</g>
						</g>
						<g>
							<g enable-background="new    ">
								<g>
									<polygon fill="#BAD884" points="118.685,187.191 116.611,186.062 116.634,177.2 118.708,178.259 									"/>
								</g>
								<g>
									<polygon fill="#FDFDFD" points="118.708,178.541 116.634,177.482 122.111,174.293 124.185,175.352 									"/>
								</g>
							</g>
						</g>
						<g>
							<g enable-background="new    ">
								<g>
									<polygon fill="#404575" points="118.814,187.37 124.476,184.102 124.5,175.072 118.838,178.331 									"/>
								</g>
								<g>
									<polygon fill="#7C82BB" points="118.838,178.331 124.5,175.072 124.352,174.994 118.708,178.252 									"/>
								</g>
							</g>
						</g>
						<path fill="#7C82BB" d="M116.707,177.033l2.221,1.151l-0.09,0.146c0,0-2.191-1.125-2.355-1.218
							C116.428,177.082,116.707,177.033,116.707,177.033z"/>
					</g>
					<g>
						<polygon fill="#59619B" points="116.435,177.071 116.411,186.005 118.814,187.37 118.838,178.331 						"/>
					</g>
				</g>
			</g>
			<g>
				<g>
					<g>
						<g>
							<g enable-background="new    ">
								<g>
									<polygon fill="#316154" points="119.145,187.698 125.656,184.941 124.959,174.429 119.298,177.688 									"/>
								</g>
								<g>
									<polygon fill="#5BB59D" points="119.298,177.688 124.959,174.429 124.812,174.35 119.168,177.609 									"/>
								</g>
							</g>
						</g>
						<g>
							<g enable-background="new    ">
								<g>
									<polygon fill="#BAD884" points="120.359,188.326 119.345,187.755 119.368,177.738 120.382,178.237 									"/>
								</g>
								<g>
									<polygon fill="#FDFDFD" points="120.382,178.356 119.368,177.857 124.845,174.667 125.868,175.181 									"/>
								</g>
							</g>
						</g>
						<g>
							<g enable-background="new    ">
								<g>
									<polygon fill="#316154" points="120.488,188.504 126.15,185.235 126.173,175.05 120.512,178.309 									"/>
								</g>
								<g>
									<polygon fill="#5BB59D" points="120.512,178.309 126.173,175.05 126.025,174.972 120.382,178.23 									"/>
								</g>
							</g>
						</g>
						<path fill="#5BB59D" d="M119.441,177.571l1.161,0.592l-0.09,0.146c0,0-1.131-0.565-1.295-0.659
							C119.162,177.619,119.441,177.571,119.441,177.571z"/>
					</g>
					<g>
						<polygon fill="#49917E" points="119.168,177.609 119.145,187.698 120.488,188.504 120.512,178.309 						"/>
					</g>
				</g>
			</g>
			<g>
				<g>
					<g>
						<g enable-background="new    ">
							<g>
								<polygon fill="#1A1A1A" points="120.626,188.596 126.278,186.355 125.509,178.439 120.755,181.175 								"/>
							</g>
							<g>
								<polygon fill="#666666" points="120.755,181.175 125.509,178.439 125.385,178.373 120.646,181.109 								"/>
							</g>
						</g>
					</g>
					<g>
						<g enable-background="new    ">
							<g>
								<polygon fill="#CCC49C" points="121.831,189.196 120.794,188.62 120.813,181.217 121.85,181.696 								"/>
							</g>
							<g>
								<polygon fill="#FFFFFF" points="121.85,181.785 120.813,181.306 125.413,178.628 126.449,179.106 								"/>
							</g>
							<g>
								<polygon fill="#FCFCF8" points="126.449,179.018 126.469,186.518 121.831,189.196 121.85,181.696 								"/>
							</g>
						</g>
					</g>
					<g>
						<g enable-background="new    ">
							<g>
								<polygon fill="#1A1A1A" points="121.938,189.346 126.692,186.602 126.712,179.02 121.958,181.756 								"/>
							</g>
							<g>
								<polygon fill="#666666" points="121.958,181.756 126.712,179.02 126.588,178.954 121.85,181.69 								"/>
							</g>
							<g>
								<polygon fill="#333333" points="121.85,181.69 121.83,189.28 121.938,189.346 121.958,181.756 								"/>
							</g>
						</g>
					</g>
					<polygon fill="#666666" points="120.875,181.077 122.034,181.633 121.958,181.756 120.646,181.109 					"/>
				</g>
				<g>
					<polygon fill="#333333" points="120.646,181.109 120.626,188.596 121.938,189.346 121.958,181.756 					"/>
				</g>
			</g>
			<g>
				<g>
					<g>
						<g>
							<g enable-background="new    ">
								<g>
									<polygon fill="#B3B3B3" points="122.233,189.458 129.804,187.261 128.048,177.345 122.387,180.604 									"/>
								</g>
								<g>
									<polygon fill="#F2F2F2" points="122.387,180.604 128.048,177.345 127.901,177.266 122.257,180.525 									"/>
								</g>
							</g>
						</g>
						<g>
							<g enable-background="new    ">
								<g>
									<polygon fill="#BAD884" points="124.508,190.646 122.433,189.515 122.457,180.654 124.531,181.712 									"/>
								</g>
								<g>
									<polygon fill="#FDFDFD" points="124.531,181.995 122.457,180.937 127.934,177.747 130.008,178.806 									"/>
								</g>
							</g>
						</g>
						<g>
							<g enable-background="new    ">
								<g>
									<polygon fill="#B3B3B3" points="124.637,190.824 130.298,187.555 130.322,178.526 124.661,181.785 									"/>
								</g>
								<g>
									<polygon fill="#F2F2F2" points="124.661,181.785 130.322,178.526 130.174,178.447 124.531,181.706 									"/>
								</g>
							</g>
						</g>
						<path fill="#F2F2F2" d="M122.53,180.487l2.221,1.151l-0.09,0.146c0,0-2.191-1.125-2.356-1.218
							C122.25,180.535,122.53,180.487,122.53,180.487z"/>
					</g>
					<g>
						<polygon fill="#E1E4EA" points="122.257,180.525 122.233,189.458 124.637,190.824 124.661,181.785 						"/>
					</g>
				</g>
			</g>
			<g>
				<g>
					<g>
						<g>
							<g enable-background="new    ">
								<g>
									<polygon fill="#3B1F1F" points="124.894,191.008 131.404,188.252 130.708,177.739 125.047,180.998 									"/>
								</g>
								<g>
									<polygon fill="#874747" points="125.047,180.998 130.708,177.739 130.561,177.66 124.917,180.919 									"/>
								</g>
							</g>
						</g>
						<g>
							<g enable-background="new    ">
								<g>
									<polygon fill="#BAD884" points="126.108,191.636 125.094,191.065 125.117,181.048 126.131,181.547 									"/>
								</g>
								<g>
									<polygon fill="#FDFDFD" points="126.131,181.666 125.117,181.167 130.594,177.978 131.617,178.492 									"/>
								</g>
							</g>
						</g>
						<g>
							<g enable-background="new    ">
								<g>
									<polygon fill="#3B1F1F" points="126.237,191.814 131.898,188.545 131.922,178.36 126.26,181.619 									"/>
								</g>
								<g>
									<polygon fill="#874747" points="126.26,181.619 131.922,178.36 131.774,178.282 126.131,181.541 									"/>
								</g>
							</g>
						</g>
						<path fill="#874747" d="M125.19,180.881l1.161,0.592l-0.09,0.146c0,0-1.131-0.565-1.295-0.659
							C124.91,180.929,125.19,180.881,125.19,180.881z"/>
					</g>
					<g>
						<polygon fill="#542C2C" points="124.917,180.919 124.894,191.008 126.237,191.814 126.26,181.619 						"/>
					</g>
				</g>
			</g>
			<g>
				<g>
					<g>
						<g>
							<g enable-background="new    ">
								<g>
									<polygon fill="#E39B42" points="126.752,192.167 133.263,189.41 132.567,178.897 126.905,182.156 									"/>
								</g>
								<g>
									<polygon fill="#FFD685" points="126.905,182.156 132.567,178.897 132.419,178.818 126.776,182.077 									"/>
								</g>
							</g>
						</g>
						<g>
							<g enable-background="new    ">
								<g>
									<polygon fill="#BAD884" points="127.966,192.794 126.952,192.224 126.975,182.206 127.989,182.705 									"/>
								</g>
								<g>
									<polygon fill="#FDFDFD" points="127.989,182.824 126.975,182.325 132.452,179.136 133.475,179.649 									"/>
								</g>
							</g>
						</g>
						<g>
							<g enable-background="new    ">
								<g>
									<polygon fill="#E39B42" points="128.096,192.972 133.757,189.704 133.78,179.519 128.119,182.777 									"/>
								</g>
								<g>
									<polygon fill="#FFD685" points="128.119,182.777 133.78,179.519 133.633,179.44 127.989,182.699 									"/>
								</g>
							</g>
						</g>
						<path fill="#FFD685" d="M127.049,182.039l1.16,0.592l-0.09,0.146c0,0-1.131-0.565-1.295-0.659
							C126.769,182.087,127.049,182.039,127.049,182.039z"/>
					</g>
					<g>
						<polygon fill="#FFAF4D" points="126.776,182.077 126.752,192.167 128.096,192.972 128.119,182.777 						"/>
					</g>
				</g>
			</g>
		</g>
		<g>
			<g>
				<g>
					<g>
						<g enable-background="new    ">
							<g>
								<polygon fill="#1A1A1A" points="128.603,193.464 135.333,190.794 134.417,181.367 128.756,184.625 								"/>
							</g>
							<g>
								<polygon fill="#666666" points="128.756,184.625 134.417,181.367 134.27,181.288 128.626,184.547 								"/>
							</g>
						</g>
					</g>
					<g>
						<g enable-background="new    ">
							<g>
								<polygon fill="#CCC49C" points="130.037,194.178 128.802,193.491 128.826,184.676 130.06,185.246 								"/>
							</g>
							<g>
								<polygon fill="#FFFFFF" points="130.06,185.352 128.826,184.782 134.303,181.592 135.537,182.162 								"/>
							</g>
							<g>
								<polygon fill="#FCFCF8" points="135.537,182.057 135.561,190.989 130.037,194.178 130.06,185.246 								"/>
							</g>
						</g>
					</g>
					<g>
						<g enable-background="new    ">
							<g>
								<polygon fill="#1A1A1A" points="130.166,194.356 135.827,191.088 135.851,182.059 130.189,185.318 								"/>
							</g>
							<g>
								<polygon fill="#666666" points="130.189,185.318 135.851,182.059 135.703,181.98 130.06,185.239 								"/>
							</g>
							<g>
								<polygon fill="#333333" points="130.06,185.239 130.036,194.278 130.166,194.356 130.189,185.318 								"/>
							</g>
						</g>
					</g>
					<polygon fill="#666666" points="128.899,184.509 130.279,185.171 130.189,185.318 128.626,184.547 					"/>
				</g>
				<g>
					<polygon fill="#333333" points="128.626,184.547 128.603,193.464 130.166,194.356 130.189,185.318 					"/>
				</g>
			</g>
			<g>
				<g>
					<g>
						<g>
							<g enable-background="new    ">
								<g>
									<polygon fill="#B3B3B3" points="130.453,194.288 138.024,192.091 136.268,182.174 130.606,185.433 									"/>
								</g>
								<g>
									<polygon fill="#F56254" points="130.606,185.433 136.268,182.174 136.12,182.095 130.477,185.354 									"/>
								</g>
							</g>
						</g>
						<g>
							<g enable-background="new    ">
								<g>
									<polygon fill="#BAD884" points="132.728,195.475 130.653,194.345 130.676,185.483 132.75,186.542 									"/>
								</g>
								<g>
									<polygon fill="#FDFDFD" points="132.75,186.824 130.676,185.766 136.153,182.576 138.228,183.635 									"/>
								</g>
							</g>
						</g>
						<g>
							<g enable-background="new    ">
								<g>
									<polygon fill="#92271E" points="132.856,195.653 138.518,192.384 138.542,183.355 132.88,186.614 									"/>
								</g>
								<g>
									<polygon fill="#F56254" points="132.88,186.614 138.542,183.355 138.394,183.276 132.75,186.535 									"/>
								</g>
							</g>
						</g>
						<path fill="#F56254" d="M130.75,185.316l2.221,1.151l-0.09,0.146c0,0-2.191-1.125-2.356-1.219
							C130.47,185.364,130.75,185.316,130.75,185.316z"/>
					</g>
					<g>
						<polygon fill="#E54638" points="130.477,185.354 130.453,194.288 132.856,195.653 132.88,186.614 						"/>
					</g>
				</g>
			</g>
			<g>
				<g>
					<g>
						<g>
							<g enable-background="new    ">
								<g>
									<polygon fill="#316154" points="133.188,195.981 139.698,193.225 139.002,182.712 133.34,185.971 									"/>
								</g>
								<g>
									<polygon fill="#5BB59D" points="133.34,185.971 139.002,182.712 138.854,182.633 133.211,185.892 									"/>
								</g>
							</g>
						</g>
						<g>
							<g enable-background="new    ">
								<g>
									<polygon fill="#BAD884" points="134.401,196.608 133.387,196.038 133.41,186.021 134.424,186.52 									"/>
								</g>
								<g>
									<polygon fill="#FDFDFD" points="134.424,186.639 133.41,186.14 138.887,182.951 139.91,183.464 									"/>
								</g>
							</g>
						</g>
						<g>
							<g enable-background="new    ">
								<g>
									<polygon fill="#316154" points="134.53,196.787 140.192,193.518 140.216,183.333 134.554,186.592 									"/>
								</g>
								<g>
									<polygon fill="#5BB59D" points="134.554,186.592 140.216,183.333 140.068,183.254 134.424,186.513 									"/>
								</g>
							</g>
						</g>
						<path fill="#5BB59D" d="M133.484,185.854l1.16,0.592l-0.09,0.146c0,0-1.131-0.565-1.295-0.659
							C133.204,185.902,133.484,185.854,133.484,185.854z"/>
					</g>
					<g>
						<polygon fill="#49917E" points="133.211,185.892 133.188,195.981 134.53,196.787 134.554,186.592 						"/>
					</g>
				</g>
			</g>
			<g>
				<g>
					<g>
						<g enable-background="new    ">
							<g>
								<polygon fill="#1A1A1A" points="134.668,196.879 140.32,194.638 139.551,186.722 134.797,189.458 								"/>
							</g>
							<g>
								<polygon fill="#666666" points="134.797,189.458 139.551,186.722 139.427,186.655 134.688,189.392 								"/>
							</g>
						</g>
					</g>
					<g>
						<g enable-background="new    ">
							<g>
								<polygon fill="#CCC49C" points="135.873,197.479 134.836,196.902 134.856,189.5 135.892,189.979 								"/>
							</g>
							<g>
								<polygon fill="#FFFFFF" points="135.892,190.067 134.856,189.589 139.455,186.911 140.491,187.39 								"/>
							</g>
							<g>
								<polygon fill="#FCFCF8" points="140.491,187.301 140.511,194.801 135.873,197.479 135.892,189.979 								"/>
							</g>
						</g>
					</g>
					<g>
						<g enable-background="new    ">
							<g>
								<polygon fill="#1A1A1A" points="135.981,197.629 140.735,194.884 140.754,187.303 136.001,190.039 								"/>
							</g>
							<g>
								<polygon fill="#666666" points="136.001,190.039 140.754,187.303 140.63,187.237 135.892,189.973 								"/>
							</g>
							<g>
								<polygon fill="#333333" points="135.892,189.973 135.872,197.563 135.981,197.629 136.001,190.039 								"/>
							</g>
						</g>
					</g>
					<polygon fill="#666666" points="134.917,189.36 136.077,189.917 136.001,190.039 134.688,189.392 					"/>
				</g>
				<g>
					<polygon fill="#333333" points="134.688,189.392 134.668,196.879 135.981,197.629 136.001,190.039 					"/>
				</g>
			</g>
		</g>
		<g>
			<polygon fill="#854F22" points="148.145,178.027 137.191,184.328 113.793,170.818 124.747,164.517 			"/>
			<polygon fill="#552A11" points="137.191,186.938 137.191,184.327 113.792,170.818 113.792,173.429 			"/>
		</g>
		<g>
			<g>
				<g>
					<g enable-background="new    ">
						<g>
							<polygon fill="#B3B3B3" points="131.463,168.409 131.461,168.702 121.595,174.415 121.597,174.123 							"/>
						</g>
						<g>
							<polygon fill="#B3B3B3" points="121.597,174.123 121.595,174.415 114.881,170.538 114.883,170.246 							"/>
						</g>
						<g>
							<polygon fill="#E1E4EA" points="131.463,168.409 121.597,174.123 114.883,170.246 124.748,164.532 							"/>
						</g>
					</g>
				</g>
				<polygon fill="#E1E4EA" points="115.64,169.097 114.971,168.777 114.971,170.161 115.64,170.643 				"/>
				<g>
					<g enable-background="new    ">
						<g>
							<polygon fill="#EBEBEB" points="130.865,167.359 130.862,168.511 121.594,173.877 121.597,172.726 							"/>
						</g>
						<g>
							<polygon fill="#A8A8A8" points="115.411,169.158 115.411,170.311 121.594,173.877 121.597,172.726 							"/>
						</g>
						<g>
							<polygon fill="#DCDCDC" points="124.631,163.76 115.748,168.904 115.748,169.349 121.597,172.726 130.865,167.359 							"/>
						</g>
					</g>
				</g>
				<g>
					<g enable-background="new    ">
						<g>
							<polygon fill="#B3B3B3" points="131.463,166.722 131.461,167.014 121.595,172.728 121.597,172.435 							"/>
						</g>
						<g>
							<polygon fill="#B3B3B3" points="121.597,172.435 121.595,172.728 114.881,168.851 114.883,168.559 							"/>
						</g>
						<g>
							<polygon fill="#E1E4EA" points="131.463,166.722 121.597,172.435 114.883,168.559 124.748,162.845 							"/>
						</g>
					</g>
				</g>
				<polygon fill="#B3B3B3" points="115.19,170.583 114.881,170.423 114.881,168.677 115.19,168.866 				"/>
			</g>
			<g>
				<g>
					<g enable-background="new    ">
						<g>
							<polygon fill="#E88102" points="129.632,166.05 129.631,166.305 121.038,171.281 121.04,171.027 							"/>
						</g>
						<g>
							<polygon fill="#E88102" points="121.04,171.027 121.038,171.281 115.19,167.905 115.192,167.65 							"/>
						</g>
						<g>
							<polygon fill="#FBAB20" points="129.632,166.05 121.04,171.027 115.192,167.65 123.784,162.674 							"/>
						</g>
					</g>
				</g>
				<polygon fill="#8A4C01" points="115.851,166.649 115.269,166.371 115.269,167.576 115.851,167.996 				"/>
				<g>
					<g enable-background="new    ">
						<g>
							<polygon fill="#EBEBEB" points="129.112,165.136 129.109,166.139 121.037,170.813 121.039,169.81 							"/>
						</g>
						<g>
							<polygon fill="#A8A8A8" points="115.652,166.703 115.652,167.707 121.037,170.813 121.039,169.81 							"/>
						</g>
						<g>
							<polygon fill="#DCDCDC" points="123.683,162.001 115.945,166.481 115.945,166.869 121.039,169.81 129.112,165.136 							"/>
						</g>
					</g>
				</g>
				<g>
					<g enable-background="new    ">
						<g>
							<polygon fill="#E88102" points="129.632,164.581 129.631,164.835 121.038,169.812 121.04,169.557 							"/>
						</g>
						<g>
							<polygon fill="#E88102" points="121.04,169.557 121.038,169.812 115.19,166.435 115.192,166.181 							"/>
						</g>
						<g>
							<polygon fill="#FBAB20" points="129.632,164.581 121.04,169.557 115.192,166.181 123.784,161.204 							"/>
						</g>
					</g>
				</g>
				<polygon fill="#E88102" points="115.459,167.943 115.19,167.805 115.19,166.284 115.459,166.448 				"/>
			</g>
			<g>
				<g>
					<g enable-background="new    ">
						<g>
							<polygon fill="#316154" points="117.438,163.824 117.44,164.037 124.613,168.191 124.612,167.979 							"/>
						</g>
						<g>
							<polygon fill="#49917E" points="124.612,167.979 124.613,168.191 129.496,165.373 129.495,165.16 							"/>
						</g>
						<g>
							<polygon fill="#5BB59D" points="117.438,163.824 124.612,167.979 129.495,165.16 122.321,161.005 							"/>
						</g>
					</g>
				</g>
				<polygon fill="#316154" points="128.944,164.324 129.43,164.091 129.43,165.098 128.944,165.449 				"/>
				<g>
					<g enable-background="new    ">
						<g>
							<polygon fill="#A8A8A8" points="117.874,163.061 117.875,163.898 124.614,167.8 124.613,166.963 							"/>
						</g>
						<g>
							<polygon fill="#EBEBEB" points="129.11,164.369 129.11,165.208 124.614,167.8 124.613,166.963 							"/>
						</g>
						<g>
							<polygon fill="#DCDCDC" points="122.406,160.444 128.866,164.184 128.866,164.507 124.613,166.963 117.874,163.061 							
								"/>
						</g>
					</g>
				</g>
				<g>
					<g enable-background="new    ">
						<g>
							<polygon fill="#316154" points="117.438,162.597 117.44,162.81 124.613,166.964 124.612,166.751 							"/>
						</g>
						<g>
							<polygon fill="#49917E" points="124.612,166.751 124.613,166.964 129.496,164.146 129.495,163.933 							"/>
						</g>
						<g>
							<polygon fill="#5BB59D" points="117.438,162.597 124.612,166.751 129.495,163.933 122.321,159.778 							"/>
						</g>
					</g>
				</g>
				<polygon fill="#638A28" points="129.271,165.405 129.496,165.289 129.496,164.019 129.271,164.156 				"/>
			</g>
		</g>
		<g>
			<g>
				<g>
					<g>
						<g enable-background="new    ">
							<g>
								<polygon fill="#1A1A1A" points="125.275,176.754 132.66,173.825 131.655,163.48 125.443,167.057 								"/>
							</g>
							<g>
								<polygon fill="#666666" points="125.443,167.057 131.655,163.48 131.494,163.394 125.301,166.97 								"/>
							</g>
						</g>
					</g>
					<g>
						<g enable-background="new    ">
							<g>
								<polygon fill="#CCC49C" points="126.849,177.538 125.495,176.784 125.52,167.112 126.874,167.737 								"/>
							</g>
							<g>
								<polygon fill="#FFFFFF" points="126.874,167.853 125.52,167.228 131.53,163.728 132.884,164.354 								"/>
							</g>
							<g>
								<polygon fill="#FCFCF8" points="132.884,164.237 132.91,174.039 126.849,177.538 126.874,167.737 								"/>
							</g>
						</g>
					</g>
					<g>
						<g enable-background="new    ">
							<g>
								<polygon fill="#1A1A1A" points="126.99,177.734 133.202,174.147 133.228,164.24 127.016,167.816 								"/>
							</g>
							<g>
								<polygon fill="#666666" points="127.016,167.816 133.228,164.24 133.066,164.154 126.874,167.729 								"/>
							</g>
							<g>
								<polygon fill="#333333" points="126.874,167.729 126.848,177.647 126.99,177.734 127.016,167.816 								"/>
							</g>
						</g>
					</g>
					<polygon fill="#666666" points="125.6,166.928 127.115,167.655 127.016,167.816 125.301,166.97 					"/>
				</g>
				<g>
					<polygon fill="#333333" points="125.301,166.97 125.275,176.754 126.99,177.734 127.016,167.816 					"/>
				</g>
			</g>
			<g>
				<g>
					<g>
						<g>
							<g enable-background="new    ">
								<g>
									<polygon fill="#316154" points="127.285,178.261 134.428,175.237 133.665,163.701 127.453,167.277 									"/>
								</g>
								<g>
									<polygon fill="#5BB59D" points="127.453,167.277 133.665,163.701 133.503,163.615 127.311,167.191 									"/>
								</g>
							</g>
						</g>
						<g>
							<g enable-background="new    ">
								<g>
									<polygon fill="#BAD884" points="128.617,178.95 127.504,178.324 127.529,167.332 128.642,167.88 									"/>
								</g>
								<g>
									<polygon fill="#FDFDFD" points="128.642,168.01 127.529,167.463 133.539,163.963 134.661,164.527 									"/>
								</g>
							</g>
						</g>
						<g>
							<g enable-background="new    ">
								<g>
									<polygon fill="#316154" points="128.758,179.145 134.97,175.559 134.996,164.383 128.784,167.959 									"/>
								</g>
								<g>
									<polygon fill="#5BB59D" points="128.784,167.959 134.996,164.383 134.834,164.297 128.642,167.873 									"/>
								</g>
							</g>
						</g>
						<path fill="#5BB59D" d="M127.609,167.149l1.273,0.649l-0.099,0.161c0,0-1.241-0.62-1.421-0.723
							C127.303,167.202,127.609,167.149,127.609,167.149z"/>
					</g>
					<g>
						<polygon fill="#49917E" points="127.311,167.191 127.285,178.261 128.758,179.145 128.784,167.959 						"/>
					</g>
				</g>
			</g>
			<g>
				<g>
					<g>
						<g enable-background="new    ">
							<g>
								<polygon fill="#1A1A1A" points="129.321,179.636 135.522,177.177 134.679,168.491 129.462,171.493 								"/>
							</g>
							<g>
								<polygon fill="#666666" points="129.462,171.493 134.679,168.491 134.543,168.418 129.343,171.421 								"/>
							</g>
						</g>
					</g>
					<g>
						<g enable-background="new    ">
							<g>
								<polygon fill="#CCC49C" points="130.643,180.294 129.505,179.662 129.527,171.54 130.664,172.064 								"/>
							</g>
							<g>
								<polygon fill="#FFFFFF" points="130.664,172.162 129.527,171.637 134.573,168.698 135.71,169.224 								"/>
							</g>
							<g>
								<polygon fill="#FCFCF8" points="135.71,169.126 135.732,177.356 130.643,180.294 130.664,172.064 								"/>
							</g>
						</g>
					</g>
					<g>
						<g enable-background="new    ">
							<g>
								<polygon fill="#1A1A1A" points="130.761,180.459 135.978,177.447 136,169.128 130.783,172.131 								"/>
							</g>
							<g>
								<polygon fill="#666666" points="130.783,172.131 136,169.128 135.863,169.056 130.664,172.059 								"/>
							</g>
							<g>
								<polygon fill="#333333" points="130.664,172.059 130.642,180.386 130.761,180.459 130.783,172.131 								"/>
							</g>
						</g>
					</g>
					<polygon fill="#666666" points="129.594,171.386 130.866,171.996 130.783,172.131 129.343,171.421 					"/>
				</g>
				<g>
					<polygon fill="#333333" points="129.343,171.421 129.321,179.636 130.761,180.459 130.783,172.131 					"/>
				</g>
			</g>
		</g>
		<g>
			<polygon fill="#854F22" points="148.145,163.016 137.191,169.317 113.793,155.807 124.747,149.506 			"/>
			<polygon fill="#552A11" points="137.191,171.926 137.191,169.315 113.792,155.807 113.792,158.418 			"/>
		</g>
		<g>
			<g>
				<g>
					<g>
						<g enable-background="new    ">
							<g>
								<polygon fill="#1A1A1A" points="114.28,155.872 121.011,153.202 120.095,143.775 114.433,147.033 								"/>
							</g>
							<g>
								<polygon fill="#666666" points="114.433,147.033 120.095,143.775 119.947,143.696 114.304,146.955 								"/>
							</g>
						</g>
					</g>
					<g>
						<g enable-background="new    ">
							<g>
								<polygon fill="#CCC49C" points="115.714,156.586 114.48,155.899 114.503,147.083 115.737,147.653 								"/>
							</g>
							<g>
								<polygon fill="#FFFFFF" points="115.737,147.759 114.503,147.189 119.98,144 121.214,144.57 								"/>
							</g>
							<g>
								<polygon fill="#FCFCF8" points="121.214,144.464 121.238,153.396 115.714,156.586 115.737,147.653 								"/>
							</g>
						</g>
					</g>
					<g>
						<g enable-background="new    ">
							<g>
								<polygon fill="#1A1A1A" points="115.843,156.765 121.504,153.496 121.528,144.467 115.867,147.726 								"/>
							</g>
							<g>
								<polygon fill="#666666" points="115.867,147.726 121.528,144.467 121.38,144.388 115.737,147.647 								"/>
							</g>
							<g>
								<polygon fill="#333333" points="115.737,147.647 115.713,156.686 115.843,156.765 115.867,147.726 								"/>
							</g>
						</g>
					</g>
					<polygon fill="#666666" points="114.576,146.917 115.957,147.579 115.867,147.726 114.304,146.955 					"/>
				</g>
				<g>
					<polygon fill="#333333" points="114.304,146.955 114.28,155.872 115.843,156.765 115.867,147.726 					"/>
				</g>
			</g>
			<g>
				<g>
					<g>
						<g>
							<g enable-background="new    ">
								<g>
									<polygon fill="#B3B3B3" points="116.131,156.695 123.702,154.499 121.945,144.582 116.284,147.841 									"/>
								</g>
								<g>
									<polygon fill="#F56254" points="116.284,147.841 121.945,144.582 121.798,144.503 116.154,147.762 									"/>
								</g>
							</g>
						</g>
						<g>
							<g enable-background="new    ">
								<g>
									<polygon fill="#BAD884" points="118.405,157.882 116.331,156.752 116.354,147.891 118.428,148.95 									"/>
								</g>
								<g>
									<polygon fill="#FDFDFD" points="118.428,149.232 116.354,148.173 121.831,144.984 123.905,146.042 									"/>
								</g>
							</g>
						</g>
						<g>
							<g enable-background="new    ">
								<g>
									<polygon fill="#92271E" points="118.534,158.061 124.196,154.792 124.219,145.763 118.558,149.022 									"/>
								</g>
								<g>
									<polygon fill="#F56254" points="118.558,149.022 124.219,145.763 124.071,145.685 118.428,148.943 									"/>
								</g>
							</g>
						</g>
						<path fill="#F56254" d="M116.427,147.724l2.221,1.151l-0.09,0.146c0,0-2.191-1.125-2.355-1.219
							C116.147,147.772,116.427,147.724,116.427,147.724z"/>
					</g>
					<g>
						<polygon fill="#E54638" points="116.154,147.762 116.131,156.695 118.534,158.061 118.558,149.022 						"/>
					</g>
				</g>
			</g>
			<g>
				<g>
					<g>
						<g>
							<g enable-background="new    ">
								<g>
									<polygon fill="#316154" points="118.865,158.389 125.375,155.632 124.68,145.12 119.018,148.378 									"/>
								</g>
								<g>
									<polygon fill="#5BB59D" points="119.018,148.378 124.68,145.12 124.532,145.041 118.888,148.3 									"/>
								</g>
							</g>
						</g>
						<g>
							<g enable-background="new    ">
								<g>
									<polygon fill="#BAD884" points="120.079,159.016 119.064,158.446 119.088,148.429 120.102,148.928 									"/>
								</g>
								<g>
									<polygon fill="#FDFDFD" points="120.102,149.046 119.088,148.547 124.565,145.358 125.588,145.872 									"/>
								</g>
							</g>
						</g>
						<g>
							<g enable-background="new    ">
								<g>
									<polygon fill="#316154" points="120.208,159.194 125.87,155.926 125.893,145.741 120.231,149 									"/>
								</g>
								<g>
									<polygon fill="#5BB59D" points="120.231,149 125.893,145.741 125.746,145.662 120.102,148.921 									"/>
								</g>
							</g>
						</g>
						<path fill="#5BB59D" d="M119.161,148.262l1.161,0.592l-0.09,0.146c0,0-1.131-0.565-1.295-0.659
							C118.881,148.31,119.161,148.262,119.161,148.262z"/>
					</g>
					<g>
						<polygon fill="#49917E" points="118.888,148.3 118.865,158.389 120.208,159.194 120.231,149 						"/>
					</g>
				</g>
			</g>
			<g>
				<g>
					<g>
						<g enable-background="new    ">
							<g>
								<polygon fill="#1A1A1A" points="120.346,159.287 125.998,157.046 125.229,149.129 120.475,151.866 								"/>
							</g>
							<g>
								<polygon fill="#666666" points="120.475,151.866 125.229,149.129 125.104,149.063 120.366,151.8 								"/>
							</g>
						</g>
					</g>
					<g>
						<g enable-background="new    ">
							<g>
								<polygon fill="#CCC49C" points="121.55,159.887 120.514,159.31 120.533,151.908 121.569,152.387 								"/>
							</g>
							<g>
								<polygon fill="#FFFFFF" points="121.569,152.475 120.533,151.997 125.132,149.319 126.168,149.797 								"/>
							</g>
							<g>
								<polygon fill="#FCFCF8" points="126.168,149.708 126.188,157.209 121.55,159.887 121.569,152.387 								"/>
							</g>
						</g>
					</g>
					<g>
						<g enable-background="new    ">
							<g>
								<polygon fill="#1A1A1A" points="121.658,160.037 126.412,157.292 126.432,149.711 121.678,152.447 								"/>
							</g>
							<g>
								<polygon fill="#666666" points="121.678,152.447 126.432,149.711 126.308,149.645 121.569,152.381 								"/>
							</g>
							<g>
								<polygon fill="#333333" points="121.569,152.381 121.55,159.971 121.658,160.037 121.678,152.447 								"/>
							</g>
						</g>
					</g>
					<polygon fill="#666666" points="120.595,151.768 121.754,152.324 121.678,152.447 120.366,151.8 					"/>
				</g>
				<g>
					<polygon fill="#333333" points="120.366,151.8 120.346,159.287 121.658,160.037 121.678,152.447 					"/>
				</g>
			</g>
		</g>
		<g>
			<g>
				<g>
					<g>
						<g enable-background="new    ">
							<g>
								<polygon fill="#1A1A1A" points="122.12,160.331 128.851,157.661 127.935,148.233 122.273,151.492 								"/>
							</g>
							<g>
								<polygon fill="#666666" points="122.273,151.492 127.935,148.233 127.787,148.155 122.144,151.414 								"/>
							</g>
						</g>
					</g>
					<g>
						<g enable-background="new    ">
							<g>
								<polygon fill="#CCC49C" points="123.554,161.045 122.32,160.358 122.343,151.542 123.577,152.112 								"/>
							</g>
							<g>
								<polygon fill="#FFFFFF" points="123.577,152.218 122.343,151.648 127.82,148.459 129.054,149.029 								"/>
							</g>
							<g>
								<polygon fill="#FCFCF8" points="129.054,148.923 129.078,157.855 123.554,161.045 123.577,152.112 								"/>
							</g>
						</g>
					</g>
					<g>
						<g enable-background="new    ">
							<g>
								<polygon fill="#1A1A1A" points="123.683,161.224 129.344,157.955 129.368,148.926 123.707,152.185 								"/>
							</g>
							<g>
								<polygon fill="#666666" points="123.707,152.185 129.368,148.926 129.221,148.847 123.577,152.106 								"/>
							</g>
							<g>
								<polygon fill="#333333" points="123.577,152.106 123.554,161.145 123.683,161.224 123.707,152.185 								"/>
							</g>
						</g>
					</g>
					<polygon fill="#666666" points="122.417,151.375 123.797,152.038 123.707,152.185 122.144,151.414 					"/>
				</g>
				<g>
					<polygon fill="#333333" points="122.144,151.414 122.12,160.331 123.683,161.224 123.707,152.185 					"/>
				</g>
			</g>
			<g>
				<g>
					<g>
						<g>
							<g enable-background="new    ">
								<g>
									<polygon fill="#B3B3B3" points="123.971,161.154 131.542,158.958 129.785,149.041 124.124,152.3 									"/>
								</g>
								<g>
									<polygon fill="#F2F2F2" points="124.124,152.3 129.785,149.041 129.638,148.962 123.994,152.221 									"/>
								</g>
							</g>
						</g>
						<g>
							<g enable-background="new    ">
								<g>
									<polygon fill="#BAD884" points="126.245,162.341 124.17,161.211 124.193,152.35 126.268,153.409 									"/>
								</g>
								<g>
									<polygon fill="#FDFDFD" points="126.268,153.691 124.193,152.632 129.67,149.443 131.745,150.501 									"/>
								</g>
							</g>
						</g>
						<g>
							<g enable-background="new    ">
								<g>
									<polygon fill="#B3B3B3" points="126.374,162.52 132.036,159.251 132.059,150.222 126.397,153.481 									"/>
								</g>
								<g>
									<polygon fill="#F2F2F2" points="126.397,153.481 132.059,150.222 131.912,150.143 126.268,153.402 									"/>
								</g>
							</g>
						</g>
						<path fill="#F2F2F2" d="M124.267,152.183l2.221,1.151l-0.09,0.146c0,0-2.191-1.125-2.355-1.219
							C123.987,152.231,124.267,152.183,124.267,152.183z"/>
					</g>
					<g>
						<polygon fill="#E1E4EA" points="123.994,152.221 123.971,161.154 126.374,162.52 126.397,153.481 						"/>
					</g>
				</g>
			</g>
			<g>
				<g>
					<g>
						<g>
							<g enable-background="new    ">
								<g>
									<polygon fill="#316154" points="126.705,162.848 133.215,160.091 132.52,149.579 126.858,152.837 									"/>
								</g>
								<g>
									<polygon fill="#5BB59D" points="126.858,152.837 132.52,149.579 132.372,149.5 126.729,152.759 									"/>
								</g>
							</g>
						</g>
						<g>
							<g enable-background="new    ">
								<g>
									<polygon fill="#BAD884" points="127.919,163.475 126.905,162.905 126.928,152.888 127.942,153.387 									"/>
								</g>
								<g>
									<polygon fill="#FDFDFD" points="127.942,153.505 126.928,153.007 132.405,149.817 133.428,150.331 									"/>
								</g>
							</g>
						</g>
						<g>
							<g enable-background="new    ">
								<g>
									<polygon fill="#316154" points="128.048,163.653 133.709,160.385 133.733,150.2 128.071,153.458 									"/>
								</g>
								<g>
									<polygon fill="#5BB59D" points="128.071,153.458 133.733,150.2 133.585,150.121 127.942,153.38 									"/>
								</g>
							</g>
						</g>
						<path fill="#5BB59D" d="M127.001,152.72l1.161,0.592l-0.09,0.146c0,0-1.131-0.565-1.295-0.659
							C126.722,152.769,127.001,152.72,127.001,152.72z"/>
					</g>
					<g>
						<polygon fill="#49917E" points="126.729,152.759 126.705,162.848 128.048,163.653 128.071,153.458 						"/>
					</g>
				</g>
			</g>
			<g>
				<g>
					<g>
						<g enable-background="new    ">
							<g>
								<polygon fill="#1A1A1A" points="128.186,163.746 133.837,161.504 133.068,153.588 128.314,156.325 								"/>
							</g>
							<g>
								<polygon fill="#666666" points="128.314,156.325 133.068,153.588 132.945,153.522 128.206,156.259 								"/>
							</g>
						</g>
					</g>
					<g>
						<g enable-background="new    ">
							<g>
								<polygon fill="#CCC49C" points="129.39,164.346 128.354,163.769 128.374,156.367 129.41,156.845 								"/>
							</g>
							<g>
								<polygon fill="#FFFFFF" points="129.41,156.934 128.374,156.456 132.972,153.778 134.008,154.256 								"/>
							</g>
							<g>
								<polygon fill="#FCFCF8" points="134.008,154.167 134.028,161.668 129.39,164.346 129.41,156.845 								"/>
							</g>
						</g>
					</g>
					<g>
						<g enable-background="new    ">
							<g>
								<polygon fill="#1A1A1A" points="129.499,164.496 134.252,161.751 134.272,154.17 129.518,156.906 								"/>
							</g>
							<g>
								<polygon fill="#666666" points="129.518,156.906 134.272,154.17 134.148,154.104 129.41,156.84 								"/>
							</g>
							<g>
								<polygon fill="#333333" points="129.41,156.84 129.39,164.43 129.499,164.496 129.518,156.906 								"/>
							</g>
						</g>
					</g>
					<polygon fill="#666666" points="128.435,156.227 129.594,156.783 129.518,156.906 128.206,156.259 					"/>
				</g>
				<g>
					<polygon fill="#333333" points="128.206,156.259 128.186,163.746 129.499,164.496 129.518,156.906 					"/>
				</g>
			</g>
			<g>
				<g>
					<g>
						<g>
							<g enable-background="new    ">
								<g>
									<polygon fill="#B3B3B3" points="129.793,164.608 137.364,162.411 135.608,152.495 129.946,155.753 									"/>
								</g>
								<g>
									<polygon fill="#F2F2F2" points="129.946,155.753 135.608,152.495 135.46,152.416 129.817,155.675 									"/>
								</g>
							</g>
						</g>
						<g>
							<g enable-background="new    ">
								<g>
									<polygon fill="#BAD884" points="132.067,165.795 129.993,164.665 130.016,155.804 132.091,156.862 									"/>
								</g>
								<g>
									<polygon fill="#FDFDFD" points="132.091,157.145 130.016,156.086 135.493,152.896 137.568,153.955 									"/>
								</g>
							</g>
						</g>
						<g>
							<g enable-background="new    ">
								<g>
									<polygon fill="#B3B3B3" points="132.197,165.973 137.858,162.705 137.882,153.676 132.22,156.935 									"/>
								</g>
								<g>
									<polygon fill="#F2F2F2" points="132.22,156.935 137.882,153.676 137.734,153.597 132.091,156.856 									"/>
								</g>
							</g>
						</g>
						<path fill="#F2F2F2" d="M130.09,155.637l2.221,1.151l-0.09,0.146c0,0-2.191-1.125-2.355-1.219
							C129.81,155.685,130.09,155.637,130.09,155.637z"/>
					</g>
					<g>
						<polygon fill="#E1E4EA" points="129.817,155.675 129.793,164.608 132.197,165.973 132.22,156.935 						"/>
					</g>
				</g>
			</g>
			<g>
				<g>
					<g>
						<g>
							<g enable-background="new    ">
								<g>
									<polygon fill="#316154" points="132.454,166.158 138.964,163.401 138.268,152.889 132.606,156.147 									"/>
								</g>
								<g>
									<polygon fill="#5BB59D" points="132.606,156.147 138.268,152.889 138.121,152.81 132.477,156.069 									"/>
								</g>
							</g>
						</g>
						<g>
							<g enable-background="new    ">
								<g>
									<polygon fill="#BAD884" points="133.667,166.785 132.653,166.215 132.676,156.198 133.691,156.697 									"/>
								</g>
								<g>
									<polygon fill="#FDFDFD" points="133.691,156.816 132.676,156.317 138.153,153.127 139.176,153.641 									"/>
								</g>
							</g>
						</g>
						<g>
							<g enable-background="new    ">
								<g>
									<polygon fill="#316154" points="133.797,166.964 139.458,163.695 139.481,153.51 133.82,156.769 									"/>
								</g>
								<g>
									<polygon fill="#5BB59D" points="133.82,156.769 139.481,153.51 139.334,153.432 133.691,156.69 									"/>
								</g>
							</g>
						</g>
						<path fill="#5BB59D" d="M132.75,156.031l1.16,0.592l-0.09,0.146c0,0-1.131-0.565-1.295-0.659
							C132.47,156.079,132.75,156.031,132.75,156.031z"/>
					</g>
					<g>
						<polygon fill="#49917E" points="132.477,156.069 132.454,166.158 133.797,166.964 133.82,156.769 						"/>
					</g>
				</g>
			</g>
			<g>
				<g>
					<g>
						<g>
							<g enable-background="new    ">
								<g>
									<polygon fill="#316154" points="134.312,167.316 140.823,164.56 140.126,154.047 134.465,157.306 									"/>
								</g>
								<g>
									<polygon fill="#FFD685" points="134.465,157.306 140.126,154.047 139.979,153.968 134.336,157.227 									"/>
								</g>
							</g>
						</g>
						<g>
							<g enable-background="new    ">
								<g>
									<polygon fill="#BAD884" points="135.526,167.943 134.512,167.373 134.535,157.356 135.549,157.855 									"/>
								</g>
								<g>
									<polygon fill="#FDFDFD" points="135.549,157.974 134.535,157.475 140.012,154.286 141.035,154.799 									"/>
								</g>
							</g>
						</g>
						<g>
							<g enable-background="new    ">
								<g>
									<polygon fill="#E39B42" points="135.655,168.122 141.317,164.854 141.34,154.668 135.679,157.927 									"/>
								</g>
								<g>
									<polygon fill="#FFD685" points="135.679,157.927 141.34,154.668 141.192,154.589 135.549,157.849 									"/>
								</g>
							</g>
						</g>
						<path fill="#FFD685" d="M134.608,157.189l1.161,0.592l-0.09,0.146c0,0-1.131-0.565-1.295-0.659
							C134.329,157.237,134.608,157.189,134.608,157.189z"/>
					</g>
					<g>
						<polygon fill="#FFAF4D" points="134.336,157.227 134.312,167.316 135.655,168.122 135.679,157.927 						"/>
					</g>
				</g>
			</g>
		</g>
		<g>
			<polygon fill="#814C2E" points="150.322,148.974 137.824,156.507 112.347,141.858 125.494,134.265 			"/>
			<polygon fill="#552A11" points="137.191,158.823 137.824,156.507 112.347,141.858 113.792,145.314 			"/>
		</g>
		<g>
			<polygon fill="#331905" points="150.322,148.974 150.322,210.809 137.824,217.996 137.824,156.507 			"/>
			<polygon fill="#552A11" points="137.826,217.994 137.826,156.504 136.388,155.699 136.388,217.189 			"/>
		</g>
	</g>
</g>
</svg>
