<?xml version="1.0" encoding="utf-8"?>
<!-- Generator: Adobe Illustrator 16.0.0, SVG Export Plug-In . SVG Version: 6.00 Build 0)  -->
<!DOCTYPE svg PUBLIC "-//W3C//DTD SVG 1.1//EN" "http://www.w3.org/Graphics/SVG/1.1/DTD/svg11.dtd">
<svg version="1.1" id="Layer_1" xmlns="http://www.w3.org/2000/svg" xmlns:xlink="http://www.w3.org/1999/xlink" x="0px" y="0px"
	 width="450px" height="450px" viewBox="0 0 450 450" enable-background="new 0 0 450 450" xml:space="preserve">
<g>
	<g opacity="0.2">
		<g enable-background="new    ">
			<g>
				<path fill="#757E89" d="M151.569,257.246c3.469,1.985,3.489,5.207,0.041,7.194l-5.523,3.183
					c-3.448,1.985-9.055,1.984-12.525-0.001l-5.559-3.184c-3.468-1.985-3.49-5.207-0.043-7.192l5.523-3.184
					c3.449-1.986,9.058-1.985,12.526,0L151.569,257.246z"/>
			</g>
		</g>
	</g>
	<g>
		<g>
			<g enable-background="new    ">
				<g>
					<defs>
						<path id="SVGID_1_" d="M131.792,253.755l1.131,0.651c-0.167-0.097-0.399-0.082-0.657,0.065l-1.134-0.653
							C131.393,253.673,131.624,253.659,131.792,253.755z"/>
					</defs>
					<use xlink:href="#SVGID_1_"  overflow="visible" fill="#292B34"/>
					<clipPath id="SVGID_2_">
						<use xlink:href="#SVGID_1_"  overflow="visible"/>
					</clipPath>
					<g clip-path="url(#SVGID_2_)" enable-background="new    ">
						<path fill="#292B34" d="M132.267,254.472l-1.134-0.653c0.1-0.056,0.195-0.092,0.283-0.109l1.133,0.65
							C132.46,254.379,132.365,254.416,132.267,254.472L132.267,254.472z"/>
						<path fill="#292B34" d="M132.549,254.359l-1.133-0.65c0.136-0.03,0.259-0.015,0.359,0.038l1.131,0.65
							C132.807,254.346,132.684,254.332,132.549,254.359L132.549,254.359z"/>
						<path fill="#292B34" d="M132.907,254.397l-1.131-0.65c0.005,0.002,0.011,0.005,0.017,0.008l1.131,0.651
							C132.918,254.405,132.914,254.401,132.907,254.397L132.907,254.397z"/>
					</g>
				</g>
				<g>
					<defs>
						<path id="SVGID_3_" d="M131.616,256.638l-1.131-0.651c-0.167-0.096-0.27-0.3-0.27-0.586c-0.002-0.583,0.413-1.29,0.918-1.582
							l1.134,0.653c-0.509,0.291-0.921,0.998-0.92,1.58C131.348,256.341,131.451,256.544,131.616,256.638z"/>
					</defs>
					<use xlink:href="#SVGID_3_"  overflow="visible" fill="#292B34"/>
					<clipPath id="SVGID_4_">
						<use xlink:href="#SVGID_3_"  overflow="visible"/>
					</clipPath>
					<g clip-path="url(#SVGID_4_)" enable-background="new    ">
						<path fill="#292B34" d="M131.616,256.638l-1.131-0.651c-0.167-0.096-0.27-0.3-0.27-0.586c0-0.223,0.06-0.464,0.162-0.693
							l1.133,0.653c-0.102,0.228-0.164,0.469-0.163,0.691C131.348,256.341,131.451,256.544,131.616,256.638L131.616,256.638z"/>
						<path fill="#292B34" d="M131.509,255.36l-1.133-0.653c0.08-0.179,0.187-0.35,0.311-0.499l1.132,0.653
							C131.695,255.011,131.589,255.182,131.509,255.36L131.509,255.36z"/>
						<path fill="#292B34" d="M131.819,254.861l-1.132-0.653c0.131-0.159,0.285-0.295,0.446-0.39l1.134,0.653
							C132.104,254.564,131.951,254.7,131.819,254.861L131.819,254.861z"/>
					</g>
				</g>
				<g>
					<path fill="#16181D" d="M132.267,254.472c0.51-0.292,0.923-0.058,0.926,0.523c0,0.579-0.41,1.287-0.92,1.581
						c-0.509,0.29-0.926,0.054-0.927-0.524C131.346,255.47,131.758,254.763,132.267,254.472z"/>
				</g>
			</g>
		</g>
		<g>
			<g enable-background="new    ">
				<g>
					<defs>
						<path id="SVGID_5_" d="M148.496,262.782l1.132,0.652c-0.167-0.098-0.399-0.083-0.657,0.065l-1.134-0.654
							C148.097,262.7,148.328,262.687,148.496,262.782z"/>
					</defs>
					<use xlink:href="#SVGID_5_"  overflow="visible" fill="#292B34"/>
					<clipPath id="SVGID_6_">
						<use xlink:href="#SVGID_5_"  overflow="visible"/>
					</clipPath>
					<g clip-path="url(#SVGID_6_)" enable-background="new    ">
						<path fill="#292B34" d="M148.971,263.5l-1.134-0.654c0.1-0.056,0.195-0.091,0.283-0.109l1.132,0.65
							C149.164,263.406,149.068,263.443,148.971,263.5L148.971,263.5z"/>
						<path fill="#292B34" d="M149.253,263.387l-1.132-0.65c0.136-0.03,0.259-0.015,0.359,0.038l1.132,0.65
							C149.511,263.374,149.388,263.359,149.253,263.387L149.253,263.387z"/>
						<path fill="#292B34" d="M149.611,263.425l-1.132-0.65c0.006,0.002,0.011,0.005,0.017,0.008l1.132,0.652
							C149.623,263.433,149.618,263.429,149.611,263.425L149.611,263.425z"/>
					</g>
				</g>
				<g>
					<defs>
						<path id="SVGID_7_" d="M148.32,265.665l-1.131-0.65c-0.167-0.097-0.27-0.3-0.27-0.587c-0.002-0.583,0.412-1.29,0.918-1.582
							l1.134,0.654c-0.509,0.291-0.921,0.998-0.92,1.579C148.052,265.368,148.154,265.571,148.32,265.665z"/>
					</defs>
					<use xlink:href="#SVGID_7_"  overflow="visible" fill="#292B34"/>
					<clipPath id="SVGID_8_">
						<use xlink:href="#SVGID_7_"  overflow="visible"/>
					</clipPath>
					<g clip-path="url(#SVGID_8_)" enable-background="new    ">
						<path fill="#292B34" d="M148.32,265.665l-1.131-0.65c-0.167-0.097-0.27-0.3-0.27-0.587c0-0.223,0.06-0.464,0.162-0.693
							l1.132,0.653c-0.102,0.228-0.163,0.469-0.162,0.691C148.052,265.368,148.154,265.571,148.32,265.665L148.32,265.665z"/>
						<path fill="#292B34" d="M148.213,264.388l-1.132-0.653c0.08-0.179,0.187-0.35,0.311-0.498l1.132,0.652
							C148.399,264.038,148.293,264.209,148.213,264.388L148.213,264.388z"/>
						<path fill="#292B34" d="M148.523,263.889l-1.132-0.652c0.131-0.16,0.285-0.295,0.446-0.391l1.134,0.654
							C148.809,263.592,148.655,263.728,148.523,263.889L148.523,263.889z"/>
					</g>
				</g>
				<g>
					<path fill="#16181D" d="M148.971,263.5c0.51-0.293,0.923-0.059,0.926,0.522c0.001,0.579-0.41,1.287-0.919,1.581
						c-0.509,0.29-0.926,0.055-0.927-0.524C148.05,264.498,148.462,263.791,148.971,263.5z"/>
				</g>
			</g>
		</g>
		<g>
			<g enable-background="new    ">
				<g>
					<defs>
						<path id="SVGID_9_" d="M131.153,262.584l-1.132,0.652c0.167-0.097,0.399-0.083,0.657,0.065l1.134-0.653
							C131.552,262.502,131.321,262.488,131.153,262.584z"/>
					</defs>
					<use xlink:href="#SVGID_9_"  overflow="visible" fill="#292B34"/>
					<clipPath id="SVGID_10_">
						<use xlink:href="#SVGID_9_"  overflow="visible"/>
					</clipPath>
					<g clip-path="url(#SVGID_10_)" enable-background="new    ">
						<path fill="#292B34" d="M130.678,263.302l1.134-0.653c-0.1-0.057-0.195-0.092-0.283-0.11l-1.133,0.651
							C130.485,263.208,130.581,263.245,130.678,263.302L130.678,263.302z"/>
						<path fill="#292B34" d="M130.396,263.189l1.133-0.651c-0.136-0.03-0.259-0.015-0.359,0.038l-1.132,0.65
							C130.138,263.176,130.261,263.162,130.396,263.189L130.396,263.189z"/>
						<path fill="#292B34" d="M130.038,263.227l1.132-0.65c-0.006,0.002-0.011,0.006-0.017,0.008l-1.132,0.652
							C130.026,263.234,130.031,263.23,130.038,263.227L130.038,263.227z"/>
					</g>
				</g>
				<g>
					<defs>
						<path id="SVGID_11_" d="M131.329,265.467l1.131-0.65c0.167-0.096,0.27-0.3,0.27-0.587c0.002-0.583-0.413-1.289-0.918-1.581
							l-1.134,0.653c0.509,0.291,0.921,0.998,0.92,1.58C131.598,265.17,131.495,265.373,131.329,265.467z"/>
					</defs>
					<use xlink:href="#SVGID_11_"  overflow="visible" fill="#292B34"/>
					<clipPath id="SVGID_12_">
						<use xlink:href="#SVGID_11_"  overflow="visible"/>
					</clipPath>
					<g clip-path="url(#SVGID_12_)" enable-background="new    ">
						<path fill="#292B34" d="M131.329,265.467l1.131-0.65c0.167-0.096,0.27-0.3,0.27-0.587c0-0.223-0.06-0.464-0.162-0.693
							l-1.133,0.653c0.102,0.229,0.164,0.469,0.163,0.692C131.598,265.17,131.495,265.373,131.329,265.467L131.329,265.467z"/>
						<path fill="#292B34" d="M131.436,264.189l1.133-0.653c-0.08-0.179-0.187-0.349-0.311-0.498l-1.132,0.652
							C131.25,263.84,131.356,264.011,131.436,264.189L131.436,264.189z"/>
						<path fill="#292B34" d="M131.126,263.69l1.132-0.652c-0.131-0.16-0.285-0.295-0.446-0.39l-1.134,0.653
							C130.84,263.394,130.994,263.529,131.126,263.69L131.126,263.69z"/>
					</g>
				</g>
				<g>
					<path fill="#16181D" d="M130.678,263.302c-0.51-0.293-0.923-0.058-0.926,0.522c-0.001,0.58,0.41,1.287,0.919,1.581
						c0.509,0.29,0.926,0.055,0.927-0.523C131.599,264.3,131.187,263.593,130.678,263.302z"/>
				</g>
			</g>
		</g>
		<g>
			<g enable-background="new    ">
				<g>
					<defs>
						<path id="SVGID_13_" d="M147.749,253.397l-1.131,0.652c0.167-0.098,0.399-0.083,0.657,0.065l1.133-0.654
							C148.149,253.315,147.917,253.302,147.749,253.397z"/>
					</defs>
					<use xlink:href="#SVGID_13_"  overflow="visible" fill="#292B34"/>
					<clipPath id="SVGID_14_">
						<use xlink:href="#SVGID_13_"  overflow="visible"/>
					</clipPath>
					<g clip-path="url(#SVGID_14_)" enable-background="new    ">
						<path fill="#292B34" d="M147.274,254.115l1.133-0.654c-0.1-0.056-0.194-0.092-0.283-0.109l-1.133,0.65
							C147.082,254.021,147.177,254.059,147.274,254.115L147.274,254.115z"/>
						<path fill="#292B34" d="M146.992,254.002l1.133-0.65c-0.136-0.03-0.259-0.015-0.359,0.038l-1.131,0.65
							C146.734,253.988,146.857,253.975,146.992,254.002L146.992,254.002z"/>
						<path fill="#292B34" d="M146.634,254.04l1.131-0.65c-0.005,0.002-0.011,0.005-0.017,0.008l-1.131,0.652
							C146.623,254.048,146.628,254.044,146.634,254.04L146.634,254.04z"/>
					</g>
				</g>
				<g>
					<defs>
						<path id="SVGID_15_" d="M147.926,256.28l1.131-0.65c0.167-0.097,0.27-0.301,0.27-0.587c0.002-0.583-0.413-1.29-0.919-1.582
							l-1.133,0.654c0.509,0.291,0.921,0.997,0.92,1.579C148.194,255.983,148.091,256.187,147.926,256.28z"/>
					</defs>
					<use xlink:href="#SVGID_15_"  overflow="visible" fill="#292B34"/>
					<clipPath id="SVGID_16_">
						<use xlink:href="#SVGID_15_"  overflow="visible"/>
					</clipPath>
					<g clip-path="url(#SVGID_16_)" enable-background="new    ">
						<path fill="#292B34" d="M147.926,256.28l1.131-0.65c0.167-0.097,0.27-0.301,0.27-0.587c0-0.223-0.06-0.464-0.162-0.693
							l-1.133,0.653c0.102,0.228,0.164,0.469,0.163,0.691C148.194,255.983,148.091,256.187,147.926,256.28L147.926,256.28z"/>
						<path fill="#292B34" d="M148.032,255.003l1.133-0.653c-0.08-0.179-0.187-0.35-0.311-0.499l-1.132,0.653
							C147.847,254.653,147.952,254.824,148.032,255.003L148.032,255.003z"/>
						<path fill="#292B34" d="M147.723,254.504l1.132-0.653c-0.131-0.159-0.285-0.295-0.447-0.39l-1.133,0.654
							C147.437,254.207,147.59,254.343,147.723,254.504L147.723,254.504z"/>
					</g>
				</g>
				<g>
					<path fill="#16181D" d="M147.274,254.115c-0.51-0.293-0.923-0.059-0.926,0.522c-0.001,0.579,0.41,1.287,0.92,1.581
						c0.509,0.29,0.926,0.055,0.927-0.524C148.196,255.112,147.783,254.406,147.274,254.115z"/>
				</g>
			</g>
		</g>
		<g>
			<g enable-background="new    ">
				<g>
					<polygon fill="#16181D" points="149.417,253.693 149.411,254.922 142.348,258.992 142.354,257.764 					"/>
				</g>
				<g>
					<polygon fill="#23262F" points="142.354,257.764 142.348,258.992 139.786,257.525 139.793,256.296 					"/>
				</g>
				<g>
					<polygon fill="#292B34" points="146.855,252.227 149.417,253.693 142.354,257.764 139.793,256.296 					"/>
				</g>
			</g>
			<g enable-background="new    ">
				<g>
					<polygon fill="#23262F" points="137.247,257.764 137.24,258.992 130.131,254.922 130.137,253.693 					"/>
				</g>
				<g>
					<polygon fill="#23262F" points="139.808,259.231 139.801,260.459 137.24,258.992 137.247,257.764 					"/>
				</g>
				<g>
					<polygon fill="#23262F" points="146.919,263.301 146.913,264.53 139.801,260.459 139.808,259.231 					"/>
				</g>
				<g>
					<polygon fill="#16181D" points="139.808,259.231 139.801,260.459 132.737,264.53 132.743,263.301 					"/>
				</g>
				<g>
					<polygon fill="#292B34" points="149.465,261.834 146.919,263.301 139.808,259.231 137.247,257.764 130.137,253.693 
						132.684,252.228 139.793,256.296 142.354,257.764 					"/>
				</g>
				<g>
					<polygon fill="#16181D" points="149.465,261.834 149.458,263.063 146.913,264.53 146.919,263.301 					"/>
				</g>
				<g>
					<polygon fill="#23262F" points="132.743,263.301 132.737,264.53 130.175,263.063 130.182,261.834 					"/>
				</g>
				<g>
					<polygon fill="#292B34" points="130.182,261.834 137.247,257.764 139.808,259.231 132.743,263.301 					"/>
				</g>
			</g>
		</g>
		<g>
			<g enable-background="new    ">
				<path fill="#16181D" d="M142.704,257.562c-0.001,0.427-0.283,0.854-0.843,1.181c-1.128,0.654-2.961,0.654-4.097,0
					c-0.571-0.331-0.857-0.765-0.856-1.197l0,0.762c0,0.002,0,0.005,0,0.007l0,0.191c-0.001,0.434,0.285,0.866,0.857,1.196
					c1.135,0.656,2.968,0.656,4.096,0c0.561-0.326,0.842-0.752,0.843-1.18l0.001-0.249c0,0.003,0,0.005,0,0.008L142.704,257.562z"/>
				<g>
					<path fill="#23262F" d="M141.849,256.368c1.136,0.655,1.14,1.718,0.012,2.374c-1.128,0.654-2.961,0.654-4.097,0
						c-1.135-0.656-1.143-1.719-0.015-2.374S140.714,255.713,141.849,256.368z"/>
				</g>
			</g>
		</g>
		<g>
			<g enable-background="new    ">
				<path fill="#16181D" d="M142.258,241.937c-0.001,0.361-0.239,0.722-0.713,0.999c-0.955,0.554-2.505,0.554-3.466,0
					c-0.483-0.28-0.726-0.646-0.725-1.014l0,15.198c0,0.002,0,0.004,0,0.006l0,0.162c-0.001,0.366,0.241,0.733,0.725,1.012
					c0.96,0.556,2.511,0.556,3.465,0c0.475-0.275,0.712-0.636,0.713-0.997l0.001-0.211c0,0.002-0.001,0.004-0.001,0.006
					L142.258,241.937z"/>
				<g>
					<path fill="#23262F" d="M141.535,240.927c0.961,0.554,0.964,1.453,0.01,2.009c-0.955,0.554-2.505,0.554-3.466,0
						c-0.96-0.556-0.967-1.455-0.013-2.009C139.021,240.372,140.574,240.372,141.535,240.927z"/>
				</g>
			</g>
		</g>
		<g>
			<g>
				<g enable-background="new    ">
					<g>
						<path fill="#224E5D" d="M151.905,233.396c3.469,1.985,3.489,5.206,0.041,7.193l-5.522,3.184
							c-3.448,1.985-9.056,1.983-12.525-0.002l-5.559-3.183c-3.469-1.986-3.49-5.207-0.043-7.192l5.523-3.185
							c3.449-1.986,9.058-1.984,12.526,0L151.905,233.396z"/>
					</g>
				</g>
			</g>
			<g>
				<g enable-background="new    ">
					<g>
						<path fill="#16181D" d="M151.905,231.584c3.469,1.986,3.489,5.207,0.041,7.194l-5.522,3.183
							c-3.448,1.986-9.056,1.984-12.525-0.001l-5.559-3.184c-3.469-1.985-3.49-5.206-0.043-7.192l5.523-3.184
							c3.449-1.986,9.058-1.985,12.526,0L151.905,231.584z"/>
					</g>
				</g>
			</g>
		</g>
		<g>
			<g enable-background="new    ">
				<path fill="#23262F" d="M144.88,243.326c-0.002,0.747-0.495,1.494-1.476,2.066c-1.975,1.146-5.184,1.146-7.172,0
					c-1-0.579-1.501-1.338-1.5-2.096l-0.001,1.334c0,0.003,0.001,0.008,0.001,0.011l-0.001,0.336
					c-0.001,0.759,0.499,1.518,1.5,2.095c1.988,1.148,5.197,1.148,7.171,0c0.982-0.571,1.475-1.317,1.476-2.064l0.002-0.437
					c0,0.005-0.001,0.008-0.001,0.013L144.88,243.326z"/>
				<g>
					<path fill="#292B34" d="M144.877,243.386c-0.027,0.728-0.517,1.45-1.473,2.007c-1.975,1.146-5.184,1.146-7.172,0
						c-0.962-0.557-1.46-1.279-1.496-2.007H144.877z"/>
				</g>
			</g>
		</g>
	</g>
	<g>
		<g>
			<g>
				<path fill="#61636B" d="M147.508,232.509l-3.738-2.158c-1.868-1.078-3.331-3.612-3.331-5.769v-1.149
					c0-1.172,0.433-2.067,1.219-2.521c0.786-0.454,1.777-0.381,2.792,0.205l3.738,2.158c1.868,1.078,3.331,3.612,3.331,5.769v1.149
					c0,1.172-0.433,2.067-1.219,2.521c-0.341,0.197-0.72,0.295-1.123,0.295C148.651,233.009,148.083,232.841,147.508,232.509z
					 M142.338,222.091c-0.342,0.197-0.538,0.687-0.538,1.342v1.149c0,1.659,1.213,3.761,2.65,4.59l3.738,2.158
					c0.568,0.328,1.09,0.402,1.432,0.205s0.538-0.687,0.538-1.342v-1.149c0-1.659-1.213-3.761-2.65-4.591l-3.738-2.158
					c-0.359-0.207-0.7-0.313-0.988-0.313C142.614,221.982,142.464,222.018,142.338,222.091z"/>
			</g>
			<g>
				<g enable-background="new    ">
					<g enable-background="new    ">
						<defs>
							<path id="SVGID_17_" enable-background="new    " d="M139.051,221.998l0.004-1.508c-0.001,0.381,0.249,0.763,0.75,1.052
								l-0.004,1.507C139.3,222.76,139.05,222.379,139.051,221.998z"/>
						</defs>
						<clipPath id="SVGID_18_">
							<use xlink:href="#SVGID_17_"  overflow="visible"/>
						</clipPath>
						<g clip-path="url(#SVGID_18_)" enable-background="new    ">
							<path fill="#0F1013" d="M139.805,221.542l-0.004,1.507c-0.501-0.289-0.751-0.67-0.75-1.051l0.004-1.508
								C139.055,220.871,139.305,221.253,139.805,221.542L139.805,221.542z"/>
						</g>
					</g>
					<g>
						<polygon fill="#0B0C0F" points="149.84,227.335 149.835,228.842 139.801,223.049 139.805,221.542 						"/>
					</g>
					<g enable-background="new    ">
						<defs>
							<path id="SVGID_19_" enable-background="new    " d="M154.184,226.299l-0.004,1.507c-0.001,0.376-0.247,0.752-0.738,1.038
								c-0.989,0.574-2.611,0.573-3.606-0.002l0.004-1.507c0.995,0.574,2.617,0.575,3.606,0.001
								C153.937,227.051,154.183,226.675,154.184,226.299z"/>
						</defs>
						<clipPath id="SVGID_20_">
							<use xlink:href="#SVGID_19_"  overflow="visible"/>
						</clipPath>
						<g clip-path="url(#SVGID_20_)" enable-background="new    ">
							<path fill="#0F1013" d="M154.184,226.299l-0.004,1.507c-0.001,0.376-0.247,0.752-0.738,1.038
								c-0.989,0.574-2.611,0.573-3.606-0.002l0.004-1.507c0.995,0.574,2.617,0.575,3.606,0.001
								C153.937,227.051,154.183,226.675,154.184,226.299L154.184,226.299z"/>
						</g>
					</g>
					<g>
						<path fill="#22252D" d="M153.434,225.246c0.995,0.574,1,1.516,0.012,2.09c-0.989,0.574-2.611,0.573-3.606-0.001l-10.035-5.793
							c-0.995-0.575-1-1.514-0.012-2.088c0.989-0.574,2.611-0.575,3.606-0.001L153.434,225.246z"/>
					</g>
				</g>
			</g>
		</g>
		<g>
			<path fill="#23262F" d="M145.382,211.197c0.586-2.799,2.47-5.744,4.745-7.266c0.141-0.094,0.283-0.183,0.426-0.266l7.274-4.431
				l0,0c0.109-0.063,0.217-0.12,0.325-0.175c0.033-0.017,0.065-0.032,0.098-0.048c0.077-0.037,0.153-0.072,0.229-0.105
				c0.035-0.015,0.069-0.03,0.104-0.044c0.083-0.034,0.165-0.066,0.247-0.095c0.022-0.008,0.045-0.017,0.067-0.025
				c0.103-0.035,0.205-0.066,0.305-0.093c0.006-0.002,0.013-0.004,0.019-0.006c0.018-0.005,0.035-0.007,0.052-0.012
				c0.082-0.021,0.164-0.04,0.244-0.055c0.031-0.006,0.062-0.012,0.092-0.017c0.083-0.015,0.166-0.026,0.247-0.035
				c0.019-0.002,0.037-0.005,0.056-0.006c0.098-0.009,0.194-0.013,0.29-0.014c0.024,0,0.048,0.001,0.073,0.001
				c0.072,0.001,0.144,0.004,0.214,0.01c0.028,0.002,0.055,0.005,0.083,0.008c0.081,0.009,0.16,0.02,0.238,0.035
				c0.011,0.002,0.021,0.003,0.032,0.005c0.087,0.018,0.173,0.04,0.256,0.065c0.023,0.007,0.046,0.016,0.069,0.023
				c0.063,0.021,0.124,0.044,0.184,0.069c0.023,0.01,0.047,0.019,0.07,0.03c0.079,0.036,0.156,0.074,0.23,0.117l4.111,2.389
				c-0.075-0.043-0.152-0.082-0.23-0.117c-0.023-0.01-0.046-0.02-0.069-0.03c-0.061-0.025-0.122-0.048-0.184-0.069
				c-0.023-0.007-0.046-0.016-0.069-0.023c-0.083-0.025-0.169-0.048-0.256-0.066c-0.011-0.002-0.021-0.003-0.032-0.005
				c-0.078-0.015-0.157-0.027-0.238-0.035c-0.027-0.003-0.055-0.005-0.082-0.008c-0.071-0.006-0.143-0.009-0.215-0.01
				c-0.024,0-0.048-0.001-0.073-0.001c-0.095,0.001-0.191,0.005-0.29,0.014c-0.018,0.002-0.037,0.005-0.056,0.007
				c-0.082,0.009-0.164,0.02-0.247,0.034c-0.031,0.005-0.062,0.011-0.092,0.017c-0.081,0.016-0.162,0.034-0.244,0.055
				c-0.024,0.006-0.047,0.011-0.071,0.018c-0.101,0.027-0.202,0.059-0.305,0.094c-0.022,0.008-0.045,0.017-0.067,0.025
				c-0.082,0.029-0.164,0.061-0.247,0.095c-0.034,0.014-0.069,0.029-0.104,0.044c-0.076,0.033-0.152,0.069-0.229,0.106
				c-0.033,0.016-0.065,0.031-0.098,0.048c-0.107,0.055-0.215,0.112-0.325,0.175l0,0l-7.274,4.431
				c-0.144,0.083-0.286,0.172-0.427,0.266c-2.275,1.522-3.739,7.403-3.739,7.403c-0.125,0.597-0.768,1.48-0.766,2.049l-8.944,28.382
				l-5.199-1.199C135.591,242.955,145.257,211.794,145.382,211.197z"/>
			<g>
				<path fill="#16181D" d="M154.665,206.055c-2.958,1.708-4.834,5.928-5.361,9.287c-1.152,7.344-9.181,28.279-9.181,28.279
					c0.009,3.4,4.093,0.047,7.051-1.661l7.274-4.432c2.958-1.707,5.386-6.666,6.103-9.991c0.419-1.944,6.786-22.836,6.786-22.836
					c-0.01-3.4-2.438-4.785-5.396-3.077L154.665,206.055z"/>
			</g>
		</g>
		<g>
			<path fill="#101115" d="M151.946,238.778l-5.522,3.183c-1.764,1.016-4.094,1.513-6.413,1.488
				c-2.213-0.023-4.417-0.52-6.112-1.489l-5.559-3.184c-1.747-0.998-2.618-2.313-2.614-3.622l-0.007,2.202
				c-0.003,1.312,0.869,2.624,2.615,3.624l5.559,3.182c1.695,0.969,3.9,1.467,6.112,1.489c2.319,0.024,4.649-0.472,6.413-1.487
				l5.522-3.184c1.18-0.679,1.953-1.503,2.322-2.372c0.167-0.393,0.252-1.198,0.252-1.198S153.125,238.099,151.946,238.778z"/>
			<g>
				<g>
					<path fill="#61636B" d="M132.594,241.195l-3.738-2.158c-1.868-1.078-3.331-3.612-3.331-5.769v-1.149
						c0-1.172,0.433-2.067,1.219-2.521c0.786-0.454,1.777-0.382,2.792,0.205l3.738,2.158c1.868,1.078,3.331,3.612,3.331,5.769v1.149
						c0,1.172-0.433,2.067-1.219,2.521c-0.34,0.197-0.72,0.295-1.123,0.295C133.737,241.695,133.169,241.527,132.594,241.195z
						 M127.425,230.777c-0.342,0.197-0.539,0.687-0.539,1.342v1.149c0,1.659,1.214,3.761,2.65,4.59l3.738,2.158
						c0.568,0.328,1.089,0.402,1.432,0.205c0.342-0.197,0.538-0.687,0.538-1.342v-1.149c0-1.659-1.214-3.761-2.65-4.591
						l-3.738-2.158c-0.359-0.207-0.7-0.313-0.988-0.313C127.7,230.669,127.55,230.704,127.425,230.777z"/>
				</g>
				<g>
					<g enable-background="new    ">
						<g enable-background="new    ">
							<defs>
								<path id="SVGID_21_" enable-background="new    " d="M124.138,230.685l0.004-1.508c-0.001,0.381,0.249,0.763,0.75,1.052
									l-0.004,1.507C124.387,231.446,124.137,231.065,124.138,230.685z"/>
							</defs>
							<clipPath id="SVGID_22_">
								<use xlink:href="#SVGID_21_"  overflow="visible"/>
							</clipPath>
							<g clip-path="url(#SVGID_22_)" enable-background="new    ">
								<path fill="#0F1013" d="M124.892,230.229l-0.004,1.507c-0.501-0.289-0.751-0.67-0.75-1.051l0.004-1.508
									C124.141,229.558,124.391,229.939,124.892,230.229L124.892,230.229z"/>
							</g>
						</g>
						<g>
							<polygon fill="#0B0C0F" points="134.926,236.021 134.922,237.528 124.888,231.735 124.892,230.229 							"/>
						</g>
						<g enable-background="new    ">
							<defs>
								<path id="SVGID_23_" enable-background="new    " d="M139.27,234.985l-0.004,1.507c-0.001,0.376-0.247,0.752-0.738,1.037
									c-0.988,0.575-2.611,0.574-3.605-0.001l0.004-1.507c0.995,0.574,2.617,0.575,3.606,0.001
									C139.023,235.737,139.269,235.361,139.27,234.985z"/>
							</defs>
							<clipPath id="SVGID_24_">
								<use xlink:href="#SVGID_23_"  overflow="visible"/>
							</clipPath>
							<g clip-path="url(#SVGID_24_)" enable-background="new    ">
								<path fill="#0F1013" d="M139.27,234.985l-0.004,1.507c-0.001,0.376-0.247,0.752-0.738,1.037
									c-0.988,0.575-2.611,0.574-3.605-0.001l0.004-1.507c0.995,0.574,2.617,0.575,3.606,0.001
									C139.023,235.737,139.269,235.361,139.27,234.985L139.27,234.985z"/>
							</g>
						</g>
						<g>
							<path fill="#22252D" d="M138.521,233.933c0.995,0.575,1,1.516,0.012,2.09c-0.989,0.574-2.611,0.573-3.606-0.001
								l-10.034-5.793c-0.995-0.575-1-1.514-0.012-2.088c0.988-0.574,2.61-0.575,3.605-0.001L138.521,233.933z"/>
						</g>
					</g>
				</g>
			</g>
		</g>
	</g>
</g>
</svg>
