<?xml version="1.0" encoding="utf-8"?>
<!-- Generator: Adobe Illustrator 16.0.0, SVG Export Plug-In . SVG Version: 6.00 Build 0)  -->
<!DOCTYPE svg PUBLIC "-//W3C//DTD SVG 1.1//EN" "http://www.w3.org/Graphics/SVG/1.1/DTD/svg11.dtd">
<svg version="1.1" id="Layer_1" xmlns="http://www.w3.org/2000/svg" xmlns:xlink="http://www.w3.org/1999/xlink" x="0px" y="0px"
	 width="450px" height="450px" viewBox="0 0 450 450" enable-background="new 0 0 450 450" xml:space="preserve">
<g>
	<g opacity="0.2">
		<polygon fill="#757E89" points="105.95,263.57 81.354,249.275 80.34,247.697 125.074,224.033 149.67,238.327 		"/>
	</g>
	<g>
		<g>
			<g>
				<polygon fill="#5A2D1B" points="146.271,213.254 121.674,198.959 124.053,197.576 148.649,211.87 				"/>
			</g>
			<g>
				<g enable-background="new    ">
					<polygon fill="#270E04" points="121.674,200.899 146.271,215.194 146.277,229.534 146.273,229.532 146.277,237.966 
						121.681,223.672 121.674,209.331 121.678,209.333 					"/>
					<polygon fill="#391B0E" points="146.271,215.194 148.649,213.811 148.656,228.151 148.652,228.153 148.656,236.582 
						146.277,237.966 146.271,223.625 146.274,223.623 					"/>
				</g>
			</g>
		</g>
		<g>
			<g>
				<g enable-background="new    ">
					<g>
						<polygon fill="#270E04" points="104.936,261.991 80.34,247.697 80.333,233.356 104.929,247.651 						"/>
					</g>
					<g>
						<polygon fill="#5A2D1B" points="104.929,247.651 80.333,233.356 82.712,231.973 107.309,246.268 						"/>
					</g>
					<g>
						<polygon fill="#391B0E" points="107.309,246.268 107.315,260.608 104.936,261.991 104.929,247.651 						"/>
					</g>
				</g>
			</g>
			<g>
				<g>
					<g enable-background="new    ">
						<g>
							<polygon fill="#270E04" points="104.936,253.521 80.34,239.227 80.333,233.065 104.929,247.36 							"/>
						</g>
						<g>
							<polygon fill="#452518" points="104.929,247.36 80.333,233.065 97.644,223.092 122.24,237.386 							"/>
						</g>
					</g>
				</g>
				<g>
					<g enable-background="new    ">
						<g>
							<polygon fill="#270E04" points="104.936,246.373 80.34,232.079 80.333,225.919 104.929,240.213 							"/>
						</g>
						<g>
							<polygon fill="#452518" points="104.929,240.213 80.333,225.919 97.644,215.944 122.24,230.238 							"/>
						</g>
						<g>
							<polygon fill="#391B0E" points="122.24,230.238 122.246,236.399 104.936,246.373 104.929,240.213 							"/>
							<polygon fill="#270E04" points="107.209,239.692 121.555,231.426 121.56,236.003 107.209,244.271 							"/>
						</g>
						<g>
							<polygon fill="#391B0E" points="119.657,235.622 119.661,236.441 109.326,242.396 109.322,241.578 							"/>
						</g>
					</g>
				</g>
			</g>
			<g>
				<g enable-background="new    ">
					<g>
						<polygon fill="#270E04" points="104.936,239.332 80.34,225.038 80.333,222.817 104.929,237.112 						"/>
					</g>
					<g>
						<polygon fill="#5A2D1B" points="104.929,237.112 80.333,222.817 124.053,197.576 148.65,211.87 						"/>
					</g>
					<g>
						<polygon fill="#391B0E" points="148.65,211.87 148.656,214.09 104.936,239.332 104.929,237.112 						"/>
					</g>
				</g>
			</g>
		</g>
		<g>
			<g>
				<path fill="#EBEBEB" d="M112.136,200.718l14.624-8.494c0.399-0.231,0.728-0.048,0.729,0.412l0.056,10.504
					c0,0.458-0.326,1.02-0.722,1.253l-14.623,8.494c-0.4,0.233-0.724,0.047-0.729-0.41l-0.054-10.504
					C111.414,201.517,111.737,200.952,112.136,200.718z"/>
				<rect x="125.518" y="205.15" fill="#BFBFBF" width="0.42" height="0.577"/>
				<path fill="#BFBFBF" d="M112.06,213.22h0.389v0.427l14.538-8.444c0.397-0.233,1.047-0.236,1.443-0.002l10.338,5.305v0.931
					h-0.002c-0.01,0.144-0.108,0.287-0.297,0.398l-14.625,8.494c-0.4,0.231-1.05,0.231-1.443,0.007l-10.042-5.797
					c-0.189-0.11-0.287-0.253-0.296-0.397h-0.001V213.22z"/>
				<g>
					<g>
						<g>
							<path fill="#F8F9FC" d="M112.356,213.631l10.042,5.798c0.395,0.225,1.043,0.225,1.444-0.007l14.626-8.494
								c0.397-0.232,0.399-0.608,0-0.836l-10.039-5.797c-0.396-0.232-1.046-0.229-1.443,0.002l-1.469,0.854l0.277,0.159
								l-10.619,6.131l-0.246-0.142l-2.569,1.493C111.96,213.024,111.958,213.4,112.356,213.631z"/>
						</g>
					</g>
				</g>
				<g>
					<g>
						<path fill="#BFBFBF" d="M126.974,192.001c-0.065-0.041-0.136-0.079-0.206-0.119c-0.131-0.076-0.315-0.064-0.517,0.051
							l-14.624,8.495c-0.395,0.233-0.719,0.794-0.714,1.251l0.051,10.502c0,0.229,0.082,0.39,0.213,0.464
							c0.173,0.1,0.346,0.199,0.516,0.299c-0.129-0.075-0.211-0.236-0.211-0.463l-0.054-10.502c-0.003-0.457,0.32-1.021,0.719-1.254
							l14.621-8.493c0.203-0.118,0.387-0.129,0.517-0.054C127.26,192.165,127.044,192.042,126.974,192.001z"/>
					</g>
				</g>
				<g id="XMLID_60_">
					<path id="XMLID_63_" fill="#303030" d="M114.231,215.112c0,0.18,0.109,0.388,0.244,0.466c0.135,0.077,0.244-0.005,0.244-0.185
						s-0.109-0.388-0.244-0.466C114.34,214.851,114.231,214.933,114.231,215.112z"/>
					<path id="XMLID_62_" fill="#4F4F4F" d="M114.691,215.445c-0.135-0.078-0.244-0.286-0.244-0.466
						c0-0.022,0.001-0.043,0.005-0.062c-0.124-0.056-0.221,0.025-0.221,0.194c0,0.18,0.109,0.388,0.244,0.466
						c0.118,0.068,0.216,0.013,0.239-0.123C114.706,215.452,114.699,215.449,114.691,215.445z"/>
					<path id="XMLID_61_" fill="#EBEBEB" d="M114.542,215.54c-0.135-0.077-0.244-0.286-0.244-0.466c0-0.077,0.021-0.136,0.056-0.172
						c-0.073,0.014-0.123,0.089-0.123,0.21c0,0.18,0.109,0.388,0.244,0.466c0.076,0.044,0.144,0.035,0.188-0.012
						C114.627,215.572,114.586,215.565,114.542,215.54z"/>
				</g>
				<g id="XMLID_23_">
					<path id="XMLID_59_" fill="#303030" d="M115.093,215.613c0,0.18,0.109,0.388,0.244,0.466c0.134,0.078,0.244-0.005,0.244-0.185
						c0-0.179-0.109-0.388-0.244-0.466C115.202,215.352,115.093,215.434,115.093,215.613z"/>
					<path id="XMLID_58_" fill="#4F4F4F" d="M115.552,215.946c-0.135-0.077-0.244-0.286-0.244-0.466
						c0-0.021,0.001-0.042,0.005-0.062c-0.124-0.056-0.221,0.025-0.221,0.194c0,0.18,0.109,0.388,0.244,0.466
						c0.118,0.068,0.216,0.013,0.239-0.122C115.567,215.953,115.56,215.951,115.552,215.946z"/>
					<path id="XMLID_57_" fill="#EBEBEB" d="M115.404,216.041c-0.134-0.077-0.244-0.286-0.244-0.465
						c0-0.078,0.021-0.136,0.056-0.173c-0.073,0.015-0.123,0.089-0.123,0.21c0,0.18,0.109,0.388,0.244,0.466
						c0.076,0.044,0.144,0.035,0.188-0.012C115.489,216.073,115.448,216.067,115.404,216.041z"/>
				</g>
				<path fill="#B3B3B3" d="M113.874,213.237c0.06,0.159,0.205,0.315,0.429,0.445l5.131,2.981c0.555,0.319,1.394,0.354,1.874,0.077
					l12.983-7.489c0.005-0.002,0.011-0.006,0.016-0.01c0.142-0.085,0.233-0.188,0.277-0.3c0.101-0.253-0.048-0.551-0.429-0.771
					l-5.131-2.981c-0.555-0.32-1.394-0.354-1.874-0.079l-12.983,7.489c-0.133,0.077-0.224,0.168-0.273,0.269
					C113.834,212.984,113.829,213.112,113.874,213.237z"/>
				<path opacity="0.3" fill="#E6E8ED" d="M113.874,213.237c0.06,0.159,0.205,0.315,0.429,0.445l5.131,2.981
					c0.555,0.319,1.394,0.354,1.874,0.077l12.983-7.489c0.005-0.002,0.011-0.006,0.016-0.01c0.142-0.085,0.233-0.188,0.277-0.3
					c-0.058-0.159-0.203-0.317-0.429-0.447l-5.131-2.981c-0.555-0.321-1.394-0.354-1.874-0.078l-12.983,7.488
					c-0.133,0.077-0.224,0.168-0.273,0.268C113.886,213.206,113.879,213.223,113.874,213.237z"/>
				<g>
					<g>
						<g>
							<polygon fill="#4D4D4D" points="127.166,207.166 128.183,207.75 127.136,208.363 126.12,207.778 							"/>
						</g>
					</g>
					<g>
						<g>
							<polygon fill="#4D4D4D" points="128.788,207.661 129.801,208.244 128.752,208.855 127.737,208.273 							"/>
						</g>
					</g>
					<g>
						<g>
							<polygon fill="#4D4D4D" points="130.248,206.886 131.421,207.56 132.097,207.946 132.437,208.142 130.668,209.175 
								129.653,208.594 130.197,208.276 129.023,207.597 							"/>
						</g>
					</g>
					<g>
						<g>
							<polygon fill="#4D4D4D" points="127.605,208.347 128.622,208.933 127.572,209.544 126.561,208.962 							"/>
						</g>
					</g>
					<g>
						<g>
							<polygon fill="#4D4D4D" points="132.673,208.276 133.688,208.861 131.526,210.125 130.51,209.541 							"/>
						</g>
					</g>
					<g>
						<g>
							<polygon fill="#4D4D4D" points="130.406,209.602 131.421,210.184 129.782,211.142 128.765,210.557 							"/>
						</g>
					</g>
					<g>
						<g>
							<polygon fill="#4D4D4D" points="127.171,210.044 128.188,210.627 127.138,211.238 126.125,210.656 							"/>
						</g>
					</g>
					<g>
						<g>
							<polygon fill="#4D4D4D" points="127.695,205.417 128.708,206.002 127.659,206.613 126.644,206.03 							"/>
						</g>
					</g>
					<g>
						<g>
							<polygon fill="#4D4D4D" points="126.446,206.146 127.461,206.728 126.413,207.343 125.396,206.759 							"/>
						</g>
					</g>
					<g>
						<g>
							<polygon fill="#4D4D4D" points="128.938,206.132 129.953,206.714 128.329,207.666 127.313,207.081 							"/>
						</g>
					</g>
					<g>
						<g>
							<polygon fill="#4D4D4D" points="125.198,206.875 126.214,207.459 125.166,208.07 124.149,207.488 							"/>
						</g>
					</g>
					<g>
						<g>
							<polygon fill="#4D4D4D" points="123.948,207.605 124.965,208.189 123.916,208.8 122.901,208.219 							"/>
						</g>
					</g>
					<g>
						<g>
							<polygon fill="#4D4D4D" points="125.974,207.862 126.99,208.444 125.94,209.06 124.927,208.474 							"/>
						</g>
					</g>
					<g>
						<g>
							<polygon fill="#4D4D4D" points="122.7,208.335 123.719,208.916 122.669,209.531 121.651,208.945 							"/>
						</g>
					</g>
					<g>
						<g>
							<polygon fill="#4D4D4D" points="124.779,208.559 125.794,209.143 124.747,209.753 123.732,209.172 							"/>
						</g>
					</g>
					<g>
						<g>
							<polygon fill="#4D4D4D" points="129.518,208.67 130.534,209.256 129.484,209.871 128.47,209.285 							"/>
						</g>
					</g>
					<g>
						<g>
							<polygon fill="#4D4D4D" points="121.452,209.062 122.467,209.647 121.42,210.26 120.402,209.676 							"/>
						</g>
					</g>
					<g>
						<g>
							<polygon fill="#4D4D4D" points="126.426,209.039 127.442,209.621 126.395,210.234 125.38,209.649 							"/>
						</g>
					</g>
					<g>
						<g>
							<polygon fill="#4D4D4D" points="123.586,209.256 124.602,209.837 123.554,210.452 122.539,209.871 							"/>
						</g>
					</g>
					<g>
						<g>
							<polygon fill="#4D4D4D" points="128.337,209.362 129.353,209.944 128.308,210.557 127.287,209.976 							"/>
						</g>
					</g>
					<g>
						<g>
							<polygon fill="#4D4D4D" points="125.248,209.726 126.264,210.31 125.217,210.922 124.199,210.339 							"/>
						</g>
					</g>
					<g>
						<g>
							<polygon fill="#4D4D4D" points="120.205,209.792 121.22,210.376 120.172,210.987 119.154,210.405 							"/>
						</g>
					</g>
					<g>
						<g>
							<polygon fill="#4D4D4D" points="122.393,209.953 123.41,210.536 122.361,211.147 121.346,210.564 							"/>
						</g>
					</g>
					<g>
						<g>
							<polygon fill="#4D4D4D" points="124.068,210.417 125.083,210.998 124.035,211.612 123.018,211.027 							"/>
						</g>
					</g>
					<g>
						<g>
							<polygon fill="#4D4D4D" points="118.957,210.522 119.971,211.104 118.921,211.716 117.908,211.135 							"/>
						</g>
					</g>
					<g>
						<g>
							<polygon fill="#4D4D4D" points="121.199,210.649 122.216,211.231 121.167,211.845 120.15,211.261 							"/>
						</g>
					</g>
					<g>
						<g>
							<polygon fill="#4D4D4D" points="125.954,210.756 126.967,211.337 125.92,211.951 124.905,211.366 							"/>
						</g>
					</g>
					<g>
						<g>
							<polygon fill="#4D4D4D" points="122.888,211.104 123.902,211.687 122.855,212.302 121.837,211.716 							"/>
						</g>
					</g>
					<g>
						<g>
							<polygon fill="#4D4D4D" points="117.706,211.25 118.724,211.833 117.675,212.447 116.658,211.863 							"/>
						</g>
					</g>
					<g>
						<g>
							<polygon fill="#4D4D4D" points="120.006,211.347 121.026,211.929 119.972,212.543 118.957,211.958 							"/>
						</g>
					</g>
					<g>
						<g>
							<polygon fill="#4D4D4D" points="124.786,211.437 125.803,212.02 124.754,212.631 123.737,212.047 							"/>
						</g>
					</g>
					<g>
						<g>
							<polygon fill="#4D4D4D" points="121.708,211.794 122.723,212.377 121.674,212.988 120.657,212.408 							"/>
						</g>
					</g>
					<g>
						<g>
							<polygon fill="#4D4D4D" points="123.609,212.125 124.622,212.708 123.572,213.318 122.56,212.737 							"/>
						</g>
					</g>
					<g>
						<g>
							<polygon fill="#4D4D4D" points="115.986,212.256 117.002,212.84 115.951,213.452 114.938,212.87 							"/>
						</g>
					</g>
					<g>
						<g>
							<polygon fill="#4D4D4D" points="120.53,212.481 121.546,213.066 120.496,213.679 119.48,213.095 							"/>
						</g>
					</g>
					<g>
						<g>
							<polygon fill="#4D4D4D" points="128.661,210.62 129.676,211.205 125.07,213.894 124.056,213.309 							"/>
						</g>
					</g>
					<g>
						<g>
							<polygon fill="#4D4D4D" points="122.442,212.805 123.458,213.389 122.409,214.002 121.391,213.42 							"/>
						</g>
					</g>
					<g>
						<g>
							<polygon fill="#4D4D4D" points="118.761,212.075 119.776,212.656 117.194,214.166 116.18,213.585 							"/>
						</g>
					</g>
					<g>
						<g>
							<polygon fill="#4D4D4D" points="119.345,213.174 120.36,213.756 118.438,214.881 117.422,214.295 							"/>
						</g>
					</g>
					<g>
						<g>
							<polygon fill="#4D4D4D" points="123.906,213.396 124.921,213.981 123.282,214.938 122.267,214.354 							"/>
						</g>
					</g>
					<g>
						<g>
							<polygon fill="#4D4D4D" points="121.249,213.503 122.26,214.086 119.68,215.594 118.665,215.01 							"/>
						</g>
					</g>
					<g>
						<g>
							<polygon fill="#4D4D4D" points="122.135,214.432 123.153,215.016 120.929,216.312 119.916,215.729 							"/>
						</g>
					</g>
				</g>
				<g>
					<path fill="#B3B3B3" d="M127.136,214.398c0.049,0.1,0.145,0.195,0.285,0.276l0.909,0.542c0.396,0.229,0.994,0.254,1.336,0.056
						l2.361-1.361c0.089-0.052,0.152-0.112,0.19-0.181c0.106-0.189,0.005-0.423-0.287-0.592l-0.908-0.543
						c-0.396-0.228-0.994-0.252-1.336-0.054l-2.361,1.361C127.105,214.03,127.044,214.219,127.136,214.398z"/>
					<path opacity="0.3" fill="#E6E8ED" d="M127.136,214.398c0.049,0.1,0.145,0.195,0.285,0.276l0.909,0.542
						c0.396,0.229,0.994,0.254,1.336,0.056l2.361-1.361c0.089-0.052,0.152-0.112,0.19-0.181c-0.049-0.1-0.146-0.196-0.287-0.277
						l-0.908-0.543c-0.396-0.228-0.994-0.253-1.336-0.055l-2.361,1.361C127.235,214.269,127.173,214.331,127.136,214.398z"/>
				</g>
				<path id="XMLID_11_" fill="#1A1A1A" d="M119.418,197.336c0,0.195-0.119,0.421-0.265,0.505c-0.146,0.084-0.265-0.005-0.265-0.2
					c0-0.195,0.118-0.421,0.265-0.505C119.3,197.052,119.418,197.142,119.418,197.336z"/>
				<polygon id="XMLID_7_" fill="#489F97" points="126.765,203.505 112.409,211.945 112.409,202.167 126.765,193.726 				"/>
				<g>
					<g>
						<path fill="#F4F5F2" d="M122.049,205.716l-8.917,5.148l0-8.339l8.918-5.148V205.716z M113.337,210.509l8.507-4.911v-7.864
							l-8.507,4.911V210.509z"/>
					</g>
					<g>
						<polygon fill="#F4F5F2" points="121.946,199.792 113.234,204.822 113.234,204.585 121.946,199.556 						"/>
					</g>
					<g>
						<polygon fill="#F4F5F2" points="121.946,198.689 113.234,203.719 113.234,203.482 121.946,198.452 						"/>
					</g>
					<g>
						<polygon fill="#F4F5F2" points="121.946,202.243 113.234,207.272 113.234,207.035 121.946,202.005 						"/>
					</g>
					<g>
						<polygon fill="#F4F5F2" points="117.49,204.608 117.284,204.727 117.284,202.366 117.49,202.247 						"/>
					</g>
					<g>
						<polygon fill="#F4F5F2" points="121.82,201.126 117.387,203.686 117.387,203.448 121.82,200.889 						"/>
					</g>
					<g>
						<polygon fill="#F4F5F2" points="119.192,201.265 118.986,201.383 118.986,200.331 119.191,200.213 						"/>
					</g>
					<g>
						<polygon fill="#F4F5F2" points="116.439,202.854 116.234,202.972 116.234,201.869 116.439,201.75 						"/>
					</g>
					<g>
						<polygon fill="#F4F5F2" points="121.947,204.433 113.234,209.463 113.234,209.226 121.947,204.196 						"/>
					</g>
					<g>
						<polygon fill="#F4F5F2" points="121.946,203.33 113.234,208.359 113.234,208.123 121.946,203.092 						"/>
					</g>
					<g>
						<polygon fill="#F4F5F2" points="119.192,205.905 118.986,206.023 118.986,204.972 119.192,204.853 						"/>
					</g>
					<g>
						<polygon fill="#F4F5F2" points="116.439,207.494 116.234,207.613 116.234,206.509 116.439,206.391 						"/>
					</g>
				</g>
				<polygon fill="#F4F5F2" points="122.868,196.797 125.965,194.976 125.965,203.194 122.868,205.015 				"/>
				<polygon id="XMLID_6_" fill="#B3B3B3" points="126.518,193.868 126.518,203.371 112.409,211.669 112.409,211.945 
					126.765,203.505 126.765,193.726 				"/>
				<polygon id="XMLID_5_" opacity="0.3" fill="#E6E8ED" points="112.409,211.945 126.765,203.505 126.518,203.371 112.409,211.669 
									"/>
				<g>
					<polygon fill="#F8F9FC" points="113.924,215.31 112.993,214.781 112.993,214.124 113.924,214.652 					"/>
					<polygon fill="#4F4F4F" points="113.183,214.671 113.886,215.068 113.886,215.243 113.032,214.759 113.032,214.759 					"/>
					<g>
						<polygon fill="#303030" points="113.886,214.674 113.886,215.068 113.183,214.671 113.183,214.277 113.221,214.299 						"/>
						<polygon fill="#181A1D" points="113.886,214.733 113.886,215.013 113.221,214.637 113.221,214.358 						"/>
						<polygon fill="#404040" points="113.032,214.584 113.032,214.189 113.183,214.277 113.183,214.671 113.032,214.759 						"/>
					</g>
				</g>
			</g>
			<path opacity="0.2" fill="#B6CCDF" d="M119.419,198.045c2.49,1.067,4.951,2.205,7.346,3.517v1.942l-0.69,0.405
				c-3.127-1.446-6.311-2.809-9.488-4.2L119.419,198.045z"/>
			<path opacity="0.2" fill="#B6CCDF" d="M122.671,196.133c1.391,0.692,2.759,1.424,4.094,2.209v0.668
				c-1.552-0.913-3.161-1.719-4.795-2.466L122.671,196.133z"/>
			<g>
				<polygon fill="#F8F9FC" points="121.198,219.487 120.854,219.289 120.854,218.638 121.198,218.836 				"/>
				<polygon fill="#4A4E57" points="121.041,219.18 121.16,219.248 121.16,219.422 120.891,219.268 120.891,219.267 				"/>
				<g>
					<polygon fill="#393C41" points="121.16,218.857 121.16,219.248 121.041,219.181 121.041,218.79 121.079,218.812 					"/>
					<polygon fill="#1B2029" points="121.16,218.916 121.16,219.192 121.079,219.146 121.079,218.87 					"/>
					<polygon fill="#1B2029" points="120.891,219.094 120.891,218.703 121.041,218.79 121.041,219.18 120.891,219.267 					"/>
				</g>
			</g>
			<g>
				<polygon fill="#F8F9FC" points="120.679,219.215 120.334,219.017 120.334,218.365 120.679,218.563 				"/>
				<polygon fill="#4A4E57" points="120.522,218.907 120.641,218.976 120.641,219.149 120.372,218.994 120.372,218.994 				"/>
				<g>
					<polygon fill="#393C41" points="120.641,218.585 120.641,218.976 120.522,218.907 120.522,218.517 120.56,218.538 					"/>
					<polygon fill="#1B2029" points="120.641,218.644 120.641,218.92 120.56,218.874 120.56,218.598 					"/>
					<polygon fill="#1B2029" points="120.372,218.821 120.372,218.431 120.522,218.517 120.522,218.907 120.372,218.994 					"/>
				</g>
			</g>
		</g>
		<g>
			<path fill="#E3E3E3" d="M114.775,222.705l1.821-1.147c0.155-0.098,0.411-0.107,0.572-0.021l3.917,2.1
				c0.161,0.086,0.165,0.235,0.011,0.332l-1.821,1.147c-0.155,0.098-0.411,0.106-0.572,0.021l-3.917-2.1
				C114.626,222.952,114.622,222.803,114.775,222.705z"/>
			<path fill="#BFBFBF" d="M122.066,222.886c0.002,0.059-0.034,0.119-0.109,0.166l-0.779,0.491l-0.007-0.184
				c-0.001-0.03-0.022-0.06-0.06-0.083l0.272-0.172c0.029-0.019,0.044-0.043,0.043-0.066l-0.016-0.376
				c0-0.022-0.016-0.046-0.047-0.063l-3.157-1.691c-0.062-0.033-0.161-0.029-0.221,0.008l-0.718,0.453
				c-0.002-0.055-0.004-0.107-0.006-0.154c0-0.013-0.009-0.025-0.026-0.035c-0.035-0.019-0.089-0.017-0.124,0.005l-0.513,0.323
				c-0.017,0.011-0.025,0.024-0.025,0.037l0.01,0.255l-0.375,0.236c-0.03,0.019-0.044,0.042-0.043,0.067l0.009,0.224l-0.333-0.179
				c-0.076-0.041-0.117-0.097-0.119-0.155c0.004,0.126,0.01,0.251,0.015,0.376c0.002,0.059,0.042,0.115,0.119,0.155l3.796,2.035
				c0.156,0.083,0.405,0.074,0.554-0.021l1.765-1.111c0.076-0.047,0.111-0.107,0.11-0.166
				C122.076,223.136,122.071,223.011,122.066,222.886z"/>
			<g>
				<path fill="#0E375B" d="M121.364,222.6l-3.157-1.691c-0.062-0.033-0.161-0.029-0.221,0.008l-1.777,1.12
					c-0.06,0.037-0.058,0.096,0.003,0.129l3.157,1.691c0.062,0.033,0.162,0.029,0.221-0.008l1.777-1.12
					C121.427,222.691,121.426,222.634,121.364,222.6z"/>
				<path fill="#489F97" d="M121.364,222.705l-3.157-1.691c-0.062-0.033-0.161-0.029-0.221,0.008l-1.777,1.12
					c-0.06,0.037-0.058,0.096,0.003,0.129l3.157,1.691c0.062,0.033,0.162,0.029,0.221-0.008l1.777-1.12
					C121.427,222.797,121.426,222.739,121.364,222.705z"/>
				<path fill="#16181D" d="M120.781,223.282c0.087-0.056,0.23-0.061,0.319-0.012c0.091,0.048,0.093,0.131,0.005,0.187l-0.319,0.2
					c-0.087,0.056-0.23,0.062-0.32,0.013s-0.092-0.132-0.005-0.186L120.781,223.282z"/>
				<path fill="#F8F9FC" d="M117.596,220.715c0.15-0.095,0.399-0.104,0.554-0.02l3.797,2.034c0.155,0.084,0.159,0.228,0.01,0.322
					l-1.765,1.111c-0.15,0.095-0.398,0.104-0.555,0.021l-3.796-2.035c-0.155-0.082-0.159-0.228-0.01-0.322L117.596,220.715z
					 M121.364,222.6l-3.157-1.691c-0.062-0.033-0.161-0.029-0.221,0.008l-1.777,1.12c-0.06,0.037-0.058,0.096,0.003,0.129
					l3.157,1.691c0.062,0.033,0.162,0.029,0.221-0.008l1.777-1.12C121.427,222.691,121.426,222.634,121.364,222.6L121.364,222.6z
					 M121.106,223.457c0.087-0.056,0.086-0.139-0.005-0.187c-0.089-0.049-0.232-0.044-0.319,0.012l-0.32,0.202
					c-0.087,0.054-0.084,0.137,0.005,0.186s0.233,0.043,0.32-0.013L121.106,223.457L121.106,223.457z M116.598,221.508
					c-0.034,0.021-0.033,0.053,0.002,0.071c0.034,0.02,0.089,0.018,0.123-0.004l0.514-0.322c0.033-0.022,0.033-0.054-0.002-0.073
					c-0.035-0.019-0.089-0.017-0.124,0.005L116.598,221.508L116.598,221.508z"/>
				<path fill="#16181D" d="M117.111,221.185c0.034-0.021,0.089-0.023,0.124-0.005c0.035,0.02,0.035,0.051,0.002,0.073l-0.514,0.322
					c-0.034,0.021-0.089,0.023-0.123,0.004c-0.035-0.019-0.036-0.05-0.002-0.071L117.111,221.185z"/>
			</g>
		</g>
		<g>
			<polygon fill="#391B0E" points="122.24,237.386 122.246,243.546 104.936,253.521 104.929,247.36 			"/>
			<polygon fill="#270E04" points="107.209,246.839 121.555,238.572 121.56,243.149 107.209,251.419 			"/>
		</g>
		<g>
			<polygon fill="#391B0E" points="120.244,242.396 120.247,243.215 109.912,249.171 109.908,248.352 			"/>
		</g>
		<g>
			<g>
				<g>
					<g enable-background="new    ">
						<g>
							<g>
								<polygon fill="#BFBFBF" points="97.063,225.485 97.063,225.674 107.387,231.701 107.386,231.513 								"/>
							</g>
						</g>
						<g>
							<g>
								<polygon fill="#BFBFBF" points="107.386,231.513 107.387,231.701 115.218,227.158 115.218,226.97 								"/>
							</g>
						</g>
						<g>
							<g>
								<polygon fill="#F4F5F2" points="97.063,225.485 107.386,231.513 115.218,226.97 104.895,220.941 								"/>
							</g>
						</g>
					</g>
				</g>
				<g>
					<g enable-background="new    ">
						<g>
							<g>
								<polygon fill="#BFBFBF" points="97.063,225.267 97.063,225.455 107.387,231.482 107.386,231.294 								"/>
							</g>
						</g>
						<g>
							<g>
								<polygon fill="#BFBFBF" points="107.386,231.294 107.387,231.482 115.218,226.939 115.218,226.752 								"/>
							</g>
						</g>
						<g>
							<g>
								<polygon fill="#F4F5F2" points="97.063,225.267 107.386,231.294 115.218,226.752 104.895,220.724 								"/>
							</g>
						</g>
					</g>
				</g>
				<g>
					<g enable-background="new    ">
						<g>
							<g>
								<polygon fill="#BFBFBF" points="96.678,224.736 96.678,224.925 107.002,230.952 107,230.764 								"/>
							</g>
						</g>
						<g>
							<g>
								<polygon fill="#BFBFBF" points="107,230.764 107.002,230.952 114.833,226.409 114.833,226.221 								"/>
							</g>
						</g>
						<g>
							<g>
								<polygon fill="#F4F5F2" points="96.678,224.736 107,230.764 114.833,226.221 104.509,220.192 								"/>
							</g>
						</g>
					</g>
				</g>
				<g>
					<g enable-background="new    ">
						<g>
							<g>
								<polygon fill="#BFBFBF" points="97.063,224.83 97.063,225.019 107.387,231.046 107.386,230.857 								"/>
							</g>
						</g>
						<g>
							<g>
								<polygon fill="#BFBFBF" points="107.386,230.857 107.387,231.046 115.218,226.503 115.218,226.314 								"/>
							</g>
						</g>
						<g>
							<g>
								<polygon fill="#F4F5F2" points="97.063,224.83 107.386,230.857 115.218,226.314 104.895,220.287 								"/>
							</g>
						</g>
					</g>
				</g>
				<g>
					<g enable-background="new    ">
						<g>
							<g>
								<polygon fill="#BFBFBF" points="97.412,224.53 97.412,224.719 107.736,230.746 107.734,230.559 								"/>
							</g>
						</g>
						<g>
							<g>
								<polygon fill="#BFBFBF" points="107.734,230.559 107.736,230.746 115.566,226.204 115.566,226.016 								"/>
							</g>
						</g>
						<g>
							<g>
								<polygon fill="#F4F5F2" points="97.412,224.53 107.734,230.559 115.566,226.016 105.243,219.987 								"/>
							</g>
						</g>
					</g>
				</g>
				<g>
					<g enable-background="new    ">
						<g>
							<g>
								<polygon fill="#BFBFBF" points="97.063,224.394 97.063,224.582 107.387,230.609 107.386,230.421 								"/>
							</g>
						</g>
						<g>
							<g>
								<polygon fill="#BFBFBF" points="107.386,230.421 107.387,230.609 115.218,226.066 115.218,225.878 								"/>
							</g>
						</g>
						<g>
							<g>
								<polygon fill="#F4F5F2" points="97.063,224.394 107.386,230.421 115.218,225.878 104.895,219.851 								"/>
							</g>
						</g>
					</g>
				</g>
				<g>
					<g enable-background="new    ">
						<g>
							<g>
								<polygon fill="#BFBFBF" points="97.063,224.175 97.063,224.363 107.387,230.391 107.386,230.203 								"/>
							</g>
						</g>
						<g>
							<g>
								<polygon fill="#BFBFBF" points="107.386,230.203 107.387,230.391 115.218,225.849 115.218,225.66 								"/>
							</g>
						</g>
						<g>
							<g>
								<polygon fill="#F4F5F2" points="97.063,224.175 107.386,230.203 115.218,225.66 104.895,219.632 								"/>
							</g>
						</g>
					</g>
				</g>
				<g>
					<g enable-background="new    ">
						<g>
							<g>
								<polygon fill="#BFBFBF" points="97.063,223.957 97.063,224.146 107.387,230.173 107.386,229.984 								"/>
							</g>
						</g>
						<g>
							<g>
								<polygon fill="#BFBFBF" points="107.386,229.984 107.387,230.173 115.218,225.63 115.218,225.441 								"/>
							</g>
						</g>
						<g>
							<g>
								<polygon fill="#FDFCFC" points="97.063,223.957 107.386,229.984 115.218,225.441 104.895,219.413 								"/>
							</g>
						</g>
					</g>
				</g>
			</g>
			<g>
				<path fill="#FF8F8C" d="M106.746,219.471c0-0.103,0.073-0.229,0.163-0.28c0.046-0.027,0.088-0.028,0.117-0.011l0,0l0.321,0.184
					l-0.244,0.388l-0.309-0.175l0,0C106.765,219.56,106.746,219.523,106.746,219.471z"/>
				<g>
					<path fill="#535C68" d="M107.366,219.781L107.366,219.781c-0.004,0.024-0.007,0.049-0.007,0.071
						c0,0.039,0.009,0.068,0.024,0.091l-0.303-0.176c-0.033-0.019-0.054-0.059-0.054-0.117c0-0.021,0.003-0.041,0.007-0.063
						L107.366,219.781z"/>
					<path fill="#535C68" d="M107.292,219.313c0.016,0.001,0.031,0.004,0.045,0.012l0.292,0.171c-0.006,0-0.016-0.002-0.022-0.001
						c-0.002,0.001-0.005,0.002-0.007,0.002l-0.316-0.184H107.292z"/>
					<path fill="#8A9099" d="M107.033,219.587c0.001-0.006,0.004-0.013,0.006-0.019c0.001-0.004,0.003-0.01,0.004-0.015
						c0.008-0.025,0.018-0.049,0.03-0.073c0.001-0.001,0.003-0.001,0.003-0.003c0.01-0.02,0.025-0.036,0.039-0.054
						c0.006-0.009,0.012-0.02,0.02-0.027c0.022-0.023,0.044-0.043,0.07-0.058c0.001,0,0.001,0,0.001-0.002h0.001
						c0.013-0.007,0.025-0.013,0.039-0.016c0.003-0.002,0.008-0.002,0.012-0.004c0.007-0.001,0.016-0.004,0.024-0.004h0l0.316,0.184
						c-0.002,0.001-0.003,0.001-0.005,0.002c-0.014,0.004-0.028,0.01-0.042,0.018c0,0,0,0-0.001,0c0,0.001,0,0.001-0.001,0.001
						c-0.004,0.003-0.009,0.006-0.014,0.011c-0.022,0.014-0.043,0.031-0.061,0.053c-0.007,0.007-0.014,0.019-0.021,0.028
						c-0.015,0.018-0.03,0.035-0.042,0.057c0,0.001-0.001,0.003-0.001,0.004c-0.001,0.002-0.001,0.003-0.003,0.005
						c-0.013,0.022-0.022,0.048-0.03,0.073c-0.003,0.004-0.004,0.01-0.006,0.017c-0.001,0.005-0.004,0.011-0.006,0.017
						L107.033,219.587L107.033,219.587z"/>
				</g>
				<path fill="#CCD2DC" d="M107.074,219.48l0.334,0.194c0.002-0.002,0.002-0.003,0.003-0.005c0-0.001,0.001-0.003,0.001-0.004
					c0.012-0.021,0.027-0.039,0.042-0.057c0.007-0.01,0.014-0.021,0.021-0.028c0.018-0.021,0.039-0.039,0.061-0.053l-0.328-0.191
					h-0.001c0,0.002,0,0.002-0.001,0.002c-0.026,0.015-0.048,0.034-0.07,0.058c-0.007,0.008-0.014,0.019-0.02,0.027
					c-0.013,0.018-0.028,0.034-0.039,0.054C107.077,219.479,107.075,219.479,107.074,219.48z"/>
				<g enable-background="new    ">
					<g enable-background="new    ">
						<defs>
							<path id="SVGID_1_" enable-background="new    " d="M107.515,219.431l4.121,2.395c-0.033-0.02-0.079-0.017-0.129,0.013
								l-4.121-2.395C107.436,219.414,107.481,219.411,107.515,219.431z"/>
						</defs>
						<use xlink:href="#SVGID_1_"  overflow="visible" fill="#C33030"/>
						<clipPath id="SVGID_2_">
							<use xlink:href="#SVGID_1_"  overflow="visible"/>
						</clipPath>
						<g clip-path="url(#SVGID_2_)" enable-background="new    ">
							<path fill="#DB4848" d="M111.506,221.838l-4.121-2.395c0.029-0.017,0.056-0.024,0.08-0.025l4.121,2.395
								C111.562,221.813,111.535,221.821,111.506,221.838L111.506,221.838z"/>
							<path fill="#C33030" d="M111.585,221.813l-4.121-2.395c0.019,0,0.035,0.004,0.05,0.013l4.121,2.395
								C111.621,221.816,111.604,221.813,111.585,221.813L111.585,221.813z"/>
						</g>
					</g>
					<g enable-background="new    ">
						<defs>
							<path id="SVGID_3_" enable-background="new    " d="M111.378,222.268l-4.121-2.395c-0.033-0.02-0.053-0.06-0.053-0.116
								c0-0.115,0.081-0.256,0.181-0.313l4.121,2.395c-0.1,0.058-0.181,0.198-0.181,0.313
								C111.325,222.208,111.345,222.249,111.378,222.268z"/>
						</defs>
						<clipPath id="SVGID_4_">
							<use xlink:href="#SVGID_3_"  overflow="visible"/>
						</clipPath>
						<g clip-path="url(#SVGID_4_)" enable-background="new    ">
							<path fill="#C33030" d="M111.378,222.268l-4.121-2.395c-0.033-0.02-0.053-0.06-0.053-0.116c0-0.021,0.002-0.043,0.008-0.065
								l4.121,2.395c-0.005,0.022-0.008,0.044-0.008,0.065C111.325,222.208,111.345,222.249,111.378,222.268L111.378,222.268z"/>
							<path fill="#DB4848" d="M111.333,222.086l-4.121-2.395c0.008-0.035,0.022-0.071,0.041-0.105l4.121,2.395
								C111.354,222.015,111.34,222.051,111.333,222.086L111.333,222.086z"/>
							<path fill="#EF5B5B" d="M111.373,221.98l-4.121-2.395c0.033-0.06,0.08-0.112,0.133-0.143l4.121,2.395
								C111.454,221.868,111.406,221.921,111.373,221.98L111.373,221.98z"/>
							<polygon fill="#D47775" points="111.506,221.838 107.385,219.443 107.385,219.443 111.506,221.838 111.506,221.838 							
								"/>
						</g>
					</g>
					<g>
						<path fill="#AE6260" d="M111.506,221.838c0.1-0.059,0.182-0.012,0.182,0.104c0,0.115-0.081,0.256-0.181,0.313
							c-0.1,0.058-0.182,0.012-0.182-0.104C111.325,222.036,111.406,221.896,111.506,221.838z"/>
					</g>
				</g>
				<path fill="#F7E6D1" d="M111.325,222.151c0,0.006,0,0.012,0.001,0.018c0.004,0.063,0.037,0.104,0.083,0.111l0.609,0.128l0,0
					l0.262,0.092l-0.191-0.188l-0.422-0.47c0-0.001,0-0.001,0-0.001c-0.034-0.04-0.091-0.047-0.156-0.009
					c-0.03,0.018-0.059,0.043-0.084,0.072C111.366,221.974,111.325,222.068,111.325,222.151z"/>
				<path fill="#F0DCC5" d="M111.326,222.169c0.003,0.059,0.031,0.097,0.071,0.108c0.004,0.002,0.008,0.002,0.012,0.003l0.609,0.128
					l0,0l0.262,0.092L111.326,222.169L111.326,222.169L111.326,222.169z"/>
				<g>
					<path fill="#F0DCC5" d="M111.664,221.838l0.425,0.474l0.191,0.188l0,0l-0.739-0.682
						C111.592,221.799,111.636,221.805,111.664,221.838z"/>
					<path fill="#FFF1DF" d="M111.51,221.832c0.011-0.006,0.021-0.009,0.031-0.014l0.739,0.682l-0.854-0.596
						C111.451,221.875,111.479,221.85,111.51,221.832z"/>
				</g>
				<path fill="#4E4E4E" d="M112.009,222.385c0,0.011,0.003,0.019,0.009,0.023l0,0l0.262,0.092l-0.191-0.188l0,0.001
					c-0.008-0.009-0.021-0.011-0.036-0.002C112.029,222.324,112.009,222.357,112.009,222.385z"/>
			</g>
		</g>
		<g>
			<g>
				<g>
					<path fill="#B32B2B" d="M99.488,207.06c1.927,1.119,1.938,2.931,0.022,4.05c-1.914,1.118-5.029,1.118-6.958,0
						c-1.927-1.118-1.937-2.931-0.022-4.05C94.446,205.941,97.561,205.941,99.488,207.06z"/>
				</g>
				<path fill="#B32B2B" d="M100.94,209.085c-0.076-2.752-2.249-4.959-4.92-4.959c-2.67,0-4.843,2.207-4.919,4.959H100.94z"/>
			</g>
			<path fill="#D63A3B" d="M94.495,207.775c-0.265,0.744-0.883,1.202-1.38,1.023c-0.497-0.179-0.683-0.928-0.418-1.672
				c0.266-0.744,0.885-1.202,1.381-1.023C94.573,206.282,94.761,207.03,94.495,207.775z"/>
			<g>
				<g enable-background="new    ">
					<g enable-background="new    ">
						<g enable-background="new    ">
							<path fill="#BC3E30" d="M84.045,209.84l0.336-0.196c-0.123-0.071-0.236-0.097-0.333-0.082l-0.336,0.197
								C83.809,209.744,83.922,209.769,84.045,209.84L84.045,209.84z"/>
							<path fill="#973227" d="M83.712,209.759l0.336-0.197c-0.038,0.006-0.074,0.018-0.107,0.038l-0.336,0.197
								C83.636,209.777,83.672,209.765,83.712,209.759L83.712,209.759z"/>
						</g>
					</g>
					<g enable-background="new    ">
						<g enable-background="new    ">
							<path fill="#973227" d="M84.482,211.316l0.336-0.197c0.112-0.065,0.18-0.204,0.182-0.399c0-0.149-0.039-0.31-0.105-0.462
								l-0.337,0.196c0.067,0.153,0.105,0.314,0.105,0.462C84.663,211.113,84.593,211.251,84.482,211.316L84.482,211.316z"/>
							<path fill="#BC3E30" d="M84.558,210.454l0.337-0.196c-0.111-0.255-0.299-0.49-0.514-0.613l-0.336,0.196
								C84.259,209.964,84.447,210.2,84.558,210.454L84.558,210.454z"/>
						</g>
					</g>
					<g>
						<path fill="#D63A3B" d="M84.045,209.84c-0.343-0.199-0.621-0.039-0.622,0.357c-0.001,0.395,0.275,0.876,0.617,1.076
							c0.343,0.198,0.622,0.039,0.623-0.357C84.665,210.521,84.388,210.04,84.045,209.84z"/>
					</g>
				</g>
			</g>
			<g>
				<g enable-background="new    ">
					<g enable-background="new    ">
						<g enable-background="new    ">
							<path fill="#A5A6A8" d="M93.596,222.439l-0.002,0.812c-0.002,0.561-0.341,1.119-1.018,1.566l0.002-0.81
								C93.255,223.56,93.594,223,93.596,222.439L93.596,222.439z"/>
							<path fill="#CFCFD2" d="M92.578,224.008l-0.002,0.81c-0.056,0.037-0.113,0.072-0.172,0.107
								c-0.627,0.366-1.41,0.588-2.225,0.666l0.002-0.81c0.815-0.079,1.598-0.301,2.225-0.667
								C92.465,224.079,92.523,224.044,92.578,224.008L92.578,224.008z"/>
							<path fill="#A5A6A8" d="M90.181,224.781l-0.002,0.81c-1.256,0.12-2.593-0.102-3.567-0.666
								c-0.807-0.469-1.21-1.083-1.208-1.697l0.002-0.81c-0.002,0.613,0.401,1.229,1.208,1.696
								C87.587,224.679,88.924,224.901,90.181,224.781L90.181,224.781z"/>
						</g>
					</g>
					<g>
						<path fill="#F0EBEB" d="M92.388,220.743c1.605,0.932,1.612,2.439,0.018,3.371c-1.594,0.931-4.188,0.932-5.792,0
							c-1.605-0.931-1.612-2.439-0.018-3.371C88.19,219.813,90.784,219.813,92.388,220.743z"/>
					</g>
				</g>
			</g>
			<g>
				<g enable-background="new    ">
					<g>
						<g enable-background="new    ">
							<path fill="#D63A3B" d="M91.631,222.021l-0.005,0.572c-0.001,0.291-0.177,0.581-0.529,0.813l0.005-0.571
								C91.455,222.603,91.629,222.312,91.631,222.021L91.631,222.021z"/>
							<path fill="#D63A3B" d="M91.102,222.835l-0.005,0.571c-0.028,0.019-0.059,0.037-0.089,0.056
								c-0.326,0.19-0.732,0.307-1.156,0.347l0.005-0.572c0.424-0.04,0.831-0.155,1.156-0.346
								C91.043,222.872,91.073,222.854,91.102,222.835L91.102,222.835z"/>
							<path fill="#D63A3B" d="M89.856,223.236l-0.005,0.572c-0.654,0.062-1.348-0.054-1.854-0.347
								c-0.419-0.243-0.629-0.563-0.628-0.881l0.005-0.572c-0.001,0.319,0.208,0.638,0.628,0.882
								C88.508,223.184,89.203,223.299,89.856,223.236L89.856,223.236z"/>
						</g>
					</g>
					<g>
						<path fill="#DB5A5A" d="M91.002,221.139c0.833,0.483,0.838,1.269,0.009,1.752c-0.828,0.484-2.176,0.484-3.009,0
							c-0.834-0.483-0.838-1.269-0.01-1.752C88.821,220.655,90.169,220.655,91.002,221.139z"/>
					</g>
				</g>
			</g>
			<g>
				<g enable-background="new    ">
					<g enable-background="new    ">
						<g enable-background="new    ">
							<path fill="#929395" d="M84.474,210.541l5.831,11.206c0,0.11-0.067,0.22-0.2,0.309l-5.832-11.206
								C84.407,210.762,84.473,210.652,84.474,210.541L84.474,210.541z"/>
							<path fill="#B6B7BA" d="M84.272,210.85l5.832,11.206c-0.011,0.007-0.022,0.014-0.034,0.021
								c-0.124,0.072-0.277,0.117-0.438,0.131l-5.83-11.204c0.161-0.016,0.315-0.061,0.438-0.132
								C84.251,210.864,84.262,210.857,84.272,210.85L84.272,210.85z"/>
							<path fill="#929395" d="M83.801,211.003l5.83,11.204c-0.247,0.025-0.535,0.015-0.703-0.131
								c-0.084-0.073-0.29-0.434-0.29-0.434l-5.778-11.105c-0.001,0.121,0.079,0.242,0.237,0.334
								C83.29,210.982,83.553,211.025,83.801,211.003L83.801,211.003z"/>
						</g>
					</g>
					<g>
						<path fill="#C2C3C5" d="M84.236,210.207c0.316,0.184,0.317,0.481,0.004,0.664c-0.314,0.184-0.825,0.184-1.141,0
							c-0.316-0.183-0.317-0.48-0.003-0.664C83.409,210.024,83.919,210.024,84.236,210.207z"/>
					</g>
				</g>
			</g>
			<g>
				<g enable-background="new    ">
					<g enable-background="new    ">
						<g enable-background="new    ">
							<path fill="#A5A6A8" d="M95.787,202.355l-11.205,8.065c0,0.119-0.072,0.237-0.215,0.332l11.205-8.066
								C95.714,202.593,95.785,202.474,95.787,202.355L95.787,202.355z"/>
							<path fill="#A5A6A8" d="M95.064,202.851l-11.205,8.065c-0.266,0.025-0.548-0.021-0.753-0.141
								c-0.171-0.099-0.256-0.229-0.255-0.359l11.203-8.065c0,0.129,0.085,0.259,0.256,0.358
								C94.516,202.829,94.798,202.876,95.064,202.851L95.064,202.851z"/>
						</g>
					</g>
					<g>
						<path fill="#DBDCDF" d="M95.531,201.996c0.338,0.197,0.341,0.517,0.003,0.713c-0.337,0.197-0.885,0.197-1.225,0
							c-0.338-0.197-0.341-0.516-0.003-0.713C94.643,201.8,95.191,201.8,95.531,201.996z"/>
					</g>
				</g>
			</g>
			<path fill="#CFCFD2" d="M95.571,202.687l-11.205,8.066c-0.012,0.008-0.023,0.015-0.036,0.022
				c-0.133,0.077-0.299,0.125-0.471,0.141l11.205-8.065c0.172-0.017,0.337-0.063,0.47-0.141
				C95.547,202.702,95.56,202.695,95.571,202.687L95.571,202.687z"/>
			<g>
				<g enable-background="new    ">
					<g enable-background="new    ">
						<g enable-background="new    ">
							<path fill="#BC3E30" d="M83.352,210.19l0.336-0.197c-0.123-0.071-0.236-0.096-0.333-0.081l-0.337,0.197
								C83.115,210.094,83.229,210.119,83.352,210.19L83.352,210.19z"/>
							<path fill="#973227" d="M83.019,210.109l0.337-0.197c-0.039,0.006-0.075,0.019-0.108,0.038l-0.336,0.197
								C82.943,210.128,82.979,210.115,83.019,210.109L83.019,210.109z"/>
						</g>
					</g>
					<g enable-background="new    ">
						<g enable-background="new    ">
							<path fill="#973227" d="M83.79,211.666l0.336-0.196c0.111-0.066,0.181-0.203,0.181-0.4c0-0.148-0.039-0.309-0.105-0.463
								l-0.336,0.197c0.067,0.153,0.105,0.314,0.105,0.463C83.969,211.463,83.9,211.601,83.79,211.666L83.79,211.666z"/>
							<path fill="#BC3E30" d="M83.865,210.804l0.336-0.197c-0.111-0.254-0.299-0.489-0.513-0.613l-0.336,0.197
								C83.566,210.314,83.754,210.549,83.865,210.804L83.865,210.804z"/>
						</g>
					</g>
					<g>
						<path fill="#D63A3B" d="M83.352,210.19c-0.343-0.198-0.621-0.039-0.622,0.356c-0.001,0.396,0.276,0.877,0.618,1.076
							c0.343,0.199,0.622,0.04,0.623-0.356C83.972,210.871,83.694,210.389,83.352,210.19z"/>
					</g>
				</g>
			</g>
			<g>
				<g enable-background="new    ">
					<g>
						<g enable-background="new    ">
							<path fill="#D63A3B" d="M98.049,201.145l-0.021,3.503c0,0.275-0.167,0.551-0.501,0.772l0.021-3.503
								C97.88,201.696,98.048,201.421,98.049,201.145L98.049,201.145z"/>
							<path fill="#D63A3B" d="M97.547,201.917l-0.021,3.503c-0.026,0.018-0.055,0.036-0.084,0.052
								c-0.31,0.181-0.694,0.291-1.096,0.329l0.02-3.503c0.401-0.038,0.787-0.148,1.095-0.328
								C97.491,201.953,97.52,201.935,97.547,201.917L97.547,201.917z"/>
							<path fill="#D63A3B" d="M96.367,202.298l-0.02,3.503c-0.62,0.06-1.278-0.051-1.758-0.329
								c-0.397-0.23-0.596-0.534-0.595-0.835l0.019-3.502c-0.001,0.302,0.198,0.604,0.596,0.835
								C95.088,202.248,95.747,202.357,96.367,202.298L96.367,202.298z"/>
						</g>
					</g>
					<g>
						<path fill="#DB5A5A" d="M97.453,200.309c0.791,0.458,0.795,1.202,0.009,1.661c-0.785,0.458-2.063,0.458-2.853,0
							c-0.791-0.458-0.795-1.203-0.01-1.661C95.385,199.85,96.663,199.85,97.453,200.309z"/>
					</g>
				</g>
			</g>
			<g>
				<g enable-background="new    ">
					<g enable-background="new    ">
						<g enable-background="new    ">
							<path fill="#A5A6A8" d="M97.166,200.508l-0.012,0.575c0,0.156-0.095,0.312-0.283,0.436l0.012-0.574
								C97.071,200.82,97.165,200.665,97.166,200.508L97.166,200.508z"/>
							<path fill="#CFCFD2" d="M96.883,200.945l-0.012,0.574c-0.015,0.01-0.031,0.021-0.048,0.029
								c-0.174,0.102-0.392,0.164-0.618,0.186l0.01-0.574c0.228-0.022,0.445-0.084,0.62-0.186
								C96.851,200.964,96.867,200.955,96.883,200.945L96.883,200.945z"/>
							<path fill="#A5A6A8" d="M96.215,201.16l-0.01,0.574c-0.351,0.033-0.722-0.028-0.993-0.186
								c-0.225-0.13-0.337-0.301-0.336-0.472l0.011-0.574c0,0.171,0.111,0.342,0.336,0.472
								C95.493,201.131,95.866,201.193,96.215,201.16L96.215,201.16z"/>
						</g>
					</g>
					<g>
						<path fill="#F0EBEB" d="M96.83,200.036c0.446,0.259,0.448,0.679,0.005,0.938c-0.444,0.259-1.165,0.259-1.612,0
							c-0.446-0.259-0.448-0.679-0.005-0.938C95.662,199.777,96.383,199.777,96.83,200.036z"/>
					</g>
				</g>
			</g>
		</g>
	</g>
</g>
</svg>
