<?xml version="1.0" encoding="utf-8"?>
<!-- Generator: Adobe Illustrator 16.0.0, SVG Export Plug-In . SVG Version: 6.00 Build 0)  -->
<!DOCTYPE svg PUBLIC "-//W3C//DTD SVG 1.1//EN" "http://www.w3.org/Graphics/SVG/1.1/DTD/svg11.dtd">
<svg version="1.1" id="Layer_1" xmlns="http://www.w3.org/2000/svg" xmlns:xlink="http://www.w3.org/1999/xlink" x="0px" y="0px"
	 width="450px" height="450px" viewBox="0 0 450 450" enable-background="new 0 0 450 450" xml:space="preserve">
<g>
	<g opacity="0.2">
		<path fill="#757E89" d="M78.046,245.211c1.278,0.738,1.285,1.946,0.013,2.686l-19.833,11.496c-1.271,0.738-3.356,0.738-4.636,0
			l-15.266-8.813c-1.278-0.738-1.285-1.947-0.015-2.686l19.833-11.495c1.272-0.739,3.359-0.739,4.638-0.001L78.046,245.211z"/>
	</g>
	<g>
		<g>
			<g>
				<g enable-background="new    ">
					<g>
						<g enable-background="new    ">
							<path fill="#D63A3B" d="M57.112,222.668l2.968-1.725c0.153-0.089,0.333-0.13,0.532-0.121l-2.968,1.726
								C57.444,222.538,57.264,222.579,57.112,222.668L57.112,222.668z"/>
							<path fill="#D63A3B" d="M57.643,222.548l2.968-1.726c0.185,0.01,0.387,0.064,0.599,0.167l-2.969,1.725
								C58.03,222.612,57.828,222.557,57.643,222.548L57.643,222.548z"/>
							<path fill="#D63A3B" d="M58.242,222.714l2.969-1.725c0.047,0.022,0.094,0.049,0.143,0.076l-2.969,1.725
								C58.337,222.763,58.289,222.737,58.242,222.714L58.242,222.714z"/>
						</g>
					</g>
					<path fill="#B32B2B" d="M74.772,234.314l-0.031,11.715c-0.002,0.563-0.203,0.961-0.525,1.147l2.968-1.725
						c0.323-0.187,0.524-0.585,0.525-1.148l0.031-11.713L74.772,234.314z"/>
					<path fill="#D63A3B" d="M77.73,232.362c-0.022-0.257-0.082-0.522-0.171-0.785c-0.291-0.851-0.902-1.677-1.606-2.083
						l-14.6-8.429l-2.969,1.725l14.6,8.429c0.705,0.407,1.315,1.232,1.606,2.085c0.09,0.262,0.149,0.527,0.171,0.783
						c0.006,0.077,0.01,0.153,0.01,0.228l2.968-1.724C77.74,232.516,77.737,232.439,77.73,232.362z"/>
					<g>
						<path fill="#872220" d="M74.751,241.114l-0.01,4.915c-0.003,1.134-0.813,1.595-1.8,1.025l-14.6-8.43
							c-0.986-0.567-1.789-1.961-1.786-3.096l0.031-11.713c0.003-1.134,0.813-1.595,1.797-1.026l14.6,8.429
							c0.986,0.569,1.791,1.963,1.788,3.096L74.751,241.114L74.751,241.114z"/>
					</g>
				</g>
			</g>
			<g>
				<g enable-background="new    ">
					<g>
						<g enable-background="new    ">
							<path fill="#D63A3B" d="M43.401,240.458l-0.012,8.878c-0.495-0.285-0.743-0.664-0.742-1.042l0.012-8.879
								C42.659,239.793,42.905,240.171,43.401,240.458L43.401,240.458z"/>
						</g>
					</g>
					<path fill="#872220" d="M74.755,237.362l-0.014,8.879c0,0.373-0.244,0.745-0.731,1.028l-9,5.218l-3.826,2.217l-2.458,1.425
						l0.012-8.88l1.905-1.104l4.9-2.841l8.479-4.915C74.511,238.107,74.754,237.735,74.755,237.362z"/>
					<g>
						<polygon fill="#D63A3B" points="55.166,247.249 55.154,256.129 43.389,249.336 43.401,240.458 						"/>
					</g>
					<g>
						<g enable-background="new    ">
							<path fill="#872220" d="M58.738,247.249l-0.012,8.88c-0.979,0.568-2.587,0.568-3.573,0l0.012-8.88
								C56.152,247.818,57.759,247.818,58.738,247.249L58.738,247.249z"/>
						</g>
					</g>
					<g>
						<path fill="#D63A3B" d="M74.013,236.32c0.985,0.569,0.991,1.5,0.01,2.07l-15.285,8.858c-0.979,0.569-2.586,0.569-3.572,0
							l-11.765-6.791c-0.985-0.569-0.99-1.501-0.011-2.07l15.284-8.858c0.98-0.569,2.589-0.569,3.574-0.001L74.013,236.32z"/>
					</g>
				</g>
			</g>
			<g>
				<g enable-background="new    ">
					<g>
						<g enable-background="new    ">
							<path fill="#D63A3B" d="M58.771,210.856l-2.226-1.294c0.496-0.287,0.947-0.312,1.273-0.122l2.227,1.292
								C59.719,210.544,59.268,210.57,58.771,210.856L58.771,210.856z"/>
						</g>
					</g>
					<g>
						<g enable-background="new    ">
							<path fill="#D63A3B" d="M42.039,243.104l-2.227-1.293c-0.322-0.188-0.522-0.584-0.524-1.147l2.226,1.293
								C41.516,242.521,41.716,242.917,42.039,243.104L42.039,243.104z"/>
						</g>
					</g>
					<g>
						<polygon fill="#872220" points="41.514,241.957 39.288,240.664 39.257,221.516 41.483,222.809 						"/>
					</g>
					<g>
						<polygon fill="#D63A3B" points="43.269,219.715 41.043,218.421 56.545,209.562 58.771,210.856 						"/>
					</g>
					<g>
						<g enable-background="new    ">
							<path fill="#872220" d="M41.483,222.809l-2.226-1.293c-0.003-1.132,0.801-2.525,1.787-3.095l2.226,1.294
								C42.283,220.283,41.479,221.676,41.483,222.809L41.483,222.809z"/>
						</g>
					</g>
					<g>
						<path fill="#B32B2B" d="M58.771,210.856c0.986-0.569,1.794-0.108,1.798,1.025l0.031,19.147
							c0.003,1.135-0.801,2.526-1.787,3.096l-15.501,8.859c-0.986,0.568-1.795,0.107-1.798-1.026l-0.031-19.148
							c-0.003-1.133,0.8-2.526,1.786-3.094L58.771,210.856z"/>
					</g>
				</g>
			</g>
			<g>
				<g enable-background="new    ">
					<g enable-background="new    ">
						<g enable-background="new    ">
							<path fill="#FA543F" d="M49.785,239.304l-2.651-1.541c-0.222-0.13-0.358-0.401-0.36-0.788l2.651,1.541
								C49.426,238.901,49.563,239.174,49.785,239.304L49.785,239.304z"/>
						</g>
					</g>
					<g enable-background="new    ">
						<g enable-background="new    ">
							<path fill="#D4DBDD" d="M46.927,228.575l2.651,1.541c-0.111,0.276-0.176,0.564-0.174,0.829l0.021,7.57l-2.651-1.541
								l-0.022-7.569C46.751,229.14,46.815,228.854,46.927,228.575z"/>
							<path fill="#FFF9F5" d="M47.355,227.837c0.184-0.231,0.397-0.428,0.625-0.559l10.031-5.791
								c0.072-0.043,0.145-0.076,0.214-0.102c0.202-0.077,0.389-0.085,0.546-0.034c0.041,0.014,0.079,0.03,0.116,0.051l2.651,1.541
								c-0.037-0.021-0.075-0.039-0.116-0.052c-0.156-0.051-0.343-0.042-0.546,0.034c-0.07,0.026-0.14,0.06-0.213,0.102
								l-10.032,5.792c-0.228,0.132-0.442,0.327-0.625,0.559c-0.175,0.221-0.323,0.476-0.429,0.738l-2.651-1.541
								C47.032,228.313,47.18,228.059,47.355,227.837z"/>
						</g>
					</g>
					<g>
						<path fill="#E6ECEF" d="M60.664,223.027c0.677-0.391,1.233-0.073,1.235,0.705l0.021,7.57c0.003,0.777-0.55,1.734-1.228,2.126
							l-10.031,5.791c-0.678,0.392-1.233,0.074-1.236-0.703l-0.021-7.57c-0.003-0.778,0.549-1.734,1.228-2.126L60.664,223.027z"/>
					</g>
				</g>
			</g>
		</g>
		<g>
			<g enable-background="new    ">
				<path fill="#B32B2B" d="M54.131,245.24L54.1,256.954c-0.002,0.563-0.203,0.961-0.525,1.148l2.968-1.726
					c0.323-0.187,0.523-0.585,0.524-1.148l0.032-11.713L54.131,245.24z"/>
				<path fill="#E14E4E" d="M57.089,243.287c-0.022-0.256-0.082-0.521-0.172-0.784c-0.291-0.852-0.902-1.678-1.606-2.084
					l-14.6-8.429c-0.048-0.026-0.096-0.054-0.143-0.076c-0.212-0.103-0.415-0.157-0.6-0.167c-0.199-0.01-0.378,0.032-0.532,0.121
					l-2.967,1.726c0.152-0.09,0.332-0.131,0.531-0.121c0.185,0.009,0.387,0.063,0.599,0.166c0.047,0.023,0.095,0.049,0.143,0.076
					l14.6,8.429c0.705,0.407,1.316,1.233,1.607,2.085c0.089,0.262,0.149,0.527,0.171,0.784c0.006,0.076,0.01,0.152,0.01,0.228
					l2.968-1.725C57.099,243.44,57.096,243.364,57.089,243.287z"/>
				<g>
					<path fill="#872220" d="M54.109,252.04l-0.01,4.914c-0.003,1.134-0.813,1.595-1.799,1.025l-14.6-8.43
						c-0.986-0.567-1.79-1.961-1.787-3.095l0.032-11.714c0.003-1.135,0.813-1.596,1.797-1.026l14.6,8.429
						c0.987,0.57,1.791,1.964,1.788,3.097L54.109,252.04L54.109,252.04z"/>
				</g>
			</g>
		</g>
	</g>
</g>
</svg>
