<?xml version="1.0" encoding="utf-8"?>
<!-- Generator: Adobe Illustrator 16.0.0, SVG Export Plug-In . SVG Version: 6.00 Build 0)  -->
<!DOCTYPE svg PUBLIC "-//W3C//DTD SVG 1.1//EN" "http://www.w3.org/Graphics/SVG/1.1/DTD/svg11.dtd">
<svg version="1.1" id="Layer_1" xmlns="http://www.w3.org/2000/svg" xmlns:xlink="http://www.w3.org/1999/xlink" x="0px" y="0px"
	 width="450px" height="450px" viewBox="0 0 450 450" enable-background="new 0 0 450 450" xml:space="preserve">
<g>
	<g>
		<polygon fill="#814C2E" points="36.659,195.319 47.012,201.274 75.919,184.572 65.566,178.616 		"/>
		<polygon fill="#552A11" points="47.012,202.363 47.012,201.273 36.658,195.318 36.658,196.408 		"/>
		<polygon fill="#743E1F" points="47.012,202.363 47.012,201.273 75.92,184.571 75.92,185.662 		"/>
	</g>
	<g>
		<g>
			<g>
				<g>
					<g enable-background="new    ">
						<g>
							<polygon fill="#1A1A1A" points="74.309,185.408 67.196,182.587 68.164,172.623 74.147,176.067 							"/>
						</g>
						<g>
							<polygon fill="#666666" points="74.147,176.067 68.164,172.623 68.32,172.54 74.284,175.984 							"/>
						</g>
					</g>
				</g>
				<g>
					<g enable-background="new    ">
						<g>
							<polygon fill="#CCC49C" points="72.794,186.163 74.098,185.437 74.073,176.12 72.77,176.722 							"/>
						</g>
						<g>
							<polygon fill="#FFFFFF" points="72.77,176.834 74.073,176.232 68.285,172.861 66.98,173.464 							"/>
						</g>
						<g>
							<polygon fill="#FCFCF8" points="66.98,173.352 66.956,182.792 72.794,186.163 72.77,176.722 							"/>
						</g>
					</g>
				</g>
				<g>
					<g enable-background="new    ">
						<g>
							<polygon fill="#1A1A1A" points="72.657,186.352 66.674,182.897 66.649,173.354 72.632,176.799 							"/>
						</g>
						<g>
							<polygon fill="#666666" points="72.632,176.799 66.649,173.354 66.805,173.271 72.77,176.715 							"/>
						</g>
						<g>
							<polygon fill="#333333" points="72.77,176.715 72.794,186.268 72.657,186.352 72.632,176.799 							"/>
						</g>
					</g>
				</g>
				<polygon fill="#666666" points="73.996,175.944 72.537,176.644 72.632,176.799 74.284,175.984 				"/>
			</g>
			<g>
				<polygon fill="#333333" points="74.284,175.984 74.309,185.408 72.657,186.352 72.632,176.799 				"/>
			</g>
		</g>
		<g>
			<g>
				<g>
					<g>
						<g enable-background="new    ">
							<g>
								<polygon fill="#B3B3B3" points="72.354,186.278 64.352,183.957 66.208,173.476 72.191,176.92 								"/>
							</g>
							<g>
								<polygon fill="#F2F2F2" points="72.191,176.92 66.208,173.476 66.364,173.393 72.329,176.837 								"/>
							</g>
						</g>
					</g>
					<g>
						<g enable-background="new    ">
							<g>
								<polygon fill="#BAD884" points="69.95,187.533 72.142,186.338 72.118,176.974 69.925,178.092 								"/>
							</g>
							<g>
								<polygon fill="#FDFDFD" points="69.925,178.391 72.118,177.272 66.329,173.901 64.137,175.02 								"/>
							</g>
						</g>
					</g>
					<g>
						<g enable-background="new    ">
							<g>
								<polygon fill="#B3B3B3" points="69.813,187.721 63.83,184.267 63.805,174.725 69.789,178.168 								"/>
							</g>
							<g>
								<polygon fill="#F2F2F2" points="69.789,178.168 63.805,174.725 63.961,174.641 69.925,178.085 								"/>
							</g>
						</g>
					</g>
					<path fill="#F2F2F2" d="M72.04,176.797l-2.347,1.217l0.096,0.155c0,0,2.315-1.189,2.489-1.288
						C72.336,176.848,72.04,176.797,72.04,176.797z"/>
				</g>
				<g>
					<polygon fill="#E1E4EA" points="72.329,176.837 72.354,186.278 69.813,187.721 69.789,178.168 					"/>
				</g>
			</g>
		</g>
		<g>
			<g>
				<g>
					<g>
						<g enable-background="new    ">
							<g>
								<polygon fill="#316154" points="69.463,188.068 62.583,185.155 63.318,174.044 69.302,177.488 								"/>
							</g>
							<g>
								<polygon fill="#5BB59D" points="69.302,177.488 63.318,174.044 63.475,173.961 69.438,177.405 								"/>
							</g>
						</g>
					</g>
					<g>
						<g enable-background="new    ">
							<g>
								<polygon fill="#BAD884" points="68.181,188.731 69.252,188.128 69.228,177.542 68.156,178.069 								"/>
							</g>
							<g>
								<polygon fill="#FDFDFD" points="68.156,178.195 69.228,177.667 63.439,174.297 62.358,174.839 								"/>
							</g>
						</g>
					</g>
					<g>
						<g enable-background="new    ">
							<g>
								<polygon fill="#316154" points="68.044,188.919 62.061,185.465 62.036,174.701 68.02,178.145 								"/>
							</g>
							<g>
								<polygon fill="#5BB59D" points="68.02,178.145 62.036,174.701 62.192,174.618 68.156,178.062 								"/>
							</g>
						</g>
					</g>
					<path fill="#5BB59D" d="M69.15,177.365l-1.227,0.625l0.096,0.154c0,0,1.195-0.597,1.369-0.696
						C69.446,177.416,69.15,177.365,69.15,177.365z"/>
				</g>
				<g>
					<polygon fill="#49917E" points="69.438,177.405 69.463,188.068 68.044,188.919 68.02,178.145 					"/>
				</g>
			</g>
		</g>
		<g>
			<g>
				<g>
					<g enable-background="new    ">
						<g>
							<polygon fill="#1A1A1A" points="67.898,189.017 61.925,186.648 62.738,178.282 67.762,181.174 							"/>
						</g>
						<g>
							<polygon fill="#666666" points="67.762,181.174 62.738,178.282 62.869,178.212 67.877,181.104 							"/>
						</g>
					</g>
				</g>
				<g>
					<g enable-background="new    ">
						<g>
							<polygon fill="#CCC49C" points="66.625,189.651 67.721,189.042 67.7,181.219 66.605,181.725 							"/>
						</g>
						<g>
							<polygon fill="#FFFFFF" points="66.605,181.818 67.7,181.313 62.84,178.482 61.745,178.988 							"/>
						</g>
						<g>
							<polygon fill="#FCFCF8" points="61.745,178.895 61.724,186.821 66.625,189.651 66.605,181.725 							"/>
						</g>
					</g>
				</g>
				<g>
					<g enable-background="new    ">
						<g>
							<polygon fill="#1A1A1A" points="66.511,189.81 61.487,186.909 61.466,178.896 66.49,181.789 							"/>
						</g>
						<g>
							<polygon fill="#666666" points="66.49,181.789 61.466,178.896 61.597,178.827 66.605,181.719 							"/>
						</g>
						<g>
							<polygon fill="#333333" points="66.605,181.719 66.626,189.74 66.511,189.81 66.49,181.789 							"/>
						</g>
					</g>
				</g>
				<polygon fill="#666666" points="67.635,181.071 66.41,181.659 66.49,181.789 67.877,181.104 				"/>
			</g>
			<g>
				<polygon fill="#333333" points="67.877,181.104 67.898,189.017 66.511,189.81 66.49,181.789 				"/>
			</g>
		</g>
	</g>
	<g>
		<g>
			<g>
				<g enable-background="new    ">
					<g>
						<polygon fill="#B3B3B3" points="63.302,190.683 63.3,190.992 52.874,197.03 52.875,196.721 						"/>
					</g>
					<g>
						<polygon fill="#B3B3B3" points="52.875,196.721 52.874,197.03 45.777,192.933 45.779,192.624 						"/>
					</g>
					<g>
						<polygon fill="#E1E4EA" points="63.302,190.683 52.875,196.721 45.779,192.624 56.206,186.585 						"/>
					</g>
				</g>
			</g>
			<polygon fill="#E1E4EA" points="46.58,191.41 45.873,191.071 45.873,192.534 46.58,193.043 			"/>
			<g>
				<g enable-background="new    ">
					<g>
						<polygon fill="#EBEBEB" points="62.67,189.573 62.667,190.79 52.872,196.461 52.875,195.245 						"/>
					</g>
					<g>
						<polygon fill="#A8A8A8" points="46.338,191.475 46.338,192.693 52.872,196.461 52.875,195.245 						"/>
					</g>
					<g>
						<polygon fill="#DCDCDC" points="56.082,185.77 46.693,191.206 46.693,191.676 52.875,195.245 62.67,189.573 						"/>
					</g>
				</g>
			</g>
			<g>
				<g enable-background="new    ">
					<g>
						<polygon fill="#B3B3B3" points="63.302,188.899 63.3,189.208 52.874,195.247 52.875,194.938 						"/>
					</g>
					<g>
						<polygon fill="#B3B3B3" points="52.875,194.938 52.874,195.247 45.777,191.149 45.779,190.84 						"/>
					</g>
					<g>
						<polygon fill="#E1E4EA" points="63.302,188.899 52.875,194.938 45.779,190.84 56.206,184.802 						"/>
					</g>
				</g>
			</g>
			<polygon fill="#B3B3B3" points="46.104,192.98 45.777,192.812 45.777,190.966 46.104,191.166 			"/>
		</g>
		<g>
			<g>
				<g enable-background="new    ">
					<g>
						<polygon fill="#E88102" points="61.368,188.19 61.366,188.459 52.285,193.718 52.287,193.449 						"/>
					</g>
					<g>
						<polygon fill="#E88102" points="52.287,193.449 52.285,193.718 46.104,190.15 46.105,189.881 						"/>
					</g>
					<g>
						<polygon fill="#FBAB20" points="61.368,188.19 52.287,193.449 46.105,189.881 55.187,184.622 						"/>
					</g>
				</g>
			</g>
			<polygon fill="#8A4C01" points="46.803,188.823 46.187,188.528 46.187,189.802 46.803,190.246 			"/>
			<g>
				<g enable-background="new    ">
					<g>
						<polygon fill="#EBEBEB" points="60.817,187.224 60.815,188.283 52.284,193.223 52.286,192.163 						"/>
					</g>
					<g>
						<polygon fill="#A8A8A8" points="46.592,188.88 46.592,189.941 52.284,193.223 52.286,192.163 						"/>
					</g>
					<g>
						<polygon fill="#DCDCDC" points="55.079,183.911 46.902,188.646 46.902,189.055 52.286,192.163 60.817,187.224 						"/>
					</g>
				</g>
			</g>
			<g>
				<g enable-background="new    ">
					<g>
						<polygon fill="#E88102" points="61.368,186.637 61.366,186.906 52.285,192.165 52.287,191.896 						"/>
					</g>
					<g>
						<polygon fill="#E88102" points="52.287,191.896 52.285,192.165 46.104,188.597 46.105,188.327 						"/>
					</g>
					<g>
						<polygon fill="#FBAB20" points="61.368,186.637 52.287,191.896 46.105,188.327 55.187,183.068 						"/>
					</g>
				</g>
			</g>
			<polygon fill="#E88102" points="46.389,190.191 46.104,190.044 46.104,188.437 46.389,188.61 			"/>
		</g>
		<g>
			<g>
				<g enable-background="new    ">
					<g>
						<polygon fill="#316154" points="48.48,185.837 48.482,186.062 56.063,190.453 56.062,190.228 						"/>
					</g>
					<g>
						<polygon fill="#49917E" points="56.062,190.228 56.063,190.453 61.223,187.473 61.222,187.249 						"/>
					</g>
					<g>
						<polygon fill="#5BB59D" points="48.48,185.837 56.062,190.228 61.222,187.249 53.64,182.858 						"/>
					</g>
				</g>
			</g>
			<polygon fill="#316154" points="60.64,186.366 61.154,186.12 61.154,187.183 60.64,187.554 			"/>
			<g>
				<g enable-background="new    ">
					<g>
						<polygon fill="#A8A8A8" points="48.94,185.03 48.941,185.915 56.064,190.039 56.062,189.154 						"/>
					</g>
					<g>
						<polygon fill="#EBEBEB" points="60.816,186.413 60.816,187.299 56.064,190.039 56.062,189.154 						"/>
					</g>
					<g>
						<polygon fill="#DCDCDC" points="53.73,182.264 60.557,186.217 60.557,186.559 56.062,189.154 48.94,185.03 						"/>
					</g>
				</g>
			</g>
			<g>
				<g enable-background="new    ">
					<g>
						<polygon fill="#316154" points="48.48,184.541 48.482,184.765 56.063,189.156 56.062,188.931 						"/>
					</g>
					<g>
						<polygon fill="#49917E" points="56.062,188.931 56.063,189.156 61.223,186.176 61.222,185.952 						"/>
					</g>
					<g>
						<polygon fill="#5BB59D" points="48.48,184.541 56.062,188.931 61.222,185.952 53.64,181.561 						"/>
					</g>
				</g>
			</g>
			<polygon fill="#638A28" points="60.986,187.507 61.223,187.385 61.223,186.042 60.986,186.188 			"/>
		</g>
	</g>
	<g>
		<polygon fill="#814C2E" points="44.327,168.856 54.68,174.812 83.587,158.109 73.234,152.153 		"/>
		<polygon fill="#552A11" points="54.68,175.9 54.68,174.811 44.327,168.855 44.327,169.945 		"/>
		<polygon fill="#743E1F" points="54.68,175.9 54.68,174.811 83.589,158.108 83.589,159.199 		"/>
	</g>
	<g>
		<g>
			<g>
				<g enable-background="new    ">
					<g>
						<polygon fill="#CB5747" points="67.335,157.14 67.336,157.398 76.07,162.456 76.068,162.197 						"/>
					</g>
					<g>
						<polygon fill="#CB5747" points="76.068,162.197 76.07,162.456 82.014,159.024 82.012,158.766 						"/>
					</g>
					<g>
						<polygon fill="#993427" points="67.335,157.14 76.068,162.197 82.012,158.766 73.279,153.708 						"/>
					</g>
				</g>
			</g>
			<polygon fill="#993427" points="81.342,157.749 81.934,157.465 81.934,158.69 81.342,159.117 			"/>
			<g>
				<g enable-background="new    ">
					<g>
						<polygon fill="#EBEBEB" points="67.864,156.21 67.867,157.229 76.071,161.98 76.069,160.96 						"/>
					</g>
					<g>
						<polygon fill="#A8A8A8" points="81.544,157.803 81.544,158.823 76.071,161.98 76.069,160.96 						"/>
					</g>
					<g>
						<polygon fill="#DCDCDC" points="73.382,153.024 81.247,157.577 81.247,157.971 76.069,160.96 67.864,156.21 						"/>
					</g>
				</g>
			</g>
			<g>
				<g enable-background="new    ">
					<g>
						<polygon fill="#CB5747" points="67.335,155.646 67.336,155.904 76.07,160.962 76.068,160.704 						"/>
					</g>
					<g>
						<polygon fill="#CB5747" points="76.068,160.704 76.07,160.962 82.014,157.53 82.012,157.271 						"/>
					</g>
					<g>
						<polygon fill="#FA7564" points="67.335,155.646 76.068,160.704 82.012,157.271 73.279,152.214 						"/>
					</g>
				</g>
			</g>
			<polygon fill="#CB5747" points="81.74,159.063 82.014,158.922 82.014,157.376 81.74,157.544 			"/>
		</g>
		<g>
			<g>
				<g enable-background="new    ">
					<g>
						<polygon fill="#E88102" points="68.955,155.052 68.957,155.277 76.563,159.682 76.562,159.457 						"/>
					</g>
					<g>
						<polygon fill="#E88102" points="76.562,159.457 76.563,159.682 81.74,156.693 81.739,156.468 						"/>
					</g>
					<g>
						<polygon fill="#8A4C01" points="68.955,155.052 76.562,159.457 81.739,156.468 74.132,152.063 						"/>
					</g>
				</g>
			</g>
			<polygon fill="#8A4C01" points="81.155,155.582 81.67,155.335 81.67,156.402 81.155,156.774 			"/>
			<g>
				<g enable-background="new    ">
					<g>
						<polygon fill="#EBEBEB" points="69.417,154.242 69.418,155.13 76.564,159.267 76.563,158.379 						"/>
					</g>
					<g>
						<polygon fill="#A8A8A8" points="81.331,155.629 81.331,156.518 76.564,159.267 76.563,158.379 						"/>
					</g>
					<g>
						<polygon fill="#DCDCDC" points="74.223,151.467 81.072,155.433 81.072,155.776 76.563,158.379 69.417,154.242 						"/>
					</g>
				</g>
			</g>
			<g>
				<g enable-background="new    ">
					<g>
						<polygon fill="#E88102" points="68.955,153.75 68.957,153.976 76.563,158.381 76.562,158.156 						"/>
					</g>
					<g>
						<polygon fill="#E88102" points="76.562,158.156 76.563,158.381 81.74,155.392 81.739,155.167 						"/>
					</g>
					<g>
						<polygon fill="#FBAB20" points="68.955,153.75 76.562,158.156 81.739,155.167 74.132,150.762 						"/>
					</g>
				</g>
			</g>
			<polygon fill="#E88102" points="81.502,156.728 81.74,156.604 81.74,155.258 81.502,155.404 			"/>
		</g>
		<g>
			<g>
				<g enable-background="new    ">
					<g>
						<polygon fill="#316154" points="79.75,153.081 79.749,153.269 73.398,156.947 73.399,156.758 						"/>
					</g>
					<g>
						<polygon fill="#49917E" points="73.399,156.758 73.398,156.947 69.076,154.451 69.078,154.263 						"/>
					</g>
					<g>
						<polygon fill="#5BB59D" points="79.75,153.081 73.399,156.758 69.078,154.263 75.428,150.585 						"/>
					</g>
				</g>
			</g>
			<polygon fill="#316154" points="69.565,153.523 69.134,153.317 69.134,154.208 69.565,154.519 			"/>
			<g>
				<g enable-background="new    ">
					<g>
						<polygon fill="#A8A8A8" points="79.365,152.405 79.363,153.146 73.397,156.6 73.399,155.859 						"/>
					</g>
					<g>
						<polygon fill="#EBEBEB" points="69.417,153.563 69.417,154.305 73.397,156.6 73.399,155.859 						"/>
					</g>
					<g>
						<polygon fill="#DCDCDC" points="75.353,150.088 69.634,153.399 69.634,153.686 73.399,155.859 79.365,152.405 						"/>
					</g>
				</g>
			</g>
			<g>
				<g enable-background="new    ">
					<g>
						<polygon fill="#316154" points="79.75,151.995 79.749,152.183 73.398,155.86 73.399,155.672 						"/>
					</g>
					<g>
						<polygon fill="#49917E" points="73.399,155.672 73.398,155.86 69.076,153.365 69.078,153.177 						"/>
					</g>
					<g>
						<polygon fill="#5BB59D" points="79.75,151.995 73.399,155.672 69.078,153.177 75.428,149.499 						"/>
					</g>
				</g>
			</g>
			<polygon fill="#638A28" points="69.275,154.48 69.076,154.377 69.076,153.253 69.275,153.375 			"/>
		</g>
	</g>
	<g>
		<g>
			<g enable-background="new    ">
				<g>
					<polygon fill="#ED9E00" points="53.684,164.411 53.686,164.862 61.938,169.681 61.936,169.229 					"/>
				</g>
				<g>
					<polygon fill="#D69200" points="61.936,169.229 61.938,169.681 68.198,166.048 68.196,165.598 					"/>
				</g>
				<g>
					<polygon fill="#9C6A00" points="53.684,164.411 61.936,169.229 68.196,165.598 59.944,160.78 					"/>
				</g>
			</g>
		</g>
		<g>
			<g enable-background="new    ">
				<g>
					<polygon fill="#BFBFBF" points="52.428,164.761 52.428,164.911 60.681,169.73 60.68,169.579 					"/>
				</g>
				<g>
					<polygon fill="#BFBFBF" points="60.68,169.579 60.681,169.73 66.941,166.099 66.94,165.947 					"/>
				</g>
				<g>
					<polygon fill="#EBEBEB" points="52.428,164.761 60.68,169.579 66.94,165.947 58.688,161.129 					"/>
				</g>
			</g>
		</g>
		<g>
			<g enable-background="new    ">
				<g>
					<polygon fill="#BFBFBF" points="53.405,164.649 53.406,164.799 61.658,169.618 61.657,169.467 					"/>
				</g>
				<g>
					<polygon fill="#BFBFBF" points="61.657,169.467 61.658,169.618 67.918,165.986 67.918,165.835 					"/>
				</g>
				<g>
					<polygon fill="#E3E3E3" points="53.405,164.649 61.657,169.467 67.918,165.835 59.666,161.017 					"/>
				</g>
			</g>
		</g>
		<g>
			<g enable-background="new    ">
				<g>
					<polygon fill="#BFBFBF" points="52.419,163.623 52.42,163.773 60.672,168.591 60.671,168.441 					"/>
				</g>
				<g>
					<polygon fill="#BFBFBF" points="60.671,168.441 60.672,168.591 66.933,164.96 66.933,164.81 					"/>
				</g>
				<g>
					<polygon fill="#F4F5F2" points="52.419,163.623 60.671,168.441 66.933,164.81 58.68,159.991 					"/>
				</g>
			</g>
		</g>
		<g>
			<g enable-background="new    ">
				<g>
					<polygon fill="#ED9E00" points="53.684,163.559 53.686,164.01 61.938,168.829 61.936,168.378 					"/>
				</g>
				<g>
					<polygon fill="#D69200" points="61.936,168.378 61.938,168.829 67.859,165.393 67.864,165.832 68.198,166.048 68.198,165.197 
						68.196,164.746 					"/>
				</g>
				<g>
					<polygon fill="#FFBB00" points="53.684,163.559 61.936,168.378 68.196,164.746 59.944,159.928 					"/>
				</g>
			</g>
		</g>
	</g>
	<g>
		<polygon fill="#FDFDFD" points="59.871,149.974 70.259,155.958 71.617,155.196 61.229,149.212 		"/>
		<polygon fill="#E6ECEF" points="59.874,149.97 59.874,159.871 70.261,165.852 70.261,155.959 		"/>
		<polygon fill="#D4DBDD" points="70.259,165.85 70.259,155.956 71.619,155.196 71.619,165.089 		"/>
	</g>
	<g>
		<g>
			<g enable-background="new    ">
				<g>
					<polygon fill="#AA3D2F" points="51.453,163.556 51.455,164.006 59.707,168.825 59.705,168.374 					"/>
				</g>
				<g>
					<polygon fill="#CB5747" points="59.705,168.374 59.707,168.825 65.967,165.192 65.965,164.742 					"/>
				</g>
				<g>
					<polygon fill="#AA3D2F" points="51.453,163.556 59.705,168.374 65.965,164.742 57.713,159.924 					"/>
				</g>
			</g>
		</g>
		<g>
			<g enable-background="new    ">
				<g>
					<polygon fill="#BFBFBF" points="50.197,163.905 50.197,164.055 58.45,168.874 58.449,168.724 					"/>
				</g>
				<g>
					<polygon fill="#BFBFBF" points="58.449,168.724 58.45,168.874 64.709,165.243 64.709,165.091 					"/>
				</g>
				<g>
					<polygon fill="#EBEBEB" points="50.197,163.905 58.449,168.724 64.709,165.091 56.458,160.273 					"/>
				</g>
			</g>
		</g>
		<g>
			<g enable-background="new    ">
				<g>
					<polygon fill="#BFBFBF" points="51.174,163.793 51.175,163.943 59.427,168.762 59.426,168.611 					"/>
				</g>
				<g>
					<polygon fill="#BFBFBF" points="59.426,168.611 59.427,168.762 65.687,165.13 65.687,164.979 					"/>
				</g>
				<g>
					<polygon fill="#E3E3E3" points="51.174,163.793 59.426,168.611 65.687,164.979 57.435,160.161 					"/>
				</g>
			</g>
		</g>
		<g>
			<g enable-background="new    ">
				<g>
					<polygon fill="#BFBFBF" points="50.188,162.767 50.189,162.917 58.441,167.736 58.44,167.585 					"/>
				</g>
				<g>
					<polygon fill="#BFBFBF" points="58.44,167.585 58.441,167.736 64.702,164.104 64.702,163.954 					"/>
				</g>
				<g>
					<polygon fill="#F4F5F2" points="50.188,162.767 58.44,167.585 64.702,163.954 56.449,159.135 					"/>
				</g>
			</g>
		</g>
		<g>
			<g enable-background="new    ">
				<g>
					<polygon fill="#AA3D2F" points="51.453,162.704 51.455,163.154 59.707,167.973 59.705,167.522 					"/>
				</g>
				<g>
					<polygon fill="#CB5747" points="59.705,167.522 59.707,167.973 65.628,164.537 65.633,164.976 65.967,165.192 65.967,164.341 
						65.965,163.891 					"/>
				</g>
				<g>
					<polygon fill="#FA7564" points="51.453,162.704 59.705,167.522 65.965,163.891 57.713,159.072 					"/>
				</g>
			</g>
		</g>
	</g>
	<g>
		<g>
			<g>
				<g>
					<g enable-background="new    ">
						<g>
							<polygon fill="#1A1A1A" points="59.764,171.04 52.651,168.219 53.619,158.255 59.603,161.699 							"/>
						</g>
						<g>
							<polygon fill="#666666" points="59.603,161.699 53.619,158.255 53.775,158.171 59.739,161.616 							"/>
						</g>
					</g>
				</g>
				<g>
					<g enable-background="new    ">
						<g>
							<polygon fill="#CCC49C" points="58.249,171.794 59.553,171.068 59.529,161.752 58.225,162.354 							"/>
						</g>
						<g>
							<polygon fill="#FFFFFF" points="58.225,162.466 59.529,161.864 53.74,158.493 52.436,159.096 							"/>
						</g>
						<g>
							<polygon fill="#FCFCF8" points="52.436,158.983 52.411,168.424 58.249,171.794 58.225,162.354 							"/>
						</g>
					</g>
				</g>
				<g>
					<g enable-background="new    ">
						<g>
							<polygon fill="#1A1A1A" points="58.113,171.983 52.129,168.529 52.104,158.986 58.087,162.431 							"/>
						</g>
						<g>
							<polygon fill="#666666" points="58.087,162.431 52.104,158.986 52.26,158.903 58.225,162.347 							"/>
						</g>
						<g>
							<polygon fill="#333333" points="58.225,162.347 58.25,171.9 58.113,171.983 58.087,162.431 							"/>
						</g>
					</g>
				</g>
				<polygon fill="#666666" points="59.451,161.576 57.992,162.276 58.087,162.431 59.739,161.616 				"/>
			</g>
			<g>
				<polygon fill="#333333" points="59.739,161.616 59.764,171.04 58.113,171.983 58.087,162.431 				"/>
			</g>
		</g>
		<g>
			<g>
				<g>
					<g>
						<g enable-background="new    ">
							<g>
								<polygon fill="#316154" points="57.829,172.491 50.948,169.578 51.684,158.467 57.667,161.912 								"/>
							</g>
							<g>
								<polygon fill="#5BB59D" points="57.667,161.912 51.684,158.467 51.84,158.384 57.804,161.828 								"/>
							</g>
						</g>
					</g>
					<g>
						<g enable-background="new    ">
							<g>
								<polygon fill="#BAD884" points="56.546,173.154 57.618,172.551 57.593,161.964 56.521,162.492 								"/>
							</g>
							<g>
								<polygon fill="#FDFDFD" points="56.521,162.618 57.593,162.09 51.805,158.72 50.724,159.263 								"/>
							</g>
						</g>
					</g>
					<g>
						<g enable-background="new    ">
							<g>
								<polygon fill="#316154" points="56.41,173.342 50.426,169.888 50.401,159.124 56.385,162.568 								"/>
							</g>
							<g>
								<polygon fill="#5BB59D" points="56.385,162.568 50.401,159.124 50.557,159.041 56.521,162.485 								"/>
							</g>
						</g>
					</g>
					<path fill="#5BB59D" d="M57.516,161.788l-1.227,0.625l0.096,0.154c0,0,1.195-0.597,1.369-0.696
						C57.812,161.839,57.516,161.788,57.516,161.788z"/>
				</g>
				<g>
					<polygon fill="#49917E" points="57.804,161.828 57.829,172.491 56.41,173.342 56.385,162.568 					"/>
				</g>
			</g>
		</g>
		<g>
			<g>
				<g>
					<g enable-background="new    ">
						<g>
							<polygon fill="#1A1A1A" points="55.867,173.815 49.895,171.447 50.707,163.081 55.731,165.972 							"/>
						</g>
						<g>
							<polygon fill="#666666" points="55.731,165.972 50.707,163.081 50.838,163.011 55.846,165.902 							"/>
						</g>
					</g>
				</g>
				<g>
					<g enable-background="new    ">
						<g>
							<polygon fill="#CCC49C" points="54.595,174.449 55.69,173.84 55.669,166.017 54.574,166.522 							"/>
						</g>
						<g>
							<polygon fill="#FFFFFF" points="54.574,166.617 55.669,166.111 50.809,163.28 49.714,163.786 							"/>
						</g>
						<g>
							<polygon fill="#FCFCF8" points="49.714,163.692 49.692,171.619 54.595,174.449 54.574,166.522 							"/>
						</g>
					</g>
				</g>
				<g>
					<g enable-background="new    ">
						<g>
							<polygon fill="#1A1A1A" points="54.48,174.608 49.456,171.707 49.435,163.695 54.459,166.587 							"/>
						</g>
						<g>
							<polygon fill="#666666" points="54.459,166.587 49.435,163.695 49.566,163.625 54.574,166.517 							"/>
						</g>
						<g>
							<polygon fill="#333333" points="54.574,166.517 54.595,174.538 54.48,174.608 54.459,166.587 							"/>
						</g>
					</g>
				</g>
				<polygon fill="#666666" points="55.604,165.869 54.379,166.457 54.459,166.587 55.846,165.902 				"/>
			</g>
			<g>
				<polygon fill="#333333" points="55.846,165.902 55.867,173.815 54.48,174.608 54.459,166.587 				"/>
			</g>
		</g>
	</g>
</g>
</svg>
