<?xml version="1.0" encoding="utf-8"?>
<!-- Generator: Adobe Illustrator 16.0.0, SVG Export Plug-In . SVG Version: 6.00 Build 0)  -->
<!DOCTYPE svg PUBLIC "-//W3C//DTD SVG 1.1//EN" "http://www.w3.org/Graphics/SVG/1.1/DTD/svg11.dtd">
<svg version="1.1" id="Layer_1" xmlns="http://www.w3.org/2000/svg" xmlns:xlink="http://www.w3.org/1999/xlink" x="0px" y="0px"
	 width="450px" height="450px" viewBox="0 0 450 450" enable-background="new 0 0 450 450" xml:space="preserve">
<g opacity="0.9">
	<polygon fill="#FFCCCC" points="102.06,176.271 83.465,187.006 83.425,173.109 102.021,162.373 102.06,176.271 	"/>
	<g>
		<g enable-background="new    ">
			<g>
				<polygon fill="#89949C" points="102.06,176.271 101.52,175.957 101.48,162.059 102.021,162.373 				"/>
			</g>
			<g>
				<polygon fill="#89949C" points="83.465,187.006 82.924,186.692 101.52,175.957 102.06,176.271 				"/>
			</g>
			<g>
				<polygon fill="#89949C" points="82.382,188.885 81.842,188.571 81.795,172.171 82.335,172.485 				"/>
			</g>
			<g>
				<polygon fill="#89949C" points="82.335,172.485 81.795,172.171 102.565,160.179 103.106,160.493 				"/>
			</g>
			<g>
				<path fill="#FFF9F5" d="M82.335,172.485l20.771-11.992l0.046,16.399l-20.771,11.992L82.335,172.485z M102.06,176.271
					l-0.04-13.897l-18.595,10.736l0.04,13.897L102.06,176.271L102.06,176.271z"/>
			</g>
		</g>
	</g>
</g>
</svg>
