<?xml version="1.0" encoding="utf-8"?>
<!-- Generator: Adobe Illustrator 16.0.0, SVG Export Plug-In . SVG Version: 6.00 Build 0)  -->
<!DOCTYPE svg PUBLIC "-//W3C//DTD SVG 1.1//EN" "http://www.w3.org/Graphics/SVG/1.1/DTD/svg11.dtd">
<svg version="1.1" id="Layer_1" xmlns="http://www.w3.org/2000/svg" xmlns:xlink="http://www.w3.org/1999/xlink" x="0px" y="0px"
	 width="450px" height="450px" viewBox="0 0 450 450" enable-background="new 0 0 450 450" xml:space="preserve">
<g>
	<polygon fill="#ACDDE6" points="104.91,148.342 104.848,126.557 90.947,134.583 91.009,156.368 104.91,148.342 	"/>
	<g>
		<g enable-background="new    ">
			<g>
				<polygon fill="#111A20" points="91.009,156.368 90.224,155.911 104.125,147.886 104.91,148.342 				"/>
			</g>
			<g>
				<polygon fill="#0E1419" points="104.91,148.342 104.125,147.886 104.063,126.1 104.848,126.557 				"/>
			</g>
			<g>
				<polygon fill="#0E1419" points="89.828,158.413 89.043,157.956 88.974,133.449 89.759,133.905 				"/>
			</g>
			<g>
				<polygon fill="#111A20" points="89.759,133.905 88.974,133.449 105.243,124.055 106.029,124.512 				"/>
			</g>
			<g>
				<path fill="#18252D" d="M89.759,133.905l16.27-9.394l0.069,24.507l-16.27,9.394L89.759,133.905z M104.91,148.342l-0.062-21.785
					l-13.901,8.026l0.062,21.785L104.91,148.342L104.91,148.342z"/>
			</g>
		</g>
	</g>
</g>
</svg>
