<?xml version="1.0" encoding="utf-8"?>
<!-- Generator: Adobe Illustrator 16.0.0, SVG Export Plug-In . SVG Version: 6.00 Build 0)  -->
<!DOCTYPE svg PUBLIC "-//W3C//DTD SVG 1.1//EN" "http://www.w3.org/Graphics/SVG/1.1/DTD/svg11.dtd">
<svg version="1.1" id="Layer_1" xmlns="http://www.w3.org/2000/svg" xmlns:xlink="http://www.w3.org/1999/xlink" x="0px" y="0px"
	 width="450px" height="450px" viewBox="0 0 450 450" enable-background="new 0 0 450 450" xml:space="preserve">
<g>
	<g opacity="0.4">
		<polygon fill="#ECC997" points="272.684,169.594 238.25,189.604 187.097,160.136 187.097,155.474 224.078,141.598 		"/>
	</g>
	<g>
		<g>
			<g enable-background="new    ">
				<g>
					<polygon fill="#552A11" points="233.406,178.812 233.428,186.171 236.085,187.716 236.063,180.356 					"/>
				</g>
				<g>
					<polygon fill="#743E1F" points="236.063,180.356 236.085,187.716 238.76,186.171 238.738,178.812 					"/>
				</g>
				<g>
					<polygon fill="#272727" points="233.406,178.812 236.063,180.356 238.738,178.812 236.081,177.267 					"/>
				</g>
			</g>
		</g>
		<g>
			<g enable-background="new    ">
				<g>
					<polygon fill="#552A11" points="187.067,152.226 187.053,159.586 189.71,161.13 189.689,153.771 					"/>
				</g>
				<g>
					<polygon fill="#332114" points="189.689,153.771 189.71,161.13 192.385,159.586 192.364,152.226 					"/>
				</g>
				<g>
					<polygon fill="#272727" points="187.067,152.226 189.689,153.771 192.364,152.226 189.707,150.682 					"/>
				</g>
			</g>
		</g>
		<g>
			<g enable-background="new    ">
				<g>
					<polygon fill="#332114" points="262.756,161.849 262.776,169.209 265.434,170.753 265.413,163.393 					"/>
				</g>
				<g>
					<polygon fill="#743E1F" points="265.413,163.393 265.434,170.753 268.108,169.209 268.088,161.849 					"/>
				</g>
				<g>
					<polygon fill="#272727" points="262.756,161.849 265.413,163.393 268.088,161.849 265.431,160.305 					"/>
				</g>
			</g>
		</g>
		<g>
			<g enable-background="new    ">
				<g>
					<polygon fill="#743E1F" points="268.108,159.055 268.088,166.415 236.083,185.014 236.104,177.654 					"/>
				</g>
				<g>
					<polygon fill="#552A11" points="236.104,177.654 236.083,185.014 187.067,156.681 187.067,149.309 					"/>
				</g>
				<g>
					<polygon fill="#552A11" points="268.108,159.055 236.104,177.654 187.067,149.309 219.072,130.709 					"/>
				</g>
			</g>
		</g>
		<g>
			<g enable-background="new    ">
				<g>
					<polygon fill="#743E1F" points="222.034,122.895 222.066,132.489 190.062,151.088 190.029,141.494 					"/>
					<polygon fill="#552A11" points="220.128,131.378 220.11,126.25 191.968,142.605 191.985,147.733 					"/>
				</g>
				<g>
					<polygon fill="#552A11" points="190.029,141.494 190.062,151.088 187.046,149.297 187.014,139.703 					"/>
				</g>
				<g>
					<polygon fill="#2C2C2C" points="222.034,122.895 190.029,141.494 187.014,139.703 219.019,121.104 					"/>
				</g>
			</g>
		</g>
		<g>
			<g enable-background="new    ">
				<g>
					<polygon fill="#552A11" points="223.3,121.353 223.3,122.74 188.982,142.683 188.982,141.296 					"/>
				</g>
				<g>
					<polygon fill="#743E1F" points="188.982,141.296 188.982,142.683 185.749,140.763 185.749,139.375 					"/>
				</g>
				<g>
					<polygon fill="#814C2E" points="223.3,121.353 188.982,141.296 185.749,139.375 220.067,119.432 					"/>
				</g>
			</g>
		</g>
		<g>
			<g enable-background="new    ">
				<g>
					<polygon fill="#E1E4EA" points="268.108,154.988 268.088,158.668 236.083,177.267 236.104,173.587 					"/>
				</g>
				<g>
					<polygon fill="#E1E4EA" points="236.104,173.587 236.083,177.267 190.693,151.028 190.714,147.348 					"/>
				</g>
				<g>
					<polygon fill="#F9F8F8" points="268.108,154.988 236.104,173.587 190.714,147.348 222.719,128.749 					"/>
				</g>
			</g>
		</g>
		<g>
			<path opacity="0.4" fill="#CACFD9" d="M209.397,139.012l1.288-2.539l10.434-6.024c0.421-0.243,0.941-0.241,1.36,0.005
				l5.918,3.471l0.786,1.738c0.199,0.216,0.146,0.562-0.108,0.709l-11.992,6.923c-0.105,0.061-0.216,0.054-0.306,0.006
				L209.397,139.012z"/>
			<path opacity="0.4" fill="#CACFD9" d="M193.811,148.605l1.289-2.539l10.434-6.024c0.421-0.243,0.941-0.241,1.36,0.005l5.918,3.47
				l0.786,1.738c0.199,0.216,0.147,0.562-0.108,0.708l-11.992,6.924c-0.105,0.061-0.216,0.053-0.306,0.006L193.811,148.605z"/>
			<g>
				<g enable-background="new    ">
					<g>
						<polygon fill="#005C7B" points="217.389,142.187 209.996,137.89 211.284,135.351 217.881,139.22 						"/>
					</g>
					<g>
						<path fill="#008BB3" d="M217.881,139.22l-6.597-3.869l10.434-6.024c0.421-0.243,0.941-0.242,1.36,0.004l5.918,3.471
							L217.881,139.22z"/>
					</g>
					<g>
						<path fill="#007299" d="M228.996,132.802l0.786,1.738c0.199,0.216,0.146,0.562-0.108,0.709l-11.992,6.924
							c-0.269,0.155-0.578-0.124-0.453-0.407l0.652-2.546L228.996,132.802z"/>
					</g>
				</g>
			</g>
			<g>
				<g enable-background="new    ">
					<g>
						<polygon fill="#005C7B" points="201.792,151.664 194.398,147.367 195.686,144.828 202.283,148.697 						"/>
					</g>
					<g>
						<path fill="#008BB3" d="M202.283,148.697l-6.597-3.869l10.434-6.024c0.421-0.243,0.941-0.242,1.36,0.004l5.918,3.471
							L202.283,148.697z"/>
					</g>
					<g>
						<path fill="#007299" d="M213.398,142.279l0.786,1.738c0.199,0.216,0.146,0.562-0.108,0.709l-11.992,6.924
							c-0.268,0.155-0.578-0.124-0.453-0.407l0.652-2.546L213.398,142.279z"/>
					</g>
				</g>
			</g>
		</g>
		<g>
			<polygon fill="#B8E0E6" points="205.985,156.173 237.99,137.574 243.75,140.9 211.641,159.439 			"/>
			<polygon fill="#008BB3" points="243.75,140.9 265.174,153.306 233.169,171.905 211.641,159.439 			"/>
			<path fill="#005C7B" d="M226.943,162.57c-0.803,0.11-1.539,0.626-1.916,1.343c-0.058,0.11-0.109,0.232-0.097,0.356
				c0.014,0.142,0.108,0.263,0.211,0.362c0.453,0.437,1.102,0.592,1.72,0.707c1.671,0.31,3.385,0.447,5.072,0.253
				c1.688-0.195,3.354-0.731,4.757-1.688c0.203-0.138,0.415-0.31,0.45-0.553c0.047-0.322-0.238-0.589-0.509-0.77
				c-1.471-0.985-3.289-1.316-5.059-1.372c-1.345-0.043-2.791,0.097-3.828,0.954L226.943,162.57z"/>
			<path fill="#005C7B" d="M238.724,146.979c-0.206,0.269-0.415,0.632-0.241,0.922c0.086,0.145,0.248,0.226,0.406,0.286
				c1.171,0.451,2.485,0.202,3.701-0.109c1.217-0.312,2.471-0.685,3.706-0.462c1.331,0.24,2.468,1.144,3.797,1.394
				c0.772,0.145,1.567,0.061,2.349-0.024c0.274-0.03,0.556-0.062,0.806-0.179c0.25-0.118,0.468-0.34,0.504-0.615
				c0.031-0.231-0.069-0.459-0.186-0.662c-0.454-0.787-1.181-1.388-1.976-1.828c-0.795-0.44-1.661-0.732-2.521-1.022
				c-1.236-0.417-2.488-0.836-3.789-0.932c-1.277-0.094-2.933,0.014-4.11,0.581C240.148,144.821,239.385,146.114,238.724,146.979z"
				/>
		</g>
		<g>
			<polygon fill="#005C7B" points="233.169,171.905 233.148,179.599 211.641,167.146 211.641,159.439 			"/>
			<polygon fill="#8CC1C9" points="205.985,156.173 211.641,159.439 211.641,167.146 205.964,163.868 			"/>
		</g>
	</g>
</g>
</svg>
