<?xml version="1.0" encoding="utf-8"?>
<!-- Generator: Adobe Illustrator 16.0.0, SVG Export Plug-In . SVG Version: 6.00 Build 0)  -->
<!DOCTYPE svg PUBLIC "-//W3C//DTD SVG 1.1//EN" "http://www.w3.org/Graphics/SVG/1.1/DTD/svg11.dtd">
<svg version="1.1" id="Layer_1" xmlns="http://www.w3.org/2000/svg" xmlns:xlink="http://www.w3.org/1999/xlink" x="0px" y="0px"
	 width="450px" height="450px" viewBox="0 0 450 450" enable-background="new 0 0 450 450" xml:space="preserve">
<g>
	<g>
		<g enable-background="new    ">
			<g>
				<polygon fill="#552A11" points="287.278,173.197 279.891,168.904 279.916,177.862 287.304,182.155 				"/>
			</g>
			<g>
				<polygon fill="#3B2015" points="287.304,182.155 279.916,177.862 249.253,195.664 256.64,199.957 				"/>
			</g>
			<g>
				<polygon fill="#552A11" points="255.786,190.525 248.398,186.232 248.43,197.09 255.816,201.383 				"/>
			</g>
			<g>
				<polygon fill="#814C2E" points="288.102,171.77 280.714,167.477 248.398,186.232 255.786,190.525 				"/>
			</g>
			<g>
				<path fill="#743E1F" d="M288.132,182.627l-32.315,18.755l-0.03-10.858l32.315-18.755L288.132,182.627z M256.64,199.957
					l30.664-17.801l-0.025-8.958l-30.664,17.801L256.64,199.957L256.64,199.957z"/>
			</g>
		</g>
	</g>
	<g>
		<g>
			<g enable-background="new    ">
				<g>
					<polygon fill="#23262F" points="277.511,174.421 275.923,173.499 277.657,172.498 279.244,173.42 					"/>
				</g>
				<g>
					<polygon fill="#1D2225" points="262.701,183.061 261.114,182.138 275.923,173.499 277.511,174.421 					"/>
				</g>
				<g>
					<polygon fill="#23262F" points="260.969,184.061 259.382,183.139 261.114,182.138 262.701,183.061 					"/>
				</g>
				<g>
					<polygon fill="#171B1D" points="260.971,184.771 259.384,183.849 259.382,183.139 260.969,184.061 					"/>
				</g>
				<g>
					<polygon fill="#101115" points="279.244,173.42 279.247,174.13 260.971,184.771 260.969,184.061 262.701,183.061 
						277.511,174.421 					"/>
				</g>
			</g>
			<g enable-background="new    ">
				<g enable-background="new    ">
					<g enable-background="new    ">
						<path fill="#1D2124" d="M286.262,150.034l-1.587-0.922c0.284-0.164,0.542-0.178,0.729-0.07l1.587,0.922
							C286.805,149.856,286.546,149.87,286.262,150.034L286.262,150.034z"/>
					</g>
				</g>
				<g>
					<polygon fill="#191919" points="262.696,181.26 261.109,180.337 275.918,171.698 277.505,172.62 					"/>
				</g>
				<g>
					<polygon fill="#141414" points="262.701,183.061 261.114,182.138 261.109,180.337 262.696,181.26 					"/>
				</g>
				<g>
					<polygon fill="#101115" points="277.505,172.62 277.511,174.421 262.701,183.061 262.696,181.26 					"/>
				</g>
				<g>
					<g enable-background="new    ">
						<path fill="#101115" d="M253.158,186.416l-1.587-0.923c-0.185-0.107-0.299-0.334-0.3-0.656l1.587,0.922
							C252.859,186.081,252.974,186.308,253.158,186.416L253.158,186.416z"/>
					</g>
				</g>
				<g>
					<polygon fill="#101115" points="252.858,185.758 251.271,184.836 251.268,183.537 252.854,184.459 					"/>
				</g>
				<g>
					<polygon fill="#101115" points="252.854,184.459 251.268,183.537 251.232,170.992 252.819,171.914 					"/>
				</g>
				<g>
					<polygon fill="#101115" points="252.819,171.914 251.232,170.992 251.229,169.693 252.815,170.615 					"/>
				</g>
				<g>
					<polygon fill="#23262F" points="253.84,168.842 252.253,167.92 284.675,149.112 286.262,150.034 					"/>
				</g>
				<g>
					<g enable-background="new    ">
						<path fill="#23262F" d="M252.815,170.615l-1.587-0.922c-0.002-0.648,0.458-1.446,1.024-1.773l1.587,0.922
							C253.274,169.169,252.813,169.967,252.815,170.615L252.815,170.615z"/>
					</g>
				</g>
				<path fill="#272727" d="M252.815,170.615l0.004,1.299l0.035,12.545l0.004,1.299c0.002,0.651,0.466,0.913,1.031,0.586
					l8.807-5.084l14.809-8.64l8.807-5.084c0.564-0.326,1.024-1.121,1.022-1.771l-0.003-1.299l-0.036-12.545l-0.004-1.299
					c-0.001-0.648-0.465-0.913-1.029-0.587l-32.422,18.808C253.274,169.169,252.813,169.967,252.815,170.615z"/>
			</g>
		</g>
	</g>
</g>
</svg>
