<?xml version="1.0" encoding="utf-8"?>
<!-- Generator: Adobe Illustrator 16.0.0, SVG Export Plug-In . SVG Version: 6.00 Build 0)  -->
<!DOCTYPE svg PUBLIC "-//W3C//DTD SVG 1.1//EN" "http://www.w3.org/Graphics/SVG/1.1/DTD/svg11.dtd">
<svg version="1.1" id="Layer_1" xmlns="http://www.w3.org/2000/svg" xmlns:xlink="http://www.w3.org/1999/xlink" x="0px" y="0px"
	 width="450px" height="450px" viewBox="0 0 450 450" enable-background="new 0 0 450 450" xml:space="preserve">
<g>
	<g>
		<g>
			<g enable-background="new    ">
				<g>
					<polygon fill="#230E01" points="197.606,168.103 184.583,160.534 184.56,152.466 197.584,160.035 					"/>
				</g>
				<g>
					<polygon fill="#2B1101" points="175.054,181.124 162.03,173.555 184.583,160.534 197.606,168.103 					"/>
				</g>
				<g>
					<polygon fill="#230E01" points="197.579,158.468 184.555,150.899 184.532,142.832 197.557,150.4 					"/>
				</g>
				<g>
					<polygon fill="#230E01" points="197.552,148.833 184.528,141.265 184.505,133.194 197.529,140.763 					"/>
				</g>
				<g>
					<polygon fill="#5A3520" points="175.031,173.056 162.007,165.487 184.56,152.466 197.584,160.035 					"/>
				</g>
				<g>
					<polygon fill="#4A2C1A" points="175.054,181.124 162.03,173.555 162.007,165.487 175.031,173.056 					"/>
				</g>
				<g>
					<polygon fill="#2B1101" points="175.026,171.489 162.002,163.92 184.555,150.899 197.579,158.468 					"/>
				</g>
				<g>
					<polygon fill="#4A2C1A" points="175.026,171.489 162.002,163.92 161.979,155.853 175.003,163.421 					"/>
				</g>
				<g>
					<path fill="#3B2015" d="M175.003,163.421l22.553-13.021l0.022,8.068l-22.553,13.021L175.003,163.421z"/>
					<g>
						<path fill="#261109" d="M175.429,170.79l-0.021-7.135l21.745-12.555l0.02,7.136L175.429,170.79z M176.11,164.058l0.016,5.521
							l20.347-11.747l-0.015-5.521L176.11,164.058z"/>
					</g>
				</g>
				<g>
					<polygon fill="#5A3520" points="175.003,163.421 161.979,155.853 184.532,142.832 197.557,150.4 					"/>
				</g>
				<g>
					<polygon fill="#2B1101" points="174.999,161.854 161.975,154.286 184.528,141.265 197.552,148.833 					"/>
				</g>
				<path fill="#3B2015" d="M197.529,140.763l-22.553,13.021l0.023,8.071l22.553-13.021L197.529,140.763z"/>
				<g>
					<path fill="#261109" d="M175.402,161.156l-0.021-7.139l21.745-12.555l0.02,7.138L175.402,161.156z M176.083,154.42l0.016,5.525
						l20.347-11.748l-0.015-5.524L176.083,154.42z"/>
				</g>
				<g>
					<polygon fill="#5A3520" points="174.976,153.784 161.952,146.215 184.505,133.194 197.529,140.763 					"/>
				</g>
				<g>
					<polygon fill="#4A2C1A" points="174.999,161.854 161.975,154.286 161.952,146.215 174.976,153.784 					"/>
				</g>
				<g>
					<path fill="#743E1F" d="M198.513,138.667l-24.533,14.164l0.086,30.29l24.533-14.164L198.513,138.667z M174.976,153.784
						l22.553-13.021l0.023,8.071l-22.553,13.021L174.976,153.784L174.976,153.784z M175.003,163.421l22.553-13.021l0.022,8.068
						l-22.553,13.021L175.003,163.421L175.003,163.421z M175.054,181.124l-0.023-8.068l22.553-13.021l0.022,8.068L175.054,181.124
						L175.054,181.124z"/>
				</g>
				<g>
					<path fill="#3B2015" d="M175.031,173.056l22.553-13.021l0.022,8.068l-22.553,13.021L175.031,173.056z"/>
					<g>
						<path fill="#261109" d="M175.457,180.424l-0.021-7.135l21.745-12.555l0.02,7.135L175.457,180.424z M176.137,173.693
							l0.016,5.521l20.347-11.748l-0.015-5.521L176.137,173.693z"/>
					</g>
				</g>
				<g>
					<polygon fill="#814C2E" points="173.98,152.832 160.957,145.263 185.489,131.099 198.513,138.667 					"/>
				</g>
				<g>
					<polygon fill="#552A11" points="174.066,183.121 161.042,175.552 160.957,145.263 173.98,152.832 					"/>
				</g>
				<g>
					<g enable-background="new    ">
						<g>
							<g>
								<polygon fill="#CFD3DE" points="189.841,147.158 189.84,147.776 188.972,148.28 188.974,147.663 								"/>
							</g>
						</g>
						<g>
							<g>
								<polygon fill="#85888F" points="188.974,147.663 188.972,148.28 188.503,148.009 188.504,147.392 								"/>
							</g>
						</g>
					</g>
					<g enable-background="new    ">
						<g>
							<g>
								<polygon fill="#CFD3DE" points="184.07,150.518 184.069,151.136 183.201,151.64 183.203,151.022 								"/>
							</g>
						</g>
						<g>
							<g>
								<polygon fill="#85888F" points="183.808,151.371 183.806,151.989 183.201,151.64 183.203,151.022 								"/>
							</g>
						</g>
						<g>
							<g>
								<polygon fill="#C39A57" points="183.808,151.371 183.806,151.989 182.732,151.369 182.733,150.751 								"/>
							</g>
						</g>
						<g>
							<g>
								<polygon fill="#DCB678" points="190.446,147.507 190.444,148.125 183.806,151.989 183.808,151.371 								"/>
							</g>
						</g>
						<polygon fill="#DEC8A4" points="189.841,147.158 189.372,146.887 188.504,147.392 188.974,147.663 184.07,150.518 
							183.601,150.247 182.733,150.751 183.808,151.371 190.446,147.507 						"/>
					</g>
				</g>
				<g>
					<g enable-background="new    ">
						<g>
							<g>
								<polygon fill="#CFD3DE" points="189.841,157.126 189.84,157.744 188.972,158.248 188.974,157.63 								"/>
							</g>
						</g>
						<g>
							<g>
								<polygon fill="#85888F" points="188.974,157.63 188.972,158.248 188.503,157.977 188.504,157.359 								"/>
							</g>
						</g>
					</g>
					<g enable-background="new    ">
						<g>
							<g>
								<polygon fill="#CFD3DE" points="184.07,160.485 184.069,161.103 183.201,161.607 183.203,160.99 								"/>
							</g>
						</g>
						<g>
							<g>
								<polygon fill="#85888F" points="183.808,161.339 183.806,161.957 183.201,161.607 183.203,160.99 								"/>
							</g>
						</g>
						<g>
							<g>
								<polygon fill="#C39A57" points="183.808,161.339 183.806,161.957 182.732,161.336 182.733,160.719 								"/>
							</g>
						</g>
						<g>
							<g>
								<polygon fill="#DCB678" points="190.446,157.475 190.444,158.093 183.806,161.957 183.808,161.339 								"/>
							</g>
						</g>
						<polygon fill="#DEC8A4" points="189.841,157.126 189.372,156.854 188.504,157.359 188.974,157.63 184.07,160.485 
							183.601,160.214 182.733,160.719 183.808,161.339 190.446,157.475 						"/>
					</g>
				</g>
				<g>
					<g enable-background="new    ">
						<g>
							<g>
								<polygon fill="#CFD3DE" points="189.841,166.365 189.84,166.982 188.972,167.487 188.974,166.869 								"/>
							</g>
						</g>
						<g>
							<g>
								<polygon fill="#85888F" points="188.974,166.869 188.972,167.487 188.503,167.216 188.504,166.598 								"/>
							</g>
						</g>
					</g>
					<g enable-background="new    ">
						<g>
							<g>
								<polygon fill="#CFD3DE" points="184.07,169.724 184.069,170.342 183.201,170.846 183.203,170.229 								"/>
							</g>
						</g>
						<g>
							<g>
								<polygon fill="#85888F" points="183.808,170.578 183.806,171.195 183.201,170.846 183.203,170.229 								"/>
							</g>
						</g>
						<g>
							<g>
								<polygon fill="#C39A57" points="183.808,170.578 183.806,171.195 182.732,170.575 182.733,169.958 								"/>
							</g>
						</g>
						<g>
							<g>
								<polygon fill="#DCB678" points="190.446,166.714 190.444,167.332 183.806,171.195 183.808,170.578 								"/>
							</g>
						</g>
						<polygon fill="#DEC8A4" points="189.841,166.365 189.372,166.094 188.504,166.598 188.974,166.869 184.07,169.724 
							183.601,169.453 182.733,169.958 183.808,170.578 190.446,166.714 						"/>
					</g>
				</g>
			</g>
		</g>
		<g>
			<g>
				<polygon fill="#814C2E" points="159.727,143.654 173.436,151.603 199.744,136.613 186.958,129.226 				"/>
				<polygon fill="#3B2015" points="199.742,138.311 199.742,136.612 173.437,151.605 173.437,153.304 				"/>
				<polygon fill="#552A11" points="159.728,143.655 159.728,145.354 173.437,153.304 173.437,151.605 				"/>
			</g>
		</g>
	</g>
</g>
</svg>
