<?xml version="1.0" encoding="utf-8"?>
<!-- Generator: Adobe Illustrator 16.0.0, SVG Export Plug-In . SVG Version: 6.00 Build 0)  -->
<!DOCTYPE svg PUBLIC "-//W3C//DTD SVG 1.1//EN" "http://www.w3.org/Graphics/SVG/1.1/DTD/svg11.dtd">
<svg version="1.1" id="Layer_1" xmlns="http://www.w3.org/2000/svg" xmlns:xlink="http://www.w3.org/1999/xlink" x="0px" y="0px"
	 width="450px" height="450px" viewBox="0 0 450 450" enable-background="new 0 0 450 450" xml:space="preserve">
<g>
	<g>
		<polygon fill="#F2F2F2" points="425.003,142.31 429.948,139.341 241.499,30.199 236.555,33.168 		"/>
		<polygon fill="#194769" points="236.555,33.168 236.555,131.118 425.003,240.174 425.003,142.31 		"/>
		<polygon fill="#B2CFD3" points="236.555,33.168 236.555,131.118 325.776,182.637 325.776,84.728 		"/>
		<polygon fill="#333333" points="429.948,139.343 429.948,237.29 425.003,240.174 425.003,142.31 		"/>
	</g>
	<g>
		<polygon fill="#F2F2F2" points="28.579,158.784 23.634,155.815 236.48,32.993 241.427,36.18 		"/>
		<polygon fill="#B7C5DE" points="241.425,36.179 241.425,133.911 28.698,256.725 28.69,251.423 28.581,158.784 33.112,156.173 
			39.161,152.69 43.976,149.917 50.024,146.431 54.835,143.661 60.888,140.174 65.699,137.405 71.747,133.918 76.562,131.145 
			82.61,127.662 87.421,124.889 93.474,121.402 98.285,118.633 104.333,115.146 109.148,112.373 115.197,108.89 120.008,106.121 
			126.06,102.634 130.871,99.86 136.919,96.378 141.734,93.604 147.783,90.118 152.594,87.348 		"/>
		<g>
			<polygon fill="#C9D5EA" points="33.112,156.173 33.112,248.868 28.69,251.423 28.581,158.784 			"/>
			<polygon fill="#C9D5EA" points="43.976,149.917 43.976,242.598 39.165,245.378 39.161,152.69 			"/>
			<polygon fill="#C9D5EA" points="54.839,236.329 50.024,239.105 50.024,146.431 54.835,143.661 			"/>
			<polygon fill="#C9D5EA" points="65.699,137.405 65.699,230.059 60.888,232.835 60.888,140.174 			"/>
			<polygon fill="#C9D5EA" points="76.562,131.145 76.562,223.787 71.751,226.564 71.747,133.918 			"/>
			<polygon fill="#C9D5EA" points="87.425,217.516 82.61,220.293 82.61,127.662 87.421,124.889 			"/>
			<polygon fill="#C9D5EA" points="98.285,118.633 98.285,211.245 93.474,214.021 93.474,121.402 			"/>
			<polygon fill="#C9D5EA" points="109.148,112.373 109.148,204.973 104.337,207.75 104.333,115.146 			"/>
			<polygon fill="#C9D5EA" points="120.011,198.702 115.197,201.479 115.197,108.89 120.008,106.121 			"/>
			<polygon fill="#C9D5EA" points="130.871,99.86 130.871,192.431 126.06,195.208 126.06,102.634 			"/>
			<polygon fill="#C9D5EA" points="141.734,93.604 141.734,186.16 136.923,188.937 136.919,96.378 			"/>
			<polygon fill="#C9D5EA" points="152.598,179.888 147.783,182.666 147.783,90.118 152.594,87.348 			"/>
		</g>
		<polygon fill="#FFCCCC" points="241.427,36.18 131.489,99.506 131.489,197.379 241.427,133.911 		"/>
		<polygon fill="#9EB0D0" points="23.634,155.817 23.634,253.766 28.696,256.723 28.579,158.784 		"/>
	</g>
	<g>
		<g>
			<polygon fill="#E6E6E6" points="293.467,144.887 270.473,131.576 270.473,62.745 293.467,76.057 			"/>
			<polygon fill="#B9EAE4" points="291.277,77.322 291.277,141.098 290.893,140.875 281.1,135.201 274.836,131.572 272.66,130.312 
				272.66,66.531 272.682,66.544 282.475,72.218 290.484,76.862 			"/>
			<path fill="#D4F9F5" d="M282.475,72.218l8.012,4.645l0.791,0.459v4.662c-4.334-4.2-8.762-8.314-13.266-12.352L282.475,72.218z"/>
			<path fill="#D4F9F5" d="M272.66,77.844c6.308,5.396,12.52,10.902,18.617,16.538v8.955c-6.141-5.061-12.35-10.039-18.617-14.939
				V77.844z"/>
			<path fill="#D4F9F5" d="M291.277,110.615V121.1c-6.129-5.566-12.342-11.029-18.617-16.416v-9.616
				C279.012,99.99,285.311,105.048,291.277,110.615z"/>
			<polygon fill="#FFFFFF" points="273.234,130.051 273.234,66.864 272.661,66.533 272.661,130.311 291.277,141.099 
				291.277,140.508 			"/>
			<polygon fill="#C2BFBA" points="272.661,130.311 273.234,130.051 273.234,66.864 272.661,66.533 			"/>
		</g>
		<g>
			<polygon fill="#E6E6E6" points="270.473,131.582 247.479,118.271 247.479,49.439 270.473,62.751 			"/>
			<polygon fill="#B9EAE4" points="268.283,64.017 268.283,127.792 267.898,127.569 258.105,121.896 251.842,118.267 
				249.666,117.006 249.666,53.226 249.688,53.239 259.48,58.913 267.491,63.557 			"/>
			<path fill="#D4F9F5" d="M249.666,85.451c6.25,5.112,12.461,10.271,18.617,15.498v16.116
				c-5.979-5.623-12.219-10.931-18.617-16.049V85.451L249.666,85.451z"/>
			<path fill="#D4F9F5" d="M249.666,58.918c6.275,4.987,12.488,10.052,18.617,15.213v10.865
				c-6.154-4.758-12.363-9.446-18.617-14.073V58.918L249.666,58.918z"/>
			<polygon fill="#FFFFFF" points="250.242,116.746 250.242,53.559 249.667,53.228 249.667,117.006 268.284,127.793 
				268.284,127.203 			"/>
			<polygon fill="#C2BFBA" points="249.667,117.006 250.242,116.746 250.242,53.559 249.667,53.228 			"/>
		</g>
		<g>
			<polygon fill="#E6E6E6" points="316.454,158.162 293.46,144.85 293.46,76.02 316.454,89.331 			"/>
			<polygon fill="#B9EAE4" points="314.266,90.597 314.266,154.372 313.88,154.149 304.088,148.476 297.823,144.847 
				295.646,143.586 295.646,79.806 295.669,79.819 305.462,85.492 313.473,90.137 			"/>
			<g>
				<g>
					<g>
						<path fill="#D4F9F5" d="M295.646,98.459V86.284c6.455,6.439,12.682,13.08,18.618,19.951v10.668
							C308.209,110.589,301.996,104.449,295.646,98.459z"/>
					</g>
					<g>
						<path fill="#D4F9F5" d="M295.646,125.102v-18.144c6.285,5.25,12.493,10.595,18.618,16.041v19.928
							C308.169,136.852,301.955,130.92,295.646,125.102z"/>
					</g>
				</g>
			</g>
			<polygon fill="#FFFFFF" points="296.223,143.326 296.223,80.139 295.648,79.808 295.648,143.585 314.266,154.374 
				314.266,153.782 			"/>
			<polygon fill="#C2BFBA" points="295.648,143.585 296.223,143.326 296.223,80.139 295.648,79.808 			"/>
		</g>
	</g>
</g>
</svg>
