<?xml version="1.0" encoding="utf-8"?>
<!-- Generator: Adobe Illustrator 16.0.0, SVG Export Plug-In . SVG Version: 6.00 Build 0)  -->
<!DOCTYPE svg PUBLIC "-//W3C//DTD SVG 1.1//EN" "http://www.w3.org/Graphics/SVG/1.1/DTD/svg11.dtd">
<svg version="1.1" id="Layer_1" xmlns="http://www.w3.org/2000/svg" xmlns:xlink="http://www.w3.org/1999/xlink" x="0px" y="0px"
	 width="450px" height="450px" viewBox="0 0 450 450" enable-background="new 0 0 450 450" xml:space="preserve">
<g>
	<g opacity="0.4">
		<path fill="#ECC997" d="M218.616,213.315c3.024,1.746,3.04,4.603,0.035,6.349c-3.004,1.746-7.936,1.746-10.96,0l-26.788-15.466
			l10.926-6.349L218.616,213.315z"/>
	</g>
	<g>
		<g>
			<g enable-background="new    ">
				<g enable-background="new    ">
					<g enable-background="new    ">
						<path fill="#E1E4EA" d="M184.415,175.347l3.962-2.303c-0.04-0.023-0.079-0.036-0.114-0.04l-3.962,2.303
							C184.336,175.311,184.374,175.323,184.415,175.347L184.415,175.347z"/>
						<path fill="#C8D1E3" d="M184.301,175.307l3.962-2.303c-0.038-0.004-0.072,0.003-0.102,0.02l-3.962,2.302
							C184.228,175.31,184.263,175.303,184.301,175.307L184.301,175.307z"/>
					</g>
				</g>
				<g>
					<polygon fill="#E1E4EA" points="192.092,179.779 196.054,177.477 188.377,173.044 184.415,175.347 					"/>
				</g>
				<g enable-background="new    ">
					<g>
						<path fill="#F9F8F8" d="M192.306,180.509l3.962-2.303c0.056-0.032,0.091-0.102,0.091-0.199c0-0.084-0.025-0.177-0.068-0.264
							l-3.962,2.303c0.043,0.086,0.068,0.179,0.067,0.263C192.396,180.408,192.361,180.477,192.306,180.509L192.306,180.509z"/>
						<path fill="#F5F9FA" d="M192.328,180.047l3.962-2.303c-0.029-0.059-0.066-0.114-0.108-0.161l-3.962,2.303
							C192.263,179.933,192.299,179.988,192.328,180.047L192.328,180.047z"/>
						<path fill="#E1E4EA" d="M192.22,179.886l3.962-2.303c-0.038-0.043-0.082-0.08-0.128-0.106l-3.962,2.303
							C192.138,179.806,192.181,179.842,192.22,179.886L192.22,179.886z"/>
					</g>
				</g>
				<g>
					<path fill="#E1E4EA" d="M184.415,175.347c-0.169-0.098-0.306-0.015-0.307,0.179c0,0.194,0.136,0.434,0.305,0.531l7.677,4.433
						c0.169,0.098,0.306,0.015,0.306-0.179c0.001-0.194-0.135-0.434-0.304-0.531L184.415,175.347z"/>
				</g>
			</g>
		</g>
		<g>
			<g>
				<path fill="#505B67" d="M205.13,216.694c-0.111,0-0.22-0.059-0.279-0.162l-22.906-40.255c-0.088-0.154-0.034-0.35,0.119-0.437
					c0.154-0.087,0.35-0.034,0.438,0.12l22.907,40.255c0.087,0.154,0.034,0.35-0.12,0.438
					C205.237,216.68,205.184,216.694,205.13,216.694z"/>
				<path fill="#505B67" d="M182.223,203.469c-0.108,0-0.215-0.056-0.274-0.155c-0.092-0.152-0.043-0.349,0.108-0.44l22.907-13.805
					c0.152-0.091,0.35-0.042,0.44,0.109c0.091,0.151,0.042,0.349-0.108,0.44l-22.908,13.805
					C182.336,203.454,182.278,203.469,182.223,203.469z"/>
			</g>
			<g>
				<path fill="#505B67" d="M213.659,211.675c-0.111,0-0.221-0.059-0.279-0.162l-20.994-36.893c-0.087-0.154-0.033-0.35,0.121-0.437
					c0.153-0.087,0.35-0.034,0.437,0.12l20.993,36.894c0.088,0.154,0.035,0.35-0.119,0.437
					C213.767,211.662,213.712,211.675,213.659,211.675z"/>
			</g>
			<g>
				<g enable-background="new    ">
					<g>
						<polygon fill="#EDA8AF" points="204.907,193.361 204.903,194.768 178.116,179.301 178.12,177.895 						"/>
					</g>
					<g enable-background="new    ">
						<defs>
							<path id="SVGID_1_" enable-background="new    " d="M218.111,190.208l-0.004,1.406c-0.003,1.144-0.751,2.285-2.243,3.152
								c-3.004,1.746-7.937,1.746-10.961,0l0.004-1.407c3.024,1.746,7.957,1.746,10.961,0
								C217.36,192.494,218.108,191.352,218.111,190.208z"/>
						</defs>
						<use xlink:href="#SVGID_1_"  overflow="visible" fill="#EDA8AF"/>
						<clipPath id="SVGID_2_">
							<use xlink:href="#SVGID_1_"  overflow="visible"/>
						</clipPath>
						<g clip-path="url(#SVGID_2_)" enable-background="new    ">
							<path fill="#EDA8AF" d="M218.111,190.208l-0.004,1.406c0,0.023-0.001,0.046-0.001,0.069l0.004-1.407
								C218.11,190.254,218.111,190.231,218.111,190.208L218.111,190.208z"/>
							<path fill="#EDA8AF" d="M218.11,190.277l-0.004,1.407c-0.004,0.149-0.021,0.299-0.051,0.448l0.004-1.406
								C218.089,190.576,218.106,190.427,218.11,190.277L218.11,190.277z"/>
							<path fill="#EDA8AF" d="M218.06,190.725l-0.004,1.406c-0.03,0.147-0.072,0.293-0.127,0.438l0.004-1.406
								C217.987,191.019,218.03,190.872,218.06,190.725L218.06,190.725z"/>
							<path fill="#EDA8AF" d="M217.933,191.164l-0.004,1.406c-0.056,0.149-0.125,0.297-0.207,0.443l0.004-1.406
								C217.808,191.46,217.877,191.313,217.933,191.164L217.933,191.164z"/>
							<path fill="#EDA8AF" d="M217.726,191.606l-0.004,1.406c-0.089,0.157-0.193,0.312-0.313,0.463l0.004-1.406
								C217.533,191.918,217.638,191.763,217.726,191.606L217.726,191.606z"/>
							<path fill="#EDA8AF" d="M217.413,192.07l-0.004,1.406c-0.139,0.177-0.299,0.349-0.479,0.516l0.004-1.407
								C217.114,192.419,217.274,192.247,217.413,192.07L217.413,192.07z"/>
							<path fill="#EDA8AF" d="M216.935,192.585l-0.004,1.407c-0.276,0.254-0.601,0.496-0.973,0.72l0.004-1.407
								C216.334,193.082,216.658,192.84,216.935,192.585L216.935,192.585z"/>
							<path fill="#EDA8AF" d="M215.962,193.306l-0.004,1.407c-0.031,0.018-0.063,0.037-0.094,0.055
								c-0.512,0.298-1.08,0.544-1.686,0.741l0.004-1.406c0.605-0.196,1.174-0.443,1.686-0.741
								C215.899,193.343,215.931,193.324,215.962,193.306L215.962,193.306z"/>
							<path fill="#EDA8AF" d="M214.183,194.102l-0.004,1.406c-0.469,0.152-0.961,0.274-1.467,0.365l0.004-1.406
								C213.222,194.375,213.714,194.254,214.183,194.102L214.183,194.102z"/>
							<path fill="#EDA8AF" d="M212.716,194.467l-0.004,1.406c-0.326,0.059-0.658,0.105-0.993,0.138l0.005-1.406
								C212.058,194.571,212.39,194.525,212.716,194.467L212.716,194.467z"/>
							<path fill="#EDA8AF" d="M211.724,194.605l-0.005,1.406c-0.286,0.028-0.575,0.048-0.865,0.058l0.004-1.406
								C211.147,194.653,211.437,194.633,211.724,194.605L211.724,194.605z"/>
							<path fill="#EDA8AF" d="M210.857,194.663l-0.004,1.406c-0.267,0.009-0.533,0.01-0.8,0.004l0.004-1.406
								C210.324,194.673,210.591,194.671,210.857,194.663L210.857,194.663z"/>
							<path fill="#EDA8AF" d="M210.058,194.667l-0.004,1.406c-0.257-0.007-0.514-0.021-0.769-0.042l0.005-1.406
								C209.544,194.646,209.801,194.66,210.058,194.667L210.058,194.667z"/>
							<path fill="#EDA8AF" d="M209.29,194.625l-0.005,1.406c-0.255-0.021-0.507-0.049-0.758-0.084l0.005-1.406
								C208.782,194.576,209.035,194.604,209.29,194.625L209.29,194.625z"/>
							<path fill="#EDA8AF" d="M208.532,194.541l-0.005,1.406c-0.26-0.037-0.517-0.082-0.771-0.134l0.004-1.406
								C208.015,194.459,208.271,194.503,208.532,194.541L208.532,194.541z"/>
							<path fill="#EDA8AF" d="M207.761,194.406l-0.004,1.406c-0.274-0.057-0.545-0.123-0.809-0.198l0.004-1.406
								C207.216,194.284,207.486,194.35,207.761,194.406L207.761,194.406z"/>
							<path fill="#EDA8AF" d="M206.952,194.208l-0.004,1.406c-0.322-0.092-0.635-0.197-0.938-0.316l0.004-1.407
								C206.317,194.011,206.63,194.117,206.952,194.208L206.952,194.208z"/>
							<path fill="#EDA8AF" d="M206.015,193.892l-0.004,1.407c-0.391-0.154-0.762-0.331-1.107-0.531l0.004-1.407
								C205.253,193.561,205.624,193.738,206.015,193.892L206.015,193.892z"/>
						</g>
					</g>
					<g>
						<path fill="#F9C0C6" d="M215.833,187.012c3.023,1.746,3.039,4.603,0.035,6.349c-3.004,1.746-7.937,1.746-10.961,0
							l-26.787-15.466l10.925-6.349L215.833,187.012z"/>
					</g>
					<g>
						<polygon fill="#EDA8AF" points="192.091,181.262 196.053,178.959 188.375,174.527 184.413,176.83 						"/>
					</g>
					<polygon fill="#F9F8F8" points="192.112,183.417 209.397,193.397 216.589,189.245 199.304,179.266 					"/>
					<path fill="#E1E4EA" d="M210.182,190.908c0.09,0.105,0.182,0.21,0.289,0.299c0.125,0.104,0.268,0.184,0.409,0.263
						c0.329,0.184,0.659,0.368,0.987,0.551c0.182,0.101,0.368,0.204,0.574,0.236c0.227,0.036,0.457-0.017,0.68-0.07
						c0.363-0.086,0.729-0.173,1.072-0.322c0.406-0.178,0.775-0.442,1.074-0.771c0.125-0.14,0.244-0.343,0.146-0.504
						c-0.038-0.062-0.102-0.103-0.163-0.141c-0.843-0.531-1.695-1.06-2.615-1.443c-0.788-0.329-1.714-0.613-2.579-0.557
						c-0.679,0.044-0.893,0.646-0.684,1.231C209.539,190.144,209.865,190.539,210.182,190.908z"/>
				</g>
			</g>
			<path fill="#505B67" d="M201.101,209.604c-0.111,0-0.219-0.058-0.278-0.16c-0.089-0.153-0.036-0.35,0.117-0.438l8.37-4.832
				c0.152-0.089,0.349-0.036,0.438,0.117c0.088,0.153,0.035,0.349-0.117,0.438l-8.369,4.832
				C201.21,209.59,201.155,209.604,201.101,209.604z"/>
			<path fill="#505B67" d="M201.1,209.604c-0.055,0-0.109-0.014-0.16-0.043l-14.688-8.481c-0.153-0.088-0.206-0.285-0.117-0.438
				c0.088-0.153,0.284-0.206,0.438-0.117l14.689,8.481c0.152,0.088,0.205,0.285,0.117,0.438
				C201.318,209.546,201.21,209.604,201.1,209.604z"/>
		</g>
		<circle fill="#151719" cx="182.11" cy="203.215" r="0.779"/>
		<circle fill="#151719" cx="205.13" cy="216.373" r="0.779"/>
		<circle fill="#151719" cx="213.153" cy="211.675" r="0.78"/>
		<g>
			<g enable-background="new    ">
				<g enable-background="new    ">
					<g enable-background="new    ">
						<path fill="#F9F8F8" d="M184.415,174.528l3.962-2.303c-0.04-0.023-0.079-0.036-0.114-0.04l-3.962,2.303
							C184.336,174.492,184.374,174.505,184.415,174.528L184.415,174.528z"/>
						<path fill="#C8D1E3" d="M184.301,174.488l3.962-2.303c-0.038-0.004-0.072,0.003-0.102,0.02l-3.962,2.302
							C184.228,174.491,184.263,174.484,184.301,174.488L184.301,174.488z"/>
					</g>
				</g>
				<g>
					<polygon fill="#F9F8F8" points="192.092,178.961 196.054,176.658 188.377,172.226 184.415,174.528 					"/>
				</g>
				<g>
					<g>
						<path fill="#F9F8F8" d="M192.306,179.691l3.962-2.303c0.056-0.032,0.091-0.102,0.091-0.199c0-0.084-0.025-0.177-0.068-0.264
							l-3.962,2.303c0.043,0.086,0.068,0.179,0.067,0.263C192.396,179.589,192.361,179.658,192.306,179.691L192.306,179.691z"/>
						<path fill="#F9F8F8" d="M192.328,179.229l3.962-2.303c-0.029-0.058-0.066-0.114-0.108-0.161l-3.962,2.303
							C192.263,179.115,192.299,179.17,192.328,179.229L192.328,179.229z"/>
						<path fill="#F9F8F8" d="M192.22,179.067l3.962-2.303c-0.038-0.043-0.082-0.08-0.128-0.106l-3.962,2.303
							C192.138,178.987,192.181,179.024,192.22,179.067L192.22,179.067z"/>
					</g>
				</g>
				<g>
					<path fill="#E1E4EA" d="M184.415,174.528c-0.169-0.098-0.306-0.015-0.307,0.179c0,0.194,0.136,0.434,0.305,0.531l7.677,4.433
						c0.169,0.097,0.306,0.015,0.306-0.179c0.001-0.194-0.135-0.434-0.304-0.531L184.415,174.528z"/>
				</g>
			</g>
		</g>
	</g>
</g>
</svg>
