<?xml version="1.0" encoding="utf-8"?>
<!-- Generator: Adobe Illustrator 16.0.0, SVG Export Plug-In . SVG Version: 6.00 Build 0)  -->
<!DOCTYPE svg PUBLIC "-//W3C//DTD SVG 1.1//EN" "http://www.w3.org/Graphics/SVG/1.1/DTD/svg11.dtd">
<svg version="1.1" id="Layer_1" xmlns="http://www.w3.org/2000/svg" xmlns:xlink="http://www.w3.org/1999/xlink" x="0px" y="0px"
	 width="450px" height="450px" viewBox="0 0 450 450" enable-background="new 0 0 450 450" xml:space="preserve">
<g>
	<polygon fill="#E6ECEF" points="179.735,133.897 174.359,112.842 162.955,119.426 168.331,140.482 179.735,133.897 	"/>
	<g>
		<g enable-background="new    ">
			<g>
				<polygon fill="#111A20" points="168.331,140.482 167.687,140.107 179.091,133.523 179.735,133.897 				"/>
			</g>
			<g>
				<polygon fill="#0E1419" points="179.735,133.897 179.091,133.523 173.714,112.468 174.359,112.842 				"/>
			</g>
			<g>
				<polygon fill="#0E1419" points="167.363,142.16 166.718,141.785 161.335,118.496 161.98,118.871 				"/>
			</g>
			<g>
				<polygon fill="#111A20" points="161.98,118.871 161.335,118.496 174.683,110.79 175.327,111.165 				"/>
			</g>
			<g>
				<path fill="#18252D" d="M161.98,118.871l13.347-7.706l5.383,23.289l-13.347,7.707L161.98,118.871z M179.735,133.897
					l-5.376-21.055l-11.404,6.584l5.376,21.056L179.735,133.897L179.735,133.897z"/>
			</g>
		</g>
	</g>
</g>
</svg>
