<?xml version="1.0" encoding="utf-8"?>
<!-- Generator: Adobe Illustrator 16.0.0, SVG Export Plug-In . SVG Version: 6.00 Build 0)  -->
<!DOCTYPE svg PUBLIC "-//W3C//DTD SVG 1.1//EN" "http://www.w3.org/Graphics/SVG/1.1/DTD/svg11.dtd">
<svg version="1.1" id="Layer_1" xmlns="http://www.w3.org/2000/svg" xmlns:xlink="http://www.w3.org/1999/xlink" x="0px" y="0px"
	 width="450px" height="450px" viewBox="0 0 450 450" enable-background="new 0 0 450 450" xml:space="preserve">
<g>
	<polygon fill="#ACDDE6" points="201.772,115.664 201.71,93.879 187.809,101.905 187.871,123.69 201.772,115.664 	"/>
	<g>
		<g enable-background="new    ">
			<g>
				<polygon fill="#111A20" points="187.871,123.69 187.086,123.233 200.987,115.208 201.772,115.664 				"/>
			</g>
			<g>
				<polygon fill="#0E1419" points="201.772,115.664 200.987,115.208 200.925,93.423 201.71,93.879 				"/>
			</g>
			<g>
				<polygon fill="#0E1419" points="186.69,125.735 185.905,125.278 185.836,100.771 186.621,101.228 				"/>
			</g>
			<g>
				<polygon fill="#111A20" points="186.621,101.228 185.836,100.771 202.105,91.378 202.891,91.834 				"/>
			</g>
			<g>
				<path fill="#18252D" d="M186.621,101.228l16.27-9.394l0.069,24.507l-16.27,9.394L186.621,101.228z M201.772,115.664
					l-0.062-21.785l-13.901,8.026l0.062,21.785L201.772,115.664L201.772,115.664z"/>
			</g>
		</g>
	</g>
</g>
</svg>
