<?xml version="1.0" encoding="utf-8"?>
<!-- Generator: Adobe Illustrator 16.0.0, SVG Export Plug-In . SVG Version: 6.00 Build 0)  -->
<!DOCTYPE svg PUBLIC "-//W3C//DTD SVG 1.1//EN" "http://www.w3.org/Graphics/SVG/1.1/DTD/svg11.dtd">
<svg version="1.1" id="Layer_1" xmlns="http://www.w3.org/2000/svg" xmlns:xlink="http://www.w3.org/1999/xlink" x="0px" y="0px"
	 width="450px" height="450px" viewBox="0 0 450 450" enable-background="new 0 0 450 450" xml:space="preserve">
<g opacity="0.9">
	<polygon fill="#B7C5DE" points="229.183,105.18 210.587,115.916 210.548,102.018 229.144,91.282 229.183,105.18 	"/>
	<g>
		<g enable-background="new    ">
			<g>
				<polygon fill="#89949C" points="229.183,105.18 228.643,104.866 228.604,90.968 229.144,91.282 				"/>
			</g>
			<g>
				<polygon fill="#89949C" points="210.587,115.916 210.047,115.602 228.643,104.866 229.183,105.18 				"/>
			</g>
			<g>
				<polygon fill="#89949C" points="209.505,117.794 208.964,117.48 208.918,101.081 209.458,101.395 				"/>
			</g>
			<g>
				<polygon fill="#89949C" points="209.458,101.395 208.918,101.081 229.688,89.088 230.229,89.402 				"/>
			</g>
			<g>
				<path fill="#FFF9F5" d="M209.458,101.395l20.771-11.992l0.047,16.4l-20.771,11.992L209.458,101.395z M229.183,105.18
					l-0.039-13.897l-18.595,10.736l0.039,13.897L229.183,105.18L229.183,105.18z"/>
			</g>
		</g>
	</g>
</g>
</svg>
