<?xml version="1.0" encoding="utf-8"?>
<!-- Generator: Adobe Illustrator 16.0.0, SVG Export Plug-In . SVG Version: 6.00 Build 0)  -->
<!DOCTYPE svg PUBLIC "-//W3C//DTD SVG 1.1//EN" "http://www.w3.org/Graphics/SVG/1.1/DTD/svg11.dtd">
<svg version="1.1" id="Layer_1" xmlns="http://www.w3.org/2000/svg" xmlns:xlink="http://www.w3.org/1999/xlink" x="0px" y="0px"
	 width="450px" height="450px" viewBox="0 0 450 450" enable-background="new 0 0 450 450" xml:space="preserve">
<g>
	<polygon fill="#FFBB00" points="220.694,91.749 220.649,76.131 210.685,81.885 210.728,97.502 	"/>
	<g>
		<g enable-background="new    ">
			<g>
				<polygon fill="#99B6C6" points="210.728,97.502 210.166,97.175 220.131,91.421 220.694,91.749 				"/>
			</g>
			<g>
				<polygon fill="#A2B2BC" points="220.694,91.749 220.131,91.421 220.087,75.804 220.649,76.131 				"/>
			</g>
			<g>
				<polygon fill="#9AACB7" points="209.883,98.968 209.319,98.641 209.27,81.072 209.833,81.399 				"/>
			</g>
			<g>
				<polygon fill="#97B1BF" points="209.833,81.399 209.27,81.072 220.932,74.338 221.496,74.666 				"/>
			</g>
			<g>
				<path fill="#D3DFE5" d="M209.833,81.399l11.664-6.734l0.05,17.568l-11.663,6.734L209.833,81.399z M220.694,91.749l-0.044-15.618
					l-9.964,5.754l0.044,15.618L220.694,91.749L220.694,91.749z"/>
			</g>
		</g>
	</g>
</g>
</svg>
