<?xml version="1.0" encoding="utf-8"?>
<!-- Generator: Adobe Illustrator 16.0.0, SVG Export Plug-In . SVG Version: 6.00 Build 0)  -->
<!DOCTYPE svg PUBLIC "-//W3C//DTD SVG 1.1//EN" "http://www.w3.org/Graphics/SVG/1.1/DTD/svg11.dtd">
<svg version="1.1" id="Layer_1" xmlns="http://www.w3.org/2000/svg" xmlns:xlink="http://www.w3.org/1999/xlink" x="0px" y="0px"
	 width="450px" height="450px" viewBox="0 0 450 450" enable-background="new 0 0 450 450" xml:space="preserve">
<g opacity="0.9">
	<polygon fill="#194769" points="189.658,91.982 171.063,102.718 171.023,88.82 189.618,78.084 189.658,91.982 	"/>
	<g>
		<g enable-background="new    ">
			<g>
				<polygon fill="#89949C" points="189.658,91.982 189.118,91.668 189.078,77.771 189.618,78.084 				"/>
			</g>
			<g>
				<polygon fill="#89949C" points="171.063,102.718 170.522,102.404 189.118,91.668 189.658,91.982 				"/>
			</g>
			<g>
				<polygon fill="#89949C" points="169.979,104.596 169.439,104.282 169.393,87.883 169.933,88.197 				"/>
			</g>
			<g>
				<polygon fill="#89949C" points="169.933,88.197 169.393,87.883 190.163,75.891 190.704,76.205 				"/>
			</g>
			<g>
				<path fill="#FFF9F5" d="M169.933,88.197l20.771-11.992l0.046,16.4l-20.771,11.992L169.933,88.197z M189.658,91.982l-0.04-13.897
					L171.023,88.82l0.04,13.897L189.658,91.982L189.658,91.982z"/>
			</g>
		</g>
	</g>
</g>
</svg>
