<?xml version="1.0" encoding="utf-8"?>
<!-- Generator: Adobe Illustrator 16.0.0, SVG Export Plug-In . SVG Version: 6.00 Build 0)  -->
<!DOCTYPE svg PUBLIC "-//W3C//DTD SVG 1.1//EN" "http://www.w3.org/Graphics/SVG/1.1/DTD/svg11.dtd">
<svg version="1.1" id="Layer_1" xmlns="http://www.w3.org/2000/svg" xmlns:xlink="http://www.w3.org/1999/xlink" x="0px" y="0px"
	 width="450px" height="450px" viewBox="0 0 450 450" enable-background="new 0 0 450 450" xml:space="preserve">
<g>
	<g>
		<g>
			<g>
				<polygon fill="#C8D1E3" points="349.844,218.67 363.667,207.385 363.729,183.834 363.733,183.462 363.733,182.717 
					349.91,190.751 349.91,191.45 349.905,191.817 				"/>
			</g>
		</g>
		<g>
			<g>
				<polygon fill="#F2F2F2" points="349.911,190.752 363.734,182.719 325.131,160.686 311.308,168.719 				"/>
			</g>
		</g>
		<g>
			<g>
				<polygon fill="#E1E4EA" points="311.262,196.65 347.563,217.354 349.257,218.329 349.844,218.67 349.91,190.751 311.308,168.72 
									"/>
				<g>
					<path fill="#C8D1E3" d="M334.674,206.298l0.042-23.133l14.167,8.177l-0.06,23.124L334.674,206.298z M335.378,184.314
						l-0.039,13.648v7.131l12.822,8.224l0.057-21.591L335.378,184.314z"/>
				</g>
			</g>
		</g>
		<g>
			<g enable-background="new    ">
				<g>
					<g>
						<polygon fill="#CFD3DE" points="336.719,186.375 336.721,187.221 337.908,187.911 337.906,187.065 						"/>
					</g>
				</g>
				<g>
					<g>
						<polygon fill="#85888F" points="337.906,187.065 337.908,187.911 338.551,187.541 338.549,186.695 						"/>
					</g>
				</g>
			</g>
			<g enable-background="new    ">
				<g>
					<g>
						<polygon fill="#CFD3DE" points="344.618,190.974 344.62,191.82 345.809,192.51 345.806,191.665 						"/>
					</g>
				</g>
				<g>
					<g>
						<polygon fill="#85888F" points="344.979,192.143 344.98,192.988 345.809,192.51 345.806,191.665 						"/>
					</g>
				</g>
				<g>
					<g>
						<polygon fill="#ABB2C2" points="344.979,192.143 344.98,192.988 346.451,192.139 346.448,191.293 						"/>
					</g>
				</g>
				<g>
					<g>
						<polygon fill="#C8D1E3" points="335.891,186.854 335.893,187.699 344.98,192.988 344.979,192.143 						"/>
					</g>
				</g>
				<polygon fill="#F2F2F2" points="336.719,186.375 337.36,186.004 338.549,186.695 337.906,187.065 344.618,190.974 
					345.261,190.604 346.448,191.293 344.979,192.143 335.891,186.854 				"/>
			</g>
		</g>
		<g>
			<polygon fill="#E1E4EA" points="348.703,189.458 335.481,181.649 335.481,181.282 347.732,174.581 360.953,181.979 
				360.953,182.347 			"/>
			<polygon fill="#F2F2F2" points="348.703,189.09 335.481,181.282 347.732,174.171 360.953,181.979 			"/>
			<path fill="#008BB3" d="M349.108,177.088c0-0.263,0.361-0.477,0.802-0.477s0.802,0.214,0.802,0.477v0.569h-0.002
				c-0.008,0.115-0.089,0.229-0.245,0.316c-0.319,0.177-0.826,0.173-1.134-0.012c-0.142-0.085-0.215-0.194-0.221-0.305h-0.002
				V177.088z"/>
			<path fill="#D63A3B" d="M353.639,179.463c0-0.262,0.36-0.477,0.802-0.477c0.44,0,0.801,0.214,0.801,0.477v0.569h-0.001
				c-0.008,0.115-0.09,0.229-0.245,0.316c-0.319,0.177-0.827,0.173-1.134-0.012c-0.143-0.085-0.215-0.194-0.222-0.305h-0.001
				V179.463z"/>
			<polygon fill="#F2F2F2" points="336.495,181.445 348.704,188.658 357.683,183.421 345.471,176.208 			"/>
			<polygon fill="#C8D1E3" points="345.471,179.333 339.183,183.03 336.495,181.445 345.471,176.208 357.683,183.421 
				354.995,184.96 			"/>
			<polygon fill="#C8D1E3" points="348.703,189.09 348.703,189.458 360.953,182.347 360.953,181.979 			"/>
			<polygon fill="#B7BFCF" points="345.471,176.208 345.471,179.333 339.183,183.03 336.498,181.445 			"/>
			<g>
				<g enable-background="new    ">
					<g>
						<polygon fill="#2A2E3F" points="352.389,175.999 351.776,175.643 351.787,179.305 352.399,179.661 						"/>
					</g>
					<g>
						<g>
							<path fill="#2A2E3F" d="M352.146,175.504l-0.612-0.356c0.133,0.077,0.193,0.24,0.221,0.361l0.612,0.355
								C352.34,175.743,352.279,175.581,352.146,175.504L352.146,175.504z"/>
							<path fill="#2A2E3F" d="M352.367,175.864l-0.612-0.355c0.014,0.06,0.02,0.11,0.021,0.134l0.612,0.356
								C352.387,175.974,352.381,175.924,352.367,175.864L352.367,175.864z"/>
						</g>
					</g>
					<g>
						<polygon fill="#88B9C3" points="350.956,177.225 350.344,176.87 350.269,176.913 350.88,177.269 						"/>
					</g>
					<g>
						<polygon fill="#343848" points="350.337,177.583 349.725,177.227 349.726,177.488 350.338,177.844 						"/>
					</g>
					<g>
						<polygon fill="#343848" points="350.414,177.538 349.803,177.182 349.725,177.227 350.337,177.583 						"/>
					</g>
					<g enable-background="new    ">
						<path fill="#555865" d="M350.152,175.587c0.146-0.288,0.332-0.525,0.551-0.712l-0.002-0.001
							c0.059-0.049,0.119-0.095,0.182-0.137c0.036-0.024,0.072-0.046,0.106-0.067c0.005-0.003,0.01-0.006,0.016-0.009
							c0.096-0.055,0.185-0.096,0.267-0.125l0.001,0c0.004-0.001,0.007-0.001,0.011-0.002c0.082-0.028,0.157-0.044,0.227-0.05
							c0.003,0,0.007-0.001,0.01-0.002c0.042-0.003,0.079,0.004,0.116,0.008c0.021,0.002,0.042,0,0.062,0.004
							c0.057,0.013,0.108,0.033,0.155,0.06l0.612,0.355c-0.047-0.027-0.099-0.047-0.156-0.06c-0.019-0.004-0.04-0.002-0.06-0.004
							c-0.041-0.005-0.081-0.01-0.127-0.006c-0.069,0.005-0.144,0.021-0.225,0.049c-0.005,0.002-0.009,0.001-0.014,0.003
							c-0.083,0.029-0.172,0.07-0.267,0.125c-0.04,0.023-0.08,0.048-0.122,0.075c-0.301,0.2-0.546,0.486-0.73,0.851
							c-0.317,0.624-0.353,1.299-0.351,1.594l-0.611-0.355C349.801,176.887,349.835,176.211,350.152,175.587z"/>
						<path fill="#555865" d="M351.313,175.23l-0.612-0.356c-0.219,0.187-0.403,0.426-0.549,0.713
							c-0.074,0.146-0.133,0.294-0.18,0.44l0.612,0.356c0.047-0.146,0.105-0.294,0.18-0.44
							C350.91,175.655,351.094,175.416,351.313,175.23L351.313,175.23z"/>
						<path fill="#555865" d="M350.585,176.383l-0.612-0.356c-0.058,0.183-0.097,0.361-0.122,0.524l0.612,0.356
							C350.488,176.744,350.527,176.565,350.585,176.383L350.585,176.383z"/>
						<path fill="#555865" d="M350.463,176.907l-0.612-0.356c-0.041,0.262-0.049,0.485-0.048,0.625l0.611,0.355
							C350.414,177.392,350.422,177.169,350.463,176.907L350.463,176.907z"/>
						<polygon fill="#6F979E" points="350.414,177.532 349.803,177.177 349.803,177.182 350.414,177.538 350.414,177.532 						"/>
					</g>
					<g>
						<path fill="#343848" d="M351.617,175.017c-0.04,0.023-0.08,0.048-0.122,0.075c-0.301,0.2-0.546,0.487-0.73,0.851
							c-0.317,0.624-0.353,1.299-0.351,1.594l-0.077,0.045l0.001,0.261l0.618-0.357v-0.262l-0.076,0.044
							c-0.002-0.263,0.037-0.772,0.239-1.171c0.102-0.2,0.235-0.354,0.409-0.469c0.029-0.019,0.057-0.036,0.084-0.052
							c0.679-0.392,0.767,0.305,0.776,0.421l0.011,3.663l0.467-0.27l-0.011-3.674l-0.001-0.018
							C352.823,175.22,352.522,174.494,351.617,175.017z"/>
					</g>
				</g>
			</g>
		</g>
		<g>
			<path fill="#C8D1E3" d="M311.734,177.051l21.613,12.479l0.022-7.735l-21.613-12.479L311.734,177.051z"/>
			<polygon fill="#E1E4EA" points="332.646,182.212 312.476,170.567 312.459,176.634 332.628,188.279 			"/>
			<g>
				<g enable-background="new    ">
					<g>
						<g>
							<polygon fill="#CFD3DE" points="318.36,175.257 318.362,176.103 319.55,176.793 319.548,175.947 							"/>
						</g>
					</g>
					<g>
						<g>
							<polygon fill="#85888F" points="319.548,175.947 319.55,176.793 320.192,176.422 320.19,175.577 							"/>
						</g>
					</g>
				</g>
				<g enable-background="new    ">
					<g>
						<g>
							<polygon fill="#CFD3DE" points="326.26,179.856 326.262,180.702 327.45,181.392 327.447,180.546 							"/>
						</g>
					</g>
					<g>
						<g>
							<polygon fill="#85888F" points="326.62,181.024 326.622,181.87 327.45,181.392 327.447,180.546 							"/>
						</g>
					</g>
					<g>
						<g>
							<polygon fill="#ABB2C2" points="326.62,181.024 326.622,181.87 328.093,181.021 328.09,180.175 							"/>
						</g>
					</g>
					<g>
						<g>
							<polygon fill="#C8D1E3" points="317.532,175.735 317.534,176.581 326.622,181.87 326.62,181.024 							"/>
						</g>
					</g>
					<polygon fill="#F2F2F2" points="318.36,175.257 319.002,174.886 320.19,175.577 319.548,175.947 326.26,179.856 
						326.902,179.485 328.09,180.175 326.62,181.024 317.532,175.735 					"/>
				</g>
			</g>
		</g>
		<g>
			<path fill="#C8D1E3" d="M311.734,185.173l21.613,12.479l0.022-7.735l-21.613-12.479L311.734,185.173z"/>
			<polygon fill="#E1E4EA" points="332.646,190.334 312.476,178.689 312.459,184.756 332.628,196.401 			"/>
			<g>
				<g enable-background="new    ">
					<g>
						<g>
							<polygon fill="#CFD3DE" points="318.36,183.379 318.362,184.225 319.55,184.915 319.548,184.069 							"/>
						</g>
					</g>
					<g>
						<g>
							<polygon fill="#85888F" points="319.548,184.069 319.55,184.915 320.192,184.544 320.19,183.699 							"/>
						</g>
					</g>
				</g>
				<g enable-background="new    ">
					<g>
						<g>
							<polygon fill="#CFD3DE" points="326.26,187.978 326.262,188.824 327.45,189.514 327.447,188.668 							"/>
						</g>
					</g>
					<g>
						<g>
							<polygon fill="#85888F" points="326.62,189.146 326.622,189.992 327.45,189.514 327.447,188.668 							"/>
						</g>
					</g>
					<g>
						<g>
							<polygon fill="#ABB2C2" points="326.62,189.146 326.622,189.992 328.093,189.143 328.09,188.297 							"/>
						</g>
					</g>
					<g>
						<g>
							<polygon fill="#C8D1E3" points="317.532,183.857 317.534,184.703 326.622,189.992 326.62,189.146 							"/>
						</g>
					</g>
					<polygon fill="#F2F2F2" points="318.36,183.379 319.002,183.008 320.19,183.699 319.548,184.069 326.26,187.978 
						326.902,187.607 328.09,188.297 326.62,189.146 317.532,183.857 					"/>
				</g>
			</g>
		</g>
		<g>
			<path fill="#C8D1E3" d="M311.734,193.252l21.613,12.479l0.022-7.735l-21.613-12.479L311.734,193.252z"/>
			<polygon fill="#E1E4EA" points="332.646,198.413 312.476,186.768 312.459,192.835 332.628,204.48 			"/>
			<g>
				<g enable-background="new    ">
					<g>
						<g>
							<polygon fill="#CFD3DE" points="318.36,191.458 318.362,192.304 319.55,192.994 319.548,192.148 							"/>
						</g>
					</g>
					<g>
						<g>
							<polygon fill="#85888F" points="319.548,192.148 319.55,192.994 320.192,192.623 320.19,191.777 							"/>
						</g>
					</g>
				</g>
				<g enable-background="new    ">
					<g>
						<g>
							<polygon fill="#CFD3DE" points="326.26,196.057 326.262,196.903 327.45,197.593 327.447,196.748 							"/>
						</g>
					</g>
					<g>
						<g>
							<polygon fill="#85888F" points="326.62,197.225 326.622,198.071 327.45,197.593 327.447,196.748 							"/>
						</g>
					</g>
					<g>
						<g>
							<polygon fill="#ABB2C2" points="326.62,197.225 326.622,198.071 328.093,197.222 328.09,196.376 							"/>
						</g>
					</g>
					<g>
						<g>
							<polygon fill="#C8D1E3" points="317.532,191.936 317.534,192.782 326.622,198.071 326.62,197.225 							"/>
						</g>
					</g>
					<polygon fill="#F2F2F2" points="318.36,191.458 319.002,191.087 320.19,191.777 319.548,192.148 326.26,196.057 
						326.902,195.686 328.09,196.376 326.62,197.225 317.532,191.936 					"/>
				</g>
			</g>
		</g>
	</g>
	<g>
		<g>
			<g enable-background="new    ">
				<g>
					<g>
						<polygon fill="#C8D1E3" points="331.737,171.798 339.485,167.296 339.555,160.277 331.808,164.779 						"/>
					</g>
				</g>
				<g>
					<g>
						<polygon fill="#FAFBFD" points="331.808,164.779 339.555,160.277 327.808,153.497 320.06,157.999 						"/>
					</g>
				</g>
				<g>
					<g>
						<polygon fill="#DADFEA" points="320.082,158.021 320.013,165.04 331.76,171.82 331.829,164.802 						"/>
					</g>
				</g>
				<g>
					<g>
						<polygon fill="#E1E4EA" points="322.989,159.693 331.808,164.779 331.737,171.798 322.989,166.752 						"/>
					</g>
					<g>
						<polygon fill="#BFCBE3" points="331.682,164.852 323.114,159.91 323.114,166.68 331.614,171.583 						"/>
					</g>
					<g>
						<polygon fill="#E1E4EA" points="331.556,164.923 323.239,160.126 323.239,166.608 331.491,171.367 						"/>
					</g>
					<g>
						<polygon fill="#252525" points="323.631,160.675 331.203,165.042 331.145,170.911 323.631,166.578 						"/>
					</g>
				</g>
			</g>
		</g>
		<g>
			<g>
				<polygon fill="#B0E33B" points="320.223,160.524 322.951,162.1 322.951,160.287 320.223,158.711 				"/>
			</g>
			<g>
				<g>
					<polygon fill="#BBBBBB" points="320.83,161.445 320.223,161.095 320.223,160.674 320.83,161.024 					"/>
				</g>
				<g>
					<polygon fill="#BBBBBB" points="320.908,161.07 321.542,161.436 321.542,161.857 320.908,161.491 					"/>
				</g>
				<g>
					<polygon fill="#BBBBBB" points="322.246,162.263 321.621,161.902 321.621,161.481 322.246,161.842 					"/>
				</g>
				<g>
					<polygon fill="#BBBBBB" points="322.325,161.888 322.951,162.249 322.951,162.67 322.325,162.309 					"/>
				</g>
			</g>
			<g>
				<g>
					<g>
						<g>
							<path fill="#FFFFFF" d="M322.248,160.833c0-0.181,0.127-0.255,0.284-0.164c0.156,0.09,0.284,0.312,0.284,0.492
								c0,0.181-0.128,0.255-0.284,0.164C322.375,161.235,322.248,161.014,322.248,160.833z M322.321,160.875
								c0,0.134,0.095,0.298,0.211,0.365c0.116,0.067,0.21,0.013,0.21-0.122s-0.094-0.298-0.21-0.365
								S322.321,160.741,322.321,160.875z"/>
						</g>
					</g>
					<g>
						<g>
							<path fill="#FFFFFF" d="M322.484,161.064c0,0.03,0.021,0.067,0.048,0.082l0,0c0.026,0.015,0.047,0.003,0.047-0.027v-0.189
								c0-0.03-0.021-0.067-0.047-0.082l0,0c-0.026-0.015-0.048-0.003-0.048,0.027V161.064z"/>
						</g>
					</g>
				</g>
				<g>
					<path fill="#FFFFFF" d="M320.361,159.718l0.07,0.078c0.001,0.024,0.005,0.05,0.011,0.076l-0.055,0.032
						c-0.004,0.001-0.005,0.007-0.002,0.014l0.036,0.085c0.003,0.007,0.009,0.013,0.013,0.012l0.072,0.012
						c0.016,0.024,0.032,0.048,0.051,0.069v0.089c-0.001,0.005,0.003,0.013,0.008,0.017l0.065,0.054c0.005,0.004,0.01,0.004,0.012,0
						l0.032-0.062c0.021,0.011,0.041,0.019,0.061,0.022l0.055,0.094c0.003,0.006,0.009,0.011,0.013,0.01l0.057-0.009
						c0.004-0.001,0.006-0.006,0.003-0.013l-0.026-0.099c0.015-0.009,0.026-0.022,0.035-0.038l0.077,0.044
						c0.005,0.004,0.01,0.002,0.012-0.003l0.014-0.066c0.001-0.006-0.002-0.013-0.007-0.017l-0.069-0.078
						c-0.001-0.024-0.005-0.05-0.011-0.076l0.054-0.032c0.004,0,0.005-0.007,0.002-0.014l-0.035-0.085
						c-0.003-0.007-0.009-0.012-0.013-0.011l-0.073-0.012c-0.015-0.024-0.031-0.048-0.05-0.069l-0.001-0.089
						c0.001-0.005-0.002-0.013-0.008-0.017l-0.064-0.054c-0.005-0.004-0.011-0.004-0.012,0l-0.032,0.062
						c-0.021-0.011-0.041-0.019-0.061-0.022l-0.055-0.094c-0.003-0.006-0.009-0.011-0.014-0.01l-0.056,0.009
						c-0.005,0.001-0.007,0.006-0.004,0.013l0.026,0.099c-0.014,0.009-0.025,0.021-0.035,0.038l-0.077-0.044
						c-0.005-0.004-0.01-0.003-0.011,0.003l-0.014,0.066C320.354,159.707,320.356,159.714,320.361,159.718z M320.545,159.82
						c0.015-0.067,0.08-0.078,0.146-0.023s0.107,0.154,0.093,0.222c-0.014,0.067-0.079,0.078-0.145,0.023
						C320.572,159.987,320.531,159.888,320.545,159.82z"/>
				</g>
				<g>
					<path fill="#FFFFFF" d="M322.123,160.852l-0.164,0.094c-0.014,0.008-0.031,0.005-0.05-0.007
						c-0.018-0.009-0.036-0.027-0.05-0.051l-0.163-0.283c-0.026-0.044-0.026-0.092,0-0.107c0.025-0.015,0.067,0.009,0.093,0.054
						l0.042,0.072v-0.243c0-0.05,0.035-0.07,0.078-0.045c0.044,0.025,0.079,0.086,0.079,0.136v0.243l0.041-0.024
						c0.026-0.015,0.067,0.009,0.094,0.054C322.148,160.789,322.148,160.837,322.123,160.852z"/>
				</g>
				<g>
					<path fill="#FFFFFF" d="M321.082,160.073l0.157-0.09c0.013-0.007,0.03-0.004,0.048,0.007c0.018,0.009,0.034,0.026,0.048,0.049
						l0.156,0.271c0.024,0.042,0.024,0.089,0,0.103s-0.064-0.009-0.089-0.052l-0.04-0.069v0.233c0,0.048-0.034,0.067-0.075,0.043
						c-0.042-0.024-0.075-0.083-0.075-0.13v-0.233l-0.04,0.023c-0.024,0.014-0.064-0.009-0.09-0.052
						C321.058,160.133,321.058,160.087,321.082,160.073z"/>
				</g>
			</g>
		</g>
		<g>
			<g>
				<g>
					<g>
						<polygon fill="#BBBBBB" points="320.211,162.459 320.868,162.838 320.868,162.759 320.211,162.38 						"/>
					</g>
				</g>
				<g>
					<g>
						<polygon fill="#BBBBBB" points="320.211,162.902 320.868,163.281 320.868,163.203 320.211,162.823 						"/>
					</g>
				</g>
				<g>
					<g>
						<polygon fill="#BBBBBB" points="320.211,163.411 320.868,163.791 320.868,163.711 320.211,163.333 						"/>
					</g>
				</g>
				<g>
					<g>
						<polygon fill="#BBBBBB" points="320.211,163.854 320.868,164.234 320.868,164.155 320.211,163.776 						"/>
					</g>
				</g>
			</g>
			<g>
				<g>
					<g>
						<polygon fill="#BBBBBB" points="322.295,163.682 322.952,164.061 322.952,163.982 322.295,163.603 						"/>
					</g>
				</g>
				<g>
					<g>
						<polygon fill="#BBBBBB" points="322.295,164.125 322.952,164.504 322.952,164.426 322.295,164.046 						"/>
					</g>
				</g>
				<g>
					<g>
						<polygon fill="#BBBBBB" points="322.295,164.634 322.952,165.013 322.952,164.935 322.295,164.555 						"/>
					</g>
				</g>
				<g>
					<g>
						<polygon fill="#BBBBBB" points="322.295,165.077 322.952,165.457 322.952,165.378 322.295,164.999 						"/>
					</g>
				</g>
			</g>
			<g>
				<g enable-background="new    ">
					<g enable-background="new    ">
						<defs>
							<path id="SVGID_1_" enable-background="new    " d="M321.146,163.076l-0.246,0.143c0.11-0.064,0.263-0.055,0.43,0.042
								l0.246-0.143C321.408,163.021,321.256,163.012,321.146,163.076z"/>
						</defs>
						<clipPath id="SVGID_2_">
							<use xlink:href="#SVGID_1_"  overflow="visible"/>
						</clipPath>
						<g clip-path="url(#SVGID_2_)" enable-background="new    ">
							<g>
								<path fill="#E1E4EA" d="M321.329,163.26l0.246-0.143c-0.131-0.076-0.253-0.098-0.354-0.073l-0.246,0.143
									C321.075,163.163,321.198,163.185,321.329,163.26L321.329,163.26z"/>
							</g>
							<g>
								<path fill="#BBBBBB" d="M320.976,163.188l0.246-0.143c-0.027,0.007-0.053,0.017-0.076,0.031l-0.246,0.143
									C320.923,163.205,320.948,163.194,320.976,163.188L320.976,163.188z"/>
							</g>
						</g>
					</g>
					<g enable-background="new    ">
						<defs>
							<path id="SVGID_3_" enable-background="new    " d="M321.756,164.689l0.247-0.143c0.107-0.063,0.175-0.196,0.175-0.386
								c0.001-0.384-0.268-0.85-0.603-1.043l-0.246,0.143c0.335,0.193,0.604,0.659,0.603,1.043
								C321.932,164.493,321.864,164.626,321.756,164.689z"/>
						</defs>
						<clipPath id="SVGID_4_">
							<use xlink:href="#SVGID_3_"  overflow="visible"/>
						</clipPath>
						<g clip-path="url(#SVGID_4_)">
							<g>
								<path fill="#BBBBBB" d="M321.756,164.689l0.247-0.143c0.107-0.063,0.175-0.196,0.175-0.386
									c0.001-0.183-0.06-0.384-0.159-0.565l-0.246,0.143c0.1,0.181,0.16,0.382,0.159,0.565
									C321.932,164.493,321.864,164.626,321.756,164.689L321.756,164.689z"/>
							</g>
							<g>
								<path fill="#BBBBBB" d="M321.772,163.739l0.246-0.143c-0.11-0.201-0.268-0.377-0.443-0.479l-0.246,0.143
									C321.505,163.362,321.662,163.538,321.772,163.739L321.772,163.739z"/>
							</g>
						</g>
					</g>
					<g>
						<g>
							<path fill="#E0E0E0" d="M321.329,163.26c-0.332-0.192-0.604-0.039-0.606,0.346c-0.001,0.382,0.271,0.849,0.603,1.041
								c0.335,0.193,0.605,0.039,0.606-0.343C321.933,163.919,321.664,163.454,321.329,163.26z"/>
						</g>
					</g>
				</g>
			</g>
		</g>
		<g>
			<g enable-background="new    ">
				<g>
					<g>
						<polygon fill="#413F46" points="323.599,165.353 323.345,165.206 323.131,165.329 323.384,165.477 						"/>
					</g>
				</g>
				<g>
					<g>
						<polygon fill="#5E5B65" points="323.16,165.605 322.907,165.458 322.908,165.627 323.161,165.774 						"/>
					</g>
				</g>
				<g>
					<g>
						<polygon fill="#413F46" points="323.586,161.646 323.333,161.5 323.118,161.623 323.371,161.77 						"/>
					</g>
				</g>
				<g>
					<g>
						<polygon fill="#5E5B65" points="323.148,162.066 322.896,161.919 322.907,165.458 323.16,165.605 						"/>
					</g>
				</g>
				<g>
					<g>
						<polygon fill="#5E5B65" points="323.147,161.899 322.895,161.752 322.896,161.919 323.148,162.066 						"/>
					</g>
				</g>
				<g>
					<g>
						<polygon fill="#413F46" points="323.371,161.77 323.118,161.623 322.895,161.752 323.147,161.899 						"/>
					</g>
				</g>
				<g>
					<g>
						<polygon fill="#333137" points="323.147,161.899 323.148,162.066 323.16,165.605 323.161,165.774 323.385,165.645 
							323.599,165.521 323.599,165.353 323.384,165.477 323.372,161.938 323.586,161.813 323.586,161.646 323.371,161.77 						"/>
					</g>
				</g>
			</g>
		</g>
	</g>
	<g>
		<g>
			<g>
				<polygon fill="#C8D1E3" points="366.306,228.176 380.363,216.755 380.425,192.807 380.431,192.428 380.431,191.67 
					366.373,199.84 366.373,200.551 366.368,200.924 				"/>
			</g>
		</g>
		<g>
			<g>
				<polygon fill="#A0A7B5" points="367.142,200.273 367.142,224.442 367.463,224.25 367.463,200.087 				"/>
			</g>
		</g>
		<g>
			<g>
				<polygon fill="#F3F5F9" points="366.374,199.841 380.431,191.672 363.941,182.152 349.885,190.32 				"/>
			</g>
			<g>
				<polygon fill="#343848" points="379.396,191.674 363.941,182.751 350.919,190.319 366.374,199.242 				"/>
			</g>
		</g>
		<g>
			<g>
				<polygon fill="#FFFFFF" points="349.838,207.169 349.838,218.668 363.987,226.838 365.71,227.828 366.306,228.176 
					366.353,206.744 366.358,206.371 366.373,199.84 349.884,190.322 349.868,196.842 349.863,197.221 				"/>
			</g>
		</g>
		<g>
			<g>
				<polygon fill="#252525" points="366.353,206.744 366.358,206.371 366.373,201.601 349.884,192.083 349.868,196.842 
					349.863,197.221 				"/>
			</g>
		</g>
		<g>
			<g>
				<polygon fill="#171717" points="365.639,208.693 365.639,220.898 365.083,220.578 363.485,219.655 350.327,212.058 
					350.327,199.853 				"/>
			</g>
			<g>
				<polygon fill="#252525" points="364.601,209.292 351.364,201.65 351.364,209.579 364.601,217.221 				"/>
			</g>
		</g>
		<g>
			<g>
				<polygon fill="#C8D1E3" points="360.367,202.559 365.158,205.325 365.158,201.778 360.367,199.012 				"/>
			</g>
			<g>
				<g>
					<polygon fill="#B0E33B" points="360.54,201.42 364.957,203.97 364.957,201.935 360.54,199.385 					"/>
				</g>
				<g>
					<g>
						<polygon fill="#F3F5F9" points="361.523,202.899 360.54,202.331 360.54,201.649 361.523,202.216 						"/>
					</g>
					<g>
						<polygon fill="#F3F5F9" points="361.65,202.29 362.677,202.882 362.677,203.564 361.65,202.972 						"/>
					</g>
					<g>
						<polygon fill="#F3F5F9" points="363.816,204.223 362.805,203.638 362.805,202.956 363.816,203.541 						"/>
					</g>
					<g>
						<polygon fill="#F3F5F9" points="363.944,203.614 364.957,204.199 364.957,204.881 363.944,204.296 						"/>
					</g>
				</g>
			</g>
			<g>
				<g>
					<g>
						<g>
							<path fill="#FFFFFF" d="M363.848,202.329c0-0.3,0.211-0.422,0.471-0.272s0.471,0.516,0.471,0.815
								c0,0.3-0.211,0.422-0.471,0.272S363.848,202.629,363.848,202.329z M363.97,202.399c0,0.222,0.156,0.493,0.349,0.604
								c0.192,0.111,0.349,0.021,0.349-0.202s-0.156-0.493-0.349-0.604C364.126,202.087,363.97,202.178,363.97,202.399z"/>
						</g>
					</g>
					<g>
						<g>
							<path fill="#FFFFFF" d="M364.239,202.712c0,0.05,0.035,0.111,0.079,0.136l0,0c0.043,0.025,0.078,0.005,0.078-0.045v-0.314
								c0-0.05-0.035-0.111-0.078-0.136l0,0c-0.044-0.025-0.079-0.005-0.079,0.045V202.712z"/>
						</g>
					</g>
				</g>
				<g>
					<path fill="#FFFFFF" d="M360.725,200.483l0.115,0.129c0.002,0.041,0.008,0.083,0.018,0.125l-0.09,0.053
						c-0.007,0.001-0.008,0.012-0.003,0.023l0.06,0.141c0.004,0.012,0.014,0.021,0.021,0.02l0.12,0.019
						c0.025,0.041,0.053,0.079,0.084,0.115v0.148c-0.001,0.008,0.005,0.021,0.014,0.028l0.106,0.089
						c0.01,0.007,0.019,0.007,0.02-0.001l0.055-0.102c0.034,0.018,0.067,0.03,0.1,0.037l0.091,0.156
						c0.005,0.011,0.015,0.018,0.022,0.017l0.092-0.015c0.008-0.001,0.011-0.011,0.006-0.021l-0.043-0.164
						c0.022-0.016,0.042-0.037,0.058-0.063l0.128,0.073c0.008,0.006,0.016,0.004,0.018-0.005l0.024-0.11
						c0.001-0.009-0.003-0.022-0.011-0.029l-0.116-0.129c-0.001-0.041-0.008-0.083-0.018-0.125l0.09-0.053
						c0.007-0.001,0.008-0.012,0.003-0.023l-0.059-0.141c-0.005-0.012-0.015-0.021-0.021-0.019l-0.12-0.02
						c-0.025-0.041-0.053-0.079-0.084-0.115v-0.148c0.001-0.008-0.005-0.021-0.014-0.028l-0.106-0.089
						c-0.009-0.008-0.018-0.007-0.02,0.001l-0.055,0.102c-0.034-0.018-0.067-0.03-0.1-0.037l-0.091-0.156
						c-0.004-0.011-0.015-0.018-0.021-0.017l-0.093,0.015c-0.008,0.001-0.011,0.01-0.006,0.021l0.043,0.164
						c-0.022,0.016-0.042,0.037-0.058,0.063l-0.128-0.073c-0.008-0.006-0.016-0.004-0.018,0.005l-0.023,0.11
						C360.712,200.464,360.717,200.477,360.725,200.483z M361.028,200.651c0.023-0.112,0.132-0.129,0.24-0.039
						c0.109,0.09,0.179,0.254,0.154,0.367c-0.023,0.112-0.132,0.129-0.24,0.039C361.073,200.928,361.004,200.764,361.028,200.651z"
						/>
				</g>
				<g>
					<path fill="#FFFFFF" d="M363.641,202.361l-0.271,0.156c-0.022,0.013-0.053,0.008-0.083-0.012
						c-0.029-0.015-0.06-0.044-0.083-0.084l-0.271-0.469c-0.042-0.074-0.042-0.153,0-0.178c0.043-0.025,0.112,0.015,0.154,0.089
						l0.069,0.12v-0.403c0-0.083,0.059-0.116,0.13-0.075c0.072,0.042,0.131,0.143,0.131,0.226v0.402l0.068-0.04
						c0.043-0.025,0.111,0.015,0.154,0.089S363.684,202.336,363.641,202.361z"/>
				</g>
				<g>
					<path fill="#FFFFFF" d="M361.918,201.07l0.259-0.149c0.022-0.013,0.052-0.008,0.08,0.011c0.028,0.015,0.058,0.043,0.079,0.081
						l0.259,0.449c0.041,0.071,0.041,0.147,0,0.171c-0.04,0.023-0.106-0.015-0.147-0.085l-0.066-0.115v0.386
						c0,0.08-0.056,0.112-0.124,0.072c-0.069-0.04-0.125-0.136-0.125-0.216v-0.386l-0.066,0.038
						c-0.04,0.024-0.106-0.014-0.147-0.085S361.877,201.094,361.918,201.07z"/>
				</g>
			</g>
		</g>
		<g>
			<g enable-background="new    ">
				<g enable-background="new    ">
					<defs>
						<path id="SVGID_5_" enable-background="new    " d="M355.938,196.319l-0.262,0.152c0.117-0.068,0.278-0.058,0.456,0.044
							l0.261-0.152C356.216,196.261,356.054,196.251,355.938,196.319z"/>
					</defs>
					<clipPath id="SVGID_6_">
						<use xlink:href="#SVGID_5_"  overflow="visible"/>
					</clipPath>
					<g clip-path="url(#SVGID_6_)" enable-background="new    ">
						<g>
							<path fill="#E1E4EA" d="M356.132,196.516l0.261-0.152c-0.139-0.081-0.269-0.104-0.374-0.077l-0.261,0.152
								C355.863,196.412,355.992,196.435,356.132,196.516L356.132,196.516z"/>
						</g>
						<g>
							<path fill="#BBBBBB" d="M355.758,196.438l0.261-0.152c-0.029,0.007-0.057,0.019-0.081,0.033l-0.262,0.152
								C355.701,196.457,355.729,196.446,355.758,196.438L355.758,196.438z"/>
						</g>
					</g>
				</g>
				<g enable-background="new    ">
					<defs>
						<path id="SVGID_7_" enable-background="new    " d="M356.585,198.03l0.261-0.152c0.114-0.066,0.186-0.208,0.186-0.409
							c0.001-0.407-0.283-0.901-0.639-1.106l-0.261,0.152c0.354,0.205,0.64,0.698,0.639,1.106
							C356.771,197.822,356.699,197.963,356.585,198.03z"/>
					</defs>
					<clipPath id="SVGID_8_">
						<use xlink:href="#SVGID_7_"  overflow="visible"/>
					</clipPath>
					<g clip-path="url(#SVGID_8_)">
						<g>
							<path fill="#BBBBBB" d="M356.585,198.03l0.261-0.152c0.114-0.066,0.186-0.208,0.186-0.409
								c0.001-0.193-0.063-0.407-0.169-0.599l-0.261,0.151c0.105,0.192,0.17,0.405,0.169,0.599
								C356.771,197.822,356.699,197.963,356.585,198.03L356.585,198.03z"/>
						</g>
						<g>
							<path fill="#BBBBBB" d="M356.602,197.022l0.261-0.151c-0.116-0.213-0.283-0.4-0.47-0.507l-0.261,0.152
								C356.318,196.623,356.485,196.81,356.602,197.022L356.602,197.022z"/>
						</g>
					</g>
				</g>
				<g>
					<g>
						<path fill="#F3F5F9" d="M356.132,196.516c-0.353-0.204-0.642-0.042-0.643,0.366c-0.001,0.405,0.286,0.9,0.639,1.103
							c0.354,0.205,0.642,0.042,0.643-0.363C356.771,197.214,356.486,196.72,356.132,196.516z"/>
					</g>
				</g>
			</g>
		</g>
		<g>
			<g enable-background="new    ">
				<g enable-background="new    ">
					<defs>
						<path id="SVGID_9_" enable-background="new    " d="M351.472,193.772l-0.261,0.151c0.116-0.068,0.278-0.058,0.455,0.044
							l0.262-0.152C351.75,193.713,351.588,193.704,351.472,193.772z"/>
					</defs>
					<clipPath id="SVGID_10_">
						<use xlink:href="#SVGID_9_"  overflow="visible"/>
					</clipPath>
					<g clip-path="url(#SVGID_10_)" enable-background="new    ">
						<g>
							<path fill="#E1E4EA" d="M351.666,193.968l0.262-0.152c-0.14-0.08-0.27-0.104-0.375-0.077l-0.261,0.151
								C351.397,193.864,351.527,193.887,351.666,193.968L351.666,193.968z"/>
						</g>
						<g>
							<path fill="#BBBBBB" d="M351.292,193.891l0.261-0.151c-0.029,0.007-0.057,0.018-0.081,0.033l-0.261,0.151
								C351.235,193.909,351.263,193.898,351.292,193.891L351.292,193.891z"/>
						</g>
					</g>
				</g>
				<g enable-background="new    ">
					<defs>
						<path id="SVGID_11_" enable-background="new    " d="M352.119,195.482l0.261-0.152c0.114-0.066,0.186-0.208,0.186-0.409
							c0.002-0.407-0.283-0.901-0.638-1.106l-0.262,0.152c0.355,0.205,0.641,0.699,0.639,1.106
							C352.305,195.274,352.233,195.416,352.119,195.482z"/>
					</defs>
					<clipPath id="SVGID_12_">
						<use xlink:href="#SVGID_11_"  overflow="visible"/>
					</clipPath>
					<g clip-path="url(#SVGID_12_)">
						<g>
							<path fill="#BBBBBB" d="M352.119,195.482l0.261-0.152c0.114-0.066,0.186-0.208,0.186-0.409
								c0.001-0.193-0.063-0.406-0.168-0.599l-0.262,0.152c0.105,0.192,0.17,0.405,0.169,0.599
								C352.305,195.274,352.233,195.416,352.119,195.482L352.119,195.482z"/>
						</g>
						<g>
							<path fill="#BBBBBB" d="M352.136,194.475l0.262-0.152c-0.117-0.212-0.284-0.399-0.47-0.507l-0.262,0.152
								C351.853,194.075,352.02,194.262,352.136,194.475L352.136,194.475z"/>
						</g>
					</g>
				</g>
				<g>
					<g>
						<path fill="#F3F5F9" d="M351.666,193.968c-0.352-0.204-0.642-0.041-0.643,0.366c-0.001,0.405,0.286,0.9,0.639,1.104
							c0.354,0.205,0.642,0.041,0.643-0.364C352.307,194.667,352.021,194.172,351.666,193.968z"/>
					</g>
				</g>
			</g>
		</g>
		<g>
			<g enable-background="new    ">
				<g enable-background="new    ">
					<defs>
						<path id="SVGID_13_" enable-background="new    " d="M355.938,198.438l-0.262,0.151c0.117-0.068,0.278-0.058,0.456,0.044
							l0.261-0.151C356.216,198.38,356.054,198.37,355.938,198.438z"/>
					</defs>
					<clipPath id="SVGID_14_">
						<use xlink:href="#SVGID_13_"  overflow="visible"/>
					</clipPath>
					<g clip-path="url(#SVGID_14_)" enable-background="new    ">
						<g>
							<path fill="#E1E4EA" d="M356.132,198.634l0.261-0.151c-0.139-0.081-0.269-0.104-0.374-0.078l-0.261,0.152
								C355.863,198.53,355.992,198.553,356.132,198.634L356.132,198.634z"/>
						</g>
						<g>
							<path fill="#BBBBBB" d="M355.758,198.557l0.261-0.152c-0.029,0.007-0.057,0.019-0.081,0.033l-0.262,0.151
								C355.701,198.575,355.729,198.564,355.758,198.557L355.758,198.557z"/>
						</g>
					</g>
				</g>
				<g enable-background="new    ">
					<defs>
						<path id="SVGID_15_" enable-background="new    " d="M356.585,200.148l0.261-0.151c0.114-0.067,0.186-0.208,0.186-0.409
							c0.001-0.408-0.283-0.901-0.639-1.106l-0.261,0.151c0.354,0.205,0.64,0.699,0.639,1.106
							C356.771,199.94,356.699,200.082,356.585,200.148z"/>
					</defs>
					<clipPath id="SVGID_16_">
						<use xlink:href="#SVGID_15_"  overflow="visible"/>
					</clipPath>
					<g clip-path="url(#SVGID_16_)">
						<g>
							<path fill="#BBBBBB" d="M356.585,200.148l0.261-0.151c0.114-0.067,0.186-0.208,0.186-0.409
								c0.001-0.194-0.063-0.407-0.169-0.599l-0.261,0.152c0.105,0.192,0.17,0.405,0.169,0.599
								C356.771,199.94,356.699,200.082,356.585,200.148L356.585,200.148z"/>
						</g>
						<g>
							<path fill="#BBBBBB" d="M356.602,199.141l0.261-0.152c-0.116-0.212-0.283-0.399-0.47-0.507l-0.261,0.151
								C356.318,198.741,356.485,198.928,356.602,199.141L356.602,199.141z"/>
						</g>
					</g>
				</g>
				<g>
					<g>
						<path fill="#F3F5F9" d="M356.132,198.634c-0.353-0.203-0.642-0.041-0.643,0.366c-0.001,0.405,0.286,0.9,0.639,1.104
							c0.354,0.205,0.642,0.041,0.643-0.364C356.771,199.333,356.486,198.838,356.132,198.634z"/>
					</g>
				</g>
			</g>
		</g>
		<g>
			<g enable-background="new    ">
				<g enable-background="new    ">
					<defs>
						<path id="SVGID_17_" enable-background="new    " d="M351.472,195.89l-0.261,0.152c0.116-0.068,0.278-0.059,0.455,0.044
							l0.262-0.151C351.75,195.832,351.588,195.822,351.472,195.89z"/>
					</defs>
					<clipPath id="SVGID_18_">
						<use xlink:href="#SVGID_17_"  overflow="visible"/>
					</clipPath>
					<g clip-path="url(#SVGID_18_)" enable-background="new    ">
						<g>
							<path fill="#E1E4EA" d="M351.666,196.086l0.262-0.151c-0.14-0.081-0.27-0.104-0.375-0.077l-0.261,0.151
								C351.397,195.982,351.527,196.005,351.666,196.086L351.666,196.086z"/>
						</g>
						<g>
							<path fill="#BBBBBB" d="M351.292,196.009l0.261-0.151c-0.029,0.007-0.057,0.018-0.081,0.033l-0.261,0.152
								C351.235,196.027,351.263,196.016,351.292,196.009L351.292,196.009z"/>
						</g>
					</g>
				</g>
				<g enable-background="new    ">
					<defs>
						<path id="SVGID_19_" enable-background="new    " d="M352.119,197.601l0.261-0.151c0.114-0.066,0.186-0.208,0.186-0.409
							c0.002-0.407-0.283-0.901-0.638-1.106l-0.262,0.151c0.355,0.205,0.641,0.699,0.639,1.106
							C352.305,197.393,352.233,197.534,352.119,197.601z"/>
					</defs>
					<clipPath id="SVGID_20_">
						<use xlink:href="#SVGID_19_"  overflow="visible"/>
					</clipPath>
					<g clip-path="url(#SVGID_20_)">
						<g>
							<path fill="#BBBBBB" d="M352.119,197.601l0.261-0.151c0.114-0.066,0.186-0.208,0.186-0.409
								c0.001-0.194-0.063-0.407-0.168-0.599l-0.262,0.152c0.105,0.192,0.17,0.405,0.169,0.599
								C352.305,197.393,352.233,197.534,352.119,197.601L352.119,197.601z"/>
						</g>
						<g>
							<path fill="#BBBBBB" d="M352.136,196.593l0.262-0.152c-0.117-0.212-0.284-0.399-0.47-0.507l-0.262,0.151
								C351.853,196.193,352.02,196.381,352.136,196.593L352.136,196.593z"/>
						</g>
					</g>
				</g>
				<g>
					<g>
						<path fill="#F3F5F9" d="M351.666,196.086c-0.352-0.203-0.642-0.041-0.643,0.366c-0.001,0.405,0.286,0.9,0.639,1.104
							c0.354,0.205,0.642,0.041,0.643-0.364C352.307,196.785,352.021,196.291,351.666,196.086z"/>
					</g>
				</g>
			</g>
		</g>
		<g>
			<g enable-background="new    ">
				<g enable-background="new    ">
					<defs>
						<path id="SVGID_21_" enable-background="new    " d="M353.535,195.855l-0.369,0.215c0.165-0.096,0.394-0.083,0.646,0.063
							l0.37-0.215C353.93,195.772,353.701,195.759,353.535,195.855z"/>
					</defs>
					<clipPath id="SVGID_22_">
						<use xlink:href="#SVGID_21_"  overflow="visible"/>
					</clipPath>
					<g clip-path="url(#SVGID_22_)" enable-background="new    ">
						<g>
							<path fill="#E1E4EA" d="M353.812,196.133l0.37-0.215c-0.197-0.114-0.381-0.147-0.531-0.109l-0.37,0.215
								C353.431,195.986,353.614,196.019,353.812,196.133L353.812,196.133z"/>
						</g>
						<g>
							<path fill="#BBBBBB" d="M353.28,196.023l0.37-0.215c-0.041,0.01-0.079,0.026-0.115,0.046l-0.369,0.215
								C353.201,196.049,353.239,196.034,353.28,196.023L353.28,196.023z"/>
						</g>
					</g>
				</g>
				<g enable-background="new    ">
					<defs>
						<path id="SVGID_23_" enable-background="new    " d="M354.453,198.28l0.37-0.215c0.162-0.094,0.263-0.294,0.264-0.579
							c0.001-0.578-0.403-1.277-0.905-1.567l-0.37,0.215c0.503,0.29,0.907,0.99,0.905,1.567
							C354.716,197.985,354.615,198.185,354.453,198.28z"/>
					</defs>
					<clipPath id="SVGID_24_">
						<use xlink:href="#SVGID_23_"  overflow="visible"/>
					</clipPath>
					<g clip-path="url(#SVGID_24_)">
						<g>
							<path fill="#BBBBBB" d="M354.453,198.28l0.37-0.215c0.162-0.094,0.263-0.294,0.264-0.579c0-0.274-0.091-0.576-0.24-0.849
								l-0.369,0.215c0.149,0.272,0.24,0.574,0.239,0.849C354.716,197.985,354.615,198.185,354.453,198.28L354.453,198.28z"/>
						</g>
						<g>
							<path fill="#BBBBBB" d="M354.478,196.852l0.369-0.215c-0.165-0.301-0.401-0.566-0.665-0.719l-0.37,0.215
								C354.075,196.285,354.313,196.55,354.478,196.852L354.478,196.852z"/>
						</g>
					</g>
				</g>
				<g>
					<g>
						<path fill="#F3F5F9" d="M353.812,196.133c-0.499-0.288-0.909-0.059-0.911,0.519c-0.001,0.574,0.406,1.275,0.905,1.564
							c0.503,0.29,0.909,0.058,0.911-0.516C354.719,197.123,354.314,196.423,353.812,196.133z"/>
					</g>
				</g>
			</g>
		</g>
		<g>
			<g enable-background="new    ">
				<g>
					<g>
						<polygon fill="#CFD3DE" points="351.097,199.024 351.099,199.87 352.286,200.56 352.284,199.714 						"/>
					</g>
				</g>
				<g>
					<g>
						<polygon fill="#85888F" points="352.284,199.714 352.286,200.56 352.929,200.189 352.927,199.344 						"/>
					</g>
				</g>
				<g>
					<g>
						<polygon fill="#E5E7ED" points="351.097,199.024 352.284,199.714 352.927,199.344 351.739,198.653 						"/>
					</g>
				</g>
			</g>
			<g enable-background="new    ">
				<g>
					<g>
						<polygon fill="#CFD3DE" points="363.115,206.009 363.118,206.854 364.306,207.545 364.303,206.699 						"/>
					</g>
				</g>
				<g>
					<g>
						<polygon fill="#85888F" points="363.476,207.177 363.478,208.023 364.306,207.545 364.303,206.699 						"/>
					</g>
				</g>
				<g>
					<g>
						<polygon fill="#ABB2C2" points="363.476,207.177 363.478,208.023 364.948,207.174 364.945,206.328 						"/>
					</g>
				</g>
				<g>
					<g>
						<polygon fill="#E5E7ED" points="350.269,199.502 363.476,207.177 364.303,206.699 363.115,206.009 352.284,199.714 
							351.097,199.024 						"/>
					</g>
				</g>
				<g>
					<g>
						<polygon fill="#C8D1E3" points="350.269,199.502 350.271,200.348 363.478,208.023 363.476,207.177 						"/>
					</g>
				</g>
				<g>
					<g>
						<polygon fill="#E5E7ED" points="363.115,206.009 364.303,206.699 363.476,207.177 364.945,206.328 363.758,205.638 						"/>
					</g>
				</g>
			</g>
		</g>
		<g>
			<g>
				<polygon fill="#B7BFCF" points="364.444,199.819 366.296,200.888 366.353,200.924 366.358,200.551 349.868,191.022 
					349.863,191.401 				"/>
			</g>
		</g>
		<g>
			<g>
				<polygon fill="#A0A7B5" points="366.353,200.561 366.358,200.935 366.368,200.924 366.415,200.898 368.267,199.83 
					380.425,192.807 380.431,192.428 366.373,200.551 				"/>
			</g>
		</g>
		<g>
			<g>
				<polygon fill="#A0A7B5" points="366.353,206.371 366.353,206.744 367.142,206.288 367.463,206.106 367.463,205.728 
					367.142,205.914 				"/>
			</g>
		</g>
		<g>
			<path fill="#F9F8F8" d="M370.096,192.179c-0.551-0.318-0.854-0.744-0.854-1.199s0.304-0.881,0.854-1.2l0,0
				c1.12-0.646,2.941-0.646,4.062,0c0.551,0.318,0.854,0.745,0.854,1.2s-0.304,0.881-0.854,1.199
				c-0.561,0.323-1.296,0.485-2.031,0.485S370.655,192.502,370.096,192.179z M370.143,189.861L370.143,189.861
				c-0.521,0.301-0.808,0.698-0.808,1.119s0.286,0.817,0.808,1.118c1.094,0.632,2.874,0.631,3.968,0
				c0.521-0.301,0.808-0.698,0.808-1.118s-0.287-0.817-0.808-1.119c-0.547-0.315-1.266-0.473-1.984-0.473
				C371.408,189.388,370.689,189.545,370.143,189.861z"/>
			<path fill="#F9F8F8" d="M370.6,191.888c-0.417-0.24-0.646-0.563-0.646-0.908c0-0.346,0.229-0.668,0.646-0.909
				c0.842-0.486,2.212-0.486,3.054,0c0.416,0.241,0.646,0.563,0.646,0.909c0,0.345-0.229,0.668-0.646,0.908
				c-0.421,0.243-0.974,0.365-1.527,0.365C371.573,192.252,371.021,192.131,370.6,191.888z M370.646,190.152L370.646,190.152
				c-0.387,0.223-0.6,0.517-0.6,0.828s0.213,0.604,0.6,0.828c0.816,0.471,2.144,0.471,2.96,0c0.386-0.223,0.599-0.517,0.599-0.828
				s-0.213-0.604-0.599-0.828c-0.408-0.235-0.944-0.353-1.48-0.353C371.591,189.799,371.055,189.917,370.646,190.152z"/>
			<path fill="#F9F8F8" d="M364.739,195.613c-0.451-0.261-0.7-0.61-0.7-0.984c0-0.374,0.249-0.723,0.7-0.984
				c0.914-0.528,2.4-0.528,3.314,0c0.451,0.261,0.7,0.61,0.7,0.984c0,0.374-0.249,0.723-0.7,0.984
				c-0.457,0.264-1.057,0.396-1.657,0.396C365.797,196.008,365.196,195.876,364.739,195.613z M364.786,193.726L364.786,193.726
				c-0.421,0.243-0.653,0.564-0.653,0.903s0.232,0.66,0.653,0.903c0.888,0.513,2.333,0.512,3.221,0
				c0.422-0.243,0.653-0.564,0.653-0.903s-0.231-0.66-0.653-0.903c-0.443-0.256-1.027-0.384-1.61-0.384
				S365.23,193.47,364.786,193.726z"/>
			<path fill="#F9F8F8" d="M365.241,195.323c-0.317-0.184-0.493-0.43-0.493-0.694s0.176-0.511,0.493-0.694l0,0
				c0.637-0.368,1.674-0.368,2.312,0c0.317,0.184,0.492,0.43,0.492,0.694s-0.175,0.511-0.492,0.694
				c-0.319,0.184-0.737,0.276-1.156,0.276C365.979,195.599,365.56,195.507,365.241,195.323z M365.288,194.016L365.288,194.016
				c-0.288,0.166-0.446,0.384-0.446,0.613s0.158,0.447,0.446,0.613c0.611,0.353,1.606,0.353,2.218,0
				c0.287-0.166,0.445-0.384,0.445-0.613s-0.158-0.447-0.445-0.613c-0.306-0.176-0.708-0.265-1.109-0.265
				S365.594,193.839,365.288,194.016z"/>
			<path fill="#F9F8F8" d="M365.826,194.985c-0.161-0.093-0.25-0.22-0.25-0.356s0.089-0.263,0.25-0.356
				c0.314-0.182,0.826-0.182,1.141,0c0.162,0.093,0.25,0.22,0.25,0.356s-0.088,0.263-0.25,0.356
				c-0.157,0.091-0.363,0.136-0.57,0.136S365.983,195.076,365.826,194.985z M365.873,194.354c-0.131,0.076-0.203,0.173-0.203,0.275
				s0.072,0.2,0.203,0.275c0.289,0.167,0.759,0.167,1.047,0c0.132-0.076,0.204-0.173,0.204-0.275s-0.072-0.2-0.204-0.275
				c-0.145-0.083-0.334-0.125-0.523-0.125S366.018,194.271,365.873,194.354z"/>
			<path fill="#F9F8F8" d="M355.924,192.018c-0.658-0.38-1.021-0.888-1.021-1.431s0.363-1.05,1.021-1.43
				c1.34-0.774,3.521-0.774,4.861,0c0.658,0.38,1.021,0.888,1.021,1.43s-0.362,1.051-1.021,1.431
				c-0.67,0.387-1.551,0.581-2.431,0.581C357.474,192.598,356.594,192.404,355.924,192.018z M355.971,189.238
				c-0.629,0.362-0.975,0.842-0.975,1.349c0,0.508,0.346,0.987,0.975,1.35c1.314,0.759,3.453,0.759,4.768,0
				c0.628-0.363,0.974-0.842,0.974-1.35c0-0.507-0.346-0.987-0.974-1.349c-0.657-0.38-1.521-0.569-2.384-0.569
				S356.628,188.858,355.971,189.238z"/>
			<path fill="#F9F8F8" d="M356.375,191.757c-0.538-0.31-0.834-0.726-0.834-1.17c0-0.444,0.296-0.859,0.834-1.17
				c1.091-0.63,2.867-0.63,3.959,0c0.537,0.311,0.834,0.726,0.834,1.17c0,0.444-0.297,0.86-0.834,1.17
				c-0.546,0.315-1.263,0.473-1.979,0.473S356.921,192.072,356.375,191.757z M356.422,189.498c-0.508,0.293-0.787,0.68-0.787,1.089
				c0,0.409,0.279,0.796,0.787,1.089c1.065,0.615,2.8,0.615,3.865,0c0.507-0.293,0.787-0.68,0.787-1.089
				c0-0.409-0.28-0.796-0.787-1.089c-0.533-0.308-1.232-0.461-1.933-0.461S356.954,189.19,356.422,189.498z"/>
			<path fill="#F9F8F8" d="M357.061,191.361c-0.354-0.205-0.55-0.479-0.55-0.774c0-0.294,0.195-0.569,0.55-0.774l0,0
				c0.713-0.412,1.874-0.412,2.588,0c0.354,0.205,0.55,0.479,0.55,0.774c0,0.295-0.195,0.57-0.55,0.774
				c-0.356,0.206-0.825,0.309-1.294,0.309S357.417,191.567,357.061,191.361z M357.107,189.894L357.107,189.894
				c-0.324,0.188-0.503,0.434-0.503,0.693s0.179,0.506,0.503,0.693c0.688,0.397,1.807,0.397,2.494,0
				c0.324-0.188,0.503-0.434,0.503-0.693s-0.179-0.506-0.503-0.693c-0.344-0.198-0.796-0.297-1.247-0.297
				C357.902,189.596,357.451,189.695,357.107,189.894z"/>
			<path fill="#F9F8F8" d="M364.139,187.274c-0.337-0.194-0.522-0.456-0.522-0.737c0-0.28,0.186-0.542,0.522-0.737
				c0.679-0.392,1.781-0.392,2.46,0c0.337,0.195,0.522,0.457,0.522,0.737c0,0.281-0.186,0.542-0.522,0.737
				c-0.34,0.196-0.785,0.294-1.23,0.294S364.479,187.47,364.139,187.274z M364.186,185.881c-0.307,0.177-0.476,0.41-0.476,0.656
				s0.169,0.479,0.476,0.656c0.652,0.377,1.714,0.377,2.366,0c0.307-0.177,0.476-0.41,0.476-0.656s-0.169-0.479-0.476-0.656
				c-0.326-0.188-0.755-0.282-1.184-0.282C364.94,185.599,364.512,185.693,364.186,185.881z"/>
			<path fill="#F9F8F8" d="M364.643,186.983c-0.202-0.117-0.314-0.275-0.314-0.446c0-0.17,0.112-0.329,0.314-0.446l0,0
				c0.4-0.231,1.052-0.231,1.452,0c0.202,0.117,0.313,0.275,0.313,0.446c0,0.171-0.111,0.329-0.313,0.446
				c-0.2,0.115-0.463,0.173-0.727,0.173C365.105,187.157,364.843,187.099,364.643,186.983z M364.689,186.172L364.689,186.172
				c-0.172,0.1-0.268,0.229-0.268,0.365s0.096,0.266,0.268,0.365c0.375,0.216,0.983,0.216,1.358,0
				c0.172-0.1,0.268-0.229,0.268-0.365s-0.096-0.265-0.268-0.365c-0.188-0.108-0.434-0.162-0.68-0.162
				C365.123,186.01,364.877,186.064,364.689,186.172z"/>
		</g>
	</g>
	<g>
		<g>
			<g>
				<polygon fill="#C8D1E3" points="382.502,237.525 396.325,226.24 396.387,203.363 396.392,202.991 396.392,202.246 
					382.568,210.28 382.568,210.979 382.563,211.346 				"/>
			</g>
		</g>
		<g>
			<g>
				<polygon fill="#F2F2F2" points="382.569,210.281 396.393,202.248 380.176,192.885 366.353,200.918 				"/>
			</g>
		</g>
		<g>
			<g>
				<polygon fill="#E1E4EA" points="366.307,228.176 380.222,236.21 381.915,237.184 382.502,237.525 382.568,210.28 
					366.353,200.92 				"/>
				<g>
					<path fill="#C8D1E3" d="M367.333,224.333l0.041-21.639l14.167,8.177l-0.061,21.63L367.333,224.333z M368.037,203.844
						l-0.039,20.105l12.821,7.402l0.056-20.097L368.037,203.844z"/>
				</g>
			</g>
		</g>
		<g>
			<g enable-background="new    ">
				<g>
					<g>
						<polygon fill="#CFD3DE" points="369.857,206.314 369.86,207.16 371.048,207.851 371.046,207.005 						"/>
					</g>
				</g>
				<g>
					<g>
						<polygon fill="#85888F" points="371.046,207.005 371.048,207.851 371.69,207.479 371.688,206.634 						"/>
					</g>
				</g>
			</g>
			<g enable-background="new    ">
				<g>
					<g>
						<polygon fill="#CFD3DE" points="377.758,210.914 377.76,211.759 378.948,212.449 378.945,211.604 						"/>
					</g>
				</g>
				<g>
					<g>
						<polygon fill="#85888F" points="378.117,212.082 378.12,212.927 378.948,212.449 378.945,211.604 						"/>
					</g>
				</g>
				<g>
					<g>
						<polygon fill="#ABB2C2" points="378.117,212.082 378.12,212.927 379.59,212.079 379.588,211.233 						"/>
					</g>
				</g>
				<g>
					<g>
						<polygon fill="#C8D1E3" points="369.029,206.792 369.032,207.638 378.12,212.927 378.117,212.082 						"/>
					</g>
				</g>
				<polygon fill="#F2F2F2" points="369.857,206.314 370.5,205.943 371.688,206.634 371.046,207.005 377.758,210.914 378.4,210.542 
					379.588,211.233 378.117,212.082 369.029,206.792 				"/>
			</g>
		</g>
	</g>
	<g>
		<g>
			<g>
				<polygon fill="#C8D1E3" points="403.624,249.732 422.437,238.8 422.605,165.655 403.793,176.588 				"/>
			</g>
		</g>
		<g>
			<g>
				<polygon fill="#333137" points="405.719,216.264 403.688,217.408 403.7,216.199 405.706,215.057 				"/>
			</g>
		</g>
		<g>
			<g>
				<polygon fill="#787C87" points="405.256,175.738 405.873,175.379 405.873,248.426 405.256,248.784 				"/>
			</g>
		</g>
		<g>
			<g>
				<polygon fill="#F3F5F9" points="403.793,176.588 422.605,165.655 397.156,150.961 378.343,161.895 				"/>
			</g>
		</g>
		<g>
			<polygon fill="#E1E5EE" points="378.243,202.705 378.277,202.725 378.583,202.549 379.322,202.122 378.583,201.696 
				378.252,201.504 378.342,161.895 403.791,176.59 403.7,216.199 403.692,217.4 403.627,249.729 378.178,235.043 			"/>
		</g>
		<g>
			<g>
				<polygon fill="#CFD1D6" points="405.221,175.776 405.847,175.394 380.397,160.7 379.771,161.083 				"/>
			</g>
		</g>
		<g>
			<g enable-background="new    ">
				<g>
					<g>
						<polygon fill="#413F46" points="382.042,198.665 380.883,197.991 379.9,198.558 381.06,199.232 						"/>
					</g>
				</g>
				<g>
					<g>
						<polygon fill="#5E5B65" points="380.035,199.823 378.876,199.149 378.878,199.922 380.037,200.596 						"/>
					</g>
				</g>
				<g>
					<g>
						<polygon fill="#413F46" points="381.984,168.022 380.824,167.349 379.842,167.916 381.002,168.59 						"/>
					</g>
				</g>
				<g>
					<g>
						<polygon fill="#5E5B65" points="379.979,169.948 378.819,169.274 378.876,199.149 380.035,199.823 						"/>
					</g>
				</g>
				<g>
					<g>
						<polygon fill="#5E5B65" points="379.978,169.181 378.817,168.507 378.819,169.274 379.979,169.948 						"/>
					</g>
				</g>
				<g>
					<g>
						<polygon fill="#413F46" points="381.002,168.59 379.842,167.916 378.817,168.507 379.978,169.181 						"/>
					</g>
				</g>
				<g>
					<g>
						<polygon fill="#333137" points="379.978,169.181 379.979,169.948 380.035,199.823 380.037,200.596 381.063,200.004 
							382.044,199.437 382.042,198.665 381.06,199.232 381.004,169.356 381.986,168.789 381.984,168.022 381.002,168.59 						"/>
					</g>
				</g>
			</g>
		</g>
		<g>
			<polygon fill="#4E4C54" points="379.322,202.122 404.768,216.804 403.692,217.4 378.277,202.725 			"/>
		</g>
		<g>
			<g>
				<g>
					<polygon fill="#C8D1E3" points="391.18,180.788 401.604,186.806 401.604,177.943 391.18,171.925 					"/>
				</g>
				<g>
					<g>
						<polygon fill="#B0E33B" points="391.556,178.31 401.167,183.858 401.167,178.285 391.556,172.737 						"/>
					</g>
					<g>
						<g>
							<polygon fill="#F3F5F9" points="393.695,181.527 391.556,180.292 391.556,178.808 393.695,180.042 							"/>
						</g>
						<g>
							<polygon fill="#F3F5F9" points="393.973,180.203 396.204,181.491 396.204,182.976 393.973,181.688 							"/>
						</g>
						<g>
							<polygon fill="#F3F5F9" points="398.686,184.409 396.482,183.136 396.482,181.652 398.686,182.924 							"/>
						</g>
						<g>
							<polygon fill="#F3F5F9" points="398.964,183.084 401.167,184.356 401.167,185.841 398.964,184.569 							"/>
						</g>
					</g>
				</g>
			</g>
			<g>
				<g>
					<g>
						<g>
							<path fill="#FFFFFF" d="M398.552,179.728c0-0.619,0.436-0.871,0.972-0.562s0.972,1.065,0.972,1.684
								c0,0.619-0.436,0.871-0.972,0.562S398.552,180.346,398.552,179.728z M398.803,179.873c0,0.458,0.323,1.018,0.721,1.247
								c0.397,0.229,0.72,0.043,0.72-0.416c0-0.458-0.322-1.018-0.72-1.247C399.126,179.228,398.803,179.414,398.803,179.873z"/>
						</g>
					</g>
					<g>
						<g>
							<path fill="#FFFFFF" d="M399.361,180.519c0,0.104,0.072,0.229,0.162,0.281l0,0c0.09,0.052,0.162,0.01,0.162-0.094v-0.647
								c0-0.104-0.072-0.229-0.162-0.281l0,0c-0.09-0.052-0.162-0.01-0.162,0.094V180.519z"/>
						</g>
					</g>
				</g>
				<g>
					<path fill="#FFFFFF" d="M392.103,175.916l0.239,0.267c0.003,0.084,0.016,0.171,0.037,0.26l-0.186,0.109
						c-0.015,0.002-0.018,0.024-0.008,0.048l0.123,0.291c0.01,0.024,0.029,0.042,0.043,0.04l0.248,0.04
						c0.052,0.084,0.109,0.164,0.173,0.238l0.001,0.305c-0.003,0.017,0.009,0.043,0.027,0.058l0.221,0.184
						c0.019,0.015,0.036,0.014,0.04-0.002l0.112-0.211c0.07,0.037,0.14,0.063,0.206,0.076l0.188,0.323
						c0.009,0.021,0.029,0.037,0.046,0.034l0.19-0.031c0.016-0.002,0.021-0.022,0.013-0.043l-0.09-0.338
						c0.047-0.032,0.087-0.075,0.12-0.129l0.264,0.15c0.016,0.013,0.032,0.009,0.036-0.01l0.049-0.228
						c0.004-0.019-0.006-0.045-0.022-0.059l-0.238-0.267c-0.003-0.084-0.016-0.171-0.037-0.26l0.186-0.109
						c0.014-0.002,0.017-0.024,0.007-0.048l-0.122-0.291c-0.01-0.024-0.029-0.042-0.044-0.04l-0.248-0.039
						c-0.051-0.084-0.109-0.164-0.172-0.238l-0.002-0.305c0.004-0.017-0.008-0.043-0.026-0.058l-0.222-0.184
						c-0.019-0.016-0.036-0.015-0.04,0.002l-0.111,0.211c-0.071-0.038-0.141-0.063-0.207-0.077l-0.188-0.323
						c-0.009-0.021-0.029-0.037-0.045-0.034l-0.19,0.031c-0.017,0.002-0.021,0.021-0.013,0.043l0.09,0.338
						c-0.047,0.032-0.088,0.075-0.12,0.129l-0.264-0.15c-0.017-0.014-0.033-0.009-0.037,0.01l-0.049,0.228
						C392.076,175.876,392.086,175.903,392.103,175.916z M392.73,176.264c0.05-0.231,0.271-0.268,0.497-0.081
						c0.225,0.187,0.367,0.526,0.317,0.757c-0.049,0.231-0.271,0.267-0.496,0.081C392.823,176.834,392.681,176.495,392.73,176.264z"
						/>
				</g>
				<g>
					<path fill="#FFFFFF" d="M398.124,179.792l-0.559,0.323c-0.047,0.027-0.109,0.016-0.171-0.023
						c-0.062-0.032-0.124-0.093-0.171-0.174l-0.559-0.967c-0.088-0.152-0.088-0.317,0-0.368s0.23,0.032,0.319,0.184l0.142,0.247
						v-0.831c0-0.171,0.12-0.241,0.269-0.155c0.148,0.085,0.27,0.293,0.27,0.465v0.831l0.142-0.082
						c0.088-0.051,0.23,0.031,0.318,0.184C398.213,179.577,398.213,179.742,398.124,179.792z"/>
				</g>
				<g>
					<path fill="#FFFFFF" d="M394.567,177.128l0.535-0.309c0.045-0.026,0.105-0.015,0.164,0.022c0.059,0.03,0.118,0.089,0.163,0.167
						l0.536,0.927c0.084,0.146,0.084,0.304,0,0.353c-0.085,0.049-0.221-0.03-0.306-0.176l-0.137-0.236v0.796
						c0,0.164-0.115,0.23-0.257,0.148c-0.143-0.082-0.258-0.282-0.258-0.446v-0.796l-0.137,0.079
						c-0.084,0.048-0.221-0.03-0.305-0.176S394.483,177.177,394.567,177.128z"/>
				</g>
			</g>
		</g>
	</g>
</g>
</svg>
