<?xml version="1.0" encoding="utf-8"?>
<!-- Generator: Adobe Illustrator 16.0.0, SVG Export Plug-In . SVG Version: 6.00 Build 0)  -->
<!DOCTYPE svg PUBLIC "-//W3C//DTD SVG 1.1//EN" "http://www.w3.org/Graphics/SVG/1.1/DTD/svg11.dtd">
<svg version="1.1" id="Layer_1" xmlns="http://www.w3.org/2000/svg" xmlns:xlink="http://www.w3.org/1999/xlink" x="0px" y="0px"
	 width="450px" height="450px" viewBox="0 0 450 450" enable-background="new 0 0 450 450" xml:space="preserve">
<g>
	<polygon opacity="0.2" fill="#505B67" points="252.992,230.428 269.634,220.757 308.19,243.04 291.549,252.711 	"/>
	<g>
		<g>
			<g>
				<g enable-background="new    ">
					<g enable-background="new    ">
						<g enable-background="new    ">
							<path fill="#AFB7C7" d="M254.474,210.573l0.037,18.605c0,0.094,0.044,0.189,0.133,0.273l-0.037-18.878H254.474z"/>
							<path fill="#E6EAF2" d="M254.606,210.573l0.037,18.878c0.036,0.033,0.08,0.066,0.132,0.096
								c0.143,0.084,0.321,0.133,0.507,0.148l-0.037-19.123H254.606z"/>
							<path fill="#AFB7C7" d="M255.245,210.573l0.037,19.123c0.275,0.025,0.566-0.025,0.779-0.148
								c0.178-0.102,0.266-0.236,0.265-0.371l-0.036-18.603H255.245z"/>
						</g>
					</g>
				</g>
			</g>
			<g>
				<g enable-background="new    ">
					<g enable-background="new    ">
						<g enable-background="new    ">
							<path fill="#AFB7C7" d="M290.45,230.473l0.027,19.732c-0.088-0.084-0.133-0.178-0.133-0.273l-0.026-19.459H290.45z"/>
							<path fill="#E6EAF2" d="M291.089,230.473l0.028,19.977c-0.187-0.016-0.365-0.064-0.508-0.146
								c-0.051-0.031-0.095-0.063-0.132-0.098l-0.027-19.732H291.089z"/>
							<path fill="#AFB7C7" d="M292.134,230.473l0.027,19.457c0,0.135-0.088,0.27-0.265,0.373c-0.214,0.123-0.505,0.172-0.779,0.146
								l-0.028-19.977H292.134z"/>
						</g>
					</g>
				</g>
			</g>
			<g>
				<g enable-background="new    ">
					<g enable-background="new    ">
						<g enable-background="new    ">
							<path fill="#AFB7C7" d="M304.617,222.093l0.027,19.915c-0.089-0.084-0.133-0.178-0.134-0.273l-0.026-19.641H304.617z"/>
							<path fill="#E6EAF2" d="M305.256,222.093l0.027,20.159c-0.187-0.016-0.365-0.064-0.507-0.148
								c-0.052-0.029-0.096-0.063-0.132-0.096l-0.027-19.915H305.256z"/>
							<path fill="#AFB7C7" d="M306.3,222.093l0.027,19.639c0,0.135-0.088,0.27-0.265,0.371c-0.213,0.123-0.504,0.172-0.779,0.148
								l-0.027-20.159H306.3z"/>
						</g>
					</g>
				</g>
			</g>
			<g>
				<g>
					<polygon fill="#AFB7C7" points="308.413,221.849 308.413,223.4 291.771,233.072 291.771,215.789 					"/>
					<polygon fill="#CCD3E3" points="291.771,215.789 291.771,233.072 253.215,210.788 253.215,209.237 					"/>
				</g>
				<polygon fill="#DFE5F2" points="253.215,209.237 269.856,199.567 308.413,221.849 291.771,231.521 				"/>
				<path fill="#C3CBDD" d="M267.316,212.853c0.197-0.083,0.462-0.135,0.594,0.034c0.092,0.116,0.069,0.283,0.033,0.426
					c-0.189,0.746-0.643,1.429-0.675,2.198c1.639,0.443,1.816-1.815,2.148-3.036c0.082-0.301,0.131-0.649-0.047-0.906
					c-0.097-0.14-0.251-0.232-0.414-0.28c-0.312-0.092-0.646-0.032-0.958,0.06c-0.866,0.254-1.787,0.788-2.395,1.465
					c-0.16,0.178-0.38,0.526-0.346,0.781c0.049,0.364,0.397,0.132,0.618,0.023C266.363,213.375,266.814,213.064,267.316,212.853z"/>
				<g>
					<polygon fill="#C3CBDD" points="307.82,221.824 292.688,213.109 283.413,217.567 283.405,218.443 298.536,227.158 					"/>
				</g>
				<path fill="#C3CBDD" d="M271.31,214.337c0.12,0.238,0.241,0.479,0.417,0.68c0.32,0.364,0.817,0.564,1.3,0.525
					c0.216-0.018,0.433-0.083,0.601-0.22s0.279-0.351,0.261-0.566c-0.019-0.216-0.158-0.399-0.292-0.569
					c-0.268-0.341-0.536-0.681-0.804-1.021c-0.396-0.504-1.086-1.053-1.759-0.68C270.297,212.892,271.061,213.84,271.31,214.337z"/>
				<g>
					<path fill="#C3CBDD" d="M258.318,207.311c-0.629,0.363-1.019,0.867-1.021,1.42c-0.01,1.11,1.538,2.009,3.458,2.009
						c0.956,0,1.823-0.225,2.453-0.588c0.629-0.363,1.02-0.865,1.022-1.419c0.007-1.111-1.541-2.011-3.457-2.009
						C259.815,206.723,258.948,206.948,258.318,207.311z"/>
				</g>
				<g>
					<path fill="#C3CBDD" d="M276.782,210.131c-0.63,0.363-1.019,0.866-1.021,1.42c-0.01,1.109,1.538,2.01,3.458,2.01
						c0.956,0,1.823-0.226,2.453-0.589c0.629-0.362,1.02-0.865,1.022-1.419c0.007-1.111-1.541-2.011-3.457-2.01
						C278.279,209.543,277.412,209.768,276.782,210.131z"/>
				</g>
				<g>
					<path fill="#C3CBDD" d="M265.933,204.449c-0.342,0.197-0.554,0.471-0.555,0.772c-0.006,0.603,0.836,1.092,1.88,1.092
						c0.52,0,0.991-0.122,1.333-0.32c0.342-0.197,0.555-0.47,0.557-0.771c0.004-0.604-0.838-1.093-1.88-1.092
						C266.747,204.129,266.275,204.251,265.933,204.449z"/>
				</g>
				<g>
					<path fill="#C3CBDD" d="M262.835,211.218c-0.281,0.188-0.456,0.45-0.457,0.737c-0.005,0.576,0.688,1.043,1.548,1.043
						c0.428,0,0.816-0.117,1.099-0.305c0.281-0.188,0.456-0.449,0.458-0.737c0.003-0.576-0.69-1.043-1.548-1.042
						C263.505,210.913,263.117,211.029,262.835,211.218z"/>
				</g>
				<g>
					<path fill="#C3CBDD" d="M263.972,209.699c-0.281,0.188-0.456,0.45-0.457,0.737c-0.005,0.576,0.688,1.043,1.548,1.043
						c0.428,0,0.816-0.117,1.099-0.305c0.281-0.188,0.456-0.449,0.458-0.737c0.003-0.577-0.69-1.043-1.548-1.043
						C264.642,209.394,264.254,209.511,263.972,209.699z"/>
				</g>
			</g>
		</g>
		<g>
			<g>
				<g enable-background="new    ">
					<g>
						<polygon fill="#835A2F" points="298.072,225.49 283.132,216.861 283.138,218.243 298.077,226.872 						"/>
					</g>
					<g>
						<polygon fill="#C18441" points="306.573,220.605 291.633,211.977 283.132,216.861 298.072,225.49 						"/>
					</g>
					<g>
						<polygon fill="#A1682B" points="298.072,225.49 298.077,226.872 306.578,221.987 306.573,220.605 						"/>
					</g>
				</g>
			</g>
		</g>
		<g>
			<path fill="#1C1C1C" d="M279.479,211.699c0,0.219-0.149,0.44-0.443,0.604c-0.577,0.322-1.492,0.313-2.044-0.02
				c-0.27-0.162-0.401-0.37-0.403-0.578l0.002,0.305c0,0.208,0.134,0.416,0.401,0.578c0.553,0.332,1.467,0.342,2.044,0.02
				c0.296-0.164,0.445-0.386,0.443-0.607V211.699z"/>
			<path fill="#343848" d="M280.817,209.394c-1.608,0.898-4.165,0.874-5.71-0.058c-0.743-0.446-1.115-1.021-1.123-1.595
				c0.004,0.217,0.015,0.729,0.187,1.393c0.083,0.324,0.176,0.563,0.207,0.643c0.102,0.254,0.147,0.343,0.283,0.604
				c0.161,0.31,0.456,0.71,0.631,0.896c0.13,0.137,0.25,0.268,0.372,0.368c0.057,0.049,0.13,0.114,0.188,0.157
				c0.114,0.083,0.271,0.189,0.39,0.266c0.244,0.146,0.521,0.279,0.825,0.369c0.236,0.069,0.514,0.134,0.925,0.14
				c0.429,0.01,0.774-0.082,0.924-0.119c0.041-0.013,0.196-0.054,0.411-0.143c0.115-0.049,0.265-0.123,0.373-0.181
				c0.116-0.064,0.525-0.303,0.915-0.705c0.104-0.108,0.231-0.24,0.418-0.49c0.193-0.264,0.321-0.501,0.347-0.545
				c0.092-0.169,0.169-0.316,0.277-0.59c0.122-0.307,0.19-0.562,0.208-0.631c0.035-0.134,0.099-0.382,0.136-0.666
				c0.02-0.14,0.037-0.33,0.048-0.472c0.008-0.095,0.008-0.223,0.013-0.318C282.056,208.327,281.638,208.937,280.817,209.394z"/>
			<g>
				<path fill="#1C1C1C" d="M275.107,209.336c-1.545-0.93-1.492-2.41,0.118-3.306c1.61-0.9,4.166-0.873,5.71,0.056
					c1.545,0.929,1.492,2.41-0.118,3.308C279.209,210.292,276.652,210.268,275.107,209.336z"/>
				<path fill="#D4A10E" d="M278.01,209.704c-1.03,0-2.021-0.242-2.724-0.663c-0.625-0.378-0.964-0.852-0.956-1.339
					c0.008-0.507,0.386-0.993,1.064-1.372c0.708-0.396,1.646-0.613,2.641-0.613c1.028,0,2.02,0.242,2.723,0.666
					c0.624,0.375,0.966,0.85,0.956,1.336c-0.008,0.506-0.387,0.993-1.063,1.371C279.94,209.487,279.003,209.704,278.01,209.704z"/>
			</g>
			<g id="_x31_0_1_">
				<path fill="#7AD935" d="M282.209,206.941l-5.096,1.375c0.01,0.008,0.019,0.017,0.028,0.025c0.046,0.043,0.094,0.086,0.142,0.126
					c0.006,0.005,0.012,0.011,0.019,0.016c0.004,0.004,0.009,0.008,0.014,0.011c0.023,0.02,0.048,0.039,0.072,0.058
					c0.298,0.233,0.624,0.415,0.961,0.534c0.285,0.101,0.559,0.146,0.845,0.138c0.292-0.009,0.361,0.063,0.63,0.262
					c0.093,0.068,0.647,0.09,0.488-0.162c0.119,0.188,0.344,0.279,0.519,0.209c0.176-0.069,0.288-0.292,0.261-0.518
					c0.168,0.095,0.373,0.065,0.498-0.072c0.127-0.137,0.166-0.373,0.098-0.575c0.479,0.093,0.415-0.492,0.241-0.805
					c0.176-0.123,0.285-0.36,0.281-0.61C282.209,206.95,282.209,206.946,282.209,206.941z"/>
				<path fill="#57B442" d="M279.369,205.836c0.011-0.297-0.457,0-0.503,0.106c-0.132,0.306-0.156,0.404-0.413,0.543
					c-0.251,0.137-0.465,0.313-0.66,0.544c-0.246,0.29-0.446,0.635-0.589,1.014c-0.033,0.09-0.063,0.18-0.091,0.273l5.096-1.375
					c-0.002-0.004-0.004-0.008-0.006-0.011c-0.123-0.219-0.337-0.368-0.552-0.386c-0.006-0.357-0.245-0.895-0.613-0.574
					c-0.042-0.21-0.195-0.394-0.373-0.448c-0.178-0.055-0.369,0.022-0.468,0.188c-0.089-0.208-0.298-0.345-0.484-0.316
					C279.525,205.422,279.377,205.613,279.369,205.836z"/>
				<path fill="#FED45C" d="M277.607,208.448l-0.306,0.036c0.004,0.004,0.009,0.008,0.014,0.011
					C277.413,208.48,277.51,208.464,277.607,208.448z"/>
				<path fill="#9BEA5E" d="M281.844,207.04l-4.73,1.277c0.01,0.008,0.019,0.017,0.028,0.025c0.046,0.043,0.094,0.086,0.142,0.126
					c0.35-0.138,0.742-0.134,1.123-0.055c0.4,0.083,0.792,0.248,1.182,0.412c-0.17-0.149-0.34-0.298-0.511-0.446
					c0.605,0.066,1.21,0.236,1.789,0.5c-0.218-0.258-0.435-0.517-0.652-0.775c0.378,0.067,0.755,0.135,1.132,0.203
					c-0.162-0.161-0.324-0.321-0.486-0.482c0.239-0.093,0.479-0.187,0.719-0.28c-0.116-0.034-0.231-0.067-0.348-0.101
					C281.471,207.395,281.688,207.25,281.844,207.04z"/>
				<path fill="#94DB56" d="M281.844,207.04l-4.73,1.277c0.004-0.012,0.007-0.024,0.012-0.036c0.018-0.061,0.037-0.121,0.06-0.18
					c0.371-0.057,0.709-0.258,0.997-0.518c0.305-0.274,0.561-0.613,0.814-0.951c-0.072,0.214-0.145,0.428-0.217,0.643
					c0.489-0.362,0.927-0.812,1.295-1.333c-0.059,0.333-0.116,0.666-0.175,0.999c0.293-0.249,0.585-0.497,0.876-0.745
					c-0.059,0.221-0.118,0.44-0.178,0.661c0.254-0.04,0.508-0.08,0.762-0.12c-0.083,0.087-0.165,0.175-0.249,0.262
					C281.343,206.921,281.604,206.937,281.844,207.04z"/>
			</g>
			<g id="_x31_0_10_">
				<path fill="#7AD935" d="M273.608,207.085l5.67,1.842c-0.003-0.014-0.007-0.028-0.011-0.042
					c-0.017-0.069-0.035-0.139-0.057-0.207c-0.001-0.009-0.004-0.017-0.007-0.026c-0.002-0.007-0.004-0.014-0.006-0.02
					c-0.011-0.033-0.021-0.066-0.032-0.099c-0.139-0.405-0.335-0.778-0.58-1.098c-0.209-0.271-0.438-0.483-0.715-0.651
					c-0.282-0.172-0.303-0.284-0.435-0.637c-0.046-0.122-0.558-0.484-0.563-0.148c0.004-0.252-0.152-0.475-0.361-0.518
					c-0.21-0.042-0.453,0.1-0.565,0.329c-0.102-0.193-0.313-0.291-0.517-0.239c-0.204,0.052-0.387,0.25-0.446,0.484
					c-0.397-0.383-0.697,0.21-0.726,0.613c-0.242,0.008-0.492,0.165-0.644,0.404C273.613,207.077,273.61,207.082,273.608,207.085z"
					/>
				<path fill="#57B442" d="M275.613,209.883c-0.193,0.274,0.434,0.282,0.542,0.21c0.313-0.208,0.396-0.286,0.726-0.26
					c0.322,0.025,0.633-0.01,0.961-0.107c0.412-0.122,0.814-0.325,1.183-0.597c0.087-0.064,0.171-0.132,0.254-0.202l-5.67-1.842
					c-0.001,0.005-0.001,0.01-0.002,0.015c-0.018,0.283,0.093,0.556,0.284,0.705c-0.215,0.343-0.319,0.999,0.227,0.921
					c-0.09,0.225-0.058,0.493,0.076,0.655c0.135,0.161,0.363,0.207,0.559,0.109c-0.044,0.252,0.07,0.51,0.265,0.599
					S275.469,210.089,275.613,209.883z"/>
				<path fill="#FED45C" d="M278.893,208.497l0.312,0.155c-0.002-0.007-0.004-0.014-0.006-0.02
					C279.096,208.587,278.994,208.542,278.893,208.497z"/>
				<path fill="#9BEA5E" d="M274.015,207.217l5.264,1.709c-0.003-0.014-0.007-0.028-0.011-0.042
					c-0.017-0.069-0.035-0.139-0.057-0.207c-0.415-0.085-0.785-0.331-1.097-0.64c-0.327-0.327-0.597-0.724-0.863-1.119
					c0.068,0.246,0.138,0.492,0.208,0.737c-0.532-0.436-1-0.969-1.385-1.577c0.046,0.378,0.093,0.758,0.139,1.136
					c-0.315-0.297-0.63-0.593-0.945-0.891c0.055,0.252,0.108,0.504,0.163,0.756c-0.284-0.06-0.568-0.119-0.853-0.178
					c0.089,0.103,0.177,0.206,0.267,0.309C274.587,207.111,274.291,207.115,274.015,207.217z"/>
				<path fill="#94DB56" d="M274.015,207.217l5.264,1.709c-0.011,0.009-0.021,0.018-0.032,0.027
					c-0.055,0.046-0.11,0.091-0.168,0.134c-0.387-0.175-0.83-0.194-1.263-0.126c-0.458,0.071-0.909,0.234-1.357,0.397
					c0.2-0.158,0.401-0.316,0.602-0.475c-0.687,0.041-1.378,0.197-2.047,0.463c0.26-0.279,0.521-0.559,0.78-0.838
					c-0.43,0.055-0.859,0.11-1.288,0.165c0.192-0.172,0.384-0.344,0.576-0.517c-0.266-0.119-0.53-0.237-0.795-0.356
					c0.133-0.031,0.265-0.063,0.397-0.093C274.415,207.639,274.178,207.463,274.015,207.217z"/>
			</g>
			<g id="_x31_0_11_">
				<path fill="#7AD935" d="M277.948,204.294l1.467,5.07c0.008-0.01,0.017-0.02,0.025-0.028c0.042-0.047,0.083-0.095,0.123-0.145
					c0.006-0.006,0.011-0.012,0.016-0.018c0.004-0.005,0.008-0.01,0.011-0.015c0.02-0.024,0.038-0.049,0.057-0.072
					c0.229-0.303,0.404-0.632,0.517-0.971c0.096-0.288,0.136-0.561,0.123-0.847c-0.014-0.292,0.058-0.364,0.251-0.635
					c0.065-0.094,0.077-0.649-0.171-0.485c0.187-0.123,0.272-0.348,0.199-0.522c-0.072-0.174-0.298-0.282-0.521-0.251
					c0.091-0.17,0.058-0.374-0.082-0.497c-0.139-0.124-0.375-0.159-0.576-0.087c0.084-0.48-0.5-0.406-0.81-0.227
					c-0.126-0.174-0.365-0.279-0.615-0.271C277.957,204.294,277.952,204.294,277.948,204.294z"/>
				<path fill="#57B442" d="M276.894,207.153c-0.297-0.005,0.009,0.458,0.115,0.501c0.309,0.127,0.407,0.149,0.551,0.403
					c0.142,0.249,0.322,0.459,0.557,0.651c0.294,0.241,0.643,0.435,1.024,0.57c0.09,0.032,0.182,0.061,0.274,0.086l-1.467-5.07
					c-0.004,0.002-0.008,0.004-0.012,0.006c-0.216,0.127-0.361,0.343-0.375,0.558c-0.358,0.013-0.892,0.262-0.563,0.623
					c-0.209,0.046-0.39,0.203-0.441,0.381c-0.052,0.179,0.029,0.369,0.196,0.464c-0.206,0.093-0.338,0.305-0.307,0.491
					C276.479,207.004,276.671,207.149,276.894,207.153z"/>
				<path fill="#FED45C" d="M279.538,208.868l0.041,0.306c0.004-0.005,0.008-0.01,0.011-0.015
					C279.573,209.062,279.556,208.965,279.538,208.868z"/>
				<path fill="#9BEA5E" d="M278.053,204.658l1.362,4.706c0.008-0.01,0.017-0.02,0.025-0.028c0.042-0.047,0.083-0.095,0.123-0.145
					c-0.144-0.347-0.147-0.74-0.075-1.121c0.076-0.403,0.233-0.797,0.391-1.189c-0.146,0.173-0.291,0.346-0.438,0.519
					c0.057-0.606,0.214-1.213,0.468-1.798c-0.254,0.222-0.509,0.444-0.763,0.667c0.061-0.378,0.121-0.757,0.183-1.135
					c-0.158,0.165-0.315,0.33-0.474,0.495c-0.098-0.238-0.195-0.476-0.292-0.713c-0.032,0.116-0.063,0.232-0.095,0.349
					C278.415,205.024,278.266,204.809,278.053,204.658z"/>
				<path fill="#94DB56" d="M278.053,204.658l1.362,4.706c-0.012-0.004-0.024-0.007-0.036-0.011
					c-0.061-0.017-0.121-0.035-0.182-0.056c-0.063-0.371-0.27-0.705-0.535-0.989c-0.279-0.299-0.623-0.549-0.965-0.797
					c0.215,0.068,0.431,0.137,0.646,0.205c-0.371-0.482-0.829-0.912-1.356-1.271c0.334,0.052,0.668,0.104,1.002,0.156
					c-0.254-0.288-0.507-0.575-0.761-0.862c0.221,0.055,0.443,0.11,0.664,0.166c-0.044-0.253-0.089-0.506-0.134-0.759
					c0.089,0.081,0.178,0.163,0.267,0.244C277.943,205.161,277.954,204.9,278.053,204.658z"/>
			</g>
			<g>
				<g>
					<circle fill="#E72318" cx="277.625" cy="207.108" r="0.923"/>
					
						<ellipse transform="matrix(-0.3814 -0.9244 0.9244 -0.3814 191.7792 542.6824)" fill="#F76F3E" cx="277.466" cy="207.174" rx="0.923" ry="0.752"/>
					
						<ellipse transform="matrix(-0.3814 -0.9244 0.9244 -0.3814 191.7153 542.718)" fill="#E72318" cx="277.457" cy="207.209" rx="0.776" ry="0.618"/>
					<g>
						<path fill="#F76F3E" d="M277.89,207.524c-0.046-0.01-0.12,0.042-0.12,0.042s0.046,0.079,0.091,0.089
							c0.045,0.01,0.088-0.012,0.097-0.048C277.965,207.572,277.935,207.535,277.89,207.524z"/>
						<path fill="#F76F3E" d="M277.98,207.341c-0.044-0.011-0.121,0.039-0.121,0.039s0.044,0.081,0.088,0.092
							c0.046,0.011,0.089-0.009,0.099-0.045C278.055,207.391,278.025,207.353,277.98,207.341z"/>
						<path fill="#F76F3E" d="M277.927,207.124c-0.041,0.021-0.067,0.108-0.067,0.108s0.085,0.033,0.127,0.013
							c0.041-0.02,0.062-0.064,0.046-0.097C278.016,207.115,277.969,207.104,277.927,207.124z"/>
						<path fill="#F76F3E" d="M277.858,206.898c-0.041,0.022-0.063,0.111-0.063,0.111s0.087,0.029,0.127,0.007
							c0.04-0.022,0.059-0.067,0.041-0.1C277.946,206.885,277.898,206.876,277.858,206.898z"/>
						<path fill="#F76F3E" d="M277.746,206.746c-0.033,0.032-0.031,0.124-0.031,0.124s0.091,0.006,0.124-0.026
							c0.033-0.032,0.04-0.08,0.014-0.107C277.827,206.71,277.779,206.714,277.746,206.746z"/>
						<path fill="#F76F3E" d="M277.516,206.605c-0.021,0.041,0.008,0.127,0.008,0.127s0.088-0.022,0.11-0.063
							s0.014-0.088-0.019-0.105C277.583,206.546,277.538,206.564,277.516,206.605z"/>
					</g>
					<g>
						<path fill="#F76F3E" d="M277.009,206.89c0.045,0.008,0.117-0.048,0.117-0.048s-0.049-0.077-0.095-0.084
							c-0.045-0.008-0.087,0.015-0.094,0.052C276.932,206.847,276.963,206.882,277.009,206.89z"/>
						<path fill="#F76F3E" d="M276.925,207.077c0.045,0.009,0.119-0.044,0.119-0.044s-0.047-0.079-0.092-0.087
							c-0.045-0.01-0.088,0.012-0.096,0.049C276.85,207.031,276.88,207.068,276.925,207.077z"/>
						<path fill="#F76F3E" d="M276.987,207.292c0.041-0.022,0.063-0.11,0.063-0.11s-0.087-0.03-0.128-0.008
							c-0.04,0.022-0.059,0.066-0.041,0.099S276.947,207.314,276.987,207.292z"/>
						<path fill="#F76F3E" d="M277.066,207.515c0.039-0.024,0.057-0.114,0.057-0.114s-0.087-0.025-0.126-0.001
							c-0.04,0.024-0.057,0.069-0.037,0.101C276.979,207.532,277.027,207.539,277.066,207.515z"/>
						<path fill="#F76F3E" d="M277.185,207.662c0.031-0.033,0.025-0.125,0.025-0.125s-0.091-0.002-0.123,0.031
							c-0.031,0.033-0.035,0.082-0.009,0.107S277.152,207.695,277.185,207.662z"/>
						<path fill="#F76F3E" d="M277.42,207.793c0.021-0.042-0.012-0.126-0.012-0.126s-0.088,0.025-0.108,0.066
							s-0.01,0.088,0.023,0.105S277.399,207.834,277.42,207.793z"/>
					</g>
					<path fill="#F76F3E" d="M277.132,206.421c-0.122,0.05-0.229,0.136-0.304,0.246c0.054-0.05,0.134-0.069,0.204-0.049
						c0.115,0.034,0.158,0.155,0.192,0.257c0.048,0.141,0.102,0.279,0.157,0.417c0.09,0.217,0.196,0.486,0.008,0.691
						c0.125,0.04,0.28,0.011,0.399-0.037c0.06-0.025,0.116-0.055,0.162-0.099c0.034-0.033,0.097-0.153,0.141-0.164
						c-0.104,0.025-0.224,0.048-0.309-0.016c-0.049-0.037-0.076-0.094-0.102-0.15c-0.126-0.279-0.33-0.568-0.203-0.884
						c0.018-0.043,0.04-0.084,0.075-0.115s0.085-0.046,0.129-0.033c-0.08-0.024-0.133-0.105-0.22-0.116
						c-0.086-0.012-0.197,0.008-0.278,0.034C277.166,206.408,277.149,206.415,277.132,206.421z"/>
				</g>
				<path fill="#A7A7A8" d="M277.691,207.558c0.152-0.448,0.131-0.94-0.053-1.373c0.357,0.005,0.694,0.219,0.84,0.571
					c0.194,0.471-0.029,1.011-0.501,1.205c-0.03,0.012-0.06,0.023-0.09,0.032c-0.022,0.013-0.045,0.024-0.069,0.034
					c-0.126,0.052-0.26,0.059-0.391,0.03C277.542,207.906,277.633,207.739,277.691,207.558z"/>
			</g>
			<g>
				<g>
					<circle fill="#E72318" cx="280.133" cy="208.541" r="0.785"/>
					
						<ellipse transform="matrix(-0.6116 0.7911 -0.7911 -0.6116 616.7146 114.5207)" fill="#F76F3E" cx="280.249" cy="208.631" rx="0.785" ry="0.639"/>
					
						<ellipse transform="matrix(-0.6116 0.7912 -0.7912 -0.6116 616.7527 114.4719)" fill="#E72318" cx="280.278" cy="208.623" rx="0.659" ry="0.525"/>
					<g>
						<path fill="#F76F3E" d="M280.328,208.17c0.012,0.038,0.082,0.07,0.082,0.07s0.039-0.067,0.027-0.104
							c-0.012-0.038-0.046-0.06-0.076-0.051S280.316,208.133,280.328,208.17z"/>
						<path fill="#F76F3E" d="M280.154,208.181c0.011,0.038,0.08,0.073,0.08,0.073s0.041-0.066,0.03-0.104s-0.044-0.061-0.074-0.052
							C280.16,208.105,280.145,208.143,280.154,208.181z"/>
						<path fill="#F76F3E" d="M280.018,208.312c0.032,0.022,0.107,0.004,0.107,0.004s-0.011-0.077-0.044-0.099
							c-0.032-0.022-0.073-0.019-0.091,0.007S279.984,208.29,280.018,208.312z"/>
						<path fill="#F76F3E" d="M279.88,208.458c0.033,0.021,0.108,0,0.108,0s-0.016-0.077-0.049-0.097
							c-0.033-0.021-0.074-0.015-0.09,0.012C279.833,208.399,279.847,208.438,279.88,208.458z"/>
						<path fill="#F76F3E" d="M279.814,208.605c0.038,0.011,0.104-0.029,0.104-0.029s-0.034-0.069-0.072-0.081
							c-0.037-0.011-0.075,0.005-0.084,0.035C279.754,208.561,279.777,208.594,279.814,208.605z"/>
						<path fill="#F76F3E" d="M279.809,208.835c0.039-0.001,0.09-0.059,0.09-0.059s-0.053-0.057-0.092-0.056
							c-0.039,0-0.07,0.026-0.07,0.058C279.737,208.811,279.77,208.836,279.809,208.835z"/>
					</g>
					<g>
						<path fill="#F76F3E" d="M280.233,209.088c-0.013-0.037-0.085-0.066-0.085-0.066s-0.036,0.068-0.022,0.105
							s0.049,0.059,0.078,0.048C280.234,209.163,280.247,209.125,280.233,209.088z"/>
						<path fill="#F76F3E" d="M280.406,209.07c-0.012-0.037-0.082-0.069-0.082-0.069s-0.039,0.068-0.026,0.105
							s0.047,0.059,0.077,0.05C280.404,209.146,280.419,209.108,280.406,209.07z"/>
						<path fill="#F76F3E" d="M280.538,208.934c-0.033-0.021-0.108,0-0.108,0s0.015,0.077,0.049,0.098
							c0.033,0.021,0.073,0.016,0.09-0.012S280.572,208.954,280.538,208.934z"/>
						<path fill="#F76F3E" d="M280.669,208.781c-0.034-0.02-0.107,0.006-0.107,0.006s0.018,0.075,0.053,0.095
							c0.033,0.019,0.074,0.012,0.089-0.016C280.719,208.838,280.703,208.8,280.669,208.781z"/>
						<path fill="#F76F3E" d="M280.729,208.631c-0.038-0.009-0.104,0.034-0.104,0.034s0.037,0.068,0.075,0.078
							s0.075-0.008,0.083-0.038C280.791,208.674,280.766,208.641,280.729,208.631z"/>
						<path fill="#F76F3E" d="M280.725,208.402c-0.039,0.003-0.088,0.063-0.088,0.063s0.056,0.054,0.095,0.051
							s0.069-0.03,0.067-0.061C280.797,208.424,280.764,208.4,280.725,208.402z"/>
					</g>
					<path fill="#F76F3E" d="M279.836,209.195c0.088,0.069,0.197,0.112,0.31,0.12c-0.06-0.018-0.107-0.069-0.122-0.13
						c-0.024-0.1,0.047-0.182,0.107-0.251c0.083-0.094,0.163-0.192,0.24-0.292c0.122-0.159,0.275-0.351,0.506-0.299
						c-0.023-0.108-0.111-0.211-0.196-0.278c-0.043-0.034-0.09-0.062-0.142-0.078c-0.038-0.012-0.153-0.006-0.18-0.034
						c0.062,0.065,0.129,0.144,0.118,0.235c-0.006,0.051-0.038,0.095-0.068,0.138c-0.151,0.211-0.278,0.483-0.565,0.523
						c-0.038,0.006-0.079,0.007-0.115-0.007c-0.037-0.013-0.07-0.042-0.079-0.081c0.017,0.069-0.021,0.143,0.007,0.211
						c0.028,0.068,0.091,0.142,0.144,0.191C279.812,209.175,279.823,209.186,279.836,209.195z"/>
				</g>
				<path fill="#A7A7A8" d="M280.437,208.302c-0.395,0.078-0.748,0.302-0.989,0.621c-0.147-0.267-0.133-0.605,0.065-0.861
					c0.265-0.343,0.758-0.406,1.101-0.141c0.021,0.017,0.042,0.034,0.061,0.053c0.02,0.011,0.037,0.023,0.055,0.037
					c0.092,0.07,0.154,0.167,0.188,0.275C280.756,208.265,280.595,208.27,280.437,208.302z"/>
			</g>
			<g>
				<g>
					<path fill="#F7423E" d="M277.536,207.758c-0.033-0.15,0.109-0.293,0.345-0.346c0.063-0.014,0.127-0.013,0.184-0.013
						c0.002,0,0.003,0,0.006,0c-0.011-0.004-0.022-0.009-0.033-0.014c-0.018-0.006-0.041-0.01-0.071-0.015
						c-0.058-0.01-0.135-0.022-0.203-0.062c-0.016-0.009-0.03-0.019-0.043-0.029c-0.157-0.13-0.161-0.279-0.009-0.41
						c0.209-0.18,0.677-0.295,1.021-0.25c0.102,0.013,0.172,0.048,0.217,0.074c0.02,0.012,0.039,0.024,0.058,0.037
						c0.028,0.018,0.06,0.037,0.074,0.042c0.018-0.021,0.042-0.049,0.082-0.079c0.172-0.125,0.446-0.201,0.718-0.196
						c0.051,0,0.1,0.004,0.147,0.01c0.281,0.036,0.545,0.161,0.707,0.334c0.116,0.124,0.161,0.249,0.132,0.361
						c-0.042,0.158-0.23,0.247-0.39,0.307c-0.029,0.011-0.061,0.02-0.094,0.029c-0.016,0.005-0.038,0.011-0.059,0.018
						c0.012,0.001,0.024,0.003,0.034,0.004c0.079,0.011,0.189,0.027,0.271,0.081c0.188,0.128,0.178,0.337-0.025,0.477
						c-0.238,0.165-0.668,0.212-0.979,0.108c-0.023-0.008-0.047-0.018-0.068-0.03c-0.07-0.041-0.112-0.096-0.153-0.149
						c-0.017-0.022-0.038-0.049-0.057-0.067c-0.017,0.012-0.038,0.036-0.055,0.056c-0.039,0.044-0.087,0.099-0.175,0.138
						c-0.157,0.07-0.356,0.107-0.549,0.103c-0.247-0.006-0.533-0.085-0.745-0.208C277.661,207.974,277.559,207.864,277.536,207.758z
						 M279.688,207.974c0.027,0.037,0.06,0.078,0.089,0.095c0.003,0.002,0.005,0.003,0.005,0.003l0,0
						c0.181,0.06,0.444,0.029,0.587-0.069c0.106-0.073,0.118-0.183,0.024-0.247c-0.018-0.01-0.062-0.016-0.104-0.022
						c-0.069-0.009-0.156-0.021-0.224-0.061l0,0c-0.018-0.009-0.031-0.021-0.044-0.032c-0.054-0.053-0.048-0.098-0.033-0.126
						c0.039-0.075,0.167-0.111,0.261-0.138c0.023-0.006,0.048-0.013,0.061-0.018c0.16-0.061,0.234-0.114,0.253-0.184
						c0.024-0.093-0.04-0.187-0.099-0.25c-0.119-0.126-0.307-0.22-0.5-0.243c-0.029-0.004-0.06-0.006-0.09-0.006
						c-0.173-0.003-0.356,0.047-0.467,0.128c-0.021,0.015-0.034,0.031-0.048,0.047c-0.035,0.043-0.109,0.132-0.34,0.098
						c-0.086-0.012-0.147-0.043-0.186-0.065c-0.02-0.011-0.038-0.023-0.057-0.035c-0.015-0.01-0.03-0.02-0.046-0.028
						c-0.027-0.016-0.049-0.024-0.065-0.026c-0.221-0.029-0.56,0.057-0.697,0.175c-0.081,0.07-0.079,0.138,0.006,0.208
						c0.013,0.01,0.026,0.013,0.076,0.021c0.046,0.008,0.104,0.017,0.163,0.041c0.034,0.014,0.075,0.031,0.111,0.052
						c0.145,0.083,0.114,0.172,0.037,0.228c-0.084,0.062-0.217,0.061-0.305,0.059c-0.022,0-0.056,0-0.063,0
						c-0.105,0.023-0.165,0.087-0.15,0.158c0.015,0.066,0.086,0.139,0.2,0.205c0.156,0.091,0.369,0.152,0.539,0.156
						c0.12,0.003,0.247-0.021,0.347-0.066c0.032-0.015,0.061-0.046,0.088-0.077c0.036-0.042,0.077-0.089,0.15-0.122
						c0.133-0.058,0.274-0.057,0.38,0.004C279.609,207.873,279.648,207.924,279.688,207.974z"/>
				</g>
				<g>
					<path fill="#E72318" d="M277.738,207.719c-0.029-0.133,0.097-0.259,0.305-0.306c0.055-0.012,0.111-0.011,0.162-0.01
						c0.002,0,0.003,0,0.005,0c-0.01-0.004-0.02-0.008-0.029-0.013c-0.015-0.005-0.036-0.009-0.063-0.013
						c-0.051-0.009-0.119-0.02-0.18-0.055c-0.015-0.008-0.026-0.017-0.038-0.026c-0.139-0.115-0.143-0.247-0.009-0.362
						c0.186-0.159,0.599-0.26,0.903-0.221c0.09,0.012,0.152,0.043,0.191,0.065c0.019,0.01,0.034,0.021,0.052,0.032
						c0.024,0.016,0.052,0.033,0.065,0.038c0.015-0.018,0.036-0.043,0.072-0.069c0.151-0.111,0.394-0.177,0.634-0.173
						c0.044,0,0.088,0.003,0.13,0.009c0.249,0.031,0.481,0.142,0.624,0.295c0.104,0.109,0.144,0.219,0.117,0.319
						c-0.037,0.14-0.204,0.218-0.346,0.271c-0.024,0.01-0.052,0.018-0.082,0.026c-0.014,0.003-0.033,0.009-0.051,0.015
						c0.011,0.001,0.021,0.003,0.03,0.004c0.069,0.01,0.166,0.023,0.238,0.071c0.166,0.113,0.157,0.298-0.021,0.421
						c-0.211,0.145-0.591,0.187-0.864,0.096c-0.021-0.007-0.042-0.016-0.062-0.027c-0.062-0.037-0.1-0.085-0.136-0.132
						c-0.014-0.019-0.032-0.043-0.049-0.06c-0.016,0.01-0.034,0.032-0.049,0.049c-0.034,0.039-0.077,0.087-0.154,0.122
						c-0.139,0.062-0.315,0.094-0.484,0.091c-0.219-0.005-0.471-0.076-0.659-0.184C277.849,207.909,277.759,207.813,277.738,207.719
						z M279.638,207.91c0.024,0.032,0.054,0.068,0.08,0.083c0.002,0.002,0.004,0.002,0.004,0.002l0,0
						c0.159,0.053,0.392,0.026,0.518-0.061c0.095-0.064,0.104-0.162,0.021-0.218c-0.015-0.008-0.054-0.014-0.092-0.019
						c-0.062-0.008-0.139-0.019-0.198-0.054l0,0c-0.015-0.008-0.027-0.018-0.038-0.028c-0.048-0.046-0.042-0.086-0.029-0.111
						c0.034-0.066,0.147-0.098,0.23-0.121c0.021-0.006,0.042-0.012,0.053-0.016c0.143-0.054,0.207-0.101,0.224-0.163
						c0.021-0.082-0.035-0.165-0.087-0.22c-0.104-0.112-0.271-0.194-0.442-0.215c-0.024-0.003-0.052-0.005-0.078-0.005
						c-0.153-0.002-0.315,0.042-0.412,0.113c-0.019,0.014-0.03,0.028-0.043,0.042c-0.031,0.038-0.097,0.116-0.301,0.086
						c-0.075-0.012-0.13-0.039-0.164-0.059c-0.017-0.01-0.032-0.02-0.049-0.031c-0.014-0.008-0.027-0.018-0.041-0.025
						c-0.024-0.014-0.042-0.021-0.058-0.023c-0.195-0.025-0.494,0.05-0.616,0.155c-0.071,0.062-0.069,0.122,0.005,0.184
						c0.012,0.009,0.023,0.011,0.068,0.019c0.04,0.007,0.092,0.015,0.144,0.036c0.031,0.012,0.066,0.027,0.099,0.046
						c0.128,0.073,0.101,0.152,0.033,0.202c-0.075,0.055-0.192,0.053-0.27,0.052c-0.02,0-0.05,0-0.056,0
						c-0.093,0.021-0.146,0.077-0.133,0.139c0.013,0.059,0.075,0.123,0.176,0.181c0.139,0.08,0.326,0.134,0.477,0.138
						c0.106,0.002,0.218-0.019,0.307-0.058c0.028-0.013,0.053-0.041,0.077-0.068c0.032-0.037,0.068-0.078,0.133-0.107
						c0.117-0.051,0.242-0.05,0.336,0.004C279.569,207.82,279.604,207.866,279.638,207.91z"/>
				</g>
			</g>
			<g>
				<path fill="#2EA341" d="M279.736,207.61c-0.049,0.023-0.093,0.052-0.132,0.087c-0.133,0.122-0.188,0.284-0.053,0.411
					c0.27,0.254,1.29,0.472,1.408,0.04c0.065-0.242,0.121-0.617-0.448-0.632C280.229,207.51,279.944,207.509,279.736,207.61z"/>
				<g>
					<path fill="#BAF982" d="M279.825,207.659c-0.041,0.02-0.078,0.044-0.111,0.075c-0.113,0.103-0.16,0.241-0.046,0.349
						c0.229,0.216,1.098,0.401,1.197,0.035c0.055-0.206,0.104-0.525-0.381-0.537C280.244,207.574,280.002,207.574,279.825,207.659z"
						/>
					<path fill="#94DB56" d="M280.386,207.855c0.079-0.037,0.179-0.063,0.265-0.024c0.031,0.015,0.052,0.035,0.063,0.057
						c0.049,0.083,0.043,0.184-0.07,0.247c-0.021,0.012-0.046,0.023-0.075,0.025c-0.023,0.001-0.049-0.005-0.067-0.013
						c-0.047-0.02-0.069-0.052-0.096-0.081c-0.028-0.033-0.063-0.064-0.104-0.093c-0.017-0.011-0.034-0.024-0.033-0.039
						c0.002-0.012,0.016-0.021,0.029-0.03C280.322,207.888,280.352,207.871,280.386,207.855z"/>
					<path fill="#94DB56" d="M280.468,207.705c0,0.001,0.001,0.001,0.001,0.001c0.036,0.041,0.012,0.075-0.041,0.104
						c-0.041,0.021-0.081,0.042-0.125,0.063c-0.015,0.007-0.03,0.014-0.049,0.014c-0.009,0-0.018-0.002-0.025-0.003
						c-0.099-0.02-0.276-0.042-0.24-0.123c0.022-0.05,0.09-0.096,0.179-0.112C280.259,207.631,280.419,207.654,280.468,207.705z"/>
					<path fill="#94DB56" d="M279.958,207.888c0.056-0.004,0.104,0.026,0.159,0.027c0.127,0.003,0.145,0.058,0.169,0.123
						c0.015,0.037,0.075,0.073,0.035,0.111c-0.029,0.029-0.095,0.039-0.148,0.035c-0.083-0.006-0.15-0.039-0.207-0.073
						c-0.09-0.054-0.141-0.119-0.08-0.189C279.9,207.905,279.927,207.891,279.958,207.888z"/>
				</g>
			</g>
			<g>
				<g>
					<path fill="#F7423E" d="M275.875,208.636c-0.091-0.029-0.123-0.148-0.078-0.29c0.012-0.037,0.031-0.071,0.05-0.101
						c0-0.001,0.001-0.002,0.001-0.003c-0.005,0.004-0.011,0.009-0.017,0.014c-0.009,0.007-0.019,0.018-0.03,0.033
						c-0.022,0.027-0.053,0.064-0.096,0.089c-0.01,0.005-0.019,0.01-0.028,0.014c-0.117,0.044-0.198,0-0.221-0.121
						c-0.032-0.167,0.051-0.45,0.181-0.62c0.038-0.05,0.079-0.077,0.105-0.093c0.013-0.007,0.025-0.013,0.037-0.02
						c0.019-0.009,0.038-0.021,0.046-0.026c-0.006-0.016-0.014-0.038-0.017-0.068c-0.015-0.129,0.03-0.298,0.115-0.442
						c0.016-0.026,0.033-0.051,0.051-0.075c0.105-0.139,0.253-0.24,0.395-0.273c0.102-0.023,0.182-0.009,0.232,0.041
						c0.07,0.071,0.061,0.199,0.044,0.302c-0.003,0.018-0.008,0.038-0.014,0.058c-0.003,0.01-0.006,0.024-0.009,0.037
						c0.005-0.006,0.01-0.012,0.013-0.017c0.03-0.039,0.072-0.092,0.126-0.118c0.126-0.062,0.234,0.008,0.246,0.159
						c0.014,0.177-0.093,0.42-0.242,0.553c-0.013,0.01-0.025,0.02-0.038,0.027c-0.043,0.025-0.086,0.03-0.127,0.036
						c-0.017,0.002-0.037,0.005-0.053,0.009c0.001,0.013,0.008,0.031,0.013,0.046c0.012,0.034,0.026,0.077,0.021,0.135
						c-0.012,0.104-0.053,0.222-0.114,0.323c-0.079,0.13-0.209,0.257-0.34,0.333C276.027,208.635,275.938,208.655,275.875,208.636z
						 M276.649,207.558c0.027-0.003,0.061-0.008,0.078-0.018c0.002-0.001,0.003-0.002,0.003-0.002l0,0
						c0.087-0.077,0.151-0.227,0.144-0.333c-0.007-0.079-0.062-0.119-0.124-0.088c-0.01,0.006-0.027,0.028-0.043,0.049
						c-0.027,0.034-0.06,0.077-0.102,0.101l0,0c-0.01,0.006-0.021,0.01-0.03,0.013c-0.045,0.013-0.066-0.004-0.077-0.021
						c-0.028-0.043-0.008-0.123,0.007-0.181c0.004-0.014,0.008-0.029,0.009-0.038c0.017-0.104,0.012-0.16-0.021-0.191
						c-0.042-0.042-0.111-0.036-0.163-0.024c-0.104,0.024-0.211,0.096-0.282,0.191c-0.011,0.014-0.021,0.029-0.031,0.046
						c-0.055,0.091-0.084,0.204-0.075,0.287c0.002,0.017,0.006,0.028,0.011,0.041c0.012,0.032,0.036,0.099-0.053,0.211
						c-0.032,0.042-0.068,0.065-0.092,0.079c-0.012,0.007-0.023,0.013-0.035,0.019c-0.01,0.005-0.021,0.01-0.03,0.016
						c-0.016,0.01-0.027,0.019-0.033,0.027c-0.083,0.109-0.142,0.315-0.121,0.425c0.013,0.064,0.049,0.084,0.112,0.061
						c0.009-0.003,0.015-0.01,0.035-0.034c0.018-0.022,0.04-0.05,0.071-0.074c0.019-0.014,0.039-0.03,0.062-0.043
						c0.089-0.051,0.127-0.008,0.133,0.05c0.007,0.064-0.034,0.134-0.062,0.18c-0.008,0.012-0.018,0.03-0.021,0.034
						c-0.02,0.063-0.004,0.114,0.038,0.128c0.04,0.013,0.1-0.003,0.17-0.043c0.098-0.056,0.194-0.149,0.249-0.239
						c0.038-0.063,0.064-0.138,0.071-0.205c0.002-0.021-0.006-0.046-0.014-0.07c-0.012-0.032-0.024-0.068-0.019-0.118
						c0.009-0.088,0.054-0.163,0.118-0.201C276.572,207.568,276.611,207.563,276.649,207.558z"/>
				</g>
				<g>
					<path fill="#E72318" d="M275.916,208.516c-0.079-0.026-0.107-0.131-0.069-0.256c0.011-0.033,0.028-0.063,0.044-0.089
						c0.001-0.001,0.001-0.002,0.002-0.002c-0.005,0.003-0.01,0.007-0.016,0.011c-0.007,0.006-0.016,0.017-0.026,0.03
						c-0.02,0.024-0.047,0.057-0.084,0.079c-0.009,0.004-0.017,0.009-0.025,0.012c-0.104,0.039-0.175,0-0.194-0.107
						c-0.028-0.147,0.045-0.397,0.159-0.547c0.033-0.044,0.069-0.068,0.094-0.082c0.011-0.006,0.021-0.012,0.032-0.017
						c0.016-0.008,0.033-0.018,0.04-0.023c-0.005-0.014-0.012-0.033-0.015-0.06c-0.013-0.114,0.026-0.264,0.103-0.39
						c0.014-0.023,0.028-0.045,0.044-0.066c0.094-0.123,0.224-0.212,0.349-0.242c0.09-0.021,0.161-0.008,0.205,0.037
						c0.063,0.062,0.054,0.175,0.039,0.266c-0.003,0.017-0.008,0.034-0.012,0.052c-0.002,0.008-0.005,0.021-0.008,0.032
						c0.004-0.005,0.008-0.011,0.012-0.015c0.026-0.034,0.063-0.082,0.111-0.104c0.11-0.054,0.206,0.007,0.217,0.141
						c0.012,0.156-0.082,0.371-0.215,0.489c-0.011,0.009-0.021,0.017-0.033,0.023c-0.038,0.022-0.075,0.027-0.111,0.032
						c-0.015,0.001-0.033,0.004-0.047,0.008c0.001,0.011,0.007,0.028,0.012,0.042c0.01,0.029,0.022,0.067,0.017,0.119
						c-0.01,0.092-0.046,0.197-0.101,0.285c-0.069,0.115-0.185,0.227-0.299,0.293C276.051,208.516,275.972,208.534,275.916,208.516z
						 M276.6,207.564c0.025-0.003,0.054-0.007,0.069-0.016c0.002-0.001,0.003-0.001,0.003-0.001l0,0
						c0.077-0.068,0.134-0.2,0.127-0.294c-0.006-0.07-0.055-0.105-0.109-0.079c-0.009,0.005-0.024,0.025-0.038,0.043
						c-0.023,0.03-0.054,0.068-0.09,0.089l0,0c-0.009,0.005-0.019,0.009-0.026,0.012c-0.04,0.011-0.059-0.004-0.068-0.019
						c-0.024-0.039-0.007-0.108,0.006-0.159c0.004-0.013,0.007-0.026,0.008-0.033c0.015-0.092,0.01-0.142-0.018-0.169
						c-0.037-0.037-0.1-0.032-0.145-0.021c-0.092,0.021-0.187,0.084-0.25,0.168c-0.01,0.013-0.019,0.026-0.027,0.041
						c-0.048,0.081-0.074,0.18-0.065,0.254c0.001,0.014,0.005,0.024,0.009,0.036c0.011,0.028,0.032,0.087-0.046,0.186
						c-0.029,0.037-0.061,0.057-0.081,0.069c-0.011,0.006-0.021,0.011-0.032,0.017c-0.009,0.004-0.017,0.009-0.026,0.014
						c-0.015,0.008-0.023,0.016-0.029,0.023c-0.073,0.096-0.125,0.278-0.106,0.375c0.011,0.057,0.043,0.074,0.099,0.054
						c0.008-0.003,0.014-0.009,0.031-0.03c0.016-0.02,0.036-0.044,0.063-0.065c0.017-0.013,0.035-0.027,0.056-0.039
						c0.077-0.045,0.111-0.006,0.116,0.044c0.007,0.057-0.03,0.119-0.055,0.159c-0.006,0.01-0.016,0.026-0.017,0.03
						c-0.018,0.056-0.005,0.101,0.033,0.113c0.034,0.011,0.088-0.002,0.15-0.038c0.085-0.049,0.171-0.132,0.219-0.21
						c0.034-0.057,0.058-0.122,0.063-0.181c0.002-0.019-0.005-0.041-0.013-0.062c-0.01-0.028-0.021-0.06-0.016-0.104
						c0.008-0.077,0.047-0.144,0.104-0.177C276.532,207.574,276.566,207.569,276.6,207.564z"/>
				</g>
			</g>
			<g>
				
					<ellipse transform="matrix(-0.3192 -0.9477 0.9477 -0.3192 167.3683 537.2438)" fill="#000400" cx="276.646" cy="208.508" rx="0.315" ry="0.397"/>
				<path fill="#232727" d="M276.845,208.441c-0.027-0.081-0.076-0.15-0.137-0.197c0.02-0.01,0.041-0.017,0.063-0.02
					c0.103-0.012,0.2,0.062,0.234,0.164c0.034,0.101,0.001,0.219-0.088,0.271c-0.02,0.012-0.041,0.019-0.063,0.023
					C276.875,208.607,276.872,208.522,276.845,208.441z"/>
				
					<ellipse transform="matrix(-0.3168 -0.9485 0.9485 -0.3168 166.085 536.827)" fill="#8C8C83" cx="276.373" cy="208.6" rx="0.12" ry="0.093"/>
			</g>
			<g>
				<path fill="#2EA341" d="M277.208,208.155c-0.006,0.08-0.002,0.159,0.016,0.235c0.058,0.264,0.226,0.456,0.492,0.377
					c0.53-0.159,1.574-1.318,1.104-1.792c-0.264-0.265-0.708-0.618-1.152,0.107C277.446,207.441,277.233,207.811,277.208,208.155z"
					/>
				<g>
					<path fill="#BAF982" d="M277.338,208.076c-0.005,0.068-0.002,0.134,0.013,0.2c0.05,0.224,0.193,0.387,0.418,0.319
						c0.451-0.135,1.338-1.119,0.938-1.521c-0.225-0.226-0.602-0.526-0.979,0.09C277.541,207.47,277.359,207.784,277.338,208.076z"
						/>
					<path fill="#94DB56" d="M278.011,207.498c0.012-0.13,0.052-0.278,0.166-0.36c0.041-0.03,0.084-0.041,0.122-0.041
						c0.143,0,0.268,0.083,0.267,0.276c0,0.036-0.005,0.077-0.025,0.115c-0.017,0.033-0.042,0.06-0.066,0.079
						c-0.061,0.045-0.119,0.051-0.177,0.063c-0.064,0.012-0.131,0.035-0.197,0.065c-0.027,0.012-0.058,0.026-0.075,0.013
						c-0.014-0.011-0.016-0.035-0.018-0.059C278.006,207.604,278.006,207.553,278.011,207.498z"/>
					<path fill="#94DB56" d="M277.877,207.279c0.001,0,0.003,0,0.004,0c0.078-0.016,0.105,0.042,0.102,0.131
						c-0.003,0.068-0.005,0.136-0.011,0.208c-0.003,0.024-0.006,0.05-0.02,0.074c-0.007,0.012-0.016,0.021-0.023,0.03
						c-0.1,0.113-0.262,0.326-0.338,0.218c-0.049-0.067-0.058-0.188-0.013-0.314C277.625,207.495,277.775,207.304,277.877,207.279z"
						/>
					<path fill="#94DB56" d="M277.733,208.075c0.035-0.075,0.11-0.114,0.154-0.185c0.1-0.162,0.184-0.143,0.285-0.127
						c0.058,0.01,0.149-0.042,0.17,0.039c0.016,0.059-0.02,0.151-0.065,0.217c-0.07,0.104-0.163,0.166-0.248,0.214
						c-0.138,0.077-0.26,0.093-0.306-0.039C277.713,208.163,277.713,208.118,277.733,208.075z"/>
				</g>
			</g>
			<g id="_x31_0_2_">
				<path fill="#7AD935" d="M276.99,209.346l2.934-0.218c-0.004-0.005-0.008-0.011-0.013-0.017
					c-0.021-0.029-0.042-0.057-0.064-0.084c-0.002-0.004-0.005-0.007-0.008-0.011c-0.002-0.002-0.004-0.005-0.006-0.008
					c-0.012-0.014-0.022-0.026-0.034-0.039c-0.138-0.159-0.298-0.293-0.47-0.394c-0.146-0.085-0.29-0.138-0.447-0.164
					c-0.161-0.026-0.192-0.073-0.318-0.209c-0.043-0.047-0.345-0.117-0.284,0.037c-0.045-0.116-0.158-0.188-0.262-0.169
					c-0.104,0.02-0.188,0.13-0.196,0.256c-0.083-0.069-0.198-0.074-0.281-0.013s-0.13,0.187-0.113,0.305
					c-0.253-0.101-0.279,0.226-0.217,0.415c-0.109,0.049-0.194,0.168-0.219,0.306C276.991,209.341,276.99,209.344,276.99,209.346z"
					/>
				<path fill="#57B442" d="M278.428,210.249c-0.036,0.162,0.251,0.048,0.287-0.005c0.104-0.153,0.128-0.204,0.283-0.254
					c0.152-0.049,0.287-0.123,0.419-0.229c0.165-0.133,0.312-0.301,0.429-0.493c0.027-0.046,0.054-0.092,0.078-0.141l-2.934,0.218
					c0.001,0.002,0.001,0.004,0.002,0.007c0.045,0.133,0.146,0.236,0.262,0.269c-0.034,0.197,0.04,0.517,0.274,0.379
					c0.002,0.119,0.066,0.236,0.157,0.284c0.092,0.05,0.205,0.027,0.276-0.054c0.026,0.123,0.127,0.22,0.232,0.225
					C278.299,210.459,278.4,210.37,278.428,210.249z"/>
				<path fill="#FED45C" d="M279.667,209.004l0.172,0.013c-0.002-0.002-0.004-0.005-0.006-0.008
					C279.777,209.008,279.723,209.006,279.667,209.004z"/>
				<path fill="#9BEA5E" d="M277.2,209.33l2.724-0.202c-0.004-0.005-0.008-0.011-0.013-0.017c-0.021-0.029-0.042-0.057-0.064-0.084
					c-0.205,0.039-0.42-0.004-0.62-0.088c-0.211-0.088-0.407-0.219-0.604-0.35c0.077,0.099,0.155,0.198,0.232,0.298
					c-0.324-0.101-0.638-0.256-0.927-0.462c0.092,0.165,0.184,0.329,0.275,0.493c-0.199-0.077-0.398-0.153-0.598-0.23
					c0.071,0.105,0.144,0.209,0.216,0.315c-0.142,0.025-0.282,0.052-0.423,0.077c0.06,0.03,0.119,0.062,0.179,0.092
					C277.442,209.175,277.308,209.231,277.2,209.33z"/>
				<path fill="#94DB56" d="M277.2,209.33l2.724-0.202c-0.003,0.006-0.006,0.013-0.01,0.019c-0.016,0.031-0.033,0.063-0.051,0.093
					c-0.21-0.008-0.416,0.066-0.601,0.178c-0.196,0.118-0.372,0.277-0.546,0.436c0.062-0.11,0.124-0.22,0.186-0.329
					c-0.306,0.146-0.593,0.347-0.849,0.594c0.067-0.177,0.134-0.353,0.201-0.528c-0.187,0.104-0.373,0.21-0.559,0.315
					c0.056-0.114,0.111-0.229,0.167-0.344c-0.144-0.005-0.286-0.009-0.43-0.014c0.055-0.039,0.109-0.078,0.164-0.117
					C277.462,209.448,277.321,209.411,277.2,209.33z"/>
			</g>
			<path fill="#F0F0F0" d="M278.017,208.191c-0.367,0.212-0.367,0.555,0,0.767s0.962,0.212,1.328,0c0.367-0.212,0.367-0.555,0-0.767
				C278.979,207.979,278.384,207.979,278.017,208.191z M278.104,208.242c0.304-0.175,0.788-0.18,1.081-0.011
				s0.285,0.449-0.019,0.624c-0.304,0.176-0.788,0.181-1.081,0.012C277.792,208.697,277.801,208.417,278.104,208.242z"/>
		</g>
		<g>
			<g>
				<path fill="#5D8300" d="M260.1,206.692c0.066-0.109,0.111-0.187,0.104-0.313c-0.007-0.138,0.03-0.275,0.209-0.32
					c0.101-0.026,0.129-0.004,0.158-0.102c0.016-0.053,0.074-0.104,0.14-0.12c0.19-0.046,0.383,0.064,0.563,0.097
					c0.102,0.019,0.196,0.052,0.295,0.077c0.135,0.035,0.238-0.034,0.367-0.039c0.185-0.007,0.342,0.083,0.43,0.209
					c0.04,0.058,0.053,0.145,0.034,0.208c-0.013,0.042-0.029,0.08-0.05,0.119c-0.029,0.056,0.025,0.048,0.082,0.062
					c0.167,0.037,0.242,0.104,0.313,0.232c0.071,0.129-0.022,0.243-0.123,0.34c-0.038,0.038-0.065,0.056-0.08,0.064
					c0.012-0.001,0.031,0,0.056,0.007c0.038,0.011,0.097,0.034,0.119,0.062c0.003,0.002,0.004,0.005,0.006,0.008
					c0.038,0.039,0.045,0.092-0.018,0.131c-0.152,0.095-0.211,0.157-0.42,0.165c-0.206,0.008-0.413-0.021-0.59-0.107
					c-0.075-0.036-0.153-0.087-0.212-0.14c-0.109-0.097-0.158-0.073-0.303-0.048c-0.206,0.037-0.483-0.031-0.668-0.102
					c-0.148-0.057-0.399-0.161-0.438-0.306C260.06,206.812,260.063,206.753,260.1,206.692z"/>
			</g>
			<g>
				<path fill="#5D8300" d="M262.41,208.278c0.075,0.105,0.13,0.18,0.264,0.247c0.146,0.074,0.266,0.176,0.213,0.32
					c-0.029,0.082-0.067,0.088,0.017,0.163c0.046,0.041,0.064,0.108,0.044,0.161c-0.059,0.153-0.279,0.218-0.414,0.32
					c-0.075,0.057-0.162,0.101-0.244,0.153c-0.111,0.069-0.098,0.177-0.165,0.266c-0.097,0.126-0.275,0.181-0.455,0.167
					c-0.082-0.006-0.178-0.046-0.233-0.095c-0.036-0.033-0.065-0.064-0.095-0.101c-0.041-0.051-0.063-0.01-0.108,0.02
					c-0.132,0.09-0.243,0.102-0.414,0.077c-0.172-0.025-0.237-0.152-0.282-0.274c-0.017-0.047-0.021-0.075-0.021-0.09
					c-0.005,0.009-0.017,0.021-0.038,0.034c-0.032,0.019-0.089,0.045-0.13,0.044c-0.005,0-0.008,0-0.013-0.001
					c-0.061,0.004-0.119-0.022-0.124-0.085c-0.013-0.155-0.043-0.23,0.064-0.373c0.107-0.142,0.253-0.263,0.44-0.332
					c0.079-0.029,0.176-0.052,0.262-0.062c0.161-0.018,0.164-0.063,0.218-0.174c0.078-0.158,0.304-0.304,0.479-0.387
					c0.142-0.067,0.388-0.175,0.56-0.117C262.311,208.184,262.368,208.219,262.41,208.278z"/>
			</g>
			<g>
				<path fill="#96BF26" d="M257.31,208.441c0.017-0.113,0.115-0.178,0.236-0.22c0.006-0.017,0.013-0.033,0.021-0.048
					c-0.06-0.046-0.101-0.102-0.101-0.173c0.002-0.18,0.272-0.181,0.434-0.182c0.007-0.006,0.013-0.013,0.019-0.019
					c-0.013-0.009-0.024-0.018-0.037-0.026c-0.048-0.032-0.082-0.066-0.106-0.112c-0.039-0.073-0.026-0.165,0.046-0.222
					c0.062-0.048,0.133-0.078,0.208-0.095c-0.01-0.079-0.01-0.157,0.041-0.218c0.012-0.015,0.027-0.028,0.043-0.038
					c-0.019-0.042-0.023-0.088-0.012-0.139c0.031-0.13,0.163-0.189,0.313-0.203c-0.039-0.044-0.063-0.097-0.049-0.171
					c0.021-0.116,0.142-0.156,0.279-0.169c0.006-0.013,0.019-0.024,0.035-0.032c-0.046-0.066-0.041-0.157,0.027-0.21
					c0.078-0.062,0.2-0.062,0.302-0.067c0.068-0.003,0.136-0.006,0.202,0.005c0.044,0.007,0.192,0.071,0.147-0.004
					c-0.09-0.154-0.066-0.258,0.164-0.292c0.113-0.017,0.233-0.003,0.327,0.053c0.005,0.003,0.009,0.007,0.015,0.011
					c0.016-0.026,0.042-0.05,0.089-0.07c0.111-0.048,0.271,0,0.384,0.026c0.121,0.028,0.295,0.076,0.361,0.17
					c0.031,0.043,0.048,0.088,0.037,0.139c0.008,0.008,0.016,0.017,0.023,0.027c0.089-0.036,0.178-0.056,0.263-0.009
					c0.156,0.086,0.142,0.222,0.12,0.354c0.023-0.012,0.048-0.023,0.073-0.033c0.042-0.018,0.098-0.032,0.146-0.031
					c0.113,0.002,0.191,0.04,0.247,0.119c0.052,0.073,0.052,0.183,0.024,0.27c0.166-0.074,0.412,0.086,0.344,0.225
					c0.051-0.031,0.107-0.055,0.162-0.067c0.084-0.02,0.184-0.007,0.272,0.026c0.039-0.031,0.089-0.056,0.147-0.074
					c0.075-0.022,0.143-0.027,0.202-0.017c0.014-0.02,0.032-0.038,0.056-0.053c0.157-0.099,0.324-0.046,0.485,0.025
					c0.142,0.063,0.303,0.186,0.273,0.329c-0.014,0.064-0.05,0.118-0.1,0.16c0.003,0.001,0.006,0.004,0.009,0.005
					c0.18-0.02,0.382,0.036,0.413,0.184c0.023,0.114-0.021,0.207-0.115,0.291c-0.076,0.069-0.166,0.063-0.253,0.036
					c-0.014,0.006-0.027,0.014-0.04,0.02c-0.009,0.01-0.018,0.02-0.027,0.03c0.068,0.017,0.12,0.057,0.139,0.135
					c0.028,0.116-0.045,0.192-0.154,0.24c0.048,0.035,0.091,0.075,0.128,0.117c0.095,0.107,0.089,0.213,0.015,0.267
					c-0.003,0.003-0.005,0.007-0.009,0.011c-0.036,0.04-0.08,0.062-0.128,0.071c0.001,0.016-0.003,0.032-0.015,0.048
					c-0.125,0.174-0.416,0.309-0.653,0.183c-0.09-0.048-0.099-0.143-0.102-0.221c0-0.002,0-0.004-0.001-0.007
					c-0.07-0.05-0.148-0.087-0.253-0.068c-0.015,0.003-0.029,0.007-0.044,0.012c-0.012,0.021-0.019,0.044-0.019,0.072
					c0.002,0.07-0.086,0.101-0.157,0.08c0.034,0.073,0.058,0.149,0.044,0.225c-0.001,0.006-0.002,0.011-0.004,0.018
					c0.009,0.01,0.017,0.02,0.025,0.03c0.038,0.051,0.03,0.109-0.013,0.15c-0.007,0.049-0.019,0.098-0.042,0.142
					c-0.021,0.113-0.164,0.209-0.279,0.252c-0.159,0.061-0.351,0.021-0.485-0.067c-0.114,0.042-0.257,0.023-0.37-0.031
					c-0.012,0.02-0.025,0.037-0.042,0.054c0.006,0.013,0.012,0.025,0.016,0.039c0.034,0.1-0.008,0.269-0.141,0.314
					c-0.16,0.054-0.316,0.032-0.47-0.023c-0.125,0.074-0.348,0.026-0.477-0.001c-0.01-0.002-0.021-0.005-0.032-0.008
					c-0.078,0.071-0.198,0.119-0.298,0.151c-0.135,0.044-0.339,0.033-0.435-0.063c-0.034-0.034-0.042-0.07-0.034-0.104
					c-0.049-0.017-0.093-0.039-0.128-0.067c-0.149,0.032-0.332-0.023-0.421-0.136c-0.126-0.158-0.164-0.332-0.124-0.5
					c-0.063-0.014-0.123-0.035-0.181-0.062c-0.11,0.01-0.229,0.002-0.318-0.038c-0.122,0.021-0.262-0.011-0.354-0.088
					c-0.116-0.098-0.131-0.224-0.072-0.327c-0.005-0.017-0.009-0.034-0.014-0.05c-0.049-0.008-0.098-0.017-0.136-0.034
					C257.328,208.621,257.298,208.525,257.31,208.441z"/>
			</g>
			<g>
				<path fill="#7AA800" d="M258.339,208.05c0.049-0.077,0.126-0.145,0.217-0.19c-0.017-0.037-0.02-0.08-0.004-0.129
					c0.04-0.12,0.181-0.178,0.334-0.204c-0.058-0.06-0.078-0.133-0.009-0.221c0.094-0.118,0.191-0.153,0.302-0.16
					c-0.011-0.041-0.003-0.085,0.032-0.135c0.104-0.148,0.256-0.187,0.415-0.163c0.003-0.063,0.04-0.123,0.129-0.164
					c0.145-0.066,0.309-0.003,0.435,0.084c0.049-0.134,0.183-0.25,0.357-0.158c0.105,0.056,0.158,0.137,0.174,0.227
					c0.021-0.002,0.043-0.003,0.066-0.001c0.227,0.014,0.241,0.211,0.234,0.351c0.07,0.008,0.135,0.032,0.183,0.075
					c0.088,0.081,0.091,0.174,0.022,0.265c-0.04,0.053-0.104,0.082-0.172,0.106c0.029,0.014,0.055,0.033,0.076,0.057
					c0.07,0.081-0.021,0.193-0.081,0.254c-0.018,0.017-0.037,0.031-0.06,0.042c0.015,0.03,0.01,0.07-0.024,0.122
					c-0.063,0.095-0.182,0.156-0.304,0.166c-0.006,0.018-0.012,0.035-0.018,0.052c-0.018,0.054-0.107,0.058-0.159,0.028
					c-0.023-0.013-0.049-0.026-0.073-0.039c-0.282,0.146-0.554,0.322-0.669,0.551c0.076,0.048,0.166,0.081,0.194,0.166
					c0.035,0.107-0.086,0.192-0.179,0.248c-0.216,0.129-0.47,0.026-0.466-0.167c-0.034,0.003-0.065,0.004-0.086,0.004
					c-0.184-0.004-0.323-0.144-0.353-0.29c-0.173,0.015-0.331-0.071-0.347-0.242c-0.003-0.032,0.001-0.086,0.013-0.14
					C258.307,208.413,258.21,208.255,258.339,208.05z"/>
			</g>
			<g>
				<path fill="#5D8300" d="M259.524,208.953c0.012,0.043,0.026,0.084,0.042,0.122c0.07,0.173,0.251,0.298,0.482,0.275
					c0.077-0.007,0.136-0.029,0.181-0.062c0.045,0.066,0.119,0.112,0.241,0.114c0.111,0.001,0.194-0.035,0.251-0.09
					c0.02,0.018,0.042,0.034,0.067,0.046c0.126,0.063,0.275,0.05,0.367-0.046c0.027-0.029,0.056-0.066,0.079-0.106
					c0.109,0.012,0.23-0.02,0.303-0.075c0.055-0.042,0.091-0.104,0.106-0.17c0.133,0.019,0.27-0.009,0.357-0.102
					c0.07-0.074,0.084-0.176,0.059-0.276c0.074-0.013,0.141-0.048,0.182-0.113c0.037-0.057,0.067-0.159,0.064-0.253
					c0.117-0.037,0.222-0.116,0.235-0.204c0.018-0.118-0.056-0.212-0.159-0.263c0.056-0.097,0.049-0.212-0.07-0.29
					c-0.072-0.047-0.18-0.047-0.289-0.021c-0.013-0.054-0.06-0.1-0.159-0.122c-0.1-0.023-0.229-0.007-0.341,0.036
					c-0.021-0.052-0.063-0.091-0.137-0.101c-0.158-0.02-0.292,0.038-0.36,0.134c-0.087-0.015-0.175-0.028-0.262-0.035
					c-0.051-0.042-0.128-0.058-0.222-0.017c-0.009,0.004-0.018,0.008-0.026,0.013c-0.009,0-0.017,0-0.025,0.001
					c-0.035,0.002-0.059,0.029-0.053,0.05c-0.105,0.087-0.174,0.212-0.248,0.302c-0.175,0.214-0.702,0.437-0.614,0.684
					c-0.018,0.025-0.032,0.052-0.044,0.079c-0.015,0.034-0.025,0.07-0.032,0.108C259.339,208.684,259.384,208.826,259.524,208.953z"
					/>
			</g>
			<g>
				<path fill="#5D8300" d="M261.359,207.455c-0.001,0.001-0.002,0.002-0.004,0.004c-0.054-0.013-0.11-0.026-0.168-0.039
					c0.008-0.005,0.017-0.01,0.026-0.014C261.312,207.393,261.36,207.41,261.359,207.455z"/>
			</g>
			<g>
				<path fill="#5D8300" d="M261.808,207.523c-0.076-0.008-0.145-0.01-0.214-0.017c0.044-0.018,0.091-0.03,0.12-0.035
					C261.793,207.46,261.815,207.487,261.808,207.523z"/>
			</g>
			<g>
				<path fill="#5D8300" d="M262.208,208.027c0.031-0.046,0.06-0.093,0.079-0.14c0.06,0.037,0.092,0.104,0.027,0.146
					c-0.007,0.004-0.032,0.017-0.061,0.028C262.241,208.048,262.226,208.037,262.208,208.027z"/>
			</g>
			<g>
				<path fill="#5D8300" d="M261.909,208.345c0.002-0.012,0.006-0.023,0.009-0.035c0.042,0.024,0.1,0.012,0.119-0.024
					c0.012-0.021,0.023-0.042,0.037-0.063c0.01,0.004,0.021,0.008,0.031,0.01c-0.001,0.047-0.018,0.107-0.023,0.118
					c-0.015,0.032-0.061,0.054-0.108,0.062C261.954,208.388,261.933,208.365,261.909,208.345z"/>
			</g>
			<g>
				<path fill="#5D8300" d="M261.64,208.787c-0.002-0.007-0.005-0.014-0.008-0.021c0.016,0.001,0.031,0.002,0.047,0.004
					c0.043,0.004,0.081-0.027,0.081-0.056c0-0.048,0-0.097,0-0.146c0.025,0.003,0.051,0.007,0.078,0.002
					c0.033,0.065,0.045,0.135,0.009,0.172C261.796,208.796,261.713,208.805,261.64,208.787z"/>
			</g>
			<g>
				<path fill="#5D8300" d="M261.295,209.03c0-0.004,0-0.007,0-0.011c0.001-0.006,0.002-0.013,0.003-0.02
					c0.036,0.001,0.069-0.001,0.101-0.006C261.373,209.017,261.334,209.029,261.295,209.03z"/>
			</g>
			<g>
				<path fill="#5D8300" d="M260.876,209.202c0.004-0.002,0.008-0.004,0.012-0.007c0.045-0.033,0.046-0.062,0.06-0.095
					c0.033,0.005,0.066,0.011,0.1,0.017c0.002,0.002,0.004,0.004,0.006,0.006c-0.013,0.034-0.026,0.065-0.044,0.083
					C260.957,209.261,260.911,209.244,260.876,209.202z"/>
			</g>
			<g>
				<path fill="#5D8300" d="M259.805,209.13c0.067,0.031,0.139,0.059,0.209,0.08c-0.006,0-0.011,0.001-0.017,0
					C259.917,209.208,259.851,209.179,259.805,209.13z"/>
			</g>
			<g>
				<path fill="#88B312" d="M259.124,208.384c0.011,0.072,0.077,0.136,0.151,0.169c0.013,0.176,0.323,0.289,0.54,0.259
					c0.059,0.089,0.181,0.16,0.314,0.173c0.104,0.011,0.248-0.005,0.344-0.056c0.092,0.102,0.253,0.146,0.43,0.09
					c0.098-0.031,0.194-0.119,0.219-0.207c0.118-0.034,0.231-0.131,0.223-0.219c-0.005-0.052-0.021-0.131-0.067-0.182
					c0.026-0.079,0.011-0.175-0.08-0.223c-0.097-0.052-0.468-0.058-0.445,0.081c-0.22,0.019-0.476,0.047-0.644-0.042
					c-0.123-0.065-0.009-0.195-0.021-0.288c-0.016-0.125-0.185-0.341-0.388-0.186c-0.088,0.068-0.132,0.143-0.148,0.226
					c-0.082,0.031-0.124,0.084-0.139,0.147C259.262,208.133,259.105,208.252,259.124,208.384z"/>
			</g>
			<g>
				<path fill="#88B312" d="M261.005,208.634c0.025-0.024,0.058-0.045,0.102-0.057c0.028-0.008,0.049-0.018,0.063-0.031
					c-0.006,0.046-0.046,0.114-0.08,0.136c-0.014-0.014-0.031-0.027-0.053-0.039C261.027,208.637,261.016,208.635,261.005,208.634z"
					/>
			</g>
			<g>
				<path fill="#88B312" d="M260.588,208.825c0.039,0.006,0.078,0.011,0.117,0.01c0.1-0.001,0.153-0.036,0.194-0.078
					c0.015,0.021,0.032,0.038,0.053,0.048c-0.035,0.038-0.141,0.083-0.145,0.083C260.722,208.902,260.627,208.889,260.588,208.825z"
					/>
			</g>
			<g>
				<path fill="#ABD141" d="M259.848,207.802c0.075-0.175,0.265-0.398,0.452-0.265c0.122-0.061,0.277-0.071,0.341,0.014
					c0.104-0.016,0.204,0.026,0.265,0.1c0.062-0.013,0.132,0.003,0.194,0.053c0.064,0.051,0.061,0.129,0.04,0.194
					c-0.014,0.039-0.059,0.068-0.102,0.097c0.046,0.008,0.085,0.045,0.064,0.083c-0.029,0.057-0.065,0.111-0.115,0.154
					c-0.003,0.005-0.005,0.011-0.009,0.016c-0.079,0.12-0.328,0.153-0.476,0.172c-0.159,0.021-0.353,0.024-0.477-0.063
					C259.685,208.338,259.766,207.991,259.848,207.802z"/>
			</g>
		</g>
		<g>
			<g>
				<path fill="#E0A500" d="M264.718,213.23c-0.035,0.025-0.016,0.073,0.017,0.088c0.039,0.019,0.081,0.023,0.122,0.03
					c-0.044,0.046-0.099,0.083-0.138,0.135c-0.027,0.038,0.01,0.083,0.051,0.079c0.064-0.007,0.126-0.024,0.187-0.043
					c-0.007,0.064-0.013,0.127-0.005,0.192c0.006,0.041,0.053,0.049,0.081,0.029c0.099-0.069,0.202-0.232,0.206-0.366
					c0.01-0.007,0.021-0.014,0.032-0.021c0.06-0.041-0.007-0.136-0.069-0.105c0.023-0.012-0.026-0.022-0.037-0.027
					c-0.026-0.011-0.052-0.021-0.079-0.029c-0.041-0.011-0.084-0.023-0.127-0.025C264.869,213.163,264.79,213.177,264.718,213.23z"
					/>
				<g>
					<path fill="#476400" d="M267.846,210.933c0.313-0.096,0.714-0.11,0.881,0.261c0.187,0.418-0.624,0.992-0.893,1.155
						c-0.449,0.272-0.903,0.536-1.352,0.809c-0.289,0.177-0.606,0.362-0.954,0.37c-0.294,0.007-0.516-0.251-0.499-0.535
						c0.017-0.31,0.332-0.558,0.557-0.727c0.292-0.219,0.605-0.415,0.907-0.62C266.916,211.359,267.354,211.084,267.846,210.933z"/>
					<path fill="#648900" d="M266.284,211.99c-0.193,0.277-0.569,0.363-0.688,0.698c0.245-0.07,0.398-0.236,0.607-0.381
						c-0.138,0.297-0.55,0.307-0.668,0.642c0.527-0.158,0.91-0.619,1.402-0.852c-0.384,0.46-0.896,0.75-1.297,1.172
						c0.301-0.05,0.549-0.307,0.832-0.396c-0.155,0.259-0.512,0.29-0.61,0.568c0.072-0.034,0.157-0.064,0.245-0.089
						c-0.219,0.119-0.452,0.215-0.7,0.221c-0.294,0.007-0.516-0.251-0.499-0.535c0.017-0.309,0.332-0.558,0.558-0.727
						c0.11-0.083,0.225-0.164,0.341-0.242c-0.099,0.132-0.196,0.264-0.263,0.412C265.809,212.355,266.037,212.154,266.284,211.99z"
						/>
					<path fill="#3B5107" d="M267.899,212.208c0.043-0.299,0.53-0.345,0.5-0.702c-0.38,0.273-0.688,0.698-1.178,0.838
						c0.232-0.389,0.687-0.604,0.956-1.011c-0.394,0.048-0.664,0.455-1.04,0.541c0.23-0.295,0.533-0.438,0.782-0.696
						c-0.208,0.052-0.435,0.16-0.623,0.25c0.075-0.128,0.158-0.258,0.249-0.386c0.092-0.038,0.187-0.073,0.282-0.102
						c0.313-0.096,0.714-0.11,0.88,0.261c0.091,0.202-0.051,0.439-0.251,0.649C268.274,211.963,268.075,212.179,267.899,212.208z"/>
					<circle opacity="0.4" fill="#293806" cx="268.121" cy="211.872" r="0.082"/>
					<circle opacity="0.4" fill="#293806" cx="267.713" cy="212.215" r="0.079"/>
					<circle opacity="0.4" fill="#293806" cx="267.228" cy="212.544" r="0.072"/>
					<circle opacity="0.4" fill="#293806" cx="266.699" cy="212.861" r="0.076"/>
					<circle opacity="0.4" fill="#293806" cx="266.228" cy="213.107" r="0.064"/>
					<path opacity="0.4" fill="#293806" d="M265.722,213.343c0.034,0.071-0.077,0.124-0.11,0.052
						C265.577,213.324,265.687,213.271,265.722,213.343z"/>
					<circle opacity="0.4" fill="#293806" cx="265.405" cy="213.171" r="0.067"/>
					<path opacity="0.4" fill="#293806" d="M265.91,212.847c0.002,0,0.004,0,0.005,0c0.062-0.008,0.097,0.065,0.051,0.107
						c-0.001,0.001-0.002,0.003-0.003,0.004c-0.021,0.02-0.055,0.02-0.077,0.004c-0.001,0-0.002-0.001-0.003-0.001
						c-0.017-0.011-0.027-0.033-0.025-0.054c0,0,0-0.001,0-0.002C265.86,212.877,265.882,212.851,265.91,212.847z"/>
					<path opacity="0.4" fill="#293806" d="M266.441,212.565c0.03,0.009,0.049,0.049,0.037,0.079
						c-0.017,0.039-0.054,0.057-0.095,0.044c-0.03-0.01-0.048-0.047-0.036-0.077C266.363,212.571,266.4,212.554,266.441,212.565z"/>
					<path opacity="0.4" fill="#293806" d="M266.908,212.269c0.001,0.001,0.002,0.002,0.003,0.002
						c0.013,0.013,0.018,0.035,0.017,0.052c-0.002,0.027-0.018,0.044-0.04,0.058c-0.001,0.001-0.003,0.001-0.003,0.002
						c-0.05,0.031-0.11-0.022-0.105-0.072c0.002-0.026,0.018-0.049,0.042-0.06C266.853,212.236,266.885,212.246,266.908,212.269z"/>
					<path opacity="0.4" fill="#293806" d="M267.324,212.003c0.002,0,0.005,0,0.007,0c0.039-0.001,0.064,0.055,0.04,0.084
						c-0.001,0.001-0.003,0.003-0.004,0.004c-0.027,0.032-0.079,0.035-0.099-0.007C267.248,212.042,267.282,212.004,267.324,212.003
						z"/>
					<circle opacity="0.4" fill="#293806" cx="267.842" cy="211.657" r="0.067"/>
					<circle opacity="0.4" fill="#293806" cx="268.074" cy="211.276" r="0.059"/>
					<circle opacity="0.4" fill="#293806" cx="267.626" cy="211.375" r="0.068"/>
					<circle opacity="0.4" fill="#293806" cx="267.123" cy="211.75" r="0.067"/>
					<path opacity="0.4" fill="#293806" d="M266.778,211.928C266.778,211.929,266.779,211.929,266.778,211.928
						c0.02,0.018,0.032,0.036,0.03,0.062c-0.003,0.029-0.025,0.054-0.055,0.059c-0.028,0.005-0.058-0.01-0.07-0.036
						c-0.013-0.028-0.004-0.057,0.017-0.078c0-0.001,0.001-0.001,0.002-0.002C266.719,211.914,266.759,211.911,266.778,211.928z"/>
					<path opacity="0.4" fill="#293806" d="M266.346,212.25v0.001c0.006,0.046-0.034,0.08-0.079,0.067
						c-0.017-0.005-0.031-0.018-0.037-0.034c-0.011-0.031-0.003-0.061,0.027-0.078l0.003-0.001
						C266.293,212.187,266.341,212.211,266.346,212.25z"/>
					<circle opacity="0.4" fill="#293806" cx="265.776" cy="212.629" r="0.066"/>
					<path opacity="0.4" fill="#293806" d="M265.315,212.92c0.029,0.062-0.066,0.108-0.096,0.046
						C265.189,212.904,265.286,212.858,265.315,212.92z"/>
					<path opacity="0.4" fill="#293806" d="M265.498,212.374c0.024-0.004,0.044-0.005,0.064,0.008
						c0.013,0.008,0.02,0.023,0.018,0.038c-0.002,0.025-0.016,0.039-0.033,0.055c-0.028,0.025-0.074,0.015-0.091-0.019
						C265.439,212.422,265.461,212.38,265.498,212.374z"/>
					<path opacity="0.4" fill="#293806" d="M266.089,212.005c0.039-0.004,0.079,0.032,0.062,0.073
						c-0.016,0.037-0.053,0.066-0.095,0.063c-0.045-0.004-0.068-0.056-0.044-0.093C266.027,212.023,266.061,212.009,266.089,212.005
						z"/>
					<path opacity="0.4" fill="#293806" d="M266.609,211.661c0.029-0.007,0.062,0.003,0.075,0.032c0.014,0.028,0,0.06-0.023,0.078
						c-0.031,0.025-0.079,0.018-0.098-0.021S266.57,211.67,266.609,211.661z"/>
					<circle opacity="0.4" fill="#293806" cx="267.076" cy="211.455" r="0.07"/>
					<path opacity="0.4" fill="#293806" d="M267.71,211.145c-0.018,0.026-0.054,0.033-0.08,0.015
						c-0.029-0.02-0.034-0.067-0.005-0.091C267.675,211.03,267.747,211.089,267.71,211.145z"/>
				</g>
			</g>
			<path fill="#3B5107" d="M268.985,211.005c-0.098,0.015-0.195,0.031-0.291,0.055c-0.148,0.036-0.251,0.139-0.388,0.198
				c-0.026,0.011-0.065-0.015-0.051-0.046c0.198-0.396,0.872-0.325,1.237-0.374c0.029-0.004,0.046,0.039,0.017,0.051
				C269.343,210.958,269.163,210.978,268.985,211.005z"/>
		</g>
		<g>
			<g>
				<g>
					<path fill="#5D8300" d="M270.729,213.115c0.555,0.774,1.314,1.376,2.12,1.873c0.213,0.131,0.649,0.406,0.84,0.1
						c0.17-0.274-0.061-0.758-0.188-1.008c-0.256-0.497-1.151-1.392-1.117-1.37c0.039,0.025-0.792-0.825-1.313-0.855
						c-0.274-0.017-0.625,0.11-0.657,0.428C270.383,212.587,270.559,212.877,270.729,213.115z"/>
					<path fill="#7AA800" d="M272.475,214.668c0.118,0.069,0.243,0.016,0.328,0.113c-0.104-0.251-0.409-0.271-0.55-0.434
						c0.364,0.025,0.582,0.405,0.946,0.43c-0.023-0.093-0.146-0.102-0.137-0.223c0.149,0.041,0.169,0.194,0.319,0.235
						c-0.008-0.336-0.332-0.51-0.34-0.847c0.264,0.17,0.267,0.567,0.563,0.709c0.008-0.117-0.097-0.242-0.013-0.382
						c0.117,0.259,0.23,0.603,0.097,0.818c-0.19,0.306-0.627,0.031-0.84-0.1c-0.017-0.011-0.034-0.021-0.05-0.032
						C272.734,214.849,272.605,214.758,272.475,214.668z"/>
					<path fill="#517009" d="M271.222,211.991c0.17,0.194,0.438,0.304,0.575,0.526c-0.28,0.073-0.413-0.21-0.656-0.227
						c0.198,0.227,0.462,0.397,0.595,0.681c-0.3-0.081-0.494-0.369-0.761-0.478c0.012,0.275,0.34,0.389,0.319,0.692
						c-0.207-0.105-0.308-0.417-0.611-0.438c0.021,0.154,0.308,0.417,0.126,0.405c-0.02-0.001-0.038-0.004-0.057-0.006
						c-0.008-0.01-0.016-0.021-0.023-0.031c-0.17-0.238-0.346-0.528-0.315-0.832c0.032-0.318,0.383-0.445,0.657-0.428
						c0.135,0.008,0.29,0.07,0.444,0.159C271.445,212.054,271.311,211.997,271.222,211.991z"/>
					<path fill="#5D8300" d="M270.809,213.152c0.182,0.012-0.105-0.251-0.126-0.405c0.304,0.021,0.404,0.333,0.611,0.438
						c0.021-0.304-0.308-0.417-0.319-0.692c0.267,0.109,0.461,0.397,0.761,0.478c-0.133-0.284-0.396-0.454-0.595-0.681
						c0.243,0.017,0.376,0.3,0.656,0.227c-0.138-0.223-0.405-0.332-0.575-0.526c0.089,0.006,0.224,0.063,0.293,0.023
						c0.447,0.253,0.896,0.716,0.868,0.697c-0.034-0.022,0.861,0.873,1.117,1.37c0.026,0.054,0.06,0.119,0.092,0.19
						c-0.084,0.14,0.021,0.265,0.013,0.382c-0.296-0.142-0.299-0.539-0.563-0.709c0.008,0.336,0.332,0.511,0.34,0.847
						c-0.15-0.041-0.17-0.194-0.319-0.235c-0.009,0.121,0.113,0.129,0.137,0.223c-0.364-0.025-0.582-0.405-0.946-0.43
						c0.141,0.162,0.445,0.183,0.55,0.434c-0.085-0.097-0.21-0.044-0.328-0.113c0.131,0.09,0.26,0.181,0.324,0.289
						c-0.776-0.484-1.507-1.067-2.047-1.811C270.771,213.148,270.789,213.151,270.809,213.152z"/>
					<path opacity="0.4" fill="#40570A" d="M271.517,212.225c0.034-0.03,0.081,0.023,0.047,0.053
						C271.528,212.308,271.482,212.255,271.517,212.225z"/>
					<path opacity="0.4" fill="#40570A" d="M272.004,212.72c-0.035-0.065,0.049-0.139,0.109-0.096
						c0.021,0.015,0.03,0.032,0.036,0.055c0.012,0.053-0.046,0.103-0.096,0.083C272.031,212.753,272.016,212.741,272.004,212.72z"/>
					<path opacity="0.4" fill="#40570A" d="M272.474,213.199c-0.004-0.001-0.01-0.002-0.014-0.003
						c-0.061-0.017-0.086-0.098-0.034-0.143c0.055-0.047,0.143-0.004,0.138,0.068c-0.002,0.033-0.018,0.055-0.046,0.071
						C272.507,213.199,272.49,213.201,272.474,213.199L272.474,213.199L272.474,213.199z"/>
					<path opacity="0.4" fill="#40570A" d="M272.818,213.631c0.024-0.011,0.042-0.029,0.052-0.055
						c0.015-0.04-0.007-0.077-0.037-0.101c-0.028-0.022-0.074-0.016-0.101,0.007c-0.018,0.016-0.025,0.037-0.025,0.059
						C272.693,213.601,272.754,213.66,272.818,213.631z"/>
					<circle opacity="0.4" fill="#40570A" cx="273.116" cy="214.017" r="0.092"/>
					<path opacity="0.4" fill="#40570A" d="M273.362,214.667c-0.021-0.046-0.001-0.104,0.045-0.127
						c0.033-0.017,0.072-0.011,0.101,0.012c0.004,0.002,0.006,0.005,0.01,0.008c0.002,0.001,0.003,0.003,0.004,0.004
						c0,0,0,0-0.001,0c0.016,0.017,0.025,0.039,0.023,0.063c-0.003,0.037-0.02,0.069-0.054,0.085
						C273.443,214.734,273.386,214.714,273.362,214.667z"/>
					<circle opacity="0.4" fill="#40570A" cx="272.951" cy="214.542" r="0.079"/>
					<path opacity="0.4" fill="#40570A" d="M272.433,213.94c0.001-0.01,0.003-0.02,0.006-0.029c0.015-0.038,0.049-0.063,0.091-0.061
						c0.025,0.001,0.05,0.014,0.066,0.034c0.025,0.031,0.029,0.073,0.007,0.107c-0.022,0.034-0.073,0.051-0.111,0.031
						C272.456,214.013,272.43,213.979,272.433,213.94z"/>
					<path opacity="0.4" fill="#40570A" d="M272.142,213.497c0.013-0.016,0.019-0.02,0.035-0.031
						c0.057-0.036,0.134,0.024,0.128,0.087c-0.005,0.041-0.025,0.067-0.064,0.08c-0.01,0.003-0.021,0.002-0.03,0.002
						C272.147,213.632,272.098,213.549,272.142,213.497z"/>
					<path opacity="0.4" fill="#40570A" d="M271.786,213.164c0-0.008,0-0.017,0-0.025c-0.001-0.007,0.003-0.035,0.003-0.017
						c0-0.031,0.032-0.059,0.063-0.055c-0.019-0.002,0.016-0.001,0.022-0.001c0.028,0.004,0.044,0.016,0.063,0.035
						c0.034,0.031,0.024,0.09-0.007,0.119c-0.032,0.028-0.093,0.029-0.119-0.008C271.801,213.196,271.791,213.182,271.786,213.164z"
						/>
					<circle opacity="0.4" fill="#40570A" cx="271.26" cy="212.529" r="0.085"/>
					<path opacity="0.4" fill="#40570A" d="M271.256,213.011c0.024-0.071,0.132-0.064,0.146,0.01c0,0.001,0,0.002,0,0.003
						c0.006,0.029-0.009,0.068-0.038,0.078l-0.003,0c-0.026,0.009-0.05,0.011-0.074-0.005
						C271.258,213.079,271.246,213.043,271.256,213.011z"/>
					<path opacity="0.4" fill="#40570A" d="M271.571,213.502c0,0,0-0.001,0-0.001c-0.014-0.063,0.052-0.12,0.112-0.098l0.001,0
						c0.046,0.017,0.072,0.07,0.053,0.116c-0.001,0.005-0.002,0.007-0.001,0.002c-0.001,0.001-0.001,0.002-0.002,0.003
						c-0.005,0.024-0.024,0.042-0.049,0.043c-0.002,0-0.003,0.001-0.004,0.001c0.004,0,0.004,0.001-0.003,0.001
						C271.632,213.583,271.582,213.549,271.571,213.502z"/>
					<path opacity="0.4" fill="#40570A" d="M272.023,213.958c-0.051-0.012-0.08-0.07-0.066-0.119
						c0.006-0.02,0.026-0.039,0.048-0.042c0.047-0.006,0.089,0.021,0.104,0.063c0.005,0.007,0.008,0.016,0.011,0.023
						c0.002,0.006,0.004,0.012,0.006,0.018c0.007,0.031-0.015,0.053-0.042,0.062c-0.007,0.002-0.014,0.002-0.02,0.001
						C272.05,213.966,272.037,213.963,272.023,213.958z"/>
					<path opacity="0.4" fill="#40570A" d="M272.475,214.267c0.074-0.064,0.174,0.05,0.1,0.114
						C272.501,214.445,272.401,214.332,272.475,214.267z"/>
					<path opacity="0.4" fill="#40570A" d="M270.966,213.1c0.036-0.031,0.107-0.015,0.112,0.039c0.001,0.009,0.001,0.018,0,0.025
						c0.002,0.018,0.001,0.036-0.015,0.048c-0.015,0.013-0.032,0.012-0.049,0.008c-0.008,0-0.017-0.001-0.025-0.003
						C270.938,213.205,270.931,213.131,270.966,213.1z"/>
					<path opacity="0.4" fill="#40570A" d="M271.385,213.598c0.044-0.039,0.11-0.002,0.108,0.054c0,0.001-0.001,0.003-0.001,0.004
						c0.01,0.041-0.025,0.071-0.064,0.057c-0.002,0-0.003,0-0.005,0C271.367,213.707,271.34,213.637,271.385,213.598z"/>
					<path opacity="0.4" fill="#40570A" d="M271.813,213.986c0.032-0.003,0.056,0.003,0.078,0.026
						c0.017,0.017,0.028,0.043,0.024,0.067c-0.004,0.026-0.022,0.041-0.048,0.042c-0.015,0-0.031-0.005-0.043-0.013
						c-0.003-0.001-0.005-0.002-0.007-0.003c0.007,0.004,0.003,0.002-0.012-0.005c-0.005-0.003-0.009-0.006-0.014-0.009
						C271.746,214.069,271.766,213.993,271.813,213.986z"/>
					<path opacity="0.4" fill="#40570A" d="M272.102,214.407c-0.021-0.03-0.022-0.07,0.007-0.097
						c0.03-0.025,0.069-0.019,0.096,0.007c0.003,0.002,0.006,0.005,0.008,0.008c0.027,0.026,0.021,0.074-0.006,0.097
						c-0.027,0.023-0.074,0.023-0.098-0.006C272.106,214.413,272.104,214.41,272.102,214.407z"/>
				</g>
			</g>
			<path fill="#517009" d="M270.211,211.381c0.027,0.245,0.229,0.717,0.521,0.74c0.014,0.001,0.019-0.014,0.01-0.023
				c-0.126-0.121-0.243-0.209-0.33-0.368c-0.063-0.117-0.101-0.248-0.166-0.362C270.234,211.349,270.209,211.363,270.211,211.381z"
				/>
		</g>
		<g>
			<g>
				<path fill="#FFC21C" d="M267.229,215.247c-0.014,0.041,0.03,0.068,0.065,0.062c0.043-0.008,0.079-0.029,0.117-0.047
					c-0.01,0.063-0.033,0.125-0.033,0.19c0,0.046,0.057,0.062,0.088,0.034c0.048-0.043,0.087-0.093,0.126-0.144
					c0.031,0.056,0.063,0.111,0.108,0.159c0.028,0.03,0.071,0.009,0.083-0.024c0.039-0.115,0.027-0.306-0.049-0.417
					c0.005-0.012,0.009-0.024,0.014-0.036c0.024-0.068-0.085-0.106-0.117-0.045c0.012-0.023-0.035-0.003-0.046,0
					c-0.027,0.006-0.055,0.013-0.081,0.023c-0.04,0.015-0.082,0.031-0.118,0.055C267.312,215.104,267.256,215.162,267.229,215.247z"
					/>
				<g>
					<path fill="#61830E" d="M268.419,211.553c0.197-0.26,0.515-0.507,0.867-0.303c0.396,0.229,0.075,1.17-0.047,1.459
						c-0.204,0.484-0.419,0.963-0.621,1.447c-0.131,0.313-0.281,0.648-0.558,0.859c-0.233,0.178-0.564,0.098-0.718-0.141
						c-0.167-0.261-0.058-0.647,0.025-0.916c0.108-0.348,0.249-0.69,0.373-1.034C267.915,212.443,268.109,211.964,268.419,211.553z"
						/>
					<path fill="#7FA812" d="M267.772,213.325c0.006,0.338-0.249,0.628-0.149,0.969c0.157-0.2,0.185-0.424,0.269-0.664
						c0.063,0.321-0.265,0.57-0.165,0.912c0.335-0.437,0.376-1.035,0.638-1.512c-0.041,0.598-0.286,1.132-0.364,1.71
						c0.214-0.217,0.265-0.571,0.442-0.808c0.026,0.301-0.245,0.534-0.162,0.818c0.039-0.07,0.091-0.145,0.146-0.216
						c-0.107,0.224-0.24,0.439-0.438,0.589c-0.234,0.178-0.565,0.098-0.719-0.141c-0.167-0.261-0.058-0.647,0.026-0.916
						c0.041-0.133,0.087-0.265,0.135-0.396c-0.002,0.165-0.005,0.329,0.028,0.487C267.601,213.899,267.668,213.602,267.772,213.325z
						"/>
					<path fill="#557015" d="M269.209,212.556c-0.14-0.268,0.229-0.591-0.005-0.862c-0.147,0.444-0.149,0.969-0.464,1.369
						c-0.039-0.451,0.202-0.892,0.184-1.379c-0.291,0.27-0.272,0.757-0.527,1.048c0.015-0.374,0.176-0.668,0.227-1.021
						c-0.138,0.163-0.258,0.383-0.358,0.567c-0.013-0.147-0.022-0.302-0.024-0.458c0.053-0.085,0.108-0.168,0.17-0.249
						c0.196-0.26,0.514-0.507,0.866-0.303c0.191,0.11,0.216,0.385,0.176,0.673C269.37,212.138,269.335,212.429,269.209,212.556z"/>
					<circle opacity="0.4" fill="#435714" cx="269.193" cy="212.153" r="0.082"/>
					<circle opacity="0.4" fill="#435714" cx="269.062" cy="212.67" r="0.079"/>
					<circle opacity="0.4" fill="#435714" cx="268.862" cy="213.221" r="0.072"/>
					<circle opacity="0.4" fill="#435714" cx="268.619" cy="213.788" r="0.076"/>
					<circle opacity="0.4" fill="#435714" cx="268.381" cy="214.263" r="0.065"/>
					<path opacity="0.4" fill="#435714" d="M268.108,214.75c0.069,0.038,0.01,0.146-0.06,0.107S268.039,214.712,268.108,214.75z"/>
					<circle opacity="0.4" fill="#435714" cx="267.752" cy="214.797" r="0.067"/>
					<path opacity="0.4" fill="#435714" d="M267.971,214.239c0.002-0.001,0.003-0.002,0.004-0.004
						c0.045-0.042,0.116-0.003,0.104,0.058c0,0.001,0,0.003-0.001,0.005c-0.005,0.028-0.032,0.048-0.06,0.049
						c-0.001,0-0.002,0-0.002,0c-0.021,0.001-0.043-0.011-0.054-0.029c0,0,0-0.001-0.001-0.001
						C267.948,214.292,267.95,214.258,267.971,214.239z"/>
					<path opacity="0.4" fill="#435714" d="M268.236,213.7c0.03-0.011,0.069,0.01,0.076,0.041c0.01,0.042-0.01,0.078-0.05,0.091
						c-0.031,0.01-0.067-0.01-0.076-0.041C268.176,213.749,268.196,213.714,268.236,213.7z"/>
					<path opacity="0.4" fill="#435714" d="M268.441,213.186c0.001,0,0.003,0,0.004,0c0.018,0.002,0.035,0.018,0.044,0.032
						c0.014,0.023,0.011,0.046,0.002,0.07c-0.001,0.001-0.002,0.003-0.003,0.004c-0.021,0.054-0.101,0.046-0.127,0.002
						c-0.013-0.022-0.014-0.05-0.001-0.073C268.377,213.191,268.408,213.181,268.441,213.186z"/>
					<path opacity="0.4" fill="#435714" d="M268.623,212.726c0.002-0.001,0.004-0.002,0.005-0.004
						c0.031-0.023,0.086,0.006,0.082,0.045c0,0.002,0,0.004,0,0.006c-0.004,0.042-0.044,0.075-0.085,0.052
						C268.584,212.803,268.59,212.751,268.623,212.726z"/>
					<circle opacity="0.4" fill="#435714" cx="268.84" cy="212.143" r="0.068"/>
					<circle opacity="0.4" fill="#435714" cx="268.806" cy="211.698" r="0.059"/>
					<circle opacity="0.4" fill="#435714" cx="268.5" cy="212.041" r="0.068"/>
					<circle opacity="0.4" fill="#435714" cx="268.312" cy="212.639" r="0.067"/>
					<path opacity="0.4" fill="#435714" d="M268.137,212.985c0.001,0,0.001,0,0.002,0c0.024,0.002,0.045,0.01,0.059,0.032
						c0.015,0.025,0.011,0.058-0.01,0.079c-0.021,0.021-0.053,0.026-0.078,0.012c-0.028-0.015-0.036-0.043-0.033-0.073
						c0.001,0,0.001-0.001,0.001-0.002C268.08,213.008,268.111,212.982,268.137,212.985z"/>
					<path opacity="0.4" fill="#435714" d="M267.975,213.499L267.975,213.499c0.032,0.035,0.02,0.086-0.024,0.102
						c-0.016,0.006-0.036,0.003-0.051-0.006c-0.026-0.019-0.037-0.048-0.022-0.079l0.002-0.002
						C267.896,213.479,267.948,213.471,267.975,213.499z"/>
					<circle opacity="0.4" fill="#435714" cx="267.734" cy="214.14" r="0.066"/>
					<path opacity="0.4" fill="#435714" d="M267.531,214.646c0.061,0.033,0.009,0.126-0.051,0.093
						C267.42,214.706,267.472,214.613,267.531,214.646z"/>
					<path opacity="0.4" fill="#435714" d="M267.36,214.095c0.017-0.017,0.031-0.029,0.057-0.03c0.015-0.001,0.029,0.007,0.036,0.02
						c0.013,0.022,0.011,0.041,0.005,0.064c-0.008,0.037-0.052,0.056-0.084,0.038C267.341,214.169,267.334,214.123,267.36,214.095z"
						/>
					<path opacity="0.4" fill="#435714" d="M267.623,213.451c0.029-0.026,0.082-0.02,0.093,0.023
						c0.009,0.039-0.004,0.085-0.04,0.106c-0.039,0.023-0.089-0.004-0.091-0.049C267.584,213.501,267.602,213.471,267.623,213.451z"
						/>
					<path opacity="0.4" fill="#435714" d="M267.843,212.867c0.02-0.022,0.052-0.034,0.079-0.019
						c0.028,0.015,0.036,0.048,0.027,0.077c-0.011,0.04-0.054,0.062-0.092,0.041C267.82,212.946,267.816,212.898,267.843,212.867z"
						/>
					<circle opacity="0.4" fill="#435714" cx="268.101" cy="212.427" r="0.07"/>
					<path opacity="0.4" fill="#435714" d="M268.433,211.805c0.001,0.031-0.024,0.058-0.056,0.059
						c-0.035,0.001-0.067-0.035-0.057-0.07C268.337,211.732,268.431,211.738,268.433,211.805z"/>
				</g>
			</g>
		</g>
		<g>
			
				<ellipse transform="matrix(0.9738 -0.2276 0.2276 0.9738 -40.8071 65.7906)" fill="#ED4134" cx="264.907" cy="209.861" rx="1.415" ry="1.308"/>
			<path fill="#F2594E" d="M265.324,209.359c0.193,0.351-0.008,0.814-0.448,1.034c-0.44,0.22-0.954,0.114-1.146-0.237
				s0.01-0.814,0.449-1.034C264.619,208.902,265.133,209.009,265.324,209.359z"/>
			<path fill="#C41C10" d="M265.482,208.644c0.087,0.094,0.164,0.199,0.227,0.313c0.406,0.753-0.03,1.668-0.869,2.006
				c-0.184,0.074-0.364,0.105-0.54,0.102c0.271,0.112,0.587,0.144,0.905,0.069c0.761-0.178,1.244-0.892,1.08-1.595
				C266.187,209.118,265.878,208.796,265.482,208.644z"/>
			<path fill="#415F06" d="M265.512,208.529l-0.013-0.056c-0.083,0.11-0.239,0.136-0.396,0.177
				c-0.098,0.026-0.201,0.094-0.278,0.142c-0.043,0.026-0.072-0.269-0.093-0.269c-0.002-0.011-0.008-0.026-0.014-0.041l-0.014-0.058
				c-0.144,0.069-0.2,0.145-0.197,0.232c-0.004-0.009-0.007-0.018-0.01-0.025c0.004,0.016,0.008,0.031,0.011,0.047
				c0.001,0.007,0.003,0.015,0.005,0.022s0.004,0.015,0.006,0.021c0.002,0.006,0.003,0.013,0.004,0.02
				c0.001-0.001,0.001-0.002,0.001-0.003c0.01,0.027,0.021,0.054,0.037,0.081c0.014,0.024,0.027,0.045,0.045,0.065
				c-0.004-0.002-0.009-0.005-0.012-0.007c-0.096-0.056-0.481-0.067-0.539-0.01c-0.02,0.02-0.023,0.04-0.021,0.059v-0.001
				c0,0.001,0,0.002,0,0.003c0.002,0.013,0.005,0.024,0.008,0.037c0.004,0.016,0.007,0.03,0.011,0.043
				c0.002,0.009,0.063,0.088,0.159,0.097c0.033,0.002,0.104-0.004,0.18-0.01c-0.058,0.027-0.113,0.063-0.165,0.091
				c-0.093,0.049-0.31,0.097-0.331,0.175c-0.012,0.043-0.001,0.076,0.023,0.099l0.003,0.013c0.001-0.002,0.002-0.005,0.003-0.008
				c0.047,0.037,0.136,0.046,0.235,0.034c0.13-0.016,0.253-0.066,0.347-0.134c0.091-0.065,0.186-0.208,0.331-0.218
				c0.062-0.004,0.095,0.034,0.116,0.062c0.03,0.04,0.089,0.055,0.153,0.066c0.115,0.021,0.238,0.016,0.324,0.071
				c-0.004-0.003-0.007-0.009-0.008-0.018c0.001,0.002,0.004,0.004,0.006,0.007c-0.003-0.011-0.006-0.022-0.009-0.033
				c0-0.005-0.001-0.01-0.001-0.012c-0.002-0.009-0.005-0.018-0.008-0.026c-0.002-0.01-0.004-0.02-0.007-0.03
				c-0.003-0.001-0.007-0.003-0.009-0.004c-0.018-0.029-0.045-0.051-0.086-0.082c-0.067-0.05-0.131-0.102-0.189-0.157
				c-0.022-0.021-0.058-0.03-0.089-0.041c0.055-0.05,0.154-0.076,0.243-0.106C265.423,208.794,265.524,208.548,265.512,208.529z"/>
		</g>
		<g>
			<path fill="#450C1E" d="M268.063,203.79c-0.046-0.049-0.118-0.076-0.196-0.082c-0.014-0.022-0.032-0.043-0.058-0.063
				c-0.107-0.086-0.217-0.069-0.302-0.004c-0.029-0.064-0.089-0.114-0.189-0.127c-0.135-0.018-0.256,0.022-0.345,0.109
				c-0.043-0.109-0.137-0.174-0.282-0.086c-0.142,0.086-0.199,0.193-0.192,0.294c-0.118-0.009-0.23,0.068-0.279,0.172
				c-0.032,0.071-0.014,0.143,0.023,0.213c0,0-0.001,0.001-0.001,0.001c-0.063,0.048-0.09,0.124-0.09,0.205
				c-0.037,0.01-0.07,0.033-0.096,0.077c-0.084,0.144,0.011,0.264,0.138,0.319c0.036,0.148,0.171,0.22,0.271,0.345
				c-0.049,0.023-0.045,0.102,0.013,0.125c0.122,0.048,0.212,0.108,0.282,0.201c-0.018,0.025-0.021,0.057,0.002,0.088
				c0.073,0.1,0.182,0.219,0.319,0.148c0.082-0.042,0.148-0.101,0.217-0.161c0.127-0.111,0.266-0.094,0.421-0.104
				c0.216-0.014,0.286-0.282,0.151-0.403c0.088-0.12,0.088-0.27-0.055-0.339c0.013-0.085,0.018-0.162-0.003-0.231
				c0.058-0.001,0.114-0.012,0.163-0.036c0.121-0.059,0.137-0.17,0.094-0.262C268.165,204.08,268.187,203.923,268.063,203.79z"/>
			<path fill="#69152F" d="M266.912,204.913c0.106-0.113,0.167-0.301,0.107-0.426c-0.058-0.124-0.172-0.161-0.29-0.147
				c-0.049-0.107-0.166-0.196-0.284-0.2c-0.046-0.098-0.183-0.144-0.313-0.099c-0.024-0.101-0.088-0.178-0.225-0.161
				c-0.068,0.008-0.127,0.048-0.159,0.101c-0.135-0.064-0.282-0.07-0.338,0.059c-0.025,0.06-0.016,0.141,0.016,0.218
				c-0.035,0.031-0.063,0.072-0.078,0.127c-0.024,0.09-0.007,0.167,0.036,0.228c-0.1,0.089-0.146,0.227-0.063,0.367
				c0.045,0.076,0.103,0.128,0.164,0.159c0.011,0.085,0.049,0.165,0.121,0.214c0.084,0.058,0.211,0.056,0.333,0.016
				c0.041,0.041,0.081,0.083,0.117,0.128c-0.073,0.006-0.082,0.106-0.014,0.13c0.097,0.033,0.194,0.065,0.293,0.088
				c0.009,0.017,0.023,0.032,0.043,0.046c0.031,0.022,0.063,0.043,0.097,0.063c0.061,0.036,0.149,0.003,0.166-0.068
				c0.04-0.173,0.244-0.231,0.329-0.377c0.065-0.114,0.102-0.324-0.005-0.431C266.949,204.932,266.931,204.921,266.912,204.913z"/>
			<path fill="#6E2F43" d="M268.502,204.839c-0.01-0.089-0.042-0.152-0.094-0.196c0.043-0.082,0.039-0.184-0.041-0.263
				c-0.051-0.051-0.137-0.063-0.227-0.051c-0.01-0.058-0.048-0.107-0.131-0.13c-0.127-0.035-0.221,0.048-0.27,0.159
				c-0.029-0.01-0.059-0.015-0.09-0.015c-0.013-0.045-0.043-0.08-0.099-0.094c-0.038-0.072-0.112-0.126-0.208-0.123
				c-0.132,0.005-0.208,0.167-0.245,0.271c-0.021,0.064-0.01,0.125,0.019,0.18c0.003,0.028,0.009,0.055,0.016,0.083
				c-0.009,0.003-0.018,0.007-0.027,0.01c-0.026-0.134-0.117-0.25-0.249-0.153c-0.101,0.073-0.15,0.144-0.165,0.266
				c-0.001,0.01,0,0.02,0.002,0.029c-0.012,0.006-0.021,0.014-0.03,0.023c-0.077,0.08-0.051,0.174,0.013,0.247
				c-0.023,0.008-0.045,0.018-0.063,0.03c-0.093,0.063-0.063,0.136-0.007,0.197c-0.06,0.125-0.045,0.247,0.015,0.357
				c-0.007,0.015-0.013,0.031-0.016,0.048c-0.011,0.049,0.006,0.103,0.053,0.128c0.366,0.205,0.756,0.232,1.102,0.084
				c0.081,0.009,0.166-0.007,0.243-0.032c0.105-0.034,0.18-0.132,0.207-0.229c0.032-0.019,0.063-0.044,0.093-0.077
				c0.066-0.074,0.061-0.151,0.034-0.228c0.043-0.011,0.082-0.039,0.11-0.087c0.057-0.097,0.025-0.195-0.036-0.278
				C268.469,204.963,268.511,204.914,268.502,204.839z"/>
			<path fill="#784958" d="M267.729,205.76c-0.003-0.042-0.018-0.085-0.039-0.124c0.032-0.06,0.043-0.137,0.02-0.213
				c-0.026-0.086-0.113-0.153-0.207-0.18c-0.022-0.085-0.128-0.152-0.241-0.175c0.062-0.132,0.023-0.271-0.168-0.292
				c-0.172-0.019-0.216,0.089-0.197,0.207c-0.043,0.01-0.082,0.022-0.1,0.035c-0.001,0-0.003,0-0.005,0
				c0.037-0.063,0.013-0.126-0.02-0.184c-0.082-0.147-0.315-0.069-0.447,0.064c-0.061-0.065-0.142-0.091-0.223,0.003
				c-0.052,0.06-0.111,0.134-0.099,0.219c0.011,0.078,0.104,0.148,0.064,0.189c-0.098-0.033-0.237-0.043-0.225,0.088
				c0.013,0.147,0.083,0.229,0.194,0.257c0.01,0.021,0.028,0.044,0.058,0.063c0.506,0.329,0.999,0.447,1.318,0.302
				c0.018-0.008,0.037-0.021,0.052-0.038C267.596,205.966,267.741,205.893,267.729,205.76z"/>
		</g>
		<g>
			
				<ellipse transform="matrix(0.9737 -0.2276 0.2276 0.9737 -41.2251 65.5731)" fill="#ED4134" cx="263.657" cy="211.504" rx="1.415" ry="1.308"/>
			<path fill="#F2594E" d="M264.075,211.002c0.192,0.351-0.009,0.814-0.449,1.034c-0.441,0.22-0.954,0.114-1.146-0.237
				s0.009-0.814,0.449-1.034C263.369,210.545,263.882,210.651,264.075,211.002z"/>
			<path fill="#C41C10" d="M264.232,210.287c0.088,0.094,0.164,0.199,0.228,0.313c0.404,0.753-0.031,1.668-0.87,2.006
				c-0.185,0.074-0.365,0.104-0.541,0.102c0.272,0.113,0.588,0.144,0.906,0.07c0.761-0.178,1.243-0.893,1.079-1.596
				C264.937,210.761,264.627,210.439,264.232,210.287z"/>
			<path fill="#415F06" d="M264.262,210.172l-0.013-0.057c-0.084,0.11-0.24,0.136-0.396,0.178c-0.099,0.026-0.201,0.094-0.278,0.142
				c-0.043,0.027-0.072-0.27-0.093-0.269c-0.002-0.011-0.008-0.025-0.014-0.041l-0.014-0.057c-0.144,0.068-0.2,0.145-0.198,0.232
				c-0.003-0.009-0.006-0.018-0.009-0.025c0.004,0.016,0.008,0.031,0.012,0.047c0,0.007,0.002,0.015,0.003,0.022
				c0.002,0.007,0.005,0.015,0.007,0.021c0.001,0.006,0.003,0.013,0.004,0.02c0.001-0.001,0.001-0.002,0.001-0.004
				c0.01,0.028,0.021,0.055,0.037,0.082c0.014,0.024,0.027,0.045,0.044,0.065c-0.003-0.002-0.007-0.005-0.011-0.006
				c-0.096-0.056-0.481-0.068-0.539-0.01c-0.02,0.02-0.023,0.04-0.021,0.06l-0.001-0.001c0.001,0.001,0.001,0.002,0.001,0.002
				c0.002,0.013,0.005,0.025,0.008,0.037c0.003,0.016,0.007,0.03,0.011,0.043c0.002,0.009,0.063,0.088,0.159,0.097
				c0.032,0.003,0.104-0.004,0.18-0.01c-0.058,0.027-0.113,0.063-0.165,0.091c-0.093,0.049-0.31,0.096-0.331,0.174
				c-0.012,0.043-0.002,0.076,0.023,0.099l0.003,0.013c0.001-0.003,0.002-0.005,0.003-0.008c0.047,0.037,0.136,0.046,0.235,0.034
				c0.129-0.016,0.253-0.066,0.347-0.134c0.09-0.065,0.186-0.208,0.331-0.218c0.062-0.004,0.095,0.034,0.116,0.062
				c0.03,0.04,0.089,0.055,0.153,0.066c0.115,0.021,0.238,0.016,0.324,0.071c-0.005-0.003-0.007-0.01-0.009-0.018
				c0.003,0.002,0.004,0.004,0.006,0.006c-0.003-0.011-0.005-0.021-0.008-0.033c0-0.005-0.001-0.009-0.001-0.012
				c-0.003-0.009-0.005-0.018-0.008-0.026c-0.002-0.01-0.005-0.02-0.007-0.03c-0.003-0.001-0.006-0.003-0.01-0.005
				c-0.018-0.029-0.044-0.051-0.085-0.082c-0.067-0.05-0.131-0.102-0.189-0.156c-0.022-0.021-0.058-0.03-0.089-0.041
				c0.055-0.05,0.154-0.076,0.242-0.106C264.173,210.438,264.274,210.191,264.262,210.172z"/>
		</g>
	</g>
</g>
</svg>
