<?xml version="1.0" encoding="utf-8"?>
<!-- Generator: Adobe Illustrator 16.0.0, SVG Export Plug-In . SVG Version: 6.00 Build 0)  -->
<!DOCTYPE svg PUBLIC "-//W3C//DTD SVG 1.1//EN" "http://www.w3.org/Graphics/SVG/1.1/DTD/svg11.dtd">
<svg version="1.1" id="Layer_1" xmlns="http://www.w3.org/2000/svg" xmlns:xlink="http://www.w3.org/1999/xlink" x="0px" y="0px"
	 width="450px" height="450px" viewBox="0 0 450 450" enable-background="new 0 0 450 450" xml:space="preserve">
<g>
	<g>
		<g>
			<g enable-background="new    ">
				<g enable-background="new    ">
					<g enable-background="new    ">
						<path fill="#AFB7C7" d="M335.643,120.029l0.02,14.191c0,0.043,0.021,0.087,0.062,0.126l-0.02-14.191
							C335.663,120.117,335.643,120.073,335.643,120.029L335.643,120.029z"/>
						<path fill="#E6EAF2" d="M335.704,120.155l0.02,14.191c0.017,0.016,0.037,0.031,0.062,0.045
							c0.065,0.038,0.147,0.061,0.234,0.068L336,120.269c-0.087-0.007-0.169-0.03-0.234-0.068
							C335.741,120.187,335.721,120.171,335.704,120.155L335.704,120.155z"/>
						<path fill="#AFB7C7" d="M336,120.269l0.02,14.191c0.127,0.011,0.262-0.012,0.359-0.068c0.082-0.047,0.123-0.11,0.123-0.172
							l-0.02-14.191c0,0.063-0.041,0.125-0.123,0.172C336.262,120.257,336.127,120.28,336,120.269L336,120.269z"/>
					</g>
				</g>
				<g>
					<path fill="#B2B5BB" d="M335.768,119.856c-0.165,0.095-0.166,0.249-0.002,0.344c0.162,0.094,0.429,0.095,0.594,0
						c0.164-0.094,0.163-0.249,0.001-0.343C336.195,119.761,335.931,119.761,335.768,119.856z"/>
				</g>
			</g>
		</g>
		<g>
			<g enable-background="new    ">
				<g>
					<path fill="#B2B5BB" d="M329.22,132.854c-0.165,0.096-0.166,0.249-0.002,0.345c0.162,0.094,0.43,0.095,0.595,0
						c0.163-0.095,0.162-0.249,0-0.344C329.648,132.76,329.383,132.76,329.22,132.854z"/>
				</g>
			</g>
		</g>
		<g>
			<g>
				<polygon fill="#AFB7C7" points="354.028,143.681 354.028,144.397 346.336,148.867 346.336,140.88 				"/>
				<polygon fill="#CCD3E3" points="346.336,140.88 346.336,148.867 328.516,138.568 328.516,137.852 				"/>
			</g>
			<polygon fill="#343848" points="328.516,137.852 336.208,133.382 354.028,143.681 346.336,148.151 			"/>
			<g>
				<path fill="#282D3E" d="M334.808,136.71c-1.53,0.883-1.538,2.316-0.017,3.2c1.519,0.882,3.991,0.882,5.522,0
					c1.53-0.884,1.538-2.316,0.018-3.2C338.81,135.827,336.338,135.827,334.808,136.71z"/>
			</g>
			<g>
				<path fill="#282D3E" d="M344.03,141.617c-1.53,0.883-1.538,2.316-0.017,3.2c1.519,0.882,3.991,0.882,5.522,0
					c1.53-0.884,1.538-2.316,0.018-3.2C348.033,140.733,345.561,140.733,344.03,141.617z"/>
			</g>
		</g>
		<g>
			<g>
				<g>
					<g>
						<g>
							<g enable-background="new    ">
								<g enable-background="new    ">
									<g>
										<path fill="#C8CCD6" d="M342.659,142.629l0.001,0.112c0,0.093,0.008,0.185,0.025,0.274v-0.112
											C342.667,142.814,342.659,142.723,342.659,142.629L342.659,142.629z"/>
										<path fill="#C8CCD6" d="M342.686,142.904v0.112c0.101,0.501,0.486,0.953,1.061,1.299l-0.001-0.113
											C343.171,143.857,342.786,143.406,342.686,142.904L342.686,142.904z"/>
										<path fill="#C8CCD6" d="M343.745,144.202l0.001,0.113c0.264,0.159,0.569,0.296,0.904,0.405l-0.001-0.113
											C344.313,144.498,344.008,144.362,343.745,144.202L343.745,144.202z"/>
										<path fill="#C8CCD6" d="M344.649,144.607l0.001,0.113c0.563,0.182,1.213,0.286,1.905,0.286
											c0.188,0,0.373-0.007,0.554-0.023l-0.001-0.112c-0.181,0.016-0.366,0.023-0.554,0.023
											C345.862,144.893,345.212,144.79,344.649,144.607L344.649,144.607z"/>
										<path fill="#C8CCD6" d="M347.108,144.87l0.001,0.112c0.856-0.07,1.625-0.302,2.21-0.64c0.709-0.41,1.15-0.975,1.153-1.599
											l-0.002-0.112c-0.003,0.625-0.444,1.19-1.152,1.599C348.733,144.568,347.965,144.8,347.108,144.87L347.108,144.87z"/>
									</g>
								</g>
								<g>
									<path fill="#FFFFFF" d="M343.81,141.03c-0.709,0.409-1.148,0.976-1.15,1.6c-0.012,1.25,1.732,2.264,3.896,2.264
										c1.077,0,2.054-0.253,2.764-0.663c0.708-0.409,1.149-0.975,1.152-1.599c0.008-1.251-1.736-2.265-3.895-2.264
										C345.496,140.367,344.52,140.621,343.81,141.03z"/>
								</g>
								<g>
									<path fill="#BFBFBF" d="M343.953,142.63c-0.006,0.836,1.159,1.514,2.605,1.514c0.72,0,1.373-0.169,1.848-0.444
										c0.106-0.062,0.203-0.128,0.29-0.201c0.301-0.245,0.479-0.544,0.48-0.868c0.005-0.837-1.162-1.514-2.604-1.513
										c-0.722,0-1.376,0.168-1.85,0.443c-0.179,0.102-0.331,0.219-0.452,0.348l-0.001,0
										C344.068,142.124,343.953,142.369,343.953,142.63z"/>
								</g>
								<g>
									<path fill="#F3F5F9" d="M343.953,142.63c-0.006,0.836,1.159,1.514,2.605,1.514c0.72,0,1.373-0.169,1.848-0.444
										c0.106-0.062,0.203-0.128,0.29-0.201c0.202-0.213,0.318-0.459,0.319-0.72c0.006-0.836-1.162-1.514-2.604-1.513
										c-0.721,0-1.375,0.168-1.849,0.443c-0.107,0.061-0.205,0.128-0.292,0.2l-0.001,0
										C344.068,142.124,343.953,142.369,343.953,142.63z"/>
								</g>
							</g>
						</g>
						<g>
							<g enable-background="new    ">
								<g enable-background="new    ">
									<g>
										<path fill="#C8CCD6" d="M342.659,142.361l0.001,0.112c0,0.093,0.008,0.185,0.025,0.275v-0.112
											C342.667,142.546,342.659,142.454,342.659,142.361L342.659,142.361z"/>
										<path fill="#C8CCD6" d="M342.686,142.636v0.112c0.101,0.501,0.486,0.952,1.061,1.299l-0.001-0.113
											C343.171,143.589,342.786,143.137,342.686,142.636L342.686,142.636z"/>
										<path fill="#C8CCD6" d="M343.745,143.934l0.001,0.113c0.264,0.158,0.569,0.295,0.904,0.404l-0.001-0.113
											C344.313,144.229,344.008,144.093,343.745,143.934L343.745,143.934z"/>
										<path fill="#C8CCD6" d="M344.649,144.338l0.001,0.113c0.563,0.182,1.213,0.286,1.905,0.286
											c0.188,0,0.373-0.007,0.554-0.023l-0.001-0.112c-0.181,0.015-0.366,0.023-0.554,0.023
											C345.862,144.625,345.212,144.521,344.649,144.338L344.649,144.338z"/>
										<path fill="#C8CCD6" d="M347.108,144.602l0.001,0.112c0.856-0.07,1.625-0.302,2.21-0.64
											c0.709-0.409,1.15-0.975,1.153-1.599l-0.002-0.112c-0.003,0.625-0.444,1.19-1.152,1.599
											C348.733,144.3,347.965,144.532,347.108,144.602L347.108,144.602z"/>
									</g>
								</g>
								<g>
									<path fill="#FFFFFF" d="M343.81,140.761c-0.709,0.409-1.148,0.976-1.15,1.6c-0.012,1.25,1.732,2.264,3.896,2.264
										c1.077,0,2.054-0.253,2.764-0.663c0.708-0.409,1.149-0.975,1.152-1.599c0.008-1.251-1.736-2.265-3.895-2.264
										C345.496,140.099,344.52,140.352,343.81,140.761z"/>
								</g>
								<g>
									<path fill="#BFBFBF" d="M343.953,142.362c-0.006,0.836,1.159,1.514,2.605,1.514c0.72,0,1.373-0.169,1.848-0.444
										c0.106-0.062,0.203-0.128,0.29-0.201c0.301-0.245,0.479-0.544,0.48-0.868c0.005-0.837-1.162-1.514-2.604-1.513
										c-0.722,0-1.376,0.168-1.85,0.443c-0.179,0.103-0.331,0.219-0.452,0.348l-0.001,0.001
										C344.068,141.855,343.953,142.101,343.953,142.362z"/>
								</g>
								<g>
									<path fill="#F3F5F9" d="M343.953,142.362c-0.006,0.836,1.159,1.514,2.605,1.514c0.72,0,1.373-0.169,1.848-0.444
										c0.106-0.062,0.203-0.128,0.29-0.201c0.202-0.214,0.318-0.459,0.319-0.72c0.006-0.837-1.162-1.514-2.604-1.513
										c-0.721,0-1.375,0.168-1.849,0.443c-0.107,0.061-0.205,0.128-0.292,0.2l-0.001,0.001
										C344.068,141.855,343.953,142.101,343.953,142.362z"/>
								</g>
							</g>
						</g>
					</g>
					<g>
						<g>
							<g enable-background="new    ">
								<g enable-background="new    ">
									<g>
										<path fill="#C8CCD6" d="M342.659,142.085l0.001,0.112c0,0.094,0.008,0.185,0.025,0.275v-0.112
											C342.667,142.27,342.659,142.178,342.659,142.085L342.659,142.085z"/>
										<path fill="#C8CCD6" d="M342.686,142.36v0.112c0.101,0.502,0.486,0.953,1.061,1.299l-0.001-0.113
											C343.171,143.313,342.786,142.861,342.686,142.36L342.686,142.36z"/>
										<path fill="#C8CCD6" d="M343.745,143.658l0.001,0.113c0.264,0.159,0.569,0.296,0.904,0.405l-0.001-0.113
											C344.313,143.954,344.008,143.817,343.745,143.658L343.745,143.658z"/>
										<path fill="#C8CCD6" d="M344.649,144.063l0.001,0.113c0.563,0.182,1.213,0.286,1.905,0.286
											c0.188,0,0.373-0.007,0.554-0.023l-0.001-0.112c-0.181,0.016-0.366,0.023-0.554,0.023
											C345.862,144.349,345.212,144.245,344.649,144.063L344.649,144.063z"/>
										<path fill="#C8CCD6" d="M347.108,144.326l0.001,0.112c0.856-0.07,1.625-0.302,2.21-0.64
											c0.709-0.41,1.15-0.975,1.153-1.599l-0.002-0.112c-0.003,0.625-0.444,1.19-1.152,1.599
											C348.733,144.024,347.965,144.256,347.108,144.326L347.108,144.326z"/>
									</g>
								</g>
								<g>
									<path fill="#FFFFFF" d="M343.81,140.485c-0.709,0.409-1.148,0.976-1.15,1.6c-0.012,1.25,1.732,2.264,3.896,2.264
										c1.077,0,2.054-0.253,2.764-0.663c0.708-0.409,1.149-0.975,1.152-1.599c0.008-1.251-1.736-2.265-3.895-2.264
										C345.496,139.822,344.52,140.076,343.81,140.485z"/>
								</g>
								<g>
									<path fill="#BFBFBF" d="M343.953,142.085c-0.006,0.836,1.159,1.514,2.605,1.514c0.72,0,1.373-0.169,1.848-0.444
										c0.106-0.062,0.203-0.128,0.29-0.201c0.301-0.245,0.479-0.544,0.48-0.868c0.005-0.836-1.162-1.514-2.604-1.513
										c-0.722,0-1.376,0.168-1.85,0.443c-0.179,0.102-0.331,0.219-0.452,0.348l-0.001,0.001
										C344.068,141.579,343.953,141.825,343.953,142.085z"/>
								</g>
								<g>
									<path fill="#F3F5F9" d="M343.953,142.085c-0.006,0.836,1.159,1.514,2.605,1.514c0.72,0,1.373-0.169,1.848-0.444
										c0.106-0.062,0.203-0.128,0.29-0.201c0.202-0.213,0.318-0.459,0.319-0.72c0.006-0.837-1.162-1.514-2.604-1.513
										c-0.721,0-1.375,0.168-1.849,0.443c-0.107,0.061-0.205,0.128-0.292,0.2l-0.001,0.001
										C344.068,141.579,343.953,141.825,343.953,142.085z"/>
								</g>
							</g>
						</g>
						<g>
							<g enable-background="new    ">
								<g enable-background="new    ">
									<g>
										<path fill="#C8CCD6" d="M342.659,141.816l0.001,0.112c0,0.093,0.008,0.185,0.025,0.275v-0.112
											C342.667,142.001,342.659,141.91,342.659,141.816L342.659,141.816z"/>
										<path fill="#C8CCD6" d="M342.686,142.091v0.112c0.101,0.501,0.486,0.952,1.061,1.298l-0.001-0.113
											C343.171,143.044,342.786,142.593,342.686,142.091L342.686,142.091z"/>
										<path fill="#C8CCD6" d="M343.745,143.389l0.001,0.113c0.264,0.159,0.569,0.296,0.904,0.405l-0.001-0.113
											C344.313,143.686,344.008,143.549,343.745,143.389L343.745,143.389z"/>
										<path fill="#C8CCD6" d="M344.649,143.794l0.001,0.113c0.563,0.182,1.213,0.286,1.905,0.286
											c0.188,0,0.373-0.007,0.554-0.022l-0.001-0.112c-0.181,0.015-0.366,0.023-0.554,0.023
											C345.862,144.081,345.212,143.977,344.649,143.794L344.649,143.794z"/>
										<path fill="#C8CCD6" d="M347.108,144.058l0.001,0.112c0.856-0.07,1.625-0.302,2.21-0.64
											c0.709-0.409,1.15-0.975,1.153-1.599l-0.002-0.112c-0.003,0.625-0.444,1.19-1.152,1.599
											C348.733,143.756,347.965,143.988,347.108,144.058L347.108,144.058z"/>
									</g>
								</g>
								<g>
									<path fill="#FFFFFF" d="M343.81,140.217c-0.709,0.409-1.148,0.976-1.15,1.6c-0.012,1.25,1.732,2.264,3.896,2.264
										c1.077,0,2.054-0.253,2.764-0.663c0.708-0.409,1.149-0.975,1.152-1.599c0.008-1.251-1.736-2.265-3.895-2.264
										C345.496,139.554,344.52,139.808,343.81,140.217z"/>
								</g>
								<g>
									<path fill="#BFBFBF" d="M343.953,141.817c-0.006,0.836,1.159,1.514,2.605,1.514c0.72,0,1.373-0.169,1.848-0.444
										c0.106-0.062,0.203-0.128,0.29-0.201c0.301-0.245,0.479-0.544,0.48-0.868c0.005-0.837-1.162-1.514-2.604-1.513
										c-0.722,0-1.376,0.168-1.85,0.443c-0.179,0.103-0.331,0.219-0.452,0.348l-0.001,0.001
										C344.068,141.311,343.953,141.556,343.953,141.817z"/>
								</g>
								<g>
									<path fill="#F3F5F9" d="M343.953,141.817c-0.006,0.836,1.159,1.514,2.605,1.514c0.72,0,1.373-0.169,1.848-0.444
										c0.106-0.062,0.203-0.128,0.29-0.201c0.202-0.214,0.318-0.459,0.319-0.72c0.006-0.837-1.162-1.514-2.604-1.513
										c-0.721,0-1.375,0.168-1.849,0.443c-0.107,0.061-0.205,0.128-0.292,0.2l-0.001,0.001
										C344.068,141.311,343.953,141.556,343.953,141.817z"/>
								</g>
							</g>
						</g>
					</g>
				</g>
				<g>
					<g>
						<g>
							<g enable-background="new    ">
								<g enable-background="new    ">
									<g>
										<path fill="#C8CCD6" d="M342.659,141.531l0.001,0.112c0,0.093,0.008,0.185,0.025,0.275v-0.112
											C342.667,141.716,342.659,141.624,342.659,141.531L342.659,141.531z"/>
										<path fill="#C8CCD6" d="M342.686,141.806v0.112c0.101,0.501,0.486,0.952,1.061,1.298l-0.001-0.113
											C343.171,142.759,342.786,142.307,342.686,141.806L342.686,141.806z"/>
										<path fill="#C8CCD6" d="M343.745,143.104l0.001,0.113c0.264,0.159,0.569,0.296,0.904,0.405l-0.001-0.113
											C344.313,143.399,344.008,143.263,343.745,143.104L343.745,143.104z"/>
										<path fill="#C8CCD6" d="M344.649,143.508l0.001,0.113c0.563,0.182,1.213,0.286,1.905,0.286
											c0.188,0,0.373-0.007,0.554-0.023l-0.001-0.112c-0.181,0.015-0.366,0.023-0.554,0.023
											C345.862,143.795,345.212,143.691,344.649,143.508L344.649,143.508z"/>
										<path fill="#C8CCD6" d="M347.108,143.772l0.001,0.112c0.856-0.07,1.625-0.302,2.21-0.64
											c0.709-0.41,1.15-0.975,1.153-1.599l-0.002-0.112c-0.003,0.625-0.444,1.19-1.152,1.599
											C348.733,143.47,347.965,143.702,347.108,143.772L347.108,143.772z"/>
									</g>
								</g>
								<g>
									<path fill="#FFFFFF" d="M343.81,139.931c-0.709,0.409-1.148,0.976-1.15,1.6c-0.012,1.25,1.732,2.264,3.896,2.264
										c1.077,0,2.054-0.253,2.764-0.663c0.708-0.409,1.149-0.975,1.152-1.599c0.008-1.251-1.736-2.265-3.895-2.264
										C345.496,139.269,344.52,139.522,343.81,139.931z"/>
								</g>
								<g>
									<path fill="#BFBFBF" d="M343.953,141.532c-0.006,0.835,1.159,1.514,2.605,1.514c0.72,0,1.373-0.169,1.848-0.444
										c0.106-0.062,0.203-0.128,0.29-0.201c0.301-0.245,0.479-0.544,0.48-0.868c0.005-0.837-1.162-1.514-2.604-1.513
										c-0.722,0-1.376,0.168-1.85,0.443c-0.179,0.102-0.331,0.219-0.452,0.348l-0.001,0.001
										C344.068,141.025,343.953,141.271,343.953,141.532z"/>
								</g>
								<g>
									<path fill="#F3F5F9" d="M343.953,141.532c-0.006,0.835,1.159,1.514,2.605,1.514c0.72,0,1.373-0.169,1.848-0.444
										c0.106-0.062,0.203-0.128,0.29-0.201c0.202-0.213,0.318-0.459,0.319-0.72c0.006-0.836-1.162-1.514-2.604-1.513
										c-0.721,0-1.375,0.168-1.849,0.443c-0.107,0.061-0.205,0.128-0.292,0.2l-0.001,0.001
										C344.068,141.025,343.953,141.271,343.953,141.532z"/>
								</g>
							</g>
						</g>
						<g>
							<g enable-background="new    ">
								<g enable-background="new    ">
									<g>
										<path fill="#C8CCD6" d="M342.659,141.262l0.001,0.112c0,0.093,0.008,0.185,0.025,0.275v-0.112
											C342.667,141.447,342.659,141.355,342.659,141.262L342.659,141.262z"/>
										<path fill="#C8CCD6" d="M342.686,141.537v0.112c0.101,0.501,0.486,0.952,1.061,1.299l-0.001-0.113
											C343.171,142.49,342.786,142.039,342.686,141.537L342.686,141.537z"/>
										<path fill="#C8CCD6" d="M343.745,142.835l0.001,0.113c0.264,0.158,0.569,0.295,0.904,0.404l-0.001-0.112
											C344.313,143.131,344.008,142.995,343.745,142.835L343.745,142.835z"/>
										<path fill="#C8CCD6" d="M344.649,143.24l0.001,0.112c0.563,0.182,1.213,0.286,1.905,0.286
											c0.188,0,0.373-0.007,0.554-0.022l-0.001-0.112c-0.181,0.015-0.366,0.023-0.554,0.023
											C345.862,143.526,345.212,143.423,344.649,143.24L344.649,143.24z"/>
										<path fill="#C8CCD6" d="M347.108,143.503l0.001,0.112c0.856-0.07,1.625-0.302,2.21-0.64
											c0.709-0.409,1.15-0.975,1.153-1.599l-0.002-0.112c-0.003,0.625-0.444,1.19-1.152,1.6
											C348.733,143.202,347.965,143.434,347.108,143.503L347.108,143.503z"/>
									</g>
								</g>
								<g>
									<path fill="#FFFFFF" d="M343.81,139.663c-0.709,0.41-1.148,0.976-1.15,1.6c-0.012,1.25,1.732,2.264,3.896,2.264
										c1.077,0,2.054-0.253,2.764-0.663c0.708-0.409,1.149-0.975,1.152-1.6c0.008-1.251-1.736-2.265-3.895-2.264
										C345.496,139,344.52,139.253,343.81,139.663z"/>
								</g>
								<g>
									<path fill="#BFBFBF" d="M343.953,141.263c-0.006,0.836,1.159,1.514,2.605,1.514c0.72,0,1.373-0.17,1.848-0.444
										c0.106-0.062,0.203-0.128,0.29-0.201c0.301-0.245,0.479-0.544,0.48-0.868c0.005-0.837-1.162-1.514-2.604-1.513
										c-0.722,0-1.376,0.169-1.85,0.443c-0.179,0.102-0.331,0.219-0.452,0.348l-0.001,0.001
										C344.068,140.756,343.953,141.002,343.953,141.263z"/>
								</g>
								<g>
									<path fill="#F3F5F9" d="M343.953,141.263c-0.006,0.836,1.159,1.514,2.605,1.514c0.72,0,1.373-0.17,1.848-0.444
										c0.106-0.062,0.203-0.128,0.29-0.201c0.202-0.213,0.318-0.459,0.319-0.72c0.006-0.837-1.162-1.514-2.604-1.513
										c-0.721,0-1.375,0.169-1.849,0.443c-0.107,0.061-0.205,0.128-0.292,0.2l-0.001,0.001
										C344.068,140.756,343.953,141.002,343.953,141.263z"/>
								</g>
							</g>
						</g>
					</g>
					<g>
						<g>
							<g enable-background="new    ">
								<g enable-background="new    ">
									<g>
										<path fill="#C8CCD6" d="M342.659,140.986l0.001,0.112c0,0.093,0.008,0.185,0.025,0.274v-0.112
											C342.667,141.171,342.659,141.08,342.659,140.986L342.659,140.986z"/>
										<path fill="#C8CCD6" d="M342.686,141.261v0.112c0.101,0.502,0.486,0.953,1.061,1.299l-0.001-0.113
											C343.171,142.214,342.786,141.763,342.686,141.261L342.686,141.261z"/>
										<path fill="#C8CCD6" d="M343.745,142.559l0.001,0.113c0.264,0.159,0.569,0.296,0.904,0.405l-0.001-0.113
											C344.313,142.855,344.008,142.719,343.745,142.559L343.745,142.559z"/>
										<path fill="#C8CCD6" d="M344.649,142.964l0.001,0.113c0.563,0.182,1.213,0.286,1.905,0.286
											c0.188,0,0.373-0.007,0.554-0.023l-0.001-0.112c-0.181,0.015-0.366,0.022-0.554,0.022
											C345.862,143.25,345.212,143.146,344.649,142.964L344.649,142.964z"/>
										<path fill="#C8CCD6" d="M347.108,143.228l0.001,0.112c0.856-0.07,1.625-0.302,2.21-0.64
											c0.709-0.41,1.15-0.975,1.153-1.599l-0.002-0.112c-0.003,0.625-0.444,1.19-1.152,1.599
											C348.733,142.926,347.965,143.158,347.108,143.228L347.108,143.228z"/>
									</g>
								</g>
								<g>
									<path fill="#FFFFFF" d="M343.81,139.387c-0.709,0.409-1.148,0.976-1.15,1.6c-0.012,1.25,1.732,2.264,3.896,2.264
										c1.077,0,2.054-0.253,2.764-0.663c0.708-0.409,1.149-0.975,1.152-1.599c0.008-1.251-1.736-2.265-3.895-2.264
										C345.496,138.724,344.52,138.978,343.81,139.387z"/>
								</g>
								<g>
									<path fill="#BFBFBF" d="M343.953,140.987c-0.006,0.836,1.159,1.514,2.605,1.514c0.72,0,1.373-0.169,1.848-0.444
										c0.106-0.062,0.203-0.128,0.29-0.201c0.301-0.245,0.479-0.544,0.48-0.869c0.005-0.836-1.162-1.514-2.604-1.513
										c-0.722,0-1.376,0.168-1.85,0.443c-0.179,0.103-0.331,0.219-0.452,0.348l-0.001,0.001
										C344.068,140.48,343.953,140.726,343.953,140.987z"/>
								</g>
								<g>
									<path fill="#F3F5F9" d="M343.953,140.987c-0.006,0.836,1.159,1.514,2.605,1.514c0.72,0,1.373-0.169,1.848-0.444
										c0.106-0.062,0.203-0.128,0.29-0.201c0.202-0.214,0.318-0.459,0.319-0.72c0.006-0.837-1.162-1.514-2.604-1.513
										c-0.721,0-1.375,0.168-1.849,0.443c-0.107,0.061-0.205,0.128-0.292,0.2l-0.001,0.001
										C344.068,140.48,343.953,140.726,343.953,140.987z"/>
								</g>
							</g>
						</g>
						<g>
							<g enable-background="new    ">
								<g enable-background="new    ">
									<g>
										<path fill="#C8CCD6" d="M342.659,140.718l0.001,0.112c0,0.093,0.008,0.185,0.025,0.275v-0.112
											C342.667,140.903,342.659,140.811,342.659,140.718L342.659,140.718z"/>
										<path fill="#C8CCD6" d="M342.686,140.993v0.112c0.101,0.501,0.486,0.952,1.061,1.299l-0.001-0.113
											C343.171,141.946,342.786,141.494,342.686,140.993L342.686,140.993z"/>
										<path fill="#C8CCD6" d="M343.745,142.291l0.001,0.113c0.264,0.158,0.569,0.295,0.904,0.404l-0.001-0.113
											C344.313,142.587,344.008,142.45,343.745,142.291L343.745,142.291z"/>
										<path fill="#C8CCD6" d="M344.649,142.695l0.001,0.113c0.563,0.182,1.213,0.286,1.905,0.286
											c0.188,0,0.373-0.007,0.554-0.022l-0.001-0.112c-0.181,0.015-0.366,0.023-0.554,0.023
											C345.862,142.982,345.212,142.878,344.649,142.695L344.649,142.695z"/>
										<path fill="#C8CCD6" d="M347.108,142.959l0.001,0.112c0.856-0.07,1.625-0.302,2.21-0.64
											c0.709-0.409,1.15-0.975,1.153-1.599l-0.002-0.112c-0.003,0.625-0.444,1.19-1.152,1.599
											C348.733,142.657,347.965,142.889,347.108,142.959L347.108,142.959z"/>
									</g>
								</g>
								<g>
									<path fill="#FFFFFF" d="M343.81,139.118c-0.709,0.41-1.148,0.976-1.15,1.6c-0.012,1.25,1.732,2.264,3.896,2.264
										c1.077,0,2.054-0.253,2.764-0.663c0.708-0.409,1.149-0.975,1.152-1.599c0.008-1.252-1.736-2.266-3.895-2.264
										C345.496,138.456,344.52,138.709,343.81,139.118z"/>
								</g>
								<g>
									<path fill="#BFBFBF" d="M343.953,140.719c-0.006,0.836,1.159,1.514,2.605,1.514c0.72,0,1.373-0.169,1.848-0.444
										c0.106-0.062,0.203-0.128,0.29-0.201c0.301-0.245,0.479-0.544,0.48-0.868c0.005-0.837-1.162-1.514-2.604-1.513
										c-0.722,0-1.376,0.168-1.85,0.443c-0.179,0.103-0.331,0.219-0.452,0.348l-0.001,0.001
										C344.068,140.212,343.953,140.458,343.953,140.719z"/>
								</g>
								<g>
									<path fill="#F3F5F9" d="M343.953,140.719c-0.006,0.836,1.159,1.514,2.605,1.514c0.72,0,1.373-0.169,1.848-0.444
										c0.106-0.062,0.203-0.128,0.29-0.201c0.202-0.213,0.318-0.459,0.319-0.72c0.006-0.837-1.162-1.514-2.604-1.513
										c-0.721,0-1.375,0.169-1.849,0.443c-0.107,0.061-0.205,0.128-0.292,0.2l-0.001,0.001
										C344.068,140.212,343.953,140.458,343.953,140.719z"/>
								</g>
							</g>
						</g>
					</g>
				</g>
			</g>
			<g>
				<g>
					<g>
						<g>
							<g enable-background="new    ">
								<g enable-background="new    ">
									<g>
										<path fill="#C8CCD6" d="M333.654,137.723l0.002,0.112c-0.001,0.093,0.008,0.185,0.025,0.275v-0.112
											C333.662,137.908,333.654,137.816,333.654,137.723L333.654,137.723z"/>
										<path fill="#C8CCD6" d="M333.682,137.998v0.112c0.101,0.501,0.485,0.952,1.061,1.298l-0.002-0.113
											C334.166,138.951,333.781,138.5,333.682,137.998L333.682,137.998z"/>
										<path fill="#C8CCD6" d="M334.74,139.296l0.002,0.113c0.264,0.159,0.568,0.296,0.904,0.405l-0.001-0.113
											C335.309,139.592,335.004,139.456,334.74,139.296L334.74,139.296z"/>
										<path fill="#C8CCD6" d="M335.646,139.701l0.001,0.113c0.563,0.182,1.213,0.286,1.905,0.286
											c0.188,0,0.372-0.007,0.554-0.023l-0.001-0.112c-0.182,0.015-0.366,0.022-0.555,0.022
											C336.857,139.987,336.208,139.883,335.646,139.701L335.646,139.701z"/>
										<path fill="#C8CCD6" d="M338.104,139.964l0.001,0.112c0.856-0.07,1.624-0.302,2.209-0.64
											c0.71-0.409,1.15-0.975,1.154-1.599l-0.003-0.112c-0.003,0.625-0.443,1.19-1.151,1.599
											C339.729,139.663,338.96,139.895,338.104,139.964L338.104,139.964z"/>
									</g>
								</g>
								<g>
									<path fill="#FFFFFF" d="M334.805,136.124c-0.709,0.409-1.147,0.976-1.15,1.6c-0.011,1.25,1.733,2.264,3.896,2.264
										c1.077,0,2.055-0.253,2.765-0.663c0.708-0.409,1.148-0.975,1.151-1.599c0.008-1.251-1.736-2.265-3.895-2.264
										C336.492,135.461,335.515,135.714,334.805,136.124z"/>
								</g>
								<g>
									<path fill="#BFBFBF" d="M334.949,137.724c-0.007,0.835,1.158,1.514,2.605,1.514c0.719,0,1.373-0.169,1.847-0.444
										c0.107-0.062,0.204-0.128,0.291-0.201c0.301-0.245,0.479-0.544,0.479-0.868c0.006-0.836-1.162-1.514-2.604-1.513
										c-0.721,0-1.376,0.168-1.849,0.443c-0.179,0.103-0.331,0.219-0.452,0.348l-0.001,0.001
										C335.063,137.217,334.949,137.463,334.949,137.724z"/>
								</g>
								<g>
									<path fill="#F3F5F9" d="M334.949,137.724c-0.007,0.835,1.158,1.514,2.605,1.514c0.719,0,1.373-0.169,1.847-0.444
										c0.107-0.062,0.204-0.128,0.291-0.201c0.202-0.213,0.318-0.459,0.319-0.72c0.006-0.837-1.162-1.514-2.604-1.513
										c-0.721,0-1.376,0.168-1.85,0.443c-0.106,0.061-0.204,0.128-0.291,0.2l-0.001,0.001
										C335.063,137.217,334.949,137.463,334.949,137.724z"/>
								</g>
							</g>
						</g>
						<g>
							<g enable-background="new    ">
								<g enable-background="new    ">
									<g>
										<path fill="#C8CCD6" d="M333.654,137.455l0.002,0.112c-0.001,0.093,0.008,0.185,0.025,0.275v-0.112
											C333.662,137.64,333.654,137.548,333.654,137.455L333.654,137.455z"/>
										<path fill="#C8CCD6" d="M333.682,137.729v0.112c0.101,0.501,0.485,0.952,1.061,1.299l-0.002-0.113
											C334.166,138.683,333.781,138.231,333.682,137.729L333.682,137.729z"/>
										<path fill="#C8CCD6" d="M334.74,139.027l0.002,0.113c0.264,0.158,0.568,0.295,0.904,0.404l-0.001-0.112
											C335.309,139.324,335.004,139.187,334.74,139.027L334.74,139.027z"/>
										<path fill="#C8CCD6" d="M335.646,139.433l0.001,0.112c0.563,0.182,1.213,0.286,1.905,0.286
											c0.188,0,0.372-0.007,0.554-0.022l-0.001-0.112c-0.182,0.015-0.366,0.023-0.555,0.023
											C336.857,139.719,336.208,139.615,335.646,139.433L335.646,139.433z"/>
										<path fill="#C8CCD6" d="M338.104,139.696l0.001,0.112c0.856-0.07,1.624-0.302,2.209-0.64
											c0.71-0.409,1.15-0.975,1.154-1.599l-0.003-0.112c-0.003,0.625-0.443,1.19-1.151,1.599
											C339.729,139.394,338.96,139.626,338.104,139.696L338.104,139.696z"/>
									</g>
								</g>
								<g>
									<path fill="#FFFFFF" d="M334.805,135.855c-0.709,0.409-1.147,0.976-1.15,1.6c-0.011,1.25,1.733,2.264,3.896,2.264
										c1.077,0,2.055-0.253,2.765-0.663c0.708-0.409,1.148-0.975,1.151-1.599c0.008-1.251-1.736-2.265-3.895-2.264
										C336.492,135.192,335.515,135.446,334.805,135.855z"/>
								</g>
								<g>
									<path fill="#BFBFBF" d="M334.949,137.456c-0.007,0.836,1.158,1.514,2.605,1.514c0.719,0,1.373-0.17,1.847-0.444
										c0.107-0.062,0.204-0.128,0.291-0.201c0.301-0.245,0.479-0.544,0.479-0.868c0.006-0.837-1.162-1.514-2.604-1.513
										c-0.721,0-1.376,0.168-1.849,0.443c-0.179,0.102-0.331,0.219-0.452,0.348l-0.001,0.001
										C335.063,136.949,334.949,137.195,334.949,137.456z"/>
								</g>
								<g>
									<path fill="#F3F5F9" d="M334.949,137.456c-0.007,0.836,1.158,1.514,2.605,1.514c0.719,0,1.373-0.17,1.847-0.444
										c0.107-0.062,0.204-0.128,0.291-0.201c0.202-0.213,0.318-0.459,0.319-0.72c0.006-0.837-1.162-1.514-2.604-1.513
										c-0.721,0-1.376,0.168-1.85,0.443c-0.106,0.061-0.204,0.128-0.291,0.2l-0.001,0.001
										C335.063,136.949,334.949,137.195,334.949,137.456z"/>
								</g>
							</g>
						</g>
					</g>
					<g>
						<g>
							<g enable-background="new    ">
								<g enable-background="new    ">
									<g>
										<path fill="#C8CCD6" d="M333.654,137.179l0.002,0.112c-0.001,0.093,0.008,0.185,0.025,0.275v-0.112
											C333.662,137.364,333.654,137.272,333.654,137.179L333.654,137.179z"/>
										<path fill="#C8CCD6" d="M333.682,137.454v0.112c0.101,0.501,0.485,0.952,1.061,1.298l-0.002-0.113
											C334.166,138.407,333.781,137.955,333.682,137.454L333.682,137.454z"/>
										<path fill="#C8CCD6" d="M334.74,138.751l0.002,0.113c0.264,0.159,0.568,0.296,0.904,0.405l-0.001-0.113
											C335.309,139.047,335.004,138.911,334.74,138.751L334.74,138.751z"/>
										<path fill="#C8CCD6" d="M335.646,139.156l0.001,0.113c0.563,0.182,1.213,0.286,1.905,0.286
											c0.188,0,0.372-0.008,0.554-0.023l-0.001-0.112c-0.182,0.015-0.366,0.022-0.555,0.022
											C336.857,139.442,336.208,139.339,335.646,139.156L335.646,139.156z"/>
										<path fill="#C8CCD6" d="M338.104,139.42l0.001,0.112c0.856-0.07,1.624-0.302,2.209-0.64c0.71-0.41,1.15-0.975,1.154-1.599
											l-0.003-0.112c-0.003,0.625-0.443,1.19-1.151,1.599C339.729,139.118,338.96,139.35,338.104,139.42L338.104,139.42z"/>
									</g>
								</g>
								<g>
									<path fill="#FFFFFF" d="M334.805,135.579c-0.709,0.409-1.147,0.976-1.15,1.6c-0.011,1.25,1.733,2.264,3.896,2.264
										c1.077,0,2.055-0.253,2.765-0.663c0.708-0.409,1.148-0.975,1.151-1.599c0.008-1.251-1.736-2.265-3.895-2.264
										C336.492,134.917,335.515,135.17,334.805,135.579z"/>
								</g>
								<g>
									<path fill="#BFBFBF" d="M334.949,137.18c-0.007,0.836,1.158,1.514,2.605,1.514c0.719,0,1.373-0.169,1.847-0.444
										c0.107-0.062,0.204-0.128,0.291-0.201c0.301-0.245,0.479-0.544,0.479-0.868c0.006-0.836-1.162-1.514-2.604-1.513
										c-0.721,0-1.376,0.168-1.849,0.443c-0.179,0.102-0.331,0.219-0.452,0.348l-0.001,0.001
										C335.063,136.673,334.949,136.918,334.949,137.18z"/>
								</g>
								<g>
									<path fill="#F3F5F9" d="M334.949,137.18c-0.007,0.836,1.158,1.514,2.605,1.514c0.719,0,1.373-0.169,1.847-0.444
										c0.107-0.062,0.204-0.128,0.291-0.201c0.202-0.213,0.318-0.459,0.319-0.72c0.006-0.836-1.162-1.514-2.604-1.513
										c-0.721,0-1.376,0.168-1.85,0.443c-0.106,0.061-0.204,0.128-0.291,0.2l-0.001,0.001
										C335.063,136.673,334.949,136.918,334.949,137.18z"/>
								</g>
							</g>
						</g>
						<g>
							<g enable-background="new    ">
								<g enable-background="new    ">
									<g>
										<path fill="#C8CCD6" d="M333.654,136.91l0.002,0.112c-0.001,0.093,0.008,0.185,0.025,0.275v-0.112
											C333.662,137.095,333.654,137.003,333.654,136.91L333.654,136.91z"/>
										<path fill="#C8CCD6" d="M333.682,137.185v0.112c0.101,0.501,0.485,0.952,1.061,1.299l-0.002-0.113
											C334.166,138.138,333.781,137.687,333.682,137.185L333.682,137.185z"/>
										<path fill="#C8CCD6" d="M334.74,138.483l0.002,0.113c0.264,0.158,0.568,0.295,0.904,0.404l-0.001-0.113
											C335.309,138.779,335.004,138.643,334.74,138.483L334.74,138.483z"/>
										<path fill="#C8CCD6" d="M335.646,138.888l0.001,0.113c0.563,0.182,1.213,0.286,1.905,0.286
											c0.188,0,0.372-0.007,0.554-0.022l-0.001-0.112c-0.182,0.015-0.366,0.023-0.555,0.023
											C336.857,139.174,336.208,139.07,335.646,138.888L335.646,138.888z"/>
										<path fill="#C8CCD6" d="M338.104,139.151l0.001,0.112c0.856-0.07,1.624-0.302,2.209-0.64
											c0.71-0.409,1.15-0.975,1.154-1.599l-0.003-0.112c-0.003,0.625-0.443,1.19-1.151,1.6
											C339.729,138.85,338.96,139.082,338.104,139.151L338.104,139.151z"/>
									</g>
								</g>
								<g>
									<path fill="#FFFFFF" d="M334.805,135.311c-0.709,0.41-1.147,0.976-1.15,1.6c-0.011,1.25,1.733,2.264,3.896,2.264
										c1.077,0,2.055-0.253,2.765-0.663c0.708-0.409,1.148-0.975,1.151-1.6c0.008-1.251-1.736-2.265-3.895-2.264
										C336.492,134.648,335.515,134.901,334.805,135.311z"/>
								</g>
								<g>
									<path fill="#BFBFBF" d="M334.949,136.911c-0.007,0.836,1.158,1.514,2.605,1.514c0.719,0,1.373-0.169,1.847-0.444
										c0.107-0.062,0.204-0.128,0.291-0.201c0.301-0.245,0.479-0.544,0.479-0.868c0.006-0.837-1.162-1.514-2.604-1.513
										c-0.721,0-1.376,0.168-1.849,0.443c-0.179,0.103-0.331,0.219-0.452,0.348l-0.001,0.001
										C335.063,136.404,334.949,136.65,334.949,136.911z"/>
								</g>
								<g>
									<path fill="#F3F5F9" d="M334.949,136.911c-0.007,0.836,1.158,1.514,2.605,1.514c0.719,0,1.373-0.169,1.847-0.444
										c0.107-0.062,0.204-0.128,0.291-0.201c0.202-0.213,0.318-0.459,0.319-0.72c0.006-0.837-1.162-1.514-2.604-1.513
										c-0.721,0-1.376,0.168-1.85,0.443c-0.106,0.061-0.204,0.128-0.291,0.2l-0.001,0.001
										C335.063,136.404,334.949,136.65,334.949,136.911z"/>
								</g>
							</g>
						</g>
					</g>
				</g>
				<g>
					<g>
						<g>
							<g enable-background="new    ">
								<g enable-background="new    ">
									<g>
										<path fill="#C8CCD6" d="M333.654,136.625l0.002,0.112c-0.001,0.093,0.008,0.185,0.025,0.275v-0.112
											C333.662,136.81,333.654,136.718,333.654,136.625L333.654,136.625z"/>
										<path fill="#C8CCD6" d="M333.682,136.899v0.112c0.101,0.501,0.485,0.952,1.061,1.299l-0.002-0.113
											C334.166,137.853,333.781,137.401,333.682,136.899L333.682,136.899z"/>
										<path fill="#C8CCD6" d="M334.74,138.197l0.002,0.113c0.264,0.158,0.568,0.295,0.904,0.404l-0.001-0.113
											C335.309,138.493,335.004,138.357,334.74,138.197L334.74,138.197z"/>
										<path fill="#C8CCD6" d="M335.646,138.602l0.001,0.113c0.563,0.182,1.213,0.286,1.905,0.286
											c0.188,0,0.372-0.007,0.554-0.022l-0.001-0.112c-0.182,0.015-0.366,0.023-0.555,0.023
											C336.857,138.889,336.208,138.785,335.646,138.602L335.646,138.602z"/>
										<path fill="#C8CCD6" d="M338.104,138.866l0.001,0.112c0.856-0.07,1.624-0.302,2.209-0.64
											c0.71-0.409,1.15-0.975,1.154-1.599l-0.003-0.112c-0.003,0.625-0.443,1.19-1.151,1.599
											C339.729,138.564,338.96,138.796,338.104,138.866L338.104,138.866z"/>
									</g>
								</g>
								<g>
									<path fill="#FFFFFF" d="M334.805,135.025c-0.709,0.409-1.147,0.976-1.15,1.6c-0.011,1.25,1.733,2.264,3.896,2.264
										c1.077,0,2.055-0.253,2.765-0.663c0.708-0.409,1.148-0.975,1.151-1.599c0.008-1.251-1.736-2.265-3.895-2.264
										C336.492,134.362,335.515,134.616,334.805,135.025z"/>
								</g>
								<g>
									<path fill="#BFBFBF" d="M334.949,136.625c-0.007,0.836,1.158,1.514,2.605,1.514c0.719,0,1.373-0.169,1.847-0.444
										c0.107-0.062,0.204-0.128,0.291-0.201c0.301-0.245,0.479-0.544,0.479-0.868c0.006-0.837-1.162-1.514-2.604-1.513
										c-0.721,0-1.376,0.168-1.849,0.443c-0.179,0.103-0.331,0.219-0.452,0.348l-0.001,0.001
										C335.063,136.119,334.949,136.364,334.949,136.625z"/>
								</g>
								<g>
									<path fill="#F3F5F9" d="M334.949,136.625c-0.007,0.836,1.158,1.514,2.605,1.514c0.719,0,1.373-0.169,1.847-0.444
										c0.107-0.062,0.204-0.128,0.291-0.201c0.202-0.213,0.318-0.459,0.319-0.72c0.006-0.837-1.162-1.514-2.604-1.513
										c-0.721,0-1.376,0.168-1.85,0.443c-0.106,0.061-0.204,0.128-0.291,0.2l-0.001,0.001
										C335.063,136.119,334.949,136.364,334.949,136.625z"/>
								</g>
							</g>
						</g>
						<g>
							<g enable-background="new    ">
								<g enable-background="new    ">
									<g>
										<path fill="#C8CCD6" d="M333.654,136.356l0.002,0.112c-0.001,0.093,0.008,0.185,0.025,0.275v-0.112
											C333.662,136.541,333.654,136.45,333.654,136.356L333.654,136.356z"/>
										<path fill="#C8CCD6" d="M333.682,136.631v0.112c0.101,0.501,0.485,0.952,1.061,1.299l-0.002-0.113
											C334.166,137.584,333.781,137.133,333.682,136.631L333.682,136.631z"/>
										<path fill="#C8CCD6" d="M334.74,137.929l0.002,0.113c0.264,0.158,0.568,0.295,0.904,0.404l-0.001-0.112
											C335.309,138.225,335.004,138.088,334.74,137.929L334.74,137.929z"/>
										<path fill="#C8CCD6" d="M335.646,138.334l0.001,0.112c0.563,0.182,1.213,0.286,1.905,0.286
											c0.188,0,0.372-0.008,0.554-0.023l-0.001-0.112c-0.182,0.016-0.366,0.023-0.555,0.023
											C336.857,138.62,336.208,138.517,335.646,138.334L335.646,138.334z"/>
										<path fill="#C8CCD6" d="M338.104,138.597l0.001,0.112c0.856-0.07,1.624-0.302,2.209-0.64
											c0.71-0.409,1.15-0.975,1.154-1.599l-0.003-0.112c-0.003,0.625-0.443,1.19-1.151,1.599
											C339.729,138.295,338.96,138.527,338.104,138.597L338.104,138.597z"/>
									</g>
								</g>
								<g>
									<path fill="#FFFFFF" d="M334.805,134.756c-0.709,0.41-1.147,0.976-1.15,1.6c-0.011,1.25,1.733,2.264,3.896,2.264
										c1.077,0,2.055-0.253,2.765-0.663c0.708-0.409,1.148-0.975,1.151-1.599c0.008-1.252-1.736-2.266-3.895-2.264
										C336.492,134.094,335.515,134.347,334.805,134.756z"/>
								</g>
								<g>
									<path fill="#BFBFBF" d="M334.949,136.357c-0.007,0.836,1.158,1.514,2.605,1.514c0.719,0,1.373-0.17,1.847-0.444
										c0.107-0.062,0.204-0.128,0.291-0.201c0.301-0.245,0.479-0.544,0.479-0.868c0.006-0.837-1.162-1.514-2.604-1.513
										c-0.721,0-1.376,0.169-1.849,0.443c-0.179,0.102-0.331,0.219-0.452,0.348l-0.001,0.001
										C335.063,135.85,334.949,136.096,334.949,136.357z"/>
								</g>
								<g>
									<path fill="#F3F5F9" d="M334.949,136.357c-0.007,0.836,1.158,1.514,2.605,1.514c0.719,0,1.373-0.17,1.847-0.444
										c0.107-0.062,0.204-0.128,0.291-0.201c0.202-0.213,0.318-0.459,0.319-0.72c0.006-0.837-1.162-1.514-2.604-1.513
										c-0.721,0-1.376,0.169-1.85,0.443c-0.106,0.061-0.204,0.128-0.291,0.2l-0.001,0.001
										C335.063,135.85,334.949,136.096,334.949,136.357z"/>
								</g>
							</g>
						</g>
					</g>
					<g>
						<g>
							<g enable-background="new    ">
								<g enable-background="new    ">
									<g>
										<path fill="#C8CCD6" d="M333.654,136.08l0.002,0.112c-0.001,0.093,0.008,0.185,0.025,0.275v-0.112
											C333.662,136.265,333.654,136.173,333.654,136.08L333.654,136.08z"/>
										<path fill="#C8CCD6" d="M333.682,136.355v0.112c0.101,0.501,0.485,0.952,1.061,1.299l-0.002-0.113
											C334.166,137.308,333.781,136.856,333.682,136.355L333.682,136.355z"/>
										<path fill="#C8CCD6" d="M334.74,137.653l0.002,0.113c0.264,0.158,0.568,0.295,0.904,0.404l-0.001-0.113
											C335.309,137.949,335.004,137.813,334.74,137.653L334.74,137.653z"/>
										<path fill="#C8CCD6" d="M335.646,138.058l0.001,0.113c0.563,0.182,1.213,0.286,1.905,0.286
											c0.188,0,0.372-0.007,0.554-0.023l-0.001-0.112c-0.182,0.015-0.366,0.023-0.555,0.023
											C336.857,138.344,336.208,138.24,335.646,138.058L335.646,138.058z"/>
										<path fill="#C8CCD6" d="M338.104,138.321l0.001,0.112c0.856-0.07,1.624-0.302,2.209-0.64
											c0.71-0.409,1.15-0.975,1.154-1.599l-0.003-0.112c-0.003,0.625-0.443,1.19-1.151,1.599
											C339.729,138.02,338.96,138.251,338.104,138.321L338.104,138.321z"/>
									</g>
								</g>
								<g>
									<path fill="#FFFFFF" d="M334.805,134.48c-0.709,0.409-1.147,0.976-1.15,1.6c-0.011,1.25,1.733,2.264,3.896,2.264
										c1.077,0,2.055-0.253,2.765-0.663c0.708-0.409,1.148-0.975,1.151-1.599c0.008-1.251-1.736-2.265-3.895-2.264
										C336.492,133.818,335.515,134.071,334.805,134.48z"/>
								</g>
								<g>
									<path fill="#BFBFBF" d="M334.949,136.081c-0.007,0.836,1.158,1.514,2.605,1.514c0.719,0,1.373-0.169,1.847-0.444
										c0.107-0.062,0.204-0.128,0.291-0.201c0.301-0.245,0.479-0.544,0.479-0.868c0.006-0.837-1.162-1.514-2.604-1.513
										c-0.721,0-1.376,0.168-1.849,0.443c-0.179,0.103-0.331,0.219-0.452,0.348l-0.001,0.001
										C335.063,135.574,334.949,135.82,334.949,136.081z"/>
								</g>
								<g>
									<path fill="#F3F5F9" d="M334.949,136.081c-0.007,0.836,1.158,1.514,2.605,1.514c0.719,0,1.373-0.169,1.847-0.444
										c0.107-0.062,0.204-0.128,0.291-0.201c0.202-0.214,0.318-0.459,0.319-0.72c0.006-0.837-1.162-1.514-2.604-1.513
										c-0.721,0-1.376,0.168-1.85,0.443c-0.106,0.061-0.204,0.128-0.291,0.2l-0.001,0.001
										C335.063,135.574,334.949,135.82,334.949,136.081z"/>
								</g>
							</g>
						</g>
						<g>
							<g enable-background="new    ">
								<g enable-background="new    ">
									<g>
										<path fill="#C8CCD6" d="M333.654,135.812l0.002,0.112c-0.001,0.093,0.008,0.185,0.025,0.275v-0.112
											C333.662,135.997,333.654,135.905,333.654,135.812L333.654,135.812z"/>
										<path fill="#C8CCD6" d="M333.682,136.086v0.112c0.101,0.501,0.485,0.952,1.061,1.299l-0.002-0.113
											C334.166,137.04,333.781,136.588,333.682,136.086L333.682,136.086z"/>
										<path fill="#C8CCD6" d="M334.74,137.384l0.002,0.113c0.264,0.158,0.568,0.295,0.904,0.404l-0.001-0.112
											C335.309,137.681,335.004,137.544,334.74,137.384L334.74,137.384z"/>
										<path fill="#C8CCD6" d="M335.646,137.79l0.001,0.112c0.563,0.182,1.213,0.286,1.905,0.286
											c0.188,0,0.372-0.007,0.554-0.022l-0.001-0.112c-0.182,0.015-0.366,0.023-0.555,0.023
											C336.857,138.076,336.208,137.972,335.646,137.79L335.646,137.79z"/>
										<path fill="#C8CCD6" d="M338.104,138.053l0.001,0.112c0.856-0.07,1.624-0.302,2.209-0.64
											c0.71-0.409,1.15-0.975,1.154-1.599l-0.003-0.112c-0.003,0.625-0.443,1.19-1.151,1.6
											C339.729,137.751,338.96,137.983,338.104,138.053L338.104,138.053z"/>
									</g>
								</g>
								<g>
									<path fill="#FFFFFF" d="M334.805,134.212c-0.709,0.41-1.147,0.976-1.15,1.6c-0.011,1.25,1.733,2.264,3.896,2.264
										c1.077,0,2.055-0.253,2.765-0.663c0.708-0.409,1.148-0.975,1.151-1.6c0.008-1.251-1.736-2.265-3.895-2.264
										C336.492,133.549,335.515,133.803,334.805,134.212z"/>
								</g>
								<g>
									<path fill="#BFBFBF" d="M334.949,135.813c-0.007,0.836,1.158,1.514,2.605,1.514c0.719,0,1.373-0.169,1.847-0.444
										c0.107-0.062,0.204-0.128,0.291-0.201c0.301-0.245,0.479-0.544,0.479-0.868c0.006-0.837-1.162-1.514-2.604-1.513
										c-0.721,0-1.376,0.169-1.849,0.443c-0.179,0.103-0.331,0.219-0.452,0.348l-0.001,0.001
										C335.063,135.306,334.949,135.551,334.949,135.813z"/>
								</g>
								<g>
									<path fill="#F3F5F9" d="M334.949,135.813c-0.007,0.836,1.158,1.514,2.605,1.514c0.719,0,1.373-0.169,1.847-0.444
										c0.107-0.062,0.204-0.128,0.291-0.201c0.202-0.213,0.318-0.459,0.319-0.72c0.006-0.837-1.162-1.514-2.604-1.513
										c-0.721,0-1.376,0.169-1.85,0.443c-0.106,0.061-0.204,0.128-0.291,0.2l-0.001,0.001
										C335.063,135.306,334.949,135.551,334.949,135.813z"/>
								</g>
							</g>
						</g>
					</g>
				</g>
			</g>
			<g>
				<g>
					<g>
						<g>
							<g enable-background="new    ">
								<g enable-background="new    ">
									<g>
										<path fill="#C8CCD6" d="M342.659,140.454l0.001,0.112c0,0.093,0.008,0.185,0.025,0.275v-0.112
											C342.667,140.638,342.659,140.546,342.659,140.454L342.659,140.454z"/>
										<path fill="#C8CCD6" d="M342.686,140.728v0.112c0.101,0.501,0.486,0.952,1.061,1.299l-0.001-0.113
											C343.171,141.681,342.786,141.229,342.686,140.728L342.686,140.728z"/>
										<path fill="#C8CCD6" d="M343.745,142.026l0.001,0.113c0.264,0.158,0.569,0.295,0.904,0.404l-0.001-0.113
											C344.313,142.322,344.008,142.186,343.745,142.026L343.745,142.026z"/>
										<path fill="#C8CCD6" d="M344.649,142.431l0.001,0.113c0.563,0.182,1.213,0.286,1.905,0.286
											c0.188,0,0.373-0.007,0.554-0.022l-0.001-0.112c-0.181,0.015-0.366,0.023-0.554,0.023
											C345.862,142.717,345.212,142.614,344.649,142.431L344.649,142.431z"/>
										<path fill="#C8CCD6" d="M347.108,142.694l0.001,0.112c0.856-0.07,1.625-0.302,2.21-0.64
											c0.709-0.409,1.15-0.975,1.153-1.599l-0.002-0.112c-0.003,0.625-0.444,1.19-1.152,1.599
											C348.733,142.393,347.965,142.625,347.108,142.694L347.108,142.694z"/>
									</g>
								</g>
								<g>
									<path fill="#FFFFFF" d="M343.81,138.854c-0.709,0.41-1.148,0.976-1.15,1.6c-0.012,1.25,1.732,2.264,3.896,2.264
										c1.077,0,2.054-0.253,2.764-0.663c0.708-0.409,1.149-0.975,1.152-1.599c0.008-1.251-1.736-2.265-3.895-2.264
										C345.496,138.191,344.52,138.444,343.81,138.854z"/>
								</g>
								<g>
									<path fill="#BFBFBF" d="M343.953,140.454c-0.006,0.836,1.159,1.514,2.605,1.514c0.72,0,1.373-0.169,1.848-0.444
										c0.106-0.062,0.203-0.128,0.29-0.201c0.301-0.245,0.479-0.544,0.48-0.868c0.005-0.837-1.162-1.514-2.604-1.513
										c-0.722,0-1.376,0.168-1.85,0.443c-0.179,0.103-0.331,0.219-0.452,0.348l-0.001,0.001
										C344.068,139.947,343.953,140.193,343.953,140.454z"/>
								</g>
								<g>
									<path fill="#F3F5F9" d="M343.953,140.454c-0.006,0.836,1.159,1.514,2.605,1.514c0.72,0,1.373-0.169,1.848-0.444
										c0.106-0.062,0.203-0.128,0.29-0.201c0.202-0.213,0.318-0.459,0.319-0.72c0.006-0.837-1.162-1.514-2.604-1.513
										c-0.721,0-1.375,0.168-1.849,0.443c-0.107,0.061-0.205,0.128-0.292,0.2l-0.001,0.001
										C344.068,139.947,343.953,140.193,343.953,140.454z"/>
								</g>
							</g>
						</g>
						<g>
							<g enable-background="new    ">
								<g enable-background="new    ">
									<g>
										<path fill="#C8CCD6" d="M342.659,140.185l0.001,0.112c0,0.093,0.008,0.185,0.025,0.275v-0.112
											C342.667,140.37,342.659,140.278,342.659,140.185L342.659,140.185z"/>
										<path fill="#C8CCD6" d="M342.686,140.46v0.112c0.101,0.501,0.486,0.953,1.061,1.299l-0.001-0.113
											C343.171,141.413,342.786,140.961,342.686,140.46L342.686,140.46z"/>
										<path fill="#C8CCD6" d="M343.745,141.758l0.001,0.113c0.264,0.159,0.569,0.296,0.904,0.405l-0.001-0.113
											C344.313,142.054,344.008,141.917,343.745,141.758L343.745,141.758z"/>
										<path fill="#C8CCD6" d="M344.649,142.163l0.001,0.113c0.563,0.182,1.213,0.286,1.905,0.286
											c0.188,0,0.373-0.008,0.554-0.023l-0.001-0.112c-0.181,0.016-0.366,0.023-0.554,0.023
											C345.862,142.449,345.212,142.345,344.649,142.163L344.649,142.163z"/>
										<path fill="#C8CCD6" d="M347.108,142.426l0.001,0.112c0.856-0.07,1.625-0.302,2.21-0.64c0.709-0.41,1.15-0.975,1.153-1.6
											l-0.002-0.112c-0.003,0.625-0.444,1.19-1.152,1.599C348.733,142.124,347.965,142.356,347.108,142.426L347.108,142.426z"/>
									</g>
								</g>
								<g>
									<path fill="#FFFFFF" d="M343.81,138.585c-0.709,0.41-1.148,0.976-1.15,1.6c-0.012,1.25,1.732,2.264,3.896,2.264
										c1.077,0,2.054-0.253,2.764-0.663c0.708-0.409,1.149-0.975,1.152-1.599c0.008-1.251-1.736-2.265-3.895-2.264
										C345.496,137.922,344.52,138.176,343.81,138.585z"/>
								</g>
								<g>
									<path fill="#BFBFBF" d="M343.953,140.186c-0.006,0.836,1.159,1.514,2.605,1.514c0.72,0,1.373-0.169,1.848-0.444
										c0.106-0.062,0.203-0.128,0.29-0.201c0.301-0.245,0.479-0.544,0.48-0.868c0.005-0.837-1.162-1.514-2.604-1.513
										c-0.722,0-1.376,0.168-1.85,0.443c-0.179,0.102-0.331,0.219-0.452,0.348l-0.001,0
										C344.068,139.679,343.953,139.925,343.953,140.186z"/>
								</g>
								<g>
									<path fill="#F3F5F9" d="M343.953,140.186c-0.006,0.836,1.159,1.514,2.605,1.514c0.72,0,1.373-0.169,1.848-0.444
										c0.106-0.062,0.203-0.128,0.29-0.201c0.202-0.213,0.318-0.459,0.319-0.72c0.006-0.836-1.162-1.514-2.604-1.513
										c-0.721,0-1.375,0.168-1.849,0.443c-0.107,0.061-0.205,0.128-0.292,0.2l-0.001,0
										C344.068,139.679,343.953,139.925,343.953,140.186z"/>
								</g>
							</g>
						</g>
					</g>
					<g>
						<g>
							<g enable-background="new    ">
								<g enable-background="new    ">
									<g>
										<path fill="#C8CCD6" d="M342.659,139.909l0.001,0.112c0,0.093,0.008,0.185,0.025,0.275v-0.112
											C342.667,140.094,342.659,140.002,342.659,139.909L342.659,139.909z"/>
										<path fill="#C8CCD6" d="M342.686,140.184v0.112c0.101,0.501,0.486,0.952,1.061,1.299l-0.001-0.113
											C343.171,141.137,342.786,140.685,342.686,140.184L342.686,140.184z"/>
										<path fill="#C8CCD6" d="M343.745,141.481l0.001,0.113c0.264,0.158,0.569,0.295,0.904,0.404l-0.001-0.113
											C344.313,141.778,344.008,141.641,343.745,141.481L343.745,141.481z"/>
										<path fill="#C8CCD6" d="M344.649,141.886l0.001,0.113c0.563,0.182,1.213,0.286,1.905,0.286
											c0.188,0,0.373-0.007,0.554-0.022l-0.001-0.112c-0.181,0.015-0.366,0.023-0.554,0.023
											C345.862,142.173,345.212,142.069,344.649,141.886L344.649,141.886z"/>
										<path fill="#C8CCD6" d="M347.108,142.15l0.001,0.112c0.856-0.07,1.625-0.302,2.21-0.64
											c0.709-0.409,1.15-0.975,1.153-1.599l-0.002-0.112c-0.003,0.625-0.444,1.19-1.152,1.599
											C348.733,141.848,347.965,142.08,347.108,142.15L347.108,142.15z"/>
									</g>
								</g>
								<g>
									<path fill="#FFFFFF" d="M343.81,138.309c-0.709,0.409-1.148,0.976-1.15,1.6c-0.012,1.25,1.732,2.264,3.896,2.264
										c1.077,0,2.054-0.253,2.764-0.663c0.708-0.409,1.149-0.975,1.152-1.599c0.008-1.251-1.736-2.265-3.895-2.264
										C345.496,137.646,344.52,137.9,343.81,138.309z"/>
								</g>
								<g>
									<path fill="#BFBFBF" d="M343.953,139.91c-0.006,0.836,1.159,1.514,2.605,1.514c0.72,0,1.373-0.169,1.848-0.444
										c0.106-0.062,0.203-0.128,0.29-0.201c0.301-0.245,0.479-0.544,0.48-0.868c0.005-0.837-1.162-1.514-2.604-1.513
										c-0.722,0-1.376,0.168-1.85,0.443c-0.179,0.102-0.331,0.219-0.452,0.348l-0.001,0.001
										C344.068,139.403,343.953,139.648,343.953,139.91z"/>
								</g>
								<g>
									<path fill="#F3F5F9" d="M343.953,139.91c-0.006,0.836,1.159,1.514,2.605,1.514c0.72,0,1.373-0.169,1.848-0.444
										c0.106-0.062,0.203-0.128,0.29-0.201c0.202-0.213,0.318-0.459,0.319-0.72c0.006-0.837-1.162-1.514-2.604-1.513
										c-0.721,0-1.375,0.168-1.849,0.443c-0.107,0.061-0.205,0.128-0.292,0.2l-0.001,0.001
										C344.068,139.403,343.953,139.648,343.953,139.91z"/>
								</g>
							</g>
						</g>
						<g>
							<g enable-background="new    ">
								<g enable-background="new    ">
									<g>
										<path fill="#C8CCD6" d="M342.659,139.641l0.001,0.112c0,0.093,0.008,0.185,0.025,0.275v-0.112
											C342.667,139.825,342.659,139.734,342.659,139.641L342.659,139.641z"/>
										<path fill="#C8CCD6" d="M342.686,139.916v0.112c0.101,0.501,0.486,0.952,1.061,1.299l-0.001-0.113
											C343.171,140.869,342.786,140.417,342.686,139.916L342.686,139.916z"/>
										<path fill="#C8CCD6" d="M343.745,141.213l0.001,0.113c0.264,0.158,0.569,0.296,0.904,0.404l-0.001-0.112
											C344.313,141.509,344.008,141.373,343.745,141.213L343.745,141.213z"/>
										<path fill="#C8CCD6" d="M344.649,141.618l0.001,0.112c0.563,0.183,1.213,0.286,1.905,0.286
											c0.188,0,0.373-0.008,0.554-0.023l-0.001-0.112c-0.181,0.016-0.366,0.023-0.554,0.023
											C345.862,141.904,345.212,141.801,344.649,141.618L344.649,141.618z"/>
										<path fill="#C8CCD6" d="M347.108,141.881l0.001,0.112c0.856-0.07,1.625-0.302,2.21-0.64
											c0.709-0.409,1.15-0.975,1.153-1.599l-0.002-0.112c-0.003,0.625-0.444,1.19-1.152,1.599
											C348.733,141.58,347.965,141.812,347.108,141.881L347.108,141.881z"/>
									</g>
								</g>
								<g>
									<path fill="#FFFFFF" d="M343.81,138.041c-0.709,0.409-1.148,0.976-1.15,1.6c-0.012,1.25,1.732,2.264,3.896,2.264
										c1.077,0,2.054-0.253,2.764-0.663c0.708-0.409,1.149-0.975,1.152-1.599c0.008-1.252-1.736-2.266-3.895-2.264
										C345.496,137.378,344.52,137.631,343.81,138.041z"/>
								</g>
								<g>
									<path fill="#BFBFBF" d="M343.953,139.641c-0.006,0.836,1.159,1.514,2.605,1.514c0.72,0,1.373-0.17,1.848-0.444
										c0.106-0.062,0.203-0.128,0.29-0.201c0.301-0.245,0.479-0.544,0.48-0.868c0.005-0.837-1.162-1.514-2.604-1.513
										c-0.722,0-1.376,0.169-1.85,0.443c-0.179,0.102-0.331,0.219-0.452,0.348l-0.001,0.001
										C344.068,139.134,343.953,139.38,343.953,139.641z"/>
								</g>
								<g>
									<path fill="#F3F5F9" d="M343.953,139.641c-0.006,0.836,1.159,1.514,2.605,1.514c0.72,0,1.373-0.17,1.848-0.444
										c0.106-0.062,0.203-0.128,0.29-0.201c0.202-0.213,0.318-0.459,0.319-0.72c0.006-0.837-1.162-1.514-2.604-1.513
										c-0.721,0-1.375,0.168-1.849,0.443c-0.107,0.061-0.205,0.128-0.292,0.2l-0.001,0.001
										C344.068,139.134,343.953,139.38,343.953,139.641z"/>
								</g>
							</g>
						</g>
					</g>
				</g>
				<g>
					<g>
						<g>
							<g enable-background="new    ">
								<g enable-background="new    ">
									<g>
										<path fill="#C8CCD6" d="M342.659,139.355l0.001,0.112c0,0.093,0.008,0.185,0.025,0.275v-0.112
											C342.667,139.54,342.659,139.448,342.659,139.355L342.659,139.355z"/>
										<path fill="#C8CCD6" d="M342.686,139.629v0.112c0.101,0.501,0.486,0.952,1.061,1.299l-0.001-0.113
											C343.171,140.583,342.786,140.131,342.686,139.629L342.686,139.629z"/>
										<path fill="#C8CCD6" d="M343.745,140.928l0.001,0.113c0.264,0.158,0.569,0.295,0.904,0.404l-0.001-0.112
											C344.313,141.224,344.008,141.087,343.745,140.928L343.745,140.928z"/>
										<path fill="#C8CCD6" d="M344.649,141.333l0.001,0.112c0.563,0.182,1.213,0.286,1.905,0.286
											c0.188,0,0.373-0.007,0.554-0.022l-0.001-0.112c-0.181,0.016-0.366,0.023-0.554,0.023
											C345.862,141.619,345.212,141.515,344.649,141.333L344.649,141.333z"/>
										<path fill="#C8CCD6" d="M347.108,141.596l0.001,0.112c0.856-0.07,1.625-0.302,2.21-0.64
											c0.709-0.409,1.15-0.975,1.153-1.599l-0.002-0.112c-0.003,0.625-0.444,1.19-1.152,1.599
											C348.733,141.294,347.965,141.526,347.108,141.596L347.108,141.596z"/>
									</g>
								</g>
								<g>
									<path fill="#FFFFFF" d="M343.81,137.755c-0.709,0.41-1.148,0.976-1.15,1.6c-0.012,1.25,1.732,2.264,3.896,2.264
										c1.077,0,2.054-0.253,2.764-0.663c0.708-0.409,1.149-0.975,1.152-1.599c0.008-1.252-1.736-2.266-3.895-2.264
										C345.496,137.092,344.52,137.346,343.81,137.755z"/>
								</g>
								<g>
									<path fill="#BFBFBF" d="M343.953,139.355c-0.006,0.836,1.159,1.514,2.605,1.514c0.72,0,1.373-0.17,1.848-0.444
										c0.106-0.062,0.203-0.128,0.29-0.201c0.301-0.245,0.479-0.544,0.48-0.868c0.005-0.837-1.162-1.514-2.604-1.513
										c-0.722,0-1.376,0.169-1.85,0.443c-0.179,0.102-0.331,0.219-0.452,0.348l-0.001,0.001
										C344.068,138.849,343.953,139.095,343.953,139.355z"/>
								</g>
								<g>
									<path fill="#F3F5F9" d="M343.953,139.355c-0.006,0.836,1.159,1.514,2.605,1.514c0.72,0,1.373-0.17,1.848-0.444
										c0.106-0.062,0.203-0.128,0.29-0.201c0.202-0.213,0.318-0.459,0.319-0.72c0.006-0.837-1.162-1.514-2.604-1.513
										c-0.721,0-1.375,0.169-1.849,0.443c-0.107,0.061-0.205,0.128-0.292,0.2l-0.001,0.001
										C344.068,138.849,343.953,139.095,343.953,139.355z"/>
								</g>
							</g>
						</g>
						<g>
							<g enable-background="new    ">
								<g enable-background="new    ">
									<g>
										<path fill="#C8CCD6" d="M342.659,139.086l0.001,0.112c0,0.093,0.008,0.185,0.025,0.274v-0.112
											C342.667,139.271,342.659,139.18,342.659,139.086L342.659,139.086z"/>
										<path fill="#C8CCD6" d="M342.686,139.361v0.112c0.101,0.501,0.486,0.953,1.061,1.299l-0.001-0.113
											C343.171,140.314,342.786,139.863,342.686,139.361L342.686,139.361z"/>
										<path fill="#C8CCD6" d="M343.745,140.659l0.001,0.113c0.264,0.159,0.569,0.296,0.904,0.405l-0.001-0.113
											C344.313,140.955,344.008,140.819,343.745,140.659L343.745,140.659z"/>
										<path fill="#C8CCD6" d="M344.649,141.064l0.001,0.113c0.563,0.182,1.213,0.286,1.905,0.286
											c0.188,0,0.373-0.008,0.554-0.023l-0.001-0.112c-0.181,0.016-0.366,0.023-0.554,0.023
											C345.862,141.35,345.212,141.247,344.649,141.064L344.649,141.064z"/>
										<path fill="#C8CCD6" d="M347.108,141.327l0.001,0.112c0.856-0.07,1.625-0.302,2.21-0.64
											c0.709-0.41,1.15-0.975,1.153-1.599l-0.002-0.112c-0.003,0.625-0.444,1.19-1.152,1.599
											C348.733,141.025,347.965,141.257,347.108,141.327L347.108,141.327z"/>
									</g>
								</g>
								<g>
									<path fill="#FFFFFF" d="M343.81,137.487c-0.709,0.409-1.148,0.976-1.15,1.6c-0.012,1.25,1.732,2.264,3.896,2.264
										c1.077,0,2.054-0.253,2.764-0.663c0.708-0.409,1.149-0.975,1.152-1.599c0.008-1.251-1.736-2.265-3.895-2.264
										C345.496,136.824,344.52,137.077,343.81,137.487z"/>
								</g>
								<g>
									<path fill="#BFBFBF" d="M343.953,139.087c-0.006,0.836,1.159,1.514,2.605,1.514c0.72,0,1.373-0.169,1.848-0.444
										c0.106-0.062,0.203-0.128,0.29-0.201c0.301-0.245,0.479-0.544,0.48-0.868c0.005-0.837-1.162-1.514-2.604-1.513
										c-0.722,0-1.376,0.168-1.85,0.443c-0.179,0.102-0.331,0.219-0.452,0.348l-0.001,0
										C344.068,138.581,343.953,138.826,343.953,139.087z"/>
								</g>
								<g>
									<path fill="#F3F5F9" d="M343.953,139.087c-0.006,0.836,1.159,1.514,2.605,1.514c0.72,0,1.373-0.169,1.848-0.444
										c0.106-0.062,0.203-0.128,0.29-0.201c0.202-0.213,0.318-0.459,0.319-0.72c0.006-0.836-1.162-1.514-2.604-1.513
										c-0.721,0-1.375,0.168-1.849,0.443c-0.107,0.061-0.205,0.128-0.292,0.2l-0.001,0
										C344.068,138.581,343.953,138.826,343.953,139.087z"/>
								</g>
							</g>
						</g>
					</g>
					<g>
						<g>
							<g enable-background="new    ">
								<g enable-background="new    ">
									<g>
										<path fill="#C8CCD6" d="M342.659,138.811l0.001,0.112c0,0.093,0.008,0.185,0.025,0.275v-0.112
											C342.667,138.995,342.659,138.904,342.659,138.811L342.659,138.811z"/>
										<path fill="#C8CCD6" d="M342.686,139.085v0.112c0.101,0.501,0.486,0.952,1.061,1.299l-0.001-0.113
											C343.171,140.038,342.786,139.587,342.686,139.085L342.686,139.085z"/>
										<path fill="#C8CCD6" d="M343.745,140.383l0.001,0.113c0.264,0.158,0.569,0.295,0.904,0.404l-0.001-0.112
											C344.313,140.679,344.008,140.542,343.745,140.383L343.745,140.383z"/>
										<path fill="#C8CCD6" d="M344.649,140.788l0.001,0.112c0.563,0.182,1.213,0.286,1.905,0.286
											c0.188,0,0.373-0.008,0.554-0.023l-0.001-0.112c-0.181,0.015-0.366,0.023-0.554,0.023
											C345.862,141.074,345.212,140.971,344.649,140.788L344.649,140.788z"/>
										<path fill="#C8CCD6" d="M347.108,141.051l0.001,0.112c0.856-0.07,1.625-0.302,2.21-0.64
											c0.709-0.409,1.15-0.975,1.153-1.599l-0.002-0.112c-0.003,0.625-0.444,1.19-1.152,1.599
											C348.733,140.75,347.965,140.981,347.108,141.051L347.108,141.051z"/>
									</g>
								</g>
								<g>
									<path fill="#FFFFFF" d="M343.81,137.21c-0.709,0.41-1.148,0.976-1.15,1.6c-0.012,1.25,1.732,2.264,3.896,2.264
										c1.077,0,2.054-0.253,2.764-0.663c0.708-0.409,1.149-0.975,1.152-1.599c0.008-1.252-1.736-2.266-3.895-2.264
										C345.496,136.548,344.52,136.801,343.81,137.21z"/>
								</g>
								<g>
									<path fill="#BFBFBF" d="M343.953,138.811c-0.006,0.836,1.159,1.514,2.605,1.514c0.72,0,1.373-0.17,1.848-0.444
										c0.106-0.062,0.203-0.128,0.29-0.201c0.301-0.245,0.479-0.544,0.48-0.868c0.005-0.837-1.162-1.514-2.604-1.513
										c-0.722,0-1.376,0.169-1.85,0.443c-0.179,0.102-0.331,0.219-0.452,0.348l-0.001,0.001
										C344.068,138.304,343.953,138.55,343.953,138.811z"/>
								</g>
								<g>
									<path fill="#F3F5F9" d="M343.953,138.811c-0.006,0.836,1.159,1.514,2.605,1.514c0.72,0,1.373-0.17,1.848-0.444
										c0.106-0.062,0.203-0.128,0.29-0.201c0.202-0.213,0.318-0.459,0.319-0.72c0.006-0.837-1.162-1.514-2.604-1.513
										c-0.721,0-1.375,0.169-1.849,0.443c-0.107,0.061-0.205,0.128-0.292,0.2l-0.001,0.001
										C344.068,138.304,343.953,138.55,343.953,138.811z"/>
								</g>
							</g>
						</g>
						<g>
							<g enable-background="new    ">
								<g enable-background="new    ">
									<g>
										<path fill="#C8CCD6" d="M342.659,138.542l0.001,0.112c0,0.093,0.008,0.185,0.025,0.275v-0.112
											C342.667,138.727,342.659,138.635,342.659,138.542L342.659,138.542z"/>
										<path fill="#C8CCD6" d="M342.686,138.817v0.112c0.101,0.501,0.486,0.953,1.061,1.299l-0.001-0.113
											C343.171,139.77,342.786,139.318,342.686,138.817L342.686,138.817z"/>
										<path fill="#C8CCD6" d="M343.745,140.115l0.001,0.113c0.264,0.159,0.569,0.296,0.904,0.405l-0.001-0.113
											C344.313,140.411,344.008,140.274,343.745,140.115L343.745,140.115z"/>
										<path fill="#C8CCD6" d="M344.649,140.52l0.001,0.113c0.563,0.182,1.213,0.286,1.905,0.286
											c0.188,0,0.373-0.008,0.554-0.023l-0.001-0.112c-0.181,0.016-0.366,0.023-0.554,0.023
											C345.862,140.806,345.212,140.702,344.649,140.52L344.649,140.52z"/>
										<path fill="#C8CCD6" d="M347.108,140.783l0.001,0.112c0.856-0.07,1.625-0.302,2.21-0.64
											c0.709-0.409,1.15-0.975,1.153-1.599l-0.002-0.112c-0.003,0.625-0.444,1.19-1.152,1.599
											C348.733,140.481,347.965,140.713,347.108,140.783L347.108,140.783z"/>
									</g>
								</g>
								<g>
									<path fill="#FFFFFF" d="M343.81,136.942c-0.709,0.409-1.148,0.976-1.15,1.6c-0.012,1.25,1.732,2.264,3.896,2.264
										c1.077,0,2.054-0.253,2.764-0.663c0.708-0.409,1.149-0.975,1.152-1.599c0.008-1.252-1.736-2.265-3.895-2.264
										C345.496,136.279,344.52,136.533,343.81,136.942z"/>
								</g>
								<g>
									<path fill="#BFBFBF" d="M343.953,138.542c-0.006,0.836,1.159,1.514,2.605,1.514c0.72,0,1.373-0.169,1.848-0.444
										c0.106-0.062,0.203-0.128,0.29-0.201c0.301-0.245,0.479-0.544,0.48-0.868c0.005-0.836-1.162-1.514-2.604-1.513
										c-0.722,0-1.376,0.169-1.85,0.443c-0.179,0.102-0.331,0.219-0.452,0.348l-0.001,0
										C344.068,138.036,343.953,138.282,343.953,138.542z"/>
								</g>
								<g>
									<path fill="#F3F5F9" d="M343.953,138.542c-0.006,0.836,1.159,1.514,2.605,1.514c0.72,0,1.373-0.169,1.848-0.444
										c0.106-0.062,0.203-0.128,0.29-0.201c0.202-0.213,0.318-0.459,0.319-0.72c0.006-0.837-1.162-1.514-2.604-1.513
										c-0.721,0-1.375,0.168-1.849,0.443c-0.107,0.061-0.205,0.128-0.292,0.2l-0.001,0
										C344.068,138.036,343.953,138.282,343.953,138.542z"/>
								</g>
							</g>
						</g>
					</g>
				</g>
			</g>
		</g>
		<g>
			<g enable-background="new    ">
				<g enable-background="new    ">
					<g enable-background="new    ">
						<path fill="#AFB7C7" d="M329.095,123.818l0.02,14.191c0.001,0.044,0.021,0.087,0.062,0.126l-0.02-14.191
							C329.116,123.905,329.096,123.862,329.095,123.818L329.095,123.818z"/>
						<path fill="#E6EAF2" d="M329.156,123.944l0.02,14.191c0.018,0.016,0.037,0.031,0.062,0.045
							c0.065,0.038,0.148,0.061,0.234,0.069l-0.02-14.191c-0.086-0.007-0.169-0.03-0.234-0.069
							C329.194,123.975,329.174,123.96,329.156,123.944L329.156,123.944z"/>
						<path fill="#AFB7C7" d="M329.452,124.058l0.02,14.191c0.127,0.011,0.262-0.012,0.36-0.069
							c0.082-0.047,0.122-0.109,0.122-0.172l-0.02-14.191c0,0.062-0.04,0.125-0.122,0.171
							C329.714,124.046,329.579,124.068,329.452,124.058L329.452,124.058z"/>
					</g>
				</g>
				<g>
					<path fill="#B2B5BB" d="M329.22,123.645c-0.165,0.096-0.166,0.249-0.002,0.344c0.162,0.095,0.43,0.096,0.595,0
						c0.163-0.094,0.162-0.249,0-0.343C329.648,123.55,329.383,123.55,329.22,123.645z"/>
				</g>
			</g>
		</g>
		<g>
			<g enable-background="new    ">
				<g enable-background="new    ">
					<g enable-background="new    ">
						<path fill="#AFB7C7" d="M345.657,133.259l0.02,14.191c0.001,0.044,0.021,0.087,0.062,0.126l-0.02-14.191
							C345.678,133.347,345.658,133.303,345.657,133.259L345.657,133.259z"/>
						<path fill="#E6EAF2" d="M345.719,133.385l0.02,14.191c0.018,0.016,0.037,0.031,0.062,0.045
							c0.065,0.038,0.148,0.061,0.234,0.069l-0.02-14.191c-0.086-0.007-0.169-0.03-0.234-0.068
							C345.756,133.416,345.736,133.401,345.719,133.385L345.719,133.385z"/>
						<path fill="#AFB7C7" d="M346.015,133.499l0.02,14.191c0.127,0.011,0.262-0.012,0.36-0.069
							c0.082-0.047,0.122-0.109,0.122-0.172l-0.02-14.191c0,0.062-0.041,0.125-0.122,0.172
							C346.276,133.487,346.142,133.51,346.015,133.499L346.015,133.499z"/>
					</g>
				</g>
				<g>
					<path fill="#B2B5BB" d="M345.782,133.086c-0.165,0.095-0.166,0.249-0.002,0.344c0.162,0.094,0.429,0.095,0.595,0
						c0.163-0.094,0.162-0.249,0-0.343C346.211,132.991,345.945,132.991,345.782,133.086z"/>
				</g>
			</g>
		</g>
		<g>
			<g enable-background="new    ">
				<g enable-background="new    ">
					<g enable-background="new    ">
						<path fill="#AFB7C7" d="M352.205,129.47l0.02,14.191c0,0.043,0.021,0.087,0.062,0.126l-0.02-14.191
							C352.226,129.558,352.205,129.514,352.205,129.47L352.205,129.47z"/>
						<path fill="#E6EAF2" d="M352.267,129.596l0.02,14.191c0.017,0.016,0.037,0.031,0.062,0.045
							c0.065,0.038,0.147,0.061,0.234,0.068l-0.02-14.191c-0.087-0.007-0.169-0.03-0.234-0.068
							C352.304,129.627,352.283,129.612,352.267,129.596L352.267,129.596z"/>
						<path fill="#AFB7C7" d="M352.563,129.709l0.02,14.191c0.127,0.011,0.262-0.012,0.359-0.068
							c0.082-0.047,0.123-0.11,0.123-0.172l-0.02-14.191c0,0.063-0.041,0.125-0.123,0.172
							C352.824,129.698,352.689,129.721,352.563,129.709L352.563,129.709z"/>
					</g>
				</g>
				<g>
					<path fill="#B2B5BB" d="M352.33,129.297c-0.166,0.095-0.166,0.249-0.002,0.344c0.162,0.094,0.429,0.096,0.594,0
						c0.164-0.094,0.163-0.249,0.001-0.343C352.758,129.202,352.493,129.202,352.33,129.297z"/>
				</g>
			</g>
		</g>
	</g>
	<g>
		<g>
			<g enable-background="new    ">
				<g enable-background="new    ">
					<g enable-background="new    ">
						<path fill="#AFB7C7" d="M335.643,105.625l0.02,14.191c0,0.044,0.021,0.087,0.062,0.126l-0.02-14.191
							C335.663,105.712,335.643,105.668,335.643,105.625L335.643,105.625z"/>
						<path fill="#E6EAF2" d="M335.704,105.75l0.02,14.191c0.017,0.016,0.037,0.031,0.062,0.045
							c0.065,0.038,0.147,0.061,0.234,0.069L336,105.864c-0.087-0.007-0.169-0.03-0.234-0.068
							C335.741,105.781,335.721,105.766,335.704,105.75L335.704,105.75z"/>
						<path fill="#AFB7C7" d="M336,105.864l0.02,14.191c0.127,0.011,0.262-0.012,0.359-0.069c0.082-0.047,0.123-0.109,0.123-0.172
							l-0.02-14.191c0,0.062-0.041,0.125-0.123,0.172C336.262,105.852,336.127,105.875,336,105.864L336,105.864z"/>
					</g>
				</g>
				<g>
					<path fill="#B2B5BB" d="M335.768,105.451c-0.165,0.096-0.166,0.249-0.002,0.345c0.162,0.094,0.429,0.095,0.594,0
						c0.164-0.095,0.163-0.249,0.001-0.344C336.195,105.356,335.931,105.356,335.768,105.451z"/>
				</g>
			</g>
		</g>
		<g>
			<g>
				<polygon fill="#AFB7C7" points="354.028,129.276 354.028,129.993 346.336,134.462 346.336,126.475 				"/>
				<polygon fill="#CCD3E3" points="346.336,126.475 346.336,134.462 328.516,124.163 328.516,123.447 				"/>
			</g>
			<polygon fill="#343848" points="328.516,123.447 336.208,118.977 354.028,129.276 346.336,133.746 			"/>
			<g>
				<path fill="#282D3E" d="M335.13,122.728c-1.577,0.91-1.585,2.387-0.018,3.298c1.565,0.909,4.114,0.909,5.691,0
					c1.577-0.911,1.586-2.387,0.019-3.298C339.255,121.818,336.707,121.818,335.13,122.728z"/>
			</g>
			<g>
				<path fill="#282D3E" d="M343.429,127.254c-1.577,0.91-1.585,2.387-0.018,3.298c1.565,0.909,4.113,0.909,5.691,0
					c1.576-0.911,1.585-2.387,0.019-3.298C347.553,126.344,345.006,126.344,343.429,127.254z"/>
			</g>
		</g>
		<g>
			<g>
				<g>
					<g>
						<g enable-background="new    ">
							<g>
								<polygon fill="#242C2E" points="343.764,122.782 343.763,123.054 341.992,124.083 341.992,123.812 								"/>
							</g>
							<g enable-background="new    ">
								<g enable-background="new    ">
									<path fill="#1F2628" d="M341.992,123.812v0.271c-0.314-0.189-0.477-0.425-0.477-0.647l0.002-0.271
										C341.518,123.386,341.68,123.623,341.992,123.812L341.992,123.812z"/>
								</g>
							</g>
							<g>
								<path fill="#293134" d="M343.764,122.782l-1.771,1.03c-0.564-0.341-0.637-0.836-0.156-1.116
									C342.318,122.417,343.173,122.456,343.764,122.782z"/>
							</g>
						</g>
					</g>
					<g>
						<g>
							<g enable-background="new    ">
								<g>
									<path fill="#909DC1" d="M347.193,125.462v5.255c-0.596,0.129-1.237,0.169-1.86,0.119l-0.092-5.233
										C345.896,125.655,346.571,125.608,347.193,125.462z"/>
									<path fill="#828FB2" d="M348.464,124.978c0.752-0.434,1.126-1.003,1.125-1.572l0.095,5.232
										c0,0.568-0.374,1.138-1.127,1.573c-0.399,0.231-0.866,0.399-1.363,0.506v-5.255
										C347.655,125.355,348.089,125.193,348.464,124.978z"/>
								</g>
								<g>
									<path fill="#DCE2F2" d="M343.092,121.854c-1.493,0.862-1.501,2.26-0.017,3.123c1.482,0.861,3.895,0.861,5.389,0
										c1.492-0.863,1.501-2.26,0.018-3.123C346.997,120.993,344.585,120.993,343.092,121.854z"/>
								</g>
								<g>
									<path fill="#A1B0D5" d="M343.321,121.989c-1.366,0.788-1.373,2.066-0.017,2.854s3.564,0.788,4.93,0
										c1.364-0.788,1.372-2.066,0.017-2.854C346.893,121.2,344.688,121.2,343.321,121.989z"/>
								</g>
							</g>
						</g>
					</g>
					<g>
						<g enable-background="new    ">
							<g enable-background="new    ">
								<g enable-background="new    ">
									<path fill="#1F2628" d="M349.799,125.939v0.271c0,0.11-0.041,0.217-0.123,0.312v-0.271
										C349.759,126.156,349.799,126.05,349.799,125.939L349.799,125.939z"/>
									<path fill="#272F32" d="M349.676,126.251v0.271c-0.051,0.057-0.114,0.11-0.195,0.157c-0.153,0.087-0.343,0.145-0.55,0.169
										l0.002-0.271c0.206-0.026,0.396-0.082,0.548-0.171C349.562,126.361,349.626,126.309,349.676,126.251L349.676,126.251z"/>
									<path fill="#1F2628" d="M348.933,126.579l-0.002,0.271c-0.446,0.056-0.974-0.034-1.378-0.256v-0.272
										C347.957,126.545,348.485,126.633,348.933,126.579L348.933,126.579z"/>
								</g>
							</g>
							<g>
								<path fill="#293134" d="M349.324,125.292c0.565,0.342,0.638,0.836,0.156,1.116c-0.481,0.28-1.336,0.24-1.928-0.086
									L349.324,125.292z"/>
							</g>
						</g>
					</g>
					<path fill="#BECBE7" d="M349.585,123.515c-0.044,0.531-0.418,1.056-1.122,1.461c-1.493,0.862-3.905,0.862-5.388,0
						c-0.914-0.531-1.167-1.224-1.104-1.661c0.021-1.262,1.736-2.62,3.807-2.62C348.508,120.696,349.69,122.625,349.585,123.515z"/>
				</g>
				<path fill="#293134" d="M345.144,120.996c0-0.208,0.285-0.377,0.634-0.377s0.634,0.169,0.634,0.377v0.45h-0.001
					c-0.007,0.091-0.071,0.182-0.194,0.25c-0.252,0.14-0.653,0.137-0.896-0.009c-0.112-0.067-0.17-0.154-0.176-0.241h-0.001V120.996
					z"/>
			</g>
			<g>
				<path fill="#909DC1" d="M343.075,124.978c-0.737-0.429-1.108-0.99-1.109-1.55l0.094,5.232c0.001,0.54,0.347,1.077,1.027,1.5
					v-5.175C343.083,124.981,343.079,124.979,343.075,124.978z"/>
				<path fill="#A1B0D5" d="M345.333,130.836l-0.092-5.233c-0.789-0.063-1.548-0.27-2.154-0.619v5.175
					c0.027,0.017,0.052,0.035,0.08,0.052C343.775,130.564,344.541,130.772,345.333,130.836z"/>
			</g>
		</g>
		<g>
			<g>
				<g enable-background="new    ">
					<g>
						<polygon fill="#242C2E" points="335.32,116.229 335.319,116.505 333.521,117.549 333.521,117.274 						"/>
					</g>
					<g enable-background="new    ">
						<g enable-background="new    ">
							<path fill="#1F2628" d="M333.521,117.274v0.275c-0.319-0.192-0.484-0.433-0.484-0.658l0.002-0.275
								C333.039,116.841,333.203,117.082,333.521,117.274L333.521,117.274z"/>
						</g>
					</g>
					<g>
						<path fill="#293134" d="M335.32,116.229l-1.799,1.046c-0.573-0.346-0.646-0.85-0.159-1.134
							C333.854,115.857,334.721,115.897,335.32,116.229z"/>
					</g>
				</g>
			</g>
			<g>
				<g>
					<g enable-background="new    ">
						<g enable-background="new    ">
							<g enable-background="new    ">
								<path fill="#A1B0D5" d="M333.494,116.883l0.096,6.98c0.001,0.571,0.377,1.14,1.125,1.576c0.618,0.359,1.396,0.571,2.2,0.636
									l-0.094-6.982c-0.807-0.065-1.582-0.276-2.2-0.635C333.872,118.022,333.496,117.453,333.494,116.883L333.494,116.883z"/>
								<g>
									<path fill="#BECBE7" d="M338.805,118.951v7.003c-0.606,0.131-1.257,0.172-1.89,0.121l-0.094-6.982
										C337.487,119.146,338.172,119.099,338.805,118.951z"/>
									<path fill="#A1B0D5" d="M340.094,118.458c0.765-0.441,1.145-1.019,1.144-1.597l0.096,6.981
										c0.001,0.577-0.38,1.156-1.145,1.597c-0.405,0.235-0.88,0.406-1.384,0.515v-7.003
										C339.273,118.841,339.713,118.678,340.094,118.458z"/>
								</g>
							</g>
						</g>
						<g>
							<path fill="#DCE2F2" d="M334.638,115.286c-1.517,0.875-1.524,2.296-0.017,3.172c1.506,0.875,3.956,0.875,5.473,0
								c1.517-0.876,1.525-2.295,0.019-3.172C338.604,114.411,336.154,114.411,334.638,115.286z"/>
						</g>
						<g>
							<path fill="#A1B0D5" d="M334.901,115.44c-1.371,0.791-1.377,2.074-0.017,2.864c1.361,0.791,3.576,0.791,4.946,0
								c1.369-0.791,1.376-2.074,0.017-2.864C338.484,114.648,336.272,114.648,334.901,115.44z"/>
						</g>
					</g>
				</g>
			</g>
			<g>
				<g enable-background="new    ">
					<g enable-background="new    ">
						<g enable-background="new    ">
							<path fill="#1F2628" d="M341.45,119.435v0.276c0,0.112-0.041,0.221-0.125,0.317v-0.276
								C341.409,119.656,341.45,119.547,341.45,119.435L341.45,119.435z"/>
							<path fill="#272F32" d="M341.325,119.752v0.276c-0.052,0.058-0.116,0.111-0.198,0.16c-0.155,0.088-0.348,0.147-0.559,0.172
								l0.002-0.276c0.209-0.026,0.402-0.083,0.557-0.173C341.209,119.863,341.275,119.811,341.325,119.752L341.325,119.752z"/>
							<path fill="#1F2628" d="M340.57,120.084l-0.002,0.276c-0.453,0.057-0.988-0.035-1.399-0.26v-0.276
								C339.58,120.05,340.116,120.14,340.57,120.084L340.57,120.084z"/>
						</g>
					</g>
					<g>
						<path fill="#293134" d="M340.969,118.777c0.573,0.347,0.647,0.849,0.158,1.134c-0.488,0.284-1.356,0.243-1.958-0.088
							L340.969,118.777z"/>
					</g>
				</g>
			</g>
		</g>
		<g>
			<g enable-background="new    ">
				<g enable-background="new    ">
					<g enable-background="new    ">
						<path fill="#AFB7C7" d="M329.095,109.413l0.02,14.191c0.001,0.044,0.021,0.087,0.062,0.126l-0.02-14.191
							C329.116,109.5,329.096,109.457,329.095,109.413L329.095,109.413z"/>
						<path fill="#E6EAF2" d="M329.156,109.539l0.02,14.191c0.018,0.016,0.037,0.031,0.062,0.045
							c0.065,0.038,0.148,0.061,0.234,0.068l-0.02-14.191c-0.086-0.008-0.169-0.031-0.234-0.069
							C329.194,109.57,329.174,109.555,329.156,109.539L329.156,109.539z"/>
						<path fill="#AFB7C7" d="M329.452,109.653l0.02,14.191c0.127,0.011,0.262-0.011,0.36-0.068
							c0.082-0.047,0.122-0.109,0.122-0.172l-0.02-14.191c0,0.063-0.04,0.125-0.122,0.172
							C329.714,109.641,329.579,109.664,329.452,109.653L329.452,109.653z"/>
					</g>
				</g>
				<g>
					<path fill="#B2B5BB" d="M329.22,109.24c-0.165,0.095-0.166,0.249-0.002,0.344c0.162,0.095,0.43,0.096,0.595,0
						c0.163-0.094,0.162-0.249,0-0.343C329.648,109.146,329.383,109.146,329.22,109.24z"/>
				</g>
			</g>
		</g>
		<g>
			<g enable-background="new    ">
				<g enable-background="new    ">
					<g enable-background="new    ">
						<path fill="#AFB7C7" d="M345.657,118.854l0.02,14.191c0.001,0.044,0.021,0.087,0.062,0.126l-0.02-14.191
							C345.678,118.942,345.658,118.898,345.657,118.854L345.657,118.854z"/>
						<path fill="#E6EAF2" d="M345.719,118.98l0.02,14.191c0.018,0.016,0.037,0.031,0.062,0.045
							c0.065,0.038,0.148,0.061,0.234,0.068l-0.02-14.191c-0.086-0.007-0.169-0.03-0.234-0.069
							C345.756,119.011,345.736,118.996,345.719,118.98L345.719,118.98z"/>
						<path fill="#AFB7C7" d="M346.015,119.094l0.02,14.191c0.127,0.011,0.262-0.011,0.36-0.068
							c0.082-0.047,0.122-0.109,0.122-0.172l-0.02-14.191c0,0.062-0.041,0.125-0.122,0.171
							C346.276,119.082,346.142,119.104,346.015,119.094L346.015,119.094z"/>
					</g>
				</g>
				<g>
					<path fill="#B2B5BB" d="M345.782,118.681c-0.165,0.096-0.166,0.249-0.002,0.344c0.162,0.095,0.429,0.096,0.595,0
						c0.163-0.094,0.162-0.249,0-0.343C346.211,118.586,345.945,118.586,345.782,118.681z"/>
				</g>
			</g>
		</g>
		<g>
			<g enable-background="new    ">
				<g enable-background="new    ">
					<g enable-background="new    ">
						<path fill="#AFB7C7" d="M352.205,115.065l0.02,14.191c0,0.044,0.021,0.088,0.062,0.126l-0.02-14.191
							C352.226,115.153,352.205,115.109,352.205,115.065L352.205,115.065z"/>
						<path fill="#E6EAF2" d="M352.267,115.191l0.02,14.191c0.017,0.016,0.037,0.031,0.062,0.045
							c0.065,0.038,0.147,0.061,0.234,0.068l-0.02-14.191c-0.087-0.007-0.169-0.03-0.234-0.068
							C352.304,115.222,352.283,115.208,352.267,115.191L352.267,115.191z"/>
						<path fill="#AFB7C7" d="M352.563,115.305l0.02,14.191c0.127,0.011,0.262-0.012,0.359-0.068
							c0.082-0.047,0.123-0.11,0.123-0.172l-0.02-14.191c0,0.062-0.041,0.125-0.123,0.172
							C352.824,115.293,352.689,115.316,352.563,115.305L352.563,115.305z"/>
					</g>
				</g>
				<g>
					<path fill="#B2B5BB" d="M352.33,114.892c-0.166,0.095-0.166,0.249-0.002,0.344c0.162,0.094,0.429,0.095,0.594,0
						c0.164-0.094,0.163-0.249,0.001-0.343C352.758,114.797,352.493,114.797,352.33,114.892z"/>
				</g>
			</g>
		</g>
	</g>
	<g>
		<g>
			<polygon fill="#AFB7C7" points="354.028,114.467 354.028,115.183 346.336,119.653 346.336,111.666 			"/>
			<polygon fill="#CCD3E3" points="346.336,111.666 346.336,119.653 328.516,109.354 328.516,108.637 			"/>
		</g>
		<polygon fill="#343848" points="328.516,108.637 336.208,104.167 354.028,114.467 346.336,118.937 		"/>
	</g>
</g>
</svg>
