<?xml version="1.0" encoding="utf-8"?>
<!-- Generator: Adobe Illustrator 16.0.0, SVG Export Plug-In . SVG Version: 6.00 Build 0)  -->
<!DOCTYPE svg PUBLIC "-//W3C//DTD SVG 1.1//EN" "http://www.w3.org/Graphics/SVG/1.1/DTD/svg11.dtd">
<svg version="1.1" id="Layer_1" xmlns="http://www.w3.org/2000/svg" xmlns:xlink="http://www.w3.org/1999/xlink" x="0px" y="0px"
	 width="450px" height="450px" viewBox="0 0 450 450" enable-background="new 0 0 450 450" xml:space="preserve">
<g>
	<g>
		<g>
			<g enable-background="new    ">
				<g enable-background="new    ">
					<g enable-background="new    ">
						<path fill="#AFB7C7" d="M361.107,135.398l0.02,14.191c0.001,0.044,0.021,0.087,0.062,0.126l-0.02-14.191
							C361.129,135.485,361.108,135.442,361.107,135.398L361.107,135.398z"/>
						<path fill="#E6EAF2" d="M361.169,135.524l0.02,14.191c0.018,0.016,0.038,0.031,0.062,0.045
							c0.065,0.038,0.148,0.061,0.234,0.068l-0.02-14.191c-0.086-0.008-0.169-0.03-0.234-0.068
							C361.207,135.555,361.187,135.54,361.169,135.524L361.169,135.524z"/>
						<path fill="#AFB7C7" d="M361.465,135.638l0.02,14.191c0.127,0.011,0.262-0.011,0.36-0.068
							c0.082-0.047,0.122-0.109,0.122-0.172l-0.02-14.191c0,0.062-0.04,0.125-0.122,0.172
							C361.727,135.626,361.592,135.648,361.465,135.638L361.465,135.638z"/>
					</g>
				</g>
				<g>
					<path fill="#B2B5BB" d="M361.232,135.225c-0.165,0.096-0.166,0.249-0.002,0.345c0.162,0.094,0.43,0.095,0.595,0
						c0.163-0.095,0.162-0.249,0-0.344C361.661,135.13,361.396,135.13,361.232,135.225z"/>
				</g>
			</g>
		</g>
		<g>
			<g enable-background="new    ">
				<g>
					<path fill="#B2B5BB" d="M354.685,148.224c-0.165,0.095-0.166,0.249-0.002,0.344c0.163,0.094,0.43,0.095,0.595,0
						c0.163-0.094,0.162-0.249,0-0.343C355.113,148.129,354.849,148.129,354.685,148.224z"/>
				</g>
			</g>
		</g>
		<g>
			<g>
				<polygon fill="#AFB7C7" points="379.493,159.05 379.493,159.767 371.802,164.236 371.802,156.249 				"/>
				<polygon fill="#CCD3E3" points="371.802,156.249 371.802,164.236 353.98,153.937 353.98,153.221 				"/>
			</g>
			<polygon fill="#343848" points="353.98,153.221 361.673,148.751 379.493,159.05 371.802,163.52 			"/>
			<g>
				<path fill="#282D3E" d="M360.272,152.079c-1.53,0.883-1.538,2.316-0.017,3.201c1.52,0.882,3.991,0.882,5.522,0
					c1.53-0.884,1.538-2.316,0.018-3.201C364.275,151.196,361.804,151.196,360.272,152.079z"/>
			</g>
			<g>
				<path fill="#282D3E" d="M369.496,156.985c-1.531,0.883-1.539,2.316-0.018,3.2c1.52,0.883,3.991,0.883,5.522,0
					c1.53-0.884,1.539-2.316,0.018-3.2C373.498,156.103,371.026,156.103,369.496,156.985z"/>
			</g>
		</g>
		<g>
			<g>
				<g>
					<g>
						<g>
							<g enable-background="new    ">
								<g enable-background="new    ">
									<g>
										<path fill="#C8CCD6" d="M368.124,157.998l0.002,0.112c-0.001,0.093,0.008,0.185,0.024,0.275v-0.112
											C368.132,158.183,368.124,158.092,368.124,157.998L368.124,157.998z"/>
										<path fill="#C8CCD6" d="M368.15,158.273v0.112c0.101,0.501,0.486,0.952,1.062,1.299l-0.002-0.113
											C368.636,159.226,368.251,158.775,368.15,158.273L368.15,158.273z"/>
										<path fill="#C8CCD6" d="M369.21,159.571l0.002,0.113c0.263,0.158,0.568,0.295,0.904,0.404l-0.001-0.112
											C369.778,159.867,369.474,159.73,369.21,159.571L369.21,159.571z"/>
										<path fill="#C8CCD6" d="M370.115,159.976l0.001,0.112c0.563,0.182,1.212,0.286,1.905,0.286
											c0.187,0,0.372-0.008,0.553-0.023l-0.001-0.112c-0.181,0.016-0.365,0.023-0.554,0.023
											C371.327,160.262,370.678,160.159,370.115,159.976L370.115,159.976z"/>
										<path fill="#C8CCD6" d="M372.573,160.239l0.001,0.112c0.857-0.07,1.625-0.302,2.21-0.64
											c0.709-0.409,1.15-0.975,1.153-1.599L375.936,158c-0.003,0.625-0.443,1.19-1.152,1.599
											C374.198,159.938,373.43,160.169,372.573,160.239L372.573,160.239z"/>
									</g>
								</g>
								<g>
									<path fill="#FFFFFF" d="M369.274,156.398c-0.709,0.41-1.147,0.976-1.15,1.6c-0.012,1.25,1.732,2.264,3.896,2.264
										c1.077,0,2.055-0.253,2.764-0.663c0.709-0.409,1.149-0.975,1.152-1.599c0.008-1.252-1.736-2.266-3.895-2.264
										C370.961,155.736,369.984,155.989,369.274,156.398z"/>
								</g>
								<g>
									<path fill="#BFBFBF" d="M369.418,157.999c-0.006,0.836,1.159,1.514,2.605,1.514c0.72,0,1.373-0.17,1.848-0.444
										c0.106-0.062,0.204-0.128,0.291-0.201c0.3-0.245,0.478-0.544,0.479-0.868c0.006-0.837-1.162-1.514-2.604-1.513
										c-0.721,0-1.376,0.168-1.85,0.443c-0.178,0.102-0.331,0.219-0.452,0.348l-0.001,0.001
										C369.533,157.492,369.418,157.738,369.418,157.999z"/>
								</g>
								<g>
									<path fill="#F3F5F9" d="M369.418,157.999c-0.006,0.836,1.159,1.514,2.605,1.514c0.72,0,1.373-0.17,1.848-0.444
										c0.106-0.062,0.204-0.128,0.291-0.201c0.201-0.213,0.318-0.459,0.319-0.72c0.005-0.837-1.163-1.514-2.604-1.513
										c-0.722,0-1.376,0.169-1.85,0.443c-0.106,0.061-0.205,0.128-0.292,0.2l-0.001,0.001
										C369.533,157.492,369.418,157.738,369.418,157.999z"/>
								</g>
							</g>
						</g>
						<g>
							<g enable-background="new    ">
								<g enable-background="new    ">
									<g>
										<path fill="#C8CCD6" d="M368.124,157.73l0.002,0.112c-0.001,0.094,0.008,0.185,0.024,0.275v-0.112
											C368.132,157.915,368.124,157.823,368.124,157.73L368.124,157.73z"/>
										<path fill="#C8CCD6" d="M368.15,158.005v0.112c0.101,0.501,0.486,0.953,1.062,1.299l-0.002-0.113
											C368.636,158.958,368.251,158.506,368.15,158.005L368.15,158.005z"/>
										<path fill="#C8CCD6" d="M369.21,159.303l0.002,0.113c0.263,0.159,0.568,0.296,0.904,0.405l-0.001-0.113
											C369.778,159.599,369.474,159.462,369.21,159.303L369.21,159.303z"/>
										<path fill="#C8CCD6" d="M370.115,159.708l0.001,0.113c0.563,0.182,1.212,0.286,1.905,0.286
											c0.187,0,0.372-0.007,0.553-0.023l-0.001-0.112c-0.181,0.016-0.365,0.023-0.554,0.023
											C371.327,159.994,370.678,159.89,370.115,159.708L370.115,159.708z"/>
										<path fill="#C8CCD6" d="M372.573,159.971l0.001,0.112c0.857-0.07,1.625-0.302,2.21-0.64
											c0.709-0.41,1.15-0.975,1.153-1.599l-0.002-0.112c-0.003,0.625-0.443,1.19-1.152,1.599
											C374.198,159.669,373.43,159.901,372.573,159.971L372.573,159.971z"/>
									</g>
								</g>
								<g>
									<path fill="#FFFFFF" d="M369.274,156.13c-0.709,0.409-1.147,0.976-1.15,1.6c-0.012,1.25,1.732,2.264,3.896,2.264
										c1.077,0,2.055-0.253,2.764-0.663c0.709-0.409,1.149-0.975,1.152-1.599c0.008-1.251-1.736-2.265-3.895-2.264
										C370.961,155.467,369.984,155.721,369.274,156.13z"/>
								</g>
								<g>
									<path fill="#BFBFBF" d="M369.418,157.73c-0.006,0.836,1.159,1.514,2.605,1.514c0.72,0,1.373-0.169,1.848-0.444
										c0.106-0.062,0.204-0.128,0.291-0.201c0.3-0.245,0.478-0.544,0.479-0.868c0.006-0.836-1.162-1.514-2.604-1.513
										c-0.721,0-1.376,0.169-1.85,0.443c-0.178,0.102-0.331,0.219-0.452,0.348l-0.001,0.001
										C369.533,157.224,369.418,157.47,369.418,157.73z"/>
								</g>
								<g>
									<path fill="#F3F5F9" d="M369.418,157.73c-0.006,0.836,1.159,1.514,2.605,1.514c0.72,0,1.373-0.169,1.848-0.444
										c0.106-0.062,0.204-0.128,0.291-0.201c0.201-0.213,0.318-0.459,0.319-0.72c0.005-0.836-1.163-1.514-2.604-1.513
										c-0.722,0-1.376,0.168-1.85,0.443c-0.106,0.061-0.205,0.128-0.292,0.2l-0.001,0.001
										C369.533,157.224,369.418,157.47,369.418,157.73z"/>
								</g>
							</g>
						</g>
					</g>
					<g>
						<g>
							<g enable-background="new    ">
								<g enable-background="new    ">
									<g>
										<path fill="#C8CCD6" d="M368.124,157.454l0.002,0.112c-0.001,0.093,0.008,0.185,0.024,0.275v-0.112
											C368.132,157.639,368.124,157.547,368.124,157.454L368.124,157.454z"/>
										<path fill="#C8CCD6" d="M368.15,157.729v0.112c0.101,0.501,0.486,0.952,1.062,1.299l-0.002-0.113
											C368.636,158.682,368.251,158.23,368.15,157.729L368.15,157.729z"/>
										<path fill="#C8CCD6" d="M369.21,159.026l0.002,0.113c0.263,0.158,0.568,0.295,0.904,0.404l-0.001-0.112
											C369.778,159.323,369.474,159.186,369.21,159.026L369.21,159.026z"/>
										<path fill="#C8CCD6" d="M370.115,159.432l0.001,0.112c0.563,0.182,1.212,0.286,1.905,0.286
											c0.187,0,0.372-0.007,0.553-0.022l-0.001-0.112c-0.181,0.015-0.365,0.023-0.554,0.023
											C371.327,159.718,370.678,159.614,370.115,159.432L370.115,159.432z"/>
										<path fill="#C8CCD6" d="M372.573,159.695l0.001,0.112c0.857-0.07,1.625-0.302,2.21-0.64
											c0.709-0.409,1.15-0.975,1.153-1.599l-0.002-0.112c-0.003,0.625-0.443,1.19-1.152,1.6
											C374.198,159.393,373.43,159.625,372.573,159.695L372.573,159.695z"/>
									</g>
								</g>
								<g>
									<path fill="#FFFFFF" d="M369.274,155.854c-0.709,0.41-1.147,0.976-1.15,1.6c-0.012,1.25,1.732,2.264,3.896,2.264
										c1.077,0,2.055-0.253,2.764-0.663s1.149-0.975,1.152-1.6c0.008-1.251-1.736-2.265-3.895-2.264
										C370.961,155.191,369.984,155.445,369.274,155.854z"/>
								</g>
								<g>
									<path fill="#BFBFBF" d="M369.418,157.455c-0.006,0.836,1.159,1.514,2.605,1.514c0.72,0,1.373-0.169,1.848-0.444
										c0.106-0.062,0.204-0.128,0.291-0.201c0.3-0.245,0.478-0.544,0.479-0.868c0.006-0.837-1.162-1.514-2.604-1.513
										c-0.721,0-1.376,0.169-1.85,0.443c-0.178,0.102-0.331,0.219-0.452,0.348l-0.001,0.001
										C369.533,156.948,369.418,157.193,369.418,157.455z"/>
								</g>
								<g>
									<path fill="#F3F5F9" d="M369.418,157.455c-0.006,0.836,1.159,1.514,2.605,1.514c0.72,0,1.373-0.169,1.848-0.444
										c0.106-0.062,0.204-0.128,0.291-0.201c0.201-0.213,0.318-0.459,0.319-0.72c0.005-0.837-1.163-1.514-2.604-1.513
										c-0.722,0-1.376,0.169-1.85,0.443c-0.106,0.061-0.205,0.128-0.292,0.2l-0.001,0.001
										C369.533,156.948,369.418,157.193,369.418,157.455z"/>
								</g>
							</g>
						</g>
						<g>
							<g enable-background="new    ">
								<g enable-background="new    ">
									<g>
										<path fill="#C8CCD6" d="M368.124,157.186l0.002,0.112c-0.001,0.093,0.008,0.185,0.024,0.275v-0.112
											C368.132,157.371,368.124,157.279,368.124,157.186L368.124,157.186z"/>
										<path fill="#C8CCD6" d="M368.15,157.46v0.112c0.101,0.501,0.486,0.953,1.062,1.299l-0.002-0.113
											C368.636,158.414,368.251,157.962,368.15,157.46L368.15,157.46z"/>
										<path fill="#C8CCD6" d="M369.21,158.758l0.002,0.113c0.263,0.159,0.568,0.296,0.904,0.405l-0.001-0.113
											C369.778,159.054,369.474,158.918,369.21,158.758L369.21,158.758z"/>
										<path fill="#C8CCD6" d="M370.115,159.163l0.001,0.113c0.563,0.182,1.212,0.286,1.905,0.286
											c0.187,0,0.372-0.008,0.553-0.023l-0.001-0.112c-0.181,0.016-0.365,0.023-0.554,0.023
											C371.327,159.449,370.678,159.346,370.115,159.163L370.115,159.163z"/>
										<path fill="#C8CCD6" d="M372.573,159.426l0.001,0.112c0.857-0.07,1.625-0.302,2.21-0.64
											c0.709-0.41,1.15-0.975,1.153-1.599l-0.002-0.112c-0.003,0.625-0.443,1.19-1.152,1.599
											C374.198,159.125,373.43,159.356,372.573,159.426L372.573,159.426z"/>
									</g>
								</g>
								<g>
									<path fill="#FFFFFF" d="M369.274,155.586c-0.709,0.409-1.147,0.976-1.15,1.6c-0.012,1.25,1.732,2.264,3.896,2.264
										c1.077,0,2.055-0.253,2.764-0.663c0.709-0.409,1.149-0.975,1.152-1.599c0.008-1.252-1.736-2.265-3.895-2.264
										C370.961,154.923,369.984,155.176,369.274,155.586z"/>
								</g>
								<g>
									<path fill="#BFBFBF" d="M369.418,157.186c-0.006,0.836,1.159,1.514,2.605,1.514c0.72,0,1.373-0.169,1.848-0.444
										c0.106-0.062,0.204-0.128,0.291-0.201c0.3-0.245,0.478-0.544,0.479-0.868c0.006-0.837-1.162-1.514-2.604-1.513
										c-0.721,0-1.376,0.168-1.85,0.443c-0.178,0.102-0.331,0.219-0.452,0.348l-0.001,0
										C369.533,156.68,369.418,156.925,369.418,157.186z"/>
								</g>
								<g>
									<path fill="#F3F5F9" d="M369.418,157.186c-0.006,0.836,1.159,1.514,2.605,1.514c0.72,0,1.373-0.169,1.848-0.444
										c0.106-0.062,0.204-0.128,0.291-0.201c0.201-0.213,0.318-0.459,0.319-0.72c0.005-0.837-1.163-1.514-2.604-1.513
										c-0.722,0-1.376,0.168-1.85,0.443c-0.106,0.061-0.205,0.128-0.292,0.2l-0.001,0
										C369.533,156.68,369.418,156.925,369.418,157.186z"/>
								</g>
							</g>
						</g>
					</g>
				</g>
				<g>
					<g>
						<g>
							<g enable-background="new    ">
								<g enable-background="new    ">
									<g>
										<path fill="#C8CCD6" d="M368.124,156.9l0.002,0.112c-0.001,0.093,0.008,0.185,0.024,0.275v-0.112
											C368.132,157.084,368.124,156.993,368.124,156.9L368.124,156.9z"/>
										<path fill="#C8CCD6" d="M368.15,157.175v0.112c0.101,0.501,0.486,0.953,1.062,1.299l-0.002-0.113
											C368.636,158.128,368.251,157.676,368.15,157.175L368.15,157.175z"/>
										<path fill="#C8CCD6" d="M369.21,158.473l0.002,0.113c0.263,0.159,0.568,0.295,0.904,0.405l-0.001-0.113
											C369.778,158.769,369.474,158.632,369.21,158.473L369.21,158.473z"/>
										<path fill="#C8CCD6" d="M370.115,158.877l0.001,0.113c0.563,0.182,1.212,0.286,1.905,0.286
											c0.187,0,0.372-0.008,0.553-0.023l-0.001-0.112c-0.181,0.016-0.365,0.023-0.554,0.023
											C371.327,159.164,370.678,159.06,370.115,158.877L370.115,158.877z"/>
										<path fill="#C8CCD6" d="M372.573,159.141l0.001,0.112c0.857-0.07,1.625-0.302,2.21-0.64
											c0.709-0.409,1.15-0.975,1.153-1.599l-0.002-0.112c-0.003,0.625-0.443,1.19-1.152,1.599
											C374.198,158.839,373.43,159.071,372.573,159.141L372.573,159.141z"/>
									</g>
								</g>
								<g>
									<path fill="#FFFFFF" d="M369.274,155.3c-0.709,0.41-1.147,0.976-1.15,1.6c-0.012,1.25,1.732,2.264,3.896,2.264
										c1.077,0,2.055-0.253,2.764-0.663c0.709-0.409,1.149-0.975,1.152-1.599c0.008-1.252-1.736-2.265-3.895-2.264
										C370.961,154.637,369.984,154.891,369.274,155.3z"/>
								</g>
								<g>
									<path fill="#BFBFBF" d="M369.418,156.9c-0.006,0.836,1.159,1.514,2.605,1.514c0.72,0,1.373-0.169,1.848-0.444
										c0.106-0.062,0.204-0.128,0.291-0.201c0.3-0.245,0.478-0.544,0.479-0.868c0.006-0.837-1.162-1.514-2.604-1.513
										c-0.721,0-1.376,0.169-1.85,0.443c-0.178,0.102-0.331,0.219-0.452,0.348l-0.001,0.001
										C369.533,156.394,369.418,156.64,369.418,156.9z"/>
								</g>
								<g>
									<path fill="#F3F5F9" d="M369.418,156.9c-0.006,0.836,1.159,1.514,2.605,1.514c0.72,0,1.373-0.169,1.848-0.444
										c0.106-0.062,0.204-0.128,0.291-0.201c0.201-0.213,0.318-0.459,0.319-0.72c0.005-0.837-1.163-1.514-2.604-1.513
										c-0.722,0-1.376,0.169-1.85,0.443c-0.106,0.061-0.205,0.128-0.292,0.2l-0.001,0.001
										C369.533,156.394,369.418,156.64,369.418,156.9z"/>
								</g>
							</g>
						</g>
						<g>
							<g enable-background="new    ">
								<g enable-background="new    ">
									<g>
										<path fill="#C8CCD6" d="M368.124,156.631l0.002,0.112c-0.001,0.093,0.008,0.185,0.024,0.274v-0.112
											C368.132,156.816,368.124,156.725,368.124,156.631L368.124,156.631z"/>
										<path fill="#C8CCD6" d="M368.15,156.906v0.112c0.101,0.502,0.486,0.953,1.062,1.299l-0.002-0.113
											C368.636,157.859,368.251,157.408,368.15,156.906L368.15,156.906z"/>
										<path fill="#C8CCD6" d="M369.21,158.204l0.002,0.113c0.263,0.159,0.568,0.296,0.904,0.405l-0.001-0.113
											C369.778,158.5,369.474,158.364,369.21,158.204L369.21,158.204z"/>
										<path fill="#C8CCD6" d="M370.115,158.609l0.001,0.113c0.563,0.182,1.212,0.286,1.905,0.286
											c0.187,0,0.372-0.007,0.553-0.023l-0.001-0.112c-0.181,0.015-0.365,0.022-0.554,0.022
											C371.327,158.895,370.678,158.792,370.115,158.609L370.115,158.609z"/>
										<path fill="#C8CCD6" d="M372.573,158.873l0.001,0.112c0.857-0.07,1.625-0.302,2.21-0.64
											c0.709-0.41,1.15-0.975,1.153-1.599l-0.002-0.112c-0.003,0.625-0.443,1.19-1.152,1.599
											C374.198,158.571,373.43,158.803,372.573,158.873L372.573,158.873z"/>
									</g>
								</g>
								<g>
									<path fill="#FFFFFF" d="M369.274,155.032c-0.709,0.409-1.147,0.976-1.15,1.6c-0.012,1.25,1.732,2.264,3.896,2.264
										c1.077,0,2.055-0.253,2.764-0.663c0.709-0.409,1.149-0.975,1.152-1.599c0.008-1.251-1.736-2.265-3.895-2.264
										C370.961,154.369,369.984,154.622,369.274,155.032z"/>
								</g>
								<g>
									<path fill="#BFBFBF" d="M369.418,156.632c-0.006,0.835,1.159,1.514,2.605,1.514c0.72,0,1.373-0.169,1.848-0.444
										c0.106-0.062,0.204-0.128,0.291-0.201c0.3-0.245,0.478-0.544,0.479-0.868c0.006-0.836-1.162-1.514-2.604-1.513
										c-0.721,0-1.376,0.168-1.85,0.443c-0.178,0.103-0.331,0.219-0.452,0.348l-0.001,0.001
										C369.533,156.125,369.418,156.371,369.418,156.632z"/>
								</g>
								<g>
									<path fill="#F3F5F9" d="M369.418,156.632c-0.006,0.835,1.159,1.514,2.605,1.514c0.72,0,1.373-0.169,1.848-0.444
										c0.106-0.062,0.204-0.128,0.291-0.201c0.201-0.213,0.318-0.459,0.319-0.72c0.005-0.837-1.163-1.514-2.604-1.513
										c-0.722,0-1.376,0.168-1.85,0.443c-0.106,0.061-0.205,0.128-0.292,0.2l-0.001,0.001
										C369.533,156.125,369.418,156.371,369.418,156.632z"/>
								</g>
							</g>
						</g>
					</g>
					<g>
						<g>
							<g enable-background="new    ">
								<g enable-background="new    ">
									<g>
										<path fill="#C8CCD6" d="M368.124,156.355l0.002,0.112c-0.001,0.093,0.008,0.185,0.024,0.275v-0.112
											C368.132,156.54,368.124,156.449,368.124,156.355L368.124,156.355z"/>
										<path fill="#C8CCD6" d="M368.15,156.63v0.112c0.101,0.501,0.486,0.952,1.062,1.299l-0.002-0.113
											C368.636,157.583,368.251,157.132,368.15,156.63L368.15,156.63z"/>
										<path fill="#C8CCD6" d="M369.21,157.928l0.002,0.113c0.263,0.158,0.568,0.296,0.904,0.404l-0.001-0.112
											C369.778,158.224,369.474,158.087,369.21,157.928L369.21,157.928z"/>
										<path fill="#C8CCD6" d="M370.115,158.333l0.001,0.112c0.563,0.183,1.212,0.286,1.905,0.286
											c0.187,0,0.372-0.008,0.553-0.023l-0.001-0.112c-0.181,0.016-0.365,0.023-0.554,0.023
											C371.327,158.619,370.678,158.516,370.115,158.333L370.115,158.333z"/>
										<path fill="#C8CCD6" d="M372.573,158.596l0.001,0.112c0.857-0.07,1.625-0.302,2.21-0.64
											c0.709-0.409,1.15-0.975,1.153-1.599l-0.002-0.112c-0.003,0.625-0.443,1.19-1.152,1.599
											C374.198,158.294,373.43,158.526,372.573,158.596L372.573,158.596z"/>
									</g>
								</g>
								<g>
									<path fill="#FFFFFF" d="M369.274,154.755c-0.709,0.41-1.147,0.976-1.15,1.6c-0.012,1.25,1.732,2.264,3.896,2.264
										c1.077,0,2.055-0.253,2.764-0.663c0.709-0.409,1.149-0.975,1.152-1.599c0.008-1.252-1.736-2.266-3.895-2.264
										C370.961,154.093,369.984,154.346,369.274,154.755z"/>
								</g>
								<g>
									<path fill="#BFBFBF" d="M369.418,156.356c-0.006,0.836,1.159,1.514,2.605,1.514c0.72,0,1.373-0.17,1.848-0.444
										c0.106-0.062,0.204-0.128,0.291-0.201c0.3-0.245,0.478-0.544,0.479-0.868c0.006-0.837-1.162-1.514-2.604-1.513
										c-0.721,0-1.376,0.169-1.85,0.443c-0.178,0.102-0.331,0.219-0.452,0.348l-0.001,0.001
										C369.533,155.849,369.418,156.095,369.418,156.356z"/>
								</g>
								<g>
									<path fill="#F3F5F9" d="M369.418,156.356c-0.006,0.836,1.159,1.514,2.605,1.514c0.72,0,1.373-0.17,1.848-0.444
										c0.106-0.062,0.204-0.128,0.291-0.201c0.201-0.213,0.318-0.459,0.319-0.72c0.005-0.837-1.163-1.514-2.604-1.513
										c-0.722,0-1.376,0.169-1.85,0.443c-0.106,0.061-0.205,0.128-0.292,0.2l-0.001,0.001
										C369.533,155.849,369.418,156.095,369.418,156.356z"/>
								</g>
							</g>
						</g>
						<g>
							<g enable-background="new    ">
								<g enable-background="new    ">
									<g>
										<path fill="#C8CCD6" d="M368.124,156.087l0.002,0.112c-0.001,0.093,0.008,0.185,0.024,0.274v-0.112
											C368.132,156.272,368.124,156.18,368.124,156.087L368.124,156.087z"/>
										<path fill="#C8CCD6" d="M368.15,156.362v0.112c0.101,0.502,0.486,0.953,1.062,1.299l-0.002-0.113
											C368.636,157.315,368.251,156.863,368.15,156.362L368.15,156.362z"/>
										<path fill="#C8CCD6" d="M369.21,157.66l0.002,0.113c0.263,0.159,0.568,0.296,0.904,0.405l-0.001-0.113
											C369.778,157.956,369.474,157.819,369.21,157.66L369.21,157.66z"/>
										<path fill="#C8CCD6" d="M370.115,158.064l0.001,0.113c0.563,0.182,1.212,0.286,1.905,0.286
											c0.187,0,0.372-0.008,0.553-0.023l-0.001-0.112c-0.181,0.015-0.365,0.022-0.554,0.022
											C371.327,158.351,370.678,158.247,370.115,158.064L370.115,158.064z"/>
										<path fill="#C8CCD6" d="M372.573,158.328l0.001,0.112c0.857-0.07,1.625-0.302,2.21-0.64
											c0.709-0.41,1.15-0.975,1.153-1.599l-0.002-0.112c-0.003,0.625-0.443,1.19-1.152,1.599
											C374.198,158.026,373.43,158.258,372.573,158.328L372.573,158.328z"/>
									</g>
								</g>
								<g>
									<path fill="#FFFFFF" d="M369.274,154.487c-0.709,0.409-1.147,0.976-1.15,1.6c-0.012,1.25,1.732,2.264,3.896,2.264
										c1.077,0,2.055-0.253,2.764-0.663c0.709-0.409,1.149-0.975,1.152-1.599c0.008-1.251-1.736-2.265-3.895-2.264
										C370.961,153.825,369.984,154.078,369.274,154.487z"/>
								</g>
								<g>
									<path fill="#BFBFBF" d="M369.418,156.088c-0.006,0.835,1.159,1.514,2.605,1.514c0.72,0,1.373-0.169,1.848-0.444
										c0.106-0.062,0.204-0.128,0.291-0.201c0.3-0.245,0.478-0.544,0.479-0.868c0.006-0.837-1.162-1.514-2.604-1.513
										c-0.721,0-1.376,0.168-1.85,0.443c-0.178,0.102-0.331,0.219-0.452,0.348l-0.001,0.001
										C369.533,155.581,369.418,155.827,369.418,156.088z"/>
								</g>
								<g>
									<path fill="#F3F5F9" d="M369.418,156.088c-0.006,0.835,1.159,1.514,2.605,1.514c0.72,0,1.373-0.169,1.848-0.444
										c0.106-0.062,0.204-0.128,0.291-0.201c0.201-0.213,0.318-0.459,0.319-0.72c0.005-0.836-1.163-1.514-2.604-1.513
										c-0.722,0-1.376,0.168-1.85,0.443c-0.106,0.061-0.205,0.128-0.292,0.2l-0.001,0.001
										C369.533,155.581,369.418,155.827,369.418,156.088z"/>
								</g>
							</g>
						</g>
					</g>
				</g>
			</g>
			<g>
				<g>
					<g>
						<g>
							<g enable-background="new    ">
								<g enable-background="new    ">
									<g>
										<path fill="#C8CCD6" d="M359.119,153.092l0.002,0.112c0,0.093,0.008,0.185,0.025,0.275v-0.112
											C359.127,153.277,359.119,153.186,359.119,153.092L359.119,153.092z"/>
										<path fill="#C8CCD6" d="M359.146,153.367v0.112c0.101,0.501,0.486,0.953,1.061,1.299l-0.002-0.113
											C359.631,154.32,359.246,153.869,359.146,153.367L359.146,153.367z"/>
										<path fill="#C8CCD6" d="M360.205,154.665l0.002,0.113c0.264,0.158,0.568,0.296,0.904,0.405l-0.001-0.113
											C360.774,154.961,360.469,154.824,360.205,154.665L360.205,154.665z"/>
										<path fill="#C8CCD6" d="M361.11,155.07l0.001,0.113c0.563,0.182,1.213,0.286,1.905,0.286c0.188,0,0.373-0.008,0.554-0.023
											l-0.001-0.112c-0.181,0.016-0.366,0.023-0.555,0.023C362.323,155.356,361.673,155.252,361.11,155.07L361.11,155.07z"/>
										<path fill="#C8CCD6" d="M363.569,155.333l0.001,0.112c0.856-0.07,1.625-0.302,2.209-0.64
											c0.71-0.409,1.15-0.975,1.154-1.599l-0.002-0.112c-0.003,0.625-0.444,1.19-1.152,1.599
											C365.193,155.031,364.425,155.263,363.569,155.333L363.569,155.333z"/>
									</g>
								</g>
								<g>
									<path fill="#FFFFFF" d="M360.271,151.492c-0.709,0.41-1.148,0.976-1.151,1.6c-0.011,1.25,1.733,2.264,3.896,2.264
										c1.077,0,2.055-0.253,2.765-0.663c0.708-0.409,1.149-0.975,1.152-1.599c0.008-1.252-1.736-2.266-3.895-2.264
										C361.957,150.83,360.98,151.083,360.271,151.492z"/>
								</g>
								<g>
									<path fill="#BFBFBF" d="M360.414,153.093c-0.007,0.836,1.158,1.514,2.605,1.514c0.719,0,1.373-0.169,1.848-0.444
										c0.106-0.062,0.203-0.128,0.29-0.201c0.301-0.245,0.479-0.544,0.48-0.868c0.005-0.837-1.163-1.514-2.604-1.513
										c-0.722,0-1.376,0.169-1.85,0.443c-0.179,0.102-0.331,0.219-0.452,0.348l-0.001,0.001
										C360.528,152.586,360.414,152.832,360.414,153.093z"/>
								</g>
								<g>
									<path fill="#F3F5F9" d="M360.414,153.093c-0.007,0.836,1.158,1.514,2.605,1.514c0.719,0,1.373-0.169,1.848-0.444
										c0.106-0.062,0.203-0.128,0.29-0.201c0.202-0.213,0.318-0.459,0.319-0.72c0.006-0.837-1.162-1.514-2.604-1.513
										c-0.721,0-1.376,0.169-1.85,0.443c-0.106,0.061-0.204,0.128-0.291,0.2l-0.001,0.001
										C360.528,152.586,360.414,152.832,360.414,153.093z"/>
								</g>
							</g>
						</g>
						<g>
							<g enable-background="new    ">
								<g enable-background="new    ">
									<g>
										<path fill="#C8CCD6" d="M359.119,152.824l0.002,0.112c0,0.094,0.008,0.185,0.025,0.275v-0.112
											C359.127,153.009,359.119,152.917,359.119,152.824L359.119,152.824z"/>
										<path fill="#C8CCD6" d="M359.146,153.099v0.112c0.101,0.502,0.486,0.953,1.061,1.299l-0.002-0.113
											C359.631,154.052,359.246,153.6,359.146,153.099L359.146,153.099z"/>
										<path fill="#C8CCD6" d="M360.205,154.396l0.002,0.113c0.264,0.159,0.568,0.296,0.904,0.405l-0.001-0.113
											C360.774,154.692,360.469,154.556,360.205,154.396L360.205,154.396z"/>
										<path fill="#C8CCD6" d="M361.11,154.801l0.001,0.113c0.563,0.182,1.213,0.286,1.905,0.286
											c0.188,0,0.373-0.008,0.554-0.023l-0.001-0.112c-0.181,0.016-0.366,0.023-0.555,0.023
											C362.323,155.087,361.673,154.984,361.11,154.801L361.11,154.801z"/>
										<path fill="#C8CCD6" d="M363.569,155.064l0.001,0.112c0.856-0.07,1.625-0.302,2.209-0.64
											c0.71-0.41,1.15-0.975,1.154-1.599l-0.002-0.112c-0.003,0.625-0.444,1.19-1.152,1.599
											C365.193,154.763,364.425,154.995,363.569,155.064L363.569,155.064z"/>
									</g>
								</g>
								<g>
									<path fill="#FFFFFF" d="M360.271,151.224c-0.709,0.409-1.148,0.976-1.151,1.6c-0.011,1.25,1.733,2.264,3.896,2.264
										c1.077,0,2.055-0.253,2.765-0.663c0.708-0.409,1.149-0.975,1.152-1.599c0.008-1.251-1.736-2.265-3.895-2.264
										C361.957,150.562,360.98,150.814,360.271,151.224z"/>
								</g>
								<g>
									<path fill="#BFBFBF" d="M360.414,152.824c-0.007,0.836,1.158,1.514,2.605,1.514c0.719,0,1.373-0.169,1.848-0.444
										c0.106-0.062,0.203-0.128,0.29-0.201c0.301-0.245,0.479-0.544,0.48-0.868c0.005-0.836-1.163-1.514-2.604-1.513
										c-0.722,0-1.376,0.168-1.85,0.443c-0.179,0.102-0.331,0.219-0.452,0.348l-0.001,0.001
										C360.528,152.318,360.414,152.563,360.414,152.824z"/>
								</g>
								<g>
									<path fill="#F3F5F9" d="M360.414,152.824c-0.007,0.836,1.158,1.514,2.605,1.514c0.719,0,1.373-0.169,1.848-0.444
										c0.106-0.062,0.203-0.128,0.29-0.201c0.202-0.213,0.318-0.459,0.319-0.72c0.006-0.837-1.162-1.514-2.604-1.513
										c-0.721,0-1.376,0.168-1.85,0.443c-0.106,0.061-0.204,0.128-0.291,0.2l-0.001,0.001
										C360.528,152.318,360.414,152.563,360.414,152.824z"/>
								</g>
							</g>
						</g>
					</g>
					<g>
						<g>
							<g enable-background="new    ">
								<g enable-background="new    ">
									<g>
										<path fill="#C8CCD6" d="M359.119,152.548l0.002,0.112c0,0.093,0.008,0.185,0.025,0.275v-0.112
											C359.127,152.732,359.119,152.641,359.119,152.548L359.119,152.548z"/>
										<path fill="#C8CCD6" d="M359.146,152.822v0.112c0.101,0.501,0.486,0.952,1.061,1.299l-0.002-0.113
											C359.631,153.775,359.246,153.324,359.146,152.822L359.146,152.822z"/>
										<path fill="#C8CCD6" d="M360.205,154.121l0.002,0.113c0.264,0.158,0.568,0.295,0.904,0.404l-0.001-0.112
											C360.774,154.417,360.469,154.28,360.205,154.121L360.205,154.121z"/>
										<path fill="#C8CCD6" d="M361.11,154.525l0.001,0.112c0.563,0.183,1.213,0.286,1.905,0.286
											c0.188,0,0.373-0.008,0.554-0.023l-0.001-0.112c-0.181,0.016-0.366,0.023-0.555,0.023
											C362.323,154.812,361.673,154.708,361.11,154.525L361.11,154.525z"/>
										<path fill="#C8CCD6" d="M363.569,154.789l0.001,0.112c0.856-0.07,1.625-0.302,2.209-0.64
											c0.71-0.409,1.15-0.975,1.154-1.599l-0.002-0.112c-0.003,0.625-0.444,1.19-1.152,1.599
											C365.193,154.487,364.425,154.719,363.569,154.789L363.569,154.789z"/>
									</g>
								</g>
								<g>
									<path fill="#FFFFFF" d="M360.271,150.948c-0.709,0.409-1.148,0.976-1.151,1.6c-0.011,1.25,1.733,2.264,3.896,2.264
										c1.077,0,2.055-0.253,2.765-0.663c0.708-0.409,1.149-0.975,1.152-1.599c0.008-1.252-1.736-2.266-3.895-2.264
										C361.957,150.285,360.98,150.539,360.271,150.948z"/>
								</g>
								<g>
									<path fill="#BFBFBF" d="M360.414,152.548c-0.007,0.836,1.158,1.514,2.605,1.514c0.719,0,1.373-0.17,1.848-0.444
										c0.106-0.062,0.203-0.128,0.29-0.201c0.301-0.245,0.479-0.544,0.48-0.868c0.005-0.837-1.163-1.514-2.604-1.513
										c-0.722,0-1.376,0.169-1.85,0.443c-0.179,0.102-0.331,0.219-0.452,0.348l-0.001,0.001
										C360.528,152.042,360.414,152.288,360.414,152.548z"/>
								</g>
								<g>
									<path fill="#F3F5F9" d="M360.414,152.548c-0.007,0.836,1.158,1.514,2.605,1.514c0.719,0,1.373-0.17,1.848-0.444
										c0.106-0.062,0.203-0.128,0.29-0.201c0.202-0.213,0.318-0.459,0.319-0.72c0.006-0.837-1.162-1.514-2.604-1.513
										c-0.721,0-1.376,0.169-1.85,0.443c-0.106,0.061-0.204,0.128-0.291,0.2l-0.001,0.001
										C360.528,152.042,360.414,152.288,360.414,152.548z"/>
								</g>
							</g>
						</g>
						<g>
							<g enable-background="new    ">
								<g enable-background="new    ">
									<g>
										<path fill="#C8CCD6" d="M359.119,152.279l0.002,0.112c0,0.093,0.008,0.185,0.025,0.274v-0.112
											C359.127,152.464,359.119,152.373,359.119,152.279L359.119,152.279z"/>
										<path fill="#C8CCD6" d="M359.146,152.554v0.112c0.101,0.501,0.486,0.953,1.061,1.299l-0.002-0.113
											C359.631,153.507,359.246,153.056,359.146,152.554L359.146,152.554z"/>
										<path fill="#C8CCD6" d="M360.205,153.852l0.002,0.113c0.264,0.159,0.568,0.296,0.904,0.405l-0.001-0.113
											C360.774,154.148,360.469,154.012,360.205,153.852L360.205,153.852z"/>
										<path fill="#C8CCD6" d="M361.11,154.257l0.001,0.113c0.563,0.182,1.213,0.286,1.905,0.286
											c0.188,0,0.373-0.008,0.554-0.023l-0.001-0.112c-0.181,0.016-0.366,0.023-0.555,0.023
											C362.323,154.543,361.673,154.439,361.11,154.257L361.11,154.257z"/>
										<path fill="#C8CCD6" d="M363.569,154.52l0.001,0.112c0.856-0.07,1.625-0.302,2.209-0.64c0.71-0.41,1.15-0.975,1.154-1.6
											l-0.002-0.112c-0.003,0.625-0.444,1.19-1.152,1.599C365.193,154.218,364.425,154.45,363.569,154.52L363.569,154.52z"/>
									</g>
								</g>
								<g>
									<path fill="#FFFFFF" d="M360.271,150.68c-0.709,0.409-1.148,0.976-1.151,1.6c-0.011,1.25,1.733,2.264,3.896,2.264
										c1.077,0,2.055-0.253,2.765-0.663c0.708-0.409,1.149-0.975,1.152-1.599c0.008-1.251-1.736-2.265-3.895-2.264
										C361.957,150.017,360.98,150.27,360.271,150.68z"/>
								</g>
								<g>
									<path fill="#BFBFBF" d="M360.414,152.28c-0.007,0.836,1.158,1.514,2.605,1.514c0.719,0,1.373-0.169,1.848-0.444
										c0.106-0.062,0.203-0.128,0.29-0.201c0.301-0.245,0.479-0.544,0.48-0.868c0.005-0.836-1.163-1.514-2.604-1.513
										c-0.722,0-1.376,0.168-1.85,0.443c-0.179,0.102-0.331,0.219-0.452,0.348l-0.001,0
										C360.528,151.773,360.414,152.019,360.414,152.28z"/>
								</g>
								<g>
									<path fill="#F3F5F9" d="M360.414,152.28c-0.007,0.836,1.158,1.514,2.605,1.514c0.719,0,1.373-0.169,1.848-0.444
										c0.106-0.062,0.203-0.128,0.29-0.201c0.202-0.213,0.318-0.459,0.319-0.72c0.006-0.836-1.162-1.514-2.604-1.513
										c-0.721,0-1.376,0.168-1.85,0.443c-0.106,0.061-0.204,0.128-0.291,0.2l-0.001,0
										C360.528,151.773,360.414,152.019,360.414,152.28z"/>
								</g>
							</g>
						</g>
					</g>
				</g>
				<g>
					<g>
						<g>
							<g enable-background="new    ">
								<g enable-background="new    ">
									<g>
										<path fill="#C8CCD6" d="M359.119,151.994l0.002,0.112c0,0.093,0.008,0.185,0.025,0.275v-0.112
											C359.127,152.179,359.119,152.087,359.119,151.994L359.119,151.994z"/>
										<path fill="#C8CCD6" d="M359.146,152.269v0.112c0.101,0.501,0.486,0.953,1.061,1.299l-0.002-0.113
											C359.631,153.222,359.246,152.77,359.146,152.269L359.146,152.269z"/>
										<path fill="#C8CCD6" d="M360.205,153.566l0.002,0.113c0.264,0.159,0.568,0.296,0.904,0.405l-0.001-0.113
											C360.774,153.862,360.469,153.726,360.205,153.566L360.205,153.566z"/>
										<path fill="#C8CCD6" d="M361.11,153.971l0.001,0.113c0.563,0.182,1.213,0.286,1.905,0.286
											c0.188,0,0.373-0.008,0.554-0.023l-0.001-0.112c-0.181,0.016-0.366,0.023-0.555,0.023
											C362.323,154.257,361.673,154.154,361.11,153.971L361.11,153.971z"/>
										<path fill="#C8CCD6" d="M363.569,154.234l0.001,0.112c0.856-0.07,1.625-0.302,2.209-0.64c0.71-0.41,1.15-0.975,1.154-1.6
											l-0.002-0.112c-0.003,0.625-0.444,1.19-1.152,1.599C365.193,153.933,364.425,154.165,363.569,154.234L363.569,154.234z"/>
									</g>
								</g>
								<g>
									<path fill="#FFFFFF" d="M360.271,150.394c-0.709,0.41-1.148,0.976-1.151,1.6c-0.011,1.25,1.733,2.264,3.896,2.264
										c1.077,0,2.055-0.253,2.765-0.663c0.708-0.409,1.149-0.975,1.152-1.599c0.008-1.251-1.736-2.265-3.895-2.264
										C361.957,149.731,360.98,149.984,360.271,150.394z"/>
								</g>
								<g>
									<path fill="#BFBFBF" d="M360.414,151.994c-0.007,0.836,1.158,1.514,2.605,1.514c0.719,0,1.373-0.169,1.848-0.444
										c0.106-0.062,0.203-0.128,0.29-0.201c0.301-0.245,0.479-0.544,0.48-0.868c0.005-0.837-1.163-1.514-2.604-1.513
										c-0.722,0-1.376,0.168-1.85,0.443c-0.179,0.102-0.331,0.219-0.452,0.348l-0.001,0
										C360.528,151.488,360.414,151.733,360.414,151.994z"/>
								</g>
								<g>
									<path fill="#F3F5F9" d="M360.414,151.994c-0.007,0.836,1.158,1.514,2.605,1.514c0.719,0,1.373-0.169,1.848-0.444
										c0.106-0.062,0.203-0.128,0.29-0.201c0.202-0.213,0.318-0.459,0.319-0.72c0.006-0.836-1.162-1.514-2.604-1.513
										c-0.721,0-1.376,0.169-1.85,0.443c-0.106,0.061-0.204,0.128-0.291,0.2l-0.001,0
										C360.528,151.488,360.414,151.733,360.414,151.994z"/>
								</g>
							</g>
						</g>
						<g>
							<g enable-background="new    ">
								<g enable-background="new    ">
									<g>
										<path fill="#C8CCD6" d="M359.119,151.725l0.002,0.112c0,0.093,0.008,0.185,0.025,0.275V152
											C359.127,151.91,359.119,151.818,359.119,151.725L359.119,151.725z"/>
										<path fill="#C8CCD6" d="M359.146,152v0.112c0.101,0.501,0.486,0.952,1.061,1.298l-0.002-0.113
											C359.631,152.953,359.246,152.501,359.146,152L359.146,152z"/>
										<path fill="#C8CCD6" d="M360.205,153.298l0.002,0.113c0.264,0.159,0.568,0.296,0.904,0.405l-0.001-0.113
											C360.774,153.594,360.469,153.458,360.205,153.298L360.205,153.298z"/>
										<path fill="#C8CCD6" d="M361.11,153.703l0.001,0.113c0.563,0.182,1.213,0.286,1.905,0.286
											c0.188,0,0.373-0.007,0.554-0.023l-0.001-0.112c-0.181,0.015-0.366,0.023-0.555,0.023
											C362.323,153.989,361.673,153.885,361.11,153.703L361.11,153.703z"/>
										<path fill="#C8CCD6" d="M363.569,153.966l0.001,0.112c0.856-0.07,1.625-0.302,2.209-0.64
											c0.71-0.41,1.15-0.975,1.154-1.599l-0.002-0.112c-0.003,0.625-0.444,1.19-1.152,1.599
											C365.193,153.665,364.425,153.896,363.569,153.966L363.569,153.966z"/>
									</g>
								</g>
								<g>
									<path fill="#FFFFFF" d="M360.271,150.125c-0.709,0.409-1.148,0.976-1.151,1.6c-0.011,1.25,1.733,2.264,3.896,2.264
										c1.077,0,2.055-0.254,2.765-0.663c0.708-0.409,1.149-0.975,1.152-1.599c0.008-1.251-1.736-2.265-3.895-2.264
										C361.957,149.463,360.98,149.716,360.271,150.125z"/>
								</g>
								<g>
									<path fill="#BFBFBF" d="M360.414,151.726c-0.007,0.836,1.158,1.514,2.605,1.514c0.719,0,1.373-0.169,1.848-0.444
										c0.106-0.062,0.203-0.128,0.29-0.201c0.301-0.245,0.479-0.544,0.48-0.869c0.005-0.836-1.163-1.514-2.604-1.513
										c-0.722,0-1.376,0.168-1.85,0.443c-0.179,0.102-0.331,0.219-0.452,0.348l-0.001,0.001
										C360.528,151.219,360.414,151.465,360.414,151.726z"/>
								</g>
								<g>
									<path fill="#F3F5F9" d="M360.414,151.726c-0.007,0.836,1.158,1.514,2.605,1.514c0.719,0,1.373-0.169,1.848-0.444
										c0.106-0.062,0.203-0.128,0.29-0.201c0.202-0.214,0.318-0.459,0.319-0.72c0.006-0.837-1.162-1.514-2.604-1.513
										c-0.721,0-1.376,0.168-1.85,0.443c-0.106,0.061-0.204,0.128-0.291,0.2l-0.001,0.001
										C360.528,151.219,360.414,151.465,360.414,151.726z"/>
								</g>
							</g>
						</g>
					</g>
					<g>
						<g>
							<g enable-background="new    ">
								<g enable-background="new    ">
									<g>
										<path fill="#C8CCD6" d="M359.119,151.449l0.002,0.112c0,0.093,0.008,0.185,0.025,0.275v-0.112
											C359.127,151.634,359.119,151.542,359.119,151.449L359.119,151.449z"/>
										<path fill="#C8CCD6" d="M359.146,151.724v0.112c0.101,0.501,0.486,0.953,1.061,1.299l-0.002-0.113
											C359.631,152.677,359.246,152.226,359.146,151.724L359.146,151.724z"/>
										<path fill="#C8CCD6" d="M360.205,153.022l0.002,0.113c0.264,0.158,0.568,0.296,0.904,0.404l-0.001-0.112
											C360.774,153.318,360.469,153.182,360.205,153.022L360.205,153.022z"/>
										<path fill="#C8CCD6" d="M361.11,153.427l0.001,0.112c0.563,0.183,1.213,0.286,1.905,0.286
											c0.188,0,0.373-0.008,0.554-0.023l-0.001-0.112c-0.181,0.016-0.366,0.023-0.555,0.023
											C362.323,153.713,361.673,153.609,361.11,153.427L361.11,153.427z"/>
										<path fill="#C8CCD6" d="M363.569,153.69l0.001,0.112c0.856-0.07,1.625-0.302,2.209-0.64
											c0.71-0.409,1.15-0.975,1.154-1.599l-0.002-0.112c-0.003,0.625-0.444,1.19-1.152,1.599
											C365.193,153.388,364.425,153.62,363.569,153.69L363.569,153.69z"/>
									</g>
								</g>
								<g>
									<path fill="#FFFFFF" d="M360.271,149.85c-0.709,0.409-1.148,0.976-1.151,1.6c-0.011,1.25,1.733,2.264,3.896,2.264
										c1.077,0,2.055-0.253,2.765-0.663c0.708-0.409,1.149-0.975,1.152-1.599c0.008-1.252-1.736-2.266-3.895-2.264
										C361.957,149.187,360.98,149.44,360.271,149.85z"/>
								</g>
								<g>
									<path fill="#BFBFBF" d="M360.414,151.45c-0.007,0.836,1.158,1.514,2.605,1.514c0.719,0,1.373-0.17,1.848-0.444
										c0.106-0.062,0.203-0.128,0.29-0.201c0.301-0.245,0.479-0.544,0.48-0.868c0.005-0.837-1.163-1.514-2.604-1.513
										c-0.722,0-1.376,0.169-1.85,0.443c-0.179,0.102-0.331,0.219-0.452,0.348l-0.001,0
										C360.528,150.943,360.414,151.189,360.414,151.45z"/>
								</g>
								<g>
									<path fill="#F3F5F9" d="M360.414,151.45c-0.007,0.836,1.158,1.514,2.605,1.514c0.719,0,1.373-0.17,1.848-0.444
										c0.106-0.062,0.203-0.128,0.29-0.201c0.202-0.213,0.318-0.459,0.319-0.72c0.006-0.837-1.162-1.514-2.604-1.513
										c-0.721,0-1.376,0.168-1.85,0.443c-0.106,0.061-0.204,0.128-0.291,0.2l-0.001,0
										C360.528,150.943,360.414,151.189,360.414,151.45z"/>
								</g>
							</g>
						</g>
						<g>
							<g enable-background="new    ">
								<g enable-background="new    ">
									<g>
										<path fill="#C8CCD6" d="M359.119,151.181l0.002,0.112c0,0.093,0.008,0.185,0.025,0.274v-0.112
											C359.127,151.366,359.119,151.274,359.119,151.181L359.119,151.181z"/>
										<path fill="#C8CCD6" d="M359.146,151.456v0.112c0.101,0.502,0.486,0.953,1.061,1.299l-0.002-0.113
											C359.631,152.409,359.246,151.957,359.146,151.456L359.146,151.456z"/>
										<path fill="#C8CCD6" d="M360.205,152.753l0.002,0.113c0.264,0.159,0.568,0.296,0.904,0.405l-0.001-0.113
											C360.774,153.049,360.469,152.913,360.205,152.753L360.205,152.753z"/>
										<path fill="#C8CCD6" d="M361.11,153.158l0.001,0.113c0.563,0.182,1.213,0.286,1.905,0.286
											c0.188,0,0.373-0.007,0.554-0.023l-0.001-0.112c-0.181,0.015-0.366,0.022-0.555,0.022
											C362.323,153.444,361.673,153.341,361.11,153.158L361.11,153.158z"/>
										<path fill="#C8CCD6" d="M363.569,153.422l0.001,0.112c0.856-0.07,1.625-0.302,2.209-0.64
											c0.71-0.41,1.15-0.975,1.154-1.599l-0.002-0.112c-0.003,0.625-0.444,1.19-1.152,1.599
											C365.193,153.12,364.425,153.352,363.569,153.422L363.569,153.422z"/>
									</g>
								</g>
								<g>
									<path fill="#FFFFFF" d="M360.271,149.581c-0.709,0.409-1.148,0.976-1.151,1.6c-0.011,1.25,1.733,2.264,3.896,2.264
										c1.077,0,2.055-0.253,2.765-0.663c0.708-0.409,1.149-0.975,1.152-1.599c0.008-1.251-1.736-2.265-3.895-2.264
										C361.957,148.918,360.98,149.171,360.271,149.581z"/>
								</g>
								<g>
									<path fill="#BFBFBF" d="M360.414,151.182c-0.007,0.835,1.158,1.514,2.605,1.514c0.719,0,1.373-0.169,1.848-0.444
										c0.106-0.062,0.203-0.128,0.29-0.201c0.301-0.245,0.479-0.544,0.48-0.868c0.005-0.836-1.163-1.514-2.604-1.513
										c-0.722,0-1.376,0.168-1.85,0.443c-0.179,0.103-0.331,0.219-0.452,0.348l-0.001,0.001
										C360.528,150.675,360.414,150.92,360.414,151.182z"/>
								</g>
								<g>
									<path fill="#F3F5F9" d="M360.414,151.182c-0.007,0.835,1.158,1.514,2.605,1.514c0.719,0,1.373-0.169,1.848-0.444
										c0.106-0.062,0.203-0.128,0.29-0.201c0.202-0.213,0.318-0.459,0.319-0.72c0.006-0.836-1.162-1.514-2.604-1.513
										c-0.721,0-1.376,0.168-1.85,0.443c-0.106,0.061-0.204,0.128-0.291,0.2l-0.001,0.001
										C360.528,150.675,360.414,150.92,360.414,151.182z"/>
								</g>
							</g>
						</g>
					</g>
				</g>
			</g>
			<g>
				<g>
					<g>
						<g>
							<g enable-background="new    ">
								<g enable-background="new    ">
									<g>
										<path fill="#C8CCD6" d="M368.124,155.822l0.002,0.112c-0.001,0.093,0.008,0.185,0.024,0.274v-0.112
											C368.132,156.007,368.124,155.916,368.124,155.822L368.124,155.822z"/>
										<path fill="#C8CCD6" d="M368.15,156.097v0.112c0.101,0.502,0.486,0.953,1.062,1.299l-0.002-0.113
											C368.636,157.05,368.251,156.599,368.15,156.097L368.15,156.097z"/>
										<path fill="#C8CCD6" d="M369.21,157.395l0.002,0.113c0.263,0.159,0.568,0.296,0.904,0.405l-0.001-0.113
											C369.778,157.691,369.474,157.555,369.21,157.395L369.21,157.395z"/>
										<path fill="#C8CCD6" d="M370.115,157.8l0.001,0.113c0.563,0.182,1.212,0.286,1.905,0.286c0.187,0,0.372-0.007,0.553-0.023
											l-0.001-0.112c-0.181,0.016-0.365,0.023-0.554,0.023C371.327,158.086,370.678,157.982,370.115,157.8L370.115,157.8z"/>
										<path fill="#C8CCD6" d="M372.573,158.063l0.001,0.112c0.857-0.07,1.625-0.302,2.21-0.64
											c0.709-0.41,1.15-0.975,1.153-1.599l-0.002-0.112c-0.003,0.625-0.443,1.19-1.152,1.599
											C374.198,157.762,373.43,157.993,372.573,158.063L372.573,158.063z"/>
									</g>
								</g>
								<g>
									<path fill="#FFFFFF" d="M369.274,154.223c-0.709,0.409-1.147,0.976-1.15,1.6c-0.012,1.25,1.732,2.264,3.896,2.264
										c1.077,0,2.055-0.253,2.764-0.663c0.709-0.409,1.149-0.975,1.152-1.599c0.008-1.251-1.736-2.265-3.895-2.264
										C370.961,153.56,369.984,153.813,369.274,154.223z"/>
								</g>
								<g>
									<path fill="#BFBFBF" d="M369.418,155.823c-0.006,0.835,1.159,1.514,2.605,1.514c0.72,0,1.373-0.169,1.848-0.444
										c0.106-0.062,0.204-0.128,0.291-0.201c0.3-0.245,0.478-0.544,0.479-0.868c0.006-0.836-1.162-1.514-2.604-1.513
										c-0.721,0-1.376,0.168-1.85,0.443c-0.178,0.103-0.331,0.219-0.452,0.348l-0.001,0.001
										C369.533,155.316,369.418,155.562,369.418,155.823z"/>
								</g>
								<g>
									<path fill="#F3F5F9" d="M369.418,155.823c-0.006,0.835,1.159,1.514,2.605,1.514c0.72,0,1.373-0.169,1.848-0.444
										c0.106-0.062,0.204-0.128,0.291-0.201c0.201-0.213,0.318-0.459,0.319-0.72c0.005-0.836-1.163-1.514-2.604-1.513
										c-0.722,0-1.376,0.168-1.85,0.443c-0.106,0.061-0.205,0.128-0.292,0.2l-0.001,0.001
										C369.533,155.316,369.418,155.562,369.418,155.823z"/>
								</g>
							</g>
						</g>
						<g>
							<g enable-background="new    ">
								<g enable-background="new    ">
									<g>
										<path fill="#C8CCD6" d="M368.124,155.554l0.002,0.112c-0.001,0.093,0.008,0.185,0.024,0.275v-0.112
											C368.132,155.739,368.124,155.647,368.124,155.554L368.124,155.554z"/>
										<path fill="#C8CCD6" d="M368.15,155.829v0.112c0.101,0.501,0.486,0.952,1.062,1.298l-0.002-0.113
											C368.636,156.782,368.251,156.33,368.15,155.829L368.15,155.829z"/>
										<path fill="#C8CCD6" d="M369.21,157.126l0.002,0.113c0.263,0.159,0.568,0.296,0.904,0.405l-0.001-0.113
											C369.778,157.422,369.474,157.286,369.21,157.126L369.21,157.126z"/>
										<path fill="#C8CCD6" d="M370.115,157.531l0.001,0.113c0.563,0.182,1.212,0.286,1.905,0.286
											c0.187,0,0.372-0.007,0.553-0.022l-0.001-0.112c-0.181,0.015-0.365,0.023-0.554,0.023
											C371.327,157.818,370.678,157.714,370.115,157.531L370.115,157.531z"/>
										<path fill="#C8CCD6" d="M372.573,157.795l0.001,0.112c0.857-0.07,1.625-0.302,2.21-0.64
											c0.709-0.409,1.15-0.975,1.153-1.599l-0.002-0.112c-0.003,0.625-0.443,1.19-1.152,1.599
											C374.198,157.493,373.43,157.725,372.573,157.795L372.573,157.795z"/>
									</g>
								</g>
								<g>
									<path fill="#FFFFFF" d="M369.274,153.954c-0.709,0.409-1.147,0.976-1.15,1.6c-0.012,1.25,1.732,2.264,3.896,2.264
										c1.077,0,2.055-0.253,2.764-0.663c0.709-0.409,1.149-0.975,1.152-1.599c0.008-1.251-1.736-2.265-3.895-2.264
										C370.961,153.292,369.984,153.545,369.274,153.954z"/>
								</g>
								<g>
									<path fill="#BFBFBF" d="M369.418,155.555c-0.006,0.836,1.159,1.514,2.605,1.514c0.72,0,1.373-0.169,1.848-0.444
										c0.106-0.062,0.204-0.128,0.291-0.201c0.3-0.245,0.478-0.544,0.479-0.868c0.006-0.837-1.162-1.514-2.604-1.513
										c-0.721,0-1.376,0.168-1.85,0.443c-0.178,0.103-0.331,0.219-0.452,0.348l-0.001,0.001
										C369.533,155.048,369.418,155.293,369.418,155.555z"/>
								</g>
								<g>
									<path fill="#F3F5F9" d="M369.418,155.555c-0.006,0.836,1.159,1.514,2.605,1.514c0.72,0,1.373-0.169,1.848-0.444
										c0.106-0.062,0.204-0.128,0.291-0.201c0.201-0.214,0.318-0.459,0.319-0.72c0.005-0.837-1.163-1.514-2.604-1.513
										c-0.722,0-1.376,0.168-1.85,0.443c-0.106,0.061-0.205,0.128-0.292,0.2l-0.001,0.001
										C369.533,155.048,369.418,155.293,369.418,155.555z"/>
								</g>
							</g>
						</g>
					</g>
					<g>
						<g>
							<g enable-background="new    ">
								<g enable-background="new    ">
									<g>
										<path fill="#C8CCD6" d="M368.124,155.278l0.002,0.112c-0.001,0.094,0.008,0.185,0.024,0.275v-0.112
											C368.132,155.463,368.124,155.371,368.124,155.278L368.124,155.278z"/>
										<path fill="#C8CCD6" d="M368.15,155.553v0.112c0.101,0.502,0.486,0.953,1.062,1.299l-0.002-0.113
											C368.636,156.506,368.251,156.054,368.15,155.553L368.15,155.553z"/>
										<path fill="#C8CCD6" d="M369.21,156.851l0.002,0.113c0.263,0.159,0.568,0.296,0.904,0.405l-0.001-0.113
											C369.778,157.146,369.474,157.01,369.21,156.851L369.21,156.851z"/>
										<path fill="#C8CCD6" d="M370.115,157.255l0.001,0.113c0.563,0.182,1.212,0.286,1.905,0.286
											c0.187,0,0.372-0.008,0.553-0.023l-0.001-0.112c-0.181,0.016-0.365,0.023-0.554,0.023
											C371.327,157.542,370.678,157.438,370.115,157.255L370.115,157.255z"/>
										<path fill="#C8CCD6" d="M372.573,157.519l0.001,0.112c0.857-0.07,1.625-0.302,2.21-0.64
											c0.709-0.41,1.15-0.975,1.153-1.599l-0.002-0.112c-0.003,0.625-0.443,1.19-1.152,1.599
											C374.198,157.217,373.43,157.449,372.573,157.519L372.573,157.519z"/>
									</g>
								</g>
								<g>
									<path fill="#FFFFFF" d="M369.274,153.678c-0.709,0.409-1.147,0.976-1.15,1.6c-0.012,1.25,1.732,2.264,3.896,2.264
										c1.077,0,2.055-0.253,2.764-0.663c0.709-0.409,1.149-0.975,1.152-1.599c0.008-1.251-1.736-2.265-3.895-2.264
										C370.961,153.016,369.984,153.269,369.274,153.678z"/>
								</g>
								<g>
									<path fill="#BFBFBF" d="M369.418,155.278c-0.006,0.836,1.159,1.514,2.605,1.514c0.72,0,1.373-0.169,1.848-0.444
										c0.106-0.062,0.204-0.128,0.291-0.201c0.3-0.245,0.478-0.544,0.479-0.868c0.006-0.836-1.162-1.514-2.604-1.513
										c-0.721,0-1.376,0.168-1.85,0.443c-0.178,0.102-0.331,0.219-0.452,0.348l-0.001,0.001
										C369.533,154.772,369.418,155.018,369.418,155.278z"/>
								</g>
								<g>
									<path fill="#F3F5F9" d="M369.418,155.278c-0.006,0.836,1.159,1.514,2.605,1.514c0.72,0,1.373-0.169,1.848-0.444
										c0.106-0.062,0.204-0.128,0.291-0.201c0.201-0.213,0.318-0.459,0.319-0.72c0.005-0.836-1.163-1.514-2.604-1.513
										c-0.722,0-1.376,0.168-1.85,0.443c-0.106,0.061-0.205,0.128-0.292,0.2l-0.001,0.001
										C369.533,154.772,369.418,155.018,369.418,155.278z"/>
								</g>
							</g>
						</g>
						<g>
							<g enable-background="new    ">
								<g enable-background="new    ">
									<g>
										<path fill="#C8CCD6" d="M368.124,155.009l0.002,0.112c-0.001,0.093,0.008,0.185,0.024,0.275v-0.112
											C368.132,155.194,368.124,155.103,368.124,155.009L368.124,155.009z"/>
										<path fill="#C8CCD6" d="M368.15,155.284v0.112c0.101,0.501,0.486,0.952,1.062,1.299l-0.002-0.113
											C368.636,156.237,368.251,155.786,368.15,155.284L368.15,155.284z"/>
										<path fill="#C8CCD6" d="M369.21,156.582l0.002,0.113c0.263,0.158,0.568,0.295,0.904,0.404l-0.001-0.113
											C369.778,156.878,369.474,156.742,369.21,156.582L369.21,156.582z"/>
										<path fill="#C8CCD6" d="M370.115,156.987l0.001,0.113c0.563,0.182,1.212,0.286,1.905,0.286
											c0.187,0,0.372-0.007,0.553-0.022l-0.001-0.112c-0.181,0.015-0.365,0.023-0.554,0.023
											C371.327,157.273,370.678,157.169,370.115,156.987L370.115,156.987z"/>
										<path fill="#C8CCD6" d="M372.573,157.25l0.001,0.112c0.857-0.07,1.625-0.302,2.21-0.64
											c0.709-0.409,1.15-0.975,1.153-1.599l-0.002-0.112c-0.003,0.625-0.443,1.19-1.152,1.599
											C374.198,156.949,373.43,157.181,372.573,157.25L372.573,157.25z"/>
									</g>
								</g>
								<g>
									<path fill="#FFFFFF" d="M369.274,153.41c-0.709,0.409-1.147,0.976-1.15,1.6c-0.012,1.25,1.732,2.264,3.896,2.264
										c1.077,0,2.055-0.253,2.764-0.663c0.709-0.409,1.149-0.974,1.152-1.599c0.008-1.251-1.736-2.265-3.895-2.264
										C370.961,152.747,369.984,153,369.274,153.41z"/>
								</g>
								<g>
									<path fill="#BFBFBF" d="M369.418,155.01c-0.006,0.836,1.159,1.514,2.605,1.514c0.72,0,1.373-0.169,1.848-0.444
										c0.106-0.062,0.204-0.128,0.291-0.201c0.3-0.245,0.478-0.544,0.479-0.868c0.006-0.837-1.162-1.514-2.604-1.513
										c-0.721,0-1.376,0.168-1.85,0.443c-0.178,0.103-0.331,0.219-0.452,0.348l-0.001,0.001
										C369.533,154.503,369.418,154.749,369.418,155.01z"/>
								</g>
								<g>
									<path fill="#F3F5F9" d="M369.418,155.01c-0.006,0.836,1.159,1.514,2.605,1.514c0.72,0,1.373-0.169,1.848-0.444
										c0.106-0.062,0.204-0.128,0.291-0.201c0.201-0.213,0.318-0.459,0.319-0.72c0.005-0.837-1.163-1.514-2.604-1.513
										c-0.722,0-1.376,0.168-1.85,0.443c-0.106,0.061-0.205,0.128-0.292,0.2l-0.001,0.001
										C369.533,154.503,369.418,154.749,369.418,155.01z"/>
								</g>
							</g>
						</g>
					</g>
				</g>
				<g>
					<g>
						<g>
							<g enable-background="new    ">
								<g enable-background="new    ">
									<g>
										<path fill="#C8CCD6" d="M368.124,154.724l0.002,0.112c-0.001,0.093,0.008,0.185,0.024,0.275v-0.112
											C368.132,154.909,368.124,154.817,368.124,154.724L368.124,154.724z"/>
										<path fill="#C8CCD6" d="M368.15,154.999v0.112c0.101,0.501,0.486,0.952,1.062,1.298l-0.002-0.113
											C368.636,155.952,368.251,155.5,368.15,154.999L368.15,154.999z"/>
										<path fill="#C8CCD6" d="M369.21,156.296l0.002,0.113c0.263,0.159,0.568,0.296,0.904,0.405l-0.001-0.113
											C369.778,156.592,369.474,156.456,369.21,156.296L369.21,156.296z"/>
										<path fill="#C8CCD6" d="M370.115,156.701l0.001,0.113c0.563,0.182,1.212,0.286,1.905,0.286
											c0.187,0,0.372-0.007,0.553-0.023l-0.001-0.112c-0.181,0.015-0.365,0.022-0.554,0.022
											C371.327,156.987,370.678,156.884,370.115,156.701L370.115,156.701z"/>
										<path fill="#C8CCD6" d="M372.573,156.965l0.001,0.112c0.857-0.07,1.625-0.302,2.21-0.64
											c0.709-0.409,1.15-0.975,1.153-1.599l-0.002-0.112c-0.003,0.625-0.443,1.19-1.152,1.599
											C374.198,156.663,373.43,156.895,372.573,156.965L372.573,156.965z"/>
									</g>
								</g>
								<g>
									<path fill="#FFFFFF" d="M369.274,153.124c-0.709,0.409-1.147,0.976-1.15,1.6c-0.012,1.25,1.732,2.264,3.896,2.264
										c1.077,0,2.055-0.253,2.764-0.663c0.709-0.409,1.149-0.975,1.152-1.599c0.008-1.251-1.736-2.265-3.895-2.264
										C370.961,152.461,369.984,152.715,369.274,153.124z"/>
								</g>
								<g>
									<path fill="#BFBFBF" d="M369.418,154.725c-0.006,0.836,1.159,1.514,2.605,1.514c0.72,0,1.373-0.169,1.848-0.444
										c0.106-0.062,0.204-0.128,0.291-0.201c0.3-0.245,0.478-0.544,0.479-0.868c0.006-0.837-1.162-1.514-2.604-1.513
										c-0.721,0-1.376,0.168-1.85,0.443c-0.178,0.103-0.331,0.219-0.452,0.348l-0.001,0.001
										C369.533,154.218,369.418,154.463,369.418,154.725z"/>
								</g>
								<g>
									<path fill="#F3F5F9" d="M369.418,154.725c-0.006,0.836,1.159,1.514,2.605,1.514c0.72,0,1.373-0.169,1.848-0.444
										c0.106-0.062,0.204-0.128,0.291-0.201c0.201-0.213,0.318-0.459,0.319-0.72c0.005-0.836-1.163-1.514-2.604-1.513
										c-0.722,0-1.376,0.168-1.85,0.443c-0.106,0.061-0.205,0.128-0.292,0.2l-0.001,0.001
										C369.533,154.218,369.418,154.463,369.418,154.725z"/>
								</g>
							</g>
						</g>
						<g>
							<g enable-background="new    ">
								<g enable-background="new    ">
									<g>
										<path fill="#C8CCD6" d="M368.124,154.455l0.002,0.112c-0.001,0.093,0.008,0.185,0.024,0.275v-0.112
											C368.132,154.64,368.124,154.549,368.124,154.455L368.124,154.455z"/>
										<path fill="#C8CCD6" d="M368.15,154.73v0.112c0.101,0.501,0.486,0.952,1.062,1.299l-0.002-0.113
											C368.636,155.683,368.251,155.231,368.15,154.73L368.15,154.73z"/>
										<path fill="#C8CCD6" d="M369.21,156.028l0.002,0.113c0.263,0.158,0.568,0.295,0.904,0.404l-0.001-0.112
											C369.778,156.324,369.474,156.188,369.21,156.028L369.21,156.028z"/>
										<path fill="#C8CCD6" d="M370.115,156.433l0.001,0.112c0.563,0.182,1.212,0.286,1.905,0.286
											c0.187,0,0.372-0.007,0.553-0.022l-0.001-0.112c-0.181,0.016-0.365,0.023-0.554,0.023
											C371.327,156.719,370.678,156.616,370.115,156.433L370.115,156.433z"/>
										<path fill="#C8CCD6" d="M372.573,156.696l0.001,0.112c0.857-0.07,1.625-0.302,2.21-0.64
											c0.709-0.409,1.15-0.975,1.153-1.599l-0.002-0.112c-0.003,0.625-0.443,1.19-1.152,1.599
											C374.198,156.395,373.43,156.626,372.573,156.696L372.573,156.696z"/>
									</g>
								</g>
								<g>
									<path fill="#FFFFFF" d="M369.274,152.855c-0.709,0.409-1.147,0.976-1.15,1.6c-0.012,1.25,1.732,2.264,3.896,2.264
										c1.077,0,2.055-0.253,2.764-0.663s1.149-0.975,1.152-1.599c0.008-1.252-1.736-2.266-3.895-2.264
										C370.961,152.193,369.984,152.446,369.274,152.855z"/>
								</g>
								<g>
									<path fill="#BFBFBF" d="M369.418,154.456c-0.006,0.836,1.159,1.514,2.605,1.514c0.72,0,1.373-0.17,1.848-0.444
										c0.106-0.062,0.204-0.128,0.291-0.201c0.3-0.245,0.478-0.544,0.479-0.868c0.006-0.837-1.162-1.514-2.604-1.513
										c-0.721,0-1.376,0.168-1.85,0.443c-0.178,0.102-0.331,0.219-0.452,0.348l-0.001,0.001
										C369.533,153.949,369.418,154.195,369.418,154.456z"/>
								</g>
								<g>
									<path fill="#F3F5F9" d="M369.418,154.456c-0.006,0.836,1.159,1.514,2.605,1.514c0.72,0,1.373-0.17,1.848-0.444
										c0.106-0.062,0.204-0.128,0.291-0.201c0.201-0.213,0.318-0.459,0.319-0.72c0.005-0.837-1.163-1.514-2.604-1.513
										c-0.722,0-1.376,0.169-1.85,0.443c-0.106,0.061-0.205,0.128-0.292,0.2l-0.001,0.001
										C369.533,153.949,369.418,154.195,369.418,154.456z"/>
								</g>
							</g>
						</g>
					</g>
					<g>
						<g>
							<g enable-background="new    ">
								<g enable-background="new    ">
									<g>
										<path fill="#C8CCD6" d="M368.124,154.179l0.002,0.112c-0.001,0.093,0.008,0.185,0.024,0.275v-0.112
											C368.132,154.364,368.124,154.272,368.124,154.179L368.124,154.179z"/>
										<path fill="#C8CCD6" d="M368.15,154.454v0.112c0.101,0.501,0.486,0.952,1.062,1.298l-0.002-0.113
											C368.636,155.407,368.251,154.956,368.15,154.454L368.15,154.454z"/>
										<path fill="#C8CCD6" d="M369.21,155.752l0.002,0.113c0.263,0.159,0.568,0.296,0.904,0.405l-0.001-0.113
											C369.778,156.048,369.474,155.912,369.21,155.752L369.21,155.752z"/>
										<path fill="#C8CCD6" d="M370.115,156.157l0.001,0.113c0.563,0.182,1.212,0.286,1.905,0.286
											c0.187,0,0.372-0.008,0.553-0.023l-0.001-0.112c-0.181,0.015-0.365,0.022-0.554,0.022
											C371.327,156.443,370.678,156.339,370.115,156.157L370.115,156.157z"/>
										<path fill="#C8CCD6" d="M372.573,156.42l0.001,0.112c0.857-0.07,1.625-0.302,2.21-0.64c0.709-0.41,1.15-0.975,1.153-1.599
											l-0.002-0.112c-0.003,0.625-0.443,1.19-1.152,1.599C374.198,156.118,373.43,156.351,372.573,156.42L372.573,156.42z"/>
									</g>
								</g>
								<g>
									<path fill="#FFFFFF" d="M369.274,152.58c-0.709,0.409-1.147,0.976-1.15,1.6c-0.012,1.25,1.732,2.264,3.896,2.264
										c1.077,0,2.055-0.253,2.764-0.663c0.709-0.409,1.149-0.975,1.152-1.599c0.008-1.251-1.736-2.265-3.895-2.264
										C370.961,151.917,369.984,152.17,369.274,152.58z"/>
								</g>
								<g>
									<path fill="#BFBFBF" d="M369.418,154.18c-0.006,0.836,1.159,1.514,2.605,1.514c0.72,0,1.373-0.169,1.848-0.444
										c0.106-0.062,0.204-0.128,0.291-0.201c0.3-0.245,0.478-0.544,0.479-0.869c0.006-0.836-1.162-1.514-2.604-1.513
										c-0.721,0-1.376,0.168-1.85,0.443c-0.178,0.102-0.331,0.219-0.452,0.348l-0.001,0.001
										C369.533,153.673,369.418,153.919,369.418,154.18z"/>
								</g>
								<g>
									<path fill="#F3F5F9" d="M369.418,154.18c-0.006,0.836,1.159,1.514,2.605,1.514c0.72,0,1.373-0.169,1.848-0.444
										c0.106-0.062,0.204-0.128,0.291-0.201c0.201-0.214,0.318-0.459,0.319-0.72c0.005-0.837-1.163-1.514-2.604-1.513
										c-0.722,0-1.376,0.168-1.85,0.443c-0.106,0.061-0.205,0.128-0.292,0.2l-0.001,0.001
										C369.533,153.673,369.418,153.919,369.418,154.18z"/>
								</g>
							</g>
						</g>
						<g>
							<g enable-background="new    ">
								<g enable-background="new    ">
									<g>
										<path fill="#C8CCD6" d="M368.124,153.911l0.002,0.112c-0.001,0.093,0.008,0.185,0.024,0.275v-0.112
											C368.132,154.096,368.124,154.004,368.124,153.911L368.124,153.911z"/>
										<path fill="#C8CCD6" d="M368.15,154.186v0.112c0.101,0.501,0.486,0.952,1.062,1.299l-0.002-0.113
											C368.636,155.139,368.251,154.687,368.15,154.186L368.15,154.186z"/>
										<path fill="#C8CCD6" d="M369.21,155.483l0.002,0.113c0.263,0.158,0.568,0.295,0.904,0.404l-0.001-0.113
											C369.778,155.78,369.474,155.643,369.21,155.483L369.21,155.483z"/>
										<path fill="#C8CCD6" d="M370.115,155.888l0.001,0.113c0.563,0.182,1.212,0.286,1.905,0.286
											c0.187,0,0.372-0.007,0.553-0.022l-0.001-0.112c-0.181,0.015-0.365,0.023-0.554,0.023
											C371.327,156.175,370.678,156.071,370.115,155.888L370.115,155.888z"/>
										<path fill="#C8CCD6" d="M372.573,156.152l0.001,0.112c0.857-0.07,1.625-0.302,2.21-0.64
											c0.709-0.409,1.15-0.975,1.153-1.599l-0.002-0.112c-0.003,0.625-0.443,1.19-1.152,1.6
											C374.198,155.85,373.43,156.082,372.573,156.152L372.573,156.152z"/>
									</g>
								</g>
								<g>
									<path fill="#FFFFFF" d="M369.274,152.311c-0.709,0.41-1.147,0.976-1.15,1.6c-0.012,1.25,1.732,2.264,3.896,2.264
										c1.077,0,2.055-0.253,2.764-0.663s1.149-0.975,1.152-1.6c0.008-1.251-1.736-2.265-3.895-2.264
										C370.961,151.648,369.984,151.902,369.274,152.311z"/>
								</g>
								<g>
									<path fill="#BFBFBF" d="M369.418,153.912c-0.006,0.836,1.159,1.514,2.605,1.514c0.72,0,1.373-0.169,1.848-0.444
										c0.106-0.062,0.204-0.128,0.291-0.201c0.3-0.245,0.478-0.544,0.479-0.868c0.006-0.837-1.162-1.514-2.604-1.513
										c-0.721,0-1.376,0.168-1.85,0.443c-0.178,0.103-0.331,0.219-0.452,0.348l-0.001,0.001
										C369.533,153.405,369.418,153.65,369.418,153.912z"/>
								</g>
								<g>
									<path fill="#F3F5F9" d="M369.418,153.912c-0.006,0.836,1.159,1.514,2.605,1.514c0.72,0,1.373-0.169,1.848-0.444
										c0.106-0.062,0.204-0.128,0.291-0.201c0.201-0.213,0.318-0.459,0.319-0.72c0.005-0.837-1.163-1.514-2.604-1.513
										c-0.722,0-1.376,0.168-1.85,0.443c-0.106,0.061-0.205,0.128-0.292,0.2l-0.001,0.001
										C369.533,153.405,369.418,153.65,369.418,153.912z"/>
								</g>
							</g>
						</g>
					</g>
				</g>
			</g>
		</g>
		<g>
			<g enable-background="new    ">
				<g enable-background="new    ">
					<g enable-background="new    ">
						<path fill="#AFB7C7" d="M354.561,139.187l0.02,14.191c0,0.043,0.021,0.087,0.062,0.126l-0.02-14.191
							C354.581,139.274,354.561,139.231,354.561,139.187L354.561,139.187z"/>
						<path fill="#E6EAF2" d="M354.622,139.313l0.02,14.191c0.017,0.016,0.037,0.031,0.061,0.045
							c0.065,0.038,0.148,0.061,0.234,0.068l-0.02-14.191c-0.086-0.007-0.169-0.03-0.234-0.068
							C354.659,139.344,354.639,139.329,354.622,139.313L354.622,139.313z"/>
						<path fill="#AFB7C7" d="M354.917,139.426l0.02,14.191c0.127,0.011,0.262-0.012,0.36-0.068c0.082-0.047,0.122-0.11,0.122-0.172
							l-0.02-14.191c0,0.063-0.04,0.125-0.122,0.172C355.179,139.415,355.044,139.438,354.917,139.426L354.917,139.426z"/>
					</g>
				</g>
				<g>
					<path fill="#B2B5BB" d="M354.685,139.014c-0.165,0.095-0.166,0.249-0.002,0.344c0.163,0.094,0.43,0.096,0.595,0
						c0.163-0.094,0.162-0.249,0-0.343C355.113,138.919,354.849,138.919,354.685,139.014z"/>
				</g>
			</g>
		</g>
		<g>
			<g enable-background="new    ">
				<g enable-background="new    ">
					<g enable-background="new    ">
						<path fill="#AFB7C7" d="M371.123,148.628l0.02,14.191c0,0.043,0.021,0.087,0.062,0.126l-0.02-14.191
							C371.144,148.715,371.123,148.672,371.123,148.628L371.123,148.628z"/>
						<path fill="#E6EAF2" d="M371.185,148.754l0.02,14.191c0.017,0.016,0.037,0.031,0.061,0.045
							c0.065,0.038,0.148,0.061,0.234,0.068l-0.02-14.191c-0.086-0.008-0.169-0.031-0.234-0.069
							C371.222,148.785,371.201,148.77,371.185,148.754L371.185,148.754z"/>
						<path fill="#AFB7C7" d="M371.479,148.868l0.02,14.191c0.127,0.011,0.262-0.012,0.36-0.068
							c0.082-0.047,0.122-0.109,0.122-0.172l-0.02-14.191c0,0.063-0.04,0.125-0.122,0.172
							C371.741,148.856,371.606,148.878,371.479,148.868L371.479,148.868z"/>
					</g>
				</g>
				<g>
					<path fill="#B2B5BB" d="M371.247,148.455c-0.165,0.096-0.166,0.249-0.002,0.344c0.162,0.095,0.43,0.096,0.595,0
						c0.163-0.094,0.162-0.249,0-0.343C371.676,148.36,371.411,148.36,371.247,148.455z"/>
				</g>
			</g>
		</g>
		<g>
			<g enable-background="new    ">
				<g enable-background="new    ">
					<g enable-background="new    ">
						<path fill="#AFB7C7" d="M377.67,144.839l0.02,14.191c0.001,0.044,0.021,0.087,0.062,0.126l-0.02-14.191
							C377.691,144.927,377.671,144.883,377.67,144.839L377.67,144.839z"/>
						<path fill="#E6EAF2" d="M377.731,144.965l0.02,14.191c0.018,0.016,0.037,0.031,0.062,0.045
							c0.065,0.038,0.148,0.061,0.234,0.069l-0.02-14.191c-0.086-0.007-0.169-0.03-0.234-0.068
							C377.769,144.996,377.749,144.981,377.731,144.965L377.731,144.965z"/>
						<path fill="#AFB7C7" d="M378.027,145.079l0.02,14.191c0.127,0.011,0.262-0.012,0.36-0.069
							c0.081-0.047,0.122-0.109,0.122-0.172l-0.02-14.191c0,0.062-0.041,0.125-0.122,0.172
							C378.289,145.067,378.154,145.09,378.027,145.079L378.027,145.079z"/>
					</g>
				</g>
				<g>
					<path fill="#B2B5BB" d="M377.795,144.666c-0.165,0.096-0.166,0.249-0.002,0.345c0.162,0.094,0.429,0.095,0.595,0
						c0.163-0.095,0.162-0.249,0-0.344C378.224,144.571,377.958,144.571,377.795,144.666z"/>
				</g>
			</g>
		</g>
	</g>
	<g>
		<g>
			<g enable-background="new    ">
				<g enable-background="new    ">
					<g enable-background="new    ">
						<path fill="#AFB7C7" d="M361.107,120.993l0.02,14.191c0.001,0.043,0.021,0.087,0.062,0.126l-0.02-14.191
							C361.129,121.081,361.108,121.037,361.107,120.993L361.107,120.993z"/>
						<path fill="#E6EAF2" d="M361.169,121.119l0.02,14.191c0.018,0.016,0.038,0.031,0.062,0.045
							c0.065,0.038,0.148,0.061,0.234,0.068l-0.02-14.191c-0.086-0.008-0.169-0.031-0.234-0.069
							C361.207,121.15,361.187,121.135,361.169,121.119L361.169,121.119z"/>
						<path fill="#AFB7C7" d="M361.465,121.233l0.02,14.191c0.127,0.011,0.262-0.012,0.36-0.068
							c0.082-0.047,0.122-0.109,0.122-0.172l-0.02-14.191c0,0.063-0.04,0.125-0.122,0.172
							C361.727,121.221,361.592,121.244,361.465,121.233L361.465,121.233z"/>
					</g>
				</g>
				<g>
					<path fill="#B2B5BB" d="M361.232,120.82c-0.165,0.095-0.166,0.249-0.002,0.344c0.162,0.095,0.43,0.096,0.595,0
						c0.163-0.094,0.162-0.249,0-0.343C361.661,120.726,361.396,120.726,361.232,120.82z"/>
				</g>
			</g>
		</g>
		<g>
			<g>
				<polygon fill="#AFB7C7" points="379.493,144.645 379.493,145.362 371.802,149.832 371.802,141.844 				"/>
				<polygon fill="#CCD3E3" points="371.802,141.844 371.802,149.832 353.98,139.532 353.98,138.816 				"/>
			</g>
			<polygon fill="#343848" points="353.98,138.816 361.673,134.346 379.493,144.645 371.802,149.115 			"/>
			<g>
				<path fill="#282D3E" d="M360.596,138.097c-1.577,0.91-1.586,2.387-0.018,3.298c1.565,0.909,4.113,0.909,5.69,0
					c1.577-0.911,1.586-2.387,0.019-3.298C364.72,137.187,362.173,137.187,360.596,138.097z"/>
			</g>
			<g>
				<path fill="#282D3E" d="M368.894,142.624c-1.577,0.91-1.585,2.387-0.018,3.298c1.565,0.91,4.113,0.91,5.691,0
					c1.576-0.911,1.585-2.387,0.019-3.298C373.019,141.713,370.471,141.713,368.894,142.624z"/>
			</g>
		</g>
		<g>
			<g>
				<g>
					<g>
						<g enable-background="new    ">
							<g>
								<polygon fill="#242C2E" points="369.229,138.151 369.228,138.423 367.457,139.452 367.457,139.181 								"/>
							</g>
							<g enable-background="new    ">
								<g enable-background="new    ">
									<path fill="#1F2628" d="M367.457,139.181v0.271c-0.314-0.189-0.477-0.426-0.477-0.647l0.002-0.271
										C366.982,138.755,367.145,138.992,367.457,139.181L367.457,139.181z"/>
								</g>
							</g>
							<g>
								<path fill="#293134" d="M369.229,138.151l-1.771,1.03c-0.563-0.341-0.636-0.836-0.156-1.117
									C367.784,137.785,368.638,137.825,369.229,138.151z"/>
							</g>
						</g>
					</g>
					<g>
						<g>
							<g enable-background="new    ">
								<g>
									<path fill="#909DC1" d="M372.659,140.832v5.255c-0.597,0.128-1.237,0.168-1.86,0.119l-0.093-5.233
										C371.361,141.024,372.036,140.977,372.659,140.832z"/>
									<path fill="#828FB2" d="M373.929,140.346c0.752-0.434,1.127-1.003,1.125-1.572l0.095,5.233
										c0,0.568-0.374,1.138-1.127,1.573c-0.399,0.231-0.866,0.399-1.362,0.507v-5.255
										C373.12,140.724,373.554,140.563,373.929,140.346z"/>
								</g>
								<g>
									<path fill="#DCE2F2" d="M368.557,137.224c-1.493,0.861-1.501,2.26-0.017,3.123c1.482,0.861,3.895,0.861,5.389,0
										c1.493-0.862,1.501-2.26,0.018-3.123C372.462,136.362,370.05,136.362,368.557,137.224z"/>
								</g>
								<g>
									<path fill="#A1B0D5" d="M368.786,137.358c-1.366,0.788-1.372,2.066-0.016,2.854s3.563,0.788,4.929,0
										c1.364-0.788,1.372-2.067,0.017-2.854C372.357,136.569,370.152,136.569,368.786,137.358z"/>
								</g>
							</g>
						</g>
					</g>
					<g>
						<g enable-background="new    ">
							<g enable-background="new    ">
								<g enable-background="new    ">
									<path fill="#1F2628" d="M375.264,141.309v0.271c0,0.11-0.041,0.217-0.123,0.312v-0.271
										C375.224,141.525,375.264,141.419,375.264,141.309L375.264,141.309z"/>
									<path fill="#272F32" d="M375.141,141.621v0.271c-0.051,0.057-0.114,0.11-0.195,0.158c-0.153,0.087-0.343,0.145-0.55,0.169
										l0.002-0.271c0.206-0.026,0.396-0.082,0.548-0.17C375.026,141.73,375.092,141.678,375.141,141.621L375.141,141.621z"/>
									<path fill="#1F2628" d="M374.397,141.947l-0.002,0.271c-0.446,0.056-0.974-0.034-1.378-0.256v-0.272
										C373.422,141.914,373.95,142.002,374.397,141.947L374.397,141.947z"/>
								</g>
							</g>
							<g>
								<path fill="#293134" d="M374.79,140.661c0.564,0.341,0.637,0.836,0.155,1.116c-0.481,0.28-1.336,0.239-1.928-0.086
									L374.79,140.661z"/>
							</g>
						</g>
					</g>
					<path fill="#BECBE7" d="M375.05,138.884c-0.044,0.532-0.417,1.056-1.121,1.462c-1.494,0.862-3.906,0.862-5.388,0
						c-0.915-0.532-1.167-1.225-1.105-1.661c0.021-1.263,1.736-2.62,3.807-2.62C373.973,136.065,375.155,137.994,375.05,138.884z"/>
				</g>
				<path fill="#293134" d="M370.609,136.364c0-0.208,0.285-0.377,0.633-0.377c0.349,0,0.634,0.169,0.634,0.377v0.45h-0.001
					c-0.006,0.091-0.07,0.182-0.193,0.25c-0.253,0.14-0.654,0.137-0.896-0.009c-0.112-0.067-0.17-0.154-0.175-0.241h-0.001V136.364z
					"/>
			</g>
			<g>
				<path fill="#909DC1" d="M368.54,140.346c-0.737-0.429-1.108-0.99-1.109-1.55l0.094,5.232c0.002,0.54,0.348,1.077,1.027,1.5
					v-5.175C368.548,140.351,368.544,140.349,368.54,140.346z"/>
				<path fill="#A1B0D5" d="M370.799,146.205l-0.093-5.233c-0.789-0.063-1.548-0.27-2.154-0.619v5.175
					c0.027,0.017,0.052,0.035,0.08,0.052C369.24,145.933,370.006,146.142,370.799,146.205z"/>
			</g>
		</g>
		<g>
			<g>
				<g enable-background="new    ">
					<g>
						<polygon fill="#242C2E" points="360.785,131.597 360.784,131.874 358.986,132.918 358.986,132.643 						"/>
					</g>
					<g enable-background="new    ">
						<g enable-background="new    ">
							<path fill="#1F2628" d="M358.986,132.643v0.275c-0.319-0.192-0.483-0.432-0.483-0.657l0.001-0.275
								C358.504,132.21,358.669,132.451,358.986,132.643L358.986,132.643z"/>
						</g>
					</g>
					<g>
						<path fill="#293134" d="M360.785,131.597l-1.799,1.046c-0.573-0.346-0.646-0.849-0.158-1.134
							C359.318,131.226,360.186,131.266,360.785,131.597z"/>
					</g>
				</g>
			</g>
			<g>
				<g>
					<g enable-background="new    ">
						<g enable-background="new    ">
							<g enable-background="new    ">
								<path fill="#A1B0D5" d="M358.959,132.252l0.096,6.981c0.002,0.57,0.378,1.14,1.125,1.576c0.618,0.359,1.396,0.571,2.2,0.635
									l-0.094-6.982c-0.807-0.064-1.582-0.276-2.2-0.635C359.337,133.392,358.961,132.822,358.959,132.252L358.959,132.252z"/>
								<g>
									<path fill="#BECBE7" d="M364.27,134.32v7.003c-0.605,0.131-1.257,0.171-1.89,0.121l-0.094-6.982
										C362.952,134.515,363.637,134.467,364.27,134.32z"/>
									<path fill="#A1B0D5" d="M365.56,133.827c0.764-0.441,1.145-1.019,1.143-1.597l0.096,6.981
										c0.001,0.578-0.38,1.156-1.145,1.598c-0.405,0.235-0.879,0.406-1.384,0.515v-7.003
										C364.738,134.21,365.179,134.046,365.56,133.827z"/>
								</g>
							</g>
						</g>
						<g>
							<path fill="#DCE2F2" d="M360.104,130.655c-1.518,0.875-1.525,2.295-0.018,3.171c1.506,0.875,3.956,0.875,5.474,0
								c1.516-0.876,1.524-2.295,0.018-3.171C364.069,129.78,361.62,129.78,360.104,130.655z"/>
						</g>
						<g>
							<path fill="#A1B0D5" d="M360.366,130.809c-1.371,0.791-1.377,2.073-0.016,2.864c1.36,0.791,3.575,0.791,4.945,0
								c1.369-0.791,1.377-2.074,0.017-2.864C363.949,130.018,361.737,130.018,360.366,130.809z"/>
						</g>
					</g>
				</g>
			</g>
			<g>
				<g enable-background="new    ">
					<g enable-background="new    ">
						<g enable-background="new    ">
							<path fill="#1F2628" d="M366.916,134.804v0.275c0,0.112-0.042,0.221-0.126,0.317l0.001-0.275
								C366.874,135.024,366.916,134.917,366.916,134.804L366.916,134.804z"/>
							<path fill="#272F32" d="M366.791,135.121l-0.001,0.275c-0.051,0.058-0.116,0.112-0.198,0.16
								c-0.155,0.088-0.348,0.147-0.558,0.172l0.001-0.275c0.21-0.026,0.402-0.083,0.557-0.173
								C366.674,135.232,366.74,135.179,366.791,135.121L366.791,135.121z"/>
							<path fill="#1F2628" d="M366.035,135.453l-0.001,0.275c-0.454,0.057-0.989-0.035-1.4-0.26v-0.277
								C365.045,135.419,365.581,135.509,366.035,135.453L366.035,135.453z"/>
						</g>
					</g>
					<g>
						<path fill="#293134" d="M366.434,134.146c0.574,0.347,0.647,0.85,0.158,1.134c-0.488,0.285-1.356,0.243-1.958-0.088
							L366.434,134.146z"/>
					</g>
				</g>
			</g>
		</g>
		<g>
			<g enable-background="new    ">
				<g enable-background="new    ">
					<g enable-background="new    ">
						<path fill="#AFB7C7" d="M354.561,124.782l0.02,14.191c0,0.043,0.021,0.087,0.062,0.126l-0.02-14.191
							C354.581,124.87,354.561,124.826,354.561,124.782L354.561,124.782z"/>
						<path fill="#E6EAF2" d="M354.622,124.908l0.02,14.191c0.017,0.016,0.037,0.031,0.061,0.045
							c0.065,0.038,0.148,0.061,0.234,0.068l-0.02-14.191c-0.086-0.007-0.169-0.03-0.234-0.068
							C354.659,124.939,354.639,124.924,354.622,124.908L354.622,124.908z"/>
						<path fill="#AFB7C7" d="M354.917,125.021l0.02,14.191c0.127,0.011,0.262-0.012,0.36-0.068c0.082-0.047,0.122-0.11,0.122-0.172
							l-0.02-14.191c0,0.062-0.04,0.125-0.122,0.172C355.179,125.01,355.044,125.033,354.917,125.021L354.917,125.021z"/>
					</g>
				</g>
				<g>
					<path fill="#B2B5BB" d="M354.685,124.609c-0.165,0.095-0.166,0.249-0.002,0.344c0.163,0.094,0.43,0.095,0.595,0
						c0.163-0.094,0.162-0.249,0-0.343C355.113,124.514,354.849,124.514,354.685,124.609z"/>
				</g>
			</g>
		</g>
		<g>
			<g enable-background="new    ">
				<g enable-background="new    ">
					<g enable-background="new    ">
						<path fill="#AFB7C7" d="M371.123,134.223l0.02,14.191c0,0.043,0.021,0.087,0.062,0.126l-0.02-14.191
							C371.144,134.311,371.123,134.267,371.123,134.223L371.123,134.223z"/>
						<path fill="#E6EAF2" d="M371.185,134.349l0.02,14.191c0.017,0.016,0.037,0.031,0.061,0.045
							c0.065,0.038,0.148,0.061,0.234,0.068l-0.02-14.191c-0.086-0.007-0.169-0.03-0.234-0.068
							C371.222,134.38,371.201,134.365,371.185,134.349L371.185,134.349z"/>
						<path fill="#AFB7C7" d="M371.479,134.462l0.02,14.191c0.127,0.011,0.262-0.012,0.36-0.068c0.082-0.047,0.122-0.11,0.122-0.172
							l-0.02-14.191c0,0.063-0.04,0.125-0.122,0.172C371.741,134.451,371.606,134.474,371.479,134.462L371.479,134.462z"/>
					</g>
				</g>
				<g>
					<path fill="#B2B5BB" d="M371.247,134.05c-0.165,0.095-0.166,0.249-0.002,0.344c0.162,0.094,0.43,0.095,0.595,0
						c0.163-0.094,0.162-0.249,0-0.343C371.676,133.956,371.411,133.956,371.247,134.05z"/>
				</g>
			</g>
		</g>
		<g>
			<g enable-background="new    ">
				<g enable-background="new    ">
					<g enable-background="new    ">
						<path fill="#AFB7C7" d="M377.67,130.434l0.02,14.191c0.001,0.043,0.021,0.087,0.062,0.126l-0.02-14.191
							C377.691,130.521,377.671,130.478,377.67,130.434L377.67,130.434z"/>
						<path fill="#E6EAF2" d="M377.731,130.561l0.02,14.191c0.018,0.016,0.037,0.031,0.062,0.045
							c0.065,0.038,0.148,0.061,0.234,0.068l-0.02-14.191c-0.086-0.008-0.169-0.031-0.234-0.069
							C377.769,130.591,377.749,130.576,377.731,130.561L377.731,130.561z"/>
						<path fill="#AFB7C7" d="M378.027,130.674l0.02,14.191c0.127,0.011,0.262-0.011,0.36-0.068
							c0.081-0.047,0.122-0.109,0.122-0.172l-0.02-14.191c0,0.063-0.041,0.125-0.122,0.172
							C378.289,130.662,378.154,130.685,378.027,130.674L378.027,130.674z"/>
					</g>
				</g>
				<g>
					<path fill="#B2B5BB" d="M377.795,130.261c-0.165,0.096-0.166,0.249-0.002,0.344c0.162,0.095,0.429,0.096,0.595,0
						c0.163-0.094,0.162-0.249,0-0.343C378.224,130.167,377.958,130.167,377.795,130.261z"/>
				</g>
			</g>
		</g>
	</g>
	<g>
		<g>
			<polygon fill="#AFB7C7" points="379.493,129.835 379.493,130.552 371.802,135.022 371.802,127.035 			"/>
			<polygon fill="#CCD3E3" points="371.802,127.035 371.802,135.022 353.98,124.723 353.98,124.006 			"/>
		</g>
		<polygon fill="#343848" points="353.98,124.006 361.673,119.537 379.493,129.836 371.802,134.306 		"/>
	</g>
</g>
</svg>
