<?xml version="1.0" encoding="utf-8"?>
<!-- Generator: Adobe Illustrator 16.0.0, SVG Export Plug-In . SVG Version: 6.00 Build 0)  -->
<!DOCTYPE svg PUBLIC "-//W3C//DTD SVG 1.1//EN" "http://www.w3.org/Graphics/SVG/1.1/DTD/svg11.dtd">
<svg version="1.1" id="Layer_1" xmlns="http://www.w3.org/2000/svg" xmlns:xlink="http://www.w3.org/1999/xlink" x="0px" y="0px"
	 width="450px" height="450px" viewBox="0 0 450 450" enable-background="new 0 0 450 450" xml:space="preserve">
<g>
	<g>
		<polygon fill="#C8D1E3" points="336.963,239.661 336.938,291.735 313.507,314.645 312.623,314.096 312.649,253.791 		"/>
	</g>
	<polygon fill="#F2F2F2" points="312.651,253.786 313.533,254.39 337.847,240.328 337.847,239.128 	"/>
	<g>
		<polygon fill="#D4D5D7" points="363.163,253.797 363.137,314.162 362.293,314.644 338.665,300.523 338.691,240.713 
			362.318,254.373 		"/>
	</g>
	<g>
		<polygon fill="#C8D1E3" points="337.873,240.245 337.847,292.318 313.533,306.448 313.559,254.374 		"/>
	</g>
	<g>
		<polygon fill="#E1E5EE" points="362.318,254.373 362.293,307.12 337.821,292.991 337.847,240.245 		"/>
	</g>
	<g>
		<polygon fill="#E1E5EE" points="362.318,305.514 362.293,314.644 337.979,328.773 338.005,319.644 		"/>
	</g>
	<g>
		<polygon fill="#C8D1E3" points="338.005,319.644 337.979,328.773 313.507,314.645 313.533,305.515 		"/>
	</g>
	<g>
		<polygon fill="#C8D1E3" points="338.005,319.644 337.979,328.773 313.507,314.645 313.533,305.515 		"/>
	</g>
	<polygon fill="#F2F2F2" points="363.163,253.811 362.281,254.415 337.847,240.245 337.847,239.128 	"/>
	<polygon fill="#E1E5EE" points="362.318,305.514 338.005,319.644 313.533,305.515 337.847,291.386 	"/>
	<polygon fill="#BCF1FF" points="317.108,305.51 337.85,293.456 358.743,305.52 338.002,317.573 	"/>
	<polygon fill="#BCF1FF" points="317.108,305.51 337.85,293.456 358.743,305.52 338.002,317.573 	"/>
	<polygon fill="#9CA6B0" points="352.126,309.364 337.85,301.122 323.726,309.33 338.002,317.573 	"/>
	<g>
		<polygon fill="#DBDCDE" points="337.85,293.456 337.85,301.122 352.126,309.364 358.743,305.52 		"/>
		<polygon fill="#C8D1E3" points="317.108,305.51 323.726,309.33 337.85,301.122 337.85,293.456 		"/>
	</g>
	<polygon opacity="0.3" fill="#55D6D2" points="362.345,254.396 362.318,305.514 338.005,319.644 338.03,268.525 	"/>
	<polygon opacity="0.3" fill="#55D6D2" points="338.029,268.524 338.004,319.644 313.532,305.515 313.558,254.396 	"/>
	<g>
		<g enable-background="new    ">
			<g>
				<path fill="#414D54" d="M328.438,254.593l0.97,0.562c-0.234-0.136-0.559-0.116-0.916,0.09l-0.97-0.562
					C327.879,254.476,328.203,254.457,328.438,254.593z"/>
			</g>
			<g>
				<path fill="#414D54" d="M327.587,258.286l-0.97-0.563c-0.23-0.134-0.374-0.418-0.375-0.821c-0.002-0.817,0.572-1.812,1.279-2.22
					l0.97,0.562c-0.707,0.408-1.281,1.403-1.279,2.22C327.213,257.868,327.356,258.152,327.587,258.286z"/>
			</g>
			<g>
				<path fill="#5F7078" d="M328.491,255.244c0.711-0.41,1.289-0.081,1.291,0.736c0.002,0.813-0.572,1.807-1.282,2.217
					c-0.708,0.409-1.285,0.079-1.288-0.733C327.21,256.647,327.784,255.652,328.491,255.244z"/>
			</g>
		</g>
	</g>
</g>
</svg>
