<?xml version="1.0" encoding="utf-8"?>
<!-- Generator: Adobe Illustrator 16.0.0, SVG Export Plug-In . SVG Version: 6.00 Build 0)  -->
<!DOCTYPE svg PUBLIC "-//W3C//DTD SVG 1.1//EN" "http://www.w3.org/Graphics/SVG/1.1/DTD/svg11.dtd">
<svg version="1.1" id="Layer_1" xmlns="http://www.w3.org/2000/svg" xmlns:xlink="http://www.w3.org/1999/xlink" x="0px" y="0px"
	 width="450px" height="450px" viewBox="0 0 450 450" enable-background="new 0 0 450 450" xml:space="preserve">
<g>
	<g>
		<g enable-background="new    ">
			<g>
				<polygon fill="#717378" points="400.579,338.32 399.476,337.679 399.05,337.925 400.152,338.565 				"/>
			</g>
			<g>
				<g enable-background="new    ">
					<path fill="#474747" d="M400.152,338.565l-1.103-0.641c-0.102-0.026-0.194-0.063-0.277-0.112l1.103,0.641
						C399.959,338.502,400.052,338.54,400.152,338.565L400.152,338.565z"/>
				</g>
			</g>
			<g>
				<polygon fill="#333333" points="397.311,340.207 396.207,339.565 396.21,340.42 397.313,341.062 				"/>
			</g>
			<g>
				<polygon fill="#717378" points="397.736,339.961 396.633,339.32 396.207,339.565 397.311,340.207 				"/>
			</g>
			<g enable-background="new    ">
				<g enable-background="new    ">
					<path fill="#BBBCBE" d="M396.869,336.977l-1.104-0.642c0.002,0.253,0.026,0.501,0.064,0.739l1.104,0.642
						C396.896,337.477,396.871,337.229,396.869,336.977L396.869,336.977z"/>
					<path fill="#474747" d="M396.934,337.716l-1.104-0.642c0.196,1.213,0.768,2.186,0.803,2.246l1.104,0.641
						C397.7,339.9,397.129,338.928,396.934,337.716L396.934,337.716z"/>
				</g>
			</g>
			<g>
				<polygon fill="#717378" points="399.14,335.665 398.036,335.024 395.766,336.335 396.869,336.977 				"/>
			</g>
			<g>
				<path fill="#333333" d="M396.869,336.977c0.014,1.533,0.824,2.912,0.867,2.984l-0.426,0.246l0.002,0.854l3.269-1.887
					l-0.002-0.854l-0.427,0.245c-1.021-0.259-1.105-1.758-1.013-2.9L396.869,336.977z"/>
			</g>
		</g>
	</g>
	<g>
		<g enable-background="new    ">
			<g>
				<polygon fill="#717378" points="360.671,361.635 359.568,360.993 359.143,361.239 360.245,361.88 				"/>
			</g>
			<g>
				<g enable-background="new    ">
					<path fill="#474747" d="M360.245,361.88l-1.103-0.641c-0.103-0.026-0.194-0.063-0.278-0.112l1.104,0.641
						C360.052,361.816,360.144,361.854,360.245,361.88L360.245,361.88z"/>
				</g>
			</g>
			<g>
				<polygon fill="#333333" points="357.403,363.521 356.3,362.88 356.302,363.734 357.405,364.376 				"/>
			</g>
			<g>
				<polygon fill="#717378" points="357.828,363.275 356.726,362.635 356.3,362.88 357.403,363.521 				"/>
			</g>
			<g enable-background="new    ">
				<g enable-background="new    ">
					<path fill="#BBBCBE" d="M356.961,360.291l-1.103-0.642c0.002,0.253,0.026,0.501,0.064,0.739l1.104,0.642
						C356.987,360.791,356.964,360.543,356.961,360.291L356.961,360.291z"/>
					<path fill="#474747" d="M357.026,361.03l-1.104-0.642c0.195,1.213,0.767,2.185,0.803,2.246l1.103,0.641
						C357.793,363.215,357.222,362.242,357.026,361.03L357.026,361.03z"/>
				</g>
			</g>
			<g>
				<polygon fill="#717378" points="359.232,358.979 358.129,358.339 355.858,359.649 356.961,360.291 				"/>
			</g>
			<g>
				<path fill="#333333" d="M356.961,360.291c0.015,1.533,0.825,2.912,0.867,2.984l-0.425,0.246l0.002,0.854l3.269-1.887
					l-0.003-0.854l-0.426,0.245c-1.021-0.259-1.105-1.758-1.013-2.9L356.961,360.291z"/>
			</g>
		</g>
	</g>
	<g>
		<g enable-background="new    ">
			<g>
				<polygon fill="#717378" points="337.934,350.286 336.83,349.646 336.404,349.891 337.508,350.532 				"/>
			</g>
			<g>
				<g enable-background="new    ">
					<path fill="#474747" d="M337.508,350.532l-1.104-0.642c-0.102-0.025-0.193-0.063-0.277-0.112l1.104,0.642
						C337.313,350.469,337.406,350.507,337.508,350.532L337.508,350.532z"/>
				</g>
			</g>
			<g>
				<polygon fill="#333333" points="334.665,352.173 333.563,351.532 333.564,352.387 334.668,353.027 				"/>
			</g>
			<g>
				<polygon fill="#717378" points="335.091,351.928 333.987,351.286 333.563,351.532 334.665,352.173 				"/>
			</g>
			<g enable-background="new    ">
				<g enable-background="new    ">
					<path fill="#BBBCBE" d="M334.224,348.942l-1.104-0.641c0.003,0.252,0.026,0.5,0.065,0.739l1.103,0.641
						C334.25,349.443,334.227,349.195,334.224,348.942L334.224,348.942z"/>
					<path fill="#474747" d="M334.288,349.682l-1.103-0.641c0.195,1.212,0.767,2.185,0.802,2.245l1.104,0.642
						C335.056,351.867,334.484,350.895,334.288,349.682L334.288,349.682z"/>
				</g>
			</g>
			<g>
				<polygon fill="#717378" points="336.494,347.632 335.392,346.99 333.12,348.302 334.224,348.942 				"/>
			</g>
			<g>
				<path fill="#333333" d="M334.224,348.942c0.015,1.533,0.825,2.912,0.867,2.985l-0.426,0.245l0.003,0.854l3.268-1.887
					l-0.002-0.854l-0.426,0.246c-1.021-0.259-1.106-1.759-1.014-2.9L334.224,348.942z"/>
			</g>
		</g>
	</g>
	<g>
		<g enable-background="new    ">
			<g>
				<polygon fill="#717378" points="405.826,317.472 387.071,306.572 364.084,319.844 382.84,330.743 				"/>
			</g>
			<g>
				<polygon fill="#717378" points="382.84,330.743 364.084,319.844 361.308,321.446 380.063,332.346 				"/>
			</g>
			<g>
				<defs>
					<path id="SVGID_1_" d="M333.904,349.473l18.756,10.9c-2.004-1.165-3.277-3.646-3.365-7.169l-18.755-10.899
						C330.628,345.827,331.9,348.309,333.904,349.473z"/>
				</defs>
				<use xlink:href="#SVGID_1_"  overflow="visible" fill="#FAFBFD"/>
				<clipPath id="SVGID_2_">
					<use xlink:href="#SVGID_1_"  overflow="visible"/>
				</clipPath>
				<g clip-path="url(#SVGID_2_)">
					<path fill="#E9ECF2" d="M349.295,353.204l-18.755-10.899c0.016,0.641,0.071,1.247,0.162,1.817l18.756,10.899
						C349.366,354.451,349.312,353.845,349.295,353.204L349.295,353.204z"/>
					<path fill="#E9ECF2" d="M349.458,355.021l-18.756-10.899c0.413,2.564,1.563,4.398,3.202,5.351l18.756,10.9
						C351.021,359.42,349.87,357.586,349.458,355.021L349.458,355.021z"/>
				</g>
			</g>
			<g>
				<polygon fill="#E9ECF2" points="349.287,350.184 330.531,339.284 330.54,342.305 349.295,353.204 				"/>
			</g>
			<g>
				<polygon fill="#717378" points="380.063,332.346 361.308,321.446 330.531,339.284 349.287,350.184 				"/>
			</g>
			<g>
				<path fill="#C8D1E3" d="M349.287,350.184l0.008,3.021c0.165,6.634,4.534,9.573,10.066,6.984
					c0.053-0.025,14.288-8.295,20.746-12.008c0.46-0.259,0.922-0.527,1.388-0.796c0.466-0.27,0.93-0.535,1.39-0.8
					c6.458-3.752,12.902-7.491,12.956-7.527c5.529-3.797,9.865-11.762,9.994-18.565l-0.009-3.021l-22.986,13.271l-2.776,1.603
					L349.287,350.184z"/>
			</g>
		</g>
	</g>
	<g>
		<g>
			<path fill="#BFCBE3" d="M405.948,321.085c2.237-1.292,2.233-3.398-0.009-4.682l-16.768-9.598
				c-2.241-1.283-5.905-1.276-8.143,0.015L328.5,337.217c-2.236,1.292-2.232,3.398,0.009,4.682l16.768,9.598
				c2.241,1.283,5.905,1.276,8.143-0.015L405.948,321.085z"/>
		</g>
		<g>
			<path fill="#3A918F" d="M399.702,321.076c2.237-1.292,2.23-3.395-0.014-4.673l-10.517-5.988
				c-2.244-1.278-5.911-1.268-8.147,0.023l-46.278,26.788c-2.236,1.291-2.23,3.394,0.014,4.672l10.517,5.988
				c2.244,1.278,5.911,1.268,8.147-0.023L399.702,321.076z"/>
		</g>
	</g>
	<g>
		<g>
			<path fill="#49B8B5" d="M405.948,320.137c2.237-1.291,2.233-3.397-0.009-4.681l-16.768-9.599
				c-2.241-1.282-5.905-1.275-8.143,0.016L328.5,336.27c-2.236,1.292-2.232,3.398,0.009,4.682l16.768,9.598
				c2.241,1.283,5.905,1.276,8.143-0.016L405.948,320.137z"/>
		</g>
		<g>
			<path fill="#2E7371" d="M399.702,320.128c2.237-1.291,2.23-3.394-0.014-4.672l-10.517-5.989
				c-2.244-1.278-5.911-1.268-8.147,0.024l-46.278,26.787c-2.236,1.292-2.23,3.395,0.014,4.672l10.517,5.989
				c2.244,1.278,5.911,1.268,8.147-0.024L399.702,320.128z"/>
		</g>
	</g>
	<path fill="#E1E5EE" d="M389.172,309.467l10.517,5.989c2.244,1.278,2.251,3.381,0.014,4.672l-15.885,9.171v-20.695
		C385.684,308.357,387.724,308.642,389.172,309.467z"/>
	<path fill="#C8D1E3" d="M334.746,336.278l46.278-26.787c0.793-0.458,1.768-0.752,2.793-0.888v20.695l-30.394,17.616
		c-2.236,1.292-5.903,1.303-8.147,0.024l-10.517-5.989C332.516,339.673,332.51,337.57,334.746,336.278z"/>
	<path fill="#F3F5F9" d="M328.509,340.951l16.768,9.598c2.241,1.283,5.906,1.276,8.143-0.016l52.529-30.396
		c2.237-1.291,2.233-3.397-0.009-4.681l-16.768-9.599c-2.241-1.282-5.905-1.275-8.143,0.016L328.5,336.27
		C326.264,337.562,326.268,339.668,328.509,340.951z M334.746,336.278l46.278-26.787c0.793-0.458,1.768-0.752,2.793-0.888
		c1.866-0.246,3.906,0.038,5.354,0.863l10.517,5.989c2.244,1.278,2.251,3.381,0.014,4.672l-15.885,9.171l-30.394,17.616
		c-2.236,1.292-5.903,1.303-8.147,0.024l-10.517-5.989C332.516,339.673,332.51,337.57,334.746,336.278z"/>
	<g>
		<g enable-background="new    ">
			<g>
				<polygon fill="#62666F" points="395.721,312.158 394.654,311.539 394.633,303.914 395.698,304.534 				"/>
			</g>
			<g>
				<polygon fill="#62666F" points="392.4,308.306 391.334,307.686 391.325,304.578 392.392,305.198 				"/>
			</g>
			<g>
				<polygon fill="#9DA4B2" points="392.392,305.198 391.325,304.578 395.701,302.052 396.768,302.672 				"/>
			</g>
			<g>
				<polygon fill="#8E94A0" points="396.768,302.672 396.793,311.54 395.721,312.158 395.698,304.534 393.468,305.822 
					393.473,307.687 392.4,308.306 392.392,305.198 				"/>
			</g>
		</g>
	</g>
	<path fill="#008BB3" d="M391.747,309.076c0-0.376,0.518-0.684,1.15-0.684c0.632,0,1.149,0.308,1.149,0.684v0.816h-0.002
		c-0.012,0.166-0.129,0.33-0.352,0.455c-0.459,0.254-1.187,0.247-1.627-0.018c-0.204-0.122-0.309-0.278-0.317-0.438h-0.002V309.076z
		"/>
	<path fill="#D63A3B" d="M397.307,312.128c0-0.377,0.518-0.685,1.149-0.685c0.633,0,1.15,0.308,1.15,0.685v0.816h-0.002
		c-0.012,0.166-0.129,0.33-0.353,0.454c-0.458,0.255-1.186,0.248-1.626-0.017c-0.204-0.122-0.309-0.279-0.317-0.438h-0.002V312.128z
		"/>
</g>
</svg>
