<?xml version="1.0" encoding="utf-8"?>
<!-- Generator: Adobe Illustrator 16.0.0, SVG Export Plug-In . SVG Version: 6.00 Build 0)  -->
<!DOCTYPE svg PUBLIC "-//W3C//DTD SVG 1.1//EN" "http://www.w3.org/Graphics/SVG/1.1/DTD/svg11.dtd">
<svg version="1.1" id="Layer_1" xmlns="http://www.w3.org/2000/svg" xmlns:xlink="http://www.w3.org/1999/xlink" x="0px" y="0px"
	 width="450px" height="450px" viewBox="0 0 450 450" enable-background="new 0 0 450 450" xml:space="preserve">
<g>
	<g>
		<g>
			<g>
				<polygon fill="#C8D1E3" points="312.42,391.194 326.244,383.16 326.305,359.609 326.311,359.237 326.311,358.492 
					312.486,366.526 312.486,367.226 312.481,367.593 				"/>
			</g>
		</g>
		<g>
			<g>
				<polygon fill="#F2F2F2" points="312.488,366.527 326.311,358.494 295.312,340.508 281.488,348.541 				"/>
			</g>
		</g>
		<g>
			<g>
				<polygon fill="#E1E4EA" points="281.442,373.221 310.141,389.878 311.834,390.853 312.42,391.194 312.486,366.526 
					281.488,348.542 				"/>
			</g>
		</g>
		<g>
			<polygon fill="#E1E4EA" points="308.527,361.38 295.307,353.571 295.307,353.204 306.1,347.419 319.32,354.817 319.32,355.185 
							"/>
			<polygon fill="#F2F2F2" points="308.527,361.013 295.307,353.204 306.1,347.009 319.32,354.817 			"/>
			<polygon fill="#F2F2F2" points="296.32,353.367 308.529,360.58 316.05,356.259 303.837,349.046 			"/>
			<polygon fill="#C8D1E3" points="308.527,361.013 308.527,361.38 319.32,355.185 319.32,354.817 			"/>
			<g>
				<polygon fill="#C8D1E3" points="306.534,350.637 299.007,354.953 296.32,353.367 306.534,347.512 318.747,354.726 
					316.059,356.265 				"/>
				<polygon fill="#B7BFCF" points="306.534,347.512 306.534,350.637 299.007,354.953 296.322,353.368 				"/>
			</g>
			<path fill="#008BB3" d="M298.362,356.955c0-0.262,0.36-0.477,0.802-0.477c0.44,0,0.801,0.215,0.801,0.477v0.569h-0.001
				c-0.008,0.116-0.09,0.229-0.245,0.317c-0.319,0.177-0.827,0.172-1.134-0.013c-0.142-0.085-0.215-0.194-0.222-0.305h-0.001
				V356.955z"/>
			<path fill="#D63A3B" d="M302.892,359.331c0-0.263,0.361-0.478,0.802-0.478s0.802,0.215,0.802,0.478v0.568h-0.002
				c-0.008,0.116-0.09,0.23-0.245,0.317c-0.319,0.177-0.826,0.173-1.134-0.012c-0.142-0.086-0.215-0.194-0.221-0.306h-0.002V359.331
				z"/>
			<g>
				<g enable-background="new    ">
					<g>
						<polygon fill="#62666F" points="303.412,355.09 302.707,354.681 302.706,354.05 303.41,354.459 						"/>
					</g>
					<g>
						<polygon fill="#62666F" points="301.665,359.098 300.96,358.688 300.947,354.249 301.652,354.658 						"/>
					</g>
					<g>
						<polygon fill="#9DA4B2" points="301.652,354.658 300.947,354.249 303.412,352.826 304.117,353.235 						"/>
					</g>
					<g>
						<polygon fill="#8E94A0" points="304.117,353.235 304.121,354.681 303.412,355.09 303.41,354.459 302.363,355.063 
							302.374,358.688 301.665,359.098 301.652,354.658 						"/>
					</g>
				</g>
			</g>
		</g>
		<path fill="#E1E4EA" d="M288.876,351.007c0.132-0.017,0.27-0.045,0.393,0.003c0.237,0.09,0.294,0.392,0.431,0.605
			c0.241,0.378,0.738,0.479,1.182,0.547c0.663,0.101,1.38,0.193,1.971-0.123c0.363-0.195,0.636-0.524,0.978-0.756
			c0.745-0.505,1.762-0.508,2.465-1.07c0.39-0.312,0.646-0.784,0.698-1.28c0.019-0.186,0.007-0.386-0.098-0.541
			c-0.135-0.199-0.387-0.277-0.62-0.334c-1.473-0.356-3.002-0.38-4.517-0.401c-0.621-0.009-1.246-0.018-1.857,0.096
			c-1.051,0.193-2.045,0.764-2.735,1.582C286.312,350.344,287.978,351.117,288.876,351.007z"/>
		<g>
			<g>
				<g>
					<g>
						<g>
							<path fill="#F5AD10" d="M296.265,346.111c-0.411-0.651-1.069-1.078-1.813-1.088c-0.73-0.01-1.425,0.409-1.853,1.073
								c-0.129,0.2-0.233,0.42-0.308,0.659c-0.254,0.816-0.23,1.982,0.557,2.884c0.04,0.046,0.082,0.09,0.125,0.135
								c0.063,0.062,0.141,0.121,0.23,0.176c0.646,0.391,1.717,0.404,2.392,0.03c0.113-0.062,0.209-0.131,0.302-0.222
								c0.028-0.029,0.056-0.059,0.082-0.089c0.479-0.535,0.725-1.195,0.729-1.964C296.712,347.11,296.546,346.559,296.265,346.111z
								 M293.916,345.188c0.295-0.164,0.762-0.158,1.044,0.013s0.271,0.441-0.023,0.604s-0.762,0.157-1.044-0.014
								C293.611,345.621,293.621,345.351,293.916,345.188z"/>
						</g>
					</g>
					<g>
						<g enable-background="new    ">
							<g>
								<g>
									<path fill="#DBB000" d="M293.893,345.792c-0.281-0.171-0.271-0.441,0.023-0.604c0.295-0.163,0.762-0.157,1.044,0.014
										c0.281,0.171,0.271,0.441-0.023,0.604C294.642,345.969,294.175,345.963,293.893,345.792z"/>
								</g>
							</g>
						</g>
						<g enable-background="new    ">
							<g>
								<g>
									<path fill="#DADBDB" d="M293.893,345.792c-0.281-0.171-0.271-0.441,0.023-0.604c0.295-0.163,0.762-0.157,1.044,0.014
										c0.281,0.171,0.271,0.441-0.023,0.604C294.642,345.969,294.175,345.963,293.893,345.792z"/>
								</g>
							</g>
							<g enable-background="new    ">
								<g enable-background="new    ">
									<g>
										<path fill="#9E9F9F" d="M295.164,345.497v-0.267c0-0.106-0.067-0.213-0.204-0.296c-0.143-0.086-0.331-0.13-0.521-0.132
											v0.267c0.19,0.002,0.379,0.046,0.521,0.132C295.097,345.284,295.164,345.391,295.164,345.497L295.164,345.497z"/>
									</g>
									<g>
										<path fill="#BEBFBF" d="M294.438,345.069v-0.267c-0.188-0.002-0.376,0.037-0.522,0.118
											c-0.106,0.06-0.176,0.133-0.208,0.211v0.267c0.032-0.078,0.102-0.151,0.208-0.211
											C294.063,345.106,294.251,345.067,294.438,345.069L294.438,345.069z"/>
									</g>
									<g>
										<path fill="#9E9F9F" d="M293.708,345.398v-0.267c-0.013,0.032-0.02,0.065-0.02,0.099v0.267
											C293.688,345.464,293.695,345.431,293.708,345.398L293.708,345.398z"/>
									</g>
								</g>
							</g>
							<g enable-background="new    ">
								<g>
									<g>
										<path fill="#DEDEDE" d="M293.688,345.497v-0.267c0,0.105,0.067,0.213,0.204,0.295v0.267
											C293.756,345.709,293.688,345.603,293.688,345.497L293.688,345.497z"/>
									</g>
								</g>
							</g>
							<g>
								<g>
									<path fill="#DADBDB" d="M293.945,345.497c-0.255-0.154-0.245-0.398,0.021-0.546c0.266-0.146,0.688-0.142,0.941,0.013
										c0.255,0.154,0.245,0.397-0.021,0.545S294.199,345.65,293.945,345.497z"/>
								</g>
							</g>
							<g enable-background="new    ">
								<g enable-background="new    ">
									<g>
										<path fill="#F0F0F0" d="M293.893,345.792v-0.267c0.143,0.086,0.331,0.131,0.521,0.132v0.267
											C294.224,345.922,294.035,345.878,293.893,345.792L293.893,345.792z"/>
									</g>
									<g>
										<path fill="#F0F0F0" d="M294.414,345.924v-0.267c0.188,0.002,0.376-0.037,0.522-0.118c0.106-0.059,0.177-0.133,0.208-0.21
											v0.267c-0.031,0.077-0.102,0.15-0.208,0.21C294.79,345.887,294.602,345.926,294.414,345.924L294.414,345.924z"/>
									</g>
									<g>
										<path fill="#F0F0F0" d="M295.145,345.596v-0.267c0.013-0.032,0.02-0.065,0.02-0.099v0.267
											C295.164,345.529,295.157,345.563,295.145,345.596L295.145,345.596z"/>
									</g>
								</g>
							</g>
							<g>
								<g>
									<path fill="#FFFFFF" d="M293.893,345.525c-0.281-0.17-0.271-0.441,0.023-0.604c0.295-0.163,0.762-0.156,1.044,0.014
										c0.281,0.171,0.271,0.441-0.023,0.604C294.642,345.702,294.175,345.696,293.893,345.525z M293.945,345.497
										c0.254,0.153,0.676,0.159,0.941,0.012s0.275-0.391,0.021-0.545c-0.254-0.154-0.676-0.159-0.941-0.013
										C293.7,345.099,293.69,345.343,293.945,345.497L293.945,345.497z"/>
								</g>
							</g>
						</g>
						<g enable-background="new    ">
							<g>
								<g>
									<path fill="#DB310F" d="M293.945,345.497c-0.255-0.154-0.245-0.398,0.021-0.546c0.266-0.146,0.688-0.142,0.941,0.013
										c0.255,0.154,0.245,0.397-0.021,0.545S294.199,345.65,293.945,345.497z"/>
								</g>
							</g>
							<g enable-background="new    ">
								<g enable-background="new    ">
									<g>
										<path fill="#9F240B" d="M295.092,345.23v-0.782c0-0.096-0.061-0.191-0.185-0.267c-0.128-0.077-0.298-0.117-0.47-0.119
											v0.782c0.172,0.001,0.342,0.041,0.47,0.119C295.031,345.038,295.092,345.135,295.092,345.23L295.092,345.23z"/>
									</g>
									<g>
										<path fill="#BF2B0E" d="M294.438,344.845v-0.782c-0.169-0.002-0.34,0.034-0.472,0.107
											c-0.096,0.053-0.159,0.119-0.188,0.189v0.782c0.028-0.07,0.091-0.137,0.188-0.19
											C294.098,344.879,294.269,344.843,294.438,344.845L294.438,344.845z"/>
									</g>
									<g>
										<path fill="#9F240B" d="M293.778,345.142v-0.782c-0.012,0.029-0.018,0.059-0.018,0.089v0.782
											C293.761,345.2,293.767,345.17,293.778,345.142L293.778,345.142z"/>
									</g>
								</g>
							</g>
							<g>
								<g>
									<path fill="#DADBDB" d="M294.231,344.557c-0.104-0.063-0.1-0.162,0.008-0.222c0.108-0.06,0.279-0.058,0.382,0.005
										c0.104,0.063,0.1,0.162-0.008,0.222C294.505,344.621,294.334,344.619,294.231,344.557z"/>
								</g>
							</g>
							<g>
								<g>
									<path fill="#DB310F" d="M294.231,344.557c-0.104-0.063-0.1-0.162,0.008-0.222c0.108-0.06,0.279-0.058,0.382,0.005
										c0.104,0.063,0.1,0.162-0.008,0.222C294.505,344.621,294.334,344.619,294.231,344.557z"/>
								</g>
							</g>
							<g enable-background="new    ">
								<g>
									<g>
										<path fill="#B32A29" d="M293.761,345.23v-0.782c0,0.096,0.061,0.191,0.185,0.267v0.782
											C293.821,345.422,293.761,345.326,293.761,345.23L293.761,345.23z"/>
									</g>
								</g>
							</g>
							<g enable-background="new    ">
								<g enable-background="new    ">
									<g>
										<path fill="#B32A29" d="M293.945,345.497v-0.782c0.128,0.077,0.299,0.117,0.47,0.119v0.782
											C294.243,345.614,294.073,345.574,293.945,345.497L293.945,345.497z"/>
									</g>
									<g>
										<path fill="#C42E2D" d="M294.415,345.616v-0.782c0.17,0.002,0.34-0.034,0.472-0.106c0.097-0.054,0.159-0.12,0.188-0.19
											v0.782c-0.028,0.07-0.091,0.136-0.188,0.189C294.755,345.582,294.584,345.617,294.415,345.616L294.415,345.616z"/>
									</g>
									<g>
										<path fill="#9F240B" d="M295.074,345.319v-0.782c0.012-0.029,0.018-0.059,0.018-0.089v0.782
											C295.092,345.26,295.086,345.29,295.074,345.319L295.074,345.319z"/>
									</g>
								</g>
							</g>
							<g>
								<g>
									<path fill="#EE3C3B" d="M293.945,344.715c-0.255-0.154-0.245-0.398,0.021-0.545c0.267-0.147,0.688-0.143,0.941,0.012
										c0.255,0.154,0.245,0.398-0.021,0.546C294.621,344.874,294.199,344.869,293.945,344.715z M294.231,344.557
										c0.103,0.063,0.273,0.064,0.382,0.005c0.107-0.06,0.111-0.159,0.008-0.222c-0.103-0.063-0.273-0.064-0.382-0.005
										C294.132,344.395,294.128,344.494,294.231,344.557L294.231,344.557z"/>
								</g>
							</g>
							<g enable-background="new    ">
								<g enable-background="new    ">
									<g>
										<path fill="#9E9F9F" d="M294.696,344.448v-0.708c0-0.039-0.024-0.078-0.075-0.108c-0.052-0.031-0.121-0.048-0.19-0.048
											v0.708c0.069,0.001,0.139,0.017,0.19,0.048C294.672,344.371,294.696,344.409,294.696,344.448L294.696,344.448z"/>
									</g>
									<g>
										<path fill="#BEBFBF" d="M294.431,344.292v-0.708c-0.068-0.001-0.138,0.014-0.191,0.043
											c-0.039,0.021-0.064,0.049-0.075,0.077v0.708c0.011-0.028,0.036-0.056,0.075-0.077
											C294.293,344.306,294.362,344.291,294.431,344.292L294.431,344.292z"/>
									</g>
									<g>
										<path fill="#9E9F9F" d="M294.164,344.412v-0.708c-0.006,0.012-0.008,0.023-0.008,0.036v0.708
											C294.156,344.437,294.158,344.424,294.164,344.412L294.164,344.412z"/>
									</g>
								</g>
							</g>
							<g enable-background="new    ">
								<g>
									<g>
										<path fill="#DEDEDE" d="M294.156,344.448v-0.708c0,0.039,0.025,0.077,0.075,0.107v0.709
											C294.182,344.526,294.156,344.487,294.156,344.448L294.156,344.448z"/>
									</g>
								</g>
							</g>
							<g enable-background="new    ">
								<g enable-background="new    ">
									<g>
										<path fill="#F0F0F0" d="M294.231,344.557v-0.709c0.052,0.032,0.121,0.048,0.19,0.049v0.708
											C294.353,344.604,294.283,344.588,294.231,344.557L294.231,344.557z"/>
									</g>
									<g>
										<path fill="#FFFFFF" d="M294.422,344.604v-0.708c0.068,0.001,0.138-0.014,0.191-0.043
											c0.039-0.022,0.064-0.049,0.076-0.077v0.708c-0.012,0.028-0.037,0.056-0.076,0.077
											C294.56,344.591,294.49,344.605,294.422,344.604L294.422,344.604z"/>
									</g>
									<g>
										<path fill="#9E9F9F" d="M294.689,344.484v-0.708c0.005-0.012,0.007-0.024,0.007-0.036v0.708
											C294.696,344.46,294.694,344.473,294.689,344.484L294.689,344.484z"/>
									</g>
								</g>
							</g>
							<g>
								<g>
									<path fill="#DADBDB" d="M294.231,343.848c-0.104-0.062-0.1-0.161,0.008-0.221c0.108-0.06,0.279-0.058,0.382,0.005
										c0.104,0.063,0.1,0.161-0.008,0.222C294.505,343.913,294.334,343.91,294.231,343.848z"/>
								</g>
							</g>
						</g>
					</g>
					<g>
						<g enable-background="new    ">
							<g>
								<g>
									<polygon fill="#B32A29" points="293.373,344.624 292.894,344.344 292.895,344.216 293.373,344.496 									"/>
								</g>
							</g>
							<g>
								<g>
									<polygon fill="#B32A29" points="293.373,344.496 292.895,344.216 292.895,344.087 293.373,344.367 									"/>
								</g>
							</g>
							<g>
								<g>
									<polygon fill="#EE3C3B" points="293.373,344.367 292.895,344.087 294.679,343.063 295.157,343.344 									"/>
								</g>
							</g>
							<g>
								<g>
									<polygon fill="#C42E2D" points="295.157,343.344 295.157,343.473 295.157,343.601 293.373,344.624 293.373,344.496 
										293.373,344.367 									"/>
								</g>
							</g>
						</g>
					</g>
				</g>
				<g>
					
						<ellipse transform="matrix(1 0.0029 -0.0029 1 1.0202 -0.8603)" fill="#EE3C3B" cx="294.427" cy="348.107" rx="1.835" ry="1.309"/>
				</g>
			</g>
			<g>
				<g>
					<g>
						<g enable-background="new    ">
							<g enable-background="new    ">
								<g>
									<path fill="#638A28" d="M288.127,350.706l-1.29-0.75c-0.054-0.031-0.087-0.097-0.087-0.189l1.29,0.75
										C288.041,350.609,288.074,350.676,288.127,350.706L288.127,350.706z"/>
								</g>
							</g>
							<g enable-background="new    ">
								<g>
									<path fill="#68912A" d="M289.985,344.291l-1.291-0.75c0.083-0.048,0.158-0.052,0.212-0.021l1.291,0.75
										C290.144,344.239,290.068,344.243,289.985,344.291L289.985,344.291z"/>
								</g>
							</g>
							<g>
								<polygon fill="#6E992C" points="289.573,344.528 288.283,343.778 288.694,343.541 289.985,344.291 								"/>
							</g>
							<g>
								<polygon fill="#6E992C" points="288.736,345.013 287.445,344.262 288.283,343.778 289.573,344.528 								"/>
							</g>
							<g>
								<polygon fill="#638A28" points="288.04,350.517 286.75,349.767 286.736,345.014 288.026,345.764 								"/>
							</g>
							<g>
								<polygon fill="#6E992C" points="288.323,345.25 287.032,344.5 287.445,344.262 288.736,345.013 								"/>
							</g>
							<g enable-background="new    ">
								<g>
									<path fill="#68912A" d="M288.026,345.764l-1.29-0.75c-0.001-0.188,0.133-0.419,0.296-0.514l1.291,0.75
										C288.16,345.345,288.026,345.576,288.026,345.764L288.026,345.764z"/>
								</g>
							</g>
							<g>
								<path fill="#7EB033" d="M290.298,349.213c0.001,0.188-0.134,0.42-0.297,0.514l-0.831,0.479l-0.831,0.48
									c-0.163,0.093-0.298,0.018-0.299-0.17l-0.003-1.153l-0.007-2.509l-0.003-1.091c-0.002-0.188,0.133-0.419,0.296-0.513
									l0.413-0.238l0.837-0.484l0.411-0.237c0.165-0.095,0.299-0.019,0.3,0.17l0.004,1.09l0.006,2.508L290.298,349.213z"/>
							</g>
						</g>
					</g>
					<g>
						<g enable-background="new    ">
							<g enable-background="new    ">
								<defs>
									<path id="SVGID_1_" enable-background="new    " d="M289.33,343.42l-0.007,0.874c0,0.112-0.073,0.224-0.221,0.31
										c-0.295,0.172-0.776,0.172-1.073,0c-0.15-0.087-0.225-0.2-0.225-0.313l0.007-0.874c0,0.113,0.074,0.227,0.224,0.313
										c0.298,0.171,0.778,0.171,1.074,0C289.256,343.644,289.33,343.532,289.33,343.42z"/>
								</defs>
								<use xlink:href="#SVGID_1_"  overflow="visible" fill="#5B8025"/>
								<clipPath id="SVGID_2_">
									<use xlink:href="#SVGID_1_"  overflow="visible"/>
								</clipPath>
								<g clip-path="url(#SVGID_2_)" enable-background="new    ">
									<g>
										<path fill="#5B8025" d="M289.33,343.42l-0.007,0.874c0,0.045-0.012,0.089-0.034,0.132l0.006-0.874
											C289.318,343.509,289.33,343.465,289.33,343.42L289.33,343.42z"/>
									</g>
									<g>
										<path fill="#5B8025" d="M289.295,343.552l-0.006,0.874c-0.03,0.055-0.079,0.107-0.147,0.153l0.007-0.874
											C289.216,343.659,289.266,343.606,289.295,343.552L289.295,343.552z"/>
									</g>
									<g>
										<path fill="#5B8025" d="M289.148,343.705l-0.007,0.874c-0.013,0.008-0.025,0.017-0.039,0.024
											c-0.175,0.102-0.414,0.143-0.643,0.124l0.007-0.874c0.229,0.019,0.468-0.022,0.643-0.124
											C289.123,343.722,289.136,343.713,289.148,343.705L289.148,343.705z"/>
									</g>
									<g>
										<path fill="#5B8025" d="M288.467,343.854l-0.007,0.874c-0.098-0.008-0.194-0.027-0.282-0.058l0.007-0.874
											C288.272,343.826,288.368,343.846,288.467,343.854L288.467,343.854z"/>
									</g>
									<g>
										<path fill="#5B8025" d="M288.185,343.796l-0.007,0.874c-0.053-0.018-0.103-0.04-0.148-0.066
											c-0.15-0.087-0.225-0.2-0.225-0.313l0.007-0.874c0,0.113,0.074,0.227,0.224,0.313
											C288.081,343.756,288.132,343.778,288.185,343.796L288.185,343.796z"/>
									</g>
								</g>
							</g>
							<g>
								<g>
									<path fill="#5B8025" d="M289.105,343.107c0.298,0.172,0.3,0.45,0.004,0.622c-0.296,0.171-0.776,0.171-1.074,0
										c-0.297-0.172-0.299-0.45-0.003-0.622C288.327,342.936,288.809,342.936,289.105,343.107z"/>
								</g>
							</g>
						</g>
					</g>
					<g>
						<g>
							<path fill="#FFFFFF" d="M289.131,342.765c0.312,0.188,0.301,0.486-0.023,0.668c-0.325,0.181-0.841,0.176-1.152-0.012
								s-0.301-0.486,0.023-0.668C288.304,342.572,288.819,342.577,289.131,342.765z"/>
						</g>
						<g>
							<g>
								<path fill="#CCCCCC" d="M287.556,343.771l-0.001-0.533c0,0.143,0.092,0.285,0.275,0.396
									c0.378,0.228,1.004,0.233,1.397,0.014c0.203-0.113,0.305-0.264,0.305-0.415l0.001,0.533c0.001,0.15-0.102,0.302-0.304,0.414
									c-0.395,0.22-1.02,0.214-1.398-0.014C287.647,344.055,287.557,343.912,287.556,343.771z"/>
							</g>
							<g>
								<path fill="#FFFFFF" d="M287.895,342.743c0.017-0.009,0.039-0.021,0.056-0.028c0.02-0.01,0.047-0.022,0.067-0.03
									c0.037-0.014,0.087-0.03,0.125-0.042c0.021-0.006,0.05-0.013,0.071-0.018c0.056-0.014,0.125-0.022,0.138-0.024
									c0.021-0.002,0.049-0.006,0.07-0.007c0.021-0.001,0.049-0.003,0.07-0.004c0.021-0.001,0.049-0.001,0.07-0.001
									c0.042,0.001,0.098,0.005,0.14,0.008c0.021,0.001,0.048,0.006,0.068,0.009c0.016,0.002,0.084,0.013,0.135,0.025
									c0.021,0.006,0.048,0.013,0.068,0.019c0.036,0.013,0.085,0.03,0.121,0.044c0.019,0.008,0.044,0.02,0.062,0.029
									c0.02,0.01,0.046,0.024,0.064,0.035c-0.022-0.014-0.055-0.013-0.09,0.007c-0.312-0.188-0.827-0.192-1.152-0.012
									c-0.324,0.182-0.335,0.48-0.023,0.668s0.827,0.192,1.152,0.012c0.324-0.182,0.335-0.48,0.023-0.668
									c0.035-0.02,0.067-0.021,0.09-0.007c0.014,0.009,0.033,0.021,0.047,0.03c0.025,0.019,0.059,0.044,0.082,0.064
									c0.059,0.054,0.093,0.105,0.094,0.107c0.014,0.02,0.029,0.047,0.04,0.068c0.009,0.017,0.019,0.04,0.024,0.059
									c0.006,0.017,0.012,0.038,0.015,0.055c0.002,0.011,0.005,0.025,0.006,0.036c0.002,0.016,0.003,0.038,0.004,0.054
									c0,0.151-0.102,0.302-0.305,0.415c-0.394,0.22-1.02,0.214-1.397-0.014c-0.184-0.11-0.275-0.253-0.275-0.396l0,0
									c0.001-0.021,0.002-0.05,0.006-0.071c0.003-0.019,0.008-0.044,0.014-0.063c0.01-0.029,0.025-0.078,0.07-0.143
									c0.013-0.02,0.033-0.044,0.049-0.062c0.02-0.021,0.048-0.048,0.07-0.066c0.019-0.017,0.045-0.036,0.065-0.05
									C287.849,342.771,287.875,342.754,287.895,342.743z"/>
							</g>
						</g>
					</g>
				</g>
				<polygon fill="#F5AD10" points="290.294,348.059 289.73,348.385 288.573,349.053 288.037,349.363 288.03,346.854 
					288.503,346.581 289.798,345.834 290.288,345.551 				"/>
			</g>
			<g>
				<g>
					<path fill="#EE3C3B" d="M293.601,349.696l-0.007-2.576l-0.001-0.41c-0.001-0.041-0.004-0.096-0.008-0.137
						c-0.003-0.029-0.01-0.067-0.014-0.097c-0.006-0.041-0.02-0.095-0.031-0.135c-0.02-0.067-0.061-0.198-0.158-0.356
						c-0.031-0.052-0.079-0.116-0.116-0.164c-0.032-0.04-0.077-0.091-0.114-0.126c-0.026-0.025-0.062-0.06-0.089-0.083
						c-0.024-0.021-0.058-0.049-0.083-0.068c-0.052-0.04-0.124-0.086-0.179-0.121c-0.041-0.024-0.098-0.055-0.141-0.077
						c-0.028-0.015-0.068-0.032-0.098-0.046c-0.037-0.016-0.088-0.035-0.126-0.05c-0.033-0.012-0.079-0.027-0.113-0.037
						c-0.061-0.017-0.143-0.036-0.204-0.05c-0.032-0.007-0.075-0.014-0.107-0.019c-0.03-0.004-0.071-0.01-0.103-0.012
						c-0.061-0.005-0.143-0.011-0.204-0.012c-0.03,0-0.071,0-0.102,0.001c-0.031,0.001-0.072,0.005-0.103,0.006
						c-0.031,0.002-0.073,0.008-0.104,0.011c-0.05,0.006-0.163,0.025-0.215,0.038c-0.037,0.009-0.087,0.021-0.123,0.031
						c-0.063,0.02-0.144,0.047-0.204,0.07c-0.042,0.016-0.098,0.041-0.138,0.061c-0.03,0.015-0.07,0.035-0.099,0.052
						c-0.054,0.029-0.122,0.072-0.172,0.107c-0.052,0.037-0.12,0.09-0.168,0.134c-0.038,0.034-0.088,0.081-0.122,0.12
						c-0.02,0.023-0.048,0.054-0.066,0.078c-0.028,0.036-0.065,0.086-0.09,0.124c-0.023,0.037-0.055,0.087-0.073,0.126
						c-0.013,0.026-0.031,0.062-0.043,0.089c-0.016,0.038-0.037,0.09-0.05,0.13c-0.008,0.028-0.02,0.065-0.026,0.094
						c-0.009,0.04-0.02,0.094-0.026,0.134c-0.009,0.059-0.012,0.137-0.014,0.195l0.001,0.409l0.008,2.576l0.003,1.063
						c0.002,0.041,0.007,0.096,0.012,0.137c0.003,0.023,0.011,0.054,0.018,0.076c0.012,0.04,0.029,0.092,0.046,0.13
						c0.016,0.037,0.04,0.085,0.063,0.118c0.029,0.044,0.071,0.102,0.105,0.142c0.026,0.032,0.067,0.072,0.098,0.101
						c0.045,0.043,0.111,0.092,0.161,0.129c0.027,0.02,0.065,0.043,0.095,0.061c0.036,0.022,0.086,0.051,0.125,0.069
						c0.036,0.017,0.084,0.04,0.121,0.056c0.034,0.016,0.081,0.034,0.116,0.046c0.038,0.013,0.088,0.03,0.127,0.042
						c0.037,0.011,0.087,0.024,0.125,0.034c0.14,0.034,0.261,0.051,0.262,0.051c0.117,0.016,0.17,0.021,0.269,0.026
						c0.033,0.002,0.137,0.008,0.271,0.003c0.187-0.007,0.368-0.029,0.539-0.067c0.034-0.008,0.139-0.031,0.262-0.073
						c0.036-0.013,0.084-0.029,0.119-0.044c0.04-0.017,0.093-0.039,0.132-0.058c0.032-0.017,0.076-0.038,0.108-0.057
						c0.038-0.021,0.089-0.052,0.125-0.076c0.067-0.046,0.135-0.097,0.199-0.158c0.021-0.02,0.049-0.047,0.067-0.069
						c0.028-0.032,0.063-0.076,0.089-0.11c0.026-0.035,0.057-0.085,0.075-0.124c0.011-0.022,0.025-0.052,0.034-0.074
						c0.011-0.026,0.024-0.063,0.03-0.09c0.012-0.045,0.022-0.106,0.029-0.152c0.003-0.023,0.003-0.055,0.003-0.078L293.601,349.696
						z"/>
				</g>
				<g>
					<g>
						<g>
							<path fill="#C42E2D" d="M290.773,345.581l-0.001-0.491c0,0.131,0.084,0.263,0.254,0.364c0.349,0.21,0.927,0.216,1.291,0.013
								c0.188-0.104,0.281-0.243,0.281-0.383l0.001,0.492c0,0.139-0.094,0.278-0.281,0.383c-0.363,0.203-0.941,0.197-1.291-0.013
								C290.858,345.844,290.773,345.713,290.773,345.581z"/>
						</g>
					</g>
					<g>
						<g>
							<path fill="#FF8D23" d="M291.086,344.633c0.016-0.008,0.035-0.019,0.051-0.026c0.019-0.009,0.044-0.021,0.063-0.027
								c0.034-0.013,0.081-0.028,0.115-0.039c0.02-0.006,0.046-0.012,0.066-0.017c0.052-0.012,0.115-0.021,0.127-0.022
								c0.02-0.002,0.046-0.005,0.065-0.006c0.019-0.001,0.045-0.003,0.064-0.004s0.045-0.001,0.064-0.001
								c0.039,0.001,0.091,0.004,0.129,0.007c0.02,0.002,0.045,0.006,0.064,0.008c0.014,0.002,0.077,0.013,0.124,0.024
								c0.02,0.005,0.044,0.011,0.063,0.018c0.034,0.011,0.079,0.027,0.112,0.04c0.018,0.007,0.04,0.019,0.057,0.026
								c0.019,0.01,0.042,0.022,0.06,0.033c-0.021-0.013-0.051-0.012-0.083,0.006c-0.287-0.173-0.764-0.178-1.063-0.01
								c-0.3,0.167-0.31,0.442-0.022,0.616c0.288,0.173,0.765,0.178,1.064,0.011c0.3-0.168,0.31-0.443,0.021-0.617
								c0.032-0.018,0.063-0.019,0.083-0.006c0.013,0.008,0.031,0.019,0.043,0.027c0.023,0.018,0.055,0.041,0.076,0.061
								c0.054,0.049,0.086,0.097,0.087,0.099c0.012,0.019,0.027,0.043,0.037,0.063c0.008,0.016,0.017,0.037,0.022,0.054
								c0.005,0.015,0.011,0.035,0.014,0.051c0.001,0.01,0.004,0.023,0.005,0.033c0.002,0.015,0.003,0.035,0.004,0.05
								c0,0.14-0.094,0.278-0.281,0.383c-0.364,0.203-0.942,0.197-1.291-0.013c-0.17-0.102-0.254-0.233-0.254-0.364l0,0
								c0-0.021,0.002-0.047,0.005-0.066c0.002-0.018,0.008-0.041,0.013-0.058c0.009-0.026,0.023-0.072,0.065-0.132
								c0.012-0.019,0.03-0.041,0.045-0.057c0.018-0.02,0.044-0.044,0.064-0.062c0.018-0.016,0.042-0.033,0.061-0.046
								C291.044,344.658,291.067,344.643,291.086,344.633z"/>
						</g>
					</g>
				</g>
				<g>
					<g>
						<path fill="#FFFFFF" d="M289.78,349.506l-0.013-2.241c0.001,0.276,0.178,0.552,0.534,0.766c0.311,0.188,0.708,0.298,1.12,0.33
							l0.013,2.24c-0.413-0.032-0.81-0.142-1.12-0.329C289.958,350.058,289.781,349.781,289.78,349.506L289.78,349.506z"/>
					</g>
					<g>
						<path fill="#FFFFFF" d="M291.435,350.601l-0.013-2.24c0.398,0.03,0.811-0.011,1.174-0.125l0.013,2.24
							C292.245,350.59,291.832,350.632,291.435,350.601L291.435,350.601z"/>
					</g>
					<g>
						<path fill="#FFFFFF" d="M292.608,350.476l-0.013-2.24c0.148-0.047,0.289-0.106,0.417-0.177
							c0.031-0.019,0.063-0.036,0.091-0.055l0.013,2.24c-0.029,0.019-0.06,0.037-0.091,0.055
							C292.897,350.37,292.757,350.43,292.608,350.476L292.608,350.476z"/>
					</g>
					<g>
						<path fill="#FFFFFF" d="M293.116,350.244l-0.013-2.24c0.282-0.18,0.445-0.401,0.488-0.628l0.012,2.24
							C293.562,349.844,293.398,350.064,293.116,350.244L293.116,350.244z"/>
					</g>
				</g>
				<g>
					<g>
						<g>
							<path fill="#FEE14F" d="M292.342,343.996c0.348,0.209,0.336,0.543-0.027,0.746c-0.362,0.202-0.938,0.196-1.287-0.014
								c-0.348-0.209-0.336-0.543,0.027-0.745C291.417,343.78,291.993,343.786,292.342,343.996z"/>
						</g>
					</g>
					<g>
						<g>
							<g>
								<path fill="#FEBA11" d="M290.582,345.119l-0.002-0.595c0,0.159,0.103,0.317,0.308,0.441
									c0.423,0.254,1.122,0.261,1.563,0.016c0.227-0.126,0.34-0.295,0.34-0.464l0.002,0.596c0,0.168-0.113,0.337-0.34,0.463
									c-0.44,0.246-1.141,0.239-1.563-0.016C290.685,345.438,290.582,345.278,290.582,345.119z"/>
							</g>
						</g>
						<g>
							<g>
								<path fill="#FED711" d="M290.96,343.972c0.019-0.01,0.043-0.022,0.062-0.031c0.022-0.011,0.053-0.025,0.076-0.034
									c0.041-0.015,0.097-0.034,0.139-0.047c0.023-0.007,0.056-0.015,0.08-0.02c0.063-0.015,0.14-0.025,0.154-0.027
									c0.023-0.002,0.055-0.007,0.078-0.008s0.055-0.004,0.078-0.004c0.023-0.001,0.056-0.002,0.079-0.001
									c0.047,0,0.109,0.005,0.156,0.008c0.023,0.002,0.054,0.007,0.077,0.01c0.018,0.002,0.094,0.015,0.15,0.029
									c0.022,0.006,0.054,0.014,0.076,0.021c0.04,0.014,0.095,0.033,0.135,0.049c0.021,0.009,0.049,0.022,0.069,0.032
									c0.022,0.012,0.051,0.027,0.072,0.04c-0.025-0.016-0.062-0.015-0.101,0.008c-0.349-0.21-0.925-0.216-1.287-0.013
									c-0.363,0.202-0.375,0.536-0.027,0.745c0.349,0.21,0.925,0.216,1.287,0.014c0.363-0.203,0.375-0.537,0.027-0.746
									c0.039-0.022,0.075-0.023,0.101-0.008c0.016,0.01,0.037,0.022,0.052,0.033c0.028,0.021,0.065,0.049,0.092,0.073
									c0.065,0.059,0.104,0.116,0.105,0.119c0.015,0.022,0.032,0.053,0.045,0.076c0.01,0.02,0.02,0.046,0.026,0.065
									c0.006,0.019,0.014,0.043,0.017,0.062c0.002,0.013,0.006,0.028,0.007,0.04c0.002,0.019,0.003,0.043,0.004,0.061
									c0,0.169-0.113,0.338-0.34,0.464c-0.44,0.245-1.14,0.238-1.563-0.016c-0.205-0.124-0.308-0.282-0.308-0.441l0,0
									c0.001-0.024,0.003-0.057,0.006-0.08c0.003-0.021,0.01-0.049,0.017-0.069c0.01-0.033,0.028-0.088,0.078-0.16
									c0.015-0.021,0.036-0.049,0.055-0.068c0.021-0.023,0.054-0.054,0.078-0.074c0.021-0.019,0.051-0.04,0.074-0.056
									C290.908,344.002,290.938,343.984,290.96,343.972z"/>
							</g>
						</g>
					</g>
				</g>
			</g>
		</g>
		<g>
			<path fill="#E1E4EA" d="M317.489,361.154c0.226,0.13,0.59,0.131,0.814,0l3.831-2.227c0.008-0.004,0.014-0.01,0.021-0.014
				c-0.008-0.006-0.015-0.012-0.023-0.017l-2.639-1.523c-0.226-0.13-0.591-0.13-0.814,0l-3.831,2.227
				c-0.008,0.004-0.013,0.01-0.02,0.014c0.008,0.005,0.014,0.012,0.022,0.017L317.489,361.154z"/>
			<g>
				<g enable-background="new    ">
					<g>
						<defs>
							<path id="SVGID_3_" d="M321.388,358.345l-0.001,0.391c-0.001,0.075-0.05,0.15-0.148,0.207l0.001-0.391
								C321.338,358.494,321.388,358.42,321.388,358.345z"/>
						</defs>
						<use xlink:href="#SVGID_3_"  overflow="visible" fill="#FDB813"/>
						<clipPath id="SVGID_4_">
							<use xlink:href="#SVGID_3_"  overflow="visible"/>
						</clipPath>
						<g clip-path="url(#SVGID_4_)" enable-background="new    ">
							<path fill="#FDB813" d="M321.388,358.345l-0.001,0.391c0,0.017-0.003,0.033-0.008,0.05l0.001-0.391
								C321.385,358.378,321.388,358.361,321.388,358.345L321.388,358.345z"/>
							<path fill="#FDB813" d="M321.38,358.395l-0.001,0.391c-0.018,0.058-0.064,0.113-0.141,0.157l0.001-0.391
								C321.316,358.507,321.363,358.452,321.38,358.395L321.38,358.395z"/>
						</g>
					</g>
					<g>
						<defs>
							<path id="SVGID_5_" d="M314.637,359.354l0.002-0.392c-0.001,0.076,0.05,0.153,0.15,0.211l-0.001,0.391
								C314.688,359.507,314.637,359.431,314.637,359.354z"/>
						</defs>
						<use xlink:href="#SVGID_5_"  overflow="visible" fill="#FDAB13"/>
						<clipPath id="SVGID_6_">
							<use xlink:href="#SVGID_5_"  overflow="visible"/>
						</clipPath>
						<g clip-path="url(#SVGID_6_)" enable-background="new    ">
							<path fill="#FDAB13" d="M314.789,359.174l-0.001,0.391c-0.101-0.058-0.151-0.134-0.151-0.21l0.002-0.392
								C314.638,359.039,314.688,359.116,314.789,359.174L314.789,359.174z"/>
						</g>
					</g>
					<g>
						<polygon fill="#FDB813" points="321.239,358.552 321.238,358.942 317.846,360.914 317.847,360.523 						"/>
					</g>
					<g>
						<polygon fill="#FDAB13" points="317.126,360.523 317.125,360.914 314.788,359.564 314.789,359.174 						"/>
					</g>
					<g enable-background="new    ">
						<defs>
							<path id="SVGID_7_" enable-background="new    " d="M317.847,360.523l-0.001,0.391c-0.198,0.115-0.521,0.115-0.721,0
								l0.001-0.391C317.325,360.639,317.648,360.639,317.847,360.523z"/>
						</defs>
						<use xlink:href="#SVGID_7_"  overflow="visible" fill="#FDAB13"/>
						<clipPath id="SVGID_8_">
							<use xlink:href="#SVGID_7_"  overflow="visible"/>
						</clipPath>
						<g clip-path="url(#SVGID_8_)" enable-background="new    ">
							<path fill="#FDB813" d="M317.847,360.523l-0.001,0.391c-0.096,0.056-0.221,0.085-0.347,0.086l0.002-0.391
								C317.626,360.607,317.751,360.579,317.847,360.523L317.847,360.523z"/>
							<path fill="#FDAB13" d="M317.501,360.609L317.499,361c-0.135,0.003-0.271-0.026-0.374-0.086l0.001-0.391
								C317.229,360.583,317.365,360.611,317.501,360.609L317.501,360.609z"/>
						</g>
					</g>
					<g>
						<path fill="#FDB813" d="M321.177,358.237l-2.336-1.349c-0.078-0.045-0.188-0.07-0.302-0.07s-0.224,0.025-0.3,0.07
							l-3.394,1.972c-0.055,0.032-0.088,0.07-0.088,0.104c0,0.034,0.034,0.073,0.091,0.106l2.337,1.349
							c0.078,0.045,0.188,0.071,0.302,0.071c0.113,0,0.223-0.025,0.299-0.07l3.394-1.972c0.055-0.032,0.088-0.071,0.088-0.104
							C321.268,358.31,321.233,358.271,321.177,358.237z"/>
					</g>
					<path fill="#DE8911" d="M317.126,360.523c0.199,0.115,0.522,0.115,0.721,0l3.393-1.972c0.007-0.004,0.012-0.009,0.018-0.013
						c-0.007-0.005-0.012-0.01-0.02-0.015l-2.337-1.349c-0.199-0.115-0.523-0.115-0.722,0l-3.393,1.972
						c-0.007,0.004-0.011,0.008-0.018,0.012c0.007,0.005,0.013,0.011,0.021,0.015L317.126,360.523z"/>
				</g>
				<path fill="#FEC111" d="M321.237,358.134l-2.337-1.349c-0.199-0.116-0.523-0.115-0.722,0l-3.393,1.972
					c-0.198,0.115-0.196,0.302,0.003,0.417l2.337,1.35c0.199,0.115,0.522,0.115,0.721,0l3.393-1.972
					C321.438,358.437,321.437,358.249,321.237,358.134z M321.18,358.448l-3.394,1.972c-0.076,0.045-0.186,0.07-0.299,0.07
					c-0.114,0-0.224-0.026-0.302-0.071l-2.337-1.349c-0.057-0.033-0.091-0.072-0.091-0.106c0-0.033,0.033-0.071,0.088-0.104
					l3.394-1.972c0.076-0.045,0.186-0.07,0.3-0.07s0.224,0.025,0.302,0.07l2.336,1.349c0.057,0.033,0.091,0.072,0.091,0.106
					C321.268,358.377,321.234,358.416,321.18,358.448z"/>
				<g>
					<g>
						<g enable-background="new    ">
							<g enable-background="new    ">
								<g enable-background="new    ">
									<g>
										<path fill="#BFA600" d="M320.324,357.481l-0.003,0.846c-0.001,0.022-0.002,0.045-0.005,0.066l0.003-0.847
											C320.322,357.525,320.324,357.503,320.324,357.481L320.324,357.481z"/>
									</g>
									<g>
										<path fill="#B3D246" d="M320.319,357.547l-0.003,0.847c-0.026,0.227-0.188,0.448-0.486,0.622l0.003-0.847
											C320.131,357.996,320.293,357.773,320.319,357.547L320.319,357.547z"/>
									</g>
								</g>
							</g>
							<g>
								<g>
									<polygon fill="#B3D246" points="319.833,358.169 319.83,359.016 318.593,359.734 318.596,358.888 									"/>
								</g>
							</g>
							<g enable-background="new    ">
								<g enable-background="new    ">
									<g>
										<path fill="#B3D246" d="M318.596,358.888l-0.003,0.847c-0.276,0.16-0.625,0.254-0.986,0.279l0.003-0.847
											C317.971,359.142,318.319,359.048,318.596,358.888L318.596,358.888z"/>
									</g>
									<g>
										<path fill="#B1D132" d="M317.609,359.167l-0.003,0.847c-0.499,0.035-1.021-0.058-1.404-0.279
											c-0.334-0.193-0.501-0.445-0.5-0.698l0.003-0.847c-0.001,0.253,0.166,0.506,0.5,0.698
											C316.589,359.109,317.11,359.202,317.609,359.167L317.609,359.167z"/>
									</g>
								</g>
							</g>
							<g>
								<g>
									<path fill="#7EB033" d="M319.825,356.783c0.662,0.383,0.665,1.003,0.008,1.386l-1.237,0.719
										c-0.658,0.383-1.729,0.382-2.391,0c-0.663-0.383-0.667-1.003-0.009-1.385l1.237-0.72
										C318.092,356.401,319.162,356.4,319.825,356.783z"/>
								</g>
							</g>
						</g>
					</g>
					<g>
						<path fill="#FEE14F" d="M316.83,358.341c-0.14-0.08-0.101-0.153,0.004-0.217c0.117-0.07,0.229-0.122,0.313-0.146l0.123,0.07
							c-0.067,0.032-0.194,0.102-0.242,0.129c-0.057,0.032-0.08,0.05-0.026,0.08l0.023,0.014c0.044,0.026,0.073,0.025,0.126-0.005
							l0.102-0.059c0.141-0.082,0.288-0.032,0.365,0.013l0.04,0.022c0.168,0.098,0.101,0.174,0.006,0.229
							c-0.146,0.084-0.203,0.112-0.313,0.145l-0.122-0.07c0.042-0.021,0.167-0.085,0.256-0.137c0.041-0.023,0.064-0.047,0.022-0.071
							l-0.028-0.016c-0.034-0.021-0.065-0.026-0.112,0.001l-0.099,0.057c-0.175,0.102-0.324,0.026-0.378-0.005L316.83,358.341z"/>
						<path fill="#FEE14F" d="M317.5,357.741c0.166-0.096,0.316-0.146,0.646,0.043c0.31,0.179,0.236,0.268,0.064,0.367
							c-0.173,0.1-0.316,0.147-0.636-0.037C317.245,357.925,317.339,357.834,317.5,357.741z M318.067,358.069
							c0.099-0.058,0.092-0.096-0.079-0.194c-0.194-0.111-0.248-0.107-0.346-0.051c-0.096,0.055-0.111,0.084,0.089,0.199
							C317.903,358.123,317.959,358.132,318.067,358.069z"/>
						<path fill="#FEE14F" d="M318.032,357.439l0.183-0.105l0.923,0.277l-0.164,0.095l-0.188-0.055l-0.212,0.122l0.096,0.108
							l-0.165,0.095L318.032,357.439z M318.615,357.593l-0.288-0.091l0.149,0.171L318.615,357.593z"/>
						<path fill="#FEE14F" d="M318.491,357.174l0.307-0.177c0.092-0.053,0.23-0.103,0.426,0.01c0.219,0.127,0.115,0.206,0.026,0.252
							c-0.041,0.021-0.161,0.073-0.169,0.074l0.269,0.155l-0.156,0.091L318.491,357.174z M319.1,357.188
							c0.04-0.023,0.036-0.049-0.032-0.089c-0.067-0.039-0.114-0.034-0.147-0.015l-0.135,0.077l0.18,0.104L319.1,357.188z"/>
					</g>
				</g>
			</g>
		</g>
	</g>
	<g>
		<polygon fill="#18252D" points="295.307,346.16 295.382,319.437 312.435,329.281 312.358,356.005 295.307,346.16 		"/>
		<g>
			<g enable-background="new    ">
				<g>
					<polygon fill="#0E1419" points="313.807,358.514 314.77,357.954 314.855,327.891 313.892,328.45 					"/>
				</g>
				<g>
					<polygon fill="#111A20" points="313.892,328.45 314.855,327.891 294.897,316.368 293.934,316.928 					"/>
				</g>
				<g>
					<path fill="#18252D" d="M313.807,358.514l-19.958-11.523l0.085-30.063l19.958,11.522L313.807,358.514z M295.307,346.16
						l17.052,9.845l0.076-26.724l-17.053-9.845L295.307,346.16L295.307,346.16z"/>
				</g>
			</g>
		</g>
	</g>
</g>
</svg>
