<?xml version="1.0" encoding="utf-8"?>
<!-- Generator: Adobe Illustrator 16.0.0, SVG Export Plug-In . SVG Version: 6.00 Build 0)  -->
<!DOCTYPE svg PUBLIC "-//W3C//DTD SVG 1.1//EN" "http://www.w3.org/Graphics/SVG/1.1/DTD/svg11.dtd">
<svg version="1.1" id="Layer_1" xmlns="http://www.w3.org/2000/svg" xmlns:xlink="http://www.w3.org/1999/xlink" x="0px" y="0px"
	 width="450px" height="450px" viewBox="0 0 450 450" enable-background="new 0 0 450 450" xml:space="preserve">
<g>
	<g>
		<g>
			<g enable-background="new    ">
				<g enable-background="new    ">
					<defs>
						<path id="SVGID_1_" enable-background="new    " d="M258.266,334.054l0.008,10.938c0.003,1.261,0.826,2.519,2.471,3.475
							l-0.007-10.938C259.093,336.572,258.27,335.314,258.266,334.054z"/>
					</defs>
					<clipPath id="SVGID_2_">
						<use xlink:href="#SVGID_1_"  overflow="visible"/>
					</clipPath>
					<g clip-path="url(#SVGID_2_)" enable-background="new    ">
						<path fill="#C8D1E3" d="M258.266,334.054l0.008,10.938c0,0.127,0.009,0.253,0.025,0.38l-0.007-10.938
							C258.274,334.308,258.266,334.181,258.266,334.054L258.266,334.054z"/>
						<path fill="#C8D1E3" d="M258.292,334.434l0.007,10.938c0.151,1.131,0.967,2.234,2.445,3.095l-0.007-10.938
							C259.258,336.669,258.443,335.564,258.292,334.434L258.292,334.434z"/>
					</g>
				</g>
				<g>
					<polygon fill="#E1E4EA" points="260.737,337.528 260.744,348.466 270.255,353.992 270.248,343.055 					"/>
				</g>
				<g enable-background="new    ">
					<defs>
						<path id="SVGID_3_" enable-background="new    " d="M284.854,350.466l-0.008-10.938c0.004,1.277-0.834,2.556-2.511,3.524
							c-3.337,1.927-8.777,1.927-12.088,0.002l0.007,10.938c3.312,1.925,8.751,1.925,12.088-0.002
							C284.021,353.021,284.858,351.743,284.854,350.466z"/>
					</defs>
					<clipPath id="SVGID_4_">
						<use xlink:href="#SVGID_3_"  overflow="visible"/>
					</clipPath>
					<g clip-path="url(#SVGID_4_)" enable-background="new    ">
						<path fill="#C8D1E3" d="M270.248,343.055l0.007,10.938c1.769,1.028,4.145,1.507,6.483,1.437l-0.008-10.938
							C274.393,344.562,272.017,344.083,270.248,343.055L270.248,343.055z"/>
						<path fill="#C8D1E3" d="M276.73,344.491l0.008,10.938c2.039-0.062,4.05-0.541,5.604-1.438
							c1.678-0.969,2.516-2.247,2.512-3.524l-0.008-10.938c0.004,1.277-0.834,2.556-2.511,3.524
							C280.781,343.95,278.771,344.43,276.73,344.491L276.73,344.491z"/>
					</g>
				</g>
				<g>
					<path fill="#A5B5D6" d="M260.78,330.526c-3.337,1.927-3.354,5.077-0.043,7.002l9.511,5.526
						c3.311,1.925,8.751,1.925,12.088-0.002c3.333-1.924,3.351-5.075,0.039-6.999l-9.511-5.527
						C269.553,328.603,264.113,328.602,260.78,330.526z"/>
				</g>
			</g>
		</g>
		<g>
			<polygon fill="#F2F2F2" points="258.266,322.385 270.439,315.476 274.287,317.684 262.114,324.593 			"/>
			<polygon fill="#E1E4EA" points="258.266,322.385 258.266,336.048 262.114,338.256 262.114,324.593 			"/>
			<polygon fill="#C8D1E3" points="274.287,317.684 274.287,331.347 262.114,338.256 262.114,324.593 			"/>
		</g>
		<g>
			<g enable-background="new    ">
				<g>
					<polygon fill="#C8D1E3" points="277.581,334.636 277.584,335.671 280.073,337.118 280.07,336.083 					"/>
				</g>
				<g enable-background="new    ">
					<defs>
						<path id="SVGID_5_" enable-background="new    " d="M268.404,336.85l0.003,1.035c-0.002-0.803,0.525-1.605,1.583-2.216
							c2.1-1.213,5.507-1.21,7.594,0.002l-0.003-1.035c-2.087-1.213-5.494-1.215-7.594-0.002
							C268.93,335.244,268.402,336.047,268.404,336.85z"/>
					</defs>
					<use xlink:href="#SVGID_5_"  overflow="visible" fill="#9DACC9"/>
					<clipPath id="SVGID_6_">
						<use xlink:href="#SVGID_5_"  overflow="visible"/>
					</clipPath>
					<g clip-path="url(#SVGID_6_)">
						<path fill="#C8D1E3" d="M268.404,336.85l0.003,1.035c-0.002-0.803,0.525-1.605,1.583-2.216
							c0.977-0.564,2.237-0.865,3.516-0.904l-0.003-1.035c-1.278,0.038-2.539,0.34-3.516,0.904
							C268.93,335.244,268.402,336.047,268.404,336.85L268.404,336.85z"/>
						<path fill="#C8D1E3" d="M273.503,333.729l0.003,1.035c1.47-0.044,2.962,0.258,4.078,0.906l-0.003-1.035
							C276.465,333.987,274.973,333.686,273.503,333.729L273.503,333.729z"/>
					</g>
				</g>
				<g enable-background="new    ">
					<defs>
						<path id="SVGID_7_" enable-background="new    " d="M281.631,339.301l-0.003-1.035c-0.002-0.791-0.521-1.581-1.558-2.183
							l0.003,1.035C281.109,337.721,281.629,338.51,281.631,339.301z"/>
					</defs>
					<clipPath id="SVGID_8_">
						<use xlink:href="#SVGID_7_"  overflow="visible"/>
					</clipPath>
					<g clip-path="url(#SVGID_8_)" enable-background="new    ">
						<path fill="#C8D1E3" d="M280.07,336.083l0.003,1.035c0.933,0.542,1.446,1.235,1.541,1.945l-0.003-1.035
							C281.517,337.318,281.003,336.625,280.07,336.083L280.07,336.083z"/>
						<path fill="#C8D1E3" d="M281.611,338.028l0.003,1.035c0.011,0.079,0.017,0.158,0.017,0.237l-0.003-1.035
							C281.628,338.187,281.622,338.107,281.611,338.028L281.611,338.028z"/>
					</g>
				</g>
				<g enable-background="new    ">
					<defs>
						<path id="SVGID_9_" enable-background="new    " d="M265.236,336.861l0.003,1.036c0.004,1.26,0.827,2.519,2.472,3.474
							l-0.003-1.035C266.063,339.381,265.24,338.122,265.236,336.861z"/>
					</defs>
					<clipPath id="SVGID_10_">
						<use xlink:href="#SVGID_9_"  overflow="visible"/>
					</clipPath>
					<g clip-path="url(#SVGID_10_)" enable-background="new    ">
						<path fill="#C8D1E3" d="M265.236,336.861l0.003,1.036c0,0.126,0.009,0.253,0.026,0.38l-0.003-1.036
							C265.245,337.115,265.236,336.988,265.236,336.861L265.236,336.861z"/>
						<path fill="#C8D1E3" d="M265.263,337.241l0.003,1.036c0.151,1.13,0.966,2.234,2.445,3.094l-0.003-1.035
							C266.229,339.477,265.414,338.372,265.263,337.241L265.263,337.241z"/>
					</g>
				</g>
				<g>
					<polygon fill="#C8D1E3" points="267.708,340.336 267.711,341.371 270.2,342.818 270.197,341.782 					"/>
				</g>
				<g enable-background="new    ">
					<defs>
						<path id="SVGID_11_" enable-background="new    " d="M284.799,339.291l-0.002-1.035c0.003,1.277-0.835,2.557-2.512,3.524
							c-3.337,1.927-8.776,1.927-12.088,0.002l0.003,1.036c3.312,1.924,8.751,1.924,12.088-0.003
							C283.965,341.848,284.803,340.568,284.799,339.291z"/>
					</defs>
					<clipPath id="SVGID_12_">
						<use xlink:href="#SVGID_11_"  overflow="visible"/>
					</clipPath>
					<g clip-path="url(#SVGID_12_)">
						<path fill="#C8D1E3" d="M270.197,341.782l0.003,1.036c1.769,1.027,4.145,1.506,6.482,1.436l-0.003-1.035
							C274.342,343.289,271.966,342.811,270.197,341.782L270.197,341.782z"/>
						<path fill="#C8D1E3" d="M276.68,343.219l0.003,1.035c2.04-0.062,4.051-0.541,5.605-1.438c1.677-0.968,2.515-2.247,2.511-3.524
							l-0.002-1.035c0.003,1.277-0.835,2.557-2.512,3.524C280.73,342.678,278.72,343.157,276.68,343.219L276.68,343.219z"/>
					</g>
				</g>
				<g>
					<path fill="#F2F2F2" d="M279.835,333.334l2.489,1.447c3.312,1.924,3.294,5.075-0.039,6.999
						c-3.337,1.927-8.776,1.927-12.088,0.002l-2.489-1.446c-3.312-1.924-3.294-5.075,0.043-7.002
						C271.084,331.41,276.523,331.41,279.835,333.334z M272.451,340.481c2.087,1.212,5.494,1.21,7.595-0.003
						c2.1-1.212,2.111-3.184,0.024-4.396l-2.489-1.447c-2.087-1.213-5.494-1.215-7.594-0.002c-2.101,1.212-2.112,3.188-0.025,4.4
						L272.451,340.481L272.451,340.481z"/>
				</g>
			</g>
		</g>
		<g>
			<g enable-background="new    ">
				<g enable-background="new    ">
					<defs>
						<path id="SVGID_13_" enable-background="new    " d="M267.875,319.572l-0.002-0.518c0,0.124-0.081,0.249-0.244,0.344
							l0.001,0.518C267.794,319.822,267.875,319.696,267.875,319.572z"/>
					</defs>
					<clipPath id="SVGID_14_">
						<use xlink:href="#SVGID_13_"  overflow="visible"/>
					</clipPath>
					<g clip-path="url(#SVGID_14_)" enable-background="new    ">
						<path fill="#161616" d="M267.629,319.398l0.001,0.518c0.164-0.094,0.245-0.22,0.245-0.344l-0.002-0.518
							C267.873,319.179,267.792,319.304,267.629,319.398L267.629,319.398z"/>
					</g>
				</g>
				<g>
					<polygon fill="#111111" points="266.104,320.278 266.105,320.796 267.63,319.916 267.629,319.398 					"/>
				</g>
				<g enable-background="new    ">
					<defs>
						<path id="SVGID_15_" enable-background="new    " d="M264.679,319.936l0.001,0.518c0.001,0.124,0.083,0.248,0.246,0.343
							c0.322,0.188,0.852,0.189,1.18,0l-0.001-0.518c-0.329,0.189-0.858,0.188-1.181,0
							C264.761,320.184,264.679,320.06,264.679,319.936z"/>
					</defs>
					<clipPath id="SVGID_16_">
						<use xlink:href="#SVGID_15_"  overflow="visible"/>
					</clipPath>
					<g clip-path="url(#SVGID_16_)" enable-background="new    ">
						<path fill="#161616" d="M264.679,319.936l0.001,0.518c0,0.013,0.001,0.025,0.003,0.037l-0.002-0.518
							C264.68,319.96,264.679,319.948,264.679,319.936L264.679,319.936z"/>
						<path fill="#1B1B1B" d="M264.681,319.973l0.002,0.518c0.015,0.111,0.096,0.221,0.243,0.306
							c0.173,0.101,0.404,0.147,0.633,0.141l-0.001-0.518c-0.229,0.007-0.461-0.04-0.634-0.141
							C264.777,320.193,264.696,320.084,264.681,319.973L264.681,319.973z"/>
						<path fill="#161616" d="M265.558,320.419l0.001,0.518c0.199-0.006,0.395-0.053,0.547-0.141l-0.001-0.518
							C265.952,320.366,265.756,320.413,265.558,320.419L265.558,320.419z"/>
					</g>
				</g>
				<g>
					<path fill="#191919" d="M264.924,319.593c-0.328,0.189-0.326,0.496,0,0.686c0.322,0.188,0.852,0.189,1.181,0l1.524-0.88
						c0.324-0.188,0.326-0.496,0.004-0.684c-0.326-0.189-0.86-0.189-1.185-0.002L264.924,319.593z"/>
				</g>
			</g>
		</g>
	</g>
</g>
</svg>
