<?xml version="1.0" encoding="utf-8"?>
<!-- Generator: Adobe Illustrator 16.0.0, SVG Export Plug-In . SVG Version: 6.00 Build 0)  -->
<!DOCTYPE svg PUBLIC "-//W3C//DTD SVG 1.1//EN" "http://www.w3.org/Graphics/SVG/1.1/DTD/svg11.dtd">
<svg version="1.1" id="Layer_1" xmlns="http://www.w3.org/2000/svg" xmlns:xlink="http://www.w3.org/1999/xlink" x="0px" y="0px"
	 width="450px" height="450px" viewBox="0 0 450 450" enable-background="new 0 0 450 450" xml:space="preserve">
<g>
	<polygon opacity="0.2" fill="#505B67" points="212.42,277.709 236.99,263.432 293.915,296.33 269.345,310.607 	"/>
	<g>
		<g>
			<g>
				<g>
					<g>
						<g>
							<g>
								<g>
									<g enable-background="new    ">
										<path fill="#252B33" d="M235.763,250.174l-4.513-2.617c-0.165-0.095-0.36-0.141-0.575-0.128l4.515,2.617
											C235.405,250.035,235.598,250.082,235.763,250.174L235.763,250.174z"/>
										<g enable-background="new    ">
											<g enable-background="new    ">
												<path fill="#252B33" d="M214.15,256.768l15.726-9.078c0.053-0.029,0.104-0.057,0.155-0.082
													c0.229-0.111,0.445-0.171,0.644-0.179l4.515,2.617c-0.198,0.01-0.417,0.067-0.646,0.179
													c-0.052,0.024-0.103,0.053-0.153,0.082l-15.728,9.08c-0.759,0.437-1.417,1.325-1.729,2.243l-4.515-2.616
													C212.733,258.095,213.392,257.207,214.15,256.768z"/>
												<path fill="#1F2126" d="M212.235,259.857c0.024-0.275,0.088-0.562,0.185-0.844l4.515,2.616
													c-0.097,0.286-0.161,0.57-0.185,0.845c-0.008,0.082-0.01,0.166-0.01,0.248l0.034,15.708
													c0.002,0.606,0.216,1.035,0.564,1.238l-4.515-2.619c-0.346-0.201-0.562-0.63-0.564-1.236l-0.034-15.71
													C212.225,260.023,212.227,259.941,212.235,259.857z"/>
											</g>
										</g>
										<g>
											<path fill="#1A1C1F" d="M218.663,259.387c-1.063,0.613-1.929,2.113-1.923,3.336l0.034,15.708
												c0.002,1.222,0.875,1.718,1.936,1.104l15.728-9.078c1.061-0.614,1.927-2.113,1.923-3.336l-0.032-15.708
												c-0.004-1.223-0.876-1.721-1.938-1.106L218.663,259.387z"/>
										</g>
									</g>
								</g>
								<g>
									<g enable-background="new    ">
										<g>
											<g enable-background="new    ">
												<path fill="#D63A3B" d="M233.098,243.359l2.729-1.585c-0.606-0.351-1.161-0.381-1.56-0.149l-2.731,1.586
													C231.936,242.978,232.49,243.009,233.098,243.359L233.098,243.359z"/>
											</g>
										</g>
										<g enable-background="new    ">
											<g enable-background="new    ">
												<path fill="#7295AA" d="M280.628,288.556l2.728-1.586c0.398-0.229,0.643-0.716,0.646-1.404l-2.732,1.585
													C281.268,287.84,281.023,288.327,280.628,288.556L280.628,288.556z"/>
											</g>
										</g>
										<g>
											<polygon fill="#D63A3B" points="281.27,287.15 284.002,285.565 284.039,272.057 281.311,273.642 											"/>
										</g>
										<g>
											<polygon fill="#D63A3B" points="233.098,243.359 249.015,252.511 279.119,269.851 281.848,268.263 252.712,251.481 
												251.746,250.926 235.826,241.774 											"/>
										</g>
										<polygon fill="#B32B2B" points="247.664,251.706 248.631,252.262 251.361,250.678 250.396,250.122 										"/>
										<g>
											<g enable-background="new    ">
												<path fill="#D63A3B" d="M281.311,273.642l2.729-1.585c0.004-1.389-0.98-3.094-2.191-3.794l-2.729,1.588
													C280.328,270.546,281.314,272.254,281.311,273.642L281.311,273.642z"/>
											</g>
										</g>
										<g>
											<path fill="#B32B2B" d="M230.894,260.698c-0.003,1.39,0.982,0.522,2.189,1.22l46.022,26.488
												c1.207,0.7,2.2,0.133,2.202-1.256l0.041-13.508c0.004-1.389-0.982-3.097-2.191-3.792l-29.138-16.784l-0.967-0.556
												l-15.917-9.151c-1.209-0.697-2.2-0.132-2.204,1.256L230.894,260.698z"/>
										</g>
										<polygon fill="#872220" points="247.664,251.706 247.664,268.591 248.631,269.146 248.631,252.262 										"/>
									</g>
								</g>
								<g>
									<g enable-background="new    ">
										<g>
											<g enable-background="new    ">
												<path fill="#EDC7AF" d="M276.542,292.524l0.014,4.621c0.535-0.307,0.801-0.715,0.801-1.122l-0.014-4.623
													C277.345,291.811,277.076,292.215,276.542,292.524L276.542,292.524z"/>
											</g>
										</g>
										<g>
											<polygon fill="#EDC7AF" points="263.873,299.841 263.885,304.463 276.556,297.146 276.542,292.524 											"/>
										</g>
										<path fill="#872220" d="M217.112,274.914l42.912,24.927c1.053,0.612,2.788,0.612,3.85,0l0.012,4.622
											c-0.426,0.246-0.96,0.39-1.513,0.438l0.599,1.292l-45.847-26.655c-0.526-0.307-0.789-0.705-0.789-1.109l-0.012-4.622
											C216.323,274.209,216.585,274.607,217.112,274.914z"/>
									</g>
								</g>
								<g>
									<g enable-background="new    ">
										<path fill="#B32B2B" d="M216.352,273.613c-0.095,0.465,0.15,0.946,0.76,1.301l15.424,8.964l0.959,0.558l26.528,15.404
											c1.053,0.613,2.788,0.613,3.849,0l12.67-7.316c0.582-0.335,0.835-0.787,0.782-1.227c0.015-0.065,0.032-0.128,0.032-0.19
											l-0.014-4.618c0,0.403-0.269,0.809-0.801,1.116l-2.314,1.336l-40.585-23.571c-1.055-0.615-2.789-0.615-3.85-0.002
											l-10.357,5.978l-2.324-1.351c-0.527-0.305-0.789-0.705-0.789-1.105l0.012,4.62
											C216.335,273.545,216.348,273.58,216.352,273.613z"/>
										<polygon fill="#872220" points="231.186,278.155 231.186,283.074 232.145,283.632 232.142,278.71 										"/>
										<g>
											<path fill="#D63A3B" d="M217.112,269.994l15.424,8.965l0.956,0.555l26.531,15.407c1.053,0.61,2.788,0.61,3.849,0
												l12.67-7.316c1.063-0.613,1.069-1.618,0.014-2.229l-26.574-15.431l-0.956-0.556l-15.383-8.939
												c-1.055-0.616-2.789-0.616-3.85-0.003l-12.671,7.319C216.059,268.378,216.055,269.381,217.112,269.994z"/>
										</g>
										<polygon fill="#B32B2B" points="231.186,278.154 232.142,278.71 248.631,269.142 247.675,268.585 										"/>
										<polygon fill="#B32B2B" points="263.012,260.601 263.979,261.155 266.71,259.571 265.744,259.016 										"/>
										<polygon fill="#872220" points="263.012,260.601 263.012,277.485 263.979,278.041 263.979,261.156 										"/>
										<polygon fill="#872220" points="246.533,287.049 246.533,291.968 247.493,292.525 247.489,287.604 										"/>
										<polygon fill="#B32B2B" points="246.533,287.049 247.489,287.604 263.979,278.035 263.022,277.479 										"/>
									</g>
								</g>
							</g>
						</g>
					</g>
				</g>
			</g>
		</g>
		<g>
			<g enable-background="new    ">
				<g enable-background="new    ">
					<g enable-background="new    ">
						<path fill="#252B33" d="M263.302,285.317l15.726-9.079c0.053-0.029,0.104-0.057,0.155-0.081
							c0.229-0.111,0.445-0.17,0.644-0.179c0.216-0.012,0.408,0.033,0.575,0.127l4.511,2.62c-0.164-0.095-0.359-0.141-0.572-0.13
							c-0.199,0.011-0.415,0.066-0.645,0.181c-0.049,0.022-0.102,0.05-0.155,0.079l-15.726,9.081
							c-0.759,0.438-1.416,1.325-1.73,2.243l-4.513-2.617C261.885,286.645,262.543,285.756,263.302,285.317z"/>
						<path fill="#1F2126" d="M261.387,288.406c0.024-0.274,0.088-0.561,0.185-0.844l4.513,2.617
							c-0.097,0.283-0.16,0.569-0.185,0.844c-0.006,0.084-0.01,0.167-0.01,0.249l0.034,15.707c0.002,0.609,0.216,1.036,0.563,1.239
							l-4.513-2.619c-0.348-0.201-0.562-0.63-0.563-1.237l-0.034-15.71C261.377,288.572,261.379,288.488,261.387,288.406z"/>
					</g>
				</g>
				<g>
					<path fill="#1A1C1F" d="M267.814,287.937c-1.061,0.613-1.927,2.112-1.925,3.336l0.034,15.707
						c0.004,1.223,0.876,1.719,1.938,1.105l15.726-9.078c1.063-0.614,1.929-2.116,1.925-3.334l-0.034-15.71
						c-0.004-1.223-0.874-1.721-1.938-1.107L267.814,287.937z"/>
				</g>
			</g>
		</g>
	</g>
</g>
</svg>
