<?xml version="1.0" encoding="utf-8"?>
<!-- Generator: Adobe Illustrator 16.0.0, SVG Export Plug-In . SVG Version: 6.00 Build 0)  -->
<!DOCTYPE svg PUBLIC "-//W3C//DTD SVG 1.1//EN" "http://www.w3.org/Graphics/SVG/1.1/DTD/svg11.dtd">
<svg version="1.1" id="Layer_1" xmlns="http://www.w3.org/2000/svg" xmlns:xlink="http://www.w3.org/1999/xlink" x="0px" y="0px"
	 width="450px" height="450px" viewBox="0 0 450 450" enable-background="new 0 0 450 450" xml:space="preserve">
<g>
	<g opacity="0.2">
		<path fill="#505B67" d="M208.351,287.21c1.228,0.709,1.234,1.869,0.013,2.579l-19.045,11.038c-1.22,0.71-3.223,0.71-4.452,0
			l-14.659-8.462c-1.228-0.709-1.234-1.87-0.014-2.58l19.044-11.037c1.222-0.71,3.226-0.71,4.453-0.001L208.351,287.21z"/>
	</g>
	<g>
		<g>
			<g>
				<g enable-background="new    ">
					<g>
						<g enable-background="new    ">
							<path fill="#D63A3B" d="M187.731,268.885l2.626-1.526c0.136-0.079,0.294-0.116,0.47-0.107l-2.626,1.527
								C188.025,268.77,187.866,268.806,187.731,268.885L187.731,268.885z"/>
							<path fill="#D63A3B" d="M188.201,268.778l2.626-1.527c0.164,0.009,0.343,0.057,0.531,0.147l-2.627,1.526
								C188.543,268.835,188.365,268.786,188.201,268.778L188.201,268.778z"/>
							<path fill="#D63A3B" d="M188.73,268.925l2.627-1.526c0.042,0.021,0.083,0.044,0.126,0.067l-2.627,1.526
								C188.814,268.968,188.772,268.945,188.73,268.925L188.73,268.925z"/>
						</g>
					</g>
					<path fill="#1A1C1F" d="M203.358,279.191l-0.027,10.366c-0.001,0.498-0.179,0.85-0.464,1.016l2.626-1.527
						c0.286-0.165,0.463-0.518,0.464-1.016l0.028-10.365L203.358,279.191z"/>
					<path fill="#252B33" d="M205.977,277.463c-0.02-0.227-0.073-0.462-0.152-0.694c-0.257-0.753-0.798-1.484-1.421-1.843
						l-12.919-7.46l-2.627,1.526l12.919,7.459c0.624,0.36,1.165,1.091,1.422,1.845c0.079,0.232,0.132,0.467,0.152,0.693
						c0.005,0.068,0.009,0.136,0.008,0.202l2.627-1.526C205.985,277.6,205.982,277.531,205.977,277.463z"/>
					<g>
						<path fill="#1F2126" d="M203.34,285.208l-0.009,4.35c-0.003,1.003-0.719,1.411-1.592,0.906l-12.919-7.459
							c-0.872-0.502-1.583-1.735-1.581-2.739l0.028-10.365c0.003-1.004,0.719-1.412,1.59-0.908l12.919,7.459
							c0.873,0.504,1.585,1.737,1.582,2.74L203.34,285.208L203.34,285.208z"/>
					</g>
				</g>
			</g>
			<g>
				<g enable-background="new    ">
					<g>
						<g enable-background="new    ">
							<path fill="#D63A3B" d="M175.599,284.627l-0.011,7.856c-0.438-0.253-0.658-0.587-0.656-0.922l0.011-7.856
								C174.941,284.039,175.16,284.373,175.599,284.627L175.599,284.627z"/>
						</g>
					</g>
					<path fill="#872220" d="M203.344,281.888l-0.012,7.857c0,0.33-0.216,0.659-0.647,0.91l-7.965,4.617l-3.385,1.962l-2.175,1.26
						l0.011-7.857l1.685-0.977l4.336-2.514l7.504-4.35C203.127,282.547,203.343,282.218,203.344,281.888z"/>
					<g>
						<polygon fill="#D63A3B" points="186.009,290.637 185.998,298.494 175.587,292.483 175.599,284.627 						"/>
					</g>
					<g>
						<g enable-background="new    ">
							<path fill="#872220" d="M189.17,290.637l-0.011,7.857c-0.867,0.503-2.289,0.503-3.162,0l0.011-7.857
								C186.881,291.141,188.304,291.141,189.17,290.637L189.17,290.637z"/>
						</g>
					</g>
					<g>
						<path fill="#D63A3B" d="M202.687,280.966c0.872,0.504,0.876,1.327,0.009,1.832l-13.525,7.839
							c-0.867,0.504-2.289,0.504-3.162,0l-10.41-6.01c-0.872-0.504-0.876-1.328-0.01-1.832l13.525-7.839
							c0.868-0.504,2.292-0.504,3.163,0L202.687,280.966z"/>
					</g>
				</g>
			</g>
			<g>
				<g enable-background="new    ">
					<g>
						<g enable-background="new    ">
							<path fill="#D63A3B" d="M189.2,258.432l-1.97-1.145c0.439-0.254,0.838-0.275,1.127-0.107l1.97,1.144
								C190.038,258.156,189.639,258.179,189.2,258.432L189.2,258.432z"/>
						</g>
					</g>
					<g>
						<g enable-background="new    ">
							<path fill="#D63A3B" d="M174.393,286.969l-1.971-1.144c-0.285-0.166-0.462-0.518-0.464-1.016l1.97,1.145
								C173.93,286.452,174.107,286.803,174.393,286.969L174.393,286.969z"/>
						</g>
					</g>
					<g>
						<polygon fill="#872220" points="173.928,285.954 171.958,284.81 171.931,267.865 173.9,269.01 						"/>
					</g>
					<g>
						<polygon fill="#D63A3B" points="175.481,266.271 173.512,265.127 187.229,257.287 189.2,258.432 						"/>
					</g>
					<g>
						<g enable-background="new    ">
							<path fill="#872220" d="M173.9,269.01l-1.97-1.145c-0.003-1.002,0.709-2.235,1.581-2.738l1.97,1.145
								C174.609,266.774,173.898,268.007,173.9,269.01L173.9,269.01z"/>
						</g>
					</g>
					<g>
						<path fill="#B32B2B" d="M189.2,258.432c0.872-0.503,1.587-0.096,1.591,0.907l0.027,16.944
							c0.003,1.004-0.709,2.235-1.581,2.739l-13.718,7.839c-0.873,0.504-1.588,0.096-1.591-0.907L173.9,269.01
							c-0.002-1.003,0.708-2.235,1.581-2.738L189.2,258.432z"/>
					</g>
				</g>
			</g>
			<g>
				<g enable-background="new    ">
					<g enable-background="new    ">
						<g enable-background="new    ">
							<path fill="#FA543F" d="M181.247,283.605l-2.346-1.363c-0.196-0.115-0.317-0.355-0.319-0.697l2.346,1.363
								C180.93,283.25,181.051,283.491,181.247,283.605L181.247,283.605z"/>
						</g>
					</g>
					<g enable-background="new    ">
						<g enable-background="new    ">
							<path fill="#D4DBDD" d="M178.718,274.111l2.346,1.364c-0.098,0.245-0.155,0.499-0.154,0.734l0.019,6.698l-2.346-1.363
								l-0.019-6.698C178.563,274.611,178.62,274.358,178.718,274.111z"/>
							<path fill="#FFF9F5" d="M179.097,273.459c0.163-0.205,0.352-0.379,0.554-0.494l8.876-5.124
								c0.064-0.038,0.128-0.068,0.189-0.091c0.179-0.068,0.344-0.075,0.483-0.03c0.036,0.013,0.07,0.026,0.102,0.046l2.346,1.363
								c-0.033-0.02-0.067-0.034-0.103-0.046c-0.139-0.045-0.304-0.037-0.483,0.03c-0.062,0.022-0.124,0.053-0.188,0.09
								l-8.877,5.125c-0.202,0.117-0.391,0.289-0.553,0.494c-0.155,0.195-0.286,0.421-0.379,0.653l-2.346-1.364
								C178.812,273.88,178.942,273.654,179.097,273.459z"/>
						</g>
					</g>
					<g>
						<path fill="#E6ECEF" d="M190.874,269.202c0.599-0.346,1.091-0.064,1.093,0.624l0.02,6.698
							c0.002,0.688-0.487,1.535-1.087,1.882l-8.876,5.124c-0.6,0.347-1.091,0.066-1.094-0.622l-0.019-6.698
							c-0.002-0.689,0.486-1.536,1.086-1.882L190.874,269.202z"/>
					</g>
				</g>
			</g>
		</g>
		<g>
			<g enable-background="new    ">
				<path fill="#1A1C1F" d="M185.093,288.858l-0.027,10.366c-0.002,0.499-0.179,0.851-0.464,1.017l2.626-1.527
					c0.286-0.165,0.463-0.518,0.464-1.016l0.028-10.365L185.093,288.858z"/>
				<path fill="#252B33" d="M187.711,287.131c-0.02-0.227-0.073-0.462-0.152-0.694c-0.258-0.753-0.798-1.484-1.421-1.844
					l-12.919-7.459c-0.042-0.023-0.084-0.047-0.126-0.067c-0.188-0.091-0.367-0.139-0.53-0.147c-0.176-0.009-0.334,0.028-0.47,0.107
					l-2.626,1.526c0.135-0.079,0.294-0.115,0.47-0.107c0.164,0.009,0.343,0.057,0.53,0.147c0.042,0.021,0.083,0.043,0.126,0.067
					l12.919,7.459c0.624,0.359,1.164,1.091,1.422,1.845c0.079,0.231,0.132,0.466,0.152,0.693c0.005,0.068,0.009,0.136,0.008,0.201
					l2.627-1.525C187.72,287.267,187.717,287.198,187.711,287.131z"/>
				<g>
					<path fill="#1F2126" d="M185.074,294.876l-0.009,4.349c-0.003,1.004-0.719,1.411-1.593,0.907l-12.919-7.459
						c-0.872-0.503-1.583-1.735-1.581-2.739L169,279.568c0.003-1.004,0.719-1.412,1.591-0.908l12.919,7.459
						c0.873,0.504,1.585,1.737,1.582,2.739L185.074,294.876L185.074,294.876z"/>
				</g>
			</g>
		</g>
	</g>
</g>
</svg>
