<?xml version="1.0" encoding="utf-8"?>
<!-- Generator: Adobe Illustrator 16.0.0, SVG Export Plug-In . SVG Version: 6.00 Build 0)  -->
<!DOCTYPE svg PUBLIC "-//W3C//DTD SVG 1.1//EN" "http://www.w3.org/Graphics/SVG/1.1/DTD/svg11.dtd">
<svg version="1.1" id="Layer_1" xmlns="http://www.w3.org/2000/svg" xmlns:xlink="http://www.w3.org/1999/xlink" x="0px" y="0px"
	 width="450px" height="450px" viewBox="0 0 450 450" enable-background="new 0 0 450 450" xml:space="preserve">
<g>
	<g>
		<g>
			<g enable-background="new    ">
				<g>
					<polygon fill="#101115" points="152.243,324.434 157.387,321.445 157.423,308.386 152.28,311.375 					"/>
				</g>
				<g>
					<polygon fill="#23262F" points="152.28,311.375 157.423,308.386 151.197,304.791 146.053,307.78 					"/>
				</g>
				<g>
					<polygon fill="#16181D" points="146.053,307.78 146.017,320.84 152.243,324.434 152.28,311.375 					"/>
				</g>
			</g>
		</g>
	</g>
	<g>
		<g>
			<g enable-background="new    ">
				<g>
					<polygon fill="#E6ECEF" points="152.856,318.116 160.243,313.823 160.218,322.782 152.831,327.075 					"/>
				</g>
				<g>
					<polygon fill="#FFF9F5" points="152.831,327.075 160.218,322.782 190.881,340.583 183.494,344.876 					"/>
				</g>
				<g>
					<polygon fill="#E6ECEF" points="184.348,335.444 191.735,331.151 191.705,342.01 184.317,346.303 					"/>
				</g>
				<g>
					<polygon fill="#FFF9F5" points="152.033,316.689 159.42,312.396 191.735,331.151 184.348,335.444 					"/>
				</g>
				<g>
					<path fill="#D4DBDD" d="M152.033,316.689l32.315,18.755l-0.031,10.858l-32.315-18.756L152.033,316.689z M183.494,344.876
						l0.025-8.958l-30.664-17.802l-0.025,8.959L183.494,344.876L183.494,344.876z"/>
				</g>
			</g>
		</g>
		<g>
			<g>
				<g enable-background="new    ">
					<g>
						<polygon fill="#23262F" points="162.624,319.341 164.211,318.418 162.477,317.417 160.889,318.34 						"/>
					</g>
					<g>
						<polygon fill="#1D2225" points="177.433,327.98 179.02,327.058 164.211,318.418 162.624,319.341 						"/>
					</g>
					<g>
						<polygon fill="#23262F" points="179.166,328.98 180.752,328.059 179.02,327.058 177.433,327.98 						"/>
					</g>
					<g>
						<polygon fill="#171B1D" points="179.164,329.691 180.75,328.769 180.752,328.059 179.166,328.98 						"/>
					</g>
					<g>
						<polygon fill="#101115" points="160.889,318.34 160.887,319.05 179.164,329.691 179.166,328.98 177.433,327.98 
							162.624,319.341 						"/>
					</g>
				</g>
				<g enable-background="new    ">
					<g enable-background="new    ">
						<g enable-background="new    ">
							<path fill="#1D2124" d="M153.872,294.954l1.587-0.923c-0.284-0.163-0.542-0.178-0.729-0.069l-1.587,0.922
								C153.33,294.775,153.588,294.79,153.872,294.954L153.872,294.954z"/>
						</g>
					</g>
					<g>
						<polygon fill="#191919" points="177.438,326.18 179.025,325.257 164.216,316.618 162.629,317.54 						"/>
					</g>
					<g>
						<polygon fill="#141414" points="177.433,327.98 179.02,327.058 179.025,325.257 177.438,326.18 						"/>
					</g>
					<g>
						<polygon fill="#101115" points="162.629,317.54 162.624,319.341 177.433,327.98 177.438,326.18 						"/>
					</g>
					<g>
						<g enable-background="new    ">
							<path fill="#101115" d="M186.976,331.335l1.587-0.923c0.184-0.106,0.299-0.334,0.3-0.656l-1.587,0.922
								C187.275,331.001,187.16,331.228,186.976,331.335L186.976,331.335z"/>
						</g>
					</g>
					<g>
						<polygon fill="#101115" points="187.275,330.678 188.863,329.756 188.866,328.457 187.279,329.379 						"/>
					</g>
					<g>
						<polygon fill="#101115" points="187.279,329.379 188.866,328.457 188.902,315.911 187.315,316.834 						"/>
					</g>
					<g>
						<polygon fill="#101115" points="187.315,316.834 188.902,315.911 188.906,314.612 187.318,315.535 						"/>
					</g>
					<g>
						<polygon fill="#23262F" points="186.294,313.762 187.881,312.84 155.459,294.031 153.872,294.954 						"/>
					</g>
					<g>
						<g enable-background="new    ">
							<path fill="#23262F" d="M187.318,315.535l1.587-0.923c0.001-0.648-0.459-1.445-1.025-1.772l-1.587,0.922
								C186.86,314.089,187.32,314.887,187.318,315.535L187.318,315.535z"/>
						</g>
					</g>
					<path fill="#16181D" d="M186.294,313.762l-32.422-18.808c-0.564-0.326-1.028-0.062-1.029,0.587l-0.004,1.299l-0.036,12.545
						l-0.003,1.299c-0.002,0.651,0.458,1.446,1.023,1.772l8.806,5.084l14.809,8.64l8.806,5.084c0.566,0.327,1.03,0.065,1.031-0.586
						l0.004-1.299l0.036-12.545l0.003-1.299C187.32,314.887,186.86,314.089,186.294,313.762z"/>
				</g>
			</g>
		</g>
	</g>
	<g>
		<g>
			<g enable-background="new    ">
				<g>
					<polygon fill="#101115" points="195.954,348.549 201.098,345.56 201.135,332.5 195.991,335.489 					"/>
				</g>
				<g>
					<polygon fill="#23262F" points="195.991,335.489 201.135,332.5 194.908,328.905 189.765,331.895 					"/>
				</g>
				<g>
					<polygon fill="#16181D" points="189.765,331.895 189.728,344.954 195.954,348.549 195.991,335.489 					"/>
				</g>
			</g>
		</g>
	</g>
</g>
</svg>
