<?xml version="1.0" encoding="utf-8"?>
<!-- Generator: Adobe Illustrator 16.0.0, SVG Export Plug-In . SVG Version: 6.00 Build 0)  -->
<!DOCTYPE svg PUBLIC "-//W3C//DTD SVG 1.1//EN" "http://www.w3.org/Graphics/SVG/1.1/DTD/svg11.dtd">
<svg version="1.1" id="Layer_1" xmlns="http://www.w3.org/2000/svg" xmlns:xlink="http://www.w3.org/1999/xlink" x="0px" y="0px"
	 width="450px" height="450px" viewBox="0 0 450 450" enable-background="new 0 0 450 450" xml:space="preserve">
<g>
	<g>
		<g>
			<polygon fill="#801D1D" points="175.179,312.318 175.17,312.706 218.215,337.721 218.224,337.333 			"/>
			<polygon fill="#801D1D" points="175.179,312.318 175.17,312.706 218.215,337.721 218.224,337.333 			"/>
		</g>
		<g>
			<polygon fill="#591414" points="218.224,337.333 218.215,337.721 259.496,313.9 259.505,313.513 			"/>
			<polygon fill="#591414" points="218.224,337.333 218.215,337.721 259.496,313.9 259.505,313.513 			"/>
		</g>
		<g>
			<polygon fill="#A82220" points="175.179,312.318 218.224,337.333 259.505,313.513 216.46,288.498 			"/>
			<polygon fill="#D63A3B" points="182.144,312.328 216.455,292.531 252.541,313.503 218.23,333.299 			"/>
			<polygon fill="#A82220" points="186.429,312.334 216.451,295.014 248.255,313.497 218.233,330.816 			"/>
		</g>
		<polygon fill="#FF9100" points="190.413,312.318 188.421,313.468 186.429,312.318 188.421,311.168 		"/>
		<polygon fill="#FF9100" points="218.457,296.164 216.465,297.313 214.474,296.164 216.465,295.014 		"/>
		<polygon fill="#FF9100" points="220.216,329.667 218.224,330.816 216.233,329.667 218.224,328.517 		"/>
		<polygon fill="#FF9100" points="248.255,313.513 246.264,314.662 244.271,313.513 246.264,312.362 		"/>
	</g>
	<g>
		<g>
			<g opacity="0.5">
				<polygon fill="#BFCEDE" points="224.922,325.42 243.872,314.407 219.957,300.718 201.007,311.73 				"/>
			</g>
			<g>
				<g>
					<g enable-background="new    ">
						<g>
							<polygon fill="#16181D" points="202.62,312.56 204.139,311.678 204.154,301.621 202.636,302.504 							"/>
						</g>
						<g>
							<polygon fill="#292B34" points="202.636,302.504 204.154,301.621 202.763,300.817 201.244,301.7 							"/>
						</g>
						<g>
							<polygon fill="#292B34" points="201.244,301.7 201.229,311.756 202.62,312.56 202.636,302.504 							"/>
						</g>
					</g>
					<g enable-background="new    ">
						<g>
							<polygon fill="#16181D" points="222.103,323.761 223.622,322.878 223.637,312.822 222.119,313.704 							"/>
						</g>
						<g>
							<polygon fill="#292B34" points="221.063,313.082 222.581,312.199 221.19,311.396 219.671,312.278 							"/>
						</g>
						<g>
							<polygon fill="#292B34" points="220.727,312.901 220.711,322.957 222.103,323.761 222.119,313.704 							"/>
						</g>
					</g>
					<g enable-background="new    ">
						<g>
							<polygon fill="#16181D" points="239.087,314.315 240.605,313.433 240.621,306.94 239.103,307.822 							"/>
						</g>
						<g>
							<polygon fill="#292B34" points="238.047,307.2 239.565,306.317 238.174,305.515 236.655,306.396 							"/>
						</g>
						<g>
							<polygon fill="#292B34" points="237.711,307.02 237.695,313.512 239.087,314.315 239.103,307.822 							"/>
						</g>
					</g>
					<g>
						<g enable-background="new    ">
							<g>
								<polygon fill="#E6ECEF" points="223.707,318.195 241.421,307.9 241.426,306.302 223.711,316.596 								"/>
							</g>
							<g>
								<polygon fill="#FFF9F5" points="223.711,316.596 241.426,306.302 216.825,292.159 199.11,302.453 								"/>
							</g>
							<g>
								<polygon fill="#D4DBDD" points="199.11,302.453 199.106,304.053 223.707,318.195 223.711,316.596 								"/>
							</g>
						</g>
					</g>
				</g>
			</g>
		</g>
	</g>
</g>
</svg>
