<?xml version="1.0" encoding="utf-8"?>
<!-- Generator: Adobe Illustrator 16.0.0, SVG Export Plug-In . SVG Version: 6.00 Build 0)  -->
<!DOCTYPE svg PUBLIC "-//W3C//DTD SVG 1.1//EN" "http://www.w3.org/Graphics/SVG/1.1/DTD/svg11.dtd">
<svg version="1.1" id="Layer_1" xmlns="http://www.w3.org/2000/svg" xmlns:xlink="http://www.w3.org/1999/xlink" x="0px" y="0px"
	 width="450px" height="450px" viewBox="0 0 450 450" enable-background="new 0 0 450 450" xml:space="preserve">
<g>
	<g>
		<polygon fill="#788237" points="164.46,357.896 147.993,367.467 131.418,357.897 147.885,348.327 		"/>
	</g>
	<g>
		<g>
			<g enable-background="new    ">
				<g>
					<polygon fill="#5D8300" points="131.556,347.956 131.584,358.14 145.077,365.981 145.048,355.797 					"/>
				</g>
				<g>
					<polygon fill="#415F06" points="145.048,355.797 145.077,365.981 158.658,358.141 158.629,347.956 					"/>
				</g>
				<g>
					<polygon fill="#7AA800" points="131.556,347.956 145.048,355.797 158.629,347.956 145.136,340.115 					"/>
				</g>
			</g>
		</g>
		<g>
			<g enable-background="new    ">
				<g>
					<polygon fill="#5D8300" points="135.445,340.678 135.466,347.938 145.085,353.529 145.065,346.268 					"/>
				</g>
				<g>
					<polygon fill="#415F06" points="145.065,346.268 145.085,353.529 154.768,347.939 154.748,340.678 					"/>
				</g>
				<g>
					<polygon fill="#7AA800" points="135.445,340.678 145.065,346.268 154.748,340.678 145.128,335.088 					"/>
				</g>
			</g>
		</g>
		<g>
			<g enable-background="new    ">
				<g>
					<polygon fill="#5D8300" points="138.341,334.858 138.355,339.943 145.092,343.858 145.078,338.773 					"/>
				</g>
				<g>
					<polygon fill="#415F06" points="145.078,338.773 145.092,343.858 151.873,339.943 151.858,334.858 					"/>
				</g>
				<g>
					<polygon fill="#7AA800" points="138.341,334.858 145.078,338.773 151.858,334.858 145.122,330.943 					"/>
				</g>
			</g>
		</g>
	</g>
</g>
</svg>
