<?xml version="1.0" encoding="utf-8"?>
<!-- Generator: Adobe Illustrator 16.0.0, SVG Export Plug-In . SVG Version: 6.00 Build 0)  -->
<!DOCTYPE svg PUBLIC "-//W3C//DTD SVG 1.1//EN" "http://www.w3.org/Graphics/SVG/1.1/DTD/svg11.dtd">
<svg version="1.1" id="Layer_1" xmlns="http://www.w3.org/2000/svg" xmlns:xlink="http://www.w3.org/1999/xlink" x="0px" y="0px"
	 width="450px" height="450px" viewBox="0 0 450 450" enable-background="new 0 0 450 450" xml:space="preserve">
<g>
	<g>
		<polygon fill="#788237" points="131.018,379.501 114.55,389.07 97.976,379.502 114.443,369.932 		"/>
	</g>
	<g>
		<g>
			<g enable-background="new    ">
				<g>
					<polygon fill="#5D8300" points="125.124,369.499 125.095,379.684 111.603,387.524 111.631,377.34 					"/>
				</g>
				<g>
					<polygon fill="#415F06" points="111.631,377.34 111.603,387.524 98.022,379.684 98.051,369.5 					"/>
				</g>
				<g>
					<polygon fill="#7AA800" points="125.124,369.499 111.631,377.34 98.051,369.5 111.543,361.658 					"/>
				</g>
			</g>
		</g>
		<g>
			<g enable-background="new    ">
				<g>
					<polygon fill="#5D8300" points="121.234,362.222 121.214,369.482 111.594,375.072 111.615,367.812 					"/>
				</g>
				<g>
					<polygon fill="#415F06" points="111.615,367.812 111.594,375.072 101.912,369.482 101.933,362.222 					"/>
				</g>
				<g>
					<polygon fill="#7AA800" points="121.234,362.222 111.615,367.812 101.933,362.222 111.552,356.631 					"/>
				</g>
			</g>
		</g>
		<g>
			<g enable-background="new    ">
				<g>
					<polygon fill="#5D8300" points="118.339,356.401 118.325,361.486 111.588,365.401 111.602,360.316 					"/>
				</g>
				<g>
					<polygon fill="#415F06" points="111.602,360.316 111.588,365.401 104.807,361.487 104.822,356.402 					"/>
				</g>
				<g>
					<polygon fill="#7AA800" points="118.339,356.401 111.602,360.316 104.822,356.402 111.559,352.487 					"/>
				</g>
			</g>
		</g>
	</g>
</g>
</svg>
