<?xml version="1.0" encoding="utf-8"?>
<!-- Generator: Adobe Illustrator 16.0.0, SVG Export Plug-In . SVG Version: 6.00 Build 0)  -->
<!DOCTYPE svg PUBLIC "-//W3C//DTD SVG 1.1//EN" "http://www.w3.org/Graphics/SVG/1.1/DTD/svg11.dtd">
<svg version="1.1" id="Layer_1" xmlns="http://www.w3.org/2000/svg" xmlns:xlink="http://www.w3.org/1999/xlink" x="0px" y="0px"
	 width="450px" height="450px" viewBox="0 0 450 450" enable-background="new 0 0 450 450" xml:space="preserve">
<g>
	<g>
		<polygon fill="#788237" points="101.408,361.658 84.941,371.229 68.366,361.659 84.833,352.089 		"/>
	</g>
	<g>
		<g>
			<g enable-background="new    ">
				<g>
					<polygon fill="#5D8300" points="95.885,351.516 95.856,361.7 82.363,369.541 82.392,359.356 					"/>
				</g>
				<g>
					<polygon fill="#415F06" points="82.392,359.356 82.363,369.541 68.783,361.7 68.812,351.516 					"/>
				</g>
				<g>
					<polygon fill="#7AA800" points="95.885,351.516 82.392,359.356 68.812,351.516 82.304,343.675 					"/>
				</g>
			</g>
		</g>
		<g>
			<g enable-background="new    ">
				<g>
					<polygon fill="#5D8300" points="91.995,344.237 91.974,351.498 82.355,357.089 82.375,349.828 					"/>
				</g>
				<g>
					<polygon fill="#415F06" points="82.375,349.828 82.355,357.089 72.672,351.499 72.693,344.237 					"/>
				</g>
				<g>
					<polygon fill="#7AA800" points="91.995,344.237 82.375,349.828 72.693,344.237 82.313,338.647 					"/>
				</g>
			</g>
		</g>
		<g>
			<g enable-background="new    ">
				<g>
					<polygon fill="#5D8300" points="89.1,338.418 89.085,343.503 82.349,347.418 82.363,342.333 					"/>
				</g>
				<g>
					<polygon fill="#415F06" points="82.363,342.333 82.349,347.418 75.568,343.503 75.583,338.418 					"/>
				</g>
				<g>
					<polygon fill="#7AA800" points="89.1,338.418 82.363,342.333 75.583,338.418 82.319,334.503 					"/>
				</g>
			</g>
		</g>
	</g>
</g>
</svg>
