<?xml version="1.0" encoding="utf-8"?>
<!-- Generator: Adobe Illustrator 16.0.0, SVG Export Plug-In . SVG Version: 6.00 Build 0)  -->
<!DOCTYPE svg PUBLIC "-//W3C//DTD SVG 1.1//EN" "http://www.w3.org/Graphics/SVG/1.1/DTD/svg11.dtd">
<svg version="1.1" id="Layer_1" xmlns="http://www.w3.org/2000/svg" xmlns:xlink="http://www.w3.org/1999/xlink" x="0px" y="0px"
	 width="450px" height="450px" viewBox="0 0 450 450" enable-background="new 0 0 450 450" xml:space="preserve">
<g>
	<g>
		<g>
			<path fill="#788237" d="M17.421,334.092l10.226-5.906l10.291,5.94l-10.226,5.906L17.421,334.092z"/>
		</g>
	</g>
	<g>
		<g>
			<path fill="#3C1D00" d="M31.484,285.192c0,0.318-0.123,0.636-0.369,0.928c-0.181,0.214-0.429,0.414-0.743,0.589
				c-0.502,0.28-1.108,0.46-1.743,0.54c-1.184,0.148-2.467-0.051-3.366-0.592c-0.67-0.403-1.004-0.924-1.006-1.443l0.014,49.146
				c0.001,0.52,0.335,1.04,1.006,1.443c0.899,0.541,2.183,0.74,3.366,0.592c0.635-0.08,1.241-0.26,1.744-0.54
				c0.313-0.175,0.562-0.375,0.743-0.589c0.247-0.292,0.37-0.609,0.369-0.928L31.484,285.192z"/>
			<g enable-background="new    ">
				<g>
					<polygon fill="#5D8300" points="40.725,275.587 40.69,309.939 27.702,317.487 27.737,283.135 					"/>
				</g>
				<g>
					<polygon fill="#415F06" points="27.737,283.135 27.702,317.487 14.633,309.941 14.668,275.589 					"/>
				</g>
				<g>
					<polygon fill="#7AA800" points="40.725,275.587 27.737,283.135 14.668,275.589 27.656,268.041 					"/>
				</g>
			</g>
		</g>
	</g>
</g>
</svg>
