<?xml version="1.0" encoding="utf-8"?>
<!-- Generator: Adobe Illustrator 16.0.0, SVG Export Plug-In . SVG Version: 6.00 Build 0)  -->
<!DOCTYPE svg PUBLIC "-//W3C//DTD SVG 1.1//EN" "http://www.w3.org/Graphics/SVG/1.1/DTD/svg11.dtd">
<svg version="1.1" id="Layer_1" xmlns="http://www.w3.org/2000/svg" xmlns:xlink="http://www.w3.org/1999/xlink" x="0px" y="0px"
	 width="450px" height="450px" viewBox="0 0 450 450" enable-background="new 0 0 450 450" xml:space="preserve">
<g>
	<g>
		<g>
			<path fill="#788237" d="M76.376,299.667l10.226-5.906l10.291,5.941l-10.226,5.906L76.376,299.667z"/>
		</g>
	</g>
	<g>
		<g>
			<path fill="#3C1D00" d="M90.439,250.769c0,0.317-0.123,0.636-0.369,0.927c-0.182,0.214-0.429,0.414-0.743,0.589
				c-0.502,0.28-1.108,0.46-1.743,0.54c-1.184,0.148-2.467-0.05-3.366-0.592c-0.671-0.403-1.005-0.923-1.006-1.443l0.014,49.146
				c0.001,0.521,0.335,1.04,1.006,1.443c0.899,0.542,2.183,0.74,3.366,0.592c0.635-0.08,1.241-0.26,1.744-0.54
				c0.313-0.175,0.562-0.375,0.743-0.589c0.247-0.291,0.37-0.609,0.369-0.927L90.439,250.769z"/>
			<g enable-background="new    ">
				<g>
					<polygon fill="#5D8300" points="99.68,241.162 99.646,275.515 86.657,283.063 86.692,248.71 					"/>
				</g>
				<g>
					<polygon fill="#415F06" points="86.692,248.71 86.657,283.063 73.588,275.518 73.623,241.165 					"/>
				</g>
				<g>
					<polygon fill="#7AA800" points="99.68,241.162 86.692,248.71 73.623,241.165 86.611,233.617 					"/>
				</g>
			</g>
		</g>
	</g>
</g>
</svg>
