<?xml version="1.0" encoding="utf-8"?>
<!-- Generator: Adobe Illustrator 16.0.0, SVG Export Plug-In . SVG Version: 6.00 Build 0)  -->
<!DOCTYPE svg PUBLIC "-//W3C//DTD SVG 1.1//EN" "http://www.w3.org/Graphics/SVG/1.1/DTD/svg11.dtd">
<svg version="1.1" id="Layer_1" xmlns="http://www.w3.org/2000/svg" xmlns:xlink="http://www.w3.org/1999/xlink" x="0px" y="0px"
	 width="450px" height="450px" viewBox="0 0 450 450" enable-background="new 0 0 450 450" xml:space="preserve">
<g>
	<polygon fill="#C3AB84" points="110.15,288.101 110.151,303.762 115.213,306.72 115.096,291.068 	"/>
	<g>
		<polygon fill="#F2F2F2" points="327.943,86.243 322.998,83.055 294.999,181.433 299.582,184.8 		"/>
		<polygon fill="#F2F2F2" points="299.582,184.8 299.582,178.789 110.151,288.099 115.096,291.068 115.096,291.068 115.096,291.068 
					"/>
		<polygon fill="#ACDDE6" points="327.943,86.243 299.582,184.8 299.582,200.282 327.943,183.909 		"/>
		<g>
			<polygon fill="#ACDDE6" points="299.582,184.8 235.852,221.511 235.852,237.074 299.582,200.282 			"/>
			<polygon fill="#F2B7B7" points="115.096,291.068 115.213,306.72 235.852,237.074 235.852,221.511 			"/>
		</g>
		
			<rect x="100.887" y="237.934" transform="matrix(0.8665 -0.4991 0.4991 0.8665 -91.0868 135.2489)" fill="#1F5A66" width="212.904" height="0"/>
		<polygon fill="#1F5A66" points="299.582,184.8 327.943,86.243 299.582,184.8 		"/>
	</g>
</g>
</svg>
