<?xml version="1.0" encoding="utf-8"?>
<!-- Generator: Adobe Illustrator 16.0.0, SVG Export Plug-In . SVG Version: 6.00 Build 0)  -->
<!DOCTYPE svg PUBLIC "-//W3C//DTD SVG 1.1//EN" "http://www.w3.org/Graphics/SVG/1.1/DTD/svg11.dtd">
<svg version="1.1" id="Layer_1" xmlns="http://www.w3.org/2000/svg" xmlns:xlink="http://www.w3.org/1999/xlink" x="0px" y="0px"
	 width="450px" height="450px" viewBox="0 0 450 450" enable-background="new 0 0 450 450" xml:space="preserve">
<g>
	<g>
		<polygon fill="#F2F2F2" points="404.083,270.018 409.027,267.049 340.144,226.861 335.199,229.831 		"/>
		<polygon fill="#FFF5E6" points="335.199,229.831 335.199,298.039 404.083,338.14 404.083,270.018 		"/>
		<polygon fill="#EED7B4" points="409.028,267.051 409.027,335.256 404.083,338.14 404.083,270.018 		"/>
	</g>
	<g>
		<polygon fill="#B39A74" points="238.382,340.545 238.382,349.813 243.327,352.697 243.327,343.513 		"/>
		<g>
			<polygon fill="#F2F2F2" points="300.357,304.693 238.382,340.543 243.327,343.513 300.357,310.523 			"/>
			<polygon fill="#EED7B4" points="243.327,343.513 243.327,352.697 300.357,319.759 300.357,310.523 			"/>
		</g>
		<g>
			<polygon fill="#F2F2F2" points="315.146,241.314 296.095,307.159 300.357,310.523 319.45,244.77 			"/>
			<polygon fill="#F2F2F2" points="340.213,232.734 335.268,229.766 315.146,241.314 319.45,244.77 			"/>
			<polygon fill="#EED7B4" points="340.213,263.054 340.213,232.734 319.45,244.77 			"/>
			<polygon fill="#EED7B4" points="319.45,244.77 300.357,310.523 300.357,319.759 340.213,296.739 340.213,263.054 			"/>
		</g>
	</g>
</g>
</svg>
