<?xml version="1.0" encoding="utf-8"?>
<!-- Generator: Adobe Illustrator 16.0.0, SVG Export Plug-In . SVG Version: 6.00 Build 0)  -->
<!DOCTYPE svg PUBLIC "-//W3C//DTD SVG 1.1//EN" "http://www.w3.org/Graphics/SVG/1.1/DTD/svg11.dtd">
<svg version="1.1" id="Layer_1" xmlns="http://www.w3.org/2000/svg" xmlns:xlink="http://www.w3.org/1999/xlink" x="0px" y="0px"
	 width="450px" height="450px" viewBox="0 0 450 450" enable-background="new 0 0 450 450" xml:space="preserve">
<g>
	<g>
		<g>
			<path fill="#FFC655" d="M125.052,316.729c0.304,0.611,1.321,1.562,2.452,2.582c1.431,1.291,3.044,2.697,3.629,3.677
				c0.417,0.699,1.105,2.103,1.722,3.405c0.251-0.068,0.503-0.133,0.757-0.196c0.628-0.157,1.258-0.31,1.876-0.499
				c-0.447-1.346-0.974-2.818-1.455-3.857c-1.106-2.387-5.724-7.446-6.522-7.667c-0.001-0.001-0.002-0.001-0.003-0.001
				c-0.054-0.016-0.107-0.03-0.16-0.041c-0.38-0.087-0.708-0.065-0.989,0.032C125.174,314.57,124.839,316.3,125.052,316.729z"/>
		</g>
	</g>
	<path fill="#171716" d="M119.096,353.341c-0.088,0.167-0.038,0.368-0.019,0.557c0.047,0.461-0.165,0.888-0.264,1.329
		c-0.104,0.46-0.216,0.922-0.189,1.395c0.042,0.698,0.313,1.383,0.776,1.903c0.233,0.262,0.517,0.488,0.851,0.597
		c0.333,0.111,0.718,0.095,1.018-0.093c0.287-0.185,0.466-0.506,0.548-0.838c0.068-0.292,0.074-0.593,0.07-0.892
		c-0.001-0.042,0-0.086-0.001-0.127c-0.008-0.617,0.249-2.754,0.292-3.202c0.016-0.181,0.009-0.369-0.064-0.534
		c-0.02-0.045-0.044-0.086-0.072-0.125c-0.056-0.086-0.125-0.16-0.195-0.235c-0.148-0.161-0.303-0.323-0.482-0.45
		c-0.07-0.05-0.902-0.47-0.895-0.499c-0.114,0.376-0.404,0.695-0.763,0.848c-0.146,0.063-0.316,0.106-0.447,0.191
		C119.19,353.209,119.133,353.268,119.096,353.341z"/>
	<g>
		<path fill="#171716" d="M126.499,350.608c0,0-1.959-0.986-2.047,1.639c-0.022,0.683,0.816,0.996,1.191,1.057
			c0.164,0.027,0.404,0.007,0.638,0.223c0.294,0.273,0.4,0.51,0.49,0.614c0.927,1.11,2.68,1.208,3.191,0.772
			c0.734-0.623-0.516-1.689-1.735-2.699C126.953,351.16,126.499,350.608,126.499,350.608z"/>
	</g>
	<g>
		<path fill="#24334A" d="M118.844,342.242C118.82,342.327,118.831,342.065,118.844,342.242L118.844,342.242z"/>
		<path fill="#24334A" d="M118.844,342.242C118.82,342.327,118.831,342.065,118.844,342.242L118.844,342.242z"/>
		<g>
			<path fill="#B32B2B" d="M128.601,333.481L128.601,333.481C128.615,333.82,128.609,333.686,128.601,333.481z"/>
			<path fill="#B32B2B" d="M128.584,333.07c0,0.002,0,0.004,0,0.005C128.583,333.058,128.583,333.055,128.584,333.07z"/>
			<path fill="#B32B2B" d="M128.584,333.07c0.007,0.181,0.013,0.314,0.017,0.411l0,0c-0.006-0.155-0.014-0.351-0.017-0.406
				C128.584,333.074,128.584,333.072,128.584,333.07z"/>
		</g>
	</g>
	<path fill="#FFC655" d="M118.844,332.727c0.183,0.959,3.289,1.096,6.174,0.82c0.117-0.011,0.233-0.022,0.347-0.035
		c1.795-0.195,2.521-0.313,2.631-0.723c0.422-2.53,0.315-12.151,0.375-14.736c0.024-1.021,0.092-2.368-0.468-3.264
		c-0.863-1.377-4.23-1.211-5.833-0.777c-0.849,0.23-1.701,0.576-2.502,0.938c-1.035,0.467-1.063,1.428-1.005,2.472
		C118.679,319.498,118.631,331.605,118.844,332.727z"/>
	<path fill="#E1AA3D" d="M126.47,315.406c0.079,0.443,0.315,0.843,0.424,1.285c0.13,0.528,0.256,1.059,0.367,1.595
		c0.069,0.339,0.151,0.682,0.243,1.025c1.431,1.291,3.044,2.697,3.629,3.677c0.417,0.699,1.105,2.103,1.722,3.405
		c0.713,1.507,1.162,2.38,1.162,2.38c0.085,0.354,0.477,0.523,0.917,0.549c-0.113-0.627-1.145-2.698-1.322-3.125
		c-0.332-0.8-0.699-1.566-1.171-2.339c-0.527-0.859-3.023-3.384-4.357-5.981c-0.65-1.267-0.719-3.662-0.736-3.745
		c-0.38-0.087-0.708-0.065-0.989,0.032C126.309,314.563,126.406,315.042,126.47,315.406z"/>
	<path fill="#E1AA3D" d="M119.008,315.353c0.179-0.313,0.792-0.134,1.027,0.03c0.393,0.274,0.602,0.788,0.799,1.202
		c0.255,0.537,0.286,1.082,0.427,1.646c0.1,0.396,0.227,0.777,0.284,1.18c0.134,0.938,0.29,1.865,0.482,2.802
		c0.099,0.479,0.123,0.956,0.195,1.437c0.136,0.904,1.345,4.107,0.184,4.331c-0.731,0.141-1.326-1.57-1.521-2.037
		c-0.472-1.131-0.824-2.407-0.834-3.637c-0.008-1.069-0.146-2.326-0.52-3.342c-0.373-1.014-0.534-2.051-0.457-3.135
		C119.105,315.843,119.099,315.862,119.008,315.353z"/>
	<path fill="#FCE897" d="M124.692,315.248c0.122-0.348-0.035-0.711,0.022-1.061c0.04-0.24,0.901-0.227,0.794-0.48
		c0.686,0.618,0.811,1.125,0.389,2.45c-0.121,0.381-0.464,1.424-0.719,1.397c-0.229-0.058-0.938-1.298-1.335-1.851
		c0.328-0.052,0.775-0.247,0.839-0.432C124.659,315.343,124.662,315.334,124.692,315.248
		C124.793,314.959,124.631,315.423,124.692,315.248z"/>
	<g>
		<g>
			<path fill="#FFC6A6" d="M122.416,315.695c-0.578-0.255-1.494-0.774-1.238-1.322c0.518-1.104,0.338-3.212,0.338-3.212l3.149,0.324
				c0.128,0.001,0.365,2.377,0.306,3.255C124.914,315.6,123.283,316.079,122.416,315.695z"/>
		</g>
	</g>
	<g>
		<path fill="#1B2B44" d="M118.844,342.242C118.82,342.327,118.831,342.065,118.844,342.242L118.844,342.242z"/>
		<path fill="#24334A" d="M118.242,352.289c-0.085-3.352-0.315-6.777,0.603-10.047c-0.246-3.193-0.334-12.191-0.292-14.421
			c0.744,0.07,1.257-0.046,1.96-0.363c2.798-1.266,1.211-7.541,1.193-8.419c0-0.026,0.061-0.07,0.165-0.123
			c-0.619-1.271-2.453-3.53-2.805-3.635c0.285-0.285,1.089-0.795,1.197-0.677c0.355,0.389,0.911,1.471,1.213,1.907
			c0.294,0.425,1.082,1.478,1.358,2.031c0.581-0.189,1.253-0.364,1.673-0.395c0.628-0.045,1.462-0.095,2.192-0.079
			c-0.249-1.632-0.755-4.208-0.913-4.313c0.905-0.055,1.227,0.334,1.227,0.334s0.387,1.168,0.646,4.058
			c0.344,0.061,0.589,0.159,0.659,0.314c0.037,3.142,0.378,14.181,0.334,14.225c-0.007,0.409-0.356,6.619-0.302,9.533
			c0.058,3.061,0.371,6.265,0.011,9.312c-0.081,0.686-0.27,0.749-0.934,0.881c-0.669,0.132-1.395,0.196-2.075,0.133
			c-1.01-0.093-1.084-0.559-1.202-1.477c-0.379-2.954-0.212-5.996-0.288-8.969c-0.051-2.025-0.103-4.049-0.145-6.073
			c-0.242,1.202-0.257,7.357-1.001,16.531c-0.048,0.584-0.112,1.987-0.414,2.49c-0.182,0.304-0.626,0.38-0.948,0.442
			c-0.793,0.154-2.109,0.225-2.748-0.385C118.01,354.537,118.26,353.027,118.242,352.289z"/>
		<path fill="#14233A" d="M123.747,335.411c0.284,0.283,0.567,0.473,0.662,0.852c0.662,4.919-0.284,9.554,0.662,14.473
			c0.125,0.603,0.268,1.214,0.441,1.821c-0.053-0.004-0.106-0.007-0.159-0.012c-1.01-0.093-1.084-0.559-1.202-1.477
			c-0.379-2.954-0.212-5.996-0.288-8.969c-0.051-2.025-0.103-4.049-0.145-6.073L123.747,335.411z"/>
		<path fill="#14233A" d="M118.242,352.289c-0.085-3.352-0.315-6.777,0.603-10.047c-0.246-3.193-0.334-12.191-0.292-14.421
			c0.744,0.07,1.257-0.046,1.96-0.363c2.798-1.266,1.211-7.541,1.193-8.419c-0.001-0.054,0.074-0.003,0.43-0.139
			c0.441,2.267,0.135,4.517,0.855,6.768c0.91,3.062,3.847,4.82,5.645,7.429c-0.012,0.252-0.029,0.603-0.049,1.024
			c-4-0.995-8.913-5.305-9.107-2.777c-0.189,1.607,0.2,9.743,0.105,12.297c0,2.838-0.662,5.581-0.567,8.419
			c0.049,1.131,0.099,2.254,0.151,3.375c-0.215-0.076-0.408-0.183-0.561-0.329C118.01,354.537,118.26,353.027,118.242,352.289z"/>
	</g>
	<path fill="#FCE897" d="M123.844,315.704c0.36-0.034,0.081,0.937-0.008,1.37c-0.09,0.438-0.403,0.979-0.575,0.9
		c-0.567-0.261-1.571-1.184-2.3-2.158c-0.737-0.984-0.165-1.779,0.383-1.906C121.198,314.541,122.536,315.826,123.844,315.704z"/>
	<g>
		<g>
			<g>
				<g>
					<g>
						<g>
							<path fill="#A4A4A4" d="M136.042,334.078l-0.35-1.576l-0.651,0.027l0.279,2.111l0.002-0.004
								c-0.061,0.326-0.039,0.725,0.115,1.141c0.362,0.975,1.312,1.669,1.768,1.603c0.001,0,0-0.065,0-0.065L136.042,334.078z
								 M135.546,334.086h0.002c-0.001,0.002-0.002,0.005-0.005,0.007L135.546,334.086z"/>
						</g>
					</g>
				</g>
				<g>
					<path opacity="0.5" fill="#A4A4A4" d="M135.12,333.67c-0.004,0.001-0.008,0.002-0.011,0.003l0-0.002L135.12,333.67z"/>
				</g>
				<g>
					<path opacity="0.5" fill="#A4A4A4" d="M134.89,333.763l0.002,0.001c-0.003,0.001-0.005,0.003-0.008,0.005L134.89,333.763z"/>
				</g>
				<g>
					<g>
						<path fill="#A4A4A4" d="M142.032,334.563c0.08-0.166-0.372-0.455-1.143-0.703l0.32,0.601
							C141.703,334.525,142.03,334.566,142.032,334.563z"/>
					</g>
					<g>
						<path fill="#A4A4A4" d="M140.769,334.403l-0.363-0.681c-0.334-0.085-0.707-0.16-1.11-0.216
							c-0.192-0.026-0.383-0.047-0.57-0.063l0.396,0.742C139.7,334.263,140.28,334.34,140.769,334.403z"/>
					</g>
					<g>
						<path fill="#A4A4A4" d="M141.209,334.461l-0.32-0.601c-0.149-0.048-0.311-0.095-0.483-0.138l0.363,0.681
							C140.927,334.424,141.074,334.443,141.209,334.461z"/>
					</g>
					<g>
						<g>
							<path fill="#A4A4A4" d="M138.167,334.06l-0.35-0.656c-0.172,0-0.338,0.004-0.494,0.011l0.008-0.001l-3.174-0.168
								l-0.111,0.364l2.293,0.207C136.34,333.816,137.155,333.926,138.167,334.06z M136.366,333.53l0.011-0.002
								C136.374,333.53,136.369,333.53,136.366,333.53L136.366,333.53z"/>
						</g>
					</g>
					<g>
						<path fill="#A4A4A4" d="M139.122,334.187l-0.396-0.742c-0.317-0.027-0.623-0.04-0.909-0.041l0.35,0.656
							C138.473,334.101,138.797,334.144,139.122,334.187z"/>
					</g>
				</g>
			</g>
			<g>
				<g>
					<g>
						<g>
							<path fill="#DDDDDD" d="M137.206,337.314c0.02-0.003-1.164-3.303-1.164-3.303l-0.35-1.575l-0.651,0.027l0.279,2.111
								l0.002-0.005c-0.061,0.327-0.039,0.726,0.115,1.142C135.8,336.686,136.75,337.381,137.206,337.314z M135.546,334.021h0.002
								c-0.001,0.002-0.002,0.004-0.005,0.006L135.546,334.021z"/>
						</g>
					</g>
				</g>
				<g>
					<path opacity="0.5" fill="#BFBFBF" d="M135.12,333.604c-0.004,0.002-0.008,0.002-0.011,0.003l0-0.001L135.12,333.604z"/>
				</g>
				<g>
					<path opacity="0.5" fill="#BFBFBF" d="M134.89,333.697h0.002c-0.003,0.002-0.005,0.004-0.008,0.006L134.89,333.697z"/>
				</g>
				<g>
					<g>
						<path fill="#DDDDDD" d="M142.032,334.498c0.08-0.166-0.372-0.455-1.143-0.703l0.32,0.601
							C141.703,334.46,142.03,334.501,142.032,334.498z"/>
					</g>
					<g>
						<path fill="#DDDDDD" d="M140.769,334.338l-0.363-0.682c-0.334-0.085-0.707-0.159-1.11-0.215
							c-0.192-0.026-0.383-0.047-0.57-0.063l0.396,0.743C139.7,334.197,140.28,334.273,140.769,334.338z"/>
					</g>
					<g>
						<path fill="#F1F1F1" d="M141.209,334.396l-0.32-0.601c-0.149-0.048-0.311-0.095-0.483-0.139l0.363,0.682
							C140.927,334.358,141.074,334.378,141.209,334.396z"/>
					</g>
					<g>
						<g>
							<path fill="#DDDDDD" d="M138.167,333.994l-0.35-0.656c-0.172,0-0.338,0.003-0.494,0.011l0.008-0.001l-3.174-0.168
								l-0.111,0.364l2.293,0.207C136.34,333.751,137.155,333.859,138.167,333.994z M136.366,333.465l0.011-0.002
								C136.374,333.465,136.369,333.465,136.366,333.465L136.366,333.465z"/>
						</g>
					</g>
					<g>
						<path fill="#F1F1F1" d="M139.122,334.121l-0.396-0.743c-0.317-0.026-0.623-0.039-0.909-0.04l0.35,0.656
							C138.473,334.035,138.797,334.078,139.122,334.121z"/>
					</g>
				</g>
			</g>
			<path fill="#FFD6BF" d="M136.538,329.347c0.118,0.176,0.204,0.336,0.232,0.476c0.027,0.134,0.049,0.268,0.063,0.403
				c0.064,0.657-0.215,1.204-0.446,1.806c-0.024,0.064-0.05,0.131-0.099,0.18c-0.048,0.05-0.125,0.078-0.189,0.05
				c-0.091-0.039-0.104-0.159-0.103-0.257c-0.194,0.168-0.617,0.786-0.624,0.153c-0.004-0.327,0.247-0.712,0.341-1.021
				c0.072-0.238,0.045-0.499-0.07-0.72C135.854,329.997,136.127,329.607,136.538,329.347z"/>
			<path fill="#DE3B33" d="M135.772,332.607c0-0.117-0.169-3.301-0.173-3.268c-0.169-0.315-0.667-0.303-0.938-0.194
				c-0.36,0.145-0.325,0.339-0.247,0.739c0.119,0.603,0.362,2.236,0.53,2.61C135.11,332.863,135.738,332.746,135.772,332.607z"/>
			<path fill="#FFD6BF" d="M134.325,330.132c0.006-0.222-0.074-0.449-0.002-0.664c0.069-0.206,0.053-0.427,0.106-0.639
				c0.081-0.321,0.189-0.537,0.326-0.532c0.237,0.008,0.781-0.253,0.923-0.063c0.308,0.41,0.641,0.789,0.86,1.113
				c-0.41,0.261-0.683,0.65-0.895,1.069c-0.002-0.003-0.003-0.007-0.005-0.011c-0.046-0.086-0.151-0.272-0.251-0.253
				c-0.101,0.021-0.235,0.201-0.282,0.283c-0.105,0.182-0.122,0.392-0.211,0.58c-0.1,0.209-0.18,0.452-0.443,0.511
				c-0.114,0.025-0.141-0.017-0.153-0.118c-0.024-0.189-0.042-0.398-0.042-0.589C134.254,330.589,134.319,330.363,134.325,330.132z"
				/>
			<path fill="#DE3B33" d="M134.197,333.107c-0.265,0.027-0.687-0.085-0.969-0.148c-0.444-0.099-0.868-0.168-1.321-0.226
				c-0.596-0.075-1.272-0.192-1.872-0.125c-0.055,0.285,0.226,0.856,0.47,1.014c0.27,0.175,0.682,0.153,0.985,0.152
				c0.418-0.001,0.829,0.027,1.245,0.059c0.315,0.023,1.26,0.307,1.503,0.014C134.393,333.661,134.268,333.299,134.197,333.107z"/>
		</g>
		<path fill="#A4A4A4" d="M135.375,333.378c0.095-0.055,0.25-0.055,0.345,0c0.095,0.056,0.095,0.145,0,0.199
			c-0.095,0.056-0.25,0.056-0.345,0C135.28,333.522,135.28,333.434,135.375,333.378z"/>
		<path fill="#F1F1F1" d="M135.305,333.455L135.305,333.455c0.004-0.131,0.111-0.236,0.243-0.236c0.132,0,0.239,0.105,0.244,0.236
			h-0.001c0.004,0.039-0.019,0.078-0.07,0.107c-0.095,0.056-0.25,0.056-0.345,0C135.324,333.533,135.301,333.494,135.305,333.455z"
			/>
	</g>
	<g>
		<path fill="#FFD6BF" d="M130.272,332.325c0.15-0.325,1.844-0.458,2.151-0.344c0.066,0.023,0.131,0.058,0.178,0.11
			c0.047,0.053,0.075,0.127,0.058,0.195c-0.017,0.071-0.076,0.123-0.133,0.169c-0.146,0.114-0.305,0.219-0.484,0.265
			c-0.16,0.04-0.327,0.031-0.491,0.022c-0.219-0.013-0.459-0.033-0.617-0.186c-0.014-0.014-0.028-0.032-0.022-0.051L130.272,332.325
			z"/>
		<path fill="#FFD6BF" d="M128.735,332.816c0.153-0.316,0.547-0.536,0.697-0.854c0.14,0.048,0.504,0.282,0.662,0.28
			c0.12-0.001,0.239-0.021,0.358-0.035c0.133-0.017,0.266-0.025,0.399-0.03c0.695,0.281,2.189,0.885,1.609,1.39
			c-0.014,0.013-0.029,0.027-0.028,0.047c0.007,0.33-0.064,0.523-0.383,0.653c-0.031,0.013-0.028,0.059-0.039,0.089
			c-0.144,0.376-0.368,0.323-0.547,0.411c-0.018,0.009-0.018,0.033-0.03,0.042c-0.101,0.188-0.253,0.251-0.459,0.187
			c-0.121,0.025-0.904-0.389-1.176-0.582c-0.298-0.212-0.982-0.632-1.303-0.81C128.604,333.366,128.622,333.05,128.735,332.816z"/>
	</g>
	<g>
		<g>
			<path fill="#FFC655" d="M118.375,315.631c-0.073,0.065-0.394,0.459-0.452,0.534c0,0-0.001,0-0.001,0.003
				c-0.569,0.72-0.753,1.603-0.679,2.569c0.078,1.015,0.593,5.875,1.438,8.665c0.619,2.042,7.062,4.992,9.376,6.278
				c0.792,0.44,2.091-0.884,1.697-1.827c0,0-7.246-4.715-7.689-6.609c-0.783-3.338-0.464-4.889-1.654-8.149
				C119.943,315.814,119.449,314.67,118.375,315.631z"/>
		</g>
	</g>
	<g>
		<g>
			<path fill="#E1AA3D" d="M117.921,316.168c0-0.002,0.001-0.003,0.001-0.003c0.059-0.075,0.379-0.469,0.452-0.534
				c0.29-0.26,0.538-0.364,0.754-0.355c-0.169,0.117-0.304,0.277-0.396,0.46c-1.797,3.594-0.568,7.567,0.662,10.878
				c1.272,3.731,5.662,5.639,9.624,6.947c-0.317,0.206-0.674,0.281-0.963,0.12c-2.315-1.286-8.758-4.236-9.376-6.278
				c-0.845-2.79-1.36-7.65-1.438-8.665C117.168,317.771,117.352,316.888,117.921,316.168z"/>
		</g>
	</g>
	<path fill="#FFC655" d="M132.855,326.394c0.713,1.507,1.162,2.38,1.162,2.38c0.085,0.354,0.477,0.523,0.917,0.549
		c0.672,0.037,1.458-0.263,1.431-0.756c0,0-0.28-1.07-0.877-2.868c-0.618,0.189-1.248,0.342-1.876,0.499
		C133.359,326.261,133.106,326.325,132.855,326.394z"/>
	<path fill="#E1AA3D" d="M134.123,327.509c0.203,0.543,0.698,1.187,0.811,1.813c-0.44-0.025-0.832-0.195-0.917-0.549
		c0,0-0.448-0.873-1.162-2.38c0.251-0.068,0.503-0.133,0.757-0.196C133.789,326.624,133.956,327.059,134.123,327.509z"/>
	<path fill="#415F06" d="M142.46,333.763c0.792,0.092,1-1.358,0.497-1.786C142.555,332.492,141.725,333.234,142.46,333.763z"/>
	<path fill="#415F06" d="M134.457,336.203c0.532,0.077,0.266-0.494,0.002-0.635c-0.388-0.206-1.021-0.108-1.332-0.37
		c0.273,0.26,0.132,0.749,0.416,1.035C133.786,336.479,134.176,336.53,134.457,336.203z"/>
	<path fill="#415F06" d="M138.751,335.845c-0.033-0.038-0.056-0.017-0.063-0.064c0.677-0.452,1.275,0.117,1.753,0.585
		C139.989,336.876,138.922,336.877,138.751,335.845z"/>
	<path fill="#415F06" d="M138.563,332.949c0.296,0.051,0.812-0.479,0.817-0.752c0.008-0.373-0.579-0.794-0.81-1.094
		C138.586,331.563,137.686,332.766,138.563,332.949z"/>
	<g>
		<g>
			<path fill="#FFD6BF" d="M125.967,313.899c-0.257,0.386-0.832,0.412-1.337,0.38c-0.653-0.042-1.564-0.51-2.045-0.874
				c-0.471-0.356-1.667-1.807-1.851-2.437c-0.031-0.107,0.109-0.275,0.09-0.375c-0.329-1.741,1.367-2.244,2.525-3.236
				c1.224-1.052,2.846-0.866,3.112,1.194S126.708,312.783,125.967,313.899z"/>
			<path fill="#4F3F46" d="M126.504,308.909c-0.111,0.005,0.052-1.332-1.618-0.955c-0.924,0.208-1.762,0.331-2.027,0.737
				c-0.234,0.359-0.045,0.524,0.045,1.123c0.333,2.215-1.606,2.62-2.454,1.323c-0.312-0.479-0.6-0.964-0.778-1.526
				c-0.83-2.624,1.292-3.197,1.292-3.197s1.215-1.61,3.584-0.907C127.004,306.236,126.698,308.899,126.504,308.909z"/>
		</g>
		
			<ellipse transform="matrix(0.6547 0.7559 -0.7559 0.6547 277.4909 15.6143)" fill="#FFD6BF" cx="121.655" cy="311.531" rx="0.919" ry="0.566"/>
		
			<ellipse transform="matrix(0.6546 0.756 -0.756 0.6546 277.523 15.6313)" fill="#FFC6A6" cx="121.655" cy="311.531" rx="0.561" ry="0.346"/>
	</g>
	<circle fill="#FCE897" cx="127.305" cy="319.009" r="0.415"/>
	<circle fill="#FCE897" cx="122.809" cy="319.424" r="0.415"/>
</g>
</svg>
