<?xml version="1.0" encoding="utf-8"?>
<!-- Generator: Adobe Illustrator 16.0.0, SVG Export Plug-In . SVG Version: 6.00 Build 0)  -->
<!DOCTYPE svg PUBLIC "-//W3C//DTD SVG 1.1//EN" "http://www.w3.org/Graphics/SVG/1.1/DTD/svg11.dtd">
<svg version="1.1" id="Layer_1" xmlns="http://www.w3.org/2000/svg" xmlns:xlink="http://www.w3.org/1999/xlink" x="0px" y="0px"
	 width="450px" height="450px" viewBox="0 0 450 450" enable-background="new 0 0 450 450" xml:space="preserve">
<g>
	<path fill="#788237" d="M55.522,340.339c1.537-0.336,3.23-1.311,3.296-2.883c0.815-0.029,1.338,0.873,1.492,1.674
		c0.155,0.801,0.167,1.701,0.723,2.298c0.916,0.983,2.543,0.457,3.733-0.167c1.756-0.92,3.473-1.915,5.145-2.98
		c1.355-0.864,2.699-1.792,3.727-3.027c0.501-0.602,0.93-1.296,1.046-2.07c0.116-0.774-0.138-1.639-0.776-2.092
		c-0.939-0.667-2.235-0.24-3.281,0.241c-2.502,1.152-4.911,2.509-7.194,4.052c-1.782,1.205-3.81,2.593-5.896,2.067
		c-1.4-0.353-2.389-1.476-3.644-2.113c-1.271-0.647-2.829-0.881-4.249-0.833c-1.923,0.066-3.613,1.04-4.783,2.552
		c-1.014,1.312-1.72,3.126-1.347,4.798c0.441,1.979,2.742,3.598,4.746,2.722c1.306-0.57,1.802-2.085,2.894-2.917
		C52.405,340.708,54.046,340.662,55.522,340.339z"/>
	<g>
		<g>
			<g>
				<g>
					<path fill="#171716" d="M44.39,336.933c-0.089,0.169-0.038,0.372-0.019,0.563c0.047,0.465-0.167,0.896-0.267,1.342
						c-0.105,0.464-0.218,0.931-0.191,1.407c0.043,0.704,0.316,1.396,0.783,1.921c0.235,0.264,0.521,0.492,0.859,0.603
						c0.336,0.112,0.725,0.095,1.028-0.094c0.289-0.187,0.47-0.511,0.553-0.847c0.069-0.294,0.075-0.598,0.071-0.899
						c0-0.042,0-0.086-0.001-0.128c-0.008-0.623,0.251-2.78,0.294-3.231c0.016-0.183,0.009-0.373-0.065-0.54
						c-0.02-0.045-0.044-0.086-0.073-0.126c-0.056-0.087-0.127-0.162-0.197-0.237c-0.149-0.163-0.305-0.326-0.486-0.454
						c-0.07-0.051-0.911-0.475-0.903-0.504c-0.115,0.38-0.407,0.701-0.77,0.856c-0.148,0.063-0.319,0.106-0.452,0.192
						C44.485,336.8,44.428,336.859,44.39,336.933z"/>
					<g>
						<path fill="#171716" d="M51.862,334.176c0,0-1.978-0.996-2.066,1.653c-0.023,0.689,0.824,1.006,1.201,1.067
							c0.166,0.026,0.408,0.007,0.645,0.224c0.297,0.276,0.404,0.515,0.495,0.62c0.935,1.121,2.704,1.22,3.221,0.78
							c0.74-0.629-0.521-1.706-1.752-2.725C52.32,334.732,51.862,334.176,51.862,334.176z"/>
					</g>
					<g>
						<path fill="#B32B2B" d="M44.247,325.429C44.224,325.513,44.234,325.254,44.247,325.429L44.247,325.429z"/>
						<path fill="#872220" d="M44.247,325.429C44.224,325.513,44.234,325.254,44.247,325.429L44.247,325.429z"/>
						<g>
							<path fill="#B32B2B" d="M53.933,317.196L53.933,317.196C53.948,317.549,53.942,317.408,53.933,317.196z"/>
							<path fill="#B32B2B" d="M53.916,316.77c0,0.002,0,0.004,0,0.006C53.915,316.757,53.915,316.753,53.916,316.77z"/>
							<path fill="#B32B2B" d="M53.916,316.77c0.008,0.188,0.014,0.327,0.018,0.427l0,0c-0.007-0.161-0.015-0.363-0.018-0.421
								C53.916,316.773,53.916,316.771,53.916,316.77z"/>
						</g>
					</g>
				</g>
				<path fill="#FFD6BF" d="M58.307,316.313c0.014-0.442-0.023-0.886,0.001-1.328c0.011-0.199-0.387-0.417-0.529-0.494
					c-0.226-0.123-0.472-0.201-0.72-0.271c-0.143-0.039-0.312,0.162-0.478,0.48c-0.455,0.875-0.882,2.637-0.655,2.723
					c0.148,0.056,0.316-0.041,0.4-0.173s0.106-0.291,0.144-0.442c0.058-0.237,0.155-0.368,0.311-0.542
					c0.013,0.017,0.022,0.034,0.034,0.051C57.289,316.176,57.814,316.181,58.307,316.313z"/>
				<path fill="#92BAEB" d="M58.785,315.097c0.158-0.1,0.183-0.304,0.198-0.483c0.115-1.313,0.471-7.988-0.137-12.736
					c-0.133-1.038-0.102-1.855-1.987-2.88c0,0-0.779,2.946-0.844,3.484c-0.304,2.538-0.249,3.818-0.249,6.104
					c0,3.892,0.268,5.583,0.278,5.875C56.069,315.205,58.638,315.19,58.785,315.097z"/>
				<path fill="#799ECF" d="M56.014,302.481c0.065-0.538,0.844-3.484,0.844-3.484c0.28,0.152,0.518,0.3,0.72,0.444
					c0.508,2.165-0.701,4.452-1.146,6.6c-0.506,2.975-0.656,5.897-0.125,8.77c-0.158-0.092-0.258-0.207-0.263-0.351
					c-0.01-0.292-0.278-1.983-0.278-5.875C55.765,306.3,55.709,305.02,56.014,302.481z"/>
				<path fill="#FFC6A6" d="M53.194,295.301c-0.652,3.021-1.278,3.037-1.52,3.615c0.223,0.742,1.363,1.82,2.145,2.088
					c0.524,0.18,1.095-0.055,1.417-0.342c0.114-0.099,0.275-0.641,0.396-1.164c0.445-1.82,0.523-1.282,0.745-2.213L53.194,295.301z"
					/>
				<g>
					<path fill="#92BAEB" d="M44.354,311.57h0.542v5.062c1.341,0.237,3.282,0.219,4.89,0.144c1.446-0.068,3.133-0.22,4.294-1.133
						c0.308-3.845,1.707-9.618,2.373-11.452c0.47-1.288,1.243-3.539,0.968-4.529c-0.047-0.171-0.144-0.314-0.267-0.436
						c-0.18-0.181-0.42-0.311-0.643-0.401c-0.342-0.141-0.646-0.189-0.646-0.189s-0.42,1.981-1.95,1.846
						c-1.959-0.174-1.397-2.921-1.397-2.921s-3.542,0.252-3.653,0.444c-0.362,0.62-1.2,6.675-2.143,8.941
						C46.346,307.865,45.22,309.686,44.354,311.57z"/>
				</g>
				<g>
					<path fill="#799ECF" d="M48.865,298.004c0.023-0.041,0.205-0.085,0.474-0.129c0.399,0.104,0.749,0.371,1.022,0.755
						c0.868,1.34,0,2.76-0.631,3.942c-0.63,1.262-2.129,2.365-1.656,3.942c0.395,1.498,1.104,3.469-0.079,4.81
						c-0.315,0.315-0.709,0-1.025-0.236c-0.559-0.462-1.14-0.887-1.729-1.296c0.628-1.188,1.226-2.225,1.481-2.847
						C47.665,304.679,48.503,298.624,48.865,298.004z"/>
				</g>
				<path fill="#24334A" d="M54.666,304.388c0.194-0.009,0.508,0.214,0.697,0.172c0.137-0.03,0.204-0.184,0.243-0.318
					c0.194-0.686,1.013-4.1,1.548-5.016c-0.18-0.181-0.42-0.311-0.643-0.401C55.852,300.936,55.231,302.476,54.666,304.388z"/>
				<g>
					<path fill="#24334A" d="M44.136,325.731C44.112,325.816,44.122,325.553,44.136,325.731L44.136,325.731z"/>
					<path fill="#24334A" d="M44.136,325.731c-0.218-2.832-2.414-10.251,0.61-14.979c0.329-0.071,0.651-0.168,0.962-0.3
						c1.656-0.698,3.05-2.063,3.509-3.698c0.341-1.216,1.388-3.891,1.388-3.891c0.266,0.081,3.912,1.583,5.009,1.34
						c-0.222,1.366-1.153,3.95-0.48,4.949c-0.472,2.155-0.9,4.564-1.054,6.489c-0.014,0.011-0.028,0.021-0.042,0.031
						c0.002,0.59-0.027,1.137-0.024,1.21c0.121,2.938-0.338,5.884-0.283,8.825c0.058,3.089,0.375,6.322,0.011,9.397
						c-0.082,0.691-0.272,0.757-0.942,0.889c-0.675,0.133-1.408,0.198-2.095,0.135c-1.019-0.094-1.095-0.563-1.213-1.49
						c-0.382-2.982-0.214-6.052-0.29-9.052c-0.051-2.044-0.104-4.087-0.146-6.13c-0.244,1.213-0.105,2.576-0.169,3.804
						c-0.119,2.293-0.5,4.571-0.711,6.856c-0.185,2.005-0.29,4.015-0.396,6.024c-0.031,0.59,0.152,2.006-0.153,2.514
						c-0.183,0.307-0.632,0.383-0.957,0.446c-0.8,0.155-2.129,0.227-2.774-0.388c-0.602-0.574-0.35-2.098-0.369-2.843
						C43.441,332.489,43.209,329.031,44.136,325.731z"/>
					<path fill="#14233A" d="M49.178,319.13c0.079,0,0.237,0,0.237,0c0.394,0.868,0.315,1.813,0.315,2.682
						c0.328,4.725-0.49,9.831,0.999,14.32c-0.008-0.001-0.016-0.001-0.023-0.002c-1.019-0.094-1.095-0.563-1.213-1.49
						c-0.382-2.982-0.214-6.052-0.29-9.052c-0.051-2.044-0.104-4.087-0.146-6.13c-0.018,0.089-0.033,0.179-0.047,0.269
						C49.004,319.505,49.024,319.284,49.178,319.13z"/>
					<path fill="#14233A" d="M44.136,325.731c-0.218-2.832-2.414-10.251,0.61-14.979c0.329-0.071,0.651-0.168,0.962-0.3
						c1.656-0.698,3.05-2.063,3.509-3.698c0.341-1.216,1.388-3.891,1.388-3.891c0.028,0.009,0.094,0.033,0.19,0.069
						c-0.182,0.851-0.187,1.767-0.435,2.635c-0.473,1.893-1.104,3.784-2.602,5.204c-1.025,1.104-2.76,1.34-3.154,2.996
						c-0.237,1.183-0.473,2.365-0.552,3.548c-0.079,1.656,0.394,3.233,0.552,4.889c0.315,4.652-0.709,9.226-0.552,13.878
						c0,0.97,0.12,1.94,0.288,2.916c-0.168-0.072-0.32-0.165-0.445-0.284c-0.602-0.574-0.35-2.098-0.369-2.843
						C43.441,332.489,43.209,329.031,44.136,325.731z"/>
				</g>
				<g>
					<g>
						<g>
							<g enable-background="new    ">
								<g>
									<g enable-background="new    ">
										<path fill="#1A1A1A" d="M67.416,334.648l-15.215-25.273c-0.018-0.003-0.035-0.007-0.054-0.009
											c-0.091-0.009-0.185-0.003-0.276,0.017l15.342,25.535c0.023-0.013,0.045-0.025,0.065-0.041
											C67.384,334.802,67.429,334.721,67.416,334.648z"/>
										<path fill="#1A1A1A" d="M51.872,309.383c-0.068,0.015-0.134,0.037-0.196,0.066l15.345,25.55
											c0.069-0.021,0.135-0.049,0.192-0.081L51.872,309.383z"/>
										<path fill="#1A1A1A" d="M51.676,309.449c-0.179,0.088-0.319,0.239-0.352,0.447l15.09,25.128
											c0.007,0.002,0.015,0.004,0.022,0.007c0.168,0.044,0.393,0.027,0.585-0.032L51.676,309.449z"/>
										<path fill="#1A1A1A" d="M51.324,309.896c-0.002,0.014-0.005,0.027-0.006,0.042c-0.002,0.027-0.02,0.045-0.04,0.053
											l14.947,24.872c0.006,0.033,0.025,0.064,0.057,0.093c0.032,0.027,0.076,0.051,0.133,0.068L51.324,309.896z"/>
									</g>
								</g>
							</g>
						</g>
					</g>
				</g>
				<path fill="#FFD6BF" d="M50.737,310.505c0.217,0.11,1.105,0.736,1.272,0.753c0.543,0.054,1.833,0.694,2.096,0.736
					c0.165,0.025,0.359,0.054,0.268,0.279c-0.07,0.175-0.351,0.195-0.505,0.207c-0.23,0.017-0.407-0.087-0.618-0.161
					c-0.13-0.046-0.434-0.115-0.574-0.056c-0.198,0.085-0.044,0.405,0.061,0.501c0.2,0.183,0.816,0.323,0.467,0.691
					c-0.087,0.091-0.242,0.16-0.365,0.184c-0.208,0.04-0.384-0.051-0.59-0.054c-0.329-0.004-0.319,0.179-0.591,0.189
					c-0.356,0.013-0.593-0.171-0.767-0.451c-0.167-0.268-1.268-1.367-1.269-1.674c0-0.178,0.246,0.044,0.36-0.075
					c0.231-0.241,0.429-0.548,0.683-0.66L50.737,310.505z"/>
				<path fill="#92BAEB" d="M51.258,310.274c-0.065-0.306-3.979-3.618-4.142-4.696c-0.026-0.171,0.205-0.544,0.533-0.982
					c3.474-4.181,2.885-5.09,2.251-6.185c-0.392-0.697-1.282-0.464-1.701-0.28c-0.327,0.135-0.958,0.806-1.619,1.598
					c0,0-2.208,3.178-2.182,3.242c-0.962,1.465-1.455,2.61-1.339,3.336c0.29,1.825,6.378,6.23,6.562,6.244
					C49.998,312.574,51.461,311.25,51.258,310.274z"/>
				<path fill="#799ECF" d="M44.398,302.971c-0.026-0.064,2.182-3.242,2.182-3.242c0.661-0.792,1.292-1.463,1.619-1.598
					c0.301-0.132,0.846-0.289,1.273-0.109c-2.798,0.959-3.598,4.396-5.419,6.521c-0.319,3.704,3.034,5.805,5.87,7.895
					c-0.126,0.076-0.232,0.118-0.302,0.113c-0.184-0.014-6.272-4.419-6.562-6.244C42.944,305.581,43.437,304.436,44.398,302.971z"/>
				<path fill="#FFD6BF" d="M56.814,316.316c0.229,0.33,0.249,0.769,0.046,1.115c-0.177,0.304-0.539,0.647-0.617,0.993
					c-0.151,0.669,0.45,0.124,0.697-0.005c-0.025,0.104-0.042,0.232,0.044,0.298c0.06,0.045,0.149,0.034,0.212-0.006
					c0.063-0.039,0.107-0.103,0.149-0.164c0.395-0.578,0.828-1.085,0.925-1.794c0.02-0.147,0.03-0.294,0.035-0.441
					C57.814,316.181,57.289,316.176,56.814,316.316z"/>
			</g>
			<g>
				<g>
					<path fill="#FFD6BF" d="M56.691,298.853c-0.432,0.211-0.949,0.175-1.439-0.003c-0.642-0.228-1.255-0.697-1.628-1.196
						c-0.033-0.043-0.069-0.101-0.096-0.164c-0.005-0.008-0.011-0.017-0.018-0.018c-0.343-0.655-0.718-2.146-0.725-2.758
						c0.005-0.112,0.01-0.225,0.013-0.33c0.172-1.832,1.873-1.889,3.317-2.545c0.818-0.376,1.646-0.367,2.192,0.058
						c0.468,0.365,0.715,1.039,0.571,2.02C58.557,296.054,58.023,298.22,56.691,298.853z"/>
					<path fill="#67677A" d="M54.109,290.801c0,0,2.053-1.77,4.004-0.104c1.637,1.396,0.976,3.169,0.779,3.123
						c-0.112-0.025,0.185-0.825-1.426-0.649c-1.137,0.124-1.657-0.843-2.039-0.513c-0.336,0.291-0.568,0.982-0.621,1.608
						c-0.024,0.301-0.555,2.368-0.985,1.827c-0.272-0.342-0.579-0.148-0.807-0.137c-0.115,0.007-0.083,0.101-0.192,0.152
						c-0.103-0.223-0.414-0.638-0.47-0.827c-0.168-0.568-0.324-1.134-0.341-1.745C51.933,290.68,54.109,290.801,54.109,290.801z"/>
				</g>
				
					<ellipse transform="matrix(0.4242 0.9056 -0.9056 0.4242 298.4267 122.0147)" fill="#FFD6BF" cx="53.265" cy="295.681" rx="0.966" ry="0.595"/>
				
					<ellipse transform="matrix(0.4238 0.9058 -0.9058 0.4238 298.5121 122.1349)" fill="#FFC6A6" cx="53.265" cy="295.682" rx="0.453" ry="0.279"/>
			</g>
			<g>
				<g>
					<g>
						<polygon fill="#8693B2" points="61.569,338.896 61.513,341.365 60.941,339.327 						"/>
					</g>
				</g>
				<g>
					<g>
						<polygon fill="#8693B2" points="63.253,337.75 63.195,340.22 62.625,338.182 						"/>
					</g>
				</g>
				<g>
					<g>
						<polygon fill="#8693B2" points="64.875,336.893 64.817,339.362 64.247,337.324 						"/>
					</g>
				</g>
				<g>
					<g>
						<polygon fill="#8693B2" points="66.165,336.028 66.108,338.5 65.538,336.46 						"/>
					</g>
				</g>
				<g>
					<g>
						<polygon fill="#8693B2" points="67.627,334.807 67.57,337.278 67,335.237 						"/>
					</g>
				</g>
				<g>
					<g>
						<polygon fill="#8693B2" points="69.328,333.952 69.271,336.422 68.701,334.385 						"/>
					</g>
				</g>
				<g>
					<g>
						<polygon fill="#8693B2" points="70.856,333.094 70.799,335.565 70.229,333.524 						"/>
					</g>
				</g>
				<g>
					<g>
						<polygon fill="#8693B2" points="72.154,331.854 72.097,334.323 71.526,332.285 						"/>
					</g>
				</g>
				<g>
					<g>
						<polygon fill="#8693B2" points="74.095,331.004 74.04,333.475 73.468,331.438 						"/>
					</g>
				</g>
				<g>
					<g>
						<polygon fill="#8693B2" points="60.957,339.627 60.8,338.823 73.998,330.275 74.412,330.915 						"/>
					</g>
				</g>
				<g>
					<g>
						<polygon fill="#BECBE7" points="60.8,338.823 59.907,338.703 73.105,330.154 73.998,330.275 						"/>
					</g>
				</g>
			</g>
			<polygon fill="#707B96" points="60.025,339.481 59.907,338.703 60.8,338.823 60.957,339.627 			"/>
			<g>
				<g>
					<g>
						<g enable-background="new    ">
							<g>
								<g enable-background="new    ">
									<path fill="#BECBE7" d="M66.994,334.553l-2.498-4.157c0.032-0.028,0.062-0.057,0.087-0.089
										c0.047-0.058,0.073-0.129,0.101-0.197l2.595,4.312C67.185,334.467,67.09,334.51,66.994,334.553z"/>
									<path fill="#BECBE7" d="M66.803,334.636l-2.475-4.121c0.061-0.035,0.118-0.075,0.168-0.119l2.498,4.157
										C66.93,334.58,66.867,334.608,66.803,334.636z"/>
									<path fill="#BECBE7" d="M66.313,334.855l-2.497-4.157c0.012-0.003,0.024-0.005,0.036-0.007
										c0.153-0.033,0.325-0.091,0.476-0.177l2.475,4.121C66.639,334.707,66.475,334.778,66.313,334.855z"/>
									<path fill="#BECBE7" d="M66.259,334.881c-0.009,0.004-0.017,0.009-0.025,0.013c-0.004-0.01-0.008-0.021-0.01-0.03
										l-2.495-4.151c0.029-0.004,0.058-0.009,0.086-0.014l2.497,4.157C66.295,334.864,66.277,334.872,66.259,334.881z"/>
								</g>
							</g>
						</g>
					</g>
				</g>
			</g>
			<path fill="#24334A" d="M51.392,297.649c-0.321,0-0.35-0.001-1.048,0.078c0.28,0.523,0.306,1.024,0.386,1.545
				c0.079,0.514-0.125,3.592-0.125,3.592l0.672,0.348c0,0,0.134-2.286,0.165-2.699C51.509,299.587,51.493,298.572,51.392,297.649z"
				/>
			<circle fill="#BECBE7" cx="54.666" cy="304.905" r="0.341"/>
			<circle fill="#BECBE7" cx="51.277" cy="303.948" r="0.341"/>
		</g>
		<path fill="#798414" d="M72.281,336.94c0.719,0.083,0.908-1.233,0.451-1.621C72.368,335.787,71.614,336.461,72.281,336.94z"/>
		<path fill="#798414" d="M68.369,341.43c0.482,0.07,0.241-0.448,0.002-0.575c-0.352-0.188-0.926-0.099-1.208-0.336
			c0.248,0.235,0.12,0.679,0.377,0.939C67.76,341.681,68.114,341.728,68.369,341.43z"/>
		<path fill="#798414" d="M69.049,330.306c0.482,0.07,0.242-0.448,0.002-0.576c-0.352-0.188-0.926-0.098-1.208-0.336
			c0.249,0.235,0.121,0.68,0.378,0.939C68.441,330.557,68.794,330.603,69.049,330.306z"/>
		<path fill="#798414" d="M72.265,341.105c-0.03-0.035-0.051-0.016-0.057-0.06c0.614-0.41,1.157,0.106,1.59,0.531
			C73.388,342.041,72.42,342.042,72.265,341.105z"/>
		<path fill="#798414" d="M60.517,335.157c-0.03-0.034-0.051-0.016-0.057-0.06c0.614-0.41,1.157,0.107,1.591,0.531
			C61.64,336.093,60.672,336.094,60.517,335.157z"/>
		<path fill="#798414" d="M69.132,339.6c0.268,0.046,0.736-0.435,0.741-0.683c0.007-0.339-0.525-0.721-0.735-0.993
			C69.153,338.341,68.335,339.433,69.132,339.6z"/>
		<path fill="#798414" d="M75.568,340.136c0.268,0.046,0.736-0.435,0.741-0.683c0.007-0.339-0.525-0.721-0.735-0.993
			C75.589,338.877,74.771,339.969,75.568,340.136z"/>
		<path fill="#798414" d="M65.881,341.732c0.268,0.046,0.736-0.435,0.741-0.683c0.007-0.339-0.525-0.721-0.735-0.993
			C65.902,340.474,65.085,341.565,65.881,341.732z"/>
		<path fill="#798414" d="M72.847,339.807c0.268,0.046,0.736-0.435,0.741-0.683c0.007-0.339-0.524-0.721-0.735-0.993
			C72.868,338.548,72.051,339.64,72.847,339.807z"/>
	</g>
</g>
</svg>
