<?xml version="1.0" encoding="utf-8"?>
<!-- Generator: Adobe Illustrator 16.0.0, SVG Export Plug-In . SVG Version: 6.00 Build 0)  -->
<!DOCTYPE svg PUBLIC "-//W3C//DTD SVG 1.1//EN" "http://www.w3.org/Graphics/SVG/1.1/DTD/svg11.dtd">
<svg version="1.1" id="Layer_1" xmlns="http://www.w3.org/2000/svg" xmlns:xlink="http://www.w3.org/1999/xlink" x="0px" y="0px"
	 width="450px" height="450px" viewBox="0 0 450 450" enable-background="new 0 0 450 450" xml:space="preserve">
<g>
	<path fill="#FFC6A6" d="M106.159,242.402c0.327-0.766,0.555-1.521,1.22-2.08c0.375-0.315,1.098-0.608,1.704-0.895
		c0.001-0.003,3.218-5.626,3.871-7.47c0.249-0.704,0.375-5.292,0.418-5.514c1.095,0.39,3.129-0.941,4.251-0.729
		c-1.251,5.674-0.308,1.391-1.851,8.4c-0.094,0.382-0.451,0.779-0.892,1.076l0.317,0.699l-4.794,5.114
		c-0.522,1.051-1.905,2.219-2.123,2.068c-0.158-0.109-0.173-0.339-0.094-0.507c0.184-0.391,0.504-0.351,0.706-1.089
		c-0.524-0.042-1.024,0.233-1.255,0.679c-0.192,0.373-0.3,0.953-0.604,1.256c-0.585,0.585-0.432-0.363-0.468-0.691
		c-0.292,0.302-0.471,0.109-0.475-0.063C106.088,242.569,106.124,242.484,106.159,242.402z"/>
	<g>
		<path fill="#272727" d="M115.333,228.777c0.539-0.1,0.958-0.319,1.35-0.585c0.155-1.931,0.25-4.014,0.137-5.622
			c-0.055-0.781,0.127-1.522-0.543-1.649c-0.378-0.072-1.268,0.193-1.268,0.193c-0.703,0.447-1.501,1.407-1.779,2.156
			c-0.401,1.079-0.398,4.101-0.449,5.03C113.564,228.719,114.416,228.949,115.333,228.777z"/>
	</g>
	<path fill="#F9F8F8" d="M116.866,227.182c-0.095,0.921-0.317,1.605-0.356,1.627c-0.644,0.365-1.216,0.436-1.925,0.432
		c-0.438-0.003-1.512-0.107-1.773-0.475c-0.136-0.193-0.24-1.027-0.152-1.813c0.47,0.267,1.169,0.464,1.72,0.526
		c0.338,0.039,0.862,0.027,1.2-0.002c0.179-0.015,0.351,0.969,0.351,0.969s0.424-1.078,0.534-1.106
		C116.627,227.297,116.712,227.238,116.866,227.182z"/>
	<g>
		<path fill="#F9F8F8" d="M124.318,235.432c0.173,0.033,0.335,0.178,0.485,0.271c0.258,0.162,0.531,0.297,0.794,0.447
			c0.541,0.307,0.936,0.742,1.344,1.195c0.216,0.241,0.405,0.502,0.491,0.82c0.085,0.313,0.26,0.949-0.045,1.184
			c-0.285,0.219-0.864,0.157-1.173,0.054c-0.48-0.161-0.991-0.443-1.327-0.83c-0.39-0.448-0.834-0.968-0.926-1.575
			c-0.052-0.344,0.103-0.461,0.434-0.263c0.454,0.271,0.646,0.792,0.947,1.194c0.232,0.312,0.707,0.666,1.123,0.502
			c0.512-0.201-1.743-2.719-2.259-3.006C124.037,235.332,124.293,235.388,124.318,235.432z"/>
		<g>
			<g>
				<path fill="#FFD6BF" d="M115.846,264.576c0.023-3.369-0.582-6.408-1.135-10.229c-0.188-1.207-0.577-0.951-0.621-3.449
					c-0.031-1.295-0.164-3.021-0.211-5.127l5.792-0.649c-0.014,0.05-0.028,0.1-0.042,0.149c-0.228,0.799-0.468,1.608-0.691,2.399
					c-0.374,1.335-0.294,2.333-0.441,3.427c-0.017,1.547,0.745,5.223,0.664,7.357c-0.065,1.797-0.596,3.777-1.145,5.637
					c-0.076,0.65,0.157,1.035,0.3,1.467c-0.009,1.176-1.315,2.504-1.792,2.805c-0.543,0.344-1.641,0.662-2.216,0.258
					c-0.03-0.021,0.385-1.402,0.359-1.424C115.349,265.598,115.533,265.459,115.846,264.576z"/>
				<path fill="#FFC6A6" d="M116.62,266.963c0.972-2.014,1.495-4.355,1.574-6.689c0.186-2.561,1.018-6.684-1.556-7.871
					c-0.826-0.398-1.706-0.434-2.517-0.686c-0.015-0.235-0.026-0.506-0.032-0.818c-0.031-1.295-0.164-3.021-0.211-5.127l5.792-0.649
					c-0.014,0.05-0.028,0.1-0.042,0.149c-0.228,0.799-0.468,1.608-0.691,2.399c-0.374,1.335-0.294,2.333-0.441,3.427
					c-0.017,1.547,0.745,5.223,0.664,7.357c-0.065,1.797-0.596,3.777-1.145,5.637c-0.076,0.65,0.157,1.035,0.3,1.467
					c-0.009,1.176-1.315,2.504-1.792,2.805c-0.543,0.344-1.641,0.662-2.216,0.258c-0.009-0.006,0.022-0.137,0.07-0.314
					C115.341,268.211,116.155,267.883,116.62,266.963z"/>
				<g>
					<path fill="#050505" d="M118.473,268.609c-0.128,0.061-0.26,0.09-0.393,0.125c-0.038-0.369-0.065-0.861-0.168-1.877l0.91-0.525
						c-0.062,0.879-0.132,1.48-0.129,2.137C118.624,268.52,118.553,268.57,118.473,268.609z"/>
					<path fill="#161A1F" d="M114.932,266.574c0.009,0.006-0.289,0.789-0.315,0.971c-0.067,0.469,0.326,0.795,0.827,0.732
						c1.246-0.152,3.187-2.189,2.688-3.258c0.114,0.045,0.593,0.484,0.657,0.846c0.218,1.24-0.555,1.143-0.836,1.42
						c-0.367,0.361-0.327,1.25-0.627,1.711c-0.46,0.707-2.664,1.684-4.019,1.076c-0.133-0.072-0.286-0.133-0.33-0.262
						C112.753,269.162,114.723,267.012,114.932,266.574z"/>
				</g>
			</g>
			<g>
				<g>
					<g>
						<path fill="#FFD6BF" d="M123.92,246.818c-0.97,0.254-4.307,0.931-4.496,1.445c-0.127,0.347-0.031,3.131,1.068,11.875
							c0.49,3.951,0.369,3.52-0.244,7.445c-0.055,0.354,0.104,1.428,0.104,1.428l1.12,0.828l1.731-0.941
							c0.221-1.117,0.256-1.326-0.279-3.947c0.45-3.48,1.284-3.967,1.143-11.357C124.063,253.373,123.99,247.688,123.92,246.818z"/>
					</g>
				</g>
			</g>
			<g>
				<g>
					<g>
						<path fill="#FFC6A6" d="M122.518,267.813c0.385-3.367,0.096-6.639,1.059-9.908c0.628-2.064-2.092-1.367-3.554-1.654
							c-0.656-5.715-0.705-7.697-0.599-7.986c0.189-0.515,3.526-1.191,4.496-1.445c0.07,0.87,0.143,6.555,0.147,6.775
							c0.142,7.391-0.692,7.877-1.143,11.357c0.535,2.621,0.5,2.83,0.279,3.947l-1.364,0.742
							C122.197,269.082,122.451,268.482,122.518,267.813z"/>
					</g>
				</g>
			</g>
			<path fill="#161A1F" d="M123.324,267.205c0.309,1.055-0.28,4.193-1.792,4.215c-1.405,0.02-1.37-2.172-1.379-2.832
				c-0.003-0.234,0.095-1.004,0.095-1.004s0.06,0.531,0.351,1.125c0.326,0.666,1.336,0.787,1.944,0.264
				C122.828,268.727,123.164,268.012,123.324,267.205z"/>
		</g>
		<g>
			<g>
				<g>
					<path fill="#FFC6A6" d="M116.063,223.049c0-0.456,0.122-0.769,0.335-1.193c0.141-0.279,0.263-0.621,0.455-0.866
						c0.119-0.151,0.25-0.28,0.369-0.426l0.438-0.012l0.248-0.009l2.565-0.088c0.041,0.022,0.076,0.045,0.11,0.062v0.006
						c0.177,0.101,0.327,0.185,0.456,0.256v1.389h1.633c0.03,0.034,0.06,0.069,0.093,0.106c0.007,0.49-0.189,0.937-0.507,1.264
						c-0.318,0.328-0.765,0.536-1.255,0.542l-4.262,2.125c-0.524,0.008-0.545-2.282-0.879-2.64
						C115.982,223.436,116.06,223.256,116.063,223.049z"/>
					<path fill="#FFC6A6" d="M120.583,219.669l-0.003,0.594l0.003,0.26l0.001,0.876c0,0-0.112,0.192-0.312,0.397l-0.006,0.005
						c-0.045,0.047-0.091,0.088-0.154,0.135c-0.143,0.123-0.326,0.235-0.538,0.302c-0.229,0.073-0.465,0.133-0.707,0.154
						c-0.098,0.007-0.196,0.008-0.294,0.004c-0.104,0.001-0.202-0.009-0.301-0.042c-0.214-0.055-0.354-0.163-0.448-0.311
						c-0.023-0.023-0.036-0.052-0.053-0.074c-0.071-0.12-0.113-0.252-0.15-0.391l0.038-1.027l0.012-0.41l0.025-0.698l0.266,0.02
						L120.583,219.669z"/>
					<path fill="#FFFFFF" d="M120.583,220.522l-1.715,1.87l-1.125,1.221l0.082-1.57l0.082-1.483l-0.633,0.009v-0.006l-0.052,0.001
						c-0.119,0.146-0.25,0.274-0.369,0.426c-0.192,0.245-0.314,0.587-0.455,0.866c-0.213,0.424-0.335,0.737-0.335,1.192
						c-0.003,0.208-0.081,0.388-0.2,0.517c0.333,0.358,0.354,2.648,0.879,2.64l4.261-2.124c0.491-0.007,0.938-0.215,1.256-0.543
						c0.318-0.327,0.514-0.774,0.507-1.264c-1.624-0.48-1.619-1.44-1.619-1.44S120.743,220.614,120.583,220.522z"/>
					<path fill="#1B1B1B" d="M112.902,253.001c0.033,0.187,0.07,0.37,0.107,0.546c0.527,2.316,11.209,3.162,13.021,1.396
						c0.883-0.861,0.168-13.637-0.038-14.732c-0.153-1.061-0.709-2.826-1.228-4.299c-0.076-0.216-0.151-0.426-0.223-0.625
						c-0.17-0.465-0.328-0.879-0.457-1.204c-0.337-0.854-0.573-1.501-0.568-1.755c0.063-3.949,1.256-5.705,1.375-8.091
						c0.006-0.107,0.022-0.45-0.023-0.547c0-0.981-1.49-1.291-3.722-2.856l-3.903,4.252l0.242-4.588c0,0-1.297,0.024-2.477,0.617
						c-0.068,0.082-0.27,1.668-0.807,3.549c-0.354,1.235,0.311,2.889,0.805,3.971c0.471,1.023,0.518,2.162,0.138,3.222
						c-0.244,0.693-0.722,2.662-1.197,5.208c-0.395,2.117-0.786,4.631-1.04,7.145C112.584,247.42,112.488,250.629,112.902,253.001z"
						/>
					<path fill="#131313" d="M121.652,255.307c1.347,0,3.367-0.578,3.656-1.828c1.059-3.945,0.866-8.178-0.289-12.314
						c-0.385-1.155,0.385-2.791-0.385-3.464c-0.866-0.674-2.117-0.866-3.175-1.251c-1.924-0.674-3.945-1.25-6.061-1.636
						c-0.28-0.051-0.608-0.177-0.925-0.342c0.226-1.027,0.43-1.835,0.581-2.331c2.11-0.357,4.564,0.66,6.791,0.364
						c-0.096-3.079-0.673-6.157,0.385-9.14c0.187-0.623,0.818-0.923,1.501-0.953c0.722,0.428,1.139,0.759,1.139,1.278
						c0.045,0.097,0.029,0.44,0.023,0.547c-0.12,2.386-1.313,4.142-1.375,8.091c-0.004,0.254,0.231,0.901,0.568,1.755
						c0.128,0.325,0.286,0.739,0.457,1.204c0.072,0.199,0.147,0.409,0.223,0.625c0.519,1.473,1.075,3.238,1.228,4.299
						c0.207,1.096,0.921,13.871,0.038,14.732c-1.083,1.055-5.333,1.178-8.692,0.611
						C118.736,255.334,120.145,255.209,121.652,255.307z"/>
				</g>
			</g>
			<g>
				<g>
					<path fill="#A06D1B" d="M121.433,218.459c1.967,0.47,2.919-1.433,3.219-2.198c0.299-0.765,0.287-1.671-0.137-2.375
						c-0.424-0.703-1.29-1.148-2.093-0.978c-0.503,0.107-0.942,0.433-1.257,0.84c-0.316,0.406-0.519,0.889-0.674,1.379
						c-0.259,0.818-0.394,1.676-0.397,2.535c-0.003,0.518,0.091,1.118,0.539,1.377L121.433,218.459z"/>
					<path fill="#CC963E" d="M122.805,217.996c-1.768,1.777-2.879,2.84-4.685,1.693c-1.806-1.149-2.83-3.874-2.737-6.377
						c0.056-1.492,3.639-3.266,5.944-1.943C124.091,212.954,124.521,216.275,122.805,217.996z"/>
					<g>
						<path fill="#FFD6BF" d="M115.345,215.061c0.033,2.382,0.281,4.806,1.64,5.697c0.437,0.287,1.014,0.28,1.591,0.132
							c0.114-0.028,0.23-0.063,0.343-0.102c0.641-0.221,1.245-0.58,1.611-0.856c0.539-0.409,1.02-2.594,1.126-3.338
							c0.335-2.357-1.421-2.405-2.977-3.395C117.119,212.208,115.311,212.681,115.345,215.061z"/>
					</g>
					<path fill="#CC963E" d="M116.539,211.827c0.63,0.084,1.265,0.721,1.891,0.834c0.601,0.108,1.212,0.218,1.823,0.343
						c0.815,0.242,1.625,0.503,2.443,0.733c0.153,0.456,0.247,0.934,0.251,1.45c0.006,0.805-0.159,1.542-0.478,2.278
						c-0.064,0.148-1.031-1.083-1.104-0.932c0,0-1.171,1.697-1.62,1.258c-0.677-0.663-0.216-2.787-0.216-2.787
						s-3.768,0.672-4.346,0.039C115.27,214.108,114.927,212.743,116.539,211.827z"/>
					
						<ellipse transform="matrix(-0.829 -0.5593 0.5593 -0.829 99.5511 465.532)" fill="#FFD6BF" cx="120.954" cy="217.545" rx="0.686" ry="1.146"/>
					
						<ellipse transform="matrix(-0.8287 -0.5597 0.5597 -0.8287 99.4337 465.522)" fill="#FFC6A6" cx="120.954" cy="217.545" rx="0.339" ry="0.565"/>
				</g>
				<path fill="#F9F8F8" d="M116.422,212.61c0.021,0.012,0.038,0.039,0.039,0.061l-0.076-0.042
					C116.385,212.606,116.402,212.598,116.422,212.61z"/>
			</g>
		</g>
		<path fill="#131313" d="M112.908,245.048c0.033,0.666,0.135,1.276,0.324,1.806c0.36,1.006,1.133,1.855,2.077,2.348
			c2.336,1.218,6.023,0.528,7.28-1.917c1.117-2.175,0.604-4.838,0.628-8.17c0.002-0.331-0.15-1.157-0.006-1.436
			c0.2-0.388,0.985-0.688,1.553-0.929c-0.076-0.215-0.151-0.424-0.223-0.624c-1.668,0.873-1.799,0.961-2.457,1.155
			c-2.564,0.755-5.545,0.451-7.65-1.336c-0.155,0.625-0.322,1.283-0.487,1.959C113.359,240.322,112.8,242.959,112.908,245.048z"/>
		<path fill="#F9F8F8" d="M112.908,244.209c0.033,0.666,0.135,1.276,0.324,1.806c0.36,1.006,1.133,1.856,2.077,2.347
			c2.336,1.219,6.023,0.529,7.28-1.916c1.117-2.174,0.604-4.838,0.628-8.17c0.002-0.331-0.15-1.156-0.006-1.436
			c0.2-0.388,0.985-0.688,1.553-0.928c-0.076-0.216-0.151-0.426-0.223-0.625c-1.668,0.873-1.799,0.961-2.457,1.155
			c-2.564,0.755-5.545,0.45-7.65-1.337c-0.155,0.625-0.322,1.284-0.487,1.959C113.359,239.483,112.8,242.121,112.908,244.209z"/>
		<g>
			<path fill="#F9F8F8" d="M116.682,233.197L116.682,233.197c0.165-0.242,0.102-0.576-0.14-0.74l-7.277-4.961
				c-0.242-0.164-0.575-0.102-0.74,0.141l0,0c-0.165,0.242-0.102,0.575,0.14,0.74l7.277,4.96
				C116.184,233.502,116.517,233.439,116.682,233.197z"/>
			<path fill="#FFC655" d="M101.565,226.334c-0.175-0.261-0.158-0.556-0.368-0.814c-0.287-0.354-1.328-0.629-1.456-0.993
				c-0.027-0.078,0.048-0.134,0.12-0.163c0.26-0.106,0.573-0.126,0.883-0.058c-0.151-0.033-0.812-0.463-0.979-0.574
				c-0.458-0.304-0.685-0.711-0.898-1.166c-0.143-0.306-0.271-0.697-0.029-0.869c0.088-0.063,0.209-0.079,0.328-0.09
				c0.797-0.077,1.41,0.176,2.214,0.308c-0.093-0.107-0.133-0.247-0.103-0.362c0.631,0.112,1.263,0.383,1.806,0.775
				c0.13,0.093,0.347,0.184,0.388,0.059c0.014-0.042-0.005-0.094-0.024-0.142c-0.105-0.257-0.21-0.515-0.314-0.772
				c1.219,0.897,2.478,1.744,3.769,2.534c0.023-0.146,0.046-0.291,0.069-0.436c0.816,0.734,1.464,1.641,2.176,2.457
				c0.576,0.66,1.06,1.408,0.715,2.127c-0.357,0.746-1.213,0.982-2.137,0.877c-1.083-0.125-2.245-0.287-3.333-0.629
				c0.147-0.005,0.294-0.01,0.441-0.015C103.918,227.863,102.147,227.195,101.565,226.334z"/>
			<path fill="#DCA83F" d="M98.838,221.697c0.059-0.042,0.133-0.062,0.21-0.075c0.367,0.673,0.833,1.314,1.354,1.956
				c0.36,0.45,0.63-0.09,0.721,0c0.811,0.541,0.991,1.531,1.441,2.342c0.27-0.18,0-0.451,0.09-0.721
				c0.901,0.63,1.261,2.072,2.613,1.982c0.09,0-0.09-0.36-0.09-0.541c0.991,0.451,2.072,1.531,3.243,1.172
				c-0.541-0.631-1.171-1.082-1.892-1.531c0.541,0.09,1.081,0.09,1.622,0.09c-0.36-0.811-1.171-1.171-1.802-1.802
				c0.36,0.09,0.721,0.18,1.081,0.18c-0.18-0.3-0.331-0.641-0.494-0.971c0.011-0.069,0.022-0.138,0.033-0.207
				c0.816,0.734,1.464,1.641,2.176,2.457c0.576,0.66,1.06,1.408,0.715,2.127c-0.357,0.746-1.213,0.982-2.137,0.877
				c-1.083-0.125-2.245-0.287-3.333-0.629c0.147-0.005,0.294-0.01,0.441-0.015c-0.913-0.524-2.684-1.192-3.266-2.054
				c-0.175-0.261-0.158-0.556-0.368-0.814c-0.287-0.354-1.328-0.629-1.456-0.993c-0.027-0.078,0.048-0.134,0.12-0.163
				c0.26-0.106,0.573-0.126,0.883-0.058c-0.151-0.033-0.812-0.463-0.979-0.574c-0.458-0.304-0.685-0.711-0.898-1.166
				C98.725,222.26,98.596,221.869,98.838,221.697z"/>
		</g>
		<g>
			<path fill="#FFD6BF" d="M113.116,232.97c-0.082-0.229-0.323-0.374-0.127-0.825c0.015-0.035,0.058-0.073,0.041-0.111
				c-0.168-0.385-0.066-0.615,0.222-0.896c0.017-0.018,0.017-0.042,0.015-0.064c-0.077-0.936,1.744-0.191,2.59,0.154
				c0.113,0.119,0.222,0.24,0.324,0.367c0.092,0.114,0.179,0.232,0.283,0.336c0.119,0.117,1.327,0.637,2.666,0.799
				c0.742,0.091,2.143,0.123,3.463,0.329c-0.134-1.387-0.289-3.321-0.333-5.175l3.353-0.166c0.112,2.07,0.551,4.998,0.099,7.42
				c-0.01,0.182-0.052,0.379-0.13,0.592c-0.006,0.023-0.016,0.045-0.026,0.065c-0.609,1.514-2.183,1.026-3.384,0.69
				c-2.389-0.666-3.385-1.35-5.461-2.02c-0.002,0.006-1.395-0.316-1.835-0.385c-0.402-0.063-1.441-0.369-1.524-0.493
				c-0.235-0.119-0.316-0.304-0.243-0.555C113.103,233.014,113.124,232.992,113.116,232.97z"/>
			<path fill="#FFC6A6" d="M124.634,236.064c1.732-0.77,0.577-3.271,0.77-5.003c-0.996,0.362-1.992,0.043-2.988-0.076
				c-0.071-0.984-0.132-2.056-0.157-3.103l3.353-0.166c0.112,2.07,0.551,4.998,0.099,7.42c-0.01,0.182-0.052,0.379-0.13,0.592
				c-0.006,0.023-0.016,0.045-0.026,0.065c-0.609,1.514-2.183,1.026-3.384,0.69c-2.389-0.666-3.385-1.35-5.461-2.02
				c-0.002,0.006-1.395-0.316-1.835-0.385c-0.402-0.063-1.441-0.369-1.524-0.493c-0.235-0.119-0.316-0.304-0.243-0.555
				c-0.001-0.005,0-0.011,0.002-0.017c1.266,0.785,3.005,1,4.406,1.51C119.824,235.295,122.422,236.93,124.634,236.064z"/>
			<g>
				<path fill="#272727" d="M124.792,230.471c0.524-0.16,0.917-0.426,1.275-0.734c-0.063-1.936-0.203-4.016-0.496-5.601
					c-0.222-1.202-1.49-1.419-2.327-1.1c-0.034,0.013-0.066,0.026-0.097,0.041c-0.489,0.222-0.907,0.735-1.048,1.354
					c-0.021,0.093-0.037,0.188-0.044,0.284c-0.013,0.152-0.027,0.502-0.037,0.992c0,0,0.044,2.219,0.183,4.577
					C123.028,230.61,123.899,230.744,124.792,230.471z"/>
			</g>
			<g>
				<path fill="#1B1B1B" d="M124.634,223.365c-0.125-0.166-0.321-0.332-0.558-0.459c0.673,0.031,1.34,0.389,1.495,1.23
					c0.292,1.585,0.432,3.666,0.496,5.601c-0.174,0.15-0.356,0.289-0.558,0.411C125.966,227.857,125.781,225.371,124.634,223.365z"
					/>
			</g>
			<path fill="#F9F8F8" d="M126.136,228.713c0.009,0.925-0.134,1.63-0.171,1.656c-0.599,0.436-1.159,0.569-1.865,0.646
				c-0.435,0.046-1.514,0.063-1.815-0.273c-0.157-0.177-0.354-0.993-0.355-1.784c0.497,0.213,1.214,0.33,1.769,0.33
				c0.341,0,0.859-0.07,1.192-0.137c0.176-0.035,0.458,0.922,0.458,0.922s0.3-1.119,0.406-1.158
				C125.912,228.854,125.99,228.786,126.136,228.713z"/>
		</g>
	</g>
</g>
</svg>
