<?xml version="1.0" encoding="utf-8"?>
<!-- Generator: Adobe Illustrator 16.0.0, SVG Export Plug-In . SVG Version: 6.00 Build 0)  -->
<!DOCTYPE svg PUBLIC "-//W3C//DTD SVG 1.1//EN" "http://www.w3.org/Graphics/SVG/1.1/DTD/svg11.dtd">
<svg version="1.1" id="Layer_1" xmlns="http://www.w3.org/2000/svg" xmlns:xlink="http://www.w3.org/1999/xlink" x="0px" y="0px"
	 width="450px" height="450px" viewBox="0 0 450 450" enable-background="new 0 0 450 450" xml:space="preserve">
<g>
	<path fill="#FFD6BF" d="M218.38,176.543c-0.002,0.002-0.004,0.004-0.005,0.005c-0.662,0.738-1.537,1.649-2.439,2.562
		c-0.123-0.068-0.244-0.142-0.365-0.217c-0.872-0.548-1.681-1.261-2.418-1.992c0.936-1.322,1.754-2.428,2.1-2.773
		C216.061,173.32,219.604,175.177,218.38,176.543z"/>
	<path fill="#92BAEB" d="M215.088,174.125c0,0,4.901-7.703,6.809-5.655c0.582,0.624,1.098,2.916,0.619,3.627l-4.096,4.61
		C217.453,176.327,215.522,175.078,215.088,174.125z"/>
	<path fill="#799ECF" d="M221.896,168.471c-0.59-0.634-1.469-0.333-2.398,0.385c-1.126,1.828-1.211,4.594-1.352,6.72
		c-0.035,0.304-0.162,0.581-0.339,0.843c0.227,0.121,0.437,0.22,0.612,0.289l4.096-4.61
		C222.994,171.386,222.479,169.095,221.896,168.471z"/>
	<path fill="#CC963E" d="M230.025,168.362c-0.093-0.566-0.265-1.121-0.313-1.692c-0.053-0.635,0.048-1.271,0.059-1.907
		c0.014-0.825-0.125-1.639-0.33-2.436c-0.079-0.716-0.246-1.424-0.563-2.044l-0.014,0.083c-0.005-0.018-0.011-0.036-0.016-0.054
		c-0.055-0.19-0.141-0.341-0.256-0.505c-0.07-0.098-0.393-0.375-0.402-0.476l0.061,0.685c-0.474-0.24-1.049,0.013-1.471,0.334
		c-1.178,0.896-1.889,2.374-1.854,3.852c0.011,0.469,0.117,0.979,0.483,1.271c0.247,0.198,0.615,0.306,0.696,0.612
		c0.078,0.295-0.168,0.566-0.373,0.793c-0.266,0.293-0.498,0.627-0.609,1.006s-0.089,0.811,0.125,1.144
		c0.186,0.291,0.492,0.477,0.753,0.704c0.089,0.077,0.181,0.176,0.174,0.293c-0.005,0.086-0.062,0.16-0.12,0.223
		c-0.26,0.282-0.605,0.47-0.899,0.717s-0.552,0.594-0.525,0.977c0.022,0.334,0.237,0.54,0.397,0.808
		c0.144,0.242,0.154,0.522,0.172,0.807c0.008,0.138,0.012,0.279-0.02,0.414c-0.067,0.28-0.273,0.489-0.487,0.69
		c-0.276,0.515-0.508,1.064-0.474,1.652c0.056,0.961,0.803,1.348,1.467,1.891c0.387,0.316,0.689,0.794,0.859,1.319
		c0.06-0.121,0.127-0.238,0.2-0.349c0.22-0.333,0.501-0.658,0.525-1.056c0.036-0.578-0.47-1.032-0.679-1.572
		c-0.266-0.685,0.007-1.483,0.552-1.951c0.165-0.142,0.358-0.259,0.479-0.439c0.104-0.156,0.139-0.328,0.133-0.506
		c0.014,0.006,0.024,0.015,0.037,0.02c0.359,0.148,0.737-0.161,0.979-0.466C229.838,171.859,230.305,170.056,230.025,168.362z"/>
	<path fill="#CC963E" d="M223.529,170.292c-0.027-1.072,0.102-2.142,0.122-3.214s-0.073-2.172-0.522-3.146
		c-0.402-0.874-1.086-1.644-1.225-2.595c-0.064-0.436,0.035-0.824,0.074-1.251c0.023-0.256-0.084-0.378-0.356-0.359
		c-0.634,0.043-1.009,1.002-1.149,1.515c-0.111,0.407-0.142,0.837-0.076,1.255c0.046,0.285,0.131,0.568,0.219,0.851
		c0.241,0.414,0.439,0.85,0.493,1.334c0.099,0.888-0.276,1.7-0.401,2.563c-0.271,1.874,1.146,3.245,1.809,4.854
		c0.025,0.064-0.006,0.113-0.055,0.136c0.139,0.374,0.252,0.756,0.302,1.146c0.093,0.726-0.118,1.452-0.386,2.119
		c-0.146,0.364-0.308,0.712-0.489,1.043c0.67-0.431,1.2-1.077,1.483-1.821C223.902,173.33,223.568,171.781,223.529,170.292z"/>
	<g>
		<g>
			<g>
				<path fill="#151719" d="M218.898,211.139c0,0,2.433-0.806,2.366,2.295c-0.018,0.806-1.509,1.027-1.509,1.027
					s-0.488-0.064-0.785,0.146c-0.374,0.268-0.518,0.527-0.633,0.634c-1.191,1.138-3.088,0.762-3.677,0.157
					c-0.846-0.864,0.506-1.718,2.045-2.684C218.314,211.705,218.898,211.139,218.898,211.139z"/>
				<path fill="#E1AA3D" d="M225.746,190.716c-0.812,2.458-1.387,4.967-2.286,7.398c-0.405,1.096-0.905,2.225-0.854,3.413
					c0.05,1.178,0.316,2.278,0.287,3.473c-0.048,1.944,0.221,4.974-0.753,6.716c-0.632,1.131-3.581,1.339-4.416,0.271
					c-0.505-0.645-0.167-1.888-0.128-2.643c0.069-1.314,0.143-2.63,0.156-3.946c0.016-1.287-0.221-2.445-0.326-3.707
					c-0.102-1.218,0.234-2.422,0.434-3.613c0.809-4.829,0.605-9.794,3.039-14.222c2.12,1.377,5.855,3.826,4.847,6.862
					c0.101-0.303,0.2-0.606,0.302-0.909C225.945,190.111,225.846,190.414,225.746,190.716
					C225.211,192.337,226.452,188.583,225.746,190.716z"/>
				<polygon fill="#B32B2B" points="225.807,190.185 225.807,190.185 225.807,190.185 				"/>
				<path fill="#B32B2B" d="M225.807,190.185L225.807,190.185c0.031-0.091,0.061-0.183,0.091-0.273
					c0.023-0.07,0.044-0.13,0.06-0.181c-0.05,0.152-0.1,0.304-0.15,0.456C225.807,190.186,225.807,190.186,225.807,190.185z"/>
				<path fill="#B32B2B" d="M225.897,189.912c-0.03,0.091-0.06,0.182-0.091,0.273C225.842,190.08,225.872,189.99,225.897,189.912z"
					/>
				<path fill="#B32B2B" d="M226.114,189.259c-0.053,0.157-0.104,0.314-0.157,0.472c-0.016,0.051-0.036,0.11-0.06,0.181
					C225.97,189.694,226.041,189.476,226.114,189.259z"/>
				<path fill="#B32B2B" d="M225.807,190.187c0.051-0.152,0.101-0.304,0.15-0.456c0.201-0.606-0.033,0.102-0.184,0.557
					c0.012-0.034,0.022-0.069,0.033-0.103C225.807,190.186,225.807,190.186,225.807,190.187z"/>
				<path fill="#151719" d="M227.908,212.179c0,0,2.211-1.165,2.644,1.828c0.112,0.778-1.286,1.23-1.286,1.23
					s-0.48,0.016-0.732,0.267c-0.316,0.318-0.412,0.59-0.506,0.711c-0.965,1.286-2.848,1.228-3.512,0.741
					c-0.951-0.696,0.211-1.733,1.537-2.91C227.438,212.817,227.908,212.179,227.908,212.179z"/>
				<path fill="#B32B2B" d="M227.387,185.506c0.391,0.002,1.111-0.138,1.478,0.008c0.509,0.203,1.046,1.601,1.301,2.117
					c1.196,2.414,1.373,4.253,0.479,10.717c-0.088,0.639-0.289,1.387-0.221,2.04c0.068,0.647,0.387,1.287,0.535,1.926
					c0.84,3.612,0.125,7.532-0.256,11.155c-0.789,0.403-1.949,0.529-2.803,0.352c-1.485-0.31-1.289-1.122-1.397-2.353
					c-0.236-2.692-0.614-5.37-0.897-8.057c-0.316-3-0.884-5.937-1.13-8.952c-0.132-1.612-0.284-3.134-1.137-4.538
					c-0.812-1.337-1.793-2.673-2.063-4.252C223.324,185.479,225.328,185.495,227.387,185.506z"/>
				<path fill="#FFC655" d="M227.387,185.506c0.391,0.002,1.111-0.138,1.478,0.008c0.509,0.203,1.046,1.601,1.301,2.117
					c1.196,2.414,1.373,4.253,0.479,10.717c-0.088,0.639-0.289,1.387-0.221,2.04c0.068,0.647,0.387,1.287,0.535,1.926
					c0.84,3.612,0.125,7.532-0.256,11.155c-0.789,0.403-1.949,0.529-2.803,0.352c-1.485-0.31-1.289-1.122-1.397-2.353
					c-0.236-2.692-0.614-5.37-0.897-8.057c-0.316-3-0.884-5.937-1.13-8.952c-0.132-1.612-0.284-3.134-1.137-4.538
					c-0.812-1.337-1.793-2.673-2.063-4.252C223.324,185.479,225.328,185.495,227.387,185.506z"/>
				<path fill="#E1AA3D" d="M230.959,202.314c-0.148-0.639-0.467-1.279-0.535-1.926c-0.068-0.653,0.133-1.401,0.221-2.04
					c0.894-6.464,0.717-8.303-0.479-10.717c-0.255-0.516-0.792-1.914-1.301-2.117c-0.366-0.146-1.087-0.006-1.478-0.008
					c-2.059-0.011-4.063-0.027-6.11,0.163c0.27,1.579,1.251,2.915,2.063,4.252c0.079,0.13,0.15,0.262,0.218,0.395
					c1.936,0.062,3.805,0.003,5.752,0.257c1.557,0.275,1.373,2.381,1.098,3.755c-0.549,2.564-0.091,5.128-0.549,7.51
					c-0.33,1.648-2.512,1.887-4.215,1.918c0.043,0.392,0.088,0.783,0.133,1.175c0.828,0.483,2.23,0.354,3.166,0.478
					c0.367,0.092,0.732,0.458,0.824,0.733c0.55,2.015,1.191,4.121,0.367,6.044c-0.211,0.539-0.35,1.078-0.44,1.619
					c0.366-0.072,0.715-0.185,1.011-0.336C231.084,209.846,231.799,205.926,230.959,202.314z"/>
				<path fill="#872220" d="M225.898,189.907c-0.029,0.092-0.061,0.185-0.092,0.277
					C225.843,190.078,225.873,189.986,225.898,189.907z"/>
				<path fill="#872220" d="M226.114,189.259c-0.053,0.158-0.104,0.316-0.157,0.474c-0.017,0.049-0.035,0.107-0.059,0.174
					C225.971,189.691,226.042,189.475,226.114,189.259z"/>
				<polygon fill="#872220" points="225.807,190.185 225.807,190.185 225.807,190.185 				"/>
				<path fill="#872220" d="M225.807,190.185L225.807,190.185c0.031-0.093,0.063-0.186,0.092-0.278
					c0.023-0.067,0.042-0.125,0.059-0.174c-0.051,0.151-0.1,0.302-0.15,0.454C225.807,190.186,225.807,190.186,225.807,190.185z"/>
				<path fill="#872220" d="M225.807,190.187c0.051-0.151,0.1-0.302,0.15-0.454c0.202-0.61-0.032,0.099-0.184,0.555
					c0.012-0.034,0.022-0.069,0.033-0.103C225.807,190.186,225.807,190.186,225.807,190.187z"/>
			</g>
			<path fill="#FE4F85" d="M230.43,187.866c0.27,2.248-5.822,2.312-7.051,2.209c-1.016-0.084-4.441-0.771-4.422-1.759
				c0.047-2.37,0.741-6.705,0.928-8.42c0.13-1.204-0.016-1.489-0.354-2.657c-0.741-2.552-1.402-3.526,0.265-7.513
				c0.385-0.923,0.061-1.378,1.059-1.613c1.199-0.282,2.437-0.552,3.311-0.131c0.979,0.471,1.379-0.49,2.164-0.098
				c1.06,0.528,2.477,1.06,3.757,1.685c2.286,1.116-1.038,2.567-0.683,10.886C229.488,182.462,230.071,184.895,230.43,187.866z"/>
			<path fill="#92BAEB" d="M230.43,187.866c0.27,2.248-5.822,2.312-7.051,2.209c-1.016-0.084-4.441-0.771-4.422-1.759
				c0.047-2.37,0.741-6.705,0.928-8.42c0.13-1.204-0.016-1.489-0.354-2.657c-0.741-2.552-1.402-3.526,0.265-7.513
				c0.385-0.923,0.061-1.378,1.059-1.613c1.199-0.282,2.437-0.552,3.311-0.131c0.979,0.471,1.379-0.49,2.164-0.098
				c1.06,0.528,2.477,1.06,3.757,1.685c2.286,1.116-1.038,2.567-0.683,10.886C229.488,182.462,230.071,184.895,230.43,187.866z"/>
			<path fill="#799ECF" d="M226.771,186.445c-1.896,0.776-3.795,1.294-5.865,1.812c-0.432,0.086-0.949,0.259-1.381,0.431
				c-0.115,0.051-0.225,0.08-0.326,0.088c0.795,0.738,3.33,1.229,4.18,1.3c0.948,0.079,4.793,0.059,6.375-0.988
				c-0.023-0.539-0.074-1.078-0.135-1.607C229.446,186.013,228.066,185.927,226.771,186.445z"/>
			<path fill="#799ECF" d="M229.402,180.454c-0.355-8.319,2.969-9.77,0.683-10.886c-0.103-0.05-0.207-0.1-0.312-0.149
				c-0.938,0.015-1.831,0.234-2.225,1.153c-1.467,3.537-1.726,7.333-1.295,11.042c-1.553,1.208-3.105,2.415-4.916,3.278
				c-0.69,0.345-1.208,0.776-1.726,1.38c-0.181,0.362-0.363,0.682-0.603,0.989c-0.027,0.38-0.046,0.736-0.053,1.056
				c-0.003,0.162,0.086,0.315,0.242,0.459c0.102-0.009,0.211-0.037,0.326-0.088c0.432-0.172,0.949-0.345,1.381-0.431
				c2.07-0.518,3.969-1.035,5.865-1.812c1.295-0.518,2.675-0.432,2.848,1.035c0.061,0.529,0.111,1.069,0.135,1.607
				c0.467-0.31,0.736-0.708,0.676-1.221C230.071,184.895,229.488,182.462,229.402,180.454z"/>
			<path fill="#FFD6BF" d="M231.259,175.763c-1.328,0.296-2.763,1.668-3.933,0.954c0,0,0.061,4.129-0.714,5.184
				c0,0-0.049,0.028-0.138,0.079c1.316,0.597,2.641,1.177,3.938,1.813C231.529,181.566,231.259,175.763,231.259,175.763z"/>
			<g>
				<path fill="#92BAEB" d="M226.766,177.916c0,0,0.217-3.198,0.396-4.813c0.188-1.705,1.386-3.674,2.618-3.569
					c1.232,0.105,1.752,1.266,1.826,3.102c0.057,1.421-0.117,5.583-0.117,5.583C230.22,178.776,228.041,178.677,226.766,177.916z"/>
			</g>
			<g>
				<path fill="#799ECF" d="M231.605,172.635c-0.073-1.814-0.583-2.969-1.783-3.097c0.296,0.114,0.525,0.319,0.572,0.603
					c0.578,2.821,0.678,5.595,0.302,8.32c0.288-0.058,0.556-0.14,0.792-0.244C231.488,178.218,231.662,174.056,231.605,172.635z"/>
			</g>
		</g>
	</g>
	<g>
		<path fill="#CC963E" d="M227.93,164.459c-1.708,1.669-2.162,3.057-3.868,1.939c-1.705-1.119-3.062-3.937-2.654-6.289
			c0.434-2.501,3.654-2.907,5.69-1.755C229.741,159.849,229.588,162.843,227.93,164.459z"/>
		<g>
			<path fill="#FFC6A6" d="M225.576,169.398c0.576-0.241,1.491-0.733,1.234-1.251c-0.516-1.044-0.336-3.039-0.336-3.039
				l-3.144,0.308c-0.129,0-0.365,2.249-0.307,3.08C223.082,169.309,224.709,169.762,225.576,169.398z"/>
		</g>
		<path fill="#FFD6BF" d="M221.348,161.775c0,2.271,0.203,4.584,1.486,5.451c0.412,0.279,0.963,0.28,1.515,0.147
			c0.109-0.025,0.22-0.058,0.329-0.092c0.613-0.202,0.968-0.38,1.32-0.639c0.519-0.382,1.232-2.613,1.344-3.321
			c0.352-2.242-1.321-2.311-2.791-3.275C223.076,159.081,221.348,159.508,221.348,161.775z"/>
		<path fill="#CC963E" d="M223.885,161.659c-0.801-0.146-1.881-0.234-2.377-0.982c-0.094-0.142-0.172-0.309-0.23-0.488
			c0.283-0.927,0.666-0.972,1.957-1.735c0.875-0.514,1.607-0.965,2.335,0.104c0.126,0.186,0.424,0.275,0.26,0.326
			c-0.905,1.889,1.905,3.526,0.214,4.309C225.858,162.327,224.655,161.799,223.885,161.659z"/>
		<path fill="#CC963E" d="M228.997,160.549c-0.232-0.538-0.667-0.956-0.946-1.46c-0.297-0.283-0.651-0.553-1.081-0.804
			c-1.479-0.863-2.917,0.661-2.31,1.691c0.346,0.584,0.564,1.333,0.693,2.18c0.074,0.082,0.135,0.195,0.176,0.338
			c0.156,0.549-0.123,2.717,0.884,2.408c0.442-0.136,0.645,0.385,1.208,0.927c0.113,0.109,0.186-1.428,0.215-1.24h0.963
			c0.376-0.655,0.389-1.532,0.408-2.254C229.225,161.729,229.242,161.115,228.997,160.549z"/>
		<path fill="#FFD6BF" d="M227.093,165.125c-0.295,0.517-0.621,0.795-0.965,0.685c-0.345-0.11-0.462-0.519-0.274-1.088
			c0.18-0.57,0.77-0.9,1.117-0.79C227.311,164.043,227.428,164.534,227.093,165.125z"/>
		<path fill="#FFC6A6" d="M226.835,165.007c-0.163,0.287-0.345,0.441-0.536,0.38s-0.256-0.288-0.152-0.604
			c0.1-0.317,0.428-0.5,0.621-0.438C226.956,164.406,227.021,164.679,226.835,165.007z"/>
	</g>
	<path fill="#FFD6BF" d="M215.936,179.11c-1.027,1.04-2.086,2.078-2.896,2.861c-0.729,0.703-2.061,1.38-2.824,2.249
		c-0.659,0.749-1.362,1.586-2.18,2.319c-0.172,0.055-0.281,0.058-0.395,0.132c-0.346,0.225-0.328,0.711-0.851,0.61
		c-0.024-0.012-0.048-0.021-0.071-0.028c-0.242-0.075-0.389,0.085-0.514-0.2c-0.065-0.152-0.07-0.137-0.253-0.18
		c-0.001-0.004-0.002-0.008-0.002-0.013c-0.19-0.305,0.224-2.044,1.103-2.827c0.562-0.5,1.666-0.634,2.065-1.239
		c0.583-0.888,2.474-3.69,4.034-5.892c0.737,0.73,1.546,1.444,2.418,1.992C215.691,178.968,215.813,179.042,215.936,179.11z"/>
	<path fill="#FFC6A6" d="M218.283,176.65c-0.65,0.719-1.486,1.589-2.348,2.459c-1.027,1.04-2.086,2.078-2.896,2.861
		c-0.729,0.703-2.061,1.38-2.824,2.249c-0.659,0.749-1.362,1.586-2.18,2.319c-0.172,0.055-0.281,0.058-0.395,0.132
		c-0.346,0.225-0.328,0.711-0.851,0.61c-0.024-0.012-0.048-0.021-0.071-0.028c0.064-0.104,0.143-0.202,0.225-0.29
		c0.26-0.27,0.583-0.467,0.889-0.682c1.904-1.342,3.16-3.431,4.971-4.897c0.92-0.744,1.998-1.344,2.661-2.325
		c0.036-0.054,0.072-0.11,0.106-0.166c0.199-0.325,0.369-0.67,0.614-0.962c0.284-0.34,0.653-0.588,0.966-0.898
		c0.201-0.201,0.346-0.473,0.546-0.675C217.908,176.475,218.107,176.574,218.283,176.65z"/>
	<g>
		<g>
			<g enable-background="new    ">
				<g enable-background="new    ">
					<defs>
						<path id="SVGID_1_" enable-background="new    " d="M211.494,190.457l0.004-0.274c0,0.023,0.006,0.046,0.017,0.07
							l-0.004,0.275C211.5,190.504,211.494,190.48,211.494,190.457z"/>
					</defs>
					<use xlink:href="#SVGID_1_"  overflow="visible" fill="#1A1A1A"/>
					<clipPath id="SVGID_2_">
						<use xlink:href="#SVGID_1_"  overflow="visible"/>
					</clipPath>
					<g clip-path="url(#SVGID_2_)" enable-background="new    ">
						<path fill="#1A1A1A" d="M211.515,190.253l-0.004,0.275c-0.011-0.024-0.017-0.048-0.017-0.071l0.004-0.274
							C211.498,190.206,211.504,190.229,211.515,190.253L211.515,190.253z"/>
					</g>
				</g>
				<g>
					<polygon fill="#1A1A1A" points="211.99,191.267 211.986,191.542 211.511,190.528 211.515,190.253 					"/>
				</g>
				<g enable-background="new    ">
					<defs>
						<path id="SVGID_3_" enable-background="new    " d="M212.941,192.216l-0.004,0.275c-0.455-0.263-0.783-0.59-0.951-0.949
							l0.004-0.274C212.158,191.626,212.486,191.953,212.941,192.216z"/>
					</defs>
					<use xlink:href="#SVGID_3_"  overflow="visible" fill="#1A1A1A"/>
					<clipPath id="SVGID_4_">
						<use xlink:href="#SVGID_3_"  overflow="visible"/>
					</clipPath>
					<g clip-path="url(#SVGID_4_)" enable-background="new    ">
						<path fill="#1A1A1A" d="M212.941,192.216l-0.004,0.275c-0.455-0.263-0.783-0.59-0.951-0.949l0.004-0.274
							C212.158,191.626,212.486,191.953,212.941,192.216L212.941,192.216z"/>
					</g>
				</g>
				<g enable-background="new    ">
					<defs>
						<path id="SVGID_5_" enable-background="new    " d="M217.091,192.01l-0.004,0.274c-0.001,0.196-0.13,0.392-0.386,0.541
							l0.004-0.275C216.961,192.401,217.09,192.206,217.091,192.01z"/>
					</defs>
					<use xlink:href="#SVGID_5_"  overflow="visible" fill="#1A1A1A"/>
					<clipPath id="SVGID_6_">
						<use xlink:href="#SVGID_5_"  overflow="visible"/>
					</clipPath>
					<g clip-path="url(#SVGID_6_)" enable-background="new    ">
						<path fill="#1A1A1A" d="M217.091,192.01l-0.004,0.274c-0.001,0.119-0.048,0.237-0.142,0.345l0.004-0.274
							C217.043,192.247,217.09,192.129,217.091,192.01L217.091,192.01z"/>
						<path fill="#1A1A1A" d="M216.949,192.355l-0.004,0.274c-0.063,0.071-0.144,0.137-0.244,0.196l0.004-0.275
							C216.806,192.492,216.887,192.426,216.949,192.355L216.949,192.355z"/>
					</g>
				</g>
				<g>
					<polygon fill="#1A1A1A" points="216.705,192.551 216.701,192.826 216.052,193.203 216.056,192.928 					"/>
				</g>
				<g>
					<polygon fill="#1A1A1A" points="214.174,192.928 214.17,193.202 212.938,192.491 212.941,192.216 					"/>
				</g>
				<g enable-background="new    ">
					<defs>
						<path id="SVGID_7_" enable-background="new    " d="M216.056,192.928l-0.004,0.274c-0.518,0.301-1.36,0.301-1.882,0
							l0.004-0.274C214.695,193.229,215.538,193.229,216.056,192.928z"/>
					</defs>
					<use xlink:href="#SVGID_7_"  overflow="visible" fill="#1A1A1A"/>
					<clipPath id="SVGID_8_">
						<use xlink:href="#SVGID_7_"  overflow="visible"/>
					</clipPath>
					<g clip-path="url(#SVGID_8_)" enable-background="new    ">
						<path fill="#1A1A1A" d="M216.056,192.928l-0.004,0.274c-0.188,0.109-0.417,0.178-0.659,0.208l0.004-0.274
							C215.639,193.106,215.868,193.037,216.056,192.928L216.056,192.928z"/>
						<path fill="#1A1A1A" d="M215.396,193.137l-0.004,0.274c-0.427,0.053-0.89-0.017-1.223-0.209l0.004-0.274
							C214.507,193.12,214.97,193.189,215.396,193.137L215.396,193.137z"/>
					</g>
				</g>
				<g>
					<path fill="#1A1A1A" d="M216.697,191.461c0.521,0.301,0.525,0.789,0.008,1.089l-0.649,0.377c-0.518,0.301-1.36,0.3-1.882,0
						l-1.232-0.712c-0.455-0.263-0.783-0.59-0.951-0.949l-0.476-1.014c-0.092-0.196,0.218-0.376,0.557-0.323l1.753,0.271
						c0.619,0.096,1.186,0.285,1.641,0.548L216.697,191.461z"/>
				</g>
			</g>
		</g>
		<g>
			<g enable-background="new    ">
				<g enable-background="new    ">
					<defs>
						<path id="SVGID_9_" enable-background="new    " d="M211.494,190.188l0.004-0.883c0,0.023,0.006,0.047,0.017,0.071
							l-0.004,0.883C211.5,190.235,211.494,190.212,211.494,190.188z"/>
					</defs>
					<use xlink:href="#SVGID_9_"  overflow="visible" fill="#0DADCC"/>
					<clipPath id="SVGID_10_">
						<use xlink:href="#SVGID_9_"  overflow="visible"/>
					</clipPath>
					<g clip-path="url(#SVGID_10_)" enable-background="new    ">
						<path fill="#0DADCC" d="M211.515,189.376l-0.004,0.883c-0.011-0.024-0.017-0.047-0.017-0.071l0.004-0.883
							C211.498,189.329,211.504,189.353,211.515,189.376L211.515,189.376z"/>
					</g>
				</g>
				<g>
					<polygon fill="#0DADCC" points="211.99,190.391 211.986,191.273 211.511,190.259 211.515,189.376 					"/>
				</g>
				<g enable-background="new    ">
					<defs>
						<path id="SVGID_11_" enable-background="new    " d="M212.941,191.339l-0.004,0.883c-0.455-0.263-0.783-0.59-0.951-0.949
							l0.004-0.883C212.158,190.749,212.486,191.077,212.941,191.339z"/>
					</defs>
					<use xlink:href="#SVGID_11_"  overflow="visible" fill="#0DADCC"/>
					<clipPath id="SVGID_12_">
						<use xlink:href="#SVGID_11_"  overflow="visible"/>
					</clipPath>
					<g clip-path="url(#SVGID_12_)" enable-background="new    ">
						<path fill="#0DADCC" d="M212.941,191.339l-0.004,0.883c-0.455-0.263-0.783-0.59-0.951-0.949l0.004-0.883
							C212.158,190.749,212.486,191.077,212.941,191.339L212.941,191.339z"/>
					</g>
				</g>
				<g enable-background="new    ">
					<defs>
						<path id="SVGID_13_" enable-background="new    " d="M217.091,191.133l-0.004,0.883c-0.001,0.196-0.13,0.391-0.386,0.541
							l0.004-0.883C216.961,191.525,217.09,191.329,217.091,191.133z"/>
					</defs>
					<use xlink:href="#SVGID_13_"  overflow="visible" fill="#0DADCC"/>
					<clipPath id="SVGID_14_">
						<use xlink:href="#SVGID_13_"  overflow="visible"/>
					</clipPath>
					<g clip-path="url(#SVGID_14_)" enable-background="new    ">
						<path fill="#0DADCC" d="M217.091,191.133l-0.004,0.883c-0.001,0.119-0.048,0.237-0.142,0.345l0.004-0.883
							C217.043,191.371,217.09,191.252,217.091,191.133L217.091,191.133z"/>
						<path fill="#0DADCC" d="M216.949,191.479l-0.004,0.883c-0.063,0.07-0.144,0.137-0.244,0.195l0.004-0.883
							C216.806,191.615,216.887,191.549,216.949,191.479L216.949,191.479z"/>
					</g>
				</g>
				<g>
					<polygon fill="#0DADCC" points="216.705,191.674 216.701,192.557 216.052,192.934 216.056,192.051 					"/>
				</g>
				<g>
					<polygon fill="#0DADCC" points="214.174,192.051 214.17,192.934 212.938,192.222 212.941,191.339 					"/>
				</g>
				<g enable-background="new    ">
					<defs>
						<path id="SVGID_15_" enable-background="new    " d="M216.056,192.051l-0.004,0.883c-0.518,0.301-1.36,0.301-1.882,0
							l0.004-0.883C214.695,192.352,215.538,192.352,216.056,192.051z"/>
					</defs>
					<use xlink:href="#SVGID_15_"  overflow="visible" fill="#0DADCC"/>
					<clipPath id="SVGID_16_">
						<use xlink:href="#SVGID_15_"  overflow="visible"/>
					</clipPath>
					<g clip-path="url(#SVGID_16_)" enable-background="new    ">
						<path fill="#0DADCC" d="M216.056,192.051l-0.004,0.883c-0.188,0.109-0.417,0.179-0.659,0.208l0.004-0.883
							C215.639,192.23,215.868,192.16,216.056,192.051L216.056,192.051z"/>
						<path fill="#0DADCC" d="M215.396,192.26l-0.004,0.883c-0.427,0.053-0.89-0.017-1.223-0.208l0.004-0.883
							C214.507,192.243,214.97,192.313,215.396,192.26L215.396,192.26z"/>
					</g>
				</g>
				<g>
					<path fill="#0DADCC" d="M216.697,190.584c0.521,0.301,0.525,0.789,0.008,1.09l-0.649,0.377c-0.518,0.301-1.36,0.301-1.882,0
						l-1.232-0.712c-0.455-0.262-0.783-0.59-0.951-0.948l-0.476-1.014c-0.092-0.196,0.218-0.376,0.557-0.323l1.753,0.271
						c0.619,0.096,1.186,0.285,1.641,0.548L216.697,190.584z"/>
				</g>
			</g>
		</g>
		<g enable-background="new    ">
			<g enable-background="new    ">
				<defs>
					<path id="SVGID_17_" enable-background="new    " d="M213.42,188.483l0.645-0.375c-0.315,0.183-0.516,0.587-0.531,0.619
						l-0.645,0.375C212.904,189.07,213.104,188.666,213.42,188.483z"/>
				</defs>
				<clipPath id="SVGID_18_">
					<use xlink:href="#SVGID_17_"  overflow="visible"/>
				</clipPath>
				<g clip-path="url(#SVGID_18_)">
					<path fill="#0B90AA" d="M213.42,188.483l0.645-0.375c-0.315,0.183-0.516,0.587-0.531,0.619l-0.645,0.375
						C212.904,189.07,213.104,188.666,213.42,188.483L213.42,188.483z"/>
				</g>
			</g>
			<g>
				<polygon fill="#0B90AA" points="212.889,189.102 213.533,188.727 215.66,189.955 215.016,190.33 				"/>
			</g>
			<g enable-background="new    ">
				<defs>
					<path id="SVGID_19_" enable-background="new    " d="M212.535,187.91l0.645-0.375c0.39-0.227,0.857-0.302,1.378-0.001
						c1.14,0.658,1.313,0.759,1.335,0.771l-0.645,0.375c-0.021-0.012-0.195-0.113-1.335-0.771
						C213.393,187.608,212.924,187.683,212.535,187.91z"/>
				</defs>
				<clipPath id="SVGID_20_">
					<use xlink:href="#SVGID_19_"  overflow="visible"/>
				</clipPath>
				<g clip-path="url(#SVGID_20_)">
					<path fill="#0B90AA" d="M212.535,187.91l0.645-0.375c0.39-0.227,0.857-0.302,1.378-0.001c1.14,0.658,1.313,0.759,1.335,0.771
						l-0.645,0.375c-0.021-0.012-0.195-0.113-1.335-0.771C213.393,187.608,212.924,187.683,212.535,187.91L212.535,187.91z"/>
				</g>
			</g>
			<g enable-background="new    ">
				<defs>
					<path id="SVGID_21_" enable-background="new    " d="M215.248,188.679l0.645-0.375c0.043,0.083,0.855,1.658,0.85,3.354
						l-0.645,0.375C216.104,190.336,215.291,188.762,215.248,188.679z"/>
				</defs>
				<clipPath id="SVGID_22_">
					<use xlink:href="#SVGID_21_"  overflow="visible"/>
				</clipPath>
				<g clip-path="url(#SVGID_22_)" enable-background="new    ">
					<path fill="#0B90AA" d="M215.248,188.679l0.645-0.375c0.031,0.061,0.475,0.92,0.708,2.041l-0.645,0.375
						C215.723,189.599,215.279,188.74,215.248,188.679L215.248,188.679z"/>
					<path fill="#0DADCC" d="M215.956,190.72l0.645-0.375c0.085,0.411,0.144,0.857,0.142,1.313l-0.645,0.375
						C216.1,191.578,216.042,191.131,215.956,190.72L215.956,190.72z"/>
				</g>
			</g>
			<g>
				<path fill="#0DADCC" d="M215.248,188.679c0.043,0.083,0.855,1.657,0.85,3.354l-4.593-2.768c0.056-0.111,0.948-2.199,2.408-1.356
					C215.053,188.566,215.227,188.667,215.248,188.679z M212.889,189.102l2.127,1.228c0.002-0.76-0.362-1.465-0.381-1.502
					c-0.01-0.005-0.088-0.05-0.598-0.345C213.383,188.105,212.913,189.052,212.889,189.102L212.889,189.102z"/>
			</g>
		</g>
	</g>
	<g>
		<path fill="#FFD6BF" d="M226.515,181.956c-0.884,0.505-5.823,3.332-7.3,4.302c-0.693,0.456-1.916,0.096-2.732,0.367
			c-1.279,0.425-2.504,2.066-2.441,2.474c-0.002,0.004-0.002,0.01-0.004,0.014c0.173,0.127,0.185,0.114,0.186,0.305
			c0.001,0.39,0.273,0.23,0.511,0.504c0.503,0.344,0.705-0.177,1.17-0.256c0.153-0.026,0.269,0.02,0.474,0.041
			c1.193-0.399,2.313-0.961,3.344-1.451c1.197-0.567,2.905-0.675,3.991-1.084c2.269-0.856,3.808-1.584,6.01-2.602
			c0.275-0.127,0.522-0.443,0.712-0.818C229.137,183.114,227.832,182.552,226.515,181.956z"/>
	</g>
	<path fill="#FFC6A6" d="M230.433,183.75C230.433,183.75,230.433,183.75,230.433,183.75c-0.001,0.003-0.003,0.006-0.005,0.009
		c-0.006,0.011-0.01,0.022-0.016,0.033c0-0.001,0-0.001,0-0.001c-0.187,0.356-0.426,0.655-0.69,0.778
		c-2.201,1.017-3.741,1.746-6.011,2.602c-1.084,0.41-2.793,0.518-3.99,1.084c-1.031,0.489-2.15,1.051-3.344,1.451
		c-0.205-0.021-0.32-0.067-0.474-0.041c-0.466,0.079-0.667,0.599-1.171,0.256c-0.236-0.274-0.509-0.115-0.511-0.504
		c0-0.19-0.012-0.178-0.185-0.305c0.002-0.004,0.002-0.01,0.004-0.014c-0.004-0.022-0.002-0.047,0.002-0.075
		c0.6,0.792,2.027,0.14,2.901-0.099c0.733-0.183,1.374-0.641,2.106-0.824c3.389-1.099,6.869-1.648,9.799-3.846
		c1.83-1.373,2.137-3.634,2.029-5.833c0.139-0.034,0.271-0.073,0.396-0.119C231.23,180.129,231.045,182.486,230.433,183.75z"/>
</g>
</svg>
