<?xml version="1.0" encoding="utf-8"?>
<!-- Generator: Adobe Illustrator 16.0.0, SVG Export Plug-In . SVG Version: 6.00 Build 0)  -->
<!DOCTYPE svg PUBLIC "-//W3C//DTD SVG 1.1//EN" "http://www.w3.org/Graphics/SVG/1.1/DTD/svg11.dtd">
<svg version="1.1" id="Layer_1" xmlns="http://www.w3.org/2000/svg" xmlns:xlink="http://www.w3.org/1999/xlink" x="0px" y="0px"
	 width="450px" height="450px" viewBox="0 0 450 450" enable-background="new 0 0 450 450" xml:space="preserve">
<g>
	<g>
		<g>
			<g>
				<g>
					<path fill="#E9B288" d="M330.255,195.143c0.167,2.683,1.535,6.792,1.685,9.475c-0.942,2.123-0.286,5.146,0.03,7.166
						c0.135,0.862,0.373,1.704,0.616,2.541c0.124,0.425,0.248,0.851,0.369,1.277c0.092,0.327,0.105,0.594,0.168,0.92
						c0.041,0.221,0.261,0.375,0.483,0.409c0.222,0.034,0.447-0.028,0.661-0.096c0.815-0.259,1.591-0.626,2.364-0.993
						c0.16-0.076,0.324-0.155,0.442-0.287c0.119-0.132,0.18-0.332,0.101-0.491c-0.085-0.17,0.081-0.327-0.104-0.368
						c-0.498-0.11-2.166,0.422-2.166-0.27c0.306-1.945,0.316-4.825,0.733-6.678c0.137-0.577,1.822-7.297,1.924-8.386
						c0.133-1.32,0.257-2.64,0.307-3.965c-0.004-0.093,0.002-0.195,0.007-0.287c0.01-0.259,0.026-0.517,0.043-0.775
						C337.206,192.158,330.037,191.662,330.255,195.143z"/>
					<path opacity="0.2" fill="#FFC89F" d="M330.255,195.143c0.167,2.683,1.535,6.792,1.685,9.475
						c-0.014,0.031-0.026,0.063-0.039,0.095c1.272,0.574,3.407,0.178,3.162,1.81c-0.476,2.569-0.476,5.043-0.476,7.613
						c0.036,0.216,0.181,0.377,0.373,0.474c-0.035-0.048-0.056-0.108-0.056-0.182c0.306-1.945,0.316-4.825,0.733-6.678
						c0.137-0.577,1.822-7.297,1.924-8.386c0.133-1.32,0.257-2.64,0.307-3.965c-0.004-0.093,0.002-0.195,0.007-0.287
						c0.01-0.259,0.026-0.517,0.043-0.775C337.206,192.158,330.037,191.662,330.255,195.143z"/>
					<path fill="#EBF1F5" d="M332.849,217.364c0.007,0.015,0.015,0.03,0.022,0.044c0.147,0.286,0.426,0.52,0.746,0.544
						c0.129,0.01,0.257-0.014,0.384-0.038c0.136-0.025,0.272-0.052,0.399-0.104c0.133-0.054,0.254-0.145,0.373-0.222
						c0.132-0.084,0.218-0.225,0.328-0.333c0.312-0.305,0.753-0.43,1.18-0.518c0.428-0.088,0.87-0.154,1.246-0.374
						c0.179-0.104,1.406-0.755,1.581-1.436c0.065-0.252-1.523-0.97-1.799-0.845c-0.422,0.192-1.776,0.615-2.021,0.725
						c0.519,0.036,2.14-0.15,2.2-0.103c0.11,0.085,0.074,0.265-0.009,0.377c-0.089,0.119-0.215,0.205-0.342,0.283
						c-0.689,0.419-1.477,0.642-2.267,0.775c-0.279,0.047-0.557,0.12-0.842,0.116c-0.113-0.002-0.908-0.081-1.095-0.727
						c-0.194,0.223-0.246,0.646-0.247,0.942C332.688,216.776,332.719,217.089,332.849,217.364z"/>
					<path fill="#FFC89F" d="M341.289,216.282c-0.665,0.263-1.544,0.352-1.726-0.473c-0.788-3.581,0.11-4.434,0.26-8.064
						c0.024-0.603,1.997-6.744,1.08-12.121l-7.075,0.493c0.154,4.142,0.998,7.179,2.043,9.47c-1.805,5.156,1.085,9.186,1.583,10.896
						c0.029,0.249-0.603,1.008-0.039,1.573c0.218,0.217,6.459-0.818,5.522-1.754C342.684,216.049,341.863,216.054,341.289,216.282z"
						/>
					<path opacity="0.2" fill="#FFC89F" d="M339.249,205.761c0.571,3.33-1.808,7.042,0.286,10.086
						c0.021,0.031,0.043,0.06,0.065,0.087c-0.015-0.04-0.027-0.081-0.037-0.125c-0.788-3.581,0.11-4.434,0.26-8.064
						c0.024-0.603,1.997-6.744,1.08-12.121l-7.075,0.493c0.142,3.803,0.864,6.673,1.791,8.892
						C336.979,205.565,338.988,204.63,339.249,205.761z"/>
				</g>
			</g>
		</g>
	</g>
	<path fill="#0F304A" d="M330.542,203.195c0.97,1.254,2.713,1.473,4.135,1.587c2.188,0.176,4.348-0.015,6.464-0.479
		c0.312-0.204,0.576-0.491,0.745-0.905c0.221-0.542,0.221-1.188,0.194-1.798c-0.089-1.966-0.406-3.907-0.939-5.731
		c-0.245-0.843-0.556-1.692-1.093-2.24c-0.803-0.819-1.918-0.787-2.939-0.719c-1.412,0.095-2.824,0.176-4.236,0.284
		c-0.861,0.066-2.026-0.032-2.504,1.152c-0.432,1.069-0.394,2.697-0.513,3.858c-0.095,0.919-0.193,1.861-0.205,2.795
		C329.838,201.756,330.085,202.603,330.542,203.195z"/>
	<path opacity="0.3" fill="#0F304A" d="M342.08,201.601c-0.089-1.966-0.406-3.907-0.939-5.731c-0.245-0.843-0.556-1.692-1.093-2.24
		c-0.803-0.819-1.918-0.787-2.939-0.719c-1.412,0.095-2.824,0.176-4.236,0.284c-0.861,0.066-2.026-0.032-2.504,1.152
		c-0.432,1.069-0.394,2.697-0.513,3.858c-0.093,0.903-0.189,1.829-0.204,2.748c3.305,2.555,7.85,0.636,11.691,1.001
		c0.58,1.015,0.104,1.785-0.667,2.446c0.155-0.031,0.31-0.063,0.465-0.097c0.312-0.204,0.576-0.491,0.745-0.905
		C342.106,202.856,342.106,202.211,342.08,201.601z"/>
	<g>
		<path fill="#FFC89F" d="M342.895,175.584l2.859,0.259l1.17,0.723c0.106,0.08,0.658,0.43,0.637,0.801
			c-0.014,0.247-0.248,1.631-0.703,1.463c-0.303-0.11-2.651-1.365-2.651-1.365c-0.168-0.068-0.714-0.079-0.803-0.184l-0.596-0.706
			L342.895,175.584z"/>
		<g>
			<g>
				<g>
					<g enable-background="new    ">
						<g enable-background="new    ">
							<g>
								<path fill="#C8CCD6" d="M350.764,183.35l-0.163,0.074c-0.135,0.064-0.272,0.114-0.414,0.15l0.162-0.076
									C350.491,183.464,350.629,183.413,350.764,183.35L350.764,183.35z"/>
								<path fill="#C8CCD6" d="M350.349,183.498l-0.162,0.076c-0.792,0.195-1.704-0.056-2.595-0.65l0.164-0.074
									C348.644,183.444,349.557,183.693,350.349,183.498L350.349,183.498z"/>
								<path fill="#C8CCD6" d="M347.756,182.849l-0.164,0.074c-0.407-0.272-0.813-0.62-1.197-1.031l0.163-0.075
									C346.943,182.229,347.348,182.577,347.756,182.849L347.756,182.849z"/>
								<path fill="#C8CCD6" d="M346.558,181.817l-0.163,0.075c-0.645-0.688-1.235-1.557-1.705-2.557
									c-0.127-0.27-0.242-0.543-0.343-0.814l0.163-0.075c0.101,0.272,0.215,0.544,0.343,0.815
									C345.322,180.262,345.912,181.129,346.558,181.817L346.558,181.817z"/>
								<path fill="#C8CCD6" d="M344.51,178.447l-0.163,0.075c-0.48-1.284-0.666-2.55-0.575-3.623
									c0.109-1.302,0.627-2.322,1.525-2.751l0.164-0.073c-0.9,0.428-1.418,1.448-1.527,2.749
									C343.843,175.897,344.029,177.164,344.51,178.447L344.51,178.447z"/>
							</g>
						</g>
						<g>
							<path fill="#FFFFFF" d="M352.292,180.604c-0.11,1.301-0.63,2.319-1.528,2.746c-1.798,0.865-4.444-0.966-5.911-4.087
								c-0.73-1.555-1.028-3.137-0.919-4.439c0.109-1.3,0.627-2.321,1.527-2.749c1.801-0.86,4.447,0.97,5.91,4.086
								C352.104,177.719,352.401,179.301,352.292,180.604z"/>
						</g>
						<g>
							<path fill="#BFBFBF" d="M349.884,181.482c-1.202,0.576-2.972-0.646-3.953-2.734c-0.487-1.039-0.687-2.097-0.612-2.968
								c0.017-0.196,0.047-0.381,0.093-0.556c0.149-0.6,0.462-1.06,0.928-1.282c1.204-0.576,2.974,0.651,3.951,2.733
								c0.489,1.041,0.69,2.1,0.615,2.97c-0.026,0.327-0.092,0.626-0.195,0.889l-0.001,0.002
								C350.537,180.972,350.261,181.305,349.884,181.482z"/>
						</g>
						<g>
							<path fill="#F3F5F9" d="M349.884,181.482c-1.202,0.576-2.972-0.646-3.953-2.734c-0.487-1.039-0.687-2.097-0.612-2.968
								c0.017-0.196,0.047-0.381,0.093-0.556c0.171-0.436,0.447-0.771,0.823-0.95c1.204-0.575,2.974,0.651,3.951,2.733
								c0.489,1.041,0.689,2.1,0.615,2.97c-0.016,0.195-0.047,0.382-0.091,0.556l-0.001,0.002
								C350.537,180.972,350.261,181.305,349.884,181.482z"/>
						</g>
					</g>
				</g>
			</g>
		</g>
		<path fill="#0B90AA" d="M343.365,175.5c0.268,0.143,0.477,1.927-0.192,2.024l-4.635,0.817c-1.211,0.17-2.328-0.667-2.498-1.871
			l0,0c-0.17-1.204,0.673-2.317,1.883-2.488C337.923,173.982,342.099,174.82,343.365,175.5z"/>
		<path fill="#E5E6EA" d="M338.716,175.584c-0.25-0.388-2.382-1.142-4.173-1.142c-1.794,0-2.685-1.595-2.685,0.197
			c0,1.791,0.262,9.969,2.053,9.969C335.703,184.608,339.681,177.092,338.716,175.584z"/>
		<g>
			<path fill="#FFC89F" d="M334.088,173.091c-0.001,1.052,3.654,0.265,3.654,0.265v-1.996l-3.58-0.237l-0.074,1.448
				C334.096,172.579,334.088,173.083,334.088,173.091z"/>
			<path fill="#4A0C00" d="M333.613,169.619c1.753,1.837,2.44,1.81,4.188,0.576c1.749-1.229,2.476-2.979,2.058-5.57
				c-0.444-2.751-3.725-3.45-5.81-2.177C330.059,164.878,331.438,167.338,333.613,169.619z"/>
			<path fill="#FFC89F" d="M334.37,167.849c0.104,0.781-0.197,1.876,0.173,2.402c1.706,2.422,4.397,1.36,4.397,1.36
				c1.198-0.954,1.518-2.991,1.518-5.489s-2.101-2.942-3.479-1.877C335.605,165.306,334.04,165.382,334.37,167.849z"/>
			<path opacity="0.2" fill="#FFC89F" d="M338.996,163.768c0.915,1.63,1.056,3.55,0.793,5.39c-0.128,1.022-0.557,2.129-1.4,2.603
				c0.341-0.066,0.552-0.15,0.552-0.15c1.198-0.954,1.518-2.991,1.518-5.489C340.458,164.734,339.809,163.981,338.996,163.768z"/>
			<path fill="#4A0C00" d="M331.546,165.325c0.15-1.082,2.747-1.187,2.747-1.187c0.189-0.148,1.331-4.31,5.664-0.923
				c0.9,0.705,0.386,3.426-0.543,4.861c-0.111,0.171-0.288,0.259-0.502,0.292c-0.824,0.126-2.192-0.569-2.383-0.416
				c-0.222,0.178,0.775,0.364,0.074,1.588c-0.093,0.166-0.186,0.33-0.274,0.483c-0.372,0.667-0.818,2.039-2.551,0.897
				C333.651,170.814,330.759,167.808,331.546,165.325z"/>
			<path fill="#FFC89F" d="M336.262,168.531c0.332,0.524,0.685,0.795,1.038,0.664c0.352-0.133,0.448-0.564,0.229-1.145
				c-0.221-0.581-0.851-0.894-1.201-0.761C335.979,167.421,335.882,167.939,336.262,168.531z"/>
		</g>
		<path fill="#0DADCC" d="M338.78,174.124c0.011-0.229-0.839-1.812-1.038-1.654c-0.747,0.591-2.63,0.446-3.157,0.171
			c-0.471-0.246-0.459-0.821-0.459-0.821s-3.177,2.616,0.957,3.423c0.832,0.162,1.762,0.103,2.519-0.262
			C338.249,174.669,339.379,174.719,338.78,174.124z"/>
		<path fill="#0DADCC" d="M329.265,200.225c0.45,0.614,1.055,0.959,1.786,1.146c1.093,0.279,2.267,0.282,3.388,0.368
			c1.378,0.105,2.786,0.145,4.148-0.131c1.444-0.293,2.709-0.975,3.606-2.161c0.004-0.005,0.009-0.011,0.013-0.016
			c1.015-5.223-1.056-10.343-1.346-13.848c-0.124-1.496,0.547-2.633,0.762-3.213c1.873-5.041,0.648-6.662-3.058-8.638
			c0,0-1.131,1.288-3.646,0.735c-2.563-0.563-1.465-2.083-1.465-2.083c-3.706-0.478-3.447,3.352-2.963,5.52
			c0.183,0.817,1.367,4.539,0.697,7.63c-0.336,1.552-0.487,1.405-1.096,3.407c-1.38,4.535-1.313,8.33-0.963,11.089
			C329.174,200.096,329.218,200.162,329.265,200.225z"/>
		<path fill="#0B90AA" d="M332.018,187.49c1.237-0.761,2.854-0.38,4.282-0.952c-0.762-0.666-1.808-0.571-2.76-0.666
			c-2.094-0.19-1.808-2.474-1.142-3.807c0.761-1.618,2.379-2.664,2.569-4.567c0.185-1.047,0.05-2.055-0.119-3.049
			c-2.469-0.576-1.395-2.066-1.395-2.066c-3.706-0.478-3.447,3.352-2.963,5.52c0.183,0.817,1.367,4.539,0.697,7.63
			c-0.336,1.552-0.487,1.405-1.096,3.406c-0.113,0.371-0.215,0.736-0.31,1.096C330.303,189.053,331.019,188.182,332.018,187.49z"/>
		<path fill="#0B90AA" d="M342.193,199.447c0.004-0.005,0.009-0.011,0.013-0.016c1.015-5.223-1.056-10.343-1.346-13.848
			c-0.124-1.496,0.547-2.633,0.762-3.213c1.464-3.939,1.036-5.791-0.99-7.354c-1.277,0.066-2.66,0.472-2.81,1.817
			c-0.19,1.142-0.285,2.188,0.285,3.235c2.95,5.709,3.141,12.085,3.141,18.27c-0.096,0.476-0.381,0.856-0.666,1.237
			c-0.498,0.773-1.379,1.323-1.938,2.02C340.064,201.296,341.308,200.617,342.193,199.447z"/>
		<g>
			<path fill="#FFC89F" d="M348.966,180.084c-0.029,0.188-0.204,0.316-0.395,0.287l0,0c-0.187-0.03-0.315-0.206-0.284-0.393
				l0.29-1.863c0.029-0.188,0.205-0.316,0.393-0.287l0,0c0.188,0.029,0.317,0.205,0.288,0.393L348.966,180.084z"/>
			<path fill="#FFC89F" d="M348.383,180.52l0.508-1.75l0.758-1.23c0.083-0.112,0.45-0.69,0.838-0.669
				c0.26,0.013,1.714,0.259,1.538,0.737c-0.116,0.317-1.331,2.494-1.331,2.494c-0.002,0.006-0.439,0.192-0.943,0.981l-0.087,0.78
				L348.383,180.52z"/>
			<path fill="#0DADCC" d="M348.347,179.271c-0.016,0.017-2.264,2.558-3.031,2.558c-0.662,0-3.432-5.886-3.432-5.886
				c-0.73-1.033-2.155-1.282-3.181-0.556c-1.027,0.726-0.769,2.851-0.038,3.884l4.72,6.592c0.614,0.867,1.716,1.182,2.662,0.831
				c0.392-0.12,0.78-0.329,1.041-0.685c0.979-1.34,3.44-5.509,3.511-5.634C349.546,179.348,349.557,179.455,348.347,179.271z"/>
			<path opacity="0.6" fill="#EBF1F5" d="M345.725,181.688c-0.159,0.088-0.3,0.142-0.409,0.142c-0.052,0-0.117-0.037-0.193-0.104
				c0.067,0.622,0.122,1.216,0.122,1.864C345.494,182.989,345.613,182.337,345.725,181.688z"/>
			<path opacity="0.6" fill="#EBF1F5" d="M345.815,185.968c-0.19,0.19-0.762,0.19-1.047,0c-2.379-2.474-4.169-4.213-6.186-7.898
				c-0.189-0.952-0.189-1.808,0.286-2.665c0.056-0.074,0.123-0.152,0.199-0.228c-0.126,0.058-0.248,0.127-0.365,0.21
				c-1.027,0.726-0.769,2.851-0.038,3.884l4.72,6.592c0.614,0.867,1.716,1.182,2.662,0.831c0.392-0.12,0.78-0.329,1.041-0.685
				c0.84-1.15,2.773-4.385,3.348-5.357C348.956,182.476,347.495,184.288,345.815,185.968z"/>
		</g>
		<path fill="#5F1D0F" d="M332.972,164.187c-0.397-0.85-1.778,0.07-2.398,0.887c-0.919,1.208-1.29,2.808-1.504,4.278
			c-0.204,1.411-0.209,2.865,0.01,4.276c0.156,1.013,0.634,1.934,0.632,2.986c-0.001,0.554,0.07,1.096-0.174,1.604
			c-0.45,0.938-1.185,1.608-2.265,1.729c0.331-0.121,0.686,0.144,1.015,0.245c0.568,0.173,1.088,0.24,1.673,0.282
			c0.606,0.043,1.21,0.216,1.813,0.017c0.857-0.283,1.58-1.236,2.09-1.931c0.777-1.06,0.888-2.3,0.853-3.573
			c-0.025-0.912-0.12-2.126-0.691-2.851c-0.626-0.792-0.95-1.898-1.175-2.868c-0.106-0.463-0.257-0.951-0.288-1.427
			c-0.019-0.293,0.019-0.586-0.015-0.878C332.447,166.098,333.412,165.129,332.972,164.187z"/>
		<path opacity="0.2" fill="#5F1D0F" d="M327.272,179.946c0.068-0.008,0.137-0.018,0.203-0.03
			C327.407,179.914,327.339,179.922,327.272,179.946z"/>
		<path opacity="0.3" fill="#5F1D0F" d="M334.715,174.985c-0.025-0.912-0.12-2.126-0.691-2.851c-0.626-0.792-0.95-1.898-1.175-2.868
			c-0.106-0.463-0.257-0.951-0.288-1.427c-0.019-0.293,0.019-0.586-0.015-0.878c-0.099-0.864,0.866-1.833,0.426-2.775
			c-0.005-0.009-0.01-0.016-0.015-0.025c-0.289,0.191-0.464,0.709-0.464,0.967c-0.381,1.903-0.666,3.711,0,5.519
			c0.571,1.808,1.713,3.426,1.428,5.424c-0.353,1.975-1.751,3.687-3.574,4.441c0.477,0.06,0.951,0.133,1.426-0.023
			c0.857-0.283,1.58-1.236,2.09-1.931C334.64,177.499,334.75,176.259,334.715,174.985z"/>
		<path opacity="0.2" fill="#5F1D0F" d="M330.305,177.594c0.285-2.855-0.571-5.614-0.476-8.469c0.082-1.725,0.59-4.727,2.504-5.27
			c-0.576,0.069-1.341,0.667-1.76,1.218c-0.919,1.208-1.29,2.808-1.504,4.278c-0.204,1.411-0.209,2.865,0.01,4.276
			c0.156,1.013,0.634,1.934,0.632,2.986c-0.001,0.554,0.07,1.096-0.174,1.604c-0.422,0.878-1.092,1.521-2.062,1.699
			c0.271,0.01,0.549,0.194,0.812,0.274c0.158,0.048,0.312,0.087,0.464,0.121C329.578,179.629,330.174,178.732,330.305,177.594z"/>
	</g>
	<path fill="#EBF1F5" d="M337.035,218.529c0.005,0.016,0.01,0.032,0.016,0.047c0.109,0.303,0.354,0.571,0.669,0.638
		c0.126,0.027,0.257,0.021,0.386,0.013c0.138-0.007,0.276-0.016,0.409-0.051c0.139-0.037,0.271-0.11,0.399-0.171
		c0.142-0.066,0.245-0.195,0.368-0.287c0.35-0.261,0.804-0.328,1.238-0.359c0.435-0.031,0.883-0.038,1.284-0.207
		c0.19-0.08,1.493-0.564,1.757-1.216c0.097-0.242,0.058-0.541-0.047-0.779c-0.122-0.277-0.435-0.431-0.736-0.452
		c-0.303-0.021-0.601,0.069-0.89,0.157c-0.443,0.135-0.771,0.27-1.214,0.404c-0.132,0.04-0.26,0.094-0.518,0.17
		c0.509,0.104,1.094-0.03,1.612-0.004c0.077,0.004,0.16,0.015,0.215,0.07c0.098,0.1,0.038,0.273-0.059,0.373
		c-0.104,0.106-0.24,0.175-0.376,0.235c-0.738,0.325-1.549,0.442-2.35,0.471c-0.282,0.01-1.713,0.303-1.866-0.756
		c-0.221,0.195-0.301,0.505-0.341,0.797C336.952,217.924,336.943,218.239,337.035,218.529z"/>
</g>
</svg>
