<?xml version="1.0" encoding="utf-8"?>
<!-- Generator: Adobe Illustrator 16.0.0, SVG Export Plug-In . SVG Version: 6.00 Build 0)  -->
<!DOCTYPE svg PUBLIC "-//W3C//DTD SVG 1.1//EN" "http://www.w3.org/Graphics/SVG/1.1/DTD/svg11.dtd">
<svg version="1.1" id="Layer_1" xmlns="http://www.w3.org/2000/svg" xmlns:xlink="http://www.w3.org/1999/xlink" x="0px" y="0px"
	 width="450px" height="450px" viewBox="0 0 450 450" enable-background="new 0 0 450 450" xml:space="preserve">
<g>
	<g>
		<path fill="#F9F8F8" d="M300.832,210.91c2.557-4.451,4.775-7.6,4.473-9.036c-0.119-0.566,0.786-2.099-1.439-1.6
			c-2.269,0.508-4.386,4.662-5.568,7.018c-0.252,0.501-0.833,2.255-1.415,4.115c1.062,0.325,2.112,0.683,3.147,1.078
			C300.394,211.75,300.692,211.154,300.832,210.91z"/>
		<path fill="#E1E4EA" d="M305.305,201.875c-0.119-0.566,0.786-2.099-1.439-1.601c-0.479,0.107-0.95,0.384-1.408,0.765
			c-1.694,2.211-1.147,5.039-0.346,7.691C304.077,205.427,305.556,203.063,305.305,201.875z"/>
		<g>
			<path fill="#1D0D08" d="M312.621,198.118c0.574,1.052,1.016,2.201,0.485,3.274c-0.316,0.64-0.958,1.207-1.282,1.845
				c-0.319,0.628-0.315,1.298-0.22,1.949c0.023,0.162,0.05,0.334-0.063,0.482c-0.172,0.228-0.602,0.325-0.988,0.399
				c-0.616,0.119-1.233,0.238-1.851,0.357c-0.223,0.043-0.463,0.086-0.681,0.041c-0.251-0.051-0.405-0.204-0.511-0.354
				c-0.628-0.894-1.005-2.324-0.66-3.286c0.944-2.633,0.505-2.208,0.146-4.881c-0.116-0.863-0.862-6.342,0.261-6.914
				c1.682-0.855,3.402,0.985,3.833,1.434c0.783,0.814,0.651,1.973,0.668,2.867C311.78,196.458,312.05,197.074,312.621,198.118z"/>
			<g>
				<g>
					<path fill="#1C1C1C" d="M304.487,242.977c0,0,2.654-0.453,2.095,2.758c-0.146,0.836-1.729,0.83-1.729,0.83
						s-0.498-0.145-0.84,0.027c-0.431,0.219-0.62,0.465-0.758,0.559c-1.419,0.994-3.328,0.303-3.845-0.418
						c-0.742-1.033,0.797-1.705,2.55-2.467C303.79,243.473,304.487,242.977,304.487,242.977z"/>
					<path fill="#E1E4EA" d="M308.533,226.645c-0.208,0.864-0.431,1.727-0.689,2.578c-0.354,1.172-0.803,2.381-0.699,3.625
						c0.103,1.234,0.418,2.377,0.442,3.633c0.039,2.043-0.116,5.412-1.009,7.289c-0.58,1.219-2.24,1.148-3.12,0.068
						c-0.338-0.416-1.197-9.32-1.537-17.363l3.932-9.417L308.533,226.645z"/>
					<path opacity="0.6" fill="#E6E6E6" d="M306.729,232.172c-0.082-0.83-0.497-1.99-1.492-2.156
						c-1.133-0.268-2.212-0.535-3.195-1.016c-0.045-0.844-0.086-1.689-0.121-2.525l3.932-9.417l2.681,9.587
						c-0.208,0.864-0.431,1.727-0.689,2.578c-0.354,1.172-0.803,2.381-0.699,3.625c0.103,1.234,0.418,2.377,0.442,3.633
						c0.039,2.043-0.116,5.412-1.009,7.289c-0.218,0.457-0.586,0.732-1.009,0.842c0.184-0.262,0.351-0.537,0.497-0.83
						C307.891,240.133,306.896,236.068,306.729,232.172z"/>
					<path fill="#1C1C1C" d="M309.602,244.893c0,0,2.312-1.246,2.795,1.896c0.126,0.816-1.34,1.305-1.34,1.305
						s-0.505,0.021-0.767,0.287c-0.33,0.336-0.429,0.623-0.526,0.752c-1.001,1.359-2.98,1.316-3.683,0.811
						c-1.007-0.723,0.205-1.822,1.587-3.072C309.112,245.568,309.602,244.893,309.602,244.893z"/>
					<path fill="#F9F8F8" d="M313.806,227.194c-0.559,2.778-1.211,5.261-1.186,5.591c0.051,0.682,0.015,1.697,0.146,2.373
						c0.749,3.816-0.269,10.391-0.97,10.947c-1.076,0.854-2.866,0.703-2.941-0.592c-0.166-2.834-0.971-6.848-1.184-9.678
						c-0.223-2.955-0.668-5.859-0.861-8.821L313.806,227.194z"/>
					<path opacity="0.5" fill="#E6E6E6" d="M313.806,227.194c-0.559,2.778-1.211,5.261-1.186,5.591
						c0.051,0.682,0.015,1.697,0.146,2.373c0.749,3.816-0.269,10.391-0.97,10.947c-0.184,0.146-0.389,0.262-0.602,0.348
						c1.596-4.484,1.579-9.33,1.008-14.117c-0.166-0.828,0.664-2.072,0.166-2.32c-1.463-0.924-3.426,0.01-5.291,0.016
						c-0.106-1.002-0.202-2.006-0.268-3.017L313.806,227.194z"/>
				</g>
				<g>
					<path fill="#133C66" d="M304.109,208.558l5.526,0.142l-0.057-8.504c-0.886-0.37-2.295-0.508-3.28-0.261
						C304.142,200.475,304.109,208.558,304.109,208.558z"/>
					<path fill="#E6E6E6" d="M314.162,228.102c-0.531,1.229-4.868,1.689-8.31,1.346c-0.324-0.033-0.64-5.205-0.944-5.251
						c-0.277-0.042-0.545,5.042-0.799,4.987c-1.382-0.297-2.386-0.768-2.535-1.418c-0.135-2.757,0.115-4.939,0.578-10.741
						c0.345-4.313,0.49-7.242,0.426-7.783c-0.139-1.175-0.748-3.463-0.562-4.651c0.108-0.691,1.155-3.718,1.235-3.864
						c0.16-0.288,0.467-0.502,0.842-0.56l2.013-0.261c0,0,1.611,3.466,2.342,2.289c0.798-1.287,1.248-1.996,1.248-1.996
						s2.225,1.094,4.126,2.177c0.274,0.156-2.883,7.131-0.67,15.386C314.555,222.992,314.384,225.902,314.162,228.102z"/>
					<path fill="#F9F8F8" d="M302.265,215.577c2.899,1.911,7.299,1.686,10.501,0.477c-1.401-7.487,1.313-13.533,1.057-13.678
						c-0.972-0.554-2.028-1.11-2.83-1.521c-0.23-0.119-0.439-0.225-0.619-0.316c-0.418-0.211-0.678-0.339-0.678-0.339
						s-0.448,0.708-1.247,1.995c-0.73,1.178-2.342-2.289-2.342-2.289l-2.013,0.261c-0.375,0.057-0.682,0.272-0.841,0.56
						c-0.081,0.145-1.128,3.173-1.236,3.864c-0.187,1.188,0.423,3.476,0.562,4.651C302.635,209.72,302.528,212.063,302.265,215.577z
						"/>
					<path fill="#E1E4EA" d="M313.822,202.376c-0.354-0.202-0.721-0.404-1.081-0.6c-0.285,0.174-0.503,0.39-0.503,0.39
						c-1.914,4.922-3.828,9.843-8.203,13.398c-0.119,0.239-0.182,0.528-0.174,0.803c1.368,0.5,2.91,0.675,4.443,0.601
						c1.129-0.649,2.155-1.676,3.387-2.497c0.257,0.578,0.421,1.171,0.525,1.776c0.186-0.062,0.37-0.125,0.549-0.192
						C311.364,208.567,314.078,202.521,313.822,202.376z"/>
					<ellipse fill="#343848" cx="305.259" cy="203.603" rx="0.347" ry="0.364"/>
					<ellipse fill="#343848" cx="304.913" cy="206.269" rx="0.347" ry="0.364"/>
					<ellipse fill="#343848" cx="304.749" cy="208.811" rx="0.347" ry="0.364"/>
					<ellipse fill="#343848" cx="304.457" cy="211.686" rx="0.347" ry="0.364"/>
					<ellipse fill="#343848" cx="304.203" cy="214.731" rx="0.347" ry="0.364"/>
					<path fill="#343848" d="M305.431,210.809c0.141-1.618,0.28-3.236,0.421-4.854c0.062-0.707,0.12-1.416,0.237-2.116
						c0.108-0.65,0.249-1.43,0.637-1.977c0.031-0.043,0.097-0.017,0.086,0.036c-0.079,0.383-0.237,0.749-0.327,1.131
						c-0.079,0.336-0.141,0.678-0.192,1.02c-0.111,0.738-0.162,1.485-0.224,2.229c-0.132,1.591-0.263,3.182-0.395,4.773
						c-0.131,1.579-0.303,3.167-0.214,4.753s0.479,3.136,0.598,4.719c0.015,0.194-0.289,0.194-0.303,0
						c-0.114-1.61-0.508-3.187-0.583-4.801C305.096,214.083,305.289,212.44,305.431,210.809z"/>
					<path fill="#2E2E2E" d="M312.766,216.054c0.104,0.562,0.232,1.132,0.387,1.708c1.402,5.23,1.231,8.14,1.01,10.339
						c-0.531,1.229-4.868,1.689-8.31,1.346c-0.324-0.033-1.489-0.209-1.743-0.264c-1.382-0.297-2.386-0.768-2.535-1.418
						c-0.135-2.757,0.115-4.939,0.578-10.741c0.04-0.502,0.077-0.984,0.112-1.447C305.164,217.488,309.564,217.263,312.766,216.054z
						"/>
					<path fill="#1C1C1C" d="M302.265,215.577c2.899,1.911,7.3,1.686,10.501,0.477c0.104,0.562,0.232,1.132,0.387,1.708
						c1.402,5.23,1.231,8.14,1.01,10.339c-0.277,0.641-1.591,1.072-3.272,1.291c0.72-0.547,1.476-1.031,2.226-1.452
						c1.244-3.234-0.082-6.551-0.497-9.868c-0.083-0.498-0.663-1.078-1.244-0.747c-1.493,0.664-3.068,0.664-4.562,1.576
						c-0.58,0.332-1.409,0.166-2.073,0.581c-0.248,0.083-0.497,0.415-0.663,0.415c-0.703,0-1.448-0.145-2.121-0.444
						c0.061-0.734,0.126-1.539,0.197-2.428C302.192,216.522,302.229,216.04,302.265,215.577z"/>
					<g>
						<path fill="#FFC6A6" d="M309.177,197.572c-0.134,2.874-0.2,3.029-0.12,3.607c-0.378,0.614-1.267,1.25-2.034,1.305
							c-0.515,0.037-0.972-0.31-1.193-0.645c-0.078-0.117-0.094-0.642-0.078-1.142c0.033-1.743-0.165-1.278-0.143-2.168
							L309.177,197.572z"/>
					</g>
					<path fill="#FFFFFF" d="M306.5,201.575c-0.116-0.3-0.462-0.45-0.617-0.732c-0.067-0.124-0.094-0.265-0.12-0.403
						c-0.033-0.177-0.065-0.355-0.099-0.532c-0.215,0.201-0.265,0.52-0.281,0.813c-0.014,0.248-0.012,0.496,0.006,0.744
						c0.019,0.274,0.068,0.57,0.271,0.756c0.14,0.128,0.729,0.492,0.887,0.284C306.626,202.398,306.564,201.74,306.5,201.575z"/>
					<path fill="#FFFFFF" d="M309.355,202.187c-0.776,0.358-1.762,0.55-2.744,0.403c-0.084-0.32,0.223-0.672,0.465-0.893
						c0.249-0.228,0.801-0.154,1.441-0.362c0.578-0.184,0.484-1.524,0.565-1.936C310.103,200.508,310.728,201.564,309.355,202.187z"
						/>
				</g>
			</g>
			<g>
				<g>
					<path fill="#FFD6BF" d="M303.459,194.513c0.047,2.404,0.311,4.85,1.687,5.741c0.442,0.288,1.025,0.277,1.606,0.125
						c0.115-0.029,0.231-0.065,0.346-0.105c0.646-0.227,1.254-0.591,1.622-0.873c0.541-0.415,1.015-2.624,1.118-3.375
						c0.326-2.381-1.447-2.419-3.023-3.41C305.234,191.625,303.412,192.112,303.459,194.513z"/>
				</g>
				<path fill="#260905" d="M304.656,191.786c0.637,0.081,1.271,0.178,1.903,0.288c0.606,0.106,1.225,0.214,1.842,0.336
					c0.824,0.24,1.643,0.499,2.47,0.728c0.157,0.459,0.255,0.941,0.262,1.461c0.011,0.812-0.152,1.558-0.47,2.302
					c-0.064,0.149-1.046-1.088-1.119-0.935c0,0-1.173,1.72-1.628,1.279c-0.687-0.666,0.168-2.08-0.233-2.812
					c-0.274-0.502-0.925-0.4-1.358-0.47c-0.806-0.131-2.219,0.411-2.807-0.225C303.6,192.794,303.323,192.875,304.656,191.786z"/>
				
					<ellipse transform="matrix(-0.7556 -0.6551 0.6551 -0.7556 413.4391 549.7939)" fill="#FFD6BF" cx="309.297" cy="197.76" rx="0.78" ry="1.303"/>
				
					<ellipse transform="matrix(-0.7557 -0.6549 0.6549 -0.7557 413.5216 549.7689)" fill="#FFC6A6" cx="309.297" cy="197.76" rx="0.385" ry="0.643"/>
			</g>
			<path fill="#F9F8F8" d="M303.929,190.413c0.012,0.249,0.118,0.478,0.275,0.675c0.14,0.173,0.317,0.322,0.505,0.44
				c0.7,0.438,1.481,0.585,2.237,0.885c0.649,0.257,1.303,0.506,1.942,0.784c0.354,0.154,0.705,0.319,1.062,0.469l0.176,0.677
				c0.041,0.37,0.419,0.607,0.774,0.737c0.244,0.089,0.501,0.154,0.761,0.186c0.115,0.117,0.232,0.234,0.354,0.343
				c0.088,0.08,0.179,0.155,0.274,0.225c0.015,0.012,0.029,0.022,0.044,0.033c1.441,1.019,2.605-0.083,2.815-0.519
				c0.313-0.653-0.145-1.376-0.383-1.766c-0.179-0.292-0.361-0.586-0.596-0.836c-0.41-0.438-0.98-0.751-1.233-1.292
				c-0.076-0.162-0.117-0.336-0.133-0.513c0.005-0.041,0.011-0.142,0.005-0.28c-0.026-0.668-0.331-2.207-2.382-1.966
				c-0.495,0.058-1.354,0.434-1.768,0.013c-0.499-0.508-0.754-0.984-1.604-1.115c-0.922-0.142-2.036,0.263-2.563,0.992
				C304.091,189.138,303.917,190.158,303.929,190.413z"/>
			<g>
				<path fill="#F9F8F8" d="M303.458,193.102c1.27-0.229,2.795,0.062,4.068,0.577c1.923,0.78,3.293,1.43,4.309,3.224
					c0.036-0.036,0.07-0.076,0.098-0.122c0.167-0.276,0.282-0.603,0.357-0.946c0.026-0.119,0.048-0.239,0.064-0.36
					c0.056-0.391,0.066-0.787,0.05-1.138c-0.035-0.716-0.204-1.056-0.69-1.583c-1.068-1.156-1.727-1.245-3.983-1.875
					c-1.285-0.359-2.519-0.825-3.526,0.209c-0.092,0.094-0.182,0.201-0.27,0.321c-0.323,0.441-0.434,0.724-0.47,1.517
					C303.462,192.982,303.46,193.041,303.458,193.102z"/>
			</g>
			<path opacity="0.5" fill="#E6E6E6" d="M303.458,193.102c1.27-0.229,2.795,0.062,4.068,0.577c1.923,0.78,3.293,1.43,4.309,3.224
				c0.213-0.207,0.387-0.758,0.455-1.068c0.015,0.012,0.029,0.022,0.044,0.033c1.441,1.019,2.605-0.083,2.815-0.519
				c0.313-0.653-0.145-1.376-0.383-1.766c-0.179-0.292-0.361-0.586-0.596-0.836c-0.41-0.438-0.98-0.751-1.233-1.292
				c-0.169-0.362-0.119-0.584-0.128-0.793c-0.146,0.874,0.189,1.181,0.557,1.553c2.479,2.512,1.48,4.585-0.473,3.468
				c-0.72-0.411-0.818-0.114-0.96,0.023c-0.128,0.121-0.336,0.122-0.498,0.052c-0.163-0.069-0.291-0.196-0.421-0.316
				c-1.868-1.732-4.869-3.206-7.55-2.515C303.462,192.982,303.46,193.041,303.458,193.102z"/>
		</g>
	</g>
	<path fill="#835A2F" d="M297.03,222.436c0.859-0.026,1.709-0.204,2.568-0.242c0.334-0.014,0.671-0.008,1.003-0.047
		c0.574-0.068,1.124-0.273,1.693-0.375c0.232-0.041,0.477-0.068,0.679-0.191c0.223-0.135,0.367-0.375,0.431-0.628
		c0.063-0.253,0.053-0.519,0.019-0.777c-0.009-0.07-0.023-0.146-0.079-0.191c-0.041-0.033-0.096-0.041-0.148-0.046
		c-0.691-0.066-1.373,0.161-2.048,0.324c-1.088,0.264-2.207,0.366-3.315,0.526c-0.48,0.07-0.964,0.144-1.44,0.242
		c-0.313,0.064-0.662,0.197-0.808,0.511C295.228,222.313,296.575,222.449,297.03,222.436z"/>
	<g>
		<g>
			<g>
				<g>
					<path fill="#61830E" d="M300.147,219.988c0.421,0.042,0.909,0.227,0.921,0.755c0.015,0.595-1.244,0.874-1.647,0.934
						c-0.674,0.101-1.35,0.187-2.023,0.289c-0.435,0.067-0.908,0.127-1.328-0.037c-0.354-0.138-0.49-0.559-0.328-0.891
						c0.176-0.361,0.678-0.5,1.032-0.589c0.459-0.115,0.933-0.191,1.396-0.286C298.819,220.031,299.482,219.922,300.147,219.988z"/>
					<path fill="#7FA812" d="M297.747,220.468c-0.37,0.235-0.863,0.148-1.174,0.49c0.328,0.039,0.595-0.082,0.917-0.151
						c-0.313,0.287-0.811,0.092-1.121,0.433c0.71,0.076,1.4-0.282,2.106-0.315c-0.69,0.358-1.448,0.448-2.141,0.751
						c0.384,0.091,0.811-0.092,1.193-0.055c-0.315,0.232-0.757,0.089-1.016,0.374c0.104-0.005,0.221,0.002,0.338,0.016
						c-0.321,0.032-0.648,0.03-0.948-0.087c-0.355-0.139-0.49-0.56-0.329-0.891c0.177-0.362,0.678-0.501,1.032-0.59
						c0.175-0.044,0.353-0.082,0.53-0.118c-0.185,0.108-0.368,0.216-0.521,0.36C296.995,220.667,297.369,220.541,297.747,220.468z"
						/>
					<path fill="#557015" d="M299.569,221.541c0.202-0.335,0.81-0.146,0.952-0.588c-0.592,0.136-1.174,0.489-1.83,0.411
						c0.473-0.349,1.124-0.378,1.652-0.729c-0.496-0.14-1.023,0.21-1.518,0.125c0.424-0.237,0.858-0.257,1.285-0.44
						c-0.273-0.042-0.6-0.027-0.871-0.014c0.155-0.114,0.32-0.229,0.492-0.336c0.129,0.001,0.26,0.007,0.389,0.02
						c0.422,0.042,0.91,0.227,0.922,0.755c0.007,0.287-0.281,0.5-0.627,0.65C300.142,221.437,299.795,221.594,299.569,221.541z"/>
					<circle opacity="0.4" fill="#435714" cx="300.005" cy="221.25" r="0.107"/>
					<circle opacity="0.4" fill="#435714" cx="299.344" cy="221.455" r="0.103"/>
					<circle opacity="0.4" fill="#435714" cx="298.598" cy="221.606" r="0.093"/>
					<circle opacity="0.4" fill="#435714" cx="297.806" cy="221.719" r="0.099"/>
					<circle opacity="0.4" fill="#435714" cx="297.119" cy="221.776" r="0.084"/>
					<path opacity="0.4" fill="#435714" d="M296.395,221.804c0.005,0.102-0.154,0.11-0.159,0.007
						C296.23,221.708,296.39,221.701,296.395,221.804z"/>
					<circle opacity="0.4" fill="#435714" cx="296.103" cy="221.44" r="0.087"/>
					<path opacity="0.4" fill="#435714" d="M296.868,221.306c0.003,0.001,0.005,0.001,0.007,0.002
						c0.078,0.021,0.083,0.126,0.008,0.155c-0.003,0-0.005,0.001-0.007,0.002c-0.034,0.013-0.074-0.004-0.095-0.034
						c0-0.001-0.001-0.002-0.001-0.002c-0.016-0.022-0.017-0.054-0.004-0.078c0-0.001,0.001-0.001,0.001-0.002
						C296.795,221.316,296.833,221.296,296.868,221.306z"/>
					<path opacity="0.4" fill="#435714" d="M297.646,221.236c0.032,0.025,0.035,0.084,0.006,0.112
						c-0.04,0.038-0.093,0.042-0.135,0.006c-0.032-0.028-0.035-0.081-0.006-0.111C297.55,221.203,297.603,221.201,297.646,221.236z"
						/>
					<path opacity="0.4" fill="#435714" d="M298.354,221.116c0.001,0.001,0.001,0.003,0.002,0.004
						c0.009,0.021,0.004,0.051-0.006,0.07c-0.016,0.031-0.044,0.043-0.076,0.049c-0.002,0-0.004,0-0.006,0
						c-0.074,0.012-0.119-0.081-0.089-0.139c0.016-0.03,0.046-0.049,0.08-0.051C298.304,221.048,298.336,221.077,298.354,221.116z"
						/>
					<path opacity="0.4" fill="#435714" d="M298.985,221.006c0.003,0.001,0.006,0.002,0.008,0.003
						c0.047,0.019,0.051,0.099,0.006,0.122c-0.002,0.001-0.005,0.002-0.008,0.003c-0.048,0.024-0.111,0.002-0.114-0.059
						C298.874,221.015,298.935,220.987,298.985,221.006z"/>
					<circle opacity="0.4" fill="#435714" cx="299.778" cy="220.853" r="0.088"/>
					<circle opacity="0.4" fill="#435714" cx="300.248" cy="220.514" r="0.077"/>
					<circle opacity="0.4" fill="#435714" cx="299.661" cy="220.407" r="0.088"/>
					<circle opacity="0.4" fill="#435714" cx="298.871" cy="220.603" r="0.087"/>
					<path opacity="0.4" fill="#435714" d="M298.369,220.643c0.001,0,0.001,0.001,0.002,0.002c0.014,0.029,0.02,0.057,0.004,0.086
						c-0.019,0.034-0.058,0.052-0.095,0.044c-0.037-0.009-0.064-0.042-0.066-0.08c-0.002-0.041,0.023-0.069,0.059-0.085
						c0.002,0,0.002-0.001,0.003-0.001C298.306,220.596,298.355,220.612,298.369,220.643z"/>
					<path opacity="0.4" fill="#435714" d="M297.69,220.81l-0.001,0.001c-0.016,0.058-0.081,0.079-0.128,0.041
						c-0.018-0.014-0.028-0.038-0.027-0.06c0.002-0.042,0.027-0.074,0.072-0.079h0.003
						C297.659,220.709,297.704,220.762,297.69,220.81z"/>
					<circle opacity="0.4" fill="#435714" cx="296.818" cy="220.977" r="0.085"/>
					<path opacity="0.4" fill="#435714" d="M296.121,221.094c0.004,0.089-0.134,0.095-0.138,0.006
						C295.979,221.012,296.117,221.005,296.121,221.094z"/>
					<path opacity="0.4" fill="#435714" d="M296.615,220.532c0.03,0.007,0.054,0.015,0.072,0.042
						c0.011,0.016,0.012,0.037,0.002,0.054c-0.016,0.029-0.038,0.039-0.068,0.049c-0.046,0.015-0.096-0.02-0.099-0.068
						C296.521,220.561,296.567,220.521,296.615,220.532z"/>
					<path opacity="0.4" fill="#435714" d="M297.507,220.389c0.048,0.014,0.077,0.078,0.037,0.118
						c-0.038,0.036-0.097,0.053-0.146,0.027c-0.051-0.028-0.055-0.101-0.006-0.134C297.425,220.379,297.471,220.378,297.507,220.389
						z"/>
					<path opacity="0.4" fill="#435714" d="M298.302,220.237c0.038,0.007,0.072,0.035,0.074,0.076s-0.029,0.072-0.066,0.082
						c-0.052,0.014-0.104-0.019-0.107-0.074C298.199,220.266,298.25,220.229,298.302,220.237z"/>
					<circle opacity="0.4" fill="#435714" cx="298.963" cy="220.227" r="0.091"/>
					<path opacity="0.4" fill="#435714" d="M299.878,220.173c-0.034,0.022-0.081,0.012-0.103-0.022
						c-0.025-0.039-0.008-0.098,0.039-0.111C299.894,220.018,299.95,220.126,299.878,220.173z"/>
				</g>
			</g>
		</g>
		<g>
			<path fill="#FFCEB3" d="M303.063,217.924c-3.036,1.857-3.21,1.918-3.513,2.299c-0.46,0.58-0.292,1.248,0.161,1.431
				c0.313,0.126,0.671-0.02,1.003,0.04c0.456,0.081,0.424,0.247,1.088-0.235c0.968-0.701,1.379-0.415,2.322-1.861
				c1.171-1.795,1.363-1.895,0.933-2.189c-0.364-0.25-0.737-0.567-0.909-0.351L303.063,217.924z"/>
			<path fill="#FFFFFF" d="M303.856,219.892c-0.725,0.408-1.896-0.793-1.507-1.435s5.041-6.086,5.696-6.786
				c3.513-3.743,3.263-9.332,4.725-9.461c0.576-0.051,2.169-0.235,2.141,2.046c-0.067,5.403-1.438,7.06-2.664,8.785
				C311.518,214.066,304.58,219.483,303.856,219.892z"/>
		</g>
		<g>
			<g>
				<g>
					<g>
						<g>
							<g>
								<path fill="#272A3B" d="M294.663,215.736l0.521-0.47l2.371,2.626l-0.521,0.47c0,0-0.972-0.925-1.26-1.245
									C295.47,216.78,294.663,215.736,294.663,215.736z"/>
							</g>
							<g>
								<path fill="#272A3B" d="M296.909,218.34c-0.038-0.042-0.039-0.102-0.004-0.134l0.524-0.474
									c0.037-0.033,0.096-0.024,0.133,0.016l0,0c0.038,0.042,0.039,0.102,0.004,0.134l-0.525,0.474
									C297.006,218.389,296.946,218.381,296.909,218.34L296.909,218.34z"/>
							</g>
							<g>
								<path fill="#272A3B" d="M294.674,215.863c-0.037-0.042-0.039-0.101-0.004-0.133l0.525-0.474
									c0.035-0.032,0.096-0.024,0.132,0.017l0,0c0.037,0.042,0.039,0.102,0.003,0.134l-0.524,0.474
									C294.77,215.913,294.711,215.905,294.674,215.863L294.674,215.863z"/>
							</g>
							<g>
								
									<ellipse transform="matrix(-0.7407 0.6719 -0.6719 -0.7407 658.5566 176.5953)" fill="#FFFFFF" cx="295.198" cy="215.39" rx="0.074" ry="0.062"/>
							</g>
							<g>
								
									<ellipse transform="matrix(-0.7363 0.6766 -0.6766 -0.7363 663.8551 177.0364)" fill="#FFFFFF" cx="297.433" cy="217.866" rx="0.074" ry="0.063"/>
							</g>
						</g>
						<g>
							<path fill="#8389A1" d="M300.903,221.589c-0.57,0.484-1.426,0.431-1.931-0.129l-2.411-2.669l1-0.904L300.903,221.589z"/>
						</g>
						<g opacity="0.5">
							<path fill="#FFFFFF" d="M296.763,218.609l-0.201,0.182l2.411,2.669c0.505,0.56,1.36,0.613,1.931,0.129l-0.167-0.186
								c-0.554,0.308-1.266,0.206-1.707-0.285L296.763,218.609z"/>
						</g>
					</g>
				</g>
			</g>
		</g>
		<path fill="#FFD6BF" d="M297.4,218.052c-0.37,0.596-1.057,0.766-1.225,0.725c-0.26-0.063-0.189-0.456-0.331-0.634
			c-0.084-0.106-0.236-0.153-0.296-0.276c-0.066-0.136,0.013-0.172-0.158-0.363c-0.091-0.101-0.173-0.21-0.254-0.319
			c-0.041-0.055-0.083-0.11-0.108-0.173c-0.099-0.247,0.069-0.518,0.255-0.709c0.378-0.391,0.258-0.36,0.405-0.72
			c0.141-0.343,0.394-0.443,0.486-0.529c0.351-0.324,0.043-1.021,1.548-0.499c0.347,0.12,0.56,0.321,0.376,0.65
			c-0.082,0.146-0.263,0.36-0.278,0.526c-0.017,0.169,0.06,0.375,0.057,0.553C297.867,216.878,297.611,217.713,297.4,218.052z"/>
		<path fill="#F9F8F8" d="M296.882,211.407c-0.722,2.308-0.991,3.63-1.091,4.08c-0.18,0.811,1.694,1.159,2.194,0.599
			c0.354-0.396,1.164-1.829,2.044-3.602C298.994,212.089,297.943,211.731,296.882,211.407z"/>
	</g>
</g>
</svg>
