<?xml version="1.0" encoding="utf-8"?>
<!-- Generator: Adobe Illustrator 16.0.0, SVG Export Plug-In . SVG Version: 6.00 Build 0)  -->
<!DOCTYPE svg PUBLIC "-//W3C//DTD SVG 1.1//EN" "http://www.w3.org/Graphics/SVG/1.1/DTD/svg11.dtd">
<svg version="1.1" id="Layer_1" xmlns="http://www.w3.org/2000/svg" xmlns:xlink="http://www.w3.org/1999/xlink" x="0px" y="0px"
	 width="450px" height="450px" viewBox="0 0 450 450" enable-background="new 0 0 450 450" xml:space="preserve">
<g>
	<path fill="#CC963E" d="M301.173,276.113c-0.064,0.537-0.219,1.045,0.189,1.504c0.267,0.299,0.641,0.434,1.024,0.506
		c0.3,0.056,0.604,0.076,0.906,0.097c0.497-0.054,0.991-0.185,1.494-0.342c0.003-0.001,0.006-0.001,0.008-0.003
		c-0.101-0.469,3.381-2.682,3.262-3.146c-0.276-1.071-4.256-0.395-4.972-1.238c-0.643-0.758-1.535-1.334-1.938-2.242
		c-0.185-0.415-0.193-0.828-0.272-1.266c-0.048-0.26-0.188-0.352-0.454-0.258c-0.619,0.219-0.727,1.276-0.724,1.825
		c0.003,0.437,0.091,0.872,0.272,1.269c0.4,0.875,1.206,1.622,1.215,2.578C301.207,275.627,301.202,275.866,301.173,276.113z"/>
	<path fill="#FFD6BF" d="M296.798,290.672c0.563-0.656,1.817-1.327,1.805-1.329l3.134-4.509l0.202-5.352h2.927
		c-0.328,6.154,0.317,3.984-0.247,6.223c-0.412,1.638-4.675,4.311-4.767,4.692c-0.134,0.556-0.606,2.196-0.863,2.171
		c-0.272-0.028-0.129-0.48-0.399-0.527c-0.239-0.041-0.431,0.189-0.564,0.393c-0.188,0.285-0.235,0.318-0.424,0.604
		c-0.171,0.26-0.373,0.543-0.679,0.605c-0.328,0.067-0.78-0.145-0.93-0.764C295.86,292.336,295.696,291.959,296.798,290.672z"/>
	<path fill="#272727" d="M301.5,281.165c0.089-2.241,0.135-4.446,1.893-4.774l1.355,0.43v-0.146c0.037,0.061,0.07,0.121,0.099,0.182
		c0.508,1.039,0.178,7.477,0.063,7.553c-0.611,0.428-1.167,0.533-1.862,0.568c-0.429,0.02-1.139-0.034-1.413-0.415
		C301.396,284.229,301.464,282.079,301.5,281.165z"/>
	<path fill="#F9F8F8" d="M305.803,282.571c-0.006,0.993-0.171,1.749-0.211,1.775c-0.649,0.459-1.253,0.594-2.012,0.665
		c-0.469,0.041-1.627,0.043-1.945-0.323c-0.166-0.192-0.363-1.071-0.354-1.921c0.53,0.235,1.299,0.373,1.895,0.383
		c0.365,0.005,0.923-0.063,1.281-0.129c0.19-0.035,0.478,0.998,0.478,0.998s0.34-1.197,0.454-1.238
		C305.56,282.719,305.645,282.648,305.803,282.571z"/>
	<g>
		<g>
			<g>
				<path fill="#FFD6BF" d="M308.271,318.771l0.352-0.795c0.28-0.531,0.549-1.016,0.762-1.592c0.064-3.084-0.45-5.877-0.908-9.383
					c-0.085-0.597-0.541-0.946-0.645-1.533c-0.096-0.512,0.021-3.113,0-3.688l4.326,0.551c-0.07,0.604,0.072,1.158-0.015,1.742
					c-0.035,1.416,0.457,4.794,0.355,6.748c-0.083,1.645-0.595,3.453-1.121,5.148c-0.078,0.595,0.13,0.949,0.256,1.347
					c-0.024,1.077-1.237,2.276-1.678,2.546c-0.189,0.117-0.457,0.232-0.745,0.305c-0.457,0.119-0.964,0.137-1.287-0.098
					C307.896,320.051,308.294,318.791,308.271,318.771z"/>
				<path fill="#FFC6A6" d="M312.018,306.25c-0.394-1.968-2.687-1.766-4.219-2.303c0.013-0.874,0.045-1.842,0.033-2.166l4.326,0.551
					c-0.07,0.604,0.072,1.158-0.015,1.742c-0.035,1.416,0.457,4.794,0.355,6.748c-0.083,1.645-0.595,3.453-1.121,5.148
					c-0.078,0.595,0.13,0.949,0.256,1.347c-0.023,1.053-1.185,2.224-1.646,2.526C311.134,315.429,312.779,311.074,312.018,306.25z"
					/>
				<g>
					<path fill="#050505" d="M311.739,320.113c-0.118,0.055-0.239,0.08-0.361,0.109c-0.03-0.339-0.048-0.789-0.129-1.721l0.84-0.47
						c-0.067,0.805-0.14,1.354-0.146,1.955C311.878,320.033,311.813,320.078,311.739,320.113z"/>
					<path fill="#161A1F" d="M308.522,318.203c0.008,0.006-0.274,0.721-0.301,0.887c-0.067,0.428,0.288,0.73,0.748,0.682
						c1.143-0.124,2.947-1.965,2.504-2.951c0.104,0.044,0.537,0.451,0.591,0.783c0.184,1.139-0.523,1.04-0.785,1.29
						c-0.34,0.326-0.314,1.141-0.596,1.56c-0.431,0.641-2.462,1.507-3.695,0.934c-0.12-0.066-0.26-0.126-0.298-0.243
						C306.493,320.547,308.325,318.602,308.522,318.203z"/>
				</g>
			</g>
			<g>
				<g>
					<g>
						<path fill="#FFD6BF" d="M312.73,302.699l4.733,0.33c-0.065,1.223-0.227,3.852-0.227,3.98c0.035,6.771-0.917,6.628-1.374,9.811
							c0,0,0.398,2.102,0.368,2.542c-0.022,0.331-0.085,0.706-0.163,1.076l-1.599,0.841l-1.015-0.772c0,0-0.133-0.986-0.077-1.31
							c0.113-0.664,0.394-2.189,0.461-2.666c0.21-1.463-0.252-2.7-0.411-4.15C312.537,304.393,312.602,303.586,312.73,302.699z"/>
					</g>
				</g>
			</g>
			<g>
				<g>
					<g>
						<path fill="#FFC6A6" d="M315.765,316.207c0.321-3.104,1.927-6.209,0.964-9.207c-0.497-1.59-2.376-1.889-4.014-1.838
							c-0.104-1.537-0.053-1.988,0.016-2.463l4.733,0.33c-0.065,1.223-0.227,3.852-0.227,3.98c0.035,6.771-0.917,6.628-1.374,9.811
							c0,0,0.398,2.102,0.368,2.542c-0.022,0.331-0.085,0.706-0.163,1.076l-0.07,0.037
							C315.851,319.078,315.695,317.665,315.765,316.207z"/>
					</g>
				</g>
			</g>
			<path fill="#161A1F" d="M316.2,318.889c0.269,0.971-0.311,3.838-1.695,3.838c-1.287,0-1.227-2.006-1.227-2.611
				c0-0.214,0.1-0.918,0.1-0.918s0.048,0.487,0.307,1.035c0.29,0.613,1.214,0.738,1.778,0.266
				C315.727,320.277,316.044,319.627,316.2,318.889z"/>
		</g>
		<g>
			<g>
				<path fill="#F9F8F8" d="M316.49,286.683c0.815,0.455,1.658,0.94,2.245,1.685c0.142,0.182,0.269,0.414,0.32,0.639
					c0.034,0.148,0.08,0.406-0.003,0.545c-0.117,0.196-0.448,0.188-0.637,0.141c-0.284-0.072-0.554-0.266-0.79-0.432
					c-0.147-0.104-0.301-0.199-0.423-0.334c-0.083-0.092-0.143-0.197-0.225-0.29c-0.224-0.254-0.46-0.532-0.603-0.841
					c-0.033-0.074-0.134-0.281-0.058-0.355c0.189-0.184,0.702,0.435,0.804,0.545c0.168,0.186,0.927,1.335,1.204,0.998
					c0.07-0.084,0.148-0.348,0.122-0.457c-0.029-0.126-0.244-0.275-0.323-0.349c-0.149-0.14-0.3-0.278-0.455-0.413
					c-0.267-0.23-0.555-0.438-0.842-0.641C316.691,287.025,316.48,286.908,316.49,286.683z"/>
				<path fill="#FFD6BF" d="M307.124,276.648c0.372-0.563,0.316-1.045,0.316-1.045l-0.117-0.533l-0.173-0.184l-0.578-1.432
					l-2.59,2.38l1.244,1.593L307.124,276.648z"/>
				<g>
					<g>
						<path fill="#1B1B1B" d="M303.069,282.669c0.914,2.513,3.025,2.627,3.634,3.678c0.199,0.342,0.463,1.313,0.675,2.661
							c0.013,0.076,0.024,0.156,0.037,0.236c0.005,0.036,0.01,0.072,0.015,0.113c0.182,1.261,0.045,4.402-0.135,7.271
							c-0.158,2.512-0.35,4.814-0.387,5.466c-0.173,2.975,11.494,3.401,11.728,1.441c0.266-2.224,1.799-9.703-0.613-14.168
							c-0.62-1.148-1.149-1.946-1.582-2.631c-0.119-0.188-0.23-0.367-0.334-0.543c-0.208-0.351-0.387-0.688-0.536-1.049
							c-1.05-2.527-2.253-9.609-3.049-9.538c-2.062,0.184-4.544-0.331-4.544-0.331s-0.869,3.203-2.074,3.258
							c-2.017,0.092-1.906-2.363-1.906-2.363s-0.564,0.166-0.748,0.221c-0.299,0.091-0.619,0.407-0.776,0.908
							C302.13,278.395,302.55,281.233,303.069,282.669z"/>
					</g>
				</g>
				<g>
					<g>
						<path fill="#131313" d="M318.334,295.438c-0.428-2.998-0.643-7.066-3.318-8.779c-1.8,2.398-4.532,4.051-7.501,4.608
							c0.003-0.804-0.021-1.47-0.085-1.909c-0.005-0.041-0.01-0.077-0.015-0.113c-0.013-0.08-0.024-0.16-0.037-0.236
							c0-0.004-0.001-0.008-0.002-0.012c0.817-0.96,2.248-1.608,3.035-2.658c0.429-0.643,0.643-1.393,0.536-2.035
							c-0.102-2.943-1.26-5.982,0.262-8.662c0.438,0.012,0.885,0.004,1.313-0.034c0.796-0.071,1.999,7.011,3.049,9.538
							c0.149,0.361,0.328,0.698,0.536,1.049c0.104,0.176,0.215,0.355,0.334,0.543c0.433,0.685,0.962,1.482,1.582,2.631
							c2.412,4.465,0.879,11.944,0.613,14.168c-0.055,0.459-0.735,0.786-1.743,0.981
							C318.029,301.641,318.637,298.539,318.334,295.438z"/>
						<path fill="#131313" d="M315.872,287.729c0.535,4.068,2.783,9.422-1.499,12.205c-2.142,1.285-5.139,1.178-6.531-0.963
							c-0.194-0.312-0.414-0.608-0.643-0.898c0.032-0.466,0.064-0.951,0.096-1.444c0.094-1.507,0.177-3.089,0.207-4.434
							c2.739-0.356,4.813-2.71,7.085-4.466C315.016,287.408,315.765,287.301,315.872,287.729z"/>
					</g>
				</g>
				<path fill="#F9F8F8" d="M307.295,296.628c0.002,0.033,0.004,0.064,0.007,0.098c0,0.005,0,0.005,0,0.01
					c0.06,0.717,0.543,1.319,1.04,1.849c1.257,1.342,4.274,1.201,5.709,0.297c2.109-1.338,2.246-3.881,2.123-6.128
					c-0.063-1.169-0.196-2.338-0.425-3.488c-0.114-0.589-0.241-1.155-0.319-1.735l1.011-0.793c-0.119-0.188-0.23-0.367-0.334-0.543
					l-1.129,0.888c-0.22,0.147-0.448,0.283-0.681,0.401c-1.36,0.694-2.958,1.115-4.493,1.006c-0.922-0.069-1.754-0.348-2.53-0.79
					c0.005,0.036,0.01,0.073,0.014,0.112c0.051,0.376,0.079,0.777,0.091,1.197C307.442,291.201,307.079,293.949,307.295,296.628z"/>
			</g>
			<g>
				<path fill="#FFC6A6" d="M306.861,272.883c0.656,3.039,0.893,3.229,1.137,3.812c-0.376,1.247-2.383,2.302-3.19,1.583
					c-0.114-0.101-0.814-0.603-0.936-1.129c-0.073-0.3,0.123-0.773,0.077-0.965c-0.231-0.978-0.102-0.521-0.288-1.305
					L306.861,272.883z"/>
				<path fill="#FFD6BF" d="M300.732,271.215c0.63,2.258,1.474,4.502,2.989,5.008c0.487,0.164,1.035,0.012,1.546-0.273
					c0.103-0.055,0.203-0.117,0.302-0.183c0.554-0.37,1.039-0.862,1.318-1.218c0.409-0.523,0.319-2.724,0.234-3.459
					c-0.272-2.326-1.955-1.932-3.684-2.482C301.706,268.057,300.104,268.96,300.732,271.215z"/>
				<path fill="#EEB04A" d="M303.223,270.396c-0.836,0.076-1.935,0.288-2.636-0.318c-0.133-0.115-0.256-0.26-0.363-0.422
					c0.024-1,0.392-1.151,1.466-2.268c0.726-0.753,1.33-1.404,2.35-0.544c0.177,0.15,0.498,0.156,0.349,0.252
					c-0.377,2.131,2.871,2.979,1.406,4.227C305.371,270.513,304.028,270.322,303.223,270.396z"/>
			</g>
		</g>
		<path fill="#F9F8F8" d="M303.947,276.174c0.337,1.943,1.765,2.363,1.798,2.362l-1.296,1.229c0,0-1.513-1.509-1.366-2.965
			C303.25,276.48,303.534,276.239,303.947,276.174z"/>
		<path fill="#F9F8F8" d="M305.803,278.543l1.52,1.088c0,0,2.112-1.607,1.184-4.111c-0.171-0.461-0.955-0.729-0.955-0.729
			s0.419,1.564-0.781,3.002C306.714,277.859,306.09,278.479,305.803,278.543z"/>
		<circle fill="#272727" cx="305.745" cy="278.678" r="0.422"/>
		<path fill="#EEB04A" d="M305.356,266.186c0.496,0.131,1.458,0.652,1.543,0.725c1.266,0.725,1.946,2.162,2.364,3.563
			c0.166,0.557,0.305,1.139,0.225,1.713c-0.069,0.502-0.303,0.984-0.269,1.489c0.037,0.533,0.367,0.999,0.728,1.394
			c0.213,0.234,1.228,0.898,1.329,1.188c-0.003,0.083-0.402-0.13-0.878,0.616c-0.516,0.809-1.449,0.361-2.388,0.008
			c-0.646-0.243-0.833-0.704-0.883-1.232c0.007-0.032,0.013-0.064,0.02-0.098c0.068-0.352-0.056-1.344-0.154-1.699
			c-0.242-0.87-0.969-0.834-1.491-1.481c-0.531-0.661-0.752-1.007-0.688-1.815c0.016-0.114,0.036-0.228,0.061-0.34
			c-0.392-0.678-0.847-1.229-1.345-1.707C302.639,267.651,303.646,265.738,305.356,266.186z"/>
		<path fill="#FFD6BF" d="M307.241,273.029c-0.146,0.581-0.388,0.938-0.751,0.924c-0.364-0.014-0.587-0.378-0.561-0.98
			c0.021-0.602,0.505-1.082,0.87-1.068C307.161,271.92,307.407,272.365,307.241,273.029z"/>
		<path fill="#FFC6A6" d="M306.96,272.984c-0.082,0.322-0.216,0.521-0.418,0.514s-0.326-0.211-0.312-0.545
			c0.012-0.335,0.28-0.602,0.484-0.594C306.915,272.367,307.052,272.615,306.96,272.984z"/>
	</g>
	<g>
		<g enable-background="new    ">
			<g enable-background="new    ">
				<g enable-background="new    ">
					<path fill="#E1E4EA" d="M305.378,293.174l-4.918-2.857c0.05-0.029,0.098-0.045,0.142-0.049l4.917,2.857
						C305.475,293.129,305.428,293.146,305.378,293.174L305.378,293.174z"/>
					<path fill="#C8D1E3" d="M305.519,293.125l-4.917-2.857c0.047-0.006,0.09,0.004,0.125,0.023l4.918,2.858
						C305.608,293.129,305.566,293.12,305.519,293.125L305.519,293.125z"/>
				</g>
			</g>
			<g>
				<polygon fill="#E1E4EA" points="295.849,298.676 290.932,295.818 300.46,290.316 305.378,293.174 				"/>
			</g>
			<g enable-background="new    ">
				<g>
					<path fill="#F9F8F8" d="M295.584,299.582l-4.917-2.857c-0.069-0.041-0.112-0.127-0.113-0.248c0-0.104,0.031-0.219,0.085-0.326
						l4.917,2.857c-0.053,0.107-0.085,0.223-0.084,0.327C295.472,299.455,295.515,299.541,295.584,299.582L295.584,299.582z"/>
					<path fill="#F5F9FA" d="M295.556,299.008l-4.917-2.857c0.036-0.072,0.082-0.142,0.135-0.2l4.917,2.857
						C295.638,298.867,295.592,298.936,295.556,299.008L295.556,299.008z"/>
					<path fill="#E1E4EA" d="M295.69,298.808l-4.917-2.857c0.048-0.054,0.102-0.1,0.158-0.132l4.917,2.857
						C295.792,298.709,295.738,298.754,295.69,298.808L295.69,298.808z"/>
				</g>
			</g>
			<g>
				<path fill="#E1E4EA" d="M305.378,293.174c0.209-0.12,0.379-0.018,0.379,0.223c0.001,0.24-0.168,0.537-0.377,0.658l-9.528,5.502
					c-0.21,0.121-0.38,0.019-0.38-0.222c-0.001-0.241,0.168-0.538,0.377-0.659L305.378,293.174z"/>
			</g>
		</g>
	</g>
	<g>
		<g enable-background="new    ">
			<g enable-background="new    ">
				<g enable-background="new    ">
					<path fill="#E1E4EA" d="M305.378,292.178l-4.918-2.858c0.05-0.028,0.098-0.045,0.142-0.05l4.917,2.857
						C305.475,292.133,305.428,292.148,305.378,292.178L305.378,292.178z"/>
					<path fill="#C8D1E3" d="M305.519,292.127l-4.917-2.857c0.047-0.005,0.09,0.004,0.125,0.024l4.918,2.858
						C305.608,292.131,305.566,292.123,305.519,292.127L305.519,292.127z"/>
				</g>
			</g>
			<g>
				<polygon fill="#E1E4EA" points="295.849,297.678 290.932,294.82 300.46,289.319 305.378,292.178 				"/>
			</g>
			<g enable-background="new    ">
				<g>
					<path fill="#F9F8F8" d="M295.584,298.584l-4.917-2.857c-0.069-0.04-0.112-0.126-0.113-0.247c0-0.104,0.031-0.22,0.085-0.327
						l4.917,2.858c-0.053,0.106-0.085,0.222-0.084,0.327C295.472,298.458,295.515,298.544,295.584,298.584L295.584,298.584z"/>
					<path fill="#F5F9FA" d="M295.556,298.011l-4.917-2.858c0.036-0.072,0.082-0.141,0.135-0.199l4.917,2.857
						C295.638,297.869,295.592,297.938,295.556,298.011L295.556,298.011z"/>
					<path fill="#E1E4EA" d="M295.69,297.811l-4.917-2.857c0.048-0.055,0.102-0.1,0.158-0.133l4.917,2.857
						C295.792,297.711,295.738,297.757,295.69,297.811L295.69,297.811z"/>
				</g>
			</g>
			<g>
				<path fill="#E1E4EA" d="M305.378,292.178c0.209-0.121,0.379-0.02,0.379,0.221c0.001,0.241-0.168,0.539-0.377,0.659l-9.528,5.501
					c-0.21,0.121-0.38,0.02-0.38-0.221c-0.001-0.241,0.168-0.539,0.377-0.66L305.378,292.178z"/>
			</g>
		</g>
	</g>
	<g>
		<g enable-background="new    ">
			<g enable-background="new    ">
				<g enable-background="new    ">
					<path fill="#E1E4EA" d="M305.378,291.174l-4.918-2.857c0.05-0.029,0.098-0.045,0.142-0.05l4.917,2.857
						C305.475,291.129,305.428,291.145,305.378,291.174L305.378,291.174z"/>
					<path fill="#C8D1E3" d="M305.519,291.124l-4.917-2.857c0.047-0.005,0.09,0.003,0.125,0.024l4.918,2.857
						C305.608,291.128,305.566,291.119,305.519,291.124L305.519,291.124z"/>
				</g>
			</g>
			<g>
				<polygon fill="#E1E4EA" points="295.849,296.675 290.932,293.817 300.46,288.316 305.378,291.174 				"/>
			</g>
			<g enable-background="new    ">
				<g>
					<path fill="#F9F8F8" d="M295.584,297.581l-4.917-2.858c-0.069-0.039-0.112-0.125-0.113-0.246c0-0.105,0.031-0.221,0.085-0.327
						l4.917,2.858c-0.053,0.106-0.085,0.222-0.084,0.326C295.472,297.455,295.515,297.541,295.584,297.581L295.584,297.581z"/>
					<path fill="#F5F9FA" d="M295.556,297.008l-4.917-2.858c0.036-0.073,0.082-0.142,0.135-0.2l4.917,2.857
						C295.638,296.865,295.592,296.935,295.556,297.008L295.556,297.008z"/>
					<path fill="#E1E4EA" d="M295.69,296.807l-4.917-2.857c0.048-0.054,0.102-0.1,0.158-0.132l4.917,2.857
						C295.792,296.707,295.738,296.754,295.69,296.807L295.69,296.807z"/>
				</g>
			</g>
			<g>
				<path fill="#E1E4EA" d="M305.378,291.174c0.209-0.121,0.379-0.02,0.379,0.222c0.001,0.241-0.168,0.538-0.377,0.659l-9.528,5.501
					c-0.21,0.121-0.38,0.019-0.38-0.222c-0.001-0.24,0.168-0.538,0.377-0.659L305.378,291.174z"/>
			</g>
		</g>
	</g>
	<g>
		<g enable-background="new    ">
			<g enable-background="new    ">
				<g enable-background="new    ">
					<path fill="#F9F8F8" d="M305.378,290.158l-4.918-2.857c0.05-0.029,0.098-0.045,0.142-0.051l4.917,2.858
						C305.475,290.113,305.428,290.129,305.378,290.158L305.378,290.158z"/>
					<path fill="#C8D1E3" d="M305.519,290.108l-4.917-2.858c0.047-0.004,0.09,0.004,0.125,0.025l4.918,2.857
						C305.608,290.111,305.566,290.104,305.519,290.108L305.519,290.108z"/>
				</g>
			</g>
			<g>
				<polygon fill="#F9F8F8" points="295.849,295.659 290.932,292.802 300.46,287.301 305.378,290.158 				"/>
			</g>
			<g>
				<g>
					<path fill="#F9F8F8" d="M295.584,296.564l-4.917-2.857c-0.069-0.04-0.112-0.125-0.113-0.246c0-0.105,0.031-0.221,0.085-0.327
						l4.917,2.857c-0.053,0.106-0.085,0.223-0.084,0.327C295.472,296.439,295.515,296.525,295.584,296.564L295.584,296.564z"/>
					<path fill="#F9F8F8" d="M295.556,295.991l-4.917-2.857c0.036-0.073,0.082-0.142,0.135-0.2l4.917,2.857
						C295.638,295.85,295.592,295.919,295.556,295.991L295.556,295.991z"/>
					<path fill="#F9F8F8" d="M295.69,295.791l-4.917-2.857c0.048-0.054,0.102-0.1,0.158-0.132l4.917,2.857
						C295.792,295.691,295.738,295.738,295.69,295.791L295.69,295.791z"/>
				</g>
			</g>
			<g>
				<path fill="#E1E4EA" d="M305.378,290.158c0.209-0.121,0.379-0.02,0.379,0.222c0.001,0.24-0.168,0.538-0.377,0.659l-9.528,5.501
					c-0.21,0.12-0.38,0.019-0.38-0.222c-0.001-0.24,0.168-0.538,0.377-0.659L305.378,290.158z"/>
			</g>
		</g>
	</g>
	<g>
		<path fill="#FFD6BF" d="M302.026,292.867c0.102-0.295,0.407-0.459,0.688-0.596c0.308-0.15,0.164-0.123,0.472-0.273
			c0.219-0.107,0.471-0.268,0.461-0.51c-0.013-0.273-1.019-0.328-1.011-0.602c0.006-0.26,2.506-0.769,3.074-0.83
			c0.313-0.035,5.393-2.774,5.775-4.994c0.105-0.611,0.064-1.488-0.048-2.431l3.676,0.047c0.149,1.474,0.015,2.808-0.188,3.518
			c-0.755,2.653-8.202,5.571-8.202,5.571c-0.195,0.168-1.891,1.862-2.714,2.118C302.703,294.293,301.8,293.529,302.026,292.867z"/>
		<path fill="#FFC6A6" d="M303.816,293.344c3.096-1.838,5.998-3.289,9.191-5.127c1.258-0.774,1.258-2.516,2.031-3.773
			c-1.17,0-2.34,0.502-3.511,0.26c0.045-0.574,0.001-1.301-0.091-2.071l3.676,0.047c0.149,1.474,0.015,2.808-0.188,3.518
			c-0.755,2.653-8.202,5.571-8.202,5.571c-0.195,0.168-1.891,1.862-2.714,2.118c-0.982,0.307-1.737-0.05-1.954-0.526
			C302.675,293.613,303.302,293.672,303.816,293.344z"/>
		<path fill="#272727" d="M315.326,283.564c-0.577,0.547-1.155,0.768-1.896,0.945c-0.457,0.109-1.604,0.276-1.971-0.04
			c-0.32-0.277-0.5-2.432-0.634-3.337c-0.395-2.673-0.258-4.506,1.091-5.332c0.846-0.531,1.563-0.092,1.915,0.359
			C314.573,277.074,315.435,283.466,315.326,283.564z"/>
		<path fill="#1B1B1B" d="M314.266,281.841c0.49-1.666,0.351-5.124-1.728-6.272c0.568-0.072,1.032,0.256,1.293,0.592
			c0.742,0.914,1.604,7.306,1.495,7.404c-0.577,0.547-1.155,0.768-1.896,0.945c-0.37,0.088-1.193,0.215-1.688,0.092
			C312.858,283.821,313.832,282.957,314.266,281.841z"/>
		<path fill="#F9F8F8" d="M315.28,281.777c0.137,0.983,0.082,1.754,0.046,1.787c-0.577,0.547-1.155,0.768-1.896,0.945
			c-0.457,0.109-1.604,0.276-1.971-0.04c-0.192-0.167-0.514-1.009-0.625-1.851c0.559,0.156,1.338,0.183,1.929,0.107
			c0.363-0.047,0.905-0.194,1.25-0.311c0.184-0.063,0.615,0.918,0.615,0.918s0.165-1.232,0.272-1.291
			C315.061,281.957,315.135,281.875,315.28,281.777z"/>
	</g>
</g>
</svg>
