<?xml version="1.0" encoding="utf-8"?>
<!-- Generator: Adobe Illustrator 16.0.0, SVG Export Plug-In . SVG Version: 6.00 Build 0)  -->
<!DOCTYPE svg PUBLIC "-//W3C//DTD SVG 1.1//EN" "http://www.w3.org/Graphics/SVG/1.1/DTD/svg11.dtd">
<svg version="1.1" id="Layer_1" xmlns="http://www.w3.org/2000/svg" xmlns:xlink="http://www.w3.org/1999/xlink" x="0px" y="0px"
	 width="450px" height="450px" viewBox="0 0 450 450" enable-background="new 0 0 450 450" xml:space="preserve">
<g>
	<path opacity="0.2" fill="#505B67" d="M218.084,331.647c-0.509,0.995-0.384,2.405,0.562,3.003c1.713,1.08,4.193-1.251,5.861-0.102
		c0.96,0.661,1.23,2.284,2.389,2.42c0.807,0.095,1.436-0.639,2.133-1.055c1.147-0.685,2.584-0.52,3.916-0.414
		c5.583,0.445,11.276-0.563,16.367-2.897c1.434-0.657,2.905-1.505,3.599-2.921c0.83-1.694,0.271-3.838-0.993-5.238
		s-3.106-2.154-4.954-2.536c-3.331-0.688-6.88-0.278-9.967,1.15c-2.573,1.191-4.799,3.05-7.393,4.195
		c-2.558,1.129-4.897,1.047-7.597,1.234C220.464,328.595,218.767,330.312,218.084,331.647z"/>
	<g>
		<g>
			<path fill="#DE3B33" d="M232.587,329.355c0.175-1.718,1.438-6.476,5.507-9.347c1.729-1.222,9.011-4.26,13.196,3.398
				c0.813,1.486,0.073,4.528-1.972,5.709c0,0-6.646,4.196-9.048,5.224C233.772,337.12,232.379,331.407,232.587,329.355z"/>
			<path fill="#008BB3" d="M232.587,329.355c0.175-1.718,1.438-6.476,5.507-9.347c1.729-1.222,9.011-4.26,13.196,3.398
				c0.813,1.486,0.073,4.528-1.972,5.709c0,0-6.646,4.196-9.048,5.224C233.772,337.12,232.379,331.407,232.587,329.355z"/>
			
				<ellipse transform="matrix(-0.7774 0.629 -0.629 -0.7774 642.6877 417.2641)" fill="#27ACD4" cx="247.514" cy="322.348" rx="1.247" ry="2.166"/>
			<path fill="#1A1A1A" d="M232.718,328.527c0.261,0.682,0.674,1.332,1.269,1.927c1.484,1.59,3.816,2.014,5.83,1.378
				c4.496-1.498,8.615-4.316,11.647-8.009c0.501,1.581-0.276,4.214-2.146,5.293c0,0-6.646,4.196-9.048,5.224
				c-6.498,2.78-7.892-2.933-7.684-4.984C232.61,329.129,232.652,328.848,232.718,328.527z"/>
			<g>
				<g enable-background="new    ">
					<g>
						<g enable-background="new    ">
							<path fill="#666666" d="M249.381,325.616l-0.993-0.641c0.291-0.16,0.576-0.266,0.842-0.323l0.99,0.628
								C249.958,325.345,249.672,325.446,249.381,325.616L249.381,325.616z"/>
							<path fill="#474747" d="M250.22,325.28l-0.99-0.628c0.403-0.086,0.765-0.044,1.063,0.105l0.997,0.641
								C250.988,325.242,250.626,325.193,250.22,325.28L250.22,325.28z"/>
						</g>
					</g>
					<g>
						<defs>
							<path id="SVGID_1_" d="M247.444,332.063l-0.993-0.644c-0.493-0.275-0.797-0.883-0.804-1.731
								c-0.007-1.731,1.229-3.841,2.74-4.712l0.993,0.641c-1.511,0.861-2.74,2.971-2.74,4.702
								C246.645,331.164,246.952,331.771,247.444,332.063z"/>
						</defs>
						<use xlink:href="#SVGID_1_"  overflow="visible" fill="#F9F8F8"/>
						<clipPath id="SVGID_2_">
							<use xlink:href="#SVGID_1_"  overflow="visible"/>
						</clipPath>
						<g clip-path="url(#SVGID_2_)" enable-background="new    ">
							<path fill="#474747" d="M247.444,332.063l-0.993-0.644c-0.493-0.275-0.797-0.883-0.804-1.731c0-0.662,0.176-1.38,0.483-2.071
								l0.997,0.647c-0.302,0.675-0.487,1.389-0.487,2.055C246.645,331.164,246.952,331.771,247.444,332.063L247.444,332.063z"/>
							<path fill="#666666" d="M247.128,328.264l-0.997-0.647c0.237-0.519,0.554-1.027,0.925-1.475l0.993,0.624
								C247.682,327.213,247.367,327.726,247.128,328.264L247.128,328.264z"/>
							<path fill="#666666" d="M248.049,326.766l-0.993-0.624c0.391-0.474,0.849-0.891,1.332-1.166l0.993,0.641
								C248.9,325.895,248.443,326.295,248.049,326.766L248.049,326.766z"/>
						</g>
					</g>
					<g>
						<path fill="#333333" d="M249.382,325.611c1.52-0.867,2.749-0.184,2.756,1.552c0,1.716-1.217,3.829-2.734,4.692
							c-1.518,0.878-2.752,0.177-2.763-1.542C246.641,328.581,247.87,326.472,249.382,325.611z"/>
					</g>
					<g>
						<path fill="#E1E4EA" d="M249.383,326.29c1.192-0.68,2.156-0.143,2.161,1.218c0,1.346-0.954,3.002-2.144,3.68
							c-1.19,0.688-2.158,0.139-2.166-1.209C247.234,328.62,248.198,326.966,249.383,326.29z"/>
					</g>
				</g>
			</g>
		</g>
		<g>
			<path fill="#27ACD4" d="M233.862,327.833l0.427-0.228l0,0c0.214-0.119,0.508-0.099,0.834,0.09
				c0.65,0.375,1.178,1.277,1.178,2.016c0,0.348-0.117,0.597-0.31,0.724l0,0l0,0c-0.029,0.019-0.061,0.035-0.093,0.048l-0.399,0.211
				l-0.122-0.213c-0.082-0.026-0.167-0.064-0.254-0.115c-0.65-0.375-1.178-1.277-1.178-2.015c0-0.114,0.013-0.218,0.036-0.31
				L233.862,327.833z"/>
			<path fill="#0C5E77" d="M233.543,328.562c0,0.737,0.527,1.64,1.179,2.016c0.65,0.375,1.178,0.082,1.178-0.655
				s-0.527-1.64-1.178-2.016C234.07,327.53,233.543,327.824,233.543,328.562z"/>
			<path fill="#1A1A1A" d="M233.784,328.7c0,0.034,0.001,0.067,0.004,0.102c0.034,0.435,0.278,0.92,0.61,1.251
				c0.101,0.1,0.209,0.186,0.323,0.251c0.517,0.299,0.937,0.065,0.937-0.521c0-0.099-0.012-0.2-0.034-0.304
				c-0.093-0.434-0.367-0.887-0.711-1.166c-0.062-0.05-0.126-0.095-0.191-0.133C234.204,327.881,233.784,328.114,233.784,328.7z"/>
		</g>
		<path fill="#1A1A1A" d="M241.072,319.156c0.745,0.214,1.414,0.604,1.982,1.162c0.34,0.334,0.472,0.759,0.494,1.23
			c0.039,0.863-0.72,1.4-1.253,1.983c-1.34,1.465-3.036,3.471-5.23,3.415c-0.938-0.023-1.793-0.553-2.037-1.474
			c-0.257-0.969,0.075-1.902,0.596-2.729c0.256-0.405,1.58-1.633,1.943-1.906C238.539,320.108,239.53,319.217,241.072,319.156z"/>
	</g>
	<path fill="#F9F8F8" d="M229.351,300.247c0.16,0,0.329,0.102,0.479,0.161c0.257,0.102,0.522,0.177,0.783,0.266
		c0.534,0.184,0.96,0.507,1.4,0.844c0.232,0.178,0.445,0.38,0.576,0.649c0.128,0.265,0.391,0.804,0.157,1.064
		c-0.218,0.243-0.745,0.285-1.038,0.244c-0.457-0.063-0.959-0.23-1.324-0.52c-0.423-0.334-0.906-0.724-1.091-1.251
		c-0.104-0.298,0.015-0.429,0.344-0.308c0.45,0.167,0.709,0.599,1.046,0.908c0.26,0.239,0.742,0.476,1.086,0.261
		c0.424-0.266-2.011-2.136-2.521-2.306C229.082,300.205,229.32,300.211,229.351,300.247z"/>
	<path fill="#FFD6BF" d="M215.557,308.29c0.029-0.435,0.109-0.864,0.128-1.299c0.009-0.195,0.419-0.37,0.566-0.432
		c0.232-0.099,0.481-0.151,0.73-0.194c0.144-0.024,0.29,0.188,0.42,0.517c0.359,0.9,0.605,2.664,0.375,2.726
		c-0.15,0.041-0.306-0.07-0.375-0.207c-0.069-0.138-0.076-0.296-0.097-0.447c-0.034-0.237-0.116-0.375-0.251-0.56
		c-0.014,0.014-0.024,0.03-0.038,0.046C216.565,308.256,216.051,308.209,215.557,308.29z"/>
	<path fill="#1B1B1B" d="M215.578,307.224c-0.172-0.108-0.199-0.33-0.215-0.526c-0.125-1.432-0.514-8.708,0.15-13.884
		c0.145-1.131,0.021-2.454,1.385-3.645c0,0,1.188,3.551,1.259,4.137c0.332,2.767-0.133,4.303-0.133,6.793
		c0,4.242-0.292,6.086-0.303,6.405C217.692,307.315,215.738,307.326,215.578,307.224z"/>
	<path fill="#131313" d="M216.186,293.097c-0.314-0.629-0.398-1.296-0.463-1.978c0.149-0.655,0.454-1.321,1.175-1.95
		c0,0,1.188,3.551,1.259,4.137c0.332,2.767-0.133,4.303-0.133,6.793c0,4.242-0.292,6.086-0.303,6.405
		c-0.01,0.277-0.244,0.46-0.554,0.578C217.821,302.369,218.358,297.44,216.186,293.097z"/>
	<g>
		<path fill="#FFD6BF" d="M222.097,328.603c0.065-3.124-0.456-5.951-0.92-9.502c-0.159-1.121-0.522-0.889-0.531-3.206
			c-0.012-1.202-0.113-2.804-0.129-4.758l5.381-0.527c-0.014,0.047-0.027,0.093-0.042,0.139c-0.221,0.737-0.454,1.484-0.672,2.216
			c-0.363,1.232-0.304,2.16-0.454,3.172c-0.035,1.435,0.623,4.854,0.521,6.833c-0.084,1.666-0.602,3.496-1.135,5.213
			c-0.08,0.603,0.131,0.962,0.259,1.364c-0.024,1.091-1.253,2.306-1.698,2.579c-0.508,0.311-1.53,0.592-2.059,0.209
			c-0.027-0.021,0.375-1.296,0.352-1.316C221.623,329.543,221.796,329.417,222.097,328.603z"/>
		<path fill="#FFC6A6" d="M222.783,330.827c0.929-1.855,1.443-4.021,1.547-6.186c0.206-2.371,1.031-6.186-1.34-7.319
			c-0.761-0.38-1.577-0.425-2.326-0.669c-0.011-0.219-0.018-0.469-0.019-0.759c-0.012-1.202-0.113-2.804-0.129-4.758l5.381-0.527
			c-0.014,0.047-0.027,0.093-0.042,0.139c-0.221,0.737-0.454,1.484-0.672,2.216c-0.363,1.232-0.304,2.16-0.454,3.172
			c-0.035,1.435,0.623,4.854,0.521,6.833c-0.084,1.666-0.602,3.496-1.135,5.213c-0.08,0.603,0.131,0.962,0.259,1.364
			c-0.024,1.091-1.253,2.306-1.698,2.579c-0.508,0.311-1.53,0.592-2.059,0.209c-0.008-0.006,0.022-0.126,0.069-0.291
			C221.581,331.967,222.341,331.674,222.783,330.827z"/>
		<g>
			<path fill="#050505" d="M224.481,332.377c-0.12,0.056-0.242,0.081-0.366,0.111c-0.03-0.343-0.049-0.8-0.131-1.743l0.85-0.476
				c-0.067,0.815-0.142,1.372-0.147,1.98C224.622,332.296,224.556,332.342,224.481,332.377z"/>
			<path fill="#161A1F" d="M221.224,330.443c0.008,0.005-0.278,0.729-0.305,0.897c-0.068,0.433,0.292,0.74,0.757,0.689
				c1.158-0.125,2.984-1.989,2.536-2.987c0.104,0.044,0.544,0.457,0.598,0.793c0.187,1.153-0.529,1.053-0.794,1.307
				c-0.345,0.33-0.319,1.154-0.604,1.578c-0.437,0.649-2.493,1.526-3.742,0.946c-0.122-0.068-0.263-0.128-0.302-0.247
				C219.169,332.816,221.024,330.847,221.224,330.443z"/>
		</g>
	</g>
	<g>
		<g>
			<g>
				<path fill="#FFD6BF" d="M229.816,312.238c-0.902,0.224-4.007,0.807-4.188,1.282c-0.122,0.319-0.07,2.902,0.835,11.027
					c0.404,3.671,0.297,3.269-0.323,6.901c-0.056,0.328,0.078,1.326,0.078,1.326l1.028,0.782l1.618-0.851
					c0.219-1.033,0.255-1.227-0.207-3.664c0.463-3.223,1.242-3.663,1.207-10.52C229.863,318.319,229.87,313.046,229.816,312.238z"/>
			</g>
		</g>
	</g>
	<g>
		<g>
			<g>
				<path fill="#FFC6A6" d="M228.041,329.178c-0.328-0.548-0.86-0.921-1.349-1.289c0.02-0.391,0.01-0.794-0.029-1.321
					c0.014,0.011,0.026,0.021,0.038,0.033c0.516,0.618,1.237,1.03,1.752,1.649c0.516-3.299,1.649-6.907,0.413-10
					c-0.353-0.879-1.828-0.484-3.086-0.54c-0.237-2.87-0.23-3.986-0.152-4.189c0.182-0.476,3.286-1.059,4.188-1.282
					c0.054,0.808,0.047,6.081,0.048,6.285c0.035,6.856-0.744,7.297-1.207,10.52c0.462,2.438,0.426,2.631,0.207,3.664l-1.618,0.851
					l-0.913-0.694c0.552-0.225,1.114-0.409,1.605-0.593C228.969,331.961,228.557,330.209,228.041,329.178z"/>
			</g>
		</g>
	</g>
	<path fill="#161A1F" d="M228.998,331.138c0.272,0.982-0.314,3.886-1.717,3.886c-1.303,0-1.242-2.031-1.242-2.644
		c0-0.218,0.101-0.931,0.101-0.931s0.049,0.494,0.312,1.048c0.293,0.622,1.229,0.748,1.8,0.27
		C228.518,332.543,228.84,331.885,228.998,331.138z"/>
	<g>
		<path fill="#CC963E" d="M221.148,288.595c-0.878-0.243-1.716-0.592-2.552-0.98c-1.011-0.472-2.054-0.941-2.82-1.78
			c-0.646-0.708-1.042-1.508-0.953-2.388c0.04-0.394,0.194-1.534,0.519-1.649c0.248-0.087,0.447,0.785,0.491,1.028
			c0.074,0.406,0.082,0.791,0.253,1.178c0.375,0.845,1.206,1.381,1.804,2.087c0.667,0.785,4.372,0.155,4.628,1.153
			C222.571,287.446,221.883,288.01,221.148,288.595z"/>
		<path fill="#FFC6A6" d="M221.07,285.801c0.624,2.893,0.85,3.074,1.082,3.628c-0.215,0.71-0.932,1.577-1.68,1.834
			c-0.502,0.172-1.048-0.053-1.356-0.328c-0.109-0.095-0.263-0.614-0.378-1.115c-0.426-1.742-0.501-1.228-0.714-2.118
			L221.07,285.801z"/>
		<g>
			<g>
				<g>
					<path fill="#1B1B1B" d="M220.293,299.084c0.202,0.352-0.533,15.229-0.435,15.971c0.354,2.667,9.296,2.976,10.857,1.464
						c1.574-1.522,2.605-9.343,0.247-13.707c-0.411-0.76-0.805-1.411-1.163-1.986c-0.111-0.185-0.223-0.358-0.328-0.529
						c-0.505-0.814-0.926-1.487-1.188-2.125c-1.027-2.47-1.988-9.175-2.383-9.851c-0.121-0.209-3.431-0.38-3.431-0.38
						s-0.851,3.068-2.027,3.184c-1.667,0.164-1.954-2.079-1.954-2.079s-1.554-0.429-1.801,0.456c-0.3,1.08,0.477,4.264,0.989,5.668
						C218.569,297.624,219.698,298.056,220.293,299.084z"/>
				</g>
				<path fill="#131313" d="M223.929,298.146c-0.121-0.061-0.278-0.084-0.401-0.168c-0.174-0.119-0.345-0.296-0.482-0.456
					c-0.201-0.235-0.383-0.522-0.508-0.807c-0.099-0.226-0.241-0.379-0.38-0.58c-0.239-0.348-0.385-0.786-0.497-1.189
					c-0.172-0.623-0.304-1.294-0.304-1.941c0-0.178-0.045-0.43,0.019-0.597c0.027-0.07,0.124-0.188,0.204-0.196
					c0.134-0.014,0.237,0.216,0.292,0.314c0.282,0.495,0.405,1.088,0.592,1.622c0.248,0.712,0.508,1.385,0.861,2.05
					c0.156,0.294,0.225,0.612,0.312,0.931C223.707,297.393,223.751,297.742,223.929,298.146z"/>
				<path fill="#131313" d="M217.326,289.394c-0.719,1.537,1.477,3.177,1.477,3.177l1.268-1.201
					c-0.033,0.002-1.447-0.287-1.771-2.198C218.299,289.171,217.459,289.11,217.326,289.394z"/>
				<path fill="#131313" d="M220.991,290.727h1.323v-2.683c0.212,0.094,0.396,0.218,0.454,0.377c0.908,2.448-1.21,4.419-1.21,4.419
					l-1.432-1.463C220.355,291.325,220.805,290.911,220.991,290.727z"/>
				<g>
					<path fill="#131313" d="M229.684,300.637c0.038,0.063,0.077,0.124,0.116,0.188c0.109,0.176,0.223,0.36,0.339,0.552
						c-0.724,0.421-0.675,1.696-0.758,2.441c-0.206,2.268,0.619,4.433,0.31,6.7c-0.412,2.577-3.195,4.124-5.67,3.711
						c-1.714-0.201-3.083-1.07-4.094-2.29c0.092-2.603,0.246-6.308,0.334-9.073C223.517,303.741,227.223,303.033,229.684,300.637z"
						/>
					<path fill="#131313" d="M224.124,298.664c-0.671,1.268-2.313,1.24-3.795,1.089c0-0.39-0.011-0.628-0.035-0.669
						c-0.067-0.117-0.142-0.226-0.222-0.331C221.389,299.005,222.757,298.583,224.124,298.664z"/>
				</g>
				<g>
					<path fill="#131313" d="M229.278,302.478c-1.547-0.722-3.196,0.928-4.742,1.753c-0.516,0.206-1.237,0-1.237-0.516
						c0-2.268,2.475-3.402,3.402-5.258c0.516-0.824,0.516-1.752,0-2.577c-1.134-1.34-1.855-2.783-2.475-4.329
						c-0.369-1.202-0.075-3.231,1.328-3.341c0.195,0.035,0.325,0.072,0.347,0.11c0.395,0.676,1.355,7.381,2.383,9.851
						c0.262,0.638,0.683,1.311,1.188,2.125c0.105,0.171,0.217,0.345,0.328,0.529c0.358,0.575,0.752,1.227,1.163,1.986
						c2.358,4.364,1.327,12.185-0.247,13.707c-0.028,0.027-0.06,0.054-0.093,0.08c0.106-2.735,0.285-5.48,0.717-8.245
						C231.649,306.189,231.134,303.303,229.278,302.478z"/>
				</g>
				<path fill="#111413" d="M220.116,312.191c0.192,0.369,0.478,0.708,0.77,1.018c1.227,1.313,4.18,1.174,5.58,0.289
					c2.066-1.31,2.198-3.797,2.08-5.991c-0.063-1.146-0.195-2.289-0.418-3.414c-0.111-0.574-0.237-1.129-0.311-1.696l1.512-1.188
					c-0.111-0.185-0.223-0.359-0.33-0.529l-1.624,1.278c-0.216,0.143-0.438,0.278-0.665,0.394c-1.331,0.679-2.895,1.09-4.396,0.982
					c-0.686-0.049-1.316-0.22-1.916-0.488c0.286,2.265,0.397,5.284-0.059,8.161c0,0.004,0,0.004,0,0.008
					C220.276,311.411,220.203,311.806,220.116,312.191z"/>
				<path fill="#F9F8F8" d="M220.338,311.007c0,0.004,0,0.004,0,0.009c0.058,0.701,0.531,1.291,1.019,1.809
					c1.228,1.313,4.18,1.175,5.582,0.29c2.063-1.309,2.197-3.796,2.077-5.993c-0.063-1.144-0.192-2.286-0.416-3.412
					c-0.111-0.576-0.236-1.13-0.313-1.697l1.514-1.188c-0.111-0.183-0.223-0.357-0.33-0.527l-1.625,1.277
					c-0.215,0.144-0.438,0.277-0.666,0.394c-1.331,0.679-2.894,1.09-4.395,0.982c-0.902-0.067-1.715-0.34-2.474-0.772
					c0.004,0.035,0.009,0.071,0.014,0.111C220.637,304.594,220.07,307.854,220.338,311.007z"/>
				<path fill="#F9F8F8" d="M217.548,289.152c-0.72,1.537,1.476,3.177,1.476,3.177l1.268-1.201
					c-0.033,0.002-1.446-0.287-1.771-2.198C218.521,288.93,217.681,288.869,217.548,289.152z"/>
				<path fill="#F9F8F8" d="M220.348,291.136l1.432,1.462c0,0,2.118-1.971,1.211-4.418c-0.168-0.451-1.325-0.618-1.325-0.618
					s0.219,0.462,0.255,1.052c0.031,0.521-0.077,1.13-0.627,1.789C221.239,290.467,220.628,291.072,220.348,291.136z"/>
			</g>
		</g>
		<path fill="#FFD6BF" d="M215.401,284.204c0.585,2.103,1.371,4.191,2.782,4.663c0.454,0.152,0.964,0.011,1.44-0.254
			c0.095-0.053,0.188-0.11,0.28-0.171c0.516-0.346,0.967-0.804,1.228-1.134c0.381-0.488,0.297-2.535,0.218-3.22
			c-0.253-2.166-1.819-1.799-3.429-2.312C216.307,281.264,214.815,282.105,215.401,284.204z"/>
		<path fill="#EEB04A" d="M217.719,283.441c-0.778,0.071-1.801,0.269-2.454-0.296c-0.124-0.107-0.239-0.242-0.338-0.393
			c0.022-0.932,0.365-1.072,1.364-2.111c0.676-0.701,1.238-1.308,2.188-0.506c0.164,0.14,0.463,0.146,0.324,0.234
			c-0.351,1.982,2.673,2.773,1.31,3.935C219.719,283.551,218.469,283.373,217.719,283.441z"/>
		<path fill="#EEB04A" d="M219.705,279.522c0.462,0.122,0.861,0.28,1.208,0.466c0.389,0.395,0.899,0.67,1.253,1.107
			c0.372,0.461,0.515,1.034,0.655,1.598c0.168,0.674,0.382,1.489,0.203,2.192l-2.937,0.436c-0.46-1.7-1.199-2.786-2.084-3.638
			C217.175,280.887,218.114,279.105,219.705,279.522z"/>
		<path fill="#EEB04A" d="M219.199,283.59c0.107-0.761,0.399-1.495,0.864-2.107c0.309-0.406,0.775-0.789,1.275-0.688l-0.232-0.618
			c1.202,0.667,1.844,2.021,2.237,3.338c0.154,0.518,0.284,1.06,0.21,1.596c-0.056,0.396-0.22,0.781-0.248,1.177
			c-0.133,0.255-0.309,0.482-0.449,0.733c-0.262,0.468-0.437,0.985-0.513,1.517c-0.045,0.316-0.055,0.659-0.02,1
			c-0.049-0.02-0.098-0.038-0.146-0.057c-0.602-0.227-0.678-0.854-0.682-0.885c-0.045-0.42-0.175-1.605-0.267-1.936
			c-0.225-0.81-0.902-0.776-1.387-1.379C219.346,284.665,219.141,284.343,219.199,283.59z"/>
		<path fill="#FFD6BF" d="M221.46,285.894c-0.137,0.541-0.361,0.874-0.699,0.861c-0.339-0.013-0.547-0.353-0.522-0.914
			c0.019-0.561,0.47-1.007,0.81-0.994C221.385,284.861,221.614,285.275,221.46,285.894z"/>
		<path fill="#FFC6A6" d="M221.169,285.847c-0.069,0.275-0.183,0.444-0.355,0.438s-0.277-0.179-0.265-0.464
			c0.009-0.284,0.238-0.511,0.411-0.504C221.131,285.323,221.248,285.533,221.169,285.847z"/>
	</g>
	<path fill="#EEB04A" d="M221.508,289.092c0-0.614-0.1-1.339,0.12-1.921c0.205-0.546,0.939-1.172,1.47-1.422l0.123-1.251
		c0.011-0.013,0.304-0.075,0.335-0.028c0.344,0.809,0.191,1.884,0.068,2.708c-0.268,1.803-1.255,2.502-1.19,4.406
		c0.016,0.488,0.849,2.037,0.873,2.072c1.21,1.725,1.065,2.591,0.756,4.028c-0.03,0.142-0.043,0.333-0.122,0.449
		c-0.167-0.144-0.255-0.447-0.4-0.627c-0.706-0.875-1.486-1.42-1.682-3.274c-0.17-0.625-0.255-1.281-0.328-1.917
		C221.409,291.255,221.508,290.161,221.508,289.092z"/>
	<g>
		<g>
			<g enable-background="new    ">
				<g>
					<g enable-background="new    ">
						<path fill="#084A5F" d="M199.713,329.136l-0.002,0.757c-0.097-0.056-0.146-0.13-0.146-0.204l0.002-0.757
							C199.566,329.006,199.615,329.08,199.713,329.136L199.713,329.136z"/>
					</g>
				</g>
				<g>
					<g enable-background="new    ">
						<path fill="#005C7B" d="M211.394,332.181l-0.002,0.757c0,0.052-0.024,0.104-0.073,0.149l0.002-0.757
							C211.37,332.284,211.394,332.232,211.394,332.181L211.394,332.181z"/>
						<path fill="#005C7B" d="M211.322,332.33l-0.002,0.757c-0.02,0.019-0.043,0.036-0.071,0.052l0.002-0.757
							C211.278,332.366,211.302,332.349,211.322,332.33L211.322,332.33z"/>
					</g>
				</g>
				<g>
					<polygon fill="#005C7B" points="211.25,332.382 211.249,333.139 208.65,334.649 208.652,333.893 					"/>
				</g>
				<g>
					<polygon fill="#084A5F" points="207.951,333.893 207.949,334.649 199.71,329.893 199.713,329.136 					"/>
				</g>
				<g>
					<g enable-background="new    ">
						<path fill="#005C7B" d="M208.652,333.893l-0.002,0.757c-0.078,0.045-0.175,0.071-0.276,0.08l0.002-0.757
							C208.478,333.964,208.575,333.938,208.652,333.893L208.652,333.893z"/>
						<path fill="#084A5F" d="M208.376,333.973l-0.002,0.757c-0.15,0.014-0.31-0.014-0.425-0.08l0.002-0.757
							C208.066,333.959,208.226,333.986,208.376,333.973L208.376,333.973z"/>
					</g>
				</g>
				<g>
					<path fill="#008BB3" d="M211.249,331.977c0.193,0.111,0.194,0.294,0.002,0.405l-2.599,1.511c-0.192,0.111-0.507,0.111-0.701,0
						l-8.238-4.757c-0.194-0.111-0.195-0.294-0.002-0.406l2.599-1.51c0.192-0.111,0.507-0.111,0.701,0L211.249,331.977z"/>
				</g>
			</g>
		</g>
		<g>
			<g>
				<g>
					<g enable-background="new    ">
						<g>
							<path fill="#FFC823" d="M206.228,330.022c0.383,0.325,0.312,0.725-0.157,0.895c-0.469,0.169-1.161,0.042-1.542-0.282
								c-0.383-0.325-0.313-0.726,0.158-0.895C205.156,329.571,205.847,329.697,206.228,330.022z"/>
						</g>
					</g>
				</g>
				<g>
					<g enable-background="new    ">
						<g>
							<g enable-background="new    ">
								<path fill="#084A5F" d="M206.529,330.214l-0.059,0.317c-0.017,0.092-0.069,0.179-0.156,0.251l0.059-0.316
									C206.458,330.393,206.511,330.307,206.529,330.214L206.529,330.214z"/>
								<path fill="#084A5F" d="M206.373,330.466l-0.059,0.316c-0.063,0.053-0.143,0.098-0.242,0.133
									c-0.098,0.036-0.207,0.059-0.319,0.07l0.059-0.318c0.113-0.01,0.22-0.033,0.318-0.068
									C206.228,330.563,206.309,330.518,206.373,330.466L206.373,330.466z"/>
								<path fill="#084A5F" d="M205.812,330.667l-0.059,0.318c-0.176,0.016-0.365,0.002-0.546-0.036l0.058-0.317
									C205.448,330.671,205.635,330.684,205.812,330.667L205.812,330.667z"/>
								<path fill="#084A5F" d="M205.266,330.632l-0.058,0.317c-0.258-0.057-0.503-0.165-0.68-0.316
									c-0.192-0.163-0.271-0.346-0.24-0.509l0.057-0.317c-0.03,0.164,0.048,0.347,0.241,0.51
									C204.764,330.468,205.007,330.576,205.266,330.632L205.266,330.632z"/>
							</g>
						</g>
						<g>
							<path fill="#005C7B" d="M206.288,329.703c0.383,0.325,0.313,0.726-0.157,0.896c-0.47,0.169-1.163,0.043-1.545-0.282
								c-0.383-0.326-0.313-0.727,0.159-0.896C205.214,329.251,205.906,329.378,206.288,329.703z"/>
						</g>
					</g>
				</g>
			</g>
			<g>
				<g enable-background="new    ">
					<g>
						<g enable-background="new    ">
							<path fill="#1A1A1A" d="M204.743,329.934l13.56-23.736l0.623-0.431l-13.962,24.461c-0.025-0.014-0.049-0.028-0.071-0.045
								C204.777,330.101,204.729,330.013,204.743,329.934z"/>
							<path fill="#1A1A1A" d="M218.925,305.767h0.257l-14.009,24.55c-0.076-0.023-0.147-0.054-0.21-0.089L218.925,305.767z"/>
							<path fill="#1A1A1A" d="M219.183,305.767h0.676l-14.024,24.577c-0.008,0.002-0.017,0.005-0.024,0.007
								c-0.184,0.048-0.427,0.03-0.637-0.034L219.183,305.767z"/>
							<path fill="#1A1A1A" d="M219.859,305.767h0.113l-13.93,24.401c-0.007,0.036-0.027,0.07-0.062,0.102
								c-0.035,0.029-0.083,0.056-0.145,0.074L219.859,305.767z"/>
						</g>
					</g>
				</g>
			</g>
		</g>
		<path fill="#474747" d="M219.248,307.036c1.181-1.518,2.642-2.731,4.373-2.546c3.705,0.397,6.038,1.623,6.749,3.543
			c0.914,2.469-0.888,5.604-2.707,7.539c-4.122,4.383-3.206,9.273-0.471,12.176c1.434,1.523,3.464,2.57,5.493,2.57
			c0.575,0,1.149-0.085,1.713-0.266c0.417-0.136,0.828-0.325,1.226-0.574c-0.093-0.434-0.367-0.887-0.711-1.166
			c-0.361,0.226-0.738,0.387-1.125,0.489c-1.961,0.524-4.146-0.443-5.603-1.989c-2.129-2.259-3.283-6.313,0.472-10.305
			c2.188-2.326,4.122-5.898,2.993-8.949c-0.916-2.474-3.567-3.963-7.883-4.425c-2.12-0.229-4.136,1.071-5.465,3.063
			C218.215,306.482,218.889,306.971,219.248,307.036z"/>
		<path fill="#3E3C3B" d="M228.041,305.055c2.062,1.031,3.814,3.506,2.681,6.082c-1.031,2.681-2.887,4.742-4.536,7.217
			c-1.546,2.268-1.546,5.051,0.206,7.422c2.043,2.82,5.736,5.273,9.091,3.291c0.063,0.136,0.112,0.274,0.142,0.412
			c-0.397,0.249-0.809,0.438-1.226,0.574c-0.563,0.181-1.138,0.266-1.713,0.266c-2.029,0-4.06-1.047-5.493-2.57
			c-2.735-2.902-3.651-7.793,0.471-12.176c1.819-1.936,3.621-5.07,2.707-7.539c-0.711-1.92-3.044-3.146-6.749-3.543
			c-1.731-0.186-3.192,1.028-4.373,2.546c-0.154-0.027-0.364-0.134-0.549-0.267C220.76,303.87,224.777,303.556,228.041,305.055z"/>
	</g>
	<path fill="#FFD6BF" d="M223.988,302.288c-0.221,0.112-1.125,0.749-1.294,0.767c-0.553,0.055-1.866,0.707-2.134,0.749
		c-0.168,0.026-0.366,0.055-0.273,0.285c0.072,0.177,0.357,0.198,0.515,0.21c0.234,0.017,0.415-0.088,0.629-0.164
		c0.133-0.046,0.442-0.117,0.585-0.056c0.202,0.086,0.045,0.411-0.062,0.509c-0.203,0.187-0.831,0.329-0.476,0.703
		c0.089,0.094,0.246,0.163,0.371,0.188c0.213,0.041,0.391-0.051,0.601-0.054c0.335-0.005,0.325,0.182,0.602,0.191
		c0.363,0.014,0.604-0.173,0.781-0.458c0.169-0.273,1.29-1.393,1.291-1.704c0.001-0.181-0.25,0.044-0.366-0.076
		c-0.235-0.246-0.437-0.559-0.694-0.673L223.988,302.288z"/>
	<path fill="#272727" d="M223.758,302.276c0.071-0.333,4.587-4.336,4.765-5.512c0.028-0.186-0.223-0.592-0.58-1.07
		c-3.787-4.557-3.813-5.574-3.122-6.768c0.428-0.76,1.161-0.722,1.617-0.521c0.356,0.147,1.046,0.879,1.766,1.741
		c0,0,2.406,3.465,2.378,3.535c1.049,1.596,1.586,2.845,1.46,3.637c-0.316,1.988-6.953,6.791-7.153,6.806
		C224.478,304.15,223.537,303.34,223.758,302.276z"/>
	<path fill="#1B1B1B" d="M230.618,298.561c0.516-0.516,0.928-1.443,0.516-2.268c-1.309-2.92-2.52-5.937-5.455-7.996
		c0.273-0.041,0.547,0.016,0.759,0.108c0.356,0.147,1.046,0.879,1.766,1.741c0,0,2.406,3.465,2.378,3.535
		c1.049,1.596,1.586,2.845,1.46,3.637c-0.316,1.988-6.953,6.791-7.153,6.806c-0.12,0.008-0.286-0.057-0.455-0.178
		C226.699,302.446,228.659,300.602,230.618,298.561z"/>
	<path fill="#FFD6BF" d="M217.016,308.439c-0.257,0.301-0.318,0.728-0.154,1.086c0.144,0.314,0.464,0.686,0.507,1.031
		c0.083,0.669-0.453,0.077-0.682-0.072c0.015,0.104,0.019,0.231-0.072,0.286c-0.063,0.039-0.149,0.02-0.208-0.025
		c-0.058-0.046-0.095-0.111-0.13-0.176c-0.33-0.604-0.704-1.142-0.729-1.845c-0.005-0.146-0.001-0.29,0.009-0.435
		C216.051,308.209,216.565,308.256,217.016,308.439z"/>
</g>
</svg>
