<?xml version="1.0" encoding="utf-8"?>
<!-- Generator: Adobe Illustrator 16.0.0, SVG Export Plug-In . SVG Version: 6.00 Build 0)  -->
<!DOCTYPE svg PUBLIC "-//W3C//DTD SVG 1.1//EN" "http://www.w3.org/Graphics/SVG/1.1/DTD/svg11.dtd">
<svg version="1.1" xmlns="http://www.w3.org/2000/svg" xmlns:xlink="http://www.w3.org/1999/xlink" x="0px" y="0px"
	 width="162.333px" height="183px" viewBox="0 0 162.333 183" enable-background="new 0 0 162.333 183" xml:space="preserve">
<g id="Bg">
</g>
<g id="Object">
	<g id="XMLID_684_">
		<g id="XMLID_678_">
			<path fill="#4A73BF" d="M45.911,10.611L7.115,13.775c-1.914,0.156-3.351,1.676-3.211,3.394l0.533,6.532l0.102,1.244l0.254,3.109
				l7.245,6.533l1.928,23.639l-6.091,7.621l0.254,3.109l0.101,1.244l0.533,6.533c0.14,1.717,1.804,2.982,3.718,2.826l38.796-3.164
				c1.913-0.156,3.349-1.674,3.209-3.392l-0.533-6.532l-0.101-1.245l-0.254-3.109l-7.244-6.532l-1.928-23.641l6.09-7.619
				l-0.254-3.109l-0.102-1.245l-0.533-6.532C49.487,11.721,47.824,10.455,45.911,10.611z"/>
		</g>
		<g id="XMLID_681_">
			<path fill="#75A6DB" d="M45.327,3.457L6.531,6.621c-1.914,0.156-3.35,1.676-3.21,3.394l0.532,6.532l0.102,1.244L4.209,20.9
				l7.245,6.533l1.928,23.639l-6.091,7.621l0.254,3.109l0.102,1.244L8.18,69.58c0.14,1.717,1.803,2.982,3.717,2.826l38.796-3.164
				c1.913-0.156,3.35-1.674,3.21-3.392l-0.533-6.532l-0.102-1.244l-0.254-3.11l-7.244-6.532l-1.928-23.64l6.09-7.62l-0.254-3.11
				l-0.102-1.243l-0.532-6.533C48.904,4.568,47.24,3.3,45.327,3.457z"/>
		</g>
		<g id="XMLID_677_">
			<path fill="#304498" d="M35.39,69.199l-15.301,1.248c-1.229,0.101-2.307-0.814-2.407-2.044L13.041,11.5
				c-0.101-1.229,0.814-2.306,2.044-2.407l15.301-1.247c1.229-0.101,2.306,0.813,2.406,2.044l4.641,56.902
				C37.533,68.021,36.619,69.099,35.39,69.199z"/>
		</g>
		<g id="XMLID_685_">
			
				<rect x="27.114" y="54.471" transform="matrix(0.9967 -0.0813 0.0813 0.9967 -4.9069 3.0767)" fill="#304498" width="16.465" height="14.707"/>
		</g>
		<g id="XMLID_683_">
			<g id="XMLID_690_">
				
					<rect x="-1.635" y="30.525" transform="matrix(-0.0813 -0.9967 0.9967 -0.0813 -11.7275 67.4821)" fill="#D7D4C9" width="53.744" height="17.243"/>
			</g>
			<g id="XMLID_688_">
				
					<rect x="5.086" y="36.72" transform="matrix(-0.0813 -0.9967 0.9967 -0.0813 -3.9133 73.5882)" fill="#766E5C" width="53.744" height="3.756"/>
			</g>
			<g id="XMLID_680_">
				<g id="XMLID_679_">
					<circle fill="#9E8D64" cx="23.246" cy="41.504" r="4.867"/>
					<path fill="#514B38" d="M23.666,46.666c-2.847,0.232-5.35-1.895-5.582-4.74c-0.231-2.848,1.894-5.352,4.74-5.584
						c2.846-0.231,5.354,1.895,5.585,4.742C28.642,43.929,26.512,46.434,23.666,46.666z M22.875,36.964
						c-2.503,0.203-4.372,2.406-4.168,4.91c0.204,2.502,2.405,4.373,4.908,4.168c2.504-0.203,4.374-2.406,4.17-4.908
						C27.581,38.63,25.379,36.759,22.875,36.964z"/>
				</g>
				<g id="XMLID_682_">
					<path fill="#B9AB83" d="M25.634,40.242l-1.414,0.115l-0.115-1.413c-0.048-0.586-0.562-1.022-1.146-0.974
						c-0.586,0.047-1.021,0.561-0.974,1.146L22.1,40.53l-1.413,0.115c-0.586,0.048-1.022,0.562-0.975,1.147s0.562,1.021,1.147,0.973
						l1.413-0.115l0.115,1.414c0.048,0.585,0.561,1.021,1.146,0.975c0.585-0.049,1.021-0.563,0.974-1.147l-0.115-1.414l1.414-0.115
						c0.586-0.048,1.021-0.561,0.973-1.146C26.731,40.63,26.22,40.194,25.634,40.242z"/>
				</g>
			</g>
		</g>
	</g>
	<g id="XMLID_442_">
		<g id="XMLID_1094_">
			<g id="XMLID_1162_">
				<g id="XMLID_1163_">
					<rect x="135.419" y="54.026" fill="#515151" width="0.069" height="1.465"/>
				</g>
				<g id="XMLID_1164_">
					<path fill="#515151" d="M143.876,5.165c-4.625,0-8.388,3.763-8.388,8.388v1.465c0-4.625,3.763-8.388,8.388-8.388
						s8.388,3.763,8.388,8.388v-1.465C152.264,8.927,148.501,5.165,143.876,5.165z"/>
				</g>
				<g id="XMLID_1170_">
					<rect x="152.264" y="54.026" fill="#515151" width="1.997" height="1.465"/>
				</g>
				<g id="XMLID_1171_">
					<path fill="#515151" d="M143.876,22.781c-2.65,0-4.805,2.154-4.805,4.805v1.465c0-2.65,2.154-4.806,4.805-4.806
						c2.648,0,4.805,2.155,4.805,4.806v-1.465C148.681,24.935,146.524,22.781,143.876,22.781z"/>
				</g>
				<g id="XMLID_1172_">
					<rect x="148.681" y="53.829" fill="#515151" width="0.068" height="1.464"/>
				</g>
				<g id="XMLID_1173_">
					<rect x="137.074" y="53.829" fill="#515151" width="1.997" height="1.464"/>
				</g>
				<g id="XMLID_1174_">
					<path fill="#515151" d="M142.085,75.059c-4.739,0-8.594-3.993-8.594-8.902v1.465c0,4.908,3.854,8.902,8.594,8.902
						c4.736,0,8.593-3.994,8.593-8.902v-1.465C150.678,71.066,146.821,75.059,142.085,75.059z"/>
				</g>
				<g id="XMLID_1175_">
					<path fill="#E6E8ED" d="M143.876,3.168c-5.726,0-10.385,4.656-10.385,10.384v1.465v32.03v1.465v5.514v1.465v10.666
						c0,4.909,3.854,8.902,8.594,8.902c4.736,0,8.593-3.993,8.593-8.902V55.292v-1.464v-5.316v-1.465V29.05v-1.465
						c0-3.751-3.051-6.802-6.802-6.802c-3.75,0-6.802,3.051-6.802,6.802v1.465v24.778h1.997V29.05v-1.465
						c0-2.65,2.154-4.805,4.805-4.805c2.648,0,4.805,2.154,4.805,4.805v1.465v24.778h0.068v1.464v10.864
						c0,3.809-2.989,6.906-6.664,6.906c-3.677,0-6.666-3.098-6.666-6.906V55.491v-1.465h0.069V15.017v-1.465
						c0-4.625,3.763-8.388,8.388-8.388s8.388,3.763,8.388,8.388v1.465v39.009h1.997V15.017v-1.465
						C154.261,7.825,149.602,3.168,143.876,3.168z"/>
				</g>
			</g>
			<g id="XMLID_1095_">
				<g id="XMLID_1155_">
					
						<rect x="68.476" y="43.59" transform="matrix(-0.8612 -0.5083 0.5083 -0.8612 104.9846 117.3144)" fill="#515151" width="0.069" height="1.465"/>
				</g>
				<g id="XMLID_1154_">
					<path fill="#515151" d="M100.826,5.773c-3.992-2.336-9.14-0.989-11.476,3.002l-0.739,1.265
						c2.336-3.991,7.482-5.339,11.475-3.003s5.34,7.483,3.004,11.475l0.74-1.264C106.166,13.255,104.818,8.108,100.826,5.773z"/>
				</g>
				<g id="XMLID_1153_">
					
						<rect x="82.882" y="52.585" transform="matrix(-0.8634 -0.5045 0.5045 -0.8634 129.4012 141.6711)" fill="#515151" width="1.997" height="1.464"/>
				</g>
				<g id="XMLID_1152_">
					<path fill="#515151" d="M91.93,20.977c-2.287-1.339-5.234-0.567-6.574,1.72l-0.739,1.265c1.339-2.288,4.286-3.06,6.574-1.722
						c2.284,1.338,3.058,4.287,1.72,6.574l0.739-1.264C94.988,25.263,94.215,22.314,91.93,20.977z"/>
				</g>
				<g id="XMLID_1151_">
					
						<rect x="79.323" y="50.815" transform="matrix(0.5049 -0.8631 0.8631 0.5049 -4.259 94.2725)" fill="#515151" width="1.464" height="0.067"/>
				</g>
				<g id="XMLID_1150_">
					
						<rect x="69.871" y="44.743" transform="matrix(-0.8634 -0.5045 0.5045 -0.8634 109.1146 120.4946)" fill="#515151" width="1.997" height="1.464"/>
				</g>
				<g id="XMLID_1149_">
					<path fill="#515151" d="M63.98,65.194c-4.09-2.394-5.4-7.787-2.921-12.023l-0.739,1.265c-2.479,4.236-1.17,9.629,2.921,12.023
						c4.088,2.392,9.433,0.893,11.912-3.344l0.739-1.265C73.414,66.086,68.068,67.585,63.98,65.194z"/>
				</g>
				<g id="XMLID_1096_">
					<path fill="#E6E8ED" d="M101.834,4.049C96.893,1.158,90.52,2.824,87.627,7.767l-0.74,1.264L70.711,36.677l-0.74,1.264
						L67.186,42.7l-0.739,1.265L61.06,53.17c-2.479,4.236-1.169,9.63,2.921,12.023c4.088,2.392,9.434,0.893,11.912-3.344
						l5.487-9.378l0.739-1.263l2.686-4.589l0.739-1.264l9.089-15.533l0.74-1.266c1.895-3.236,0.801-7.411-2.436-9.305
						c-3.237-1.895-7.41-0.803-9.305,2.436l-0.74,1.264L70.379,44.339l1.723,1.008l12.515-21.386l0.739-1.265
						c1.34-2.287,4.287-3.059,6.574-1.72c2.285,1.337,3.059,4.286,1.72,6.573l-0.739,1.264L80.396,50.201l0.059,0.034l-0.739,1.263
						l-5.486,9.378c-1.924,3.287-6.068,4.451-9.239,2.596c-3.173-1.856-4.189-6.04-2.266-9.327l5.387-9.207l0.739-1.264l0.061,0.035
						L88.611,10.04l0.739-1.265c2.336-3.991,7.483-5.338,11.476-3.002c3.992,2.335,5.34,7.482,3.004,11.475l-0.74,1.264
						L83.389,52.18l1.724,1.009l19.701-33.668l0.739-1.265C108.445,13.313,106.775,6.941,101.834,4.049z"/>
				</g>
			</g>
			<g id="XMLID_1156_">
				<g id="XMLID_1167_">
					
						<rect x="124.768" y="154.95" transform="matrix(-0.9667 -0.2559 0.2559 -0.9667 205.6123 338.1169)" fill="#515151" width="0.069" height="1.465"/>
				</g>
				<g id="XMLID_1166_">
					<path fill="#515151" d="M146.158,110.136c-4.457-1.234-9.088,1.388-10.322,5.845l-0.392,1.411
						c1.235-4.457,5.865-7.079,10.323-5.844c4.457,1.234,7.078,5.864,5.844,10.321l0.391-1.411
						C153.236,116.001,150.615,111.372,146.158,110.136z"/>
				</g>
				<g id="XMLID_1165_">
					
						<rect x="140.966" y="159.703" transform="matrix(-0.9637 -0.2668 0.2668 -0.9637 235.972 352.9364)" fill="#515151" width="1.998" height="1.465"/>
				</g>
				<g id="XMLID_1161_">
					<path fill="#515151" d="M141.456,127.113c-2.555-0.707-5.206,0.794-5.913,3.349l-0.391,1.412
						c0.707-2.555,3.357-4.057,5.912-3.35c2.553,0.707,4.055,3.359,3.348,5.914l0.391-1.412
						C145.511,130.472,144.008,127.82,141.456,127.113z"/>
				</g>
				<g id="XMLID_1160_">
					
						<rect x="136.903" y="158.997" transform="matrix(0.2674 -0.9636 0.9636 0.2674 -52.4094 249.1294)" fill="#515151" width="1.464" height="0.069"/>
				</g>
				<g id="XMLID_1159_">
					
						<rect x="126.38" y="155.459" transform="matrix(-0.9637 -0.2668 0.2668 -0.9637 208.4617 340.708)" fill="#515151" width="1.998" height="1.463"/>
				</g>
				<g id="XMLID_1158_">
					<path fill="#515151" d="M125.773,177.016c-4.566-1.265-7.215-6.142-5.905-10.873l-0.392,1.412
						c-1.31,4.729,1.34,9.607,5.906,10.873c4.564,1.264,9.348-1.556,10.658-6.285l0.391-1.412
						C135.121,175.461,130.338,178.281,125.773,177.016z"/>
				</g>
				<path fill="#E6E8ED" d="M146.691,108.212c-5.519-1.528-11.252,1.716-12.781,7.235l-0.391,1.411l-8.551,30.868l-0.391,1.412
					l-1.472,5.313l-0.392,1.412l-2.847,10.278c-1.31,4.73,1.339,9.608,5.905,10.873c4.564,1.265,9.348-1.555,10.658-6.285
					l2.9-10.471l0.391-1.41l1.42-5.123l0.391-1.412l4.805-17.344l0.391-1.412c1.001-3.615-1.127-7.369-4.74-8.37
					s-7.369,1.124-8.371,4.739l-0.391,1.412l-6.614,23.879l1.925,0.533l6.615-23.879l0.391-1.412
					c0.707-2.555,3.358-4.056,5.913-3.349c2.551,0.707,4.055,3.359,3.347,5.913l-0.391,1.412l-6.614,23.879l0.065,0.019
					l-0.391,1.411l-2.9,10.47c-1.017,3.671-4.725,5.857-8.266,4.877c-3.543-0.981-5.597-4.765-4.58-8.436l2.848-10.278l0.391-1.412
					l0.066,0.018l10.413-37.593l0.392-1.411c1.234-4.457,5.865-7.079,10.322-5.845c4.457,1.235,7.078,5.865,5.844,10.322
					l-0.391,1.411l-0.498,1.799l-9.915,35.795l1.925,0.533l10.413-37.594l0.392-1.411
					C155.457,115.472,152.209,109.741,146.691,108.212z"/>
			</g>
		</g>
	</g>
	<g id="XMLID_431_">
		<g id="XMLID_441_">
			<path fill="#CCCCCC" d="M61.052,171.797l-5.125,5.035c-0.005,0.004-0.014,0.014-0.028,0.018
				c-10.499,7.139-25.326,5.607-35.014-4.253l-6.576-6.694c-6.684-6.801-6.869-17.441-0.427-23.771l9.171-9.011L61.052,171.797z"/>
		</g>
		<g id="XMLID_440_">
			<path fill="#E2E2E2" d="M27.921,168.699l-12.534-12.757c-4.223-4.299-4.162-11.208,0.137-15.432l7.525-7.394l32.586,33.167
				l-2.682,2.637C45.979,175.772,34.772,175.672,27.921,168.699z"/>
		</g>
		<g id="XMLID_432_">
			<g id="XMLID_439_">
				<path fill="#CCCCCC" d="M127.051,91.697l-22.147-22.542c-1.554-1.581-4.095-1.604-5.675-0.05L83.02,85.03l32.588,33.167
					l11.307-11.109C131.201,102.875,131.264,95.985,127.051,91.697z"/>
			</g>
			<g id="XMLID_436_">
				<g id="XMLID_438_">
					
						<rect x="38.365" y="124.065" transform="matrix(0.7133 -0.7008 0.7008 0.7133 -67.2317 95.9691)" fill="#030303" width="90.654" height="12.201"/>
				</g>
				<g id="XMLID_437_">
					
						<rect x="22.072" y="96.434" transform="matrix(0.7133 -0.7008 0.7008 0.7133 -60.2803 79.7965)" fill="#243A96" width="90.654" height="34.295"/>
				</g>
			</g>
			<g id="XMLID_435_">
				<polygon fill="#DBDBDD" points="120.469,109.706 55.812,173.23 55.642,166.291 55.642,166.281 120.302,102.752 				"/>
			</g>
			<g id="XMLID_434_">
				<path fill="#E2E2E2" d="M126.03,90.659L98.602,62.741c-1.064-1.083-2.807-1.098-3.889-0.033l-7,6.876l32.588,33.167l5.672-5.572
					C127.789,95.393,127.814,92.474,126.03,90.659z"/>
			</g>
			<g id="XMLID_433_">
				<polygon fill="#253887" points="120.556,113.334 55.9,176.859 55.898,176.85 55.812,173.23 120.469,109.706 				"/>
			</g>
		</g>
	</g>
</g>
</svg>
