<?xml version="1.0" encoding="utf-8"?>
<!-- Generator: Adobe Illustrator 16.0.0, SVG Export Plug-In . SVG Version: 6.00 Build 0)  -->
<!DOCTYPE svg PUBLIC "-//W3C//DTD SVG 1.1//EN" "http://www.w3.org/Graphics/SVG/1.1/DTD/svg11.dtd">
<svg version="1.1" id="Layer_1" xmlns="http://www.w3.org/2000/svg" xmlns:xlink="http://www.w3.org/1999/xlink" x="0px" y="0px"
	 width="76.842px" height="350.526px" viewBox="0 0 76.842 350.526" enable-background="new 0 0 76.842 350.526"
	 xml:space="preserve">
<g id="XMLID_1303_">
	<g id="XMLID_623_">
		<g id="XMLID_646_">
			<polygon fill="#58665E" points="52.441,57.577 69.067,72.506 63.133,91.124 39.107,99.409 15.081,91.124 9.147,72.506 
				25.773,57.577 			"/>
		</g>
		<g id="XMLID_642_">
			<g id="XMLID_645_">
				<rect x="9.147" y="72.469" fill="#1A2722" width="59.92" height="177.659"/>
			</g>
			<g id="XMLID_644_">
				<rect x="17.248" y="72.469" fill="#545F58" width="43.719" height="177.659"/>
			</g>
			<g id="XMLID_643_">
				<rect x="19.542" y="72.469" fill="#3D4B44" width="39.131" height="177.659"/>
			</g>
		</g>
		<g id="XMLID_641_">
			<path fill="#3DB54A" d="M9.147,330.022v-79.895h59.92v79.895c0,2.481-3.188,4.388-8.102,5.719
				c-0.729,0.203-1.493,0.386-2.292,0.561c-10.975,2.368-28.159,2.368-39.134,0c-0.799-0.175-1.563-0.357-2.292-0.561
				C12.336,334.41,9.147,332.504,9.147,330.022z"/>
		</g>
		<g id="XMLID_640_">
			<path fill="#7CC684" d="M17.249,335.741v-85.613h43.717v85.613c-0.729,0.203-1.493,0.386-2.292,0.561
				c-10.975,2.368-28.159,2.368-39.134,0C18.741,336.127,17.978,335.944,17.249,335.741z"/>
		</g>
		<g id="XMLID_639_">
			<path fill="#3DB54A" d="M19.54,336.302v-86.174h39.134v86.174C47.699,338.67,30.515,338.67,19.54,336.302z"/>
		</g>
		<g id="XMLID_636_">
			<g id="XMLID_638_">
				<path fill="#7CC684" d="M22.666,341.586V226.65c0-7.939,32.883-7.939,32.883,0v114.936
					C55.549,344.389,22.666,344.389,22.666,341.586z"/>
			</g>
			<g id="XMLID_637_">
				<path fill="#3DB54A" d="M22.666,231.557v-4.906c0-7.939,32.883-7.939,32.883,0v4.906H22.666z"/>
			</g>
		</g>
		<g id="XMLID_634_">
			<polygon fill="#44524A" points="29.549,25.339 48.646,25.339 52.432,57.577 25.783,57.577 			"/>
		</g>
		<g id="XMLID_626_">
			<g id="XMLID_630_">
				<polygon fill="#3DB54A" points="33.588,25.339 33.588,13.775 42.523,7.468 44.626,10.797 44.626,25.339 				"/>
			</g>
			<g id="XMLID_629_">
				<polygon fill="#8FCA71" points="33.588,13.852 33.588,13.775 42.523,7.468 44.626,10.797 44.626,13.852 				"/>
			</g>
		</g>
	</g>
</g>
</svg>
