<?xml version="1.0" encoding="utf-8"?>
<!-- Generator: Adobe Illustrator 16.0.0, SVG Export Plug-In . SVG Version: 6.00 Build 0)  -->
<!DOCTYPE svg PUBLIC "-//W3C//DTD SVG 1.1//EN" "http://www.w3.org/Graphics/SVG/1.1/DTD/svg11.dtd">
<svg version="1.1" id="Layer_1" xmlns="http://www.w3.org/2000/svg" xmlns:xlink="http://www.w3.org/1999/xlink" x="0px" y="0px"
	 width="36.842px" height="418.948px" viewBox="0 0 36.842 418.948" enable-background="new 0 0 36.842 418.948"
	 xml:space="preserve">
<g id="XMLID_1196_">
	<g id="XMLID_1322_">
		<polygon fill="#125E92" points="29.016,335.18 29.016,76.243 8.262,76.243 8.262,335.18 13.637,335.18 13.637,404.692 
			23.642,404.692 23.642,335.18 		"/>
	</g>
	<g id="XMLID_1302_">
		<rect x="8.262" y="300.817" fill="#125E92" width="20.488" height="71.244"/>
	</g>
	<g id="XMLID_1321_">
		<rect x="13.637" y="76.243" fill="#2275A5" width="10.005" height="328.449"/>
	</g>
	<g id="XMLID_1320_">
		<path fill="#1A1B1C" d="M29.016,402.706v-44.217h-5.374v46.202h5.108C28.925,404.057,29.016,403.393,29.016,402.706z"/>
	</g>
	<g id="XMLID_1319_">
		<path fill="#1A1B1C" d="M13.637,404.691v-46.202H8.262v44.217c0,0.688,0.096,1.352,0.271,1.985H13.637z"/>
	</g>
	<g id="XMLID_1318_">
		<rect x="13.637" y="358.489" fill="#3A3B3B" width="10.005" height="46.202"/>
	</g>
	<g id="XMLID_1317_">
		<path fill="#4B4E50" d="M28.75,404.691H8.533c0.681,2.491,2.629,4.454,5.104,5.173c0.659,0.197,1.362,0.298,2.086,0.298h5.838
			c0.724,0,1.421-0.101,2.081-0.298C26.121,409.151,28.063,407.182,28.75,404.691z"/>
	</g>
	<g id="XMLID_1316_">
		<rect x="23.642" y="350.438" fill="#B1B1AF" width="5.374" height="8.051"/>
	</g>
	<g id="XMLID_1315_">
		<rect x="8.262" y="350.438" fill="#B1B1AF" width="5.375" height="8.051"/>
	</g>
	<g id="XMLID_1309_">
		<g id="XMLID_1314_">
			<polygon fill="none" points="19.006,40.018 20.288,48.506 23.429,36.506 20.655,53.801 			"/>
		</g>
		<g id="XMLID_1313_">
			<path fill="#1E1E1C" d="M23.429,36.506V15.251c0-1.128-0.192-2.245-0.554-3.299c-0.362-1.054-0.899-2.055-1.597-2.943
				c-0.207,0.559-0.399,1.325-0.58,2.246c-0.389,2.006-0.713,4.757-0.984,7.727v0.006L23.429,36.506z"/>
		</g>
		<g id="XMLID_1312_">
			<path fill="#31312F" d="M23.429,55.664V36.506l-2.773,17.295l-1.649-13.783l-0.351-2.953c-0.011,0.33-0.017,0.506-0.017,0.506
				l-2.607,6.119l-0.245-18.178l-0.159-11.671l-0.506,1.373c-0.841,2.294-1.271,4.715-1.271,7.152v33.297H23.429z"/>
		</g>
		<g id="XMLID_1311_">
			<path fill="#454544" d="M21.278,9.009c-0.41-0.521-0.974-0.819-1.56-0.889c-0.596-0.079-1.208,0.063-1.702,0.415
				c-0.373,0.261-0.677,0.639-0.852,1.123l-1.538,4.178v0.005l0.159,11.671l0.245,18.178l2.607-6.119c0,0,0.006-0.176,0.017-0.506
				c0.074-2.155,0.388-10.776,1.059-18.077v-0.006c0.271-2.97,0.596-5.721,0.984-7.727C20.879,10.334,21.071,9.568,21.278,9.009z"/>
		</g>
		<g id="XMLID_1310_">
			<path fill="#353634" d="M19.006,40.018l-0.351-2.953c0.074-2.155,0.388-10.776,1.059-18.077l3.715,17.519l-3.141,12
				L19.006,40.018z"/>
		</g>
	</g>
	<g id="XMLID_1308_">
		<rect x="13.637" y="350.438" fill="#FCFDFB" width="10.005" height="8.051"/>
	</g>
	<g id="XMLID_1307_">
		<polygon fill="#F1D598" points="29.016,76.243 23.429,36.506 20.655,53.801 19.006,40.018 18.639,37.571 16.031,43.69 
			13.85,40.231 8.262,76.243 10.71,84.933 13.637,76.243 16.297,90.787 18.639,85.731 23.642,92.117 		"/>
	</g>
	<g id="XMLID_1306_">
		<polygon fill="#F1D598" points="23.429,36.506 20.288,48.506 19.006,40.018 20.655,53.801 		"/>
	</g>
	<g id="XMLID_1305_">
		<path fill="#010101" d="M18.017,8.536c-0.373,0.261-0.677,0.639-0.852,1.123l-1.538,4.178v0.005l-0.506,1.373
			c-0.841,2.294-1.271,4.715-1.271,7.152v17.864l1.937-14.719L18.017,8.536z"/>
	</g>
	<g id="XMLID_1304_">
		<path fill="#010101" d="M23.429,20.009v-4.758c0-1.128-0.192-2.245-0.554-3.299c-0.362-1.054-0.899-2.055-1.597-2.943
			c-0.41-0.521-0.974-0.819-1.56-0.889l0.979,3.135L23.429,20.009z"/>
	</g>
</g>
</svg>
