<?xml version="1.0" encoding="utf-8"?>
<!-- Generator: Adobe Illustrator 16.0.0, SVG Export Plug-In . SVG Version: 6.00 Build 0)  -->
<!DOCTYPE svg PUBLIC "-//W3C//DTD SVG 1.1//EN" "http://www.w3.org/Graphics/SVG/1.1/DTD/svg11.dtd">
<svg version="1.1" id="Layer_1" xmlns="http://www.w3.org/2000/svg" xmlns:xlink="http://www.w3.org/1999/xlink" x="0px" y="0px"
	 width="233.685px" height="442.105px" viewBox="0 0 233.685 442.105" enable-background="new 0 0 233.685 442.105"
	 xml:space="preserve">
<g>
	<g>
		<g>
			<linearGradient id="XMLID_3_" gradientUnits="userSpaceOnUse" x1="-157.4824" y1="-85.2437" x2="387.1829" y2="519.4219">
				<stop  offset="0" style="stop-color:#FFFFFF"/>
				<stop  offset="1" style="stop-color:#231F20"/>
			</linearGradient>
			<path id="XMLID_79_" fill="url(#XMLID_3_)" d="M212.436,406.054c0,10.555-8.844,18.642-19.398,18.642H42.527
				c-10.554,0-18.682-8.087-18.682-18.642V35.36c0-10.555,8.127-19.278,18.682-19.278h17.4c3.679,0,5.039,0.027,5.261,4.689
				c0.231,4.845,3.557,7.482,8.06,8.892c1.526,0.478,3.227,0.322,4.848,0.322h3.286h72.961h3.287c1.621,0,3.32,0.273,4.848-0.205
				c4.502-1.41,7.828-4.281,8.059-9.126c0.223-4.663,1.584-4.572,5.262-4.572h17.238c10.555,0,19.398,8.723,19.398,19.278V406.054z"
				/>
			<g id="XMLID_1_">
				<path id="XMLID_76_" fill="#595A5C" d="M223.922,36.1c0-17.398-14.105-31.502-31.502-31.502H42.05
					c-17.398,0-31.502,14.104-31.502,31.502v370.996c0,17.398,14.104,31.502,31.502,31.502h150.37
					c17.396,0,31.502-14.104,31.502-31.502V36.1z M219.086,406.794c0,14.894-12.074,26.968-26.969,26.968H41.748
					c-14.895,0-26.969-12.074-26.969-26.968V35.797c0-14.894,12.074-26.968,26.969-26.968h150.37
					c14.895,0,26.969,12.074,26.969,26.968V406.794z"/>
				<path id="XMLID_75_" fill="#010101" d="M10.548,61.886h-0.286c-1.122,0-2.031,0.909-2.031,2.031v12.359
					c0,1.122,0.91,2.031,2.031,2.031h0.286"/>
				<path id="XMLID_74_" fill="#010101" d="M223.922,153.839L223.922,153.839c1.279,0,2.316-1.038,2.316-2.317v-45.888
					c0-1.28-1.037-2.317-2.316-2.317l0,0"/>
				<g id="XMLID_71_">
					<path id="XMLID_73_" fill="#010101" d="M10.548,93.494L10.548,93.494c-1.28,0-2.317,1.038-2.317,2.317v26.092
						c0,1.28,1.038,2.317,2.317,2.317l0,0"/>
					<path id="XMLID_72_" fill="#010101" d="M10.548,132.935L10.548,132.935c-1.28,0-2.317,1.038-2.317,2.317v26.093
						c0,1.279,1.038,2.317,2.317,2.317l0,0"/>
				</g>
				<path id="XMLID_70_" fill="none" d="M193.037,16.083h-17.238c-3.678,0-5.039,0.027-5.262,4.689
					c-0.23,4.845-3.557,7.482-8.059,8.892c-1.527,0.478-3.227,0.322-4.848,0.322h-3.287H81.382h-3.286
					c-1.621,0-3.322,0.273-4.848-0.205c-4.502-1.41-7.829-4.281-8.06-9.126c-0.222-4.663-1.582-4.572-5.261-4.572h-17.4
					c-10.554,0-18.682,8.723-18.682,19.278v370.693c0,10.555,8.127,18.642,18.682,18.642h150.51
					c10.555,0,19.398-8.087,19.398-18.642V35.36C212.436,24.806,203.592,16.083,193.037,16.083z"/>
				<path id="XMLID_65_" fill="#231F20" d="M219.086,35.797c0-14.894-12.074-26.968-26.969-26.968H41.748
					c-14.895,0-26.969,12.074-26.969,26.968v370.997c0,14.894,12.074,26.968,26.969,26.968h150.37
					c14.895,0,26.969-12.074,26.969-26.968V35.797z M142.15,19.423c0,1.46-1.184,2.645-2.645,2.645s-2.645-1.184-2.645-2.645
					c0-1.461,1.184-2.645,2.645-2.645S142.15,17.962,142.15,19.423z M106.186,17.896h23.574c1,0,1.813,0.621,1.813,1.511
					c0,0.891-0.813,1.511-1.813,1.511h-23.574c-1.001,0-1.813-0.621-1.813-1.511C104.372,18.517,105.184,17.896,106.186,17.896z
					 M212.436,406.054c0,10.555-8.844,18.642-19.398,18.642H42.527c-10.554,0-18.682-8.087-18.682-18.642V35.36
					c0-10.555,8.127-19.278,18.682-19.278h17.4c3.679,0,5.039,0.027,5.261,4.689c0.231,4.845,3.557,7.482,8.06,8.892
					c1.526,0.478,3.227,0.322,4.848,0.322h3.286h72.961h3.287c1.621,0,3.32,0.273,4.848-0.205c4.502-1.41,7.828-4.281,8.059-9.126
					c0.223-4.663,1.584-4.572,5.262-4.572h17.238c10.555,0,19.398,8.723,19.398,19.278V406.054z"/>
				<circle id="XMLID_64_" fill="#FFFFFF" cx="139.506" cy="19.423" r="2.645"/>
				<path id="XMLID_63_" fill="#FFFFFF" d="M106.186,20.918h23.574c1,0,1.813-0.621,1.813-1.511c0-0.89-0.813-1.511-1.813-1.511
					h-23.574c-1.001,0-1.813,0.621-1.813,1.511C104.372,20.297,105.184,20.918,106.186,20.918z"/>
			</g>
		</g>
	</g>
	<g>
		<rect x="191.031" y="23.57" fill="#FFFFFF" width="1.439" height="3.279"/>
		<rect x="192.885" y="23.57" fill="#FFFFFF" width="1.439" height="3.279"/>
		<rect x="194.738" y="23.57" fill="#FFFFFF" width="1.439" height="3.279"/>
		<rect x="196.592" y="23.57" fill="#FFFFFF" width="1.441" height="3.279"/>
		<rect x="198.445" y="24.213" fill="#FFFFFF" width="0.721" height="1.992"/>
	</g>
	<g>
		<circle fill="#FFFFFF" cx="182.252" cy="27.066" r="0.693"/>
		<path fill="#FFFFFF" d="M184.053,25.047c-0.51-0.358-1.131-0.569-1.801-0.569s-1.291,0.21-1.801,0.569
			c-0.236,0.167-0.262,0.511-0.057,0.716c0.16,0.16,0.412,0.186,0.598,0.056c0.357-0.251,0.791-0.398,1.26-0.398
			s0.904,0.147,1.262,0.398c0.184,0.13,0.436,0.104,0.596-0.056C184.314,25.558,184.291,25.213,184.053,25.047z"/>
		<path fill="#FFFFFF" d="M185.357,23.77c-0.85-0.687-1.93-1.098-3.105-1.098c-1.174,0-2.256,0.412-3.105,1.098
			c-0.219,0.178-0.24,0.504-0.041,0.704c0.174,0.173,0.447,0.18,0.639,0.026c0.686-0.554,1.559-0.885,2.508-0.885
			s1.822,0.332,2.51,0.885c0.191,0.154,0.465,0.147,0.637-0.026C185.598,24.274,185.576,23.947,185.357,23.77z"/>
	</g>
	<path opacity="0.27" fill="#FFFFFF" d="M148.953,416.02H87.329c-1.307,0-2.375-1.068-2.375-2.375l0,0
		c0-1.307,1.068-2.375,2.375-2.375h61.625c1.307,0,2.375,1.068,2.375,2.375l0,0C151.328,414.951,150.26,416.02,148.953,416.02z"/>
	<path fill="#FFFFFF" d="M123.338,40.688h-1.416v-1.253c0-1.411-0.93-2.605-2.211-3.003l0,0c-0.023-0.008-0.049-0.015-0.074-0.022
		l0,0c-0.025-0.007-0.049-0.014-0.074-0.021l0,0c-0.025-0.006-0.051-0.012-0.076-0.019l0,0c-0.025-0.006-0.051-0.011-0.076-0.017
		c-0.025-0.005-0.053-0.01-0.078-0.015c-0.025-0.004-0.051-0.009-0.078-0.013l0,0c-0.025-0.004-0.051-0.008-0.078-0.011
		c-0.025-0.003-0.053-0.006-0.078-0.009c-0.027-0.003-0.053-0.005-0.08-0.007s-0.053-0.003-0.08-0.005s-0.055-0.002-0.08-0.003
		c-0.027-0.001-0.055-0.001-0.082-0.001h-0.049c-0.027,0-0.053,0-0.08,0.001c-0.027,0-0.055,0.001-0.082,0.003
		c-0.025,0.001-0.053,0.003-0.08,0.005c-0.025,0.002-0.053,0.004-0.078,0.007c-0.027,0.002-0.053,0.005-0.08,0.009
		c-0.025,0.003-0.053,0.007-0.078,0.011l0,0c-0.025,0.004-0.053,0.008-0.078,0.013c-0.025,0.005-0.051,0.01-0.076,0.015
		c-0.025,0.005-0.053,0.011-0.078,0.017l0,0c-0.025,0.006-0.049,0.012-0.075,0.019l0,0c-0.025,0.006-0.05,0.013-0.075,0.021l0,0
		c-0.024,0.007-0.05,0.014-0.074,0.022l0,0c-1.281,0.398-2.211,1.593-2.211,3.003v1.253h-1.417c-0.172,0-0.313,0.141-0.313,0.313
		v6.032c0,0.172,0.141,0.313,0.313,0.313h9.174c0.174,0,0.313-0.139,0.313-0.313V41C123.65,40.829,123.51,40.688,123.338,40.688z
		 M117.142,39.437c0-0.849,0.667-1.541,1.504-1.583l0,0c0.012,0,0.025-0.001,0.039-0.001l0,0c0.014,0,0.027,0,0.041,0h0.049
		c0.014,0,0.027,0,0.041,0l0,0c0.014,0,0.027,0.001,0.041,0.001l0,0c0.836,0.042,1.504,0.734,1.504,1.583v1.251h-3.219V39.437z"/>
</g>
</svg>
