<?xml version="1.0" encoding="utf-8"?>
<!-- Generator: Adobe Illustrator 16.0.0, SVG Export Plug-In . SVG Version: 6.00 Build 0)  -->
<!DOCTYPE svg PUBLIC "-//W3C//DTD SVG 1.1//EN" "http://www.w3.org/Graphics/SVG/1.1/DTD/svg11.dtd">
<svg version="1.1" id="Capa_1" xmlns="http://www.w3.org/2000/svg" xmlns:xlink="http://www.w3.org/1999/xlink" x="0px" y="0px"
	 width="2451.5px" height="619.082px" viewBox="0 -126.5 2451.5 619.082" enable-background="new 0 -126.5 2451.5 619.082"
	 xml:space="preserve">
<g>
	<path d="M2146.303,477.135c128.32,0.191,152.898,5.512,222.32-43.135c68.5-48,53.645-177.806,53.945-205.293V64.567
		c0-93.225-75.842-169.067-169.068-169.067H219.191c-93.225,0-169.06,75.842-169.06,169.067v243.522
		c0,25.009,5.422,49.138,16.125,71.796c-6.48,25.4-19.892,47.855-39.903,66.807l-15.841,15.008l20.614,7.121
		c13.451,4.654,27.743,7.018,42.479,7.018c22.586,0,46.318-5.447,70.612-16.205c23.202,11.479,48.985,17.516,74.981,17.516
		L2146.303,477.135z M150.909,433.26l-5.938-3.244l-6.11,2.914c-27.704,13.213-54.103,18.535-78.225,15.635
		c16.106-19.885,27.015-42.471,32.523-67.395l1.019-4.621l-2.138-4.223c-10.234-20.189-15.43-41.797-15.43-64.251V64.567
		c0-78.622,63.966-142.588,142.581-142.588H2253.5c78.623,0,142.588,63.966,142.588,142.588v243.516
		c0,78.614-63.965,142.573-142.588,142.573H219.191C195.36,450.65,171.748,444.639,150.909,433.26z"/>
</g>
</svg>
