<?xml version="1.0" encoding="utf-8"?>
<!-- Generator: Adobe Illustrator 16.0.0, SVG Export Plug-In . SVG Version: 6.00 Build 0)  -->
<!DOCTYPE svg PUBLIC "-//W3C//DTD SVG 1.1//EN" "http://www.w3.org/Graphics/SVG/1.1/DTD/svg11.dtd">
<svg version="1.1" id="Layer_1" xmlns="http://www.w3.org/2000/svg" xmlns:xlink="http://www.w3.org/1999/xlink" x="0px" y="0px"
	 width="650px" height="650px" viewBox="0 0 650 650" enable-background="new 0 0 650 650" xml:space="preserve">
<g>
	<g>
		<g>
			<polygon fill="#955624" points="313.706,63.914 318.761,62.384 319.31,457.043 313.706,460.271 			"/>
		</g>
		<g>
			<polygon fill="#B66228" points="313.706,64.403 308.17,61.204 307.845,456.893 313.706,460.271 			"/>
		</g>
	</g>
	<g>
		<g>
			<polygon fill="#D3CFC8" points="414.512,583.654 414.512,593.799 251.33,499.504 251.367,489.303 			"/>
		</g>
		<polygon fill="#B6B0A7" points="314.244,452.988 251.501,489.453 420.288,586.994 483.029,550.533 		"/>
		<g>
			<polygon fill="#74716A" points="483.029,550.52 483.001,560.73 420.116,597.328 420.145,587.127 			"/>
		</g>
	</g>
	<g>
		<g>
			<g>
				<g enable-background="new    ">
					<g>
						<polygon fill="#EBE9E6" points="314.637,504.248 263.302,474.406 304.332,450.729 355.667,480.561 						"/>
					</g>
					<g>
						<polygon fill="#E1E1E1" points="314.637,504.248 314.675,519.531 263.35,489.699 263.302,474.406 						"/>
					</g>
					<g>
						<polygon fill="#9F9992" points="355.667,480.561 355.698,495.854 314.675,519.531 314.637,504.248 						"/>
						<polygon fill="#B8B5AF" points="355.667,480.561 355.764,494.531 314.675,518.227 314.637,504.248 						"/>
					</g>
				</g>
			</g>
			<polygon fill="#EBE9E6" points="275.456,493.477 275.456,484.848 310.656,505.164 310.656,513.779 			"/>
			<path fill="#616E73" d="M265.652,483.506c0-2.385,1.689-3.359,3.741-2.184c2.073,1.215,3.771,4.123,3.762,6.508
				c0,2.375-1.689,3.346-3.762,2.16C267.341,488.795,265.662,485.883,265.652,483.506z"/>
		</g>
		<g>
			<g>
				<g enable-background="new    ">
					<g>
						<polygon fill="#151A1E" points="314.578,487.732 263.265,457.891 304.276,434.217 355.611,464.045 						"/>
					</g>
					<g>
						<polygon fill="#E1E1E1" points="314.578,487.732 314.618,503.004 263.292,473.182 263.265,457.891 						"/>
					</g>
					<g>
						<polygon fill="#151A1E" points="355.611,464.045 355.64,479.328 314.618,503.004 314.578,487.732 						"/>
						<polygon fill="#7B8080" points="355.611,464.045 355.707,478.029 314.578,501.988 314.578,487.732 						"/>
					</g>
				</g>
			</g>
			<polygon fill="#151A1E" points="275.399,476.953 275.409,468.332 310.598,488.662 310.598,497.283 			"/>
			<path fill="#151A1E" d="M265.594,466.99c0-2.395,1.689-3.35,3.752-2.158c2.063,1.189,3.76,4.107,3.741,6.473
				c0,2.387-1.678,3.365-3.741,2.17C267.283,472.279,265.615,469.391,265.594,466.99z"/>
		</g>
		<g>
			<g>
				<g enable-background="new    ">
					<g>
						<polygon fill="#EBE9E6" points="314.578,471.611 263.265,441.789 304.276,418.111 355.611,447.934 						"/>
					</g>
					<g>
						<polygon fill="#D8D1C7" points="314.578,471.611 314.618,486.895 263.292,457.07 263.265,441.789 						"/>
					</g>
					<g>
						<polygon fill="#9F9992" points="355.611,447.934 355.64,463.227 314.618,486.895 314.578,471.611 						"/>
						<polygon fill="#B8B5AF" points="355.611,447.934 355.707,461.908 314.578,485.793 314.578,471.611 						"/>
					</g>
				</g>
			</g>
			<polygon fill="#EBE9E6" points="275.399,460.854 275.409,452.205 310.598,472.553 310.598,481.172 			"/>
			<path fill="#616E73" d="M265.594,450.879c0-2.391,1.689-3.369,3.752-2.164c2.063,1.195,3.76,4.094,3.741,6.484
				c0,2.381-1.678,3.35-3.741,2.164C267.283,456.158,265.615,453.26,265.594,450.879z"/>
		</g>
	</g>
	<g>
		<g>
			<g>
				<g enable-background="new    ">
					<g>
						<polygon fill="#151A1E" points="400.796,496.939 400.999,565.078 448.08,537.9 447.89,469.758 						"/>
					</g>
					<g>
						<polygon fill="#21282E" points="400.796,496.939 380.392,484.848 380.42,553.018 400.999,565.078 						"/>
					</g>
					<g>
						<polygon fill="#151A1E" points="447.89,469.758 427.482,457.66 380.392,484.848 400.796,496.939 						"/>
						<polygon fill="#37484D" points="447.89,469.758 429.095,458.643 382.004,485.82 400.796,496.939 						"/>
					</g>
				</g>
			</g>
			<path fill="#151A1E" d="M389.581,555.816c2.369,1.375,4.308,0.256,4.308-2.475c0-2.736-1.938-6.078-4.308-7.443
				c-2.359-1.373-4.299-0.258-4.299,2.484C385.282,551.111,387.222,554.453,389.581,555.816z"/>
		</g>
		<g>
			<g>
				<g enable-background="new    ">
					<g>
						<polygon fill="#151A1E" points="422.352,509.598 422.552,577.734 469.638,550.553 469.436,482.4 						"/>
					</g>
					<g>
						<polygon fill="#21282E" points="422.352,509.598 401.956,497.5 401.986,565.68 422.552,577.734 						"/>
					</g>
					<g>
						<polygon fill="#151A1E" points="469.436,482.4 449.05,470.303 401.956,497.5 422.352,509.598 						"/>
						<polygon fill="#37484D" points="469.436,482.4 450.633,471.291 403.557,498.482 422.352,509.598 						"/>
					</g>
				</g>
			</g>
			<path fill="#151A1E" d="M411.146,568.475c2.368,1.375,4.287,0.264,4.287-2.475c0-2.748-1.919-6.08-4.287-7.443
				c-2.38-1.375-4.309-0.254-4.309,2.475C406.838,563.77,408.767,567.1,411.146,568.475z"/>
		</g>
	</g>
	<g>
		<g>
			<polygon fill="#D3CFC8" points="414.425,487.029 414.425,497.174 251.243,402.867 251.28,392.676 			"/>
		</g>
		<polygon fill="#B6B0A7" points="314.157,356.357 251.417,392.816 420.191,490.357 482.935,453.9 		"/>
		<g>
			<polygon fill="#74716A" points="482.935,453.9 482.914,464.092 420.029,500.693 420.067,490.504 			"/>
		</g>
	</g>
	<g>
		<g>
			<g>
				<g enable-background="new    ">
					<g>
						<polygon fill="#78736F" points="413.602,465.975 357.27,433.197 402.312,407.213 458.653,439.992 						"/>
					</g>
					<g>
						<polygon fill="#8A8580" points="413.602,465.975 413.773,481.756 357.366,449.109 357.27,433.197 						"/>
					</g>
					<g>
						<polygon fill="#78736F" points="458.653,439.992 458.653,455.773 413.773,481.756 413.602,465.975 						"/>
						<polygon fill="#5F5956" points="458.653,439.992 458.653,454.182 413.764,480.27 413.602,465.975 						"/>
					</g>
				</g>
			</g>
			<polygon fill="#6E6965" points="401.074,472.383 400.999,460.508 406.302,463.564 406.376,475.445 			"/>
			<path fill="#6E6965" d="M359.535,442.453c0.01-2.613,1.852-3.68,4.115-2.367c2.272,1.313,4.105,4.498,4.105,7.133
				c0,2.594-1.843,3.67-4.115,2.357C361.377,448.262,359.535,445.068,359.535,442.453z"/>
		</g>
		<g>
			<g>
				<g enable-background="new    ">
					<g>
						<polygon fill="#78736F" points="413.602,450.107 357.27,417.33 402.312,391.348 458.653,424.135 						"/>
					</g>
					<g>
						<polygon fill="#8A8580" points="413.602,450.107 413.773,465.895 357.366,433.252 357.27,417.33 						"/>
					</g>
					<g>
						<polygon fill="#78736F" points="458.653,424.135 458.653,439.92 413.773,465.895 413.602,450.107 						"/>
						<polygon fill="#5F5956" points="458.653,424.135 458.653,438.326 413.764,464.416 413.602,450.107 						"/>
					</g>
				</g>
			</g>
			<polygon fill="#6E6965" points="401.074,456.508 400.999,444.635 406.302,447.719 406.376,459.584 			"/>
			<path fill="#6E6965" d="M359.535,426.596c0.01-2.621,1.852-3.689,4.115-2.367c2.272,1.299,4.105,4.498,4.105,7.119
				c0,2.617-1.843,3.68-4.115,2.367C361.377,432.396,359.535,429.207,359.535,426.596z"/>
		</g>
		<g>
			<g>
				<g enable-background="new    ">
					<g>
						<polygon fill="#78736F" points="413.602,434.063 357.27,401.295 402.312,375.297 458.653,408.09 						"/>
					</g>
					<g>
						<polygon fill="#8A8580" points="413.602,434.063 413.773,449.857 357.366,417.199 357.27,401.295 						"/>
					</g>
					<g>
						<polygon fill="#78736F" points="458.653,408.09 458.653,423.881 413.773,449.857 413.602,434.063 						"/>
						<polygon fill="#5F5956" points="458.653,408.09 458.653,422.281 413.764,448.361 413.602,434.063 						"/>
					</g>
				</g>
			</g>
			<polygon fill="#6E6965" points="401.074,440.467 400.999,428.6 406.302,431.672 406.376,443.539 			"/>
			<path fill="#6E6965" d="M359.535,410.551c0.01-2.611,1.852-3.68,4.115-2.377c2.272,1.309,4.105,4.508,4.105,7.119
				s-1.843,3.689-4.115,2.377C361.377,416.361,359.535,413.162,359.535,410.551z"/>
		</g>
	</g>
	<g>
		<g>
			<polygon fill="#D3CFC8" points="414.341,389.174 414.341,399.318 251.167,305.024 251.186,294.818 			"/>
		</g>
		<polygon fill="#B6B0A7" points="314.07,258.512 251.33,294.983 420.116,392.51 482.857,356.053 		"/>
		<g>
			<polygon fill="#74716A" points="482.857,356.043 482.819,366.25 419.942,402.857 419.979,392.656 			"/>
		</g>
	</g>
	<g>
		<g>
			<g>
				<g enable-background="new    ">
					<g>
						<polygon fill="#C8C2BA" points="279.141,237.117 279.333,305.25 326.426,278.077 326.227,209.929 						"/>
					</g>
					<g>
						<polygon fill="#D8D1C7" points="279.141,237.117 258.736,225.02 258.764,293.204 279.333,305.25 						"/>
					</g>
					<g>
						<polygon fill="#B4AB9E" points="326.227,209.929 305.829,197.827 258.736,225.02 279.141,237.117 						"/>
						<polygon fill="#616E73" points="326.227,209.929 307.432,198.806 260.347,225.993 279.141,237.117 						"/>
					</g>
				</g>
			</g>
			<polygon fill="#EBE9E6" points="262.093,279.126 275.936,287.186 275.936,240.533 262.093,232.468 			"/>
			<path fill="#616E73" d="M267.916,295.99c2.38,1.374,4.298,0.263,4.298-2.475c0-2.748-1.917-6.074-4.298-7.435
				c-2.36-1.383-4.29-0.263-4.29,2.475C263.626,291.294,265.556,294.625,267.916,295.99z"/>
		</g>
		<g>
			<g>
				<g enable-background="new    ">
					<g>
						<polygon fill="#C8C2BA" points="300.698,249.765 300.889,317.908 347.975,290.72 347.772,222.577 						"/>
					</g>
					<g>
						<polygon fill="#D8D1C7" points="300.698,249.765 280.281,237.671 280.321,305.852 300.889,317.908 						"/>
					</g>
					<g>
						<polygon fill="#B4AB9E" points="347.772,222.577 327.377,210.485 280.281,237.671 300.698,249.765 						"/>
						<polygon fill="#616E73" points="347.772,222.577 328.988,211.473 281.905,238.651 300.698,249.765 						"/>
					</g>
				</g>
			</g>
			<polygon fill="#EBE9E6" points="283.641,291.774 297.494,299.83 297.494,253.19 283.641,245.125 			"/>
			<path fill="#616E73" d="M289.482,308.642c2.37,1.37,4.299,0.264,4.299-2.47c0-2.738-1.929-6.079-4.299-7.439
				c-2.359-1.37-4.298-0.268-4.298,2.48C285.185,303.946,287.123,307.282,289.482,308.642z"/>
		</g>
		<g>
			<g>
				<g enable-background="new    ">
					<g>
						<polygon fill="#C8C2BA" points="322.427,262.474 322.619,330.615 369.713,303.434 369.513,235.296 						"/>
					</g>
					<g>
						<polygon fill="#D8D1C7" points="322.427,262.474 302.022,250.376 302.051,318.557 322.619,330.615 						"/>
					</g>
					<g>
						<polygon fill="#B4AB9E" points="369.513,235.296 349.116,223.189 302.022,250.376 322.427,262.474 						"/>
						<polygon fill="#616E73" points="369.513,235.296 350.717,224.172 303.624,251.35 322.427,262.474 						"/>
					</g>
				</g>
			</g>
			<polygon fill="#EBE9E6" points="305.379,304.487 319.223,312.542 319.223,265.89 305.379,257.834 			"/>
			<path fill="#616E73" d="M311.202,321.351c2.379,1.374,4.309,0.264,4.309-2.466c0-2.756-1.93-6.083-4.309-7.452
				c-2.351-1.36-4.289-0.254-4.289,2.483C306.913,316.655,308.852,319.992,311.202,321.351z"/>
		</g>
		<g>
			<g>
				<g enable-background="new    ">
					<g>
						<polygon fill="#C8C2BA" points="343.984,275.126 344.175,343.27 391.271,316.086 391.067,247.944 						"/>
					</g>
					<g>
						<polygon fill="#D8D1C7" points="343.984,275.126 323.577,263.038 323.596,331.213 344.175,343.27 						"/>
					</g>
					<g>
						<polygon fill="#B4AB9E" points="391.067,247.944 370.674,235.851 323.577,263.038 343.984,275.126 						"/>
						<polygon fill="#616E73" points="391.067,247.944 372.274,236.82 325.18,264.017 343.984,275.126 						"/>
					</g>
				</g>
			</g>
			<polygon fill="#EBE9E6" points="326.926,317.146 340.779,325.196 340.779,278.552 326.926,270.496 			"/>
			<path fill="#616E73" d="M332.769,334.018c2.37,1.365,4.299,0.254,4.299-2.48c0-2.762-1.929-6.087-4.299-7.447
				c-2.368-1.374-4.298-0.254-4.298,2.474C328.471,329.293,330.4,332.635,332.769,334.018z"/>
		</g>
	</g>
	<g>
		<g>
			<g enable-background="new    ">
				<g>
					<polygon fill="#204048" points="417.909,337.787 417.909,382.775 365.981,352.787 365.789,308.271 					"/>
				</g>
				<g>
					<polygon fill="#173339" points="418.034,338.803 461.225,313.701 461.1,357.668 417.909,382.775 					"/>
				</g>
				<g>
					<polygon fill="#D89E2B" points="366.098,308.816 409.294,283.723 461.225,313.701 418.034,338.803 					"/>
				</g>
			</g>
		</g>
		<g>
			<g enable-background="new    ">
				<g>
					<polygon fill="#416C73" points="418.081,334.809 418.063,340.605 364.926,309.932 364.956,304.144 					"/>
				</g>
				<g>
					<polygon fill="#1F4248" points="418.081,334.809 462.279,309.131 462.26,314.923 418.063,340.605 					"/>
				</g>
				<g>
					<polygon fill="#294E57" points="364.956,304.144 409.15,278.458 462.279,309.131 418.081,334.809 					"/>
				</g>
			</g>
		</g>
		<g>
			<path fill="#AEB1B2" d="M377.668,327.633v15.674l27.664,15.975v-15.674L377.668,327.633z M401.928,353.385l-20.846-12.045v-7.811
				l20.846,12.045V353.385z"/>
		</g>
	</g>
	<g>
		<g>
			<polygon fill="#D3CFC8" points="414.254,291.642 414.254,301.787 251.08,207.487 251.108,197.291 			"/>
		</g>
		<polygon fill="#B6B0A7" points="313.985,160.984 251.243,197.441 420.029,294.983 482.77,258.512 		"/>
		<g>
			<polygon fill="#74716A" points="482.77,258.512 482.742,268.713 419.855,305.315 419.896,295.115 			"/>
		</g>
	</g>
	<g>
		<g>
			<g>
				<g enable-background="new    ">
					<g>
						<polygon fill="#78736F" points="276.799,137.792 276.992,202.97 322.034,176.974 321.832,111.795 						"/>
					</g>
					<g>
						<polygon fill="#8A8580" points="276.799,137.792 263.225,129.75 263.252,194.928 276.992,202.97 						"/>
					</g>
					<g>
						<polygon fill="#78736F" points="321.832,111.795 308.267,103.744 263.225,129.75 276.799,137.792 						"/>
						<polygon fill="#6E6965" points="321.832,111.795 309.638,104.501 264.596,130.499 276.799,137.792 						"/>
					</g>
				</g>
			</g>
			<polygon fill="#6E6965" points="264.991,145.687 275.225,151.691 275.225,145.311 264.991,139.307 			"/>
			<path fill="#6E6965" d="M270.104,196.378c2.263,1.308,4.114,0.249,4.114-2.372c0-2.625-1.851-5.82-4.114-7.124
				c-2.264-1.298-4.115-0.244-4.115,2.381C265.989,191.88,267.84,195.07,270.104,196.378z"/>
		</g>
		<g>
			<g>
				<g enable-background="new    ">
					<g>
						<polygon fill="#78736F" points="292.092,147.01 292.275,212.188 337.308,186.187 337.123,121.013 						"/>
					</g>
					<g>
						<polygon fill="#8A8580" points="292.092,147.01 278.507,138.963 278.545,204.142 292.275,212.188 						"/>
					</g>
					<g>
						<polygon fill="#78736F" points="337.123,121.013 323.549,112.957 278.507,138.963 292.092,147.01 						"/>
						<polygon fill="#6E6965" points="337.123,121.013 324.92,113.72 279.898,139.716 292.092,147.01 						"/>
					</g>
				</g>
			</g>
			<polygon fill="#6E6965" points="280.272,154.646 290.518,160.373 290.518,154.529 280.272,148.525 			"/>
			<path fill="#6E6965" d="M285.396,205.591c2.264,1.313,4.097,0.254,4.097-2.367c0-2.63-1.833-5.821-4.097-7.124
				c-2.263-1.313-4.114-0.25-4.114,2.376C281.281,201.093,283.133,204.288,285.396,205.591z"/>
		</g>
		<g>
			<g>
				<g enable-background="new    ">
					<g>
						<polygon fill="#78736F" points="307.347,155.836 307.537,221.01 352.569,195.013 352.379,129.835 						"/>
					</g>
					<g>
						<polygon fill="#8A8580" points="307.347,155.836 293.771,147.791 293.8,212.969 307.537,221.01 						"/>
					</g>
					<g>
						<polygon fill="#78736F" points="352.379,129.835 338.804,121.789 293.771,147.791 307.347,155.836 						"/>
						<polygon fill="#6E6965" points="352.379,129.835 340.185,122.537 295.152,148.535 307.347,155.836 						"/>
					</g>
				</g>
			</g>
			<polygon fill="#6E6965" points="295.526,163.309 305.772,169.238 305.772,163.356 295.526,157.361 			"/>
			<path fill="#6E6965" d="M300.648,214.414c2.266,1.313,4.117,0.254,4.117-2.367c0-2.625-1.852-5.811-4.117-7.109
				c-2.273-1.313-4.115-0.259-4.115,2.366C296.533,209.92,298.375,213.11,300.648,214.414z"/>
		</g>
		<g>
			<g>
				<g enable-background="new    ">
					<g>
						<polygon fill="#78736F" points="322.523,164.598 322.714,229.767 367.756,203.77 367.565,138.596 						"/>
					</g>
					<g>
						<polygon fill="#8A8580" points="322.523,164.598 308.948,156.557 308.977,221.726 322.714,229.767 						"/>
					</g>
					<g>
						<polygon fill="#78736F" points="367.565,138.596 353.99,130.55 308.948,156.557 322.523,164.598 						"/>
						<polygon fill="#6E6965" points="367.565,138.596 355.371,131.294 310.339,157.3 322.523,164.598 						"/>
					</g>
				</g>
			</g>
			<polygon fill="#6E6965" points="310.713,172.08 320.949,178.074 320.949,172.117 310.713,166.113 			"/>
			<path fill="#6E6965" d="M315.825,223.184c2.275,1.299,4.117,0.254,4.117-2.372c0-2.63-1.842-5.82-4.117-7.128
				c-2.264-1.304-4.105-0.235-4.105,2.381C311.72,218.681,313.562,221.872,315.825,223.184z"/>
		</g>
		<g>
			<g>
				<g enable-background="new    ">
					<g>
						<polygon fill="#78736F" points="338.065,173.435 338.246,238.613 383.288,212.621 383.097,147.452 						"/>
					</g>
					<g>
						<polygon fill="#8A8580" points="338.065,173.435 324.48,165.398 324.519,230.567 338.246,238.613 						"/>
					</g>
					<g>
						<polygon fill="#78736F" points="383.097,147.452 369.522,139.392 324.48,165.398 338.065,173.435 						"/>
						<polygon fill="#6E6965" points="383.097,147.452 370.903,140.14 325.871,166.142 338.065,173.435 						"/>
					</g>
				</g>
			</g>
			<polygon fill="#6E6965" points="326.245,181.053 336.482,187.052 336.482,180.963 326.245,174.959 			"/>
			<path fill="#6E6965" d="M331.357,232.026c2.275,1.303,4.117,0.244,4.117-2.376c0-2.621-1.842-5.811-4.117-7.12
				c-2.263-1.303-4.105-0.244-4.105,2.381C327.252,227.527,329.095,230.717,331.357,232.026z"/>
		</g>
		<g>
			<g>
				<g enable-background="new    ">
					<g>
						<polygon fill="#78736F" points="353.625,182.385 353.816,247.553 398.858,221.561 398.667,156.374 						"/>
					</g>
					<g>
						<polygon fill="#8A8580" points="353.625,182.385 340.051,174.333 340.079,239.512 353.816,247.553 						"/>
					</g>
					<g>
						<polygon fill="#78736F" points="398.667,156.374 385.093,148.318 340.051,174.333 353.625,182.385 						"/>
						<polygon fill="#6E6965" points="398.667,156.374 386.474,149.08 341.432,175.082 353.625,182.385 						"/>
					</g>
				</g>
			</g>
			<polygon fill="#6E6965" points="341.815,190.035 352.052,196.02 352.052,189.898 341.815,183.899 			"/>
			<path fill="#6E6965" d="M346.931,240.966c2.272,1.294,4.114,0.245,4.114-2.376c0-2.63-1.842-5.811-4.114-7.119
				c-2.266-1.313-4.108-0.235-4.108,2.372C342.822,236.458,344.665,239.648,346.931,240.966z"/>
		</g>
	</g>
	<g>
		<g>
			<g>
				<g enable-background="new    ">
					<g>
						<polygon fill="#E5D0B7" points="393.948,205.172 394.129,270.341 439.169,244.344 438.984,179.166 						"/>
					</g>
					<g>
						<polygon fill="#FFECDA" points="393.948,205.172 374.423,193.607 374.454,258.817 394.129,270.341 						"/>
					</g>
					<g>
						<polygon fill="#B4AB9E" points="438.984,179.166 419.472,167.601 374.423,193.607 393.948,205.172 						"/>
						<polygon fill="#BF9D7C" points="438.984,179.166 421.009,168.532 375.969,194.524 393.948,205.172 						"/>
					</g>
				</g>
			</g>
			<polygon fill="#E2CCB0" points="377.638,211.699 390.888,219.406 390.888,211.538 377.638,203.821 			"/>
			<path fill="#BF9D7C" d="M383.213,259.354c2.271,1.308,4.115,0.245,4.115-2.371c0-2.626-1.844-5.812-4.115-7.124
				c-2.257-1.308-4.107-0.24-4.107,2.381C379.105,254.855,380.956,258.041,383.213,259.354z"/>
		</g>
		<g>
			<g>
				<g enable-background="new    ">
					<g>
						<polygon fill="#E5D0B7" points="417.62,218.681 417.813,283.85 462.855,257.858 462.661,192.68 						"/>
					</g>
					<g>
						<polygon fill="#FFECDA" points="417.62,218.681 398.119,207.116 398.138,272.322 417.813,283.85 						"/>
					</g>
					<g>
						<polygon fill="#B4AB9E" points="462.661,192.68 443.159,181.114 398.119,207.116 417.62,218.681 						"/>
						<polygon fill="#BF9D7C" points="462.661,192.68 444.686,182.055 399.656,208.047 417.62,218.681 						"/>
					</g>
				</g>
			</g>
			<polygon fill="#E2CCB0" points="401.313,225.198 414.571,232.911 414.571,225.043 401.313,217.345 			"/>
			<path fill="#BF9D7C" d="M406.895,272.863c2.275,1.313,4.117,0.254,4.117-2.367c0-2.621-1.842-5.825-4.117-7.124
				c-2.264-1.308-4.103-0.245-4.103,2.371C402.792,268.374,404.631,271.56,406.895,272.863z"/>
		</g>
		<g>
			<polygon fill="#E2CCB0" points="393.755,230.783 378.348,221.89 378.348,221.42 393.755,230.313 			"/>
			<polygon fill="#E2CCB0" points="393.755,237.879 378.348,228.986 378.348,228.506 393.755,237.408 			"/>
			<polygon fill="#E2CCB0" points="393.755,244.965 378.348,236.082 378.348,235.602 393.755,244.49 			"/>
			<polygon fill="#E2CCB0" points="393.746,252.051 378.338,243.167 378.338,242.692 393.746,251.585 			"/>
		</g>
	</g>
	<g>
		<g enable-background="new    ">
			<polygon fill="#B6B0A7" points="487.904,158.284 313.658,57.515 245.66,97.067 332.769,147.452 419.896,197.827 			"/>
			<g>
				<polygon fill="#74716A" points="487.904,158.284 487.866,168.48 419.855,208.038 419.896,197.827 				"/>
			</g>
			<polygon fill="#D3CFC8" points="419.896,197.827 245.688,97.067 245.66,107.264 419.855,208.038 			"/>
		</g>
	</g>
	<g>
		<g>
			<g enable-background="new    ">
				<g>
					<polygon fill="#DC9C2C" points="300.458,384.936 300.38,414.328 265.652,394.279 265.73,364.875 					"/>
				</g>
				<g>
					<polygon fill="#C18D2C" points="300.458,384.936 329.344,368.137 329.267,397.535 300.38,414.328 					"/>
				</g>
				<g>
					<polygon fill="#D89E2B" points="265.73,364.875 294.606,348.088 329.344,368.137 300.458,384.936 					"/>
				</g>
			</g>
		</g>
		<g>
			<g enable-background="new    ">
				<g>
					<polygon fill="#FAA42F" points="300.496,382.266 300.477,386.135 264.942,365.613 264.951,361.732 					"/>
				</g>
				<g>
					<polygon fill="#B37F2C" points="300.496,382.266 330.055,365.082 330.045,368.949 300.477,386.135 					"/>
				</g>
				<g>
					<polygon fill="#C9882A" points="264.951,361.732 294.51,344.559 330.055,365.082 300.496,382.266 					"/>
				</g>
			</g>
		</g>
		<g>
			<path fill="#FFFFFF" d="M273.46,377.449v10.492l18.506,10.672v-10.488L273.46,377.449z M289.694,394.68l-13.948-8.061v-5.229
				l13.948,8.066V394.68z"/>
		</g>
	</g>
</g>
</svg>
