<?xml version="1.0" encoding="utf-8"?>
<!-- Generator: Adobe Illustrator 16.0.0, SVG Export Plug-In . SVG Version: 6.00 Build 0)  -->
<!DOCTYPE svg PUBLIC "-//W3C//DTD SVG 1.1//EN" "http://www.w3.org/Graphics/SVG/1.1/DTD/svg11.dtd">
<svg version="1.1" id="Layer_1" xmlns="http://www.w3.org/2000/svg" xmlns:xlink="http://www.w3.org/1999/xlink" x="0px" y="0px"
	 width="650px" height="650px" viewBox="0 0 650 650" enable-background="new 0 0 650 650" xml:space="preserve">
<g>
	<path opacity="0.5" fill="#E1E3E4" d="M217.904,468.351c18.266,10.544,18.266,27.639,0,38.16c-18.247,10.554-47.853,10.554-66.11,0
		c-18.256-10.521-18.256-27.616,0-38.16C170.051,457.801,199.648,457.801,217.904,468.351z"/>
	<linearGradient id="SVGID_1_" gradientUnits="userSpaceOnUse" x1="294.6289" y1="229.1406" x2="168.3545" y2="187.3251">
		<stop  offset="0.01" style="stop-color:#DAA192"/>
		<stop  offset="0.99" style="stop-color:#DE817B"/>
	</linearGradient>
	<path fill="url(#SVGID_1_)" d="M200.558,166.636c0,0,11.396,22.34,17.68,35.506c6.275,13.179,9.479,17.861,13.335,19.819
		c3.849,1.967,32.629,12.29,32.629,12.29l14.6,3.769l-13.403,7.74c0,0-20.72-2.174-28.549-4.804
		c-7.818-2.649-26.065-4.691-31.083-22.285c0,0-1.362-10.234-1.362-24.656C204.405,179.613,200.558,166.636,200.558,166.636z"/>
	<path fill="#CA7028" d="M163,113.879c0,0-1.228-5.12-7.322-5.44c-6.082-0.314-19.924,9.75-15.271,24.534
		c3.741,11.942,12.643,17.922,1.322,29.568c0,0,10.947,7.547,19.148-2.833c8.213-10.38,5.22-19.504-1.141-28.627
		c-6.369-9.124-1.285-11.951-1.285-11.951L163,113.879z"/>
	<path fill="#E82642" d="M147.209,213.021c1.543,1.882,2.992,3.614,4.298,5.228c5.564,6.879,8.883,11.758,8.498,18.374
		c0.71-1.43,1.124-2.202,1.124-2.202c11.636-5.703,11.318-20.106,11.318-20.106l1.537-0.409c1.007-0.301,2.042-0.617,3.08-0.979
		c15.138-5.331,31.102-17.739,31.102-17.739c3.99,6.725,3.962,11.867,2.666,16.323c4.327-5.336,1.892-15.137-2.176-23.644
		c-6.611-13.848-12.711-22.313-22.882-30.834c-0.919-0.768-2.254-0.588-3.376-0.626c-1.776-0.08-3.578,0.216-5.392,0.979
		c-5.006,2.113-10.427,4.715-15.561,7.434c-0.901,0.48-1.792,0.951-2.656,1.45c-0.021,0-0.059,0-0.097,0.038
		c-1.028,0.564-2.035,1.124-3.014,1.684c-7.874,4.479-14.332,8.893-16.52,11.528C135.093,184.402,136.944,200.453,147.209,213.021z"
		/>
	<path fill="#19AF91" d="M146.527,345.898c0.203,0.095,0.471,0.15,0.711,0.212c1.842,0.532,4.086,0.743,6.695,0.726
		c7.695-0.165,18.363-2.641,29.357-6.386c1.889-0.649,3.75-1.355,5.661-2.065c12.49-4.738,24.684-10.87,32.685-16.77
		c0.181-0.118,0.336-0.236,0.508-0.352c2.369-27.847-0.683-54.846-2.101-60.596c0,0-4.24-11.914-11.944-23.272
		c-2.216-3.322-3.223-7.048-3.404-10.549c-0.299-5.778,1.572-10.982,3.972-13.057l0.038-0.071c0.816-0.697,1.534-1.445,2.128-2.207
		c1.296-4.457,1.325-9.599-2.666-16.323c0,0-19.438,15.104-35.718,19.127c0,0,0.318,14.403-11.318,20.106
		c0,0-0.414,0.772-1.124,2.202c-0.116,2.184-0.652,4.583-1.688,7.308c-1.804,4.804-11.398,18.073-13.979,38.137
		C141.434,304.831,145.704,334.912,146.527,345.898z"/>
	<path fill="#EE2F53" d="M207.609,464.877c5.23,4.028,18.094,14.889,16.664,18.851c-1.409,3.933-11.848,5.999-18.765-0.34
		c-6.926-6.343-11.032-9.429-15.081-10.666c-4.04-1.242-3.366-6.762-1.122-9.273C192.155,460.295,199.982,459.034,207.609,464.877z"
		/>
	
		<linearGradient id="SVGID_2_" gradientUnits="userSpaceOnUse" x1="1311.6396" y1="503.4736" x2="1384.3334" y2="451.6644" gradientTransform="matrix(-0.9998 -0.0179 -0.0179 0.9998 1534.8853 -2.4248)">
		<stop  offset="0.01" style="stop-color:#DAA192"/>
		<stop  offset="0.99" style="stop-color:#DE817B"/>
	</linearGradient>
	<path fill="url(#SVGID_2_)" d="M202.793,461.208c0,0,9.488,5.824,9.392,11.235c-0.01,0.678-0.163,1.346-0.527,1.995
		c-1.603,2.965-7.101,1.826-12.241-0.875c-4.99-2.645-9.641-6.766-10.121-10.107C195.051,467.978,202.793,461.208,202.793,461.208z"
		/>
	<path fill="#EE2F53" d="M166.703,482.692c1.708,3.886,4.308,8.799,7.042,11.585c2.725,2.757,11.502,11.057,3.722,15.356
		c-7.78,4.32-22.536-9.928-24.416-16.416c-1.879-6.484-0.451-10.018,1.603-10.742C156.707,481.732,166.703,482.692,166.703,482.692z
		"/>
	
		<linearGradient id="SVGID_3_" gradientUnits="userSpaceOnUse" x1="1350.3467" y1="524.5127" x2="1421.4659" y2="473.8256" gradientTransform="matrix(-0.9998 -0.0179 -0.0179 0.9998 1534.8853 -2.4248)">
		<stop  offset="0.01" style="stop-color:#DAA192"/>
		<stop  offset="0.99" style="stop-color:#DE817B"/>
	</linearGradient>
	<path fill="url(#SVGID_3_)" d="M166.127,482.81c0,0,7.185,13.566,3.981,15.321c-2.522,1.431-11.194-3.101-15.052-8.324
		c-1.007-1.337-1.687-2.702-1.852-4.051c-0.106-0.334-0.209-0.989-0.334-1.859C156.514,488.456,165.102,483.572,166.127,482.81z"/>
	<path fill="#2D133D" d="M150.729,426.289c-0.325,4.767-1.447,14.216-1.209,25.672c0.271,13.589,2.879,28.647,3.35,31.926
		c0.892,1.129,2.07,1.662,3.376,1.869c3.99,0.559,9.095-2.358,9.862-2.932c1.689-7.275,3.588-19.814,5.361-33.047
		c1.084-13.038,5.211-44.403,6.219-52.252c0.084-0.621,0.143-1.092,0.181-1.388c0.019-0.08,0.019-0.207,0.05-0.296
		c0.296-2.551,1.007-8.832,1.898-21.033c0.826-11.33,2.494-26.086,3.473-34.358c-10.698,3.642-21.068,6.106-28.743,6.339
		c-2.839,0.079-5.324-0.118-7.31-0.679c0.48,8.022,1.266,26.448,2.253,34.599C150.614,390.186,152.101,406.32,150.729,426.289z"/>
	<path fill="#2D133D" d="M188.202,452.521c0.383,6.869,1.094,10.935,1.094,10.935c0.835,0.646,1.688,1.068,2.581,1.304
		c5.247,1.426,10.926-3.552,10.926-3.552c0.355-2.042,1.958-13.156,3.993-27.72c4.891-34.42,12.325-88.322,12.325-88.322
		c1.362-8.678,2.101-17.232,2.515-23.551c-6.842,5.04-16.732,10.244-27.237,14.606c-1.814,0.738-3.616,1.486-5.448,2.164
		c0.115,0.859,0.192,1.712,0.268,2.574c0.701,8.121,1.736,43.683,1.381,49.113c0,0-1.247,21.912-2.042,38.382
		C188.23,437.21,188.059,445.868,188.202,452.521z"/>
	
		<linearGradient id="SVGID_4_" gradientUnits="userSpaceOnUse" x1="1300.9316" y1="488.457" x2="1373.6206" y2="436.6512" gradientTransform="matrix(-0.9998 -0.0179 -0.0179 0.9998 1534.8853 -2.4248)">
		<stop  offset="0.01" style="stop-color:#DAA192"/>
		<stop  offset="0.99" style="stop-color:#DE817B"/>
	</linearGradient>
	<path fill="url(#SVGID_4_)" d="M202.793,461.208c0.364-2.042,1.957-13.156,4.021-27.71
		C205.327,445.233,203.868,455.669,202.793,461.208z"/>
	
		<linearGradient id="SVGID_5_" gradientUnits="userSpaceOnUse" x1="1288.3896" y1="470.915" x2="1361.1162" y2="419.0824" gradientTransform="matrix(-0.9998 -0.0179 -0.0179 0.9998 1534.8853 -2.4248)">
		<stop  offset="0.01" style="stop-color:#DAA192"/>
		<stop  offset="0.99" style="stop-color:#DE817B"/>
	</linearGradient>
	<path fill="url(#SVGID_5_)" d="M190.608,390.072c0,0-1.247,21.912-2.06,38.377C189.247,409.439,190.608,390.072,190.608,390.072z"
		/>
	
		<linearGradient id="SVGID_6_" gradientUnits="userSpaceOnUse" x1="1311.4492" y1="503.1934" x2="1384.1241" y2="451.3975" gradientTransform="matrix(-0.9998 -0.0179 -0.0179 0.9998 1534.8853 -2.4248)">
		<stop  offset="0.01" style="stop-color:#DAA192"/>
		<stop  offset="0.99" style="stop-color:#DE817B"/>
	</linearGradient>
	<path fill="url(#SVGID_6_)" d="M188.211,452.541c0.374,6.869,1.084,10.915,1.084,10.915
		C188.673,461.621,188.336,457.669,188.211,452.541z"/>
	<path fill="#2D133D" d="M166.127,482.81c1.659-7.261,3.569-19.79,5.353-33.04C170.272,464.248,167.203,482.005,166.127,482.81z"/>
	<path fill="#2D133D" d="M152.178,482.81c0,0-0.402-7.59-0.807-17.367c0.451,8.356,1.027,15.174,1.499,18.454
		C152.621,483.581,152.38,483.229,152.178,482.81z"/>
	<path fill="#2D133D" d="M188.211,452.541c-0.23-4.245-0.327-9.553-0.068-15.65c0.116-2.499,0.25-5.378,0.405-8.441
		C188.23,437.21,188.049,445.878,188.211,452.541z"/>
	<path fill="#19AF91" d="M155.679,167.991c2.543,10.695,9.164,31.159,16.77,46.324l1.537-0.409l3.164-0.829
		c0,0-0.028-0.056-0.084-0.15c-1.037-2.192-13.833-29.088-18.275-46.658c-0.021,0-0.059,0-0.097,0.038
		C157.665,166.871,156.657,167.431,155.679,167.991z"/>
	<path opacity="0.3" fill="#19AF91" d="M146.527,345.898c0.203,0.095,0.471,0.15,0.711,0.212c1.842,0.532,4.086,0.743,6.695,0.726
		c-1.811-11.59-5.006-26.101-3.915-49.957c1.219-26.769,10.218-51.344,13.509-57.217c3.261-5.825,13.363-15.132,8.921-25.348
		c0,0,0.318,14.403-11.318,20.106c0,0-0.414,0.772-1.124,2.202c-0.116,2.184-0.652,4.583-1.688,7.308
		c-1.804,4.804-11.398,18.073-13.979,38.137C141.434,304.831,145.704,334.912,146.527,345.898z"/>
	<path fill="#19AF91" d="M182.388,156.406c5.084,8.742,19.657,33.746,23.332,41.67l2.936-2.042c0,0-12.646-25.168-22.901-39.002
		C184.633,156.669,183.511,156.425,182.388,156.406z"/>
	<path opacity="0.3" fill="#2D133D" d="M150.729,426.289c-0.325,4.767-1.447,14.216-1.209,25.672
		c0.271,13.589,2.879,28.647,3.35,31.926c0.892,1.129,2.07,1.662,3.376,1.869c-3.205-11.224-4.124-16.827-4.068-34.236
		c0.068-19.005,2.235-29.498,2.494-41.911c0.24-11.02-0.355-48.182-0.125-62.819c-2.839,0.079-5.324-0.118-7.31-0.679
		c0.48,8.022,1.266,26.448,2.253,34.599C150.614,390.186,152.101,406.32,150.729,426.289z"/>
	<path opacity="0.3" fill="#2D133D" d="M188.202,452.521c0.383,6.869,1.094,10.935,1.094,10.935
		c0.835,0.646,1.688,1.068,2.581,1.304c-1.037-9.18-1.371-27.168,0.527-39.04c2.169-13.833,5.009-37.728,4.27-54.337
		c-0.501-11.557-1.661-26.895-2.275-35.162c-1.814,0.738-3.616,1.486-5.448,2.164c0.115,0.859,0.192,1.712,0.268,2.574
		c0.701,8.121,1.736,43.683,1.381,49.113c0,0-1.247,21.912-2.042,38.382C188.23,437.21,188.059,445.868,188.202,452.521z"/>
	<g>
		<path fill="#DC1D40" d="M140.417,178.225c-0.134,0.08-0.29,0.165-0.434,0.278c-0.997,0.743-2.004,1.646-3.021,2.852
			c-3.397,3.896-0.499,17.678,5.583,32.222c0.066-0.01,0.143-0.015,0.221-0.028c1.696-0.113,3.31-0.368,4.872-0.729
			c7.503-1.652,13.366-5.548,16.291-7.778c0.239-0.184,0.499-0.381,0.701-0.546C158.194,188.078,150.27,171.825,140.417,178.225z"/>
		<path opacity="0.3" fill="#DC1D40" d="M142.546,213.576c1.765-0.113,3.463-0.386,5.093-0.758
			c-6.034-13.58-8.057-25.941-7.222-34.594c-0.134,0.08-0.29,0.165-0.434,0.278c-0.997,0.743-2.004,1.646-3.021,2.852
			C133.566,185.25,136.465,199.032,142.546,213.576z"/>
	</g>
	<path fill="#D61E46" d="M184.854,156.769c2.877,0.108,9.853,2.113,13.968,7.326c5.583,7.077,5.583,15.518,5.583,15.518
		s-7.089-11.217-11.281-15.683C188.913,159.47,184.854,156.769,184.854,156.769z"/>
	<g>
		<path fill="#D2D8DA" d="M184.854,171.407c1.209,4.451,4.173,23.979,2.637,30.735c0,0-3.03-3.439-11.732-11.416
			c-8.7-7.971-14.881-19.555-14.881-19.555s6.727,5.566,15.149,4.088C183.452,173.957,184.854,171.407,184.854,171.407z"/>
		
			<linearGradient id="SVGID_7_" gradientUnits="userSpaceOnUse" x1="1351.4316" y1="159.5229" x2="1365.0184" y2="183.9373" gradientTransform="matrix(-1 0 0 1 1528.1152 0)">
			<stop  offset="0.01" style="stop-color:#DAA192"/>
			<stop  offset="0.99" style="stop-color:#DE817B"/>
		</linearGradient>
		<path fill="url(#SVGID_7_)" d="M182.676,163.106l2.179,8.3c0,0-3.79,5.185-15.292,3.746c-11.502-1.44-10.399-8.667-8.921-10.371
			c1.487-1.694,5.006-11.994,5.006-11.994s4.75,5.388,8.787,7.072C178.483,161.554,182.676,163.106,182.676,163.106z"/>
		<g>
			
				<linearGradient id="SVGID_8_" gradientUnits="userSpaceOnUse" x1="1345.042" y1="120.6611" x2="1361.7625" y2="167.7092" gradientTransform="matrix(-1 0 0 1 1528.1152 0)">
				<stop  offset="0.01" style="stop-color:#DAA192"/>
				<stop  offset="0.99" style="stop-color:#DE817B"/>
			</linearGradient>
			<path fill="url(#SVGID_8_)" d="M156.246,141.151c1.717-0.828,3.195-0.537,3.934,0.254c1.852-12.309,10.542-24.035,26.851-18.041
				c9.096,3.35,7.465,35.506-1.39,40.494c-5.247,2.946-18.151-0.499-23.6-10.38c-0.009,0,0,0.254,0,0.263
				C157.935,155.634,151.767,143.279,156.246,141.151z"/>
		</g>
	</g>
	<path fill="#CA7028" d="M160.18,141.406c-2.101-0.753-7.225-0.564-4.501,6.982c0,0-8.987-10.676-4.202-21.39
		c6.976-15.565,22.717-19.824,33.377-12.271c10.667,7.547,8.067,12.309,5.9,12.601c-2.15,0.301-8.884,4.084-16.848,0.617
		c-7.973-3.454-11.415,3.769-11.1,7.542c0.317,3.773-0.633,7.83-0.633,7.83L160.18,141.406z"/>
	<path fill="#1397BC" d="M155.862,119.875c0,0-3.522-3.896,0-7.04c5.67-5.035,10.024-0.311,10.024-0.311
		S159.584,114.171,155.862,119.875z"/>
	<g>
		<path fill="#A4CEE5" d="M219.697,287.068L219.697,287.068l3.684-3.289l-3.204-3.6l-3.694,3.308l0.009,0.01
			c-0.287,0.226-0.412,0.645-0.296,1.204c0.231,1.054,1.247,2.193,2.282,2.532C219.008,287.412,219.438,287.332,219.697,287.068z"/>
		<path fill="#A4CEE5" d="M223.659,282.589c0.211,1.063-0.44,1.651-1.468,1.313c-1.036-0.329-2.052-1.468-2.282-2.531
			c-0.221-1.073,0.439-1.651,1.468-1.317C222.412,280.396,223.429,281.521,223.659,282.589z"/>
		<path fill="#F1667D" d="M257.236,252.63l-2.475-2.767l-34.018,30.556c0,0-0.471,0.367-0.327,1.007
			c0.172,0.819,1.007,1.788,1.814,2.042c0.468,0.155,0.988-0.296,0.988-0.296L257.236,252.63z"/>
		<path fill="#A4CEE5" d="M262.217,251.341l-5.613-6.258l-3.08,4.541l0,0c-0.315,0.287-0.44,0.767-0.315,1.397
			c0.268,1.261,1.477,2.598,2.696,2.998c0.602,0.203,1.101,0.127,1.419-0.165L262.217,251.341z"/>
		<path fill="#CBE9FA" d="M268.616,247.388c-0.614,0.546-1.574,0.678-2.774,0.301c-2.351-0.776-4.691-3.388-5.2-5.811
			c-0.258-1.229-0.019-2.174,0.586-2.715l-5.564,5.561c-0.558,0.509-0.788,1.379-0.558,2.504c0.48,2.249,2.628,4.648,4.816,5.374
			c1.084,0.348,1.976,0.216,2.543-0.292L268.616,247.388L268.616,247.388z"/>
		<path fill="#A4CEE5" d="M269.209,244.668c-0.518-2.428-2.849-5.043-5.218-5.806c-1.17-0.391-2.148-0.245-2.753,0.301l0,0h-0.01
			c-0.604,0.541-0.844,1.486-0.586,2.715c0.509,2.423,2.849,5.035,5.2,5.811c1.2,0.376,2.16,0.245,2.774-0.301
			C269.218,246.838,269.458,245.887,269.209,244.668z"/>
		<path fill="#59193F" d="M263.934,244.255c2.407,2.456,4.901,4.587,9.373,1.642c4.451-2.955,10.234-4.898,14.832-3.393
			c0,0-0.078-7.406-1.381-11.396c-1.287-3.985-3.896-8.046-8.855-8.103c-5.536-0.085-7.493-3.27-9.881-3.585
			c0,0-1.67,7.454-3.896,12.055C261.899,236.104,258.994,239.206,263.934,244.255z"/>
	</g>
	<linearGradient id="SVGID_9_" gradientUnits="userSpaceOnUse" x1="258.4883" y1="261.7314" x2="113.3784" y2="213.6786">
		<stop  offset="0.01" style="stop-color:#DAA192"/>
		<stop  offset="0.99" style="stop-color:#DE817B"/>
	</linearGradient>
	<path fill="url(#SVGID_9_)" d="M238.625,267.362c-2.052-2.668-3.327-2.748-7.894-2.974c0,0-14.89-9.293-23.917-14.149
		c-9.039-4.869-25.625-10.191-31.679-19.442c-6.053-9.241-11.205-25.757-11.205-25.757s-3.455,2.612-11.253,5.284
		c-7.799,2.668-10.13,3.252-10.13,3.252s14.017,31.85,28.839,39.092c14.822,7.246,50.279,18.336,50.279,18.336
		s3.061,4.729,7.147,6.272c2.668,1.007,3.531-0.508,2.503-1.275c1.037,0.48,3.167,1.332,3.983,0.668
		c0.91-0.739-1.047-2.616-1.047-2.616s3.194,1.567,4.279,0.715c1.303-1.035-1.861-3.765-1.861-3.765s2.744,1.436,3.445,0.734
		C241.168,270.689,240.669,270.035,238.625,267.362z"/>
</g>
</svg>
