<?xml version="1.0" encoding="utf-8"?>
<!-- Generator: Adobe Illustrator 16.0.0, SVG Export Plug-In . SVG Version: 6.00 Build 0)  -->
<!DOCTYPE svg PUBLIC "-//W3C//DTD SVG 1.1//EN" "http://www.w3.org/Graphics/SVG/1.1/DTD/svg11.dtd">
<svg version="1.1" id="Layer_1" xmlns="http://www.w3.org/2000/svg" xmlns:xlink="http://www.w3.org/1999/xlink" x="0px" y="0px"
	 width="650px" height="650px" viewBox="0 0 650 650" enable-background="new 0 0 650 650" xml:space="preserve">
<polygon fill="#D5A484" points="414.125,500.489 414.125,500.489 414.749,500.843 "/>
<g>
	<g>
		<g>
			<polygon fill="#09AA88" points="412.254,487.027 411.987,582.223 331.019,535.477 325.644,436.909 			"/>
		</g>
		<g>
			<polygon fill="#06917D" points="412.254,487.027 450.918,464.563 450.646,559.758 411.987,582.223 			"/>
		</g>
		<polygon fill="#06917D" points="318.59,437.025 319.101,441.796 412.254,495.576 412.261,491.118 		"/>
		<polygon fill="#04715B" points="412.254,495.576 457.983,469.274 457.983,464.549 412.261,491.118 		"/>
		<g>
			<polygon fill="#02AE8C" points="457.983,464.542 450.906,468.64 412.261,491.118 367.07,465.011 318.578,437.025 
				364.304,410.463 			"/>
			<polygon fill="#06917D" points="450.918,464.563 427.476,478.183 412.261,487.027 366.836,460.805 350.857,451.585 
				325.637,437.025 364.304,414.554 364.322,414.554 			"/>
		</g>
		<g>
			<polygon fill="#036857" points="450.918,464.491 450.918,464.563 427.476,478.183 412.261,487.027 366.836,460.805 
				365.861,442.864 364.322,414.554 364.304,414.374 			"/>
		</g>
		<polygon opacity="0.4" fill="#FFFFFF" points="427.476,478.183 412.261,487.027 350.857,451.585 365.861,442.864 366.078,442.742 
					"/>
		<polygon fill="#222827" points="429.056,490.426 463.884,525.385 450.77,517.81 450.751,523.905 464.548,531.992 469.367,531.062 
			469.367,522.225 434.387,487.027 		"/>
	</g>
	<g>
		<g>
			<g>
				<polygon fill="#C0992E" points="501.364,529.966 498.84,528.5 493.359,543.83 495.885,545.302 				"/>
			</g>
			<path fill="#D2962A" d="M537.001,445.908l-59.407,34.288l-33.937,95.686l15.181-9.191l4.556-13.764l37.072-21.403l-4.591,13.765
				l13.544-8.022L537.001,445.908z"/>
			<g>
				<polygon fill="#FDB727" points="537.001,445.988 534.476,444.524 475.102,478.811 477.619,480.275 				"/>
			</g>
			<g>
				<polygon fill="#BF8A2C" points="477.619,480.275 475.102,478.811 441.136,574.424 443.657,575.882 				"/>
			</g>
		</g>
		<g>
			<g>
				<g>
					<polygon fill="#BF8A2C" points="530.721,463.568 528.2,462.104 530.228,478.811 532.756,480.275 					"/>
				</g>
				<g>
					<polygon fill="#EFB21E" points="532.756,480.275 530.228,478.811 488.102,503.137 490.616,504.608 					"/>
				</g>
			</g>
			<g>
				<polygon fill="#BF8A2C" points="542.083,559.246 539.559,557.782 540.856,572.383 543.378,573.84 				"/>
			</g>
			<path fill="#DBA727" d="M539.508,447.395l-59.414,34.288l11.132,122.369l15.104-8.815l-1.291-13.028l37.08-21.396l1.251,13.021
				l14.756-8.88L539.508,447.395z M493.663,502.87l-2.006-15.468l39.19-22.615l1.93,15.496L493.663,502.87z"/>
			<g>
				<polygon fill="#EFB21E" points="539.497,447.381 536.976,445.908 477.594,480.196 480.115,481.661 				"/>
			</g>
			<g>
				<polygon fill="#BF8A2C" points="480.115,481.697 477.594,480.231 488.772,602.58 491.297,604.052 				"/>
			</g>
		</g>
		<g>
			<path fill="#39362F" d="M498.955,556.007c-0.351,0-0.696-0.115-0.979-0.346c-0.505-0.419-0.703-1.09-0.497-1.703l17.342-51.926
				c0.174-0.497,0.566-0.873,1.075-1.017c0.513-0.13,1.05,0,1.439,0.347l28.311,25.205c0.368,0.325,0.559,0.814,0.512,1.313
				c-0.047,0.491-0.331,0.938-0.761,1.184l-45.66,26.727C499.499,555.928,499.225,556.007,498.955,556.007z M517.029,505.257
				l-15.286,45.758l40.231-23.553L517.029,505.257z"/>
		</g>
		<g>
			<polygon fill="#EF4123" points="516.449,514.015 521.783,510.941 519.114,533.644 			"/>
			<path fill="#EF4123" d="M516.777,538.492c0-1.291,1.046-2.943,2.337-3.68c1.291-0.75,2.337-0.303,2.337,0.981
				c0,1.291-1.046,2.943-2.337,3.68C517.823,540.216,516.777,539.783,516.777,538.492z"/>
		</g>
	</g>
	<g>
		<g>
			<g>
				<polygon fill="#636464" points="318.293,523.062 325.24,519.028 321.11,566.093 318.524,567.585 				"/>
			</g>
			<g>
				<g>
					<polygon fill="#82817F" points="367.867,543.636 372.716,595.871 321.11,566.077 325.24,519.028 					"/>
				</g>
				<g>
					<polygon fill="#636464" points="360.916,547.625 367.867,543.592 372.716,595.828 370.126,597.336 					"/>
				</g>
				<g>
					<polygon fill="#BCBCBC" points="318.293,523.018 325.24,518.979 367.867,543.592 360.916,547.625 					"/>
				</g>
			</g>
		</g>
		<g>
			<g>
				<g enable-background="new    ">
					<g>
						<polygon fill="#8E8D8D" points="344.17,530.441 344.154,536.876 336.862,532.662 336.884,526.236 						"/>
					</g>
					<g>
						<polygon fill="#5B5C5B" points="344.17,530.441 349.472,527.36 349.458,533.788 344.154,536.876 						"/>
					</g>
					<g>
						<polygon fill="#A5A5A5" points="336.884,526.236 342.183,523.147 349.472,527.36 344.17,530.441 						"/>
					</g>
				</g>
			</g>
			<g>
				<g enable-background="new    ">
					<path fill="#5B5C5B" d="M344.253,453.072l-0.213,74.498c0,0.165-0.019,0.316-0.044,0.461c-0.007,0-0.007,0.015-0.007,0.015
						c-0.028,0.138-0.064,0.261-0.115,0.368c0,0.008,0,0.014-0.008,0.022c-0.032,0.071-0.078,0.13-0.13,0.187
						c-0.087,0.137-0.187,0.245-0.316,0.318l3.178-1.841c0.129-0.078,0.233-0.194,0.332-0.331c0.007-0.008,0.024-0.015,0.031-0.029
						c0.03-0.051,0.059-0.094,0.087-0.151c0,0,0.004,0,0.004-0.007l0,0c0.011-0.043,0.029-0.072,0.046-0.116
						c0.015-0.035,0.03-0.071,0.037-0.115c0.011-0.028,0.015-0.064,0.028-0.101c0.004-0.014,0.004-0.036,0.015-0.051
						c0-0.007,0-0.007,0-0.015c0-0.014,0-0.021,0.012-0.043c0-0.036,0.003-0.065,0.01-0.108c0.007-0.028,0.012-0.065,0.012-0.101
						c0-0.029,0.003-0.064,0.003-0.095c0-0.035,0.004-0.071,0.004-0.107c0,0,0,0,0-0.008l0.213-74.497L344.253,453.072z"/>
					<g>
						<path fill="#B0B0B0" d="M342.121,449.394c1.187,0.678,2.132,2.322,2.132,3.679l-0.213,74.498
							c-0.004,1.355-0.96,1.912-2.143,1.226c-1.176-0.685-2.136-2.33-2.129-3.686l0.217-74.498
							C339.985,449.248,340.941,448.707,342.121,449.394z"/>
					</g>
					<path fill="#636464" d="M342.95,450.057c0.008,0.008,0.008,0.008,0.008,0.008c0.245,0.267,0.476,0.569,0.663,0.895
						c0.012,0.014,0.012,0.028,0.021,0.035c0.094,0.166,0.174,0.325,0.245,0.498l0,0c0.08,0.173,0.145,0.347,0.195,0.526v0.008
						c0.108,0.354,0.17,0.706,0.17,1.046l3.178-1.847c0-0.037,0-0.065,0-0.102c0-0.035-0.012-0.064-0.012-0.101s0-0.072,0-0.108
						c-0.007-0.029-0.01-0.064-0.018-0.101c-0.004-0.037-0.004-0.08-0.014-0.108c-0.008-0.037-0.008-0.072-0.019-0.108
						c-0.012-0.043-0.012-0.08-0.021-0.115c-0.004-0.036-0.015-0.064-0.033-0.108c0-0.036-0.011-0.071-0.021-0.115
						c-0.011-0.021-0.021-0.051-0.021-0.079c-0.007-0.007-0.007-0.016-0.011-0.021c0,0,0,0-0.003-0.008
						c-0.008-0.036-0.025-0.079-0.037-0.108c-0.01-0.043-0.021-0.079-0.031-0.115c-0.012-0.036-0.026-0.065-0.04-0.108
						c-0.021-0.028-0.03-0.065-0.047-0.101c-0.008-0.021-0.019-0.043-0.029-0.073c0,0-0.004-0.007-0.011-0.007
						c0-0.015,0-0.015,0-0.021c-0.015-0.028-0.033-0.064-0.043-0.094c-0.021-0.043-0.04-0.079-0.059-0.114
						c-0.024-0.044-0.047-0.087-0.068-0.13c-0.024-0.044-0.05-0.095-0.075-0.139c-0.008-0.006-0.008-0.006-0.008-0.014
						c-0.007-0.015-0.011-0.021-0.021-0.036c-0.05-0.079-0.101-0.166-0.158-0.253c-0.044-0.057-0.087-0.13-0.13-0.187
						c-0.028-0.044-0.068-0.087-0.094-0.13c-0.036-0.028-0.062-0.065-0.087-0.094c-0.024-0.029-0.058-0.065-0.076-0.095
						c-0.032-0.035-0.054-0.064-0.087-0.094c-0.003-0.006-0.01-0.015-0.018-0.021c0,0,0,0-0.007,0
						c-0.019-0.028-0.036-0.05-0.059-0.071c-0.031-0.03-0.061-0.059-0.097-0.087c-0.028-0.036-0.062-0.058-0.094-0.087
						c-0.029-0.029-0.062-0.058-0.094-0.086c-0.018-0.015-0.029-0.03-0.051-0.044c0,0,0,0-0.003-0.008
						c-0.021-0.007-0.028-0.014-0.04-0.021c-0.032-0.028-0.062-0.05-0.097-0.078c-0.03-0.016-0.062-0.044-0.09-0.065
						c-0.033-0.021-0.062-0.036-0.087-0.058c-0.029-0.021-0.065-0.037-0.095-0.059c-0.011-0.007-0.011-0.007-0.021-0.007
						c-0.021-0.015-0.047-0.035-0.068-0.043c-0.028-0.014-0.062-0.029-0.09-0.044c-0.029-0.014-0.054-0.028-0.087-0.043
						c-0.028-0.014-0.058-0.021-0.083-0.035c-0.035-0.015-0.062-0.021-0.087-0.029c-0.007,0-0.014-0.007-0.018-0.007l0,0
						c-0.025-0.016-0.047-0.022-0.072-0.022c-0.028-0.007-0.054-0.021-0.083-0.028c-0.032-0.008-0.058-0.015-0.094-0.021
						c-0.028,0-0.064-0.008-0.087-0.008c-0.018,0-0.043-0.007-0.062-0.007c-0.003,0-0.01,0-0.01-0.007c-0.012,0-0.021,0-0.025,0
						c-0.033,0-0.072,0-0.102,0c-0.032,0-0.071,0-0.111,0c-0.04,0.007-0.08,0.014-0.123,0.021l0,0c-0.007,0-0.007,0-0.007,0
						c-0.043,0.007-0.094,0.021-0.142,0.043c-0.053,0.014-0.114,0.044-0.168,0.072l-3.182,1.854c0.187-0.107,0.418-0.158,0.67-0.137
						c0.008,0,0.012,0,0.015,0c0.123,0.007,0.26,0.035,0.396,0.087c0,0,0,0,0.008,0c0.137,0.05,0.282,0.115,0.426,0.202
						c0.145,0.079,0.292,0.18,0.426,0.288c0.003,0.007,0.007,0.015,0.014,0.015C342.698,449.805,342.82,449.927,342.95,450.057z"/>
				</g>
			</g>
		</g>
	</g>
	<g>
		<path fill="#2E7E97" d="M322.737,434.915v0.007C322.737,434.922,322.737,434.922,322.737,434.915L322.737,434.915z"/>
		<path fill="#2E7E97" d="M289.135,442.5c7.69,4.433,20.16,4.433,27.848,0c3.098-1.797,4.955-4.035,5.557-6.369l-5.982,36.815
			c0,1.991-1.312,3.989-3.945,5.512c-5.276,3.044-13.826,3.044-19.087,0c-2.649-1.522-3.966-3.521-3.966-5.512l-6.043-37.119
			C284.033,438.27,285.899,440.628,289.135,442.5z"/>
		<path fill="#4A9DC3" d="M322.539,436.131l0.198-1.209C322.707,435.33,322.632,435.733,322.539,436.131z"/>
		<path fill="#216F82" d="M282.496,434.634c0,0.1,0,0.194,0.007,0.295c0,0.102,0.02,0.213,0.036,0.314l0.102,0.656
			c0.534,2.543,2.489,5.011,5.872,6.961c8.037,4.636,21.063,4.636,29.098,0c3.246-1.875,5.177-4.224,5.803-6.651l0.202-1.262
			c0,0,0,0,0-0.019c0.003-0.101,0.003-0.195,0.008-0.295l0,0v1.254c0,0.135,0,0.269,0,0.401v0.148h-0.005
			c0,0.054,0,0.115-0.003,0.18l0,0l-0.202,1.27c-0.626,2.427-2.557,4.779-5.803,6.645c-8.035,4.642-21.062,4.642-29.098,0
			c-3.383-1.952-5.338-4.419-5.872-6.954l-0.102-0.657c-0.016-0.101-0.036-0.201-0.036-0.303c0-0.064,0-0.126,0-0.18h-0.011v-1.804
			H282.496z"/>
		<path fill="#4A9DC3" d="M288.512,426.056c8.037-4.635,21.063-4.635,29.098,0c4.089,2.366,6.095,5.479,6.013,8.578
			c-0.005,0.1-0.005,0.194-0.008,0.295c0,0.019,0,0.019,0,0.019l-0.202,1.262c-0.626,2.428-2.557,4.776-5.803,6.651
			c-8.035,4.636-21.062,4.636-29.098,0c-3.383-1.95-5.338-4.418-5.872-6.961l-0.102-0.656c-0.016-0.102-0.036-0.213-0.036-0.314
			c-0.007-0.101-0.007-0.195-0.007-0.295C282.414,431.535,284.408,428.422,288.512,426.056z"/>
		<path fill="#2E7E97" d="M284.791,434.46c0,1.984,1.3,3.949,3.675,5.627c0.368,0.274,0.781,0.523,1.199,0.776
			c3.539,2.026,8.292,3.151,13.389,3.151c5.097,0,9.857-1.125,13.402-3.151c0.409-0.253,0.826-0.502,1.188-0.776
			c2.377-1.678,3.685-3.643,3.685-5.627c0-2.315-1.739-4.588-4.872-6.405c-3.545-2.031-8.306-3.171-13.402-3.171
			c-5.096,0-9.85,1.14-13.389,3.171C286.527,429.872,284.791,432.145,284.791,434.46z"/>
		<path opacity="0.6" fill="#62BCD2" d="M288.466,440.087c0.368,0.274,0.781,0.523,1.199,0.776
			c3.539,2.026,8.292,3.151,13.389,3.151c5.097,0,9.857-1.125,13.402-3.151c0.409-0.253,0.826-0.502,1.188-0.776
			c-0.361-0.278-0.778-0.53-1.188-0.779c-3.545-2.03-8.306-3.151-13.402-3.151c-5.096,0-9.85,1.121-13.389,3.151
			C289.247,439.557,288.833,439.809,288.466,440.087z"/>
	</g>
</g>
</svg>
