<?xml version="1.0" encoding="utf-8"?>
<!-- Generator: Adobe Illustrator 16.0.0, SVG Export Plug-In . SVG Version: 6.00 Build 0)  -->
<!DOCTYPE svg PUBLIC "-//W3C//DTD SVG 1.1//EN" "http://www.w3.org/Graphics/SVG/1.1/DTD/svg11.dtd">
<svg version="1.1" id="Layer_1" xmlns="http://www.w3.org/2000/svg" xmlns:xlink="http://www.w3.org/1999/xlink" x="0px" y="0px"
	 width="650px" height="650px" viewBox="0 0 650 650" enable-background="new 0 0 650 650" xml:space="preserve">
<g>
	<polygon fill="#CCD8DB" points="224.961,368.684 386.328,461.996 386.328,141.442 224.961,48.141 	"/>
	<polygon fill="#B5C0C6" points="232.013,551.689 386.328,461.996 220.86,366.357 66.009,455.63 	"/>
	<g>
		<polygon fill="#D6D5D5" points="375.357,177.512 375.276,464.542 231.101,381.312 231.101,94.317 		"/>
		<polygon fill="#C6E8FA" points="369.208,181.054 369.2,243.126 369.2,252.107 369.188,268.071 369.164,370.999 369.164,380.053 
			369.149,396 369.141,445.075 369.141,454.035 317.637,424.3 237.177,377.853 237.126,377.839 237.126,104.872 244.849,109.326 
			313.379,148.858 		"/>
		<path opacity="0.5" fill="#E9F5FD" d="M313.379,148.858c-16.467,24.844-51.09,76.911-76.253,113.817V104.872l7.723,4.454
			L313.379,148.858z"/>
		<g>
			<polygon fill="#AEAEAE" points="375.357,177.512 383.081,173.032 383.081,460.063 375.357,464.542 			"/>
		</g>
		<g>
			<polygon fill="#AEAEAE" points="244.821,109.225 244.821,373.279 237.11,377.752 237.11,377.752 237.11,104.778 			"/>
		</g>
		<g>
			<polygon fill="#C2C1C1" points="231.101,94.317 238.82,89.831 383.081,173.032 375.357,177.512 			"/>
		</g>
		<g>
			<polygon fill="#C2C1C1" points="369.258,243.093 369.258,252.017 237.193,175.863 244.899,171.376 			"/>
		</g>
		<g>
			<polygon fill="#C2C1C1" points="369.223,370.971 369.223,379.904 237.193,303.763 244.899,299.275 			"/>
		</g>
		<g>
			<polygon fill="#C2C1C1" points="369.2,445.054 369.2,453.974 317.703,424.278 237.126,377.839 244.821,373.279 			"/>
		</g>
		<g>
			<polygon fill="#D8D9D8" points="369.258,252.093 369.258,259.455 369.246,260.67 369.246,268.039 237.11,191.745 237.11,175.802 
							"/>
			<polygon fill="#AEAEAE" points="369.258,259.455 369.246,260.67 237.11,184.387 237.11,183.16 			"/>
		</g>
		<g>
			<polygon fill="#D8D9D8" points="369.223,380.024 369.223,387.382 369.208,388.601 369.208,395.975 237.11,319.676 237.11,303.73 
							"/>
			<polygon fill="#AEAEAE" points="369.223,387.382 369.208,388.601 237.11,312.292 237.11,311.081 			"/>
		</g>
	</g>
	<polygon fill="#E5E8EA" points="238.82,56.087 238.82,89.831 231.128,94.325 231.128,381.312 220.86,387.234 220.86,66.5 	"/>
	<polygon fill="#DAE5EA" points="202.765,89.831 202.938,56.087 220.846,66.5 221.025,387.108 210.801,381.172 210.664,94.375 	"/>
	<polygon fill="#CCD8DB" points="202.938,56.087 220.846,66.5 238.82,56.087 221.353,45.948 	"/>
</g>
<polygon fill="#D5A484" points="414.125,500.489 414.125,500.489 414.749,500.843 "/>
</svg>
