<?xml version="1.0" encoding="utf-8"?>
<!-- Generator: Adobe Illustrator 16.0.0, SVG Export Plug-In . SVG Version: 6.00 Build 0)  -->
<!DOCTYPE svg PUBLIC "-//W3C//DTD SVG 1.1//EN" "http://www.w3.org/Graphics/SVG/1.1/DTD/svg11.dtd">
<svg version="1.1" id="Layer_1" xmlns="http://www.w3.org/2000/svg" xmlns:xlink="http://www.w3.org/1999/xlink" x="0px" y="0px"
	 width="650px" height="650px" viewBox="0 0 650 650" enable-background="new 0 0 650 650" xml:space="preserve">
<polygon fill="#D5A484" points="414.125,500.489 414.125,500.489 414.749,500.843 "/>
<g>
	<g>
		<linearGradient id="SVGID_1_" gradientUnits="userSpaceOnUse" x1="185.9717" y1="283.7988" x2="161.3708" y2="303.2521">
			<stop  offset="0.01" style="stop-color:#DAA192"/>
			<stop  offset="0.99" style="stop-color:#DE817B"/>
		</linearGradient>
		<path fill="url(#SVGID_1_)" d="M168.421,272.995c0,0-4.781,16.001-4.781,21.324c0,5.339,10.833,12.664,22.7,13.869
			c0,0,1.412-5.263,0.312-9.789c0,0-6.931-3.896-7.567-4.996c-0.627-1.107,3.057-12.422,3.057-12.422s-3.677-0.375-6.79-1.728
			C170.504,277.161,168.421,272.995,168.421,272.995z"/>
		<path fill="#EE2F53" d="M186.059,237.279c-3.843,0.227-10.099,4.974-12.491,14.55c-2.384,9.584-4.597,18.41-5.147,21.166
			c0,0,1.654,4.073,6.254,6.258c4.593,2.204,7.458,1.67,7.458,1.67s-2.88-8.664-4.065-18.222
			c-1.187-9.562,0.417-18.273,3.777-21.667C185.213,237.646,186.059,237.279,186.059,237.279z"/>
		<path opacity="0.4" fill="#B5C0C6" d="M240.982,472.441c12.374,7.131,12.374,18.713,0,25.854c-12.379,7.149-32.438,7.149-44.804,0
			c-12.379-7.142-12.379-18.724,0-25.854C208.544,465.289,228.603,465.289,240.982,472.441z"/>
		<path fill="#E82642" d="M236.456,311.481c0.058-1.482,0.352-2.951,0.822-4.473c2.269-7.417,8.489-15.471,8.489-26.872
			c0-5.378-1.343-8.978-2.846-11.293c-1.834-2.889-3.887-3.834-3.887-3.834s-13.731-7.928-19.36-11.181
			c-0.164-0.086-0.335-0.187-0.483-0.267c-3.192-1.843-9.658-5.573-14.295-8.249c-2.224-1.288-4.03-2.326-4.832-2.795l-0.02-0.007
			l-0.023-0.014c-0.02,0-0.031,0-0.043-0.018c-0.014-0.015-0.014-0.015-0.021-0.029c-0.02,0-0.036-0.018-0.053-0.018
			c-0.023-0.022-0.038-0.022-0.05-0.029c-0.047-0.032-0.09-0.054-0.108-0.054c-0.017-0.025-0.017-0.025-0.017-0.025
			c-0.007,0-0.023-0.007-0.023-0.007c-0.081-0.054-0.11-0.061-0.11-0.061c-0.765-0.447-2.617-1.522-6.73-3.896
			c-11.216-6.463-21.308,10.576-12.801,36.24c2.639,7.914,3.876,12.228,4.579,15.069v0.04c0.808,3.268,0.886,4.542,1.63,7.102
			c1.354,4.776,0.898,11.582-2.287,18.24c-2.918,6.15-5.466,17.519-5.854,19.247c-0.031,0.131-0.038,0.217-0.038,0.217
			s0,0.025,0.023,0.079c0,0.015,0,0.015,0,0.032c0.027,0.131,0.098,0.404,0.245,0.772c0.078,0.202,0.181,0.437,0.296,0.692
			c1.472,3.108,6.662,10.232,24.175,15.946c14.284,4.66,25.866,3.567,32.638,2.038c1.857-0.423,3.351-0.877,4.447-1.24
			c0.844-0.274,1.445-0.523,1.784-0.656c0.033-0.023-0.034-0.361-0.104-0.968C240.798,345.845,236.181,319.341,236.456,311.481z"/>
		<path fill="#CA7028" d="M231.858,213.726c-0.036,0.39-0.071,0.772-0.137,1.154c-0.514,3.124-1.194,7.343-1.724,10.543
			c-0.426,2.68-0.734,4.639-0.734,4.639c-0.996-1.541-1.804-2.529-2.462-3.091c-1.414-1.201-2.242-0.555-3.048,0.959
			c-0.828,1.551-1.62,3.997-2.97,6.384c-3.282,5.847-7.723,6.922-11.97,6.695c-1.858-0.102-3.18-0.498-4.116-0.92
			c-0.036-0.007-0.086-0.022-0.117-0.033c-1.103-0.53-1.573-1.042-1.573-1.042c-1.066-3.553-4.079-7.979-5.569-14.425
			c-0.5-2.239-0.828-4.707-0.828-7.47c-0.007-13.292,12.52-16.804,17.698-16.53c11.079,0.584,15.903,5.19,17.188,9.879
			C231.795,211.568,231.901,212.68,231.858,213.726z"/>
		<path fill="#EE2F53" d="M210.852,474.025c-0.137,1.468-5.885,16.271-5.885,16.271c-3.876,5.457-8.879,0.869-8.879,0.869
			c-0.315-0.213-0.66-1.024-0.839-2.313c-0.301-2.066-0.21-5.338,1.02-9.334c1.962-6.471,6.161-9.758,10.411-10.497
			c1.979-0.342,3.052,0.404,3.615,1.458C210.941,471.677,210.929,473.253,210.852,474.025z"/>
		<polygon fill="#19AF91" points="208.116,385.109 215.441,389.442 209.883,369.485 		"/>
		<linearGradient id="SVGID_2_" gradientUnits="userSpaceOnUse" x1="195.7456" y1="482.5332" x2="206.2197" y2="482.5332">
			<stop  offset="0.01" style="stop-color:#DAA192"/>
			<stop  offset="0.99" style="stop-color:#DE817B"/>
		</linearGradient>
		<path fill="url(#SVGID_2_)" d="M195.746,477.975c0,0,0,5.915,0.681,7.109c0.684,1.186,3.407,3.066,7.333,1.256
			c3.463-1.6,2.256-8.07,2.256-8.07s-2.603,1.872-5.495,1.537C197.623,479.464,195.746,477.975,195.746,477.975z"/>
		<path fill="#2D133D" d="M241.703,352.176c-0.252,7.068-0.721,13.828-1.331,20.191c-0.011,0.062-0.011,0.122-0.011,0.187
			c-2.15,22.814-1.935,34.288-3.162,49.016c-1.28,15.055-2.404,18.193-5.413,61.671c-0.624,0.368-1.24,0.636-1.861,0.813
			c-2.076,0.635-4.06,0.26-5.542-0.25c-1.506-0.515-2.474-1.208-2.474-1.208s-8.527-37.332-7.336-50.857
			c1.217-13.52,5.827-17.162,5.152-23.899c-0.684-6.768-9.843-38.353-9.843-38.353s-5.905,48.826-5.443,66.093
			c0.44,17.256,1.587,42.691,1.587,42.691s-0.651,0.704-1.711,1.336c-0.093,0.078-0.211,0.146-0.337,0.201
			c-1.185,0.656-2.797,1.173-4.541,0.736c-3.634-0.906-5.026-4.942-5.026-4.942c-2.548-8.555-11.33-33.255-10.424-48.874
			c0.917-15.65,7.044-25.887,6.81-29.619c-0.215-3.698-8.613-40.561-10.895-45.563c-2.276-5.003-2.488-14.075-1.542-16.148
			c0.082,0.202,0.188,0.437,0.305,0.678c1.475,3.132,6.653,10.247,24.167,15.954c13.921,4.541,25.289,3.635,32.122,2.16
			c0.352-0.068,0.701-0.155,1.022-0.234c1.634-0.382,2.958-0.771,3.944-1.121C240.755,352.563,241.364,352.309,241.703,352.176z"/>
		<path fill="#2D133D" d="M241.703,352.176c0.009-0.321,0.033-0.65,0.043-0.968c0,0-0.063,0-0.164,0
			C241.684,351.808,241.723,352.16,241.703,352.176z"/>
		<linearGradient id="SVGID_3_" gradientUnits="userSpaceOnUse" x1="232.8325" y1="209.7622" x2="211.0291" y2="255.0724">
			<stop  offset="0.01" style="stop-color:#DAA192"/>
			<stop  offset="0.99" style="stop-color:#DE817B"/>
		</linearGradient>
		<path fill="url(#SVGID_3_)" d="M232.556,238.231c-0.312,1.071-0.815,2.013-1.51,2.788c-2.189,2.481-6.243,3.361-11.731,1.857
			c-0.164,2.832,0.08,7.282,0.352,10.951c-0.157-0.094-0.332-0.187-0.476-0.267c-3.189-1.843-9.658-5.58-14.295-8.249
			c0.132-1.829,0.051-3.668-0.198-5.223c0.936,0.422,2.258,0.818,4.116,0.92c2.818,0.151,5.71-0.278,8.294-2.269
			c1.318-1.013,2.559-2.453,3.675-4.426c3.296-5.847,3.326-12.184,8.48-4.252c0,0,1.509-9.446,2.458-15.182
			c0.066-0.382,0.101-0.765,0.137-1.154c0.043-1.046-0.063-2.157-0.362-3.257c1.848,3.957,0.514,8.3,1.251,11.005
			C233.498,224.283,234.591,231.385,232.556,238.231z"/>
		<path fill="#19AF91" d="M221.303,254.769v0.011c-16.336-1.569-18.295-10.179-18.381-10.601c0-0.007,0-0.007,0-0.007
			L221.303,254.769z"/>
		<path fill="#251235" d="M183.082,354.267c3.645,0.704,19.259,3.186,23.142,4.549c3.89,1.36,9.147,7.269,22.286,5.342
			c0,0-9.201,5.555-20.394-0.354c-11.176-5.901-8.417-2.045-14.241-3.401C188.229,359.075,183.082,354.267,183.082,354.267z"/>
		<path fill="#CC1F47" d="M210.852,474.025c-0.137,1.468-5.885,16.271-5.885,16.271c-3.876,5.457-8.879,0.869-8.879,0.869
			c-0.315-0.213-0.66-1.024-0.839-2.313c2.354,2.349,6.458,2.919,8.215,1.173c1.657-1.648,3.859-8.234,5.111-11.647
			c1.069-2.885,1.596-5.547,1.719-7.898C210.941,471.677,210.929,473.253,210.852,474.025z"/>
		<g>
			<g>
				<path fill="#EE2F53" d="M249.66,485.372c-0.07,1.266-0.654,2.528-1.744,3.333c-2.186,1.624-9.393,6.619-16.065,8.649
					c-6.698,2.013-8.691-0.923-8.691-0.923c-0.325-0.545-0.52-1.181-0.66-1.865c-0.406-2.085-0.081-4.52,0.53-5.5
					c2.604-4.192,11.722-4.621,21.409-7.471C248.073,480.531,249.804,482.931,249.66,485.372z"/>
				<linearGradient id="SVGID_4_" gradientUnits="userSpaceOnUse" x1="221.9102" y1="487.1875" x2="232.0127" y2="487.1875">
					<stop  offset="0.01" style="stop-color:#DAA192"/>
					<stop  offset="0.99" style="stop-color:#DE817B"/>
				</linearGradient>
				<path fill="url(#SVGID_4_)" d="M221.91,482.602l1.25,7.149c0,0,0.359,2.319,4.873,1.99c3.174-0.227,4.04-1.038,3.977-3.245
					c-0.038-1.522-0.222-5.244-0.222-5.244s-3.185,1.315-5.733,0.98C223.492,483.89,221.91,482.602,221.91,482.602z"/>
			</g>
			<path fill="#CC1F47" d="M249.66,485.372c-0.07,1.266-0.654,2.528-1.744,3.333c-2.186,1.624-9.393,6.619-16.065,8.649
				c-6.698,2.013-8.691-0.923-8.691-0.923c-0.325-0.545-0.52-1.181-0.66-1.865c0.781,0.913,2.396,2.302,5.039,2.389
				c3.957,0.1,9.239-2.731,14.009-5.455C245.123,489.456,248.115,487.129,249.66,485.372z"/>
		</g>
		<path opacity="0.4" fill="#E82642" d="M241.599,351.208c0.07,0.606,0.137,0.944,0.104,0.968c-0.339,0.133-0.939,0.382-1.784,0.656
			c-1.096,0.363-2.589,0.817-4.447,1.24c0.437-3.514,0.819-10.951-1.753-20.473c-3.625-13.4-4.708-19.475-0.905-27.28
			c3.45-7.063,11.991-23.91,10.106-37.476c1.502,2.316,2.846,5.916,2.846,11.293c0,11.401-6.22,19.456-8.489,26.872
			c-0.47,1.522-0.764,2.99-0.822,4.473C236.181,319.341,240.798,345.845,241.599,351.208z"/>
		<linearGradient id="SVGID_5_" gradientUnits="userSpaceOnUse" x1="227.6313" y1="234.7422" x2="203.8282" y2="253.5646">
			<stop  offset="0.01" style="stop-color:#DAA192"/>
			<stop  offset="0.99" style="stop-color:#DE817B"/>
		</linearGradient>
		<path opacity="0.3" fill="url(#SVGID_5_)" d="M219.315,242.877c-0.164,2.832,0.08,7.282,0.352,10.951
			c-0.157-0.094-0.332-0.187-0.476-0.267c-3.189-1.843-9.658-5.58-14.295-8.249c0.132-1.829,0.051-3.668-0.198-5.223
			c0.936,0.422,2.258,0.818,4.116,0.92c2.818,0.151,5.71-0.278,8.294-2.269c4.061,4.769,10.22,3.448,13.938,2.28
			C228.857,243.5,224.803,244.381,219.315,242.877z"/>
		<path fill="#74AFD7" d="M297.934,248.15c-1.351-0.57-1.865,0.047-2.958,1.916c-1.085,1.865-4.577,0.162-3.742-2.233
			c0.839-2.388-0.317-4.076-3.087-5.417c-2.787-1.335-5.201-7.157-0.202-7.585c4.998-0.422,5.798-0.866,7.894-3.474
			c2.096-2.622,8.608-0.977,8.729,2.396c0.114,3.358,2.163,7.96,3.01,9.771C308.436,245.351,305.361,251.241,297.934,248.15z"/>
		<path fill="#EE2F53" d="M259.35,274.352c0,0.307-0.011,0.627-0.023,0.938c-0.138,4.246-1.713,9-3.185,12.574
			c-0.799,1.944-1.56,3.521-2.049,4.473c-0.319,0.617-0.514,0.985-0.514,0.985s-8.008,1.154-19.134-5.411
			c-5.94-3.506-7.982-7.603-8.388-11.12c-0.44-3.809,1.026-6.918,1.562-7.845C234.055,257.86,259.35,274.352,259.35,274.352z"/>
		<path opacity="0.4" fill="#E82642" d="M256.142,287.863c-0.799,1.944-1.56,3.521-2.049,4.473
			c-0.319,0.617-0.514,0.985-0.514,0.985s-8.008,1.154-19.134-5.411c-5.94-3.506-7.982-7.603-8.388-11.12
			C230.547,281.345,239.913,287.971,256.142,287.863z"/>
		<g>
			<linearGradient id="SVGID_6_" gradientUnits="userSpaceOnUse" x1="313.9766" y1="246.209" x2="240.2123" y2="304.5383">
				<stop  offset="0.01" style="stop-color:#DAA192"/>
				<stop  offset="0.99" style="stop-color:#DE817B"/>
			</linearGradient>
			<path fill="url(#SVGID_6_)" d="M302.32,247.256c0.5-3.232,1.156-8.743,0.379-9.205c-0.765-0.451-0.968,3.124-1.706,2.406
				c-0.741-0.71,0-4.974-1.01-5.338c-1.007-0.368-0.922,6.251-1.382,5.338c-0.456-0.898-0.272-7.087-1.562-7.087
				c-1.288,0,0.184,7.438-0.655,7.438c-0.842-0.007-1.549-5.508-2.166-5.324c-0.617,0.18-0.125,4.505-0.02,5.692
				c0.107,1.201,1,3.87-1.112,2.488c-0.615-0.404-3.496-1.288-3.629-0.483c-0.141,0.797,4.992,3.441,5.928,4.076
				c0.71,0.819-15.696,29.094-17.849,32.896l-18.209-4.862c-0.128,4.216-1.674,8.913-3.142,12.465
				c-0.823,1.991-1.604,3.614-2.092,4.581c7.048,1.731,23.876,5.627,28.161,4.372c0,0,2.61-0.188,3.924-2.741
				c0.337-0.671,11.889-21.018,16.033-45.664c0,0,0-0.072,0.014-0.151c0.02-0.116,0.051-0.231,0.07-0.343l-0.02-0.007
				C302.3,247.646,302.313,247.451,302.32,247.256L302.32,247.256z"/>
			
				<linearGradient id="SVGID_7_" gradientUnits="userSpaceOnUse" x1="329.0771" y1="231.5776" x2="269.5943" y2="278.6139" gradientTransform="matrix(0.8391 -0.5439 0.5439 0.8391 -112.7578 224.5903)">
				<stop  offset="0.01" style="stop-color:#DAA192"/>
				<stop  offset="0.99" style="stop-color:#DE817B"/>
			</linearGradient>
			<path opacity="0.3" fill="url(#SVGID_7_)" d="M302.277,247.801l0.02,0.007c-0.02,0.112-0.05,0.227-0.07,0.343
				c-0.014,0.079-0.014,0.151-0.014,0.151c-4.145,24.646-15.696,44.993-16.033,45.664c-1.314,2.554-3.924,2.741-3.924,2.741
				c-4.285,1.255-21.113-2.641-28.161-4.372c0.489-0.967,1.27-2.59,2.092-4.581c5.987,1.49,21.164,5.071,24.805,4.192
				c4.557-1.1,10.66-14.973,15.867-27.684C301.314,253.413,302.535,245.982,302.277,247.801z"/>
		</g>
		<g>
			<g>
				<path fill="#19AF91" d="M202.707,218.011c1.174-1.493,2.26-3.474,0-5.699c-2.264-2.214-5.127,0.22-4.959,3.293
					C197.922,218.689,201.738,219.219,202.707,218.011z"/>
				<path fill="#CA7028" d="M202.281,251.555c-3.012,2.514-1.556,5.23-1.556,5.23s-0.57-0.274-1.429-0.79
					c-2.374-1.389-6.931-4.534-7.345-8.343c-0.558-5.176,5.23-7.711,2.685-13.494c-2.548-5.807-5.939-13.746-3.259-18.554
					c2.702-4.808,8.426-2.925,8.426-2.925c1.636,0.812,2.005,2.301,2.069,3.221c0.043,0.501-0.013,0.837-0.013,0.837
					s-2.548-1.555-3.836,0.57c-1.259,2.125,3.836,7.358,10.202,17.35C214.586,244.655,205.289,249.02,202.281,251.555z"/>
			</g>
			<path opacity="0.1" fill="#411F14" d="M202.281,251.555c-3.012,2.514-1.556,5.23-1.556,5.23s-0.57-0.274-1.429-0.79
				c-1.756-6.049,3.668-9.757,5.401-16.538c1.95-7.665-8.61-14.641-8.087-20.848c0.41-4.924,3.474-3.939,5.261-2.709
				c0.043,0.501-0.013,0.837-0.013,0.837s-2.548-1.555-3.836,0.57c-1.259,2.125,3.836,7.358,10.202,17.35
				C214.586,244.655,205.289,249.02,202.281,251.555z"/>
		</g>
		<path opacity="0.1" fill="#251235" d="M224.384,483.803c-1.506-0.515-2.474-1.208-2.474-1.208s-8.527-37.332-7.336-50.857
			c1.217-13.52,5.827-17.162,5.152-23.899c-0.684-6.768-9.843-38.353-9.843-38.353s-5.905,48.826-5.443,66.093
			c0.44,17.256,1.587,42.691,1.587,42.691s-0.651,0.704-1.711,1.336c-0.8-10.327-2.627-22.533-3.333-38.379
			c-0.754-16.726,1.459-33.443,3.465-45.953c2.033-12.505,4.725-28.753,4.725-28.753s9.64,21.018,12.195,33.904
			c2.596,12.863-0.615,19.121-2.79,28.863C216.767,437.465,222.507,472.683,224.384,483.803z"/>
		<path opacity="0.2" fill="#251235" d="M241.703,352.176c-0.252,7.068-0.721,13.828-1.331,20.191
			c-0.011,0.062-0.011,0.122-0.011,0.187c-2.15,22.814-1.935,34.288-3.162,49.016c-1.28,15.055-2.404,18.193-5.413,61.671
			c-0.624,0.368-1.24,0.636-1.861,0.813c-0.664-6.284-1.472-19.082,0.496-33.264c2.817-20.033,4.008-25.177,5.358-44.301
			c1.212-17.288,0.783-38.339,0.195-52.535c1.634-0.382,2.958-0.771,3.944-1.121C240.755,352.563,241.364,352.309,241.703,352.176z"
			/>
		<path fill="#19AF91" d="M241.747,350.613c-1.241-15.506-5.475-33.819-5.291-39.132c0.058-1.482,0.352-2.951,0.822-4.473
			c0,0-6.126,5.612-12.065,8.443c-4.335,1.843-11.594,2.568-19.162,0.494c-0.46-0.126-0.912-0.267-1.353-0.415
			c2.435-0.437,5.05-1.436,4.983-3.687c-0.117-4.198-5.221-4.822-7.044-2.088c-0.261,0.389-0.53,0.793-0.795,1.193
			c0.323-1.829,0.467-3.679,0-4.721c-1.133-2.554-6.413-3.008-7.154,0.624c-0.242,1.208,0.117,2.597,0.71,3.903
			c-0.667-0.486-1.248-0.938-1.713-1.334c-1.335-5.637-9.064-19.841-9.064-19.841s0,0.032,0.023,0.086v0.04
			c0.808,3.268,0.886,4.542,1.63,7.102c1.354,4.776,1.184,10.201-2.337,17.663c-3.118,6.601-5.818,20.134-5.818,20.152
			c-0.176,3.128,0.085,3.239,0.541,1.465c2.756-10.738,12.473-19.2,14.74-23.795c0.82,0.772,2.122,1.771,4.171,2.85
			c-0.717,1.799-3.059,7.967-4.354,13.227c-1.535,6.254-1.196,6.074-1.196,6.074l1.874,1.141c0,0,0.738-4.427,2.217-9.765
			c1.093-3.975,2.537-8.018,3.208-9.829c0.285,0.134,0.601,0.26,0.905,0.382c-0.144,3.304-0.979,15.113-5.62,22.536l1.818,1.184
			c0,0,2.639-4.004,3.829-10.043c0.878-4.464,1.486-10.25,1.753-12.987c1.466,0.53,3.122,1.053,5.041,1.554
			c8.808,2.254,14.984,0.793,18.392-0.627c2.333,2.475,6.44,7.744,10.334,17.407c2.018,5.003,3.242,10.481,3.957,15.853
			c0.07,0.529,0.133,1.061,0.191,1.584c0.844,7.289,0.761,14.271,0.453,19.542C240.61,369.867,242.539,360.637,241.747,350.613z
			 M204.111,310.598c0.57-0.679,3.726-1.691,3.974,0.97c0.206,2.153-4.054,2.893-5.706,3.105c-0.374-0.148-0.752-0.321-1.117-0.483
			C202.288,312.902,203.756,311.034,204.111,310.598z M196.166,308.047c0.056-2.958,3.239-3.185,4.317-0.624
			c0.631,1.511,0.141,4.18-0.368,6.124c-0.02,0.025-0.031,0.047-0.051,0.072c-0.838-0.429-1.619-0.87-2.333-1.306
			C196.923,311.066,196.139,309.482,196.166,308.047z"/>
	</g>
</g>
</svg>
