<?xml version="1.0" encoding="utf-8"?>
<!-- Generator: Adobe Illustrator 16.0.0, SVG Export Plug-In . SVG Version: 6.00 Build 0)  -->
<!DOCTYPE svg PUBLIC "-//W3C//DTD SVG 1.1//EN" "http://www.w3.org/Graphics/SVG/1.1/DTD/svg11.dtd">
<svg version="1.1" id="Layer_1" xmlns="http://www.w3.org/2000/svg" xmlns:xlink="http://www.w3.org/1999/xlink" x="0px" y="0px"
	 width="650px" height="650px" viewBox="0 0 650 650" enable-background="new 0 0 650 650" xml:space="preserve">
<polygon fill="#D5A484" points="414.125,500.489 414.125,500.489 414.749,500.843 "/>
<g>
	<polygon fill="#E0E1E0" points="104.89,434.016 302.603,548.174 588.41,383.16 390.689,269.009 	"/>
	<g>
		<g>
			<polygon fill="#ED3324" points="390.689,269.009 384.876,272.369 396.264,272.216 			"/>
			<path fill="#ED3324" d="M341.771,297.254l-10.427,6.031h22.477c2.901,0,5.214-1.348,5.214-3.018l-0.004-12.976L348.6,293.31
				l0.012,3.952L341.771,297.254z"/>
			<path fill="#ED3324" d="M289.305,327.549l-10.428,6.02h19.527c2.865,0.02,5.213-1.336,5.213-3.014v-11.273l-10.426,6.026v2.241
				H289.305z"/>
			<path fill="#ED3324" d="M230.824,361.318l-10.469,6.039h26.896c1.414,0.008,2.722-0.336,3.675-0.885
				c0.922-0.543,1.538-1.291,1.538-2.129l-0.002-15.521l-10.46,6.039v6.457H230.824z"/>
			<path fill="#ED3324" d="M174.877,393.605l-10.456,6.039l21.842,0.004c2.869-0.012,5.217-1.367,5.217-3.01v-12.615l-10.458,6.039
				v3.543H174.877z"/>
			<path fill="#ED3324" d="M104.89,434.016l0.924,0.541h23.006c2.862,0.018,5.217-1.334,5.217-3.018l-0.004-14.348l-10.452,6.043
				v5.279h-9.16L104.89,434.016z"/>
		</g>
		<g>
			<path fill="#EF6223" d="M116.245,440.584l10.425,6.01h23.008c2.869,0.025,5.216-1.338,5.216-3.004l0.027-31.9h52.199
				c2.898,0,5.25-1.355,5.217-3.004V379.41l55.759-0.012c1.428,0.016,2.755-0.314,3.716-0.869c0.924-0.541,1.507-1.305,1.507-2.145
				l0.025-30.758h45.95c2.866,0.02,5.208-1.336,5.208-3.014l-0.024-27.275h50.229c2.875-0.017,5.184-1.356,5.217-3.009v-27.563
				l37.194-0.504l-10.199-5.886l-32.354,0.417c-0.32,0.017-0.635,0.033-0.928,0.062l-4.06,2.348
				c-0.087,0.182-0.107,0.405-0.115,0.604l0.008,27.493h-48.556l-6.866,3.964v26.329h-45.602l-5.583,3.229l0.021,30.559
				l-52.927-0.029l-8.075,4.672v27.633l-47.863-0.004l-9.586,5.539l0.031,29.395H116.245z"/>
		</g>
		<g>
			<path fill="#ED3324" d="M137.105,452.617l10.456,6.039h23.002c2.835,0,5.189-1.355,5.217-3.006l-0.004-31.91h52.206
				c2.894,0,5.246-1.352,5.215-3.018v-29.271h55.79c1.42,0.025,2.722-0.33,3.683-0.889c0.926-0.529,1.536-1.273,1.536-2.115v-30.775
				h45.945c2.866,0.016,5.21-1.344,5.21-3.01v-27.27l50.203-0.012c2.896,0,5.217-1.34,5.217-3.006v-27.571l37.224-0.479
				l-10.196-5.895l-32.362,0.421c-2.835,0.033-5.095,1.373-5.095,3.014v27.493l-50.207-0.017c-2.897,0-5.239,1.36-5.239,3.034
				l0.031,27.282l-45.98-0.023c-2.862,0.023-5.211,1.371-5.237,3.029l0.026,30.758h-55.733c-2.898,0-5.244,1.352-5.244,3.027v29.266
				l-52.233-0.018c-2.871,0.018-5.216,1.373-5.245,3.027l0.029,31.895H137.105z"/>
		</g>
		<g>
			<path fill="#019D91" d="M157.989,464.684l10.423,6.014h23.01c2.864,0.018,5.219-1.334,5.219-3.01l-0.006-31.91l52.227,0.02
				c2.904,0,5.243-1.363,5.225-3.014V403.51l55.758-0.014c1.418,0.014,2.727-0.334,3.684-0.889c0.926-0.527,1.535-1.277,1.535-2.123
				v-30.775l45.971,0.016c2.838,0,5.188-1.352,5.213-3.008l-0.025-27.275h50.232c2.866-0.016,5.184-1.359,5.212-3.012v-27.564
				l37.199-0.504l-10.198-5.891l-32.354,0.426c-2.844,0.037-5.099,1.364-5.099,3.009v27.497h-50.181
				c-2.892,0-5.241,1.352-5.241,3.027v27.264h-45.948c-2.896,0-5.234,1.354-5.234,3.023v30.74h-55.745
				c-2.862,0.018-5.21,1.377-5.244,3.027v29.266h-52.199c-2.896,0-5.244,1.359-5.244,3.033l0.031,31.9H157.989z"/>
		</g>
		<g>
			<path fill="#ED3324" d="M178.847,476.717l10.431,6.021h22.996c2.873,0.025,5.216-1.338,5.216-3.004l0.033-31.9h52.204
				c2.891,0,5.241-1.352,5.212-3.01v-29.266l55.765-0.02c1.422,0.02,2.751-0.314,3.707-0.869c0.924-0.533,1.507-1.307,1.507-2.145
				l0.033-30.754h45.941c2.869,0.012,5.217-1.34,5.217-3.014l-0.029-27.27h50.234c2.894,0,5.215-1.348,5.215-3.018l-0.007-27.561
				l37.228-0.479l-10.229-5.912l-32.329,0.435c-2.836,0.033-5.099,1.372-5.099,3.009l-0.029,27.486h-50.172
				c-2.897,0-5.241,1.348-5.241,3.021v27.266h-45.947c-2.898,0-5.24,1.355-5.24,3.021l0.02,30.762h-55.73
				c-2.897,0-5.243,1.355-5.243,3.029v29.268l-52.237-0.018c-2.894,0-5.237,1.352-5.237,3.025l0.033,31.893H178.847z"/>
		</g>
		<g>
			<path fill="#EF6223" d="M199.699,488.758l10.46,6.047l23.003-0.012c2.871,0.025,5.225-1.332,5.225-3.002l-0.004-31.91
				l52.23,0.012c2.865-0.012,5.213-1.369,5.213-3.006v-29.27l55.763-0.021c1.424,0.021,2.727-0.334,3.684-0.885
				c0.93-0.537,1.533-1.285,1.533-2.119l-0.004-30.779h45.955c2.86,0.02,5.209-1.34,5.209-3.006v-27.266l50.194-0.016
				c2.904,0,5.219-1.344,5.219-3.014l0.029-27.543l37.198-0.508l-10.197-5.883l-32.358,0.418c-2.84,0.033-5.097,1.371-5.097,3.008
				v27.498l-50.197-0.016c-2.873,0.016-5.227,1.371-5.252,3.025l0.025,27.281H351.59c-2.896,0-5.245,1.352-5.245,3.025v30.738
				h-55.73c-2.897,0-5.243,1.355-5.243,3.035v29.266h-52.208c-2.892,0-5.237,1.355-5.237,3.029v31.871H199.699z"/>
		</g>
		<g>
			<path fill="#ED3324" d="M220.589,500.824l10.431,6.021h23.01c2.86,0.018,5.21-1.344,5.21-3.018l0.023-31.895l52.2,0.008
				c2.903,0,5.249-1.355,5.225-3.021v-29.262l55.765-0.016c1.412,0.016,2.747-0.324,3.704-0.873
				c0.926-0.533,1.507-1.303,1.507-2.141l0.028-30.756h45.945c2.865,0.018,5.217-1.338,5.217-3.008l-0.033-27.279h50.238
				c2.898,0,5.215-1.342,5.215-3.012v-27.568l37.222-0.479l-10.229-5.908l-32.358,0.418c-2.811,0.055-5.097,1.369-5.097,3.014
				v27.492l-50.175,0.004c-2.897,0-5.247,1.352-5.247,3.027v27.256h-45.938c-2.896,0-5.249,1.369-5.249,3.035l0.028,30.758h-55.733
				c-2.892,0-5.244,1.355-5.244,3.021v29.275l-52.224-0.021c-2.9,0-5.25,1.355-5.25,3.021l0.033,31.904H220.589z"/>
		</g>
		<g>
			<path fill="#D99C28" d="M241.449,512.861l10.462,6.039h23c2.866,0.016,5.216-1.34,5.216-3.006v-31.912L332.354,484
				c2.869-0.018,5.217-1.373,5.217-3.018v-29.266l55.759-0.018c1.429,0.018,2.73-0.334,3.686-0.881
				c0.926-0.545,1.54-1.297,1.54-2.125l-0.005-30.777h45.943c2.869,0.02,5.209-1.34,5.209-3.006v-27.27l50.207-0.018
				c2.899,0,5.214-1.334,5.214-3.008v-27.561l37.229-0.486l-10.188-5.895l-32.362,0.43c-2.844,0.029-5.104,1.359-5.104,3v27.494
				l-50.205-0.014c-2.897,0-5.237,1.357-5.237,3.031l0.025,27.273h-45.952c-2.894,0-5.233,1.363-5.233,3.029v30.746l-55.737-0.004
				c-2.896,0-5.244,1.359-5.244,3.033v29.268h-52.203c-2.898,0-5.248,1.355-5.248,3.021l0.006,31.879H241.449z"/>
		</g>
		<g>
			<path fill="#ED3324" d="M262.336,524.922l10.431,6.023l22.997-0.004c2.869,0.021,5.224-1.332,5.224-3.01l0.019-31.895h52.208
				c2.891,0,5.241-1.352,5.216-3.01v-29.273l55.763-0.01c1.42,0.01,2.716-0.342,3.676-0.893c0.928-0.533,1.541-1.285,1.541-2.125
				l0.029-30.75h45.938c2.844,0,5.191-1.359,5.225-3.014l-0.033-27.281h50.23c2.872-0.021,5.189-1.352,5.212-3.014v-27.559
				l37.198-0.504l-10.199-5.879l-32.358,0.414c-2.84,0.033-5.093,1.373-5.093,3.004v27.506h-50.182
				c-2.894,0-5.237,1.352-5.237,3.018v27.277h-45.946c-2.897,0-5.245,1.344-5.245,3.018l0.031,30.76l-55.761-0.018
				c-2.869,0.018-5.223,1.369-5.246,3.021v29.275h-52.208c-2.891,0-5.23,1.359-5.23,3.025l0.019,31.895H262.336z"/>
		</g>
		<g>
			<path fill="#019D91" d="M283.192,536.969l10.463,6.035h17.9l10.315-5.953v-28.973h50.172l7.244-4.184v-28.092h48.666
				l12.345-7.131v-26.658h45.947c0.109,0,0.161,0,0.257-0.016l4.925-2.84c0.026-0.055,0.026-0.088,0.026-0.152v-27.262l47.479-0.014
				l7.94-4.584l-0.006-25.996l37.231-0.484l-10.23-5.902l-32.327,0.439c-2.836,0.027-5.099,1.367-5.099,3.008v27.498l-50.197-0.018
				c-2.906,0-5.25,1.352-5.25,3.027l0.029,27.273l-45.97-0.018c-2.873,0.018-5.215,1.377-5.248,3.031l0.033,30.758h-55.736
				c-2.897,0-5.252,1.363-5.252,3.025v29.27l-52.227-0.016c-2.868,0.016-5.216,1.369-5.245,3.021l0.029,31.891L283.192,536.969z"/>
		</g>
		<g>
			<path fill="#ED3324" d="M557.299,390.248v10.881l10.455-6.043v-1.877l3.338-0.055l10.684-6.162l-19.38,0.248
				C559.558,387.277,557.299,388.607,557.299,390.248z"/>
			<path fill="#ED3324" d="M501.855,420.76v12.371l10.454-6.035v-3.307h5.735l10.485-6.061H507.1
				C504.229,417.75,501.879,419.098,501.855,420.76z"/>
			<path fill="#ED3324" d="M450.696,451.063v11.607l10.454-6.035v-2.574h4.46l10.433-6.023h-20.105
				C453.04,448.037,450.696,449.393,450.696,451.063z"/>
			<path fill="#ED3324" d="M389.717,484.838l-0.007,13.039l10.465-6.039v-3.982l6.891,0.01l10.487-6.057l-22.593-0.008
				C392.063,481.801,389.717,483.156,389.717,484.838z"/>
			<path fill="#ED3324" d="M332.268,531.041l10.46-6.043v-4.871h8.457l10.43-6.029h-24.096c-2.905,0-5.251,1.359-5.251,3.037
				V531.041z"/>
		</g>
	</g>
</g>
</svg>
