<?xml version="1.0" encoding="utf-8"?>
<!-- Generator: Adobe Illustrator 16.0.0, SVG Export Plug-In . SVG Version: 6.00 Build 0)  -->
<!DOCTYPE svg PUBLIC "-//W3C//DTD SVG 1.1//EN" "http://www.w3.org/Graphics/SVG/1.1/DTD/svg11.dtd">
<svg version="1.1" id="Layer_1" xmlns="http://www.w3.org/2000/svg" xmlns:xlink="http://www.w3.org/1999/xlink" x="0px" y="0px"
	 width="650px" height="650px" viewBox="0 0 650 650" enable-background="new 0 0 650 650" xml:space="preserve">
<polygon fill="#D5A484" points="414.125,500.489 414.125,500.489 414.749,500.843 "/>
<g>
	<polygon opacity="0.7" fill="#B9B9B9" points="488.509,434.764 374.646,369.635 210.62,463.402 181.263,446.441 153.295,460.512 
		71.079,413.051 359.452,247.224 585.813,378.236 	"/>
	<g>
		<path fill="#003249" d="M211.606,452.043c0.568-0.018,1.132-0.051,1.687-0.096l1.409-0.16c0.749-0.092,1.302-0.199,1.846-0.307
			l1.654-0.41c0.504-0.141,0.928-0.297,1.343-0.449c0.184-0.066,0.709-0.232,0.709-0.232c0.8-0.334,1.469-0.656,2.089-1.016
			l149.326-86.207l103.616,60.205c0.545,0.326,1.217,0.641,2.07,0.98l1.096,0.422c0.496,0.123,0.731,0.186,0.968,0.238
			c0.599,0.174,1.143,0.318,1.717,0.439c0.218,0.045,0.426,0.1,0.641,0.156c0.298,0.055,0.694,0.1,1.085,0.158l1.051,0.141
			c0.686,0.057,1.242,0.094,1.804,0.111l1.649,0.012c0.61-0.012,1.157-0.045,1.709-0.096l1.453-0.16
			c0.751-0.096,1.313-0.199,1.86-0.303l1.738-0.43c0.435-0.123,0.891-0.305,1.344-0.467l0.448-0.148l0.228-0.096l0.078-0.008
			c0.552-0.227,1.277-0.574,1.933-0.951l53.587-30.939c2.147-1.232,3.106-2.555,3.1-3.332c-0.037-13.299-0.099-32.383-0.152-45.42
			l-50.921,29.398c-4.712,2.723-10.845,4.215-17.266,4.215c-6.337,0-12.397-1.471-17.064-4.133l-0.689-0.344l-0.133-0.135
			l-97.152-56.455L227.938,399.09c-4.717,2.717-10.843,4.221-17.26,4.221c-6.424,0-12.545-1.504-17.239-4.232l-40.005-23.256
			l0.136,45.238l0.033,0.359l0.126,0.377l0.124,0.244l0.308,0.449l0.068,0.07c0.151,0.188,0.281,0.332,0.423,0.463l0.329,0.307
			l0.587,0.475l0.856,0.572l43.027,25.012c0.54,0.303,1.222,0.629,2.082,0.971l1.128,0.443c0.463,0.111,0.742,0.178,0.998,0.256
			c0.494,0.129,1.038,0.273,1.604,0.396c0.229,0.041,0.496,0.111,0.754,0.182c0.167,0.029,2.063,0.27,2.063,0.27
			c0.685,0.07,1.238,0.107,1.805,0.119L211.606,452.043z"/>
		<g>
			<g>
				<path fill="#104068" d="M365.624,167.399c-7.862-4.539-14.243-1.352-14.268,7.135l-0.178,62.017
					c-0.022,8.482,6.32,18.994,14.183,23.537l57.521,33.206c7.862,4.539,14.242,1.372,14.263-7.11l0.183-62.017
					c0.017-8.479-6.32-19.015-14.181-23.554L365.624,167.399z"/>
			</g>
			<path fill="#18689A" d="M377.65,153.229c0.027-0.017,0.046-0.029,0.068-0.042c0.228-0.132,0.452-0.24,0.7-0.343
				c0.052-0.021,0.11-0.037,0.163-0.058c0.079-0.029,0.155-0.054,0.236-0.079c0.115-0.042,0.228-0.091,0.335-0.12
				c0.152-0.05,0.328-0.083,0.485-0.12c0.083-0.012,0.148-0.029,0.229-0.045c0.029-0.008,0.056-0.021,0.087-0.025
				c0.281-0.041,0.57-0.078,0.866-0.099c0.035,0,0.076,0.004,0.113,0c0.091-0.008,0.187,0,0.287,0
				c0.182-0.008,0.37-0.017,0.563-0.008c0.104,0.008,0.209,0.029,0.31,0.033c0.143,0.008,0.285,0.025,0.437,0.041
				c0.124,0.017,0.229,0.017,0.35,0.033c0.138,0.025,0.291,0.07,0.423,0.095c0.201,0.037,0.405,0.079,0.61,0.128
				c0.095,0.033,0.182,0.033,0.281,0.062c0.117,0.033,0.239,0.091,0.361,0.12c0.339,0.107,0.688,0.223,1.04,0.364
				c0.117,0.037,0.229,0.074,0.351,0.12c0.072,0.029,0.157,0.087,0.233,0.116c0.62,0.269,1.253,0.57,1.902,0.946l57.521,33.21
				c0.936,0.541,1.852,1.174,2.73,1.876c0.299,0.236,0.574,0.504,0.861,0.752c0.481,0.417,0.97,0.806,1.433,1.256
				c0.107,0.107,0.217,0.236,0.324,0.347c0.161,0.166,0.316,0.335,0.47,0.5c0.274,0.289,0.558,0.57,0.82,0.872
				c0.4,0.455,0.783,0.93,1.161,1.405c0.031,0.05,0.063,0.095,0.095,0.141c0.046,0.058,0.094,0.124,0.139,0.19
				c0.238,0.314,0.486,0.637,0.716,0.963c0.283,0.397,0.556,0.806,0.81,1.211c0.141,0.219,0.269,0.442,0.407,0.661
				c0.044,0.074,0.091,0.149,0.135,0.219c0.058,0.103,0.124,0.198,0.184,0.297c0.224,0.385,0.437,0.765,0.641,1.153
				c0.203,0.372,0.387,0.756,0.581,1.145c0.074,0.157,0.141,0.323,0.219,0.479c0.029,0.066,0.063,0.136,0.1,0.211
				c0.062,0.153,0.139,0.306,0.207,0.458c0.165,0.397,0.33,0.79,0.481,1.187c0.161,0.409,0.312,0.814,0.446,1.228
				c0.028,0.091,0.056,0.194,0.084,0.286c0.021,0.074,0.046,0.145,0.066,0.219c0.083,0.269,0.174,0.538,0.246,0.806
				c0.139,0.492,0.252,0.979,0.357,1.463c0.05,0.227,0.072,0.455,0.114,0.682c0.037,0.174,0.07,0.352,0.095,0.525
				c0.031,0.19,0.076,0.384,0.095,0.579c0.11,0.823,0.166,1.641,0.166,2.443l-0.185,62.013c-0.006,4.034-1.453,6.866-3.817,8.234
				l-22.46,13.054c2.362-1.368,3.812-4.2,3.821-8.234l0.183-62.017c0-0.992-0.105-2.013-0.265-3.055
				c-0.023-0.153-0.054-0.298-0.077-0.447c-0.18-0.996-0.423-1.988-0.735-2.993c-0.013-0.079-0.044-0.145-0.063-0.219
				c-0.339-1.058-0.748-2.116-1.226-3.167c-0.03-0.07-0.063-0.136-0.103-0.215c-0.479-1.05-1.027-2.087-1.638-3.092
				c-0.022-0.054-0.056-0.099-0.089-0.153c-0.605-0.997-1.267-1.972-1.976-2.91c-0.039-0.045-0.064-0.091-0.104-0.141
				c-0.657-0.855-1.359-1.653-2.081-2.422c-0.161-0.173-0.316-0.351-0.481-0.517c-0.568-0.575-1.17-1.1-1.773-1.62
				c-0.281-0.236-0.548-0.504-0.833-0.728c-0.887-0.699-1.802-1.335-2.738-1.877l-57.523-33.214
				c-0.649-0.372-1.284-0.682-1.914-0.955c-0.19-0.075-0.385-0.149-0.57-0.228c-0.354-0.136-0.709-0.256-1.055-0.368
				c-0.213-0.058-0.415-0.124-0.632-0.182c-0.207-0.045-0.407-0.087-0.614-0.128c-0.252-0.045-0.509-0.087-0.759-0.124
				c-0.161-0.017-0.313-0.029-0.456-0.042c-0.294-0.025-0.566-0.029-0.854-0.025c-0.097,0-0.2-0.004-0.293,0
				c-0.368,0.021-0.726,0.058-1.07,0.124c-0.075,0.013-0.143,0.038-0.22,0.054c-0.28,0.066-0.558,0.137-0.822,0.223
				c-0.083,0.029-0.161,0.058-0.24,0.091c-0.328,0.124-0.636,0.269-0.936,0.434L377.65,153.229z"/>
		</g>
		<g>
			<g>
				<path fill="#005183" d="M151.137,288.242c-8.523,4.919-15.439,17.262-15.41,27.526l0.126,44.478
					c0.027,10.27,6.988,14.602,15.516,9.674l212.604-122.753c8.548-4.932,15.442-17.262,15.41-27.522l-0.12-44.482
					c-0.033-10.268-6.972-14.604-15.52-9.668L151.137,288.242z"/>
			</g>
			<path fill="#104068" d="M117.361,304.326c0.008-0.269,0.021-0.542,0.037-0.827c0.004-0.07,0.019-0.149,0.023-0.227
				c0.006-0.091,0.012-0.19,0.022-0.281c0.006-0.099,0.017-0.207,0.023-0.293c0.027-0.281,0.06-0.562,0.093-0.835
				c0.025-0.194,0.052-0.38,0.085-0.566c0.006-0.079,0.017-0.153,0.033-0.236c0-0.008,0-0.024,0.002-0.037
				c0.043-0.289,0.089-0.574,0.146-0.855c0.054-0.29,0.114-0.587,0.176-0.872c0.01-0.033,0.017-0.063,0.019-0.091
				c0.011-0.045,0.025-0.086,0.035-0.132c0.048-0.215,0.093-0.438,0.149-0.653c0.074-0.293,0.151-0.587,0.231-0.885
				c0.023-0.095,0.062-0.19,0.087-0.281c0.023-0.083,0.047-0.162,0.072-0.244c0.033-0.116,0.066-0.231,0.104-0.355
				c0.084-0.281,0.171-0.566,0.271-0.852c0.062-0.182,0.13-0.368,0.194-0.546c0.017-0.062,0.04-0.124,0.058-0.186
				c0.014-0.037,0.031-0.066,0.037-0.104c0.097-0.269,0.2-0.537,0.302-0.81c0.109-0.265,0.211-0.521,0.32-0.786
				c0.019-0.045,0.042-0.091,0.06-0.145c0.027-0.045,0.043-0.095,0.06-0.141c0.07-0.169,0.137-0.327,0.209-0.488
				c0.118-0.269,0.246-0.542,0.366-0.802c0.074-0.153,0.153-0.314,0.233-0.471c0.025-0.062,0.048-0.12,0.085-0.178
				c0.025-0.05,0.05-0.107,0.079-0.157c0.157-0.331,0.333-0.666,0.504-0.996c0.07-0.124,0.145-0.248,0.217-0.368
				c0.112-0.215,0.231-0.43,0.352-0.637c0.093-0.161,0.176-0.314,0.265-0.471c0.095-0.162,0.205-0.314,0.299-0.476
				c0.203-0.339,0.412-0.657,0.616-0.979c0.089-0.145,0.182-0.281,0.272-0.426c0.143-0.215,0.296-0.426,0.447-0.637
				c0.099-0.132,0.196-0.269,0.295-0.414c0.058-0.083,0.112-0.169,0.176-0.252l0.01,0.012l0,0l-0.01-0.012
				c0.219-0.293,0.43-0.579,0.657-0.868c0.091-0.103,0.171-0.203,0.256-0.306c0.049-0.066,0.101-0.128,0.151-0.19
				c0.066-0.083,0.138-0.173,0.208-0.252c0.186-0.228,0.376-0.451,0.573-0.669c0.145-0.17,0.293-0.335,0.45-0.505
				c0.019-0.021,0.043-0.049,0.062-0.07c0.025-0.033,0.05-0.054,0.077-0.083c0.201-0.219,0.411-0.434,0.616-0.645
				c0.205-0.211,0.416-0.426,0.633-0.625c0.014-0.017,0.033-0.033,0.049-0.045c0.023-0.025,0.05-0.054,0.081-0.083
				c0.172-0.157,0.343-0.322,0.527-0.483c0.215-0.203,0.436-0.389,0.655-0.575c0.06-0.05,0.126-0.099,0.178-0.149
				c0.049-0.033,0.095-0.07,0.134-0.104c0.116-0.099,0.233-0.194,0.351-0.293c0.217-0.165,0.432-0.331,0.649-0.492
				c0.13-0.099,0.267-0.19,0.401-0.29c0.035-0.021,0.066-0.045,0.101-0.07c0.05-0.033,0.095-0.066,0.146-0.099
				c0.205-0.141,0.416-0.277,0.618-0.409c0.213-0.141,0.422-0.26,0.624-0.38c0.054-0.037,0.102-0.058,0.149-0.095l212.604-122.744
				c0.161-0.087,0.322-0.178,0.475-0.265c0.201-0.107,0.405-0.21,0.598-0.314c0.15-0.074,0.285-0.132,0.43-0.198
				c0.022-0.008,0.054-0.021,0.07-0.038c0.037-0.008,0.07-0.029,0.102-0.041c0.202-0.095,0.398-0.182,0.597-0.252
				c0.203-0.079,0.401-0.162,0.602-0.228c0.048-0.021,0.096-0.033,0.139-0.045c0.029-0.013,0.06-0.021,0.095-0.029
				c0.116-0.042,0.242-0.083,0.366-0.124c0.202-0.058,0.407-0.112,0.609-0.166c0.12-0.029,0.244-0.058,0.362-0.079
				c0.031-0.008,0.063-0.017,0.097-0.025c0.052-0.008,0.105-0.025,0.157-0.033c0.219-0.046,0.444-0.083,0.653-0.108
				c0.161-0.025,0.326-0.037,0.485-0.049c0.029-0.008,0.059-0.008,0.091-0.013c0.025-0.004,0.052-0.008,0.085-0.008
				c0.244-0.017,0.498-0.025,0.726-0.025c0.124,0.004,0.242,0.012,0.361,0.016c0.066,0.009,0.147,0.009,0.22,0.013
				c0.068,0.004,0.143,0.004,0.2,0.008c0.3,0.029,0.589,0.074,0.878,0.128c0.017,0.004,0.031,0.013,0.046,0.013
				c0.114,0.025,0.215,0.066,0.322,0.091c0.244,0.062,0.488,0.116,0.718,0.198c0.033,0.008,0.054,0.025,0.08,0.038
				c0.413,0.148,0.814,0.326,1.19,0.55c6.12,3.559,12.25,7.114,18.374,10.677c-0.382-0.215-0.781-0.401-1.192-0.55
				c-0.229-0.083-0.465-0.148-0.698-0.202c-0.145-0.046-0.283-0.095-0.43-0.124c-0.358-0.075-0.732-0.12-1.103-0.149
				c-0.084-0.004-0.165-0.008-0.248-0.008c-0.376-0.017-0.76-0.017-1.161,0.017c-0.019,0.004-0.052,0.004-0.08,0.008
				c-0.416,0.033-0.85,0.099-1.288,0.19c-0.041,0.008-0.081,0.021-0.124,0.025c-0.424,0.095-0.862,0.219-1.307,0.359
				c-0.037,0.017-0.084,0.029-0.124,0.042c-0.463,0.161-0.932,0.347-1.413,0.562c-0.029,0.017-0.063,0.033-0.096,0.05
				c-0.489,0.219-0.989,0.479-1.487,0.769L151.137,288.242c-0.51,0.293-1.011,0.616-1.504,0.955
				c-0.064,0.045-0.12,0.083-0.178,0.132c-0.447,0.314-0.893,0.645-1.317,1.004c-0.066,0.05-0.132,0.104-0.198,0.157
				c-0.471,0.389-0.93,0.802-1.378,1.231c-0.011,0-0.015,0.008-0.021,0.008c-0.465,0.451-0.921,0.914-1.37,1.401
				c-0.042,0.038-0.084,0.083-0.118,0.136c-0.409,0.447-0.814,0.918-1.205,1.385c-0.054,0.07-0.112,0.141-0.161,0.207
				c-0.368,0.459-0.722,0.926-1.071,1.405c-0.103,0.145-0.207,0.298-0.318,0.446c-0.223,0.327-0.457,0.662-0.676,1.009
				c-0.213,0.318-0.416,0.653-0.624,0.976c-0.205,0.347-0.419,0.686-0.614,1.033c-0.095,0.17-0.19,0.335-0.277,0.504
				c-0.296,0.525-0.579,1.063-0.848,1.604c-0.025,0.045-0.049,0.104-0.072,0.157c-0.292,0.579-0.552,1.161-0.8,1.752
				c-0.027,0.058-0.048,0.107-0.068,0.157c-0.26,0.616-0.5,1.24-0.728,1.86c-0.019,0.05-0.029,0.1-0.052,0.153
				c-0.213,0.599-0.403,1.203-0.583,1.802c-0.021,0.07-0.042,0.124-0.058,0.203c-0.184,0.624-0.343,1.256-0.479,1.885
				c-0.01,0.012-0.01,0.037-0.01,0.041c-0.153,0.653-0.273,1.298-0.372,1.951c0,0.033-0.006,0.066-0.01,0.1
				c-0.095,0.611-0.171,1.224-0.217,1.839c-0.006,0.05-0.006,0.096-0.01,0.153c-0.047,0.632-0.076,1.261-0.072,1.877l0.126,44.478
				c0.002,0.629,0.033,1.236,0.085,1.814c0.008,0.063,0.017,0.121,0.017,0.195c0.054,0.533,0.128,1.045,0.229,1.541
				c0.006,0.063,0.016,0.117,0.033,0.182c0.097,0.484,0.215,0.943,0.352,1.391c0.022,0.086,0.056,0.168,0.084,0.264
				c0.143,0.396,0.279,0.773,0.442,1.133c0.025,0.059,0.043,0.123,0.075,0.186c0.196,0.41,0.403,0.803,0.632,1.166
				c0.012,0.016,0.023,0.037,0.033,0.045c0.002,0.018,0.012,0.025,0.019,0.041c0.333,0.51,0.707,0.955,1.108,1.361
				c0.097,0.111,0.207,0.201,0.31,0.297c0.418,0.393,0.864,0.748,1.354,1.037c-6.132-3.559-12.25-7.117-18.382-10.686
				c-0.486-0.275-0.93-0.635-1.343-1.029c-0.114-0.094-0.211-0.193-0.314-0.297c-0.401-0.414-0.769-0.852-1.097-1.363
				c-0.008-0.01-0.019-0.018-0.023-0.021c-0.006-0.008-0.006-0.008-0.006-0.012c-0.021-0.025-0.027-0.059-0.051-0.084
				c-0.201-0.326-0.399-0.668-0.573-1.029c-0.012-0.033-0.022-0.07-0.039-0.107c-0.029-0.064-0.06-0.141-0.093-0.215
				c-0.087-0.207-0.186-0.422-0.267-0.645c-0.054-0.145-0.103-0.311-0.157-0.463c-0.029-0.07-0.051-0.152-0.081-0.24
				c-0.017-0.061-0.043-0.119-0.058-0.186c-0.085-0.277-0.157-0.563-0.228-0.859c-0.021-0.111-0.045-0.229-0.066-0.344
				c-0.017-0.07-0.031-0.145-0.045-0.227c-0.017-0.078-0.033-0.152-0.052-0.24c-0.048-0.264-0.083-0.537-0.12-0.814
				c-0.019-0.148-0.033-0.318-0.052-0.475c-0.006-0.055-0.01-0.104-0.016-0.158c-0.002-0.061-0.01-0.115-0.013-0.174
				c-0.019-0.256-0.043-0.52-0.052-0.797c-0.01-0.264-0.024-0.533-0.024-0.814c0-0.012,0-0.033,0-0.049l-0.124-44.483
				C117.349,304.835,117.351,304.583,117.361,304.326z"/>
		</g>
		<g>
			<path fill="#104068" d="M472.209,354.68c0.009,0.004,0.011,0.004,0.017,0.012l0.174,60.314l-100.718-58.533l-0.168-60.314
				L472.209,354.68z"/>
			<path fill="#0B5083" d="M500.893,354.68l53.589-30.938c5.282-3.047,5.971-7.99,5.971-7.99s0.146,37.91,0.205,59.951
				c0.012,3.021-1.988,6.059-5.985,8.365l-53.585,30.938c-0.918,0.533-1.903,1-2.931,1.408c-0.056,0.014-0.107,0.029-0.165,0.051
				c-0.166,0.066-0.344,0.111-0.507,0.178c-0.589,0.215-1.18,0.426-1.796,0.604c-0.328,0.086-0.672,0.164-1.005,0.238
				c-0.191,0.055-0.386,0.104-0.582,0.154c-0.178,0.037-0.346,0.09-0.529,0.127c-0.659,0.133-1.338,0.248-2.014,0.344
				c-0.229,0.037-0.467,0.049-0.696,0.078c-0.184,0.025-0.361,0.047-0.543,0.063c-0.248,0.029-0.49,0.063-0.728,0.078
				c-0.666,0.055-1.329,0.096-1.995,0.107c-0.208,0.008-0.417,0-0.626,0c-0.182,0-0.357,0-0.544-0.004c-0.295,0-0.605,0.012-0.907,0
				c-0.754-0.025-1.502-0.082-2.244-0.152c-0.093,0-0.17-0.021-0.263-0.037c-0.202-0.025-0.393-0.063-0.602-0.084
				c-0.572-0.07-1.157-0.135-1.722-0.242c-0.246-0.037-0.479-0.125-0.724-0.17c-0.7-0.152-1.376-0.332-2.059-0.521
				c-0.353-0.09-0.723-0.148-1.062-0.264c-0.283-0.092-0.548-0.215-0.829-0.311c-0.267-0.104-0.521-0.189-0.787-0.303
				c-0.988-0.387-1.949-0.83-2.83-1.342l-0.174-60.314C480.123,359.268,492.95,359.268,500.893,354.68z"/>
			<path fill="#13477A" d="M153.504,355.779l42.874,24.912c7.901,4.594,20.728,4.594,28.686,0l0.017-0.012l146.417-84.53
				l0.017,0.008l0.168,60.314l-146.435,84.545c-0.916,0.529-1.899,0.996-2.926,1.406c-0.056,0.025-0.114,0.037-0.167,0.053
				c-0.157,0.063-0.316,0.107-0.476,0.166c-0.604,0.219-1.201,0.438-1.825,0.611c-0.325,0.096-0.666,0.162-1,0.244
				c-0.201,0.051-0.399,0.1-0.6,0.148c-0.167,0.037-0.337,0.088-0.515,0.129c-0.665,0.133-1.329,0.256-2.011,0.352
				c-0.246,0.033-0.492,0.049-0.729,0.074c-0.161,0.025-0.32,0.045-0.484,0.063c-0.254,0.02-0.502,0.061-0.758,0.086
				c-0.659,0.051-1.325,0.088-1.997,0.104c-0.215,0.008-0.426-0.008-0.639-0.008c-0.178,0-0.343,0-0.511,0
				c-0.306-0.008-0.618,0.008-0.924-0.008c-0.752-0.018-1.506-0.08-2.249-0.146c-0.077-0.008-0.167-0.023-0.254-0.031
				c-0.198-0.029-0.391-0.059-0.597-0.092c-0.575-0.066-1.16-0.137-1.736-0.236c-0.252-0.037-0.49-0.141-0.742-0.186
				c-0.682-0.141-1.35-0.314-2.003-0.5c-0.357-0.1-0.738-0.152-1.095-0.27c-0.285-0.098-0.543-0.215-0.825-0.313
				c-0.267-0.1-0.523-0.191-0.786-0.303c-0.988-0.404-1.949-0.83-2.84-1.344l-42.861-24.912c-0.093-0.047-0.167-0.1-0.25-0.145
				c-0.192-0.113-0.352-0.24-0.529-0.348c-0.242-0.17-0.5-0.326-0.728-0.492c-0.207-0.145-0.38-0.299-0.568-0.451
				c-0.213-0.164-0.43-0.33-0.624-0.508c-0.037-0.037-0.087-0.074-0.126-0.107c-0.083-0.078-0.14-0.162-0.217-0.232
				c-0.31-0.301-0.595-0.604-0.854-0.918c-0.056-0.07-0.139-0.131-0.184-0.201c-0.058-0.07-0.087-0.145-0.141-0.211
				c-0.171-0.229-0.324-0.455-0.469-0.686c-0.064-0.109-0.155-0.207-0.213-0.318c-0.033-0.059-0.041-0.117-0.074-0.166
				c-0.104-0.189-0.192-0.385-0.271-0.588c-0.062-0.131-0.148-0.26-0.192-0.4c-0.015-0.045-0.021-0.086-0.037-0.133
				c-0.077-0.189-0.118-0.389-0.167-0.586c-0.037-0.141-0.095-0.285-0.118-0.422c-0.01-0.033-0.01-0.063-0.016-0.107
				c-0.033-0.211-0.05-0.422-0.07-0.637c-0.015-0.148-0.043-0.277-0.043-0.418c-0.01-0.063-0.01-0.123-0.01-0.182
				c-0.027-11.012-0.064-22.037-0.093-33.053c-0.024-9.045-0.054-18.08-0.079-27.121
				C147.702,350.619,149.645,353.533,153.504,355.779z"/>
			<path fill="#197BAE" d="M147.624,347.291v0.377c0.087,2.955,2.021,5.854,5.876,8.115l42.878,24.908
				c7.901,4.576,20.741,4.576,28.684,0h0.022l143.735-82.996l2.527-1.447l0.15-0.091h0.027l51.096,29.697l31.755,18.458
				l17.845,10.371c7.903,4.57,20.743,4.57,28.677,0l53.593-30.942c5.274-3.037,7.044-7.358,5.333-11.235
				c-0.873-1.976-2.604-3.832-5.244-5.365L439.57,240.28l-42.874-24.91c-7.908-4.576-20.738-4.576-28.68,0l-53.593,30.937
				l-14.771,8.544l-2.523,1.451l-143.542,82.854c-2.689,1.559-4.46,3.439-5.328,5.445
				C147.886,345.498,147.648,346.395,147.624,347.291z"/>
		</g>
		<g>
			<g>
				<path fill="#104068" d="M89.643,326.67c-7.862-4.543-14.238-1.348-14.265,7.129L75.2,395.82
					c-0.019,8.479,6.32,18.99,14.185,23.533l57.52,33.205c7.862,4.543,14.238,1.369,14.266-7.105l0.178-62.025
					c0.019-8.473-6.323-19.014-14.177-23.549L89.643,326.67z"/>
			</g>
			<path fill="#18689A" d="M101.674,312.499c0.025-0.017,0.043-0.033,0.066-0.049c0.228-0.12,0.455-0.236,0.701-0.335
				c0.047-0.029,0.11-0.042,0.161-0.058c0.081-0.037,0.164-0.058,0.248-0.086c0.105-0.038,0.217-0.087,0.325-0.116
				c0.161-0.049,0.329-0.083,0.494-0.12c0.073-0.012,0.141-0.029,0.219-0.05c0.033-0.004,0.06-0.012,0.087-0.016
				c0.281-0.05,0.568-0.083,0.868-0.104c0.037,0,0.072,0.004,0.111,0c0.089,0,0.19,0,0.29,0c0.184-0.008,0.366-0.017,0.564-0.008
				c0.102,0.008,0.207,0.025,0.306,0.033c0.146,0.013,0.295,0.025,0.438,0.042c0.122,0.017,0.229,0.017,0.35,0.038
				c0.14,0.016,0.285,0.066,0.426,0.086c0.196,0.042,0.403,0.083,0.604,0.136c0.099,0.025,0.186,0.033,0.285,0.058
				c0.12,0.033,0.24,0.091,0.361,0.12c0.339,0.104,0.687,0.224,1.04,0.364c0.116,0.037,0.223,0.074,0.351,0.12
				c0.072,0.025,0.161,0.083,0.234,0.116c0.624,0.269,1.254,0.57,1.899,0.951l57.524,33.202c0.937,0.547,1.852,1.184,2.73,1.881
				c0.299,0.236,0.57,0.504,0.862,0.756c0.481,0.41,0.971,0.803,1.428,1.254c0.109,0.111,0.215,0.23,0.329,0.352
				c0.163,0.16,0.314,0.33,0.467,0.496c0.281,0.293,0.563,0.57,0.825,0.879c0.397,0.451,0.781,0.928,1.158,1.406
				c0.024,0.041,0.066,0.092,0.099,0.133c0.041,0.061,0.091,0.127,0.136,0.186c0.24,0.322,0.486,0.637,0.709,0.967
				c0.281,0.396,0.562,0.807,0.818,1.215c0.141,0.225,0.271,0.439,0.405,0.662c0.043,0.074,0.093,0.145,0.134,0.215
				c0.058,0.104,0.124,0.199,0.18,0.299c0.226,0.383,0.44,0.764,0.645,1.152c0.201,0.381,0.395,0.76,0.581,1.145
				c0.077,0.162,0.143,0.322,0.219,0.48c0.029,0.066,0.066,0.141,0.099,0.211c0.068,0.152,0.139,0.314,0.207,0.459
				c0.173,0.396,0.328,0.789,0.483,1.186c0.159,0.404,0.306,0.814,0.444,1.229c0.029,0.094,0.054,0.193,0.087,0.289
				c0.019,0.074,0.047,0.145,0.066,0.215c0.081,0.268,0.169,0.545,0.248,0.811c0.134,0.486,0.25,0.975,0.355,1.459
				c0.048,0.227,0.075,0.459,0.114,0.682c0.035,0.174,0.064,0.352,0.097,0.525c0.025,0.193,0.07,0.385,0.095,0.574
				c0.103,0.826,0.163,1.641,0.163,2.443l-0.182,62.021c-0.011,4.029-1.458,6.865-3.826,8.232l-22.452,13.051
				c2.362-1.369,3.811-4.199,3.82-8.23l0.178-62.025c0-0.988-0.102-2.012-0.263-3.051c-0.019-0.152-0.052-0.301-0.077-0.445
				c-0.18-0.996-0.423-1.992-0.731-3.006c-0.021-0.066-0.05-0.127-0.064-0.203c-0.348-1.057-0.752-2.115-1.232-3.162
				c-0.033-0.078-0.058-0.148-0.097-0.219c-0.486-1.049-1.029-2.092-1.633-3.096c-0.029-0.059-0.062-0.1-0.091-0.148
				c-0.608-1.004-1.273-1.977-1.978-2.914c-0.04-0.051-0.072-0.092-0.104-0.141c-0.659-0.848-1.364-1.654-2.087-2.422
				c-0.159-0.17-0.31-0.344-0.478-0.51c-0.568-0.582-1.167-1.104-1.773-1.629c-0.281-0.234-0.552-0.504-0.837-0.727
				c-0.882-0.699-1.794-1.336-2.732-1.877L89.643,326.67c-0.647-0.377-1.283-0.684-1.91-0.959c-0.19-0.07-0.384-0.154-0.574-0.229
				c-0.356-0.137-0.703-0.252-1.05-0.363c-0.215-0.063-0.419-0.129-0.634-0.182c-0.207-0.051-0.409-0.092-0.612-0.129
				c-0.256-0.053-0.508-0.095-0.761-0.123c-0.159-0.018-0.314-0.033-0.461-0.042c-0.292-0.024-0.568-0.037-0.843-0.024
				c-0.101,0-0.207-0.013-0.302,0c-0.368,0.016-0.719,0.053-1.066,0.119c-0.077,0.018-0.149,0.037-0.221,0.059
				c-0.281,0.063-0.56,0.128-0.823,0.227c-0.078,0.025-0.167,0.051-0.24,0.088c-0.329,0.119-0.638,0.264-0.934,0.434
				L101.674,312.499z"/>
		</g>
		<polygon fill="#003249" points="454.375,344.191 422.62,325.855 454.375,344.313 		"/>
		<polygon fill="#0B4977" points="297.129,256.302 368.819,297.696 371.347,296.249 299.652,254.851 		"/>
	</g>
	<g>
		<path opacity="0.2" fill="#B9B9B9" d="M71.827,492.875c-18.258,10.541-18.258,27.633,0,38.178
			c18.263,10.549,47.874,10.549,66.124,0c18.258-10.545,18.258-27.637,0-38.178C119.701,482.33,90.09,482.33,71.827,492.875z"/>
		<g>
			<g>
				<g enable-background="new    ">
					<g>
						<polygon fill="#C59E2D" points="138.445,418.617 138.709,511.959 145.937,507.777 145.681,414.439 						"/>
					</g>
					<g>
						<polygon fill="#987F2E" points="138.445,418.617 134.01,416.029 134.27,509.381 138.709,511.959 						"/>
					</g>
					<g>
						<polygon fill="#A9892F" points="145.681,414.439 141.248,411.863 134.01,416.029 138.445,418.617 						"/>
					</g>
				</g>
			</g>
			<g>
				<g enable-background="new    ">
					<g>
						<polygon fill="#C59E2D" points="105.068,437.645 105.328,530.986 112.573,526.813 112.304,433.471 						"/>
					</g>
					<g>
						<polygon fill="#987F2E" points="105.068,437.645 100.637,435.066 100.897,528.412 105.328,530.986 						"/>
					</g>
					<g>
						<polygon fill="#A9892F" points="112.304,433.471 107.871,430.895 100.637,435.066 105.068,437.645 						"/>
					</g>
				</g>
			</g>
			<g>
				<g enable-background="new    ">
					<g>
						<polygon fill="#C59E2D" points="69.153,418.617 69.411,511.959 76.651,507.777 76.387,414.439 						"/>
					</g>
					<g>
						<polygon fill="#987F2E" points="69.153,418.617 64.715,416.029 64.984,509.381 69.411,511.959 						"/>
					</g>
					<g>
						<polygon fill="#A9892F" points="76.387,414.439 71.951,411.863 64.715,416.029 69.153,418.617 						"/>
					</g>
				</g>
			</g>
			<polygon fill="#C59E2D" points="63.37,405.295 63.37,405.295 63.37,405.295 			"/>
			<path fill="#E0B125" d="M64.167,409.02c-0.432-1.236-0.696-2.477-0.798-3.725L64.167,409.02z"/>
			<g>
				<path fill="#C59E2D" d="M149.781,410.131l-0.12,0.521c0.019-0.17,0.058-0.348,0.068-0.521H149.781z"/>
				<path fill="#C59E2D" d="M73.16,427.244c17.525,10.111,45.946,10.111,63.47-0.008c6.661-3.852,10.789-8.602,12.382-13.574
					l-2.869,13.119c-0.405,5.771-4.415,11.471-12.052,15.891c-16.117,9.309-42.264,9.309-58.39,0
					c-7.637-4.41-11.651-10.119-12.047-15.891l-2.764-12.771C62.566,418.854,66.654,423.479,73.16,427.244z"/>
				<path fill="#E0B125" d="M149.013,413.662l0.649-3.01C149.544,411.66,149.335,412.666,149.013,413.662z"/>
				<path fill="#E0B125" d="M73.16,390.596c17.525-10.119,45.946-10.119,63.47,0c9.307,5.361,13.664,12.5,13.1,19.535
					c-0.01,0.174-0.05,0.352-0.068,0.521l-0.649,3.01c-1.594,4.973-5.721,9.723-12.382,13.574
					c-17.524,10.119-45.945,10.119-63.47,0.008c-6.506-3.766-10.594-8.391-12.269-13.234l-0.825-3.879l0,0
					C59.501,403.096,63.857,395.957,73.16,390.596z"/>
				<path fill="#C59E2D" d="M62.624,408.924c0,2.369,0.662,4.693,1.964,6.916c1.934,3.369,5.293,6.482,9.879,9.131
					c8.096,4.664,18.889,7.246,30.425,7.246c11.539,0,22.345-2.582,30.436-7.246c4.597-2.648,7.938-5.762,9.884-9.131
					c1.277-2.223,1.951-4.547,1.951-6.916c0-5.951-4.194-11.664-11.835-16.07c-8.091-4.664-18.897-7.234-30.436-7.234
					c-11.537,0-22.33,2.57-30.425,7.234C66.834,397.26,62.624,402.973,62.624,408.924z"/>
				<path fill="#BC812B" d="M64.587,415.84c1.934,3.369,5.293,6.482,9.879,9.131c8.096,4.664,18.889,7.246,30.425,7.246
					c11.539,0,22.345-2.582,30.436-7.246c4.597-2.648,7.938-5.762,9.884-9.131c-2.104-2.518-4.969-4.869-8.571-6.949
					c-17.535-10.113-45.952-10.113-63.48,0C69.55,410.986,66.693,413.322,64.587,415.84z"/>
				<path opacity="0.3" fill="#FFFFFF" d="M62.624,408.924c0,2.369,0.662,4.693,1.964,6.916c1.934,3.369,5.293,6.482,9.879,9.131
					c8.096,4.664,18.889,7.246,30.425,7.246c11.539,0,22.345-2.582,30.436-7.246c4.597-2.648,7.938-5.762,9.884-9.131
					c1.277-2.223,1.951-4.547,1.951-6.916c0-5.951-4.194-11.664-11.835-16.07c-8.091-4.664-18.897-7.234-30.436-7.234
					c-11.537,0-22.33,2.57-30.425,7.234C66.834,397.26,62.624,402.973,62.624,408.924z"/>
			</g>
			<g>
				<g>
					<g>
						<g enable-background="new    ">
							<g>
								<polygon fill="#DF4141" points="97.871,410.83 74.556,397.279 93.196,386.529 116.51,400.07 								"/>
							</g>
							<g>
								<polygon fill="#C12126" points="97.871,410.83 97.898,417.775 74.576,404.232 74.556,397.279 								"/>
							</g>
							<g>
								<polygon fill="#D92D29" points="116.51,400.07 116.522,407.016 97.898,417.775 97.871,410.83 								"/>
								<polygon fill="#FCDDDD" points="116.51,400.07 116.558,406.416 97.925,417.18 97.871,410.83 								"/>
							</g>
						</g>
					</g>
				</g>
				<g>
					<g>
						<g enable-background="new    ">
							<g>
								<polygon fill="#0B538D" points="97.851,403.332 74.529,389.777 93.171,379.021 116.491,392.572 								"/>
							</g>
							<g>
								<polygon fill="#2A6DB6" points="97.851,403.332 97.863,410.268 74.547,396.73 74.529,389.777 								"/>
							</g>
							<g>
								<polygon fill="#D92D29" points="116.491,392.572 116.506,399.512 97.863,410.268 97.851,403.332 								"/>
								<polygon fill="#FCDDDD" points="116.491,392.572 116.528,398.922 97.902,409.678 97.851,403.332 								"/>
							</g>
						</g>
					</g>
				</g>
				<g>
					<g>
						<g enable-background="new    ">
							<g>
								<polygon fill="#DF4141" points="97.851,396.012 74.529,382.461 93.171,371.697 116.491,385.26 								"/>
							</g>
							<g>
								<polygon fill="#C12126" points="97.851,396.012 97.863,402.955 74.547,389.406 74.529,382.461 								"/>
							</g>
							<g>
								<polygon fill="#D92D29" points="116.491,385.26 116.506,392.195 97.863,402.955 97.851,396.012 								"/>
								<polygon fill="#FCDDDD" points="116.491,385.26 116.528,391.6 97.902,402.359 97.851,396.012 								"/>
							</g>
						</g>
					</g>
				</g>
			</g>
		</g>
	</g>
</g>
</svg>
