<?xml version="1.0" encoding="utf-8"?>
<!-- Generator: Adobe Illustrator 16.0.0, SVG Export Plug-In . SVG Version: 6.00 Build 0)  -->
<!DOCTYPE svg PUBLIC "-//W3C//DTD SVG 1.1//EN" "http://www.w3.org/Graphics/SVG/1.1/DTD/svg11.dtd">
<svg version="1.1" id="Layer_1" xmlns="http://www.w3.org/2000/svg" xmlns:xlink="http://www.w3.org/1999/xlink" x="0px" y="0px"
	 width="650px" height="650px" viewBox="0 0 650 650" enable-background="new 0 0 650 650" xml:space="preserve">
<polygon fill="#D5A484" points="414.125,500.489 414.125,500.489 414.749,500.843 "/>
<g>
	<path opacity="0.5" fill="#E1E3E4" d="M357.297,432.652c-16.748,9.664-16.748,25.334-0.009,34.998
		c16.743,9.67,43.883,9.67,60.624,0c16.739-9.664,16.739-25.334,0-34.998C401.171,422.979,374.035,422.979,357.297,432.652z"/>
	<path fill="#EE2F53" d="M363.262,428.676c-4.8,3.695-16.934,15.674-15.628,19.295c1.303,3.609,10.867,5.502,17.206-0.311
		c6.35-5.811,10.115-8.631,13.836-9.775c3.703-1.141,2.533-7.168,0.473-9.471C376.543,425.525,370.249,423.318,363.262,428.676z"/>
	
		<linearGradient id="SVGID_1_" gradientUnits="userSpaceOnUse" x1="938.6914" y1="461.4258" x2="997.5787" y2="419.4565" gradientTransform="matrix(0.9998 -0.0179 0.0179 0.9998 -589.8735 -2.4248)">
		<stop  offset="0.01" style="stop-color:#DAA192"/>
		<stop  offset="0.99" style="stop-color:#DE817B"/>
	</linearGradient>
	<path fill="url(#SVGID_1_)" d="M366.178,427.365c0,0-7.751,4.947-7.658,9.916c0.009,0.619,0.348,1.777,0.681,2.381
		c1.47,2.717,6.506,1.674,11.232-0.811c4.566-2.418,7.629-3.422,8.067-6.48C369.784,430.42,366.178,427.365,366.178,427.365z"/>
	<path fill="#EE2F53" d="M410.525,448.807c-2.236,3.799-4.33,8.539-6.833,11.078c-2.495,2.533-10.556,10.139-3.417,14.096
		c7.14,3.951,20.347-9.211,22.387-15.064c2.309-6.613,0.419-9.168-1.462-9.842C419.319,448.393,410.525,448.807,410.525,448.807z"/>
	
		<linearGradient id="SVGID_2_" gradientUnits="userSpaceOnUse" x1="984.6152" y1="483.8203" x2="1040.2256" y2="444.1865" gradientTransform="matrix(0.9998 -0.0179 0.0179 0.9998 -589.8735 -2.4248)">
		<stop  offset="0.01" style="stop-color:#DAA192"/>
		<stop  offset="0.99" style="stop-color:#DE817B"/>
	</linearGradient>
	<path fill="url(#SVGID_2_)" d="M410.244,451.373c0,0-6.167,10.445-3.214,12.053c2.309,1.299,9.199-0.875,12.728-5.662
		c0.93-1.236,1.703-3.188,1.813-3.98C416.905,453.543,411.176,452.072,410.244,451.373z"/>
	<g>
		
			<linearGradient id="SVGID_3_" gradientUnits="userSpaceOnUse" x1="668.9727" y1="271.8794" x2="574.3054" y2="240.5305" gradientTransform="matrix(-1 0 0 1 945.0117 0)">
			<stop  offset="0.01" style="stop-color:#DAA192"/>
			<stop  offset="0.99" style="stop-color:#DE817B"/>
		</linearGradient>
		<path fill="url(#SVGID_3_)" d="M293.084,294.178l4.494,3.076l1.006,0.674c0,0,17.765-4.423,27.043-10.239
			c9.303-5.816,15.98-22.479,17.786-28.774c0,0-0.843-0.938-1.298-6.052c-0.239-2.5-0.384-6.01-0.291-10.892
			c0.314-14.852,1.637-26.319,1.637-26.319c-3.699,7.094-12.015,20.189-17.043,37.757c-5.016,17.572-6.411,19.378-8.29,21.251
			C316.229,276.532,293.084,294.178,293.084,294.178z"/>
		
			<linearGradient id="SVGID_4_" gradientUnits="userSpaceOnUse" x1="658.7578" y1="286.2119" x2="585.1446" y2="261.835" gradientTransform="matrix(-1 0 0 1 945.0117 0)">
			<stop  offset="0.01" style="stop-color:#DAA192"/>
			<stop  offset="0.99" style="stop-color:#DE817B"/>
		</linearGradient>
		<path opacity="0.3" fill="url(#SVGID_4_)" d="M297.216,296.629l0.362,0.625l1.006,0.674c0,0,17.765-4.423,27.043-10.239
			c9.303-5.816,15.98-22.479,17.786-28.774c0,0-0.843-0.938-1.298-6.052l-0.963-1.017c-3.603,13.513-6.653,23.293-13.486,30.192
			C320.869,288.961,297.216,296.629,297.216,296.629z"/>
	</g>
	<path fill="#DC1D40" d="M342.485,254.396c0,0-8.427-2.319-14.811-8.002c0,0,7.938-24.471,16.832-30.8
		C353.398,209.265,342.485,254.396,342.485,254.396z"/>
	<path fill="#D2D8DA" d="M345.986,217.466c-0.861,4.15-2.486,22.189-0.715,28.294c0,0,2.592-3.332,10.109-11.107
		c7.519-7.779,11.539-21.363,11.539-21.363s-5.488,8.04-13.282,7.155C346.776,219.657,345.986,217.466,345.986,217.466z"/>
	<path fill="#2D133D" d="M365.041,362.611c0.126,1.158,0.246,2.266,0.391,3.318c0.239,2.213,0.508,4.23,0.746,6.031
		c2.498,18.291,0,55.404,0,55.404c0.504,2.141,6.508,3.822,9.925,4.717c1.372,0.355,2.305,0.598,2.331,0.689
		c0.168,0,5.605-14.918,8.797-30.639c3.197-15.895-2.185-25.533-3.865-30.172c-0.143-0.404-0.194-1.104-0.124-2.086
		c0.622-10.145,11.562-48.679,12.091-51.416c0.556-2.98,1.897-1.083,2.305-1.322c0.436,0,4.595,37.736,5.915,55.738
		c0.022,0.455,0.07,0.889,0.097,1.318c0.023,0.299,0.048,0.607,0.07,0.896c1.249,17.064,4.763,33.025,6.518,47.973
		c1.826,15.24,0,28.318,0,28.318c1.878,1.266,5.741,1.898,8.435,2.162c1.682,0.189,2.905,0.24,2.905,0.24
		c2.788-6.949,9.712-27.018,8.801-44.73c-1.011-19.398-8.368-22.934-9.323-26.898c-0.966-4.014,6.004-20.287,7.519-45.213
		c0.503-8.387,0.292-15.163-0.283-20.599c-0.413-3.964-1.037-7.209-1.659-9.858c-1.107-4.37-2.331-7.064-3.077-8.603
		c0.019,0.05,0.019,0.12,0.019,0.194c0,0-14.66,4.374-29.848,3.894c-16.369-0.5-27.598-6.758-27.598-6.758s-0.12-0.286-0.306-0.794
		c-1.614,5.68-2.48,12.889-2.842,20.747C362.259,330.98,363.584,349.318,365.041,362.611z"/>
	<path fill="#E82642" d="M340.169,251.3c0.145,2.596,1.033,4.754,2.379,6.61c4.812,6.63,15.336,9.247,17.884,13.583
		c2.644,4.469,4.563,12.256,5.389,14.459c0.186,0.509,0.306,0.794,0.306,0.794s11.229,6.258,27.598,6.758
		c15.188,0.479,29.848-3.894,29.848-3.894c0-0.074,0-0.145-0.019-0.194c-0.098-0.909-0.242-1.876-0.387-2.831
		c-3.847-25.021-22.303-63.505-30.31-67.06c-4.928-2.191-11.395-4.601-18.005-6.759c-1.345-0.455-2.694-0.889-4.038-1.298
		c-3.241-0.979-6.444-1.918-9.421-2.695c-4.882-1.269-8.267-0.938-10.912,0.504c-1.49,0.798-2.737,1.976-3.895,3.398
		c-0.957,1.174-1.874,2.542-2.788,4.059C339.877,223.225,339.373,236.828,340.169,251.3z"/>
	<path fill="#251235" d="M365.041,362.611c0.126,1.158,0.246,2.266,0.391,3.318c5.626,3.342,14.061,6.945,14.061,6.945
		s0.411,2.41,2.211,5.865c1.825,3.443,3.008,13.584,0,29.205c-2.092,10.916-4.396,19.783-5.601,24.137
		c1.372,0.355,2.305,0.598,2.331,0.689c0.168,0,5.605-14.918,8.797-30.639c3.197-15.895-2.185-25.533-3.865-30.172
		c-0.143-0.404-0.194-1.104-0.124-2.086c0.622-10.145,11.562-48.679,12.091-51.416c0.556-2.98,1.897-1.083,2.305-1.322
		c0.436,0,4.595,37.736,5.915,55.738c0.022,0.455,0.07,0.889,0.097,1.318c0.023,0.299,0.048,0.607,0.07,0.896
		c4.928,0.959,13.844-0.982,13.844-0.982s-1.609,6.795,0.794,14.199c2.405,7.402,7.62,20.838,7.019,35.408
		c-0.545,13.289-2.931,20.717-6.704,29.828c1.682,0.189,2.905,0.24,2.905,0.24c2.788-6.949,9.712-27.018,8.801-44.73
		c-1.011-19.398-8.368-22.934-9.323-26.898c-0.966-4.014,6.004-20.287,7.519-45.213c0.503-8.387,0.292-15.163-0.283-20.599
		c-0.413-3.964-1.037-7.209-1.659-9.858l-63.651,8.681C362.259,330.98,363.584,349.318,365.041,362.611z"/>
	<g>
		<path fill="#DC1D40" d="M387.603,220.083c0.132-0.046,0.287-0.1,0.454-0.137c1.125-0.211,2.356-0.339,3.801-0.293
			c4.741,0.091,12.329,10.549,18.476,23.62c-0.05,0.045-0.104,0.091-0.155,0.145c-1.126,1.071-2.292,2.021-3.488,2.865
			c-5.746,4.08-11.998,5.671-15.321,6.283c-0.271,0.049-0.566,0.103-0.796,0.145C383.369,238.229,377.184,222.84,387.603,220.083z"
			/>
		<path opacity="0.3" fill="#DC1D40" d="M410.333,243.272c-1.166,1.141-2.39,2.125-3.644,3.009
			c-5.531-12.458-12.687-21.45-19.087-26.199c0.132-0.046,0.287-0.1,0.454-0.137c1.125-0.211,2.356-0.339,3.801-0.293
			C396.599,219.744,404.187,230.202,410.333,243.272z"/>
	</g>
	<path fill="#19AF91" d="M342.548,257.91c4.812,6.63,15.336,9.247,17.884,13.583c2.644,4.469,4.563,12.256,5.389,14.459
		c-4.859,17.118-2.962,48.294-0.779,68.194c2.697,1.471,9.188,4.762,18.2,7.262c2.856,0.814,5.963,1.533,9.282,2.088
		c4.062,0.703,7.765,0.941,11.028,0.914c5.146-0.025,9.257-0.744,12.091-1.469c3.077-0.768,4.71-1.533,4.71-1.533
		s4.089-12.785,6.226-30.432c1.063-8.842,1.518-17.089,1.711-23.1c-1.107-10.503-3.557-16.009-4.736-18.461
		c-0.098-0.909-0.242-1.876-0.387-2.831c-1.705-0.554-5.863-2.021-12.833-5.295c-8.44-3.935-29.182-23.864-33.317-27.881
		c-0.454-0.451-0.723-0.694-0.723-0.694s-1.011-4.593,0-13.649c0.867-7.771,0.987-19.978-1.441-26.298
		c-1.345-0.455-2.694-0.889-4.038-1.298c0.75,3.076,1.69,7.883,1.872,13.145c0.344,9.011-2.809,30.262-2.809,30.287
		c-3.871,0.579-8.97,0.794-14.183,0.364c-2.838-0.244-5.071-0.653-6.843-1.108c-0.561-3.964-1.999-14.931-1.999-21.751
		c0.025-6.585,2.547-18.341,3.628-23.128c-1.49,0.798-2.737,1.976-3.895,3.398c-4.471,13.55-3.53,38.984-3.53,38.984
		S342.527,254.739,342.548,257.91z"/>
	<g>
		
			<linearGradient id="SVGID_5_" gradientUnits="userSpaceOnUse" x1="586.6865" y1="204.1411" x2="582.2807" y2="227.7768" gradientTransform="matrix(-1 0 0 1 945.0117 0)">
			<stop  offset="0.01" style="stop-color:#DAA192"/>
			<stop  offset="0.99" style="stop-color:#DE817B"/>
		</linearGradient>
		<path fill="url(#SVGID_5_)" d="M350.98,215.945l8.087,20.23c0,0,4.291-8.681,7.853-13.566c4.525-6.209,2.805-9.445,1.563-11.016
			c-1.563-1.997-5.655-8.023-5.655-8.023s-2.277,4.898-5.407,7.42C354.285,213.506,350.98,215.945,350.98,215.945z"/>
		<g>
			<path fill="#BC6128" d="M343.604,170.901c0,0-1.405-4.625,3.258-7.701c4.667-3.08,20.287-1.558,23.485,12.29
				c2.585,11.189-1.666,20.052,12.689,23.987c0,0-5.142,11.058-16.456,6.664c-11.317-4.377-13.182-12.984-12.396-23.157
				c0.792-10.169-4.532-10.049-4.532-10.049L343.604,170.901z"/>
			<g>
				
					<linearGradient id="SVGID_6_" gradientUnits="userSpaceOnUse" x1="885.123" y1="69.5112" x2="900.4559" y2="112.6546" gradientTransform="matrix(0.862 -0.5068 0.5068 0.862 -467.3105 574.2583)">
					<stop  offset="0.01" style="stop-color:#DAA192"/>
					<stop  offset="0.99" style="stop-color:#DE817B"/>
				</linearGradient>
				<path fill="url(#SVGID_6_)" d="M361.614,189.32c-1.738,0.145-2.755,1.063-2.98,2.029c-7.183-8.866-19.503-14.104-29.615-1.769
					c-5.631,6.87,10.603,31.527,19.918,31.354c5.518-0.116,14.126-8.821,13.843-19.172c0.005,0,0.114,0.202,0.118,0.202
					C367.027,201.556,366.152,188.923,361.614,189.32z"/>
			</g>
			<path fill="#CA7028" d="M358.634,191.35c1.313-1.566,5.443-3.799,6.798,3.427c0,0,2.155-12.62-6.624-18.861
				c-12.736-9.069-27.158-5.113-32.082,5.812c-4.921,10.921-0.665,13.48,1.185,12.711c1.85-0.777,8.929-0.909,13.614-7.345
				c4.696-6.44,10.774-2.328,12.289,0.793c1.497,3.138,4.128,5.907,4.128,5.907L358.634,191.35z"/>
			<path fill="#1397BC" d="M352.043,172.335c0,0,0.967-4.725-3.28-5.572c-6.814-1.352-8.069,4.411-8.069,4.411
				S346.445,169.549,352.043,172.335z"/>
		</g>
	</g>
	<g>
		<g>
			<polygon fill="#A1A0A2" points="257.401,439.744 243.824,457.582 247.16,459.523 260.739,441.688 			"/>
			<path fill="#7B7B7B" d="M246.42,461.934c-0.006-0.064,0-0.156-0.002-0.227c-0.013-0.17-0.021-0.34,0.014-0.525
				c0-0.012,0-0.033,0.004-0.041c0.043-0.26,0.124-0.533,0.244-0.793c0-0.01,0-0.01,0.008-0.018
				c0.122-0.271,0.281-0.553,0.471-0.807l-3.336-1.941c-0.035,0.041-0.062,0.086-0.097,0.127c-0.035,0.047-0.062,0.1-0.097,0.15
				c-0.031,0.041-0.058,0.086-0.084,0.141c-0.031,0.045-0.05,0.094-0.079,0.135c-0.027,0.051-0.05,0.096-0.072,0.141
				c-0.021,0.043-0.035,0.08-0.052,0.107c0,0.014,0,0.014,0,0.014c-0.008,0.004-0.01,0.016-0.01,0.023
				c-0.021,0.051-0.043,0.104-0.06,0.15c-0.023,0.057-0.042,0.104-0.062,0.16c-0.019,0.055-0.039,0.115-0.05,0.174
				c-0.022,0.066-0.039,0.133-0.051,0.199l0.012,0.004l0,0l-0.012-0.004c-0.006,0.037-0.015,0.064-0.019,0.104
				c0,0.008,0,0.02,0,0.027c-0.008,0.033-0.017,0.07-0.019,0.107c-0.021,0.145,0,0.273,0.006,0.406
				c0.004,0.078-0.006,0.17,0.004,0.244c0.039,0.211,0.109,0.404,0.229,0.545c0.066,0.078,0.148,0.145,0.233,0.199l3.333,1.941
				c-0.081-0.053-0.159-0.115-0.217-0.193C246.538,462.336,246.459,462.148,246.42,461.934z"/>
			<polygon fill="#B4B5B7" points="270.823,323.362 257.401,439.744 260.739,441.688 274.167,325.304 			"/>
			<g>
				<path fill="#787878" d="M275.845,322.675c1.147-0.492,1.784,0.137,1.647,1.262l-13.536,117.336
					c-0.058,0.596-0.349,1.246-0.754,1.779l-14.213,18.67c-0.279,0.377-0.593,0.654-0.905,0.84
					c-0.558,0.318-1.108,0.311-1.422-0.078c-0.502-0.596-0.283-1.936,0.498-2.961l13.579-17.836l13.428-116.383
					C274.287,324.271,275.016,323.151,275.845,322.675z"/>
			</g>
			<path fill="#A1A0A2" d="M275.845,322.675c0.252-0.111,0.477-0.16,0.68-0.165l0,0c0.199-0.009,0.376,0.028,0.521,0.12
				c-0.728-0.43-1.453-0.848-2.176-1.27l-1.178-0.682c-0.022-0.018-0.058-0.037-0.081-0.041c-0.031-0.014-0.07-0.021-0.097-0.033
				c-0.035-0.008-0.066-0.021-0.105-0.029c-0.035-0.004-0.074-0.008-0.118-0.008c-0.023,0-0.062,0-0.097,0c-0.01,0-0.01,0-0.015,0
				c-0.008,0-0.008,0-0.017,0c-0.045,0-0.101,0.004-0.15,0.012c-0.066,0.013-0.132,0.025-0.199,0.045
				c-0.093,0.018-0.186,0.055-0.287,0.096c-0.008,0-0.017,0.012-0.027,0.012c-0.194,0.117-0.385,0.262-0.564,0.439
				c-0.008,0.004-0.01,0.016-0.019,0.02c-0.008,0.005-0.012,0.018-0.012,0.018c-0.054,0.057-0.11,0.107-0.155,0.16
				c-0.052,0.059-0.097,0.117-0.149,0.178c-0.037,0.047-0.068,0.1-0.111,0.154c-0.027,0.041-0.054,0.086-0.085,0.123
				c-0.004,0.004-0.004,0.018-0.008,0.021c0,0-0.004,0-0.004,0.012c-0.031,0.045-0.058,0.087-0.089,0.145
				c-0.027,0.045-0.06,0.088-0.083,0.137c-0.023,0.049-0.054,0.1-0.075,0.141c-0.022,0.045-0.041,0.104-0.066,0.152
				c-0.019,0.046-0.037,0.096-0.062,0.149l0,0c-0.015,0.054-0.035,0.107-0.054,0.153c-0.019,0.057-0.04,0.115-0.054,0.178
				c-0.013,0.057-0.031,0.123-0.043,0.186c-0.023,0.082-0.027,0.152-0.043,0.236c0,0.012,0,0.012,0,0.028l3.344,1.942
				c0.084-0.773,0.517-1.582,1.07-2.148c0.008-0.005,0.017-0.014,0.021-0.025C275.444,322.949,275.646,322.791,275.845,322.675z"/>
		</g>
		<g>
			<g enable-background="new    ">
				<g>
					<polygon fill="#A1A0A2" points="250.082,479.828 250.062,484.914 209.531,461.512 209.543,456.42 					"/>
				</g>
				<g>
					<polygon fill="#747475" points="250.082,479.828 264.354,471.529 264.337,476.621 250.062,484.914 					"/>
				</g>
				<g>
					<polygon fill="#B4B5B7" points="209.543,456.42 223.817,448.129 264.354,471.529 250.082,479.828 					"/>
				</g>
			</g>
		</g>
		<g>
			<g>
				<g enable-background="new    ">
					<g>
						<polygon fill="#5A5A5B" points="223.972,452.82 226.669,455.105 221.3,458.197 						"/>
					</g>
					<g>
						<polygon fill="#A1A0A2" points="221.3,458.197 217.385,455.924 220.051,450.537 223.972,452.82 						"/>
					</g>
				</g>
			</g>
			<g>
				<g enable-background="new    ">
					<g>
						<polygon fill="#5A5A5B" points="253.813,470.123 256.506,472.4 251.143,475.506 						"/>
					</g>
					<g>
						<polygon fill="#A1A0A2" points="251.143,475.506 247.226,473.223 249.896,467.846 253.813,470.123 						"/>
					</g>
				</g>
			</g>
		</g>
		<g>
			<g enable-background="new    ">
				<g>
					<polygon fill="#5A5A5B" points="248.259,453.072 255.813,459.459 240.781,468.143 					"/>
				</g>
				<g>
					<polygon fill="#A1A0A2" points="240.781,468.143 229.807,461.766 237.28,446.689 248.259,453.072 					"/>
				</g>
			</g>
		</g>
		<polygon fill="#5A5A5B" points="255.813,459.459 255.813,464.703 254.17,465.654 249.632,463.037 		"/>
	</g>
	
		<linearGradient id="SVGID_7_" gradientUnits="userSpaceOnUse" x1="659.4678" y1="295.6709" x2="653.7022" y2="293.7617" gradientTransform="matrix(-1 0 0 1 945.0117 0)">
		<stop  offset="0.01" style="stop-color:#DAA192"/>
		<stop  offset="0.99" style="stop-color:#DE817B"/>
	</linearGradient>
	<path fill="url(#SVGID_7_)" d="M290.396,294.492c0,0-3.408-0.855-4.278,0c-0.864,0.856,1.263,1.662,1.263,1.662L290.396,294.492z"
		/>
	<g>
		<path fill="#181919" d="M451.293,461.07c0.972,0,1.881-0.6,2.251-1.555c0.465-1.244-0.157-2.625-1.396-3.096l-1.481-0.563
			c-20.567-7.75-51.64-19.465-59.365-84.541c-8.331-70.181-42.637-78.746-74.129-81.259c-14.306-1.133-25.63,1.806-33.707,8.767
			c-10.481,9.041-11.438,21.482-11.478,22.003c-0.084,1.327,0.914,2.469,2.241,2.563c1.281,0.092,2.468-0.908,2.565-2.232
			c0.014-0.219,0.946-11.082,9.867-18.737c7.062-6.06,17.193-8.619,30.123-7.573c30.964,2.472,61.84,10.454,69.745,77.031
			c8.069,67.982,40.785,80.313,62.447,88.477l1.465,0.559C450.721,461.021,451.012,461.07,451.293,461.07z"/>
	</g>
	<g>
		<g>
			<g>
				<polygon fill="#263A82" points="474.549,349.438 495.87,424.777 508.209,431.936 478.606,351.67 				"/>
				<polygon fill="#1570B2" points="508.209,431.936 510.46,430.842 480.386,350.637 478.606,351.67 				"/>
			</g>
			<g>
				<polygon fill="#122249" points="437.772,367.936 476.355,345.654 480.406,347.994 441.825,370.275 				"/>
				<polygon fill="#1570B2" points="441.825,370.275 441.825,373.119 480.406,350.703 480.406,347.994 				"/>
				<polygon fill="#263A82" points="441.825,370.275 441.825,373.119 437.772,370.891 437.772,367.936 				"/>
			</g>
			<g>
				<path fill="#333333" d="M530.75,472.297c3.541,2.039,6.409,7.016,6.409,11.104c0,2.041-0.715,3.477-1.87,4.15l3.864-2.236
					c1.166-0.662,1.881-2.104,1.877-4.15c0.004-4.088-2.873-9.061-6.417-11.104c-1.768-1.025-3.369-1.123-4.535-0.449l-3.854,2.23
					C527.385,471.174,528.979,471.271,530.75,472.297z"/>
				<path fill="#232323" d="M526.207,471.842c-1.151,0.674-1.872,2.109-1.872,4.154c-0.005,4.098,2.87,9.07,6.415,11.107
					c1.77,1.021,3.369,1.113,4.532,0.455l0,0l0.007-0.008c1.155-0.674,1.87-2.109,1.87-4.15c0-4.088-2.868-9.064-6.409-11.104
					c-1.771-1.025-3.365-1.123-4.526-0.455H526.207L526.207,471.842z"/>
				<path fill="#181919" d="M533.673,478.014c1.033,1.787,1.628,3.754,1.628,5.387c0,1.27-0.354,2.191-0.948,2.543
					c-0.605,0.35-1.581,0.186-2.673-0.455c-1.415-0.811-2.825-2.307-3.856-4.098c-1.042-1.801-1.633-3.766-1.633-5.395
					c0-1.268,0.352-2.193,0.957-2.533l0.044-0.033c0.597-0.318,1.554-0.148,2.627,0.471
					C531.231,474.715,532.635,476.221,533.673,478.014z"/>
			</g>
			<polygon fill="#1D479E" points="510.328,495.008 495.531,503.543 495.531,491.564 510.328,482.996 			"/>
			<polygon fill="#24336D" points="483.978,496.885 495.531,503.543 495.531,492.432 483.978,485.74 			"/>
			<polygon fill="#122249" points="508.509,499.885 505.208,497.963 505.208,488.984 508.509,487.018 			"/>
			<g>
				<polygon fill="#256CB2" points="495.521,467.395 447.854,439.691 490.577,415.248 538.188,442.729 				"/>
			</g>
			<polygon fill="#1570B2" points="480.998,498.666 483.978,496.955 483.978,488.848 480.998,487.162 			"/>
			<g>
				<polygon fill="#747475" points="483.201,394.316 497.73,466.184 451.293,439.369 451.471,375.848 				"/>
			</g>
			<g>
				<polygon fill="#A1A0A2" points="483.201,394.316 520.813,372.449 535.349,444.316 497.73,466.184 				"/>
				<polygon fill="#B4B5B7" points="490.371,391.332 512.395,378.529 523.351,432.723 501.331,445.516 				"/>
			</g>
			<g>
				<polygon fill="#B4B5B7" points="451.471,375.848 489.091,353.98 520.813,372.449 483.201,394.316 				"/>
			</g>
			<g>
				<g enable-background="new    ">
					<g>
						<polygon fill="#D2D3D3" points="489.92,361.846 471.44,372.59 461.96,367.117 480.448,356.377 						"/>
					</g>
					<g>
						<polygon fill="#A1A1A0" points="489.92,361.846 489.916,365.326 471.428,376.066 471.44,372.59 						"/>
					</g>
					<g>
						<polygon fill="#747474" points="471.44,372.59 471.428,376.066 461.954,370.605 461.96,367.117 						"/>
					</g>
				</g>
			</g>
			<g>
				<g enable-background="new    ">
					<g>
						<polygon fill="#D2D3D3" points="510.65,375.77 492.295,386.445 471.433,374.393 489.796,363.723 						"/>
					</g>
					<g>
						<polygon fill="#AAAAAA" points="510.65,375.77 510.65,377.752 492.291,388.414 492.295,386.445 						"/>
					</g>
					<g>
						<polygon fill="#797979" points="492.295,386.445 492.291,388.414 471.428,376.373 471.433,374.393 						"/>
					</g>
				</g>
			</g>
			<g>
				<path fill="#A1A0A2" d="M513.852,389.936c0,2.693-2.181,6.143-4.873,7.688l-11.076,6.402c-2.697,1.551-4.882,0.629-4.882-2.07
					l0,0c0-2.691,2.185-6.135,4.882-7.693l11.076-6.391C511.671,386.314,513.852,387.24,513.852,389.936L513.852,389.936z"/>
				<path fill="#747475" d="M497.902,402.447c-1.823,1.055-3.315,0.426-3.315-1.396c0-1.824,1.492-4.16,3.315-5.213l11.076-6.391
					c1.818-1.055,3.305-0.426,3.305,1.393c0,1.822-1.486,4.158-3.305,5.217L497.902,402.447z"/>
			</g>
			<g>
				<path fill="#333333" d="M491.086,494.053c3.536,2.047,6.409,7.02,6.409,11.115c0,2.037-0.72,3.473-1.871,4.15l3.863-2.236
					c1.164-0.67,1.881-2.107,1.879-4.154c0.002-4.092-2.869-9.061-6.409-11.111c-1.775-1.025-3.377-1.111-4.539-0.441l-3.86,2.236
					C487.721,492.941,489.316,493.035,491.086,494.053z"/>
				<path fill="#5A5A5C" d="M486.543,493.611c-1.151,0.66-1.871,2.104-1.871,4.145c-0.004,4.094,2.869,9.066,6.414,11.111
					c1.765,1.021,3.373,1.121,4.528,0.451l0,0h0.01c1.151-0.678,1.871-2.113,1.871-4.15c0-4.096-2.873-9.068-6.409-11.115
					c-1.77-1.018-3.365-1.111-4.528-0.441H486.543L486.543,493.611z"/>
				<path fill="#333333" d="M494.008,499.773c1.034,1.791,1.629,3.758,1.629,5.395c0,1.256-0.354,2.188-0.948,2.533
					c-0.602,0.348-1.573,0.188-2.675-0.445c-1.409-0.822-2.821-2.311-3.858-4.105c-1.034-1.797-1.625-3.758-1.625-5.395
					c0-1.268,0.348-2.189,0.949-2.533l0.043-0.029c0.602-0.318,1.559-0.148,2.631,0.477
					C491.563,496.482,492.967,497.98,494.008,499.773z"/>
			</g>
			<g>
				<polygon fill="#1D479E" points="538.228,471.127 526.635,477.91 526.635,489.699 508.509,499.885 508.509,487.926 
					495.618,495.416 495.531,467.32 538.188,442.729 				"/>
			</g>
			<polygon fill="#263A82" points="526.092,449.736 526.092,456.264 526.07,456.264 509.441,465.803 509.441,459.426 
				520.464,452.998 			"/>
			<polygon fill="#122249" points="526.092,449.736 526.092,456.283 526.07,456.264 520.464,452.998 			"/>
			<polygon fill="#A1A0A2" points="509.441,459.012 509.441,462.662 526.092,453.014 526.092,449.33 			"/>
			<g>
				<polygon fill="#263A82" points="495.594,495.43 480.998,487.162 480.998,498.666 447.97,479.469 447.858,439.691 
					495.531,467.391 				"/>
			</g>
			<g>
				<polygon fill="#93A1AE" points="455.836,490.428 455.845,490.428 455.836,490.428 				"/>
				<path fill="#AFBDCC" d="M455.849,490.428h-0.004H455.849z"/>
				<g>
					<path fill="#181919" d="M447.997,464.035c6.132,3.533,11.092,12.131,11.092,19.199c0,3.543-1.239,6.027-3.24,7.193l3.479-2.014
						c2.013-1.166,3.255-3.641,3.255-7.191c0-7.068-4.967-15.672-11.095-19.201c-3.063-1.77-5.834-1.939-7.844-0.777l-3.486,2.014
						C442.164,462.1,444.941,462.256,447.997,464.035z"/>
					<path fill="#333333" d="M440.155,463.262c-2.007,1.152-3.249,3.641-3.249,7.172c0,7.076,4.971,15.674,11.091,19.209
						c3.066,1.77,5.834,1.938,7.839,0.785c0,0,0.004,0,0.009,0h0.004c2.001-1.166,3.24-3.65,3.24-7.193
						c0-7.068-4.96-15.666-11.092-19.199c-3.056-1.779-5.833-1.936-7.84-0.777C440.157,463.258,440.157,463.258,440.155,463.262z"/>
				</g>
			</g>
			<g>
				<polygon fill="#263A82" points="437.772,370.891 459.089,446.23 471.428,453.391 441.825,373.119 				"/>
				<polygon fill="#1570B2" points="471.428,453.391 473.679,452.291 443.604,372.082 441.825,373.119 				"/>
			</g>
		</g>
	</g>
	
		<linearGradient id="SVGID_8_" gradientUnits="userSpaceOnUse" x1="647.9023" y1="291.7656" x2="657.0704" y2="307.1174" gradientTransform="matrix(-1 0 0 1 945.0117 0)">
		<stop  offset="0.01" style="stop-color:#DAA192"/>
		<stop  offset="0.99" style="stop-color:#DE817B"/>
	</linearGradient>
	<path fill="url(#SVGID_8_)" d="M300.256,295.803c-1.556-0.67-3.389-2.493-3.923-2.055c-0.632,0.525,1.264,3.506,1.264,3.506
		s-2.805-3.588-3.621-3.406c-1.205,0.265,0.835,3.34,0.835,3.34s-3.502-3.063-3.977-2.836c-1.069,0.5,1.5,4.072,1.5,4.072
		s-1.298-1.286-2.759-2.269c-1.216-0.823-1.726,0-0.716,1.591c1.121,1.745,2.671,3.832,7.121,2.943
		C299.852,299.924,300.256,295.803,300.256,295.803z"/>
	<path opacity="0.3" fill="#19AF91" d="M377.016,253.408c0.307,1.063,0.794,2.187,1.488,3.369
		c3.394,5.956,15.22,19.519,22.448,22.644c7.235,3.125,16.708,10.405,16.708,10.405s3.102,13.099,2.91,31.726
		c-0.19,17.019-1.873,27.167-4.928,41.39c3.077-0.768,4.71-1.533,4.71-1.533s4.089-12.785,6.226-30.432
		c1.063-8.842,1.518-17.089,1.711-23.1c-1.107-10.503-3.557-16.009-4.736-18.461c-0.098-0.909-0.242-1.876-0.387-2.831
		c-1.705-0.554-5.863-2.021-12.833-5.295C401.893,277.354,381.151,257.426,377.016,253.408z"/>
	
		<linearGradient id="SVGID_9_" gradientUnits="userSpaceOnUse" x1="601.7334" y1="294.3193" x2="508.7441" y2="263.5261" gradientTransform="matrix(-1 0 0 1 945.0117 0)">
		<stop  offset="0.01" style="stop-color:#DAA192"/>
		<stop  offset="0.99" style="stop-color:#DE817B"/>
	</linearGradient>
	<path fill="url(#SVGID_9_)" d="M358.704,312.229c0.097,0.988,7.376-2.69,7.899-2.166c0.533,0.529-5.405,3.439-4.874,4.688
		c0.529,1.252,6.079-3.245,6.033-2.476c-0.024,0.769-2.286,2.625-1.897,3.125c0.141,0.194,0.357,0.194,0.672,0.05
		c0,0,0,0,0.024-0.025c0.937-0.458,2.689-2.401,5.527-4.398c3.749-2.617,6.08-4.832,6.08-4.832
		c18.031-5.361,44.201-18.655,43.602-26.774c-0.597-8.122-11.438-36.148-11.438-36.148s-1.52,1.269-3.776,2.811
		c-1.2,0.868-2.62,1.802-4.108,2.666c-4.256,2.451-11.08,3.82-11.08,3.82c3.412,9.569,12.012,24.496,12.012,24.496
		s-3.505,3.725-10.693,9.276c-6.607,5.117-20.479,14.017-22.667,15.41c-0.022,0-3.458,0.955-6.031,1.249
		c-2.596,0.29-2.715,1.343-1.293,1.732c1.436,0.38,3.718-0.149,3.027,0.455c-0.705,0.6-3.708,1.993-5.652,3.076
		c-1.779,0.988-1.366,1.732,1.879,0.678c0,0,2.063-0.798,2.233-0.459C364.351,308.89,358.603,311.271,358.704,312.229z"/>
	
		<linearGradient id="SVGID_10_" gradientUnits="userSpaceOnUse" x1="594.8301" y1="292.02" x2="510.2736" y2="264.0193" gradientTransform="matrix(-1 0 0 1 945.0117 0)">
		<stop  offset="0.01" style="stop-color:#DAA192"/>
		<stop  offset="0.99" style="stop-color:#DE817B"/>
	</linearGradient>
	<path opacity="0.3" fill="url(#SVGID_10_)" d="M366.562,315.425c0.937-0.458,2.689-2.401,5.527-4.398
		c3.749-2.617,6.08-4.832,6.08-4.832c18.031-5.361,44.201-18.655,43.602-26.774c-0.597-8.122-11.438-36.148-11.438-36.148
		s-1.52,1.269-3.776,2.811c4.547,10.069,9.593,20.788,10.31,27.691c0.746,7.375-2.257,11.512-8.724,16.051
		c-6.463,4.547-28.601,14.616-31.127,15.815C374.852,306.674,369.127,312.999,366.562,315.425z"/>
</g>
</svg>
