<?xml version="1.0" encoding="utf-8"?>
<!-- Generator: Adobe Illustrator 16.0.0, SVG Export Plug-In . SVG Version: 6.00 Build 0)  -->
<!DOCTYPE svg PUBLIC "-//W3C//DTD SVG 1.1//EN" "http://www.w3.org/Graphics/SVG/1.1/DTD/svg11.dtd">
<svg version="1.1" id="Layer_1" xmlns="http://www.w3.org/2000/svg" xmlns:xlink="http://www.w3.org/1999/xlink" x="0px" y="0px"
	 width="650px" height="650px" viewBox="0 0 650 650" enable-background="new 0 0 650 650" xml:space="preserve">
<polygon fill="#D5A484" points="414.125,500.489 414.125,500.489 414.749,500.843 "/>
<g>
	<g>
		<path fill="#647C36" d="M387.653,500.588l2.104,37.354c0.008,2.386,1.776,4.71,4.968,6.54c3.533,2.024,8.265,3.128,13.327,3.104
			c5.058-0.021,9.783-1.163,13.308-3.209c3.18-1.853,4.923-4.192,4.911-6.585l1.808-37.37L387.653,500.588z"/>
		<path fill="#748938" d="M430.035,502.44v-0.008l-0.008-2.551h-0.448c-0.849-2.375-2.866-4.633-6.068-6.471
			c-8.677-4.957-22.711-4.904-31.343,0.129c-3.188,1.858-5.194,4.131-6.015,6.515H385.7l0.011,2.56l0,0v0.277h0.012
			c0.135,3.187,2.301,6.336,6.517,8.743c8.668,4.964,22.704,4.904,31.344-0.12c4.191-2.445,6.336-5.616,6.444-8.796h0.008V502.44z"
			/>
		<path fill="#7D9B3D" d="M423.5,491.395c8.677,4.964,8.71,13.063,0.075,18.096c-8.636,5.031-22.671,5.083-31.344,0.119
			c-8.677-4.957-8.71-13.057-0.075-18.096C400.792,486.489,414.826,486.429,423.5,491.395z"/>
		<path fill="#647C36" d="M407.909,511.163c-5.554,0.021-10.739-1.192-14.613-3.406c-3.51-2.002-5.443-4.552-5.451-7.177
			c-0.012-2.616,1.905-5.182,5.392-7.214c3.858-2.249,9.037-3.495,14.59-3.517c5.55-0.023,10.739,1.185,14.608,3.404
			c3.51,2.001,5.441,4.552,5.452,7.168c0.011,2.625-1.904,5.185-5.396,7.216C418.641,509.887,413.459,511.14,407.909,511.163z"/>
	</g>
	<g>
		<g>
			<path fill="#36312C" d="M168.135,307.946l0.008,115.505c-0.008,0.036-0.011,0.074-0.011,0.111l0,0
				c0,0.366,0.239,0.735,0.724,1.02c0.971,0.556,2.535,0.556,3.505,0c0.541-0.307,0.777-0.728,0.717-1.131h0.008l-0.008-115.505
				H168.135z"/>
			<g>
				<path fill="#231F1B" d="M167.791,298.695v0.128c0-0.042,0-0.088,0.007-0.128H167.791z"/>
				<path fill="#231F1B" d="M173.422,298.695c0.06,0.455-0.209,0.926-0.817,1.278c-1.102,0.643-2.887,0.643-3.99,0
					c-0.555-0.313-0.825-0.728-0.825-1.15v10.157c0,0.413,0.27,0.833,0.825,1.151c1.103,0.638,2.888,0.638,3.99,0
					c0.547-0.319,0.825-0.738,0.825-1.151v-10.285H173.422z"/>
				<path fill="#36312C" d="M167.791,298.824L167.791,298.824L167.791,298.824z"/>
				<path fill="#36312C" d="M173.422,298.695c-0.052-0.378-0.322-0.738-0.817-1.024c-1.102-0.633-2.887-0.633-3.99,0
					c-0.491,0.286-0.769,0.646-0.817,1.024c-0.007,0.041-0.007,0.086-0.007,0.128l0,0c0,0.422,0.27,0.836,0.825,1.15
					c1.103,0.643,2.888,0.643,3.99,0C173.213,299.622,173.482,299.15,173.422,298.695z"/>
			</g>
		</g>
		<g>
			<g enable-background="new    ">
				<g>
					<polygon fill="#353029" points="188.725,297.199 186.404,310.162 176.025,304.178 166.028,298.403 156.946,293.162 
						154.697,277.551 					"/>
				</g>
				<g>
					<polygon fill="#1D1B15" points="188.729,297.195 193.281,294.552 190.948,307.522 186.404,310.162 					"/>
				</g>
				<g>
					<polygon fill="#252119" points="154.704,277.551 159.245,274.907 193.281,294.552 188.729,297.195 					"/>
				</g>
			</g>
		</g>
		<g>
			<g enable-background="new    ">
				<g>
					<polygon fill="#795D25" points="191.331,286.486 187.439,295.171 159.256,278.909 156.073,266.137 					"/>
				</g>
				<g>
					<polygon fill="#806628" points="191.331,286.486 193.888,285.005 189.996,293.687 187.439,295.171 					"/>
				</g>
				<g>
					<polygon fill="#BE922D" points="156.073,266.137 158.634,264.646 193.888,285.005 191.331,286.486 					"/>
				</g>
			</g>
		</g>
		<polygon fill="#231F1B" points="176.025,292.316 176.025,304.178 166.028,298.403 166.028,286.55 		"/>
	</g>
	<g>
		<g>
			<g>
				<g>
					<g>
						<path fill="#353635" d="M243.533,497.311c0-3.021-2.122-6.712-4.75-8.219c-1.313-0.758-2.498-0.832-3.356-0.337l0,0
							l1.942-1.118l0,0c0.854-0.502,2.04-0.427,3.36,0.331c2.624,1.516,4.747,5.202,4.747,8.227c0,1.514-0.533,2.578-1.388,3.072
							l-1.943,1.125C243.001,499.891,243.533,498.825,243.533,497.311z"/>
						<path fill="#5B5B5B" d="M242.146,500.392c-0.862,0.496-2.054,0.421-3.363-0.337c-2.621-1.507-4.748-5.196-4.748-8.227
							c0-1.514,0.533-2.578,1.392-3.073c0.858-0.495,2.043-0.421,3.356,0.337c2.629,1.507,4.75,5.197,4.75,8.219
							C243.533,498.825,243.001,499.891,242.146,500.392L242.146,500.392L242.146,500.392z"/>
						<path fill="#787878" d="M240.976,493.299c-0.771-1.328-1.811-2.438-2.864-3.046c-0.825-0.472-1.556-0.592-2.017-0.328
							c-0.454,0.262-0.712,0.96-0.712,1.903c0,1.217,0.435,2.678,1.208,4.012c0.772,1.327,1.822,2.446,2.872,3.055
							c0.817,0.472,1.552,0.591,2.01,0.329c0.457-0.264,0.716-0.962,0.716-1.913C242.187,496.097,241.745,494.635,240.976,493.299z"
							/>
					</g>
					<g>
						<path fill="#353635" d="M183.67,462.701c0-3.037-2.126-6.72-4.751-8.232c-1.313-0.752-2.497-0.826-3.36-0.331l0,0l1.947-1.125
							l0,0c0.858-0.495,2.043-0.427,3.355,0.328c2.625,1.524,4.747,5.206,4.747,8.236c0,1.506-0.533,2.572-1.388,3.066l-1.942,1.125
							C183.142,465.273,183.67,464.209,183.67,462.701z"/>
						<path fill="#5B5B5B" d="M182.279,465.769c-0.862,0.495-2.047,0.427-3.359-0.329c-2.625-1.515-4.751-5.199-4.751-8.234
							c0-1.508,0.533-2.573,1.391-3.067c0.863-0.495,2.047-0.421,3.36,0.331c2.625,1.513,4.751,5.195,4.751,8.232
							C183.67,464.209,183.142,465.273,182.279,465.769L182.279,465.769L182.279,465.769z"/>
						<path fill="#787878" d="M181.117,458.689c-0.773-1.336-1.815-2.452-2.873-3.061c-0.821-0.472-1.553-0.591-2.01-0.329
							c-0.457,0.264-0.716,0.959-0.716,1.905c0,1.213,0.438,2.678,1.211,4.012c0.765,1.342,1.807,2.445,2.864,3.051
							c0.825,0.48,1.553,0.608,2.014,0.34c0.454-0.271,0.717-0.96,0.717-1.906C182.324,461.479,181.881,460.018,181.117,458.689z"/>
					</g>
				</g>
				<g>
					<g>
						<path fill="#353635" d="M184.038,531.636c0-3.03-2.126-6.721-4.75-8.228c-1.309-0.758-2.498-0.832-3.356-0.331l0,0
							l1.938-1.124l0,0c0.863-0.495,2.048-0.427,3.36,0.337c2.625,1.516,4.75,5.198,4.75,8.221c0,1.521-0.532,2.58-1.391,3.082
							l-1.943,1.118C183.509,534.216,184.038,533.142,184.038,531.636z"/>
						<path fill="#5B5B5B" d="M182.646,534.711c-0.862,0.502-2.047,0.418-3.359-0.34c-2.618-1.507-4.743-5.196-4.743-8.218
							c0-1.522,0.528-2.58,1.387-3.076c0.858-0.501,2.047-0.427,3.356,0.331c2.625,1.507,4.75,5.197,4.75,8.228
							C184.038,533.142,183.509,534.216,182.646,534.711L182.646,534.711L182.646,534.711z"/>
						<path fill="#787878" d="M181.484,527.623c-0.772-1.336-1.814-2.445-2.865-3.051c-0.824-0.475-1.556-0.595-2.017-0.331
							c-0.458,0.262-0.717,0.96-0.717,1.912c0,1.214,0.439,2.678,1.211,4.005c0.772,1.335,1.815,2.444,2.865,3.053
							c0.825,0.472,1.552,0.599,2.009,0.337c0.458-0.271,0.724-0.968,0.724-1.912C182.695,530.421,182.252,528.957,181.484,527.623z
							"/>
					</g>
					<g>
						<path fill="#353635" d="M124.175,497.012c0-3.03-2.13-6.705-4.751-8.221c-1.308-0.758-2.501-0.832-3.356-0.337l0,0
							l1.943-1.125l0,0c0.858-0.495,2.047-0.421,3.355,0.337c2.625,1.516,4.751,5.197,4.751,8.228c0,1.515-0.533,2.572-1.395,3.075
							l-1.939,1.116C123.642,499.59,124.175,498.525,124.175,497.012z"/>
						<path fill="#5B5B5B" d="M122.783,500.085c-0.858,0.503-2.047,0.429-3.359-0.328c-2.621-1.516-4.75-5.197-4.75-8.236
							c0-1.498,0.536-2.571,1.394-3.066c0.855-0.495,2.048-0.421,3.356,0.337c2.621,1.516,4.751,5.19,4.751,8.221
							C124.175,498.525,123.642,499.59,122.783,500.085L122.783,500.085L122.783,500.085z"/>
						<path fill="#787878" d="M121.617,493.006c-0.772-1.333-1.814-2.452-2.865-3.051c-0.824-0.481-1.552-0.601-2.009-0.331
							c-0.457,0.262-0.72,0.96-0.72,1.896c0,1.223,0.442,2.685,1.208,4.021c0.773,1.328,1.815,2.438,2.872,3.052
							c0.826,0.472,1.552,0.601,2.01,0.337c0.454-0.268,0.712-0.966,0.712-1.918C122.825,495.795,122.389,494.342,121.617,493.006z"
							/>
					</g>
				</g>
			</g>
			<g>
				<g>
					<g enable-background="new    ">
						<g>
							<polygon fill="#5B5B5B" points="178.379,447.757 178.387,450.665 116.502,486.362 116.495,483.49 							"/>
						</g>
						<g>
							<polygon fill="#666666" points="116.495,483.49 113.585,481.796 175.635,446.119 178.379,447.757 							"/>
						</g>
					</g>
				</g>
				<g>
					<g enable-background="new    ">
						<g>
							<polygon fill="#5B5B5B" points="172.496,447.718 172.496,450.575 249.871,495.279 249.874,492.392 							"/>
						</g>
						<g>
							<polygon fill="#666666" points="249.871,492.392 249.871,489.122 175.406,446.166 172.493,447.757 							"/>
						</g>
					</g>
				</g>
				<g>
					<g enable-background="new    ">
						<g>
							<polygon fill="#5B5B5B" points="113.443,481.802 113.443,484.659 190.813,529.356 190.821,526.476 							"/>
						</g>
						<g>
							<polygon fill="#666666" points="190.813,526.476 190.813,523.206 116.353,480.25 113.436,481.841 							"/>
						</g>
					</g>
				</g>
				<g>
					<g enable-background="new    ">
						<g>
							<polygon fill="#444444" points="252.702,490.748 252.702,493.659 190.824,529.356 190.813,526.476 							"/>
						</g>
						<g>
							<polygon fill="#666666" points="190.813,526.476 187.899,524.796 249.953,489.107 252.702,490.748 							"/>
						</g>
					</g>
				</g>
			</g>
		</g>
		<g>
			<g>
				<g enable-background="new    ">
					<g>
						<path fill="#4F4F4F" d="M99.074,350.069l-0.3,106.737c-0.008,2.122,1.485,4.71,3.326,5.775l23.611,13.626
							c1.853,1.072,3.352,0.218,3.36-1.912l0.3-106.737L99.074,350.069z"/>
					</g>
					<path fill="#373636" d="M129.372,367.559l-0.3,106.737c0,1.057-0.375,1.8-0.975,2.145l48.157-27.979
						c0.604-0.346,0.975-1.095,0.979-2.153l0.3-106.729L129.372,367.559z"/>
					<g>
						<polygon fill="#575858" points="129.372,367.559 177.532,339.579 147.231,322.085 99.074,350.069 						"/>
					</g>
				</g>
			</g>
			<g>
				<g enable-background="new    ">
					<g>
						<polygon fill="#676767" points="97.477,342.968 97.451,351.441 130.676,370.626 130.699,362.155 						"/>
					</g>
					<g>
						<polygon fill="#484848" points="130.676,370.626 178.833,342.635 178.852,334.166 130.699,362.155 						"/>
					</g>
					<g>
						<polygon fill="#737373" points="130.699,362.155 178.852,334.166 145.638,314.984 97.477,342.968 						"/>
					</g>
				</g>
			</g>
		</g>
		<g>
			<g>
				<g enable-background="new    ">
					<g>
						<polygon fill="#616161" points="186.561,327.043 183.745,325.401 183.944,454.489 186.76,456.125 						"/>
					</g>
					<path fill="#6B6C6C" d="M183.269,321.867c0.038-0.021,0.067-0.04,0.105-0.063c0.045-0.019,0.09-0.045,0.135-0.063
						c0.045-0.023,0.089-0.05,0.135-0.067c0.042-0.022,0.086-0.038,0.127-0.053c0.045-0.018,0.09-0.037,0.135-0.053
						c0.007-0.004,0.015-0.004,0.026-0.008c0.012,0,0.012-0.006,0.012-0.006c0.03-0.01,0.06-0.021,0.093-0.03
						c0.049-0.009,0.093-0.024,0.139-0.039c0.045-0.011,0.09-0.021,0.135-0.024c0.052-0.013,0.097-0.021,0.146-0.03
						c0.038-0.005,0.064-0.005,0.101-0.009c0.004,0,0.004,0,0.008,0c0.015,0,0.026-0.003,0.037-0.003
						c0.052-0.008,0.105-0.008,0.157-0.008c0.06,0,0.12,0,0.169,0.011c0.068,0.004,0.131,0.011,0.195,0.029h0.004l0,0
						c0.075,0.014,0.154,0.034,0.225,0.064c0.094,0.029,0.185,0.072,0.27,0.12c0.938,0.543,1.883,1.095,2.82,1.639
						c-0.15-0.086-0.314-0.149-0.487-0.18c-0.007-0.007-0.007-0.007-0.011-0.007c-0.172-0.034-0.36-0.042-0.559-0.028
						c0,0.005-0.007,0.005-0.007,0.005c-0.203,0.016-0.405,0.061-0.615,0.124c-0.004,0.007-0.007,0.007-0.015,0.007
						c-0.21,0.076-0.435,0.177-0.66,0.309l-55.09,31.808l-2.82-1.642L183.269,321.867z"/>
					<g>
						<path fill="#444444" d="M130.999,355.312c-1.83,1.054-3.308,3.61-3.304,5.721l0.244,129.071l2.76-1.597l-0.166-129.115
							c0-0.308,0.21-0.673,0.473-0.826l55.09-31.805c0.255-0.149,0.465-0.025,0.465,0.282l0.18,129.097l2.91-1.671l-0.248-129.067
							c0-2.108-1.493-2.948-3.314-1.897L130.999,355.312z"/>
					</g>
					<path fill="#767677" d="M124.883,359.243c0.004-0.055,0.004-0.11,0.012-0.167c0-0.052,0-0.104,0.007-0.16
						c0-0.054,0.007-0.109,0.019-0.163c0.012-0.055,0.02-0.112,0.027-0.168c0,0,0,0,0-0.004c0,0,0-0.002,0-0.007
						c0.007-0.05,0.015-0.103,0.022-0.158c0.015-0.049,0.03-0.112,0.037-0.168c0.015-0.057,0.022-0.118,0.041-0.178
						c0.019-0.051,0.026-0.115,0.049-0.171c0.008-0.047,0.019-0.092,0.038-0.127c0-0.01,0.004-0.021,0.004-0.024
						c0.003-0.006,0.003-0.019,0.007-0.024c0.011-0.061,0.041-0.118,0.057-0.174c0.015-0.06,0.034-0.115,0.06-0.165
						c0.015-0.06,0.034-0.108,0.06-0.163c0.015-0.054,0.042-0.107,0.06-0.167c0.019-0.034,0.041-0.079,0.06-0.115
						c0-0.009,0-0.009,0-0.013c0-0.002,0.007-0.016,0.007-0.026c0.03-0.049,0.053-0.104,0.075-0.159
						c0.03-0.058,0.056-0.118,0.086-0.173c0.03-0.06,0.067-0.128,0.101-0.198c0.038-0.072,0.075-0.144,0.12-0.211
						c0.004-0.012,0.015-0.026,0.015-0.035c0.011-0.015,0.023-0.03,0.026-0.045c0.079-0.13,0.162-0.263,0.247-0.388
						c0.068-0.099,0.139-0.208,0.21-0.302c0.045-0.067,0.094-0.13,0.146-0.192c0.038-0.06,0.083-0.104,0.124-0.163
						c0.044-0.045,0.086-0.095,0.131-0.146c0.042-0.045,0.083-0.094,0.127-0.143c0.008-0.009,0.019-0.021,0.03-0.026
						c0,0,0-0.004,0.007-0.009c0.034-0.034,0.068-0.069,0.102-0.1c0.041-0.049,0.094-0.099,0.135-0.144
						c0.052-0.045,0.102-0.09,0.146-0.132c0.052-0.052,0.105-0.09,0.142-0.135c0.034-0.021,0.057-0.04,0.087-0.06
						c0-0.011,0.007-0.011,0.011-0.011c0.022-0.015,0.042-0.028,0.056-0.053c0.053-0.035,0.094-0.067,0.146-0.104
						c0.053-0.034,0.098-0.075,0.142-0.105c0.053-0.027,0.098-0.06,0.147-0.094c0.041-0.025,0.09-0.058,0.139-0.083
						c0.011-0.006,0.022-0.016,0.03-0.021l2.82,1.642c-0.226,0.133-0.442,0.281-0.656,0.454c-0.011,0.006-0.019,0.011-0.026,0.02
						c-0.203,0.17-0.409,0.358-0.6,0.562c-0.003,0.004-0.008,0.009-0.015,0.011c-0.382,0.42-0.734,0.896-1.035,1.41
						c-0.003,0.009-0.015,0.015-0.018,0.029c-0.146,0.248-0.274,0.507-0.394,0.772v0.005c-0.117,0.273-0.217,0.544-0.3,0.809
						c0,0.009,0,0.014-0.004,0.016c-0.161,0.554-0.255,1.103-0.255,1.634l0.244,129.071l-2.823-1.642l-0.236-129.079
						C124.879,359.334,124.883,359.289,124.883,359.243z"/>
				</g>
			</g>
			<g>
				<g enable-background="new    ">
					<g>
						<polygon fill="#444444" points="186.681,342.62 186.591,345.559 130.511,377.923 130.522,375.035 						"/>
					</g>
					<g>
						<polygon fill="#666666" points="130.522,375.035 130.511,371.682 183.787,341.056 186.531,342.694 						"/>
					</g>
				</g>
			</g>
		</g>
		<g>
			<g>
				<g enable-background="new    ">
					<g>
						<path fill="#DB2D29" d="M168.915,488.155l3.015,15.059c0.003,0.937,0.671,1.312,1.492,0.847l55.664-32.142
							c0.817-0.474,1.481-1.62,1.481-2.565l2.92-18.479L168.915,488.155z"/>
					</g>
					<path fill="#A41E22" d="M168.915,488.155l3.015,15.059c0,0.11,0.011,0.217,0.03,0.313c0,0.008,0,0.008,0,0.015
						c0.022,0.09,0.053,0.173,0.086,0.257c0.004,0.006,0.004,0.006,0.004,0.006c0.022,0.053,0.056,0.09,0.082,0.128
						c0.064,0.099,0.143,0.179,0.229,0.224l-36.87-21.424c-0.086-0.054-0.165-0.134-0.225-0.226
						c-0.011-0.015-0.022-0.015-0.03-0.022c-0.02-0.037-0.042-0.067-0.061-0.104l0,0v-0.008c-0.015-0.021-0.022-0.052-0.03-0.082
						c-0.007-0.015-0.019-0.047-0.03-0.076c-0.007-0.021-0.007-0.045-0.015-0.075c0-0.006-0.007-0.015-0.007-0.03l-0.004-0.006
						c0-0.015,0-0.023-0.003-0.029c-0.008-0.03-0.008-0.045-0.008-0.075c-0.011-0.022-0.011-0.047-0.011-0.067
						c0-0.024-0.003-0.045-0.003-0.069c-0.008-0.021-0.008-0.051-0.008-0.074l0,0l-3.007-15.066L168.915,488.155z"/>
				</g>
			</g>
			<g enable-background="new    ">
				<g>
					<polygon fill="#EF4140" points="167.52,487.435 167.528,489.571 234.819,450.719 234.815,448.58 					"/>
				</g>
				<g>
					<polygon fill="#A41E22" points="167.52,487.435 130.654,466.01 130.657,468.14 167.528,489.571 					"/>
				</g>
				<g>
					<polygon fill="#DB2D29" points="234.815,448.58 197.945,427.155 130.654,466.01 167.52,487.435 					"/>
					<polygon fill="#B92025" points="134.831,466.016 150.79,475.284 167.528,485.012 210.807,460.018 230.634,448.574 
						197.941,429.584 197.919,429.584 194.593,431.512 					"/>
				</g>
			</g>
			<path fill="#A41E22" d="M194.999,448.063l2.92-18.479h0.022l32.693,18.99l-19.828,11.443l-16.802-9.779
				C194.585,449.675,195.006,448.805,194.999,448.063z"/>
			<path fill="#C92027" d="M197.919,429.584l-2.92,18.479c0.007,0.741-0.414,1.611-0.994,2.175
				c-0.154,0.149-0.311,0.277-0.484,0.374l-42.73,24.672l-15.958-9.269L197.919,429.584z"/>
			<g>
				<g>
					<g>
						<g enable-background="new    ">
							<g>
								<polygon fill="#19A15B" points="193.041,467.508 193.044,468.903 206.742,460.992 206.738,459.611 								"/>
							</g>
							<g>
								<polygon fill="#127C47" points="193.041,467.508 183.944,462.229 183.952,463.624 193.044,468.903 								"/>
							</g>
							<g>
								<polygon fill="#10864F" points="206.738,459.611 197.645,454.317 183.944,462.229 193.041,467.508 								"/>
							</g>
						</g>
					</g>
					<g>
						<g enable-background="new    ">
							<g>
								<polygon fill="#EA576A" points="193.033,462.072 193.048,467.501 206.749,459.591 206.73,454.168 								"/>
							</g>
							<g>
								<polygon fill="#C2444E" points="193.033,462.072 183.944,456.784 183.952,462.215 193.048,467.501 								"/>
							</g>
							<g>
								<polygon fill="#D84C57" points="206.73,454.168 197.638,448.881 183.944,456.784 193.033,462.072 								"/>
							</g>
						</g>
					</g>
				</g>
				<g>
					<g>
						<g enable-background="new    ">
							<g>
								<polygon fill="#19A15B" points="193.041,459.919 193.044,461.314 206.742,453.403 206.738,452.014 								"/>
							</g>
							<g>
								<polygon fill="#127C47" points="193.041,459.919 183.944,454.64 183.952,456.026 193.044,461.314 								"/>
							</g>
							<g>
								<polygon fill="#10864F" points="206.738,452.014 197.645,446.728 183.944,454.64 193.041,459.919 								"/>
							</g>
						</g>
					</g>
					<g>
						<g enable-background="new    ">
							<g>
								<polygon fill="#53BD8E" points="193.033,454.483 193.048,459.903 206.749,451.999 206.73,446.57 								"/>
							</g>
							<g>
								<polygon fill="#19AA7D" points="193.033,454.483 183.944,449.195 183.952,454.624 193.048,459.903 								"/>
							</g>
							<g>
								<polygon fill="#33B886" points="206.73,446.57 197.638,441.284 183.944,449.195 193.033,454.483 								"/>
							</g>
						</g>
					</g>
				</g>
			</g>
			<g>
				<g>
					<g enable-background="new    ">
						<g>
							<polygon fill="#19A15B" points="167.168,479.688 167.172,481.083 180.873,473.171 180.862,471.782 							"/>
						</g>
						<g>
							<polygon fill="#127C47" points="167.168,479.688 158.071,474.4 158.071,475.803 167.172,481.083 							"/>
						</g>
						<g>
							<polygon fill="#10864F" points="180.862,471.782 171.772,466.496 158.071,474.4 167.168,479.688 							"/>
						</g>
					</g>
				</g>
				<g>
					<g enable-background="new    ">
						<g>
							<polygon fill="#EACE34" points="167.16,474.251 167.175,479.672 180.876,471.768 180.862,466.339 							"/>
						</g>
						<g>
							<polygon fill="#B9A732" points="167.16,474.251 158.063,468.963 158.082,474.393 167.175,479.672 							"/>
						</g>
						<g>
							<polygon fill="#CFBA2B" points="180.862,466.339 171.762,461.052 158.063,468.963 167.16,474.251 							"/>
						</g>
					</g>
				</g>
			</g>
		</g>
		<g>
			<g>
				<g enable-background="new    ">
					<g>
						<path fill="#DB2D29" d="M168.915,444.261l3.015,15.052c0.003,0.938,0.671,1.319,1.492,0.848l55.664-32.143
							c0.817-0.464,1.481-1.619,1.481-2.558l2.92-18.486L168.915,444.261z"/>
					</g>
					<path fill="#A41E22" d="M168.915,444.261l3.015,15.052c0,0.119,0.011,0.225,0.03,0.323v0.006
						c0.022,0.098,0.053,0.182,0.086,0.256c0.004,0,0.004,0.006,0.004,0.006c0.022,0.054,0.056,0.099,0.082,0.135
						c0.064,0.092,0.143,0.173,0.229,0.218l-36.87-21.418c-0.086-0.051-0.165-0.135-0.225-0.225
						c-0.011-0.015-0.022-0.015-0.03-0.029c-0.02-0.03-0.042-0.068-0.061-0.104l0,0v-0.009c-0.015-0.021-0.022-0.045-0.03-0.065
						c-0.007-0.033-0.019-0.062-0.03-0.084c-0.007-0.022-0.007-0.053-0.015-0.074c0-0.016-0.007-0.023-0.007-0.03
						c0,0-0.004,0-0.004-0.008c0-0.015,0-0.022-0.003-0.037c-0.008-0.022-0.008-0.045-0.008-0.067
						c-0.011-0.024-0.011-0.045-0.011-0.075c0-0.023-0.003-0.045-0.003-0.068c-0.008-0.021-0.008-0.045-0.008-0.075l0,0
						l-3.007-15.052L168.915,444.261z"/>
				</g>
			</g>
			<g>
				<g enable-background="new    ">
					<g>
						<polygon fill="#EF4140" points="167.52,443.542 167.528,445.672 234.819,406.825 234.815,404.687 						"/>
					</g>
					<g>
						<polygon fill="#A41E22" points="167.52,443.542 130.654,422.108 130.657,424.245 167.528,445.672 						"/>
					</g>
					<g>
						<polygon fill="#DB2D29" points="234.815,404.687 197.945,383.262 130.654,422.108 167.52,443.542 						"/>
						<polygon fill="#C12326" points="134.831,422.115 150.79,431.392 167.528,441.119 210.807,416.131 230.634,404.679 
							197.941,385.676 197.919,385.69 194.593,387.61 						"/>
					</g>
				</g>
			</g>
			<path fill="#A41E22" d="M194.999,404.163l2.92-18.473l0.022-0.015l32.693,19.003l-19.828,11.452l-16.802-9.793
				C194.585,405.783,195.006,404.903,194.999,404.163z"/>
			<path fill="#DB2D29" d="M197.919,385.69l-2.92,18.473c0.007,0.74-0.414,1.62-0.994,2.175c-0.154,0.148-0.311,0.283-0.484,0.382
				l-42.73,24.672l-15.958-9.276L197.919,385.69z"/>
			<g>
				<g>
					<polygon fill="#6EACDD" points="205.628,396.709 204.747,412.495 191.2,420.315 189.415,416.513 188.751,406.457 					"/>
					<g>
						<g enable-background="new    ">
							<g>
								<polygon fill="#3A8ECC" points="188.751,406.457 173.4,397.532 174.787,418.575 190.138,427.493 								"/>
							</g>
							<g>
								<polygon fill="#D8B129" points="205.628,396.709 190.284,387.79 173.4,397.532 188.751,406.457 								"/>
							</g>
						</g>
					</g>
					<polygon fill="#6EACDD" points="190.318,421.831 204.695,413.536 204.372,419.272 190.138,427.493 189.666,420.36 					"/>
					<polygon fill="#474746" points="200.536,393.228 201.414,393.737 203.202,398.103 202.662,398.425 					"/>
					<g>
						<g>
							<polygon fill="#8B8B8B" points="208.257,410.461 207.379,409.96 190.318,419.807 191.2,420.315 							"/>
						</g>
						<polygon fill="#A2A2A1" points="205.189,404.604 205.272,403.165 208.257,410.461 207.379,409.96 						"/>
						<polygon fill="#BFBEBE" points="183.532,404.026 191.2,420.315 208.257,410.461 205.272,403.135 205.384,401.169 
							209.142,410.965 190.318,421.831 182.654,404.53 						"/>
						<g>
							<polygon fill="#A2A2A1" points="182.646,404.53 181.77,404.026 189.441,421.321 190.318,421.831 							"/>
						</g>
					</g>
					<g>
						<polygon fill="#8B8B8B" points="183.532,404.026 182.654,403.517 181.777,404.026 182.654,404.53 						"/>
					</g>
					<g>
						<g>
							<g enable-background="new    ">
								<g>
									<polygon fill="#58A2D9" points="188.23,406.261 188.23,407.281 206.217,396.889 206.209,395.876 									"/>
								</g>
								<g>
									<polygon fill="#197AB3" points="188.23,406.261 172.879,397.345 172.882,398.357 188.23,407.281 									"/>
								</g>
								<g>
									<polygon fill="#2C9CD7" points="206.209,395.876 190.858,386.958 172.879,397.345 188.23,406.261 									"/>
									<polygon fill="#1C7AB3" points="174.12,397.345 174.127,397.353 188.23,405.542 189.928,404.561 204.972,395.876 
										190.874,387.686 190.874,387.68 190.866,387.68 									"/>
								</g>
							</g>
						</g>
						<g>
							<polygon fill="#4B9CD5" points="174.127,397.353 188.23,405.542 189.928,404.561 190.874,387.686 190.874,387.68 
								190.866,387.68 							"/>
						</g>
					</g>
				</g>
				<g>
					<polygon fill="#DB2D29" points="185.361,407.8 184.477,423.577 170.933,431.399 169.141,427.604 168.477,417.542 					"/>
					<g>
						<g enable-background="new    ">
							<g>
								<polygon fill="#B82025" points="168.477,417.542 153.129,408.623 154.524,429.668 169.868,438.584 								"/>
							</g>
							<g>
								<polygon fill="#D8B129" points="185.361,407.8 170.014,398.874 153.129,408.623 168.477,417.542 								"/>
							</g>
						</g>
					</g>
					<polygon fill="#DB2D29" points="170.048,432.923 184.416,424.627 184.102,430.366 169.868,438.584 169.395,431.446 					"/>
					<polygon fill="#474746" points="180.269,404.319 181.147,404.829 182.932,409.202 182.392,409.501 					"/>
					<g>
						<g>
							<polygon fill="#8B8B8B" points="187.986,421.554 187.108,421.044 170.048,430.889 170.933,431.399 							"/>
						</g>
						<polygon fill="#A2A2A1" points="184.915,415.695 184.998,414.255 187.986,421.554 187.108,421.044 						"/>
						<polygon fill="#BFBEBE" points="163.264,415.117 170.933,431.399 187.986,421.554 185.001,414.226 185.106,412.262 
							188.875,422.056 170.048,432.923 162.383,415.628 						"/>
						<g>
							<polygon fill="#A2A2A1" points="162.376,415.628 161.499,415.117 169.17,432.412 170.048,432.923 							"/>
						</g>
					</g>
					<g>
						<polygon fill="#8B8B8B" points="163.261,415.117 162.383,414.609 161.499,415.117 162.376,415.628 						"/>
					</g>
					<g>
						<g>
							<g enable-background="new    ">
								<g>
									<polygon fill="#EF4140" points="167.956,417.354 167.956,418.365 185.943,407.979 185.943,406.968 									"/>
								</g>
								<g>
									<polygon fill="#A41E22" points="167.956,417.354 152.608,408.438 152.608,409.449 167.956,418.365 									"/>
								</g>
								<g>
									<polygon fill="#DB2D29" points="185.943,406.968 170.592,398.051 152.608,408.438 167.956,417.354 									"/>
									<polygon fill="#A41E22" points="153.849,408.438 153.853,408.444 167.956,416.633 169.658,415.643 184.701,406.968 
										170.603,398.776 170.603,398.771 170.592,398.771 									"/>
								</g>
							</g>
						</g>
						<g>
							<polygon fill="#DB2D29" points="153.853,408.444 167.956,416.633 169.658,415.643 170.603,398.776 170.603,398.771 
								170.592,398.771 							"/>
						</g>
					</g>
				</g>
			</g>
		</g>
		<g>
			<g>
				<g enable-background="new    ">
					<g>
						<path fill="#2D87C8" d="M168.915,400.367l3.015,15.051c0.003,0.938,0.671,1.321,1.492,0.848l55.664-32.142
							c0.817-0.466,1.481-1.626,1.481-2.557l2.92-18.484L168.915,400.367z"/>
					</g>
					<path fill="#3574A6" d="M168.915,400.367l3.015,15.051c0,0.113,0.011,0.225,0.03,0.316c0,0.006,0,0.006,0,0.015
						c0.022,0.09,0.053,0.18,0.09,0.255v0.008c0.022,0.051,0.056,0.09,0.082,0.135c0.064,0.09,0.143,0.172,0.229,0.224
						l-36.87-21.434c-0.086-0.051-0.158-0.125-0.225-0.223c-0.011-0.009-0.019-0.016-0.03-0.024
						c-0.02-0.036-0.042-0.065-0.061-0.096c0,0,0,0,0-0.009l0,0c-0.007-0.036-0.022-0.051-0.03-0.083
						c-0.007-0.029-0.019-0.052-0.03-0.074c-0.007-0.03-0.007-0.052-0.015-0.075c0-0.007-0.007-0.021-0.007-0.037
						c0-0.008,0-0.008-0.004-0.008c0-0.015,0-0.015-0.003-0.029c-0.008-0.024-0.008-0.055-0.008-0.075
						c-0.007-0.023-0.011-0.039-0.011-0.067c0-0.022-0.003-0.045-0.003-0.067c-0.008-0.022-0.008-0.045-0.008-0.067
						c0-0.007,0-0.007,0-0.007l-3.007-15.061L168.915,400.367z"/>
				</g>
			</g>
			<g>
				<polygon fill="#4091CA" points="234.815,360.789 197.945,339.365 130.646,378.215 167.524,399.641 				"/>
				<polygon fill="#1F5E87" points="134.831,378.229 150.79,387.491 167.528,397.226 210.807,372.23 230.634,360.785 
					197.941,341.783 197.919,341.789 194.593,343.719 				"/>
			</g>
			<path fill="#3574A6" d="M194.999,360.272l2.92-18.483l0.022-0.006l32.693,19.002l-19.828,11.445l-16.802-9.783
				C194.585,361.884,195.006,361.012,194.999,360.272z"/>
			<path fill="#2D87C8" d="M197.919,341.789l-2.92,18.483c0.007,0.739-0.414,1.611-0.994,2.175
				c-0.154,0.144-0.311,0.282-0.484,0.374l-42.73,24.67l-15.958-9.262L197.919,341.789z"/>
			<g>
				<g>
					<polygon fill="#E1B624" points="215.422,348.595 214.451,366.014 199.498,374.645 197.525,370.462 196.797,359.354 					"/>
					<g>
						<g enable-background="new    ">
							<g>
								<polygon fill="#B7972F" points="196.797,359.354 179.856,349.507 181.387,372.731 198.324,382.578 								"/>
							</g>
							<g>
								<polygon fill="#D8B129" points="215.422,348.595 198.485,338.757 179.856,349.507 196.797,359.354 								"/>
							</g>
						</g>
					</g>
					<polygon fill="#E1B624" points="198.522,376.332 214.383,367.168 214.031,373.505 198.324,382.578 197.803,374.698 					"/>
					<polygon fill="#474746" points="209.802,344.765 210.769,345.324 212.741,350.141 212.145,350.485 					"/>
					<g>
						<g>
							<polygon fill="#8B8B8B" points="218.317,363.779 217.354,363.216 198.526,374.089 199.498,374.645 							"/>
						</g>
						<polygon fill="#A2A2A1" points="214.935,357.311 215.021,355.723 218.317,363.779 217.354,363.216 						"/>
						<polygon fill="#BFBEBE" points="191.038,356.677 199.498,374.645 218.317,363.779 215.028,355.693 215.145,353.526 
							219.295,364.337 198.522,376.332 190.063,357.238 						"/>
						<g>
							<polygon fill="#A2A2A1" points="190.06,357.238 189.088,356.677 197.555,375.763 198.522,376.332 							"/>
						</g>
					</g>
					<g>
						<polygon fill="#8B8B8B" points="191.035,356.677 190.063,356.114 189.096,356.677 190.063,357.238 						"/>
					</g>
					<g>
						<g>
							<g enable-background="new    ">
								<g>
									<polygon fill="#F3C716" points="196.217,359.14 196.217,360.258 216.063,348.803 216.06,347.684 									"/>
								</g>
								<g>
									<polygon fill="#A2832F" points="196.217,359.14 179.279,349.304 179.287,350.422 196.217,360.258 									"/>
								</g>
								<g>
									<polygon fill="#B4932F" points="216.06,347.684 199.129,337.838 179.279,349.304 196.217,359.14 									"/>
									<polygon fill="#735F26" points="180.645,349.304 180.652,349.308 196.217,358.349 198.092,357.262 214.691,347.684 
										199.137,338.644 199.137,338.638 199.129,338.638 									"/>
								</g>
							</g>
						</g>
						<g>
							<polygon fill="#85722D" points="180.652,349.308 196.217,358.349 198.092,357.262 199.137,338.644 199.137,338.638 
								199.129,338.638 							"/>
						</g>
					</g>
				</g>
				<g>
					<polygon fill="#147C3E" points="193.416,361.156 192.444,378.581 177.487,387.214 175.522,383.021 174.787,371.908 					"/>
					<g>
						<g enable-background="new    ">
							<g>
								<polygon fill="#146E38" points="174.787,371.908 157.846,362.065 159.384,385.294 176.317,395.134 								"/>
							</g>
							<g>
								<polygon fill="#D8B129" points="193.416,361.156 176.482,351.311 157.846,362.065 174.787,371.908 								"/>
							</g>
						</g>
					</g>
					<polygon fill="#147C3E" points="176.52,388.885 192.38,379.73 192.028,386.066 176.317,395.134 175.803,387.265 					"/>
					<polygon fill="#474746" points="187.799,357.321 188.766,357.883 190.735,362.705 190.138,363.048 					"/>
					<g>
						<g>
							<polygon fill="#8B8B8B" points="196.317,376.347 195.346,375.784 176.52,386.65 177.487,387.214 							"/>
						</g>
						<polygon fill="#A2A2A1" points="192.928,369.874 193.018,368.293 196.317,376.347 195.346,375.784 						"/>
						<polygon fill="#BFBEBE" points="169.035,369.23 177.487,387.214 196.317,376.347 193.018,368.255 193.138,366.079 
							197.293,376.896 176.52,388.885 168.06,369.8 						"/>
						<g>
							<polygon fill="#A2A2A1" points="168.053,369.8 167.089,369.23 175.552,388.323 176.52,388.885 							"/>
						</g>
					</g>
					<g>
						<polygon fill="#8B8B8B" points="169.028,369.23 168.06,368.675 167.089,369.23 168.053,369.8 						"/>
					</g>
					<g>
						<g>
							<g enable-background="new    ">
								<g>
									<polygon fill="#199346" points="174.21,371.706 174.21,372.821 194.064,361.367 194.06,360.246 									"/>
								</g>
								<g>
									<polygon fill="#195C2E" points="174.21,371.706 157.276,361.865 157.276,362.983 174.21,372.821 									"/>
								</g>
								<g>
									<polygon fill="#166131" points="194.06,360.246 177.12,350.4 157.276,361.865 174.21,371.706 									"/>
									<polygon fill="#1D5228" points="158.642,361.869 158.649,361.874 174.21,370.909 176.084,369.829 192.688,360.246 
										177.131,351.205 177.131,351.198 177.12,351.198 									"/>
								</g>
							</g>
						</g>
						<g>
							<polygon fill="#146E38" points="158.649,361.874 174.21,370.909 176.084,369.829 177.131,351.205 177.131,351.198 
								177.12,351.198 							"/>
						</g>
					</g>
				</g>
			</g>
			<polygon fill="#4091CA" points="230.634,360.785 167.528,397.226 167.524,399.641 234.815,360.789 			"/>
			<g>
				<g>
					<path fill="#5E5D27" d="M152.439,386.569c-2.674,1.545-2.674,4.049,0,5.587c2.669,1.536,7,1.536,9.67,0
						c2.669-1.538,2.669-4.042,0-5.587C159.44,385.03,155.109,385.03,152.439,386.569z"/>
					<path fill="#797C32" d="M151.96,384.747c-2.94,1.694-2.94,4.438,0,6.133c2.932,1.703,7.693,1.703,10.629,0
						c2.94-1.694,2.94-4.438,0-6.133C159.653,383.052,154.892,383.052,151.96,384.747z"/>
					<rect x="149.754" y="384.004" fill="#797C32" width="15.044" height="3.816"/>
					<path fill="#818535" d="M151.96,380.93c-2.94,1.703-2.94,4.453,0,6.149c2.932,1.687,7.693,1.687,10.629,0
						c2.94-1.696,2.94-4.446,0-6.149C159.653,379.234,154.892,379.234,151.96,380.93z"/>
					<polygon fill="#27B34B" points="150.261,381.881 164.318,381.987 164.738,383.471 149.814,383.471 					"/>
					<path fill="#8E9A39" d="M152.245,379.655c-2.782,1.604-2.782,4.199,0,5.796c2.774,1.613,7.281,1.613,10.06,0
						c2.779-1.597,2.779-4.191,0-5.796C159.526,378.05,155.019,378.05,152.245,379.655z"/>
					<rect x="150.16" y="359.451" fill="#8E9A39" width="14.227" height="23.047"/>
					<path fill="#A6AB37" d="M152.245,356.549c-2.782,1.601-2.782,4.2,0,5.81c2.774,1.604,7.281,1.604,10.06,0
						c2.779-1.609,2.779-4.209,0-5.81C159.526,354.944,155.019,354.944,152.245,356.549z"/>
					<path fill="#797C32" d="M153.984,358.09c0.172-0.267,0.435-0.506,0.803-0.72c1.379-0.798,3.599-0.798,4.972,0
						c0.371,0.214,0.638,0.453,0.803,0.72h0.229v0.713l0,0c0,0.521-0.345,1.035-1.031,1.432c-1.373,0.798-3.592,0.798-4.972,0
						c-0.683-0.396-1.024-0.911-1.024-1.432v-0.713H153.984z"/>
					<path fill="#A6AB37" d="M154.787,356.653c1.372-0.788,3.599-0.788,4.972,0c0.686,0.401,1.031,0.92,1.031,1.437
						c0,0.524-0.345,1.043-1.031,1.436c-1.373,0.797-3.6,0.797-4.972,0c-0.683-0.393-1.024-0.911-1.028-1.436
						C153.759,357.573,154.104,357.055,154.787,356.653z"/>
					<g>
						<path fill="#D31F33" d="M154.089,354.846v3.022c0,0.384,0.209,0.772,0.626,1.104c0.094,0.063,0.191,0.135,0.304,0.198
							c0.083,0.049,0.173,0.09,0.259,0.132c0.289,0.135,0.611,0.239,0.957,0.303c0.183,0.041,0.371,0.069,0.559,0.086
							c0.318,0.027,0.648,0.027,0.963,0c0.187-0.026,0.375-0.047,0.555-0.086c0.345-0.063,0.667-0.168,0.96-0.307
							c0.09-0.038,0.173-0.088,0.259-0.128c0.116-0.063,0.207-0.139,0.304-0.203c0.42-0.326,0.629-0.715,0.629-1.099v-3.022
							c0,0.38-0.209,0.771-0.629,1.095c-0.098,0.068-0.188,0.139-0.304,0.207c-0.085,0.049-0.168,0.086-0.259,0.135
							c-0.292,0.137-0.615,0.232-0.96,0.308c-0.18,0.029-0.368,0.058-0.555,0.074c-0.315,0.023-0.645,0.023-0.963,0
							c-0.188-0.015-0.375-0.045-0.559-0.074c-0.345-0.075-0.668-0.171-0.957-0.308c-0.086-0.049-0.176-0.086-0.259-0.135
							c-0.112-0.068-0.209-0.13-0.304-0.198c-0.161-0.133-0.296-0.271-0.401-0.411C154.157,355.315,154.089,355.083,154.089,354.846
							z"/>
						<path fill="#E81D31" d="M155.019,353.537c1.245-0.719,3.263-0.719,4.511,0c0.626,0.361,0.938,0.837,0.934,1.309
							c0,0.47-0.311,0.939-0.934,1.298c-1.248,0.717-3.266,0.717-4.511,0c-0.623-0.358-0.93-0.828-0.93-1.298
							C154.089,354.374,154.396,353.898,155.019,353.537z"/>
						<g>
							<path fill="#BB2029" d="M159.271,356.282v3.016c0.09-0.038,0.173-0.088,0.259-0.128c0.116-0.063,0.207-0.139,0.304-0.203
								v-3.026c-0.098,0.068-0.188,0.139-0.304,0.207C159.444,356.196,159.361,356.233,159.271,356.282z"/>
							<path fill="#BB2029" d="M157.756,356.664v3.026c0.187-0.026,0.375-0.047,0.555-0.086v-3.015
								C158.131,356.619,157.943,356.647,157.756,356.664z"/>
							<path fill="#BB2029" d="M156.234,356.59v3.015c0.183,0.041,0.371,0.069,0.559,0.086v-3.026
								C156.605,356.649,156.417,356.619,156.234,356.59z"/>
							<path fill="#BB2029" d="M154.715,355.949v3.022c0.094,0.063,0.191,0.135,0.304,0.198c0.083,0.049,0.173,0.09,0.259,0.132
								v-3.02c-0.086-0.049-0.176-0.086-0.259-0.135C154.907,356.079,154.81,356.018,154.715,355.949z"/>
						</g>
					</g>
					<path fill="#9A5E26" d="M150.16,366.372c0,1.043,0.701,2.094,2.085,2.888c2.774,1.613,7.281,1.613,10.06,0
						c1.383-0.794,2.082-1.837,2.082-2.879v13.468c0.003,1.059-0.691,2.108-2.082,2.917c-2.779,1.605-7.286,1.605-10.06,0
						c-1.396-0.809-2.089-1.858-2.085-2.917V366.372L150.16,366.372z"/>
				</g>
				<path opacity="0.3" fill="#FFFFFF" d="M160.463,384.025c0,0.736,0.593,0.984,1.331,0.563l0,0c0.735-0.427,1.332-1.366,1.332-2.1
					v-17.797c0-0.733-0.596-0.98-1.332-0.565l0,0c-0.738,0.427-1.331,1.364-1.331,2.111V384.025z"/>
			</g>
			<g>
				<defs>
					<filter id="Adobe_OpacityMaskFilter" filterUnits="userSpaceOnUse" x="161.641" y="383.134" width="11.455" height="14.954">
						<feFlood  style="flood-color:white;flood-opacity:1" result="back"/>
						<feBlend  in="SourceGraphic" in2="back" mode="normal"/>
					</filter>
				</defs>
				<mask maskUnits="userSpaceOnUse" x="161.641" y="383.134" width="11.455" height="14.954" id="SVGID_1_">
					<g filter="url(#Adobe_OpacityMaskFilter)">
						<defs>
							
								<filter id="Adobe_OpacityMaskFilter_1_" filterUnits="userSpaceOnUse" x="161.641" y="383.134" width="11.455" height="14.954">
								<feFlood  style="flood-color:white;flood-opacity:1" result="back"/>
								<feBlend  in="SourceGraphic" in2="back" mode="normal"/>
							</filter>
						</defs>
						<mask maskUnits="userSpaceOnUse" x="161.641" y="383.134" width="11.455" height="14.954" id="SVGID_1_">
							<g filter="url(#Adobe_OpacityMaskFilter_1_)">
							</g>
						</mask>
						
							<linearGradient id="SVGID_2_" gradientUnits="userSpaceOnUse" x1="456.0771" y1="398.6465" x2="456.0771" y2="385.6406" gradientTransform="matrix(-1 0 0 1 623.4463 0)">
							<stop  offset="0.005" style="stop-color:#FFFFFF"/>
							<stop  offset="1" style="stop-color:#808080"/>
						</linearGradient>
						<path mask="url(#SVGID_1_)" fill="url(#SVGID_2_)" d="M161.641,393.055c0-2.437,2.677-4.521,3.285-5.459
							c0.611-0.945,0.847-4.462,0.847-4.462l1.59,0.075l1.604-0.075c0,0,0.236,3.517,0.847,4.462
							c0.608,0.938,3.281,3.022,3.281,5.459c0,2.452-2.418,5.033-5.726,5.033l0,0c0,0,0,0-0.007,0l0,0l0,0
							C164.063,398.088,161.641,395.507,161.641,393.055z"/>
					</g>
				</mask>
				
					<linearGradient id="SVGID_3_" gradientUnits="userSpaceOnUse" x1="456.0771" y1="398.6465" x2="456.0771" y2="385.6406" gradientTransform="matrix(-1 0 0 1 623.4463 0)">
					<stop  offset="0.005" style="stop-color:#56A1D9"/>
					<stop  offset="1" style="stop-color:#86B7E2"/>
				</linearGradient>
				<path fill="url(#SVGID_3_)" d="M161.641,393.055c0-2.437,2.677-4.521,3.285-5.459c0.611-0.945,0.847-4.462,0.847-4.462
					l1.59,0.075l1.604-0.075c0,0,0.236,3.517,0.847,4.462c0.608,0.938,3.281,3.022,3.281,5.459c0,2.452-2.418,5.033-5.726,5.033l0,0
					c0,0,0,0-0.007,0l0,0l0,0C164.063,398.088,161.641,395.507,161.641,393.055z"/>
				<g opacity="0.4">
					<path fill="#56A1D9" d="M164.851,394.579c-1.387,0.803-1.387,2.1,0,2.902c1.395,0.803,3.648,0.803,5.036,0
						c1.391-0.803,1.391-2.1,0-2.902C168.499,393.776,166.246,393.776,164.851,394.579z"/>
				</g>
				<g>
					<path opacity="0.5" fill="#2E6286" d="M167.711,393.438c-0.187-0.104-0.495-0.104-0.686,0
						c-0.093,0.053-0.142,0.128-0.142,0.196v-9.802c0,0.067,0.049,0.134,0.142,0.188c0.191,0.112,0.499,0.112,0.686,0
						c0.094-0.054,0.139-0.12,0.139-0.188v9.802C167.85,393.565,167.805,393.49,167.711,393.438z"/>
					<path opacity="0.7" fill="#2E6286" d="M166.883,393.634c0-0.068,0.049-0.144,0.142-0.196c0.191-0.104,0.499-0.104,0.686,0
						c0.094,0.053,0.139,0.128,0.139,0.196l0,0l0,0c0,0.074-0.045,0.143-0.139,0.202c-0.187,0.104-0.495,0.104-0.686,0
						C166.932,393.776,166.883,393.708,166.883,393.634L166.883,393.634L166.883,393.634z"/>
					<path fill="#2E6286" d="M166.883,383.832c0-0.084,0.049-0.149,0.142-0.21c0.191-0.106,0.499-0.106,0.686,0
						c0.094,0.061,0.139,0.126,0.139,0.21l0,0l0,0c0,0.067-0.045,0.134-0.139,0.188c-0.187,0.112-0.495,0.112-0.686,0
						C166.932,383.966,166.883,383.899,166.883,383.832L166.883,383.832L166.883,383.832z"/>
				</g>
				<g opacity="0.4">
					<path fill="#85CEF3" d="M163.321,390.528c-2.235,1.289-2.235,3.383,0,4.672c2.234,1.282,5.863,1.282,8.099,0
						c2.235-1.289,2.235-3.383,0-4.672C169.185,389.23,165.556,389.23,163.321,390.528z"/>
				</g>
				<g>
					<path fill="#A0B0BE" d="M165.773,383.164h-0.007l0.127-0.899h2.955l0.12,0.854l0,0v0.015l0,0
						c0.038,0.263-0.116,0.533-0.465,0.727c-0.626,0.368-1.639,0.368-2.265,0C165.9,383.673,165.754,383.419,165.773,383.164z"/>
					<path fill="#AFBDCC" d="M166.328,381.671c-0.577,0.331-0.577,0.863,0,1.2c0.573,0.338,1.511,0.338,2.085,0
						c0.577-0.337,0.577-0.869,0-1.2C167.839,381.334,166.901,381.334,166.328,381.671z"/>
					<g>
						<path fill="#849CB1" d="M165.893,381.865v-1.379h2.955v1.379c0,0.212-0.143,0.437-0.435,0.608
							c-0.574,0.331-1.512,0.331-2.085,0C166.036,382.302,165.893,382.077,165.893,381.865z"/>
						<path fill="#AFBDCC" d="M166.328,379.879c-0.577,0.331-0.577,0.871,0,1.208c0.573,0.329,1.511,0.329,2.085,0
							c0.577-0.337,0.577-0.877,0-1.208C167.839,379.542,166.901,379.542,166.328,379.879z"/>
					</g>
				</g>
				<path opacity="0.5" fill="#FFFFFF" d="M165.893,388.017c0,0.239,0.195,0.555,0.442,0.688l0,0
					c0.248,0.149,0.442,0.061,0.442-0.179v-3.248c0-0.248-0.195-0.562-0.442-0.705l0,0c-0.248-0.143-0.442-0.053-0.442,0.188
					V388.017z"/>
				<path opacity="0.5" fill="#FFFFFF" d="M163.313,391.092c0,0.704,0.578,1.28,1.29,1.28s1.29-0.576,1.29-1.28
					c0-0.713-0.577-1.298-1.29-1.298S163.313,390.379,163.313,391.092z"/>
				<g>
					<g>
						<g>
							<polygon fill="#0378A7" points="167.089,379.894 165.938,379.22 165.96,380.562 167.112,381.236 							"/>
						</g>
						<g>
							<g enable-background="new    ">
								<g>
									<path fill="#642466" d="M165.485,380.043c0.244,1.405-0.863,2.917-0.923,3.001l0.401-0.224
										c1.192-1.327,1.26-2.747,1.271-2.828L165.485,380.043z"/>
								</g>
								<path fill="#A256A2" d="M164.61,382.976c-0.007,0.009-0.015,0.015-0.022,0.023v0.006c-0.007,0.01-0.007,0.016-0.015,0.024
									c0,0,0,0-0.004,0c-0.003,0.008-0.003,0.015-0.007,0.015l-0.551-0.322c0.003,0,0.007-0.009,0.007-0.015c0,0,0,0,0.011,0
									c0-0.009,0-0.009,0.011-0.015c0,0,0-0.009,0.007-0.015c0-0.01,0-0.01,0.012-0.016c0.003-0.009,0.003-0.015,0.011-0.015
									c0-0.015,0.008-0.024,0.015-0.03c0-0.009,0.007-0.009,0.011-0.015c0.008-0.015,0.023-0.024,0.034-0.045
									c0-0.009,0.007-0.015,0.007-0.015c0.007-0.024,0.026-0.045,0.042-0.069c0.003,0,0.011-0.015,0.019-0.022
									c0.007-0.016,0.015-0.037,0.037-0.06c0-0.008,0.008-0.022,0.012-0.022c0.018-0.03,0.026-0.053,0.048-0.083
									c0-0.007,0.007-0.015,0.007-0.015c0.015-0.021,0.03-0.06,0.052-0.084c0.008-0.015,0.008-0.021,0.015-0.036
									c0.016-0.023,0.023-0.044,0.038-0.067c0.008-0.007,0.015-0.021,0.022-0.037c0.015-0.038,0.041-0.074,0.063-0.127
									c0.004-0.01,0.007-0.016,0.007-0.024c0.02-0.03,0.027-0.051,0.042-0.081c0.011-0.023,0.019-0.038,0.026-0.054
									c0.012-0.021,0.019-0.035,0.03-0.065c0.011-0.017,0.015-0.024,0.022-0.047c0.008-0.022,0.011-0.037,0.019-0.06
									c0.008-0.016,0.02-0.036,0.031-0.061c0.007-0.015,0.007-0.029,0.015-0.045c0.012-0.021,0.019-0.035,0.022-0.067
									c0.012-0.015,0.015-0.021,0.022-0.045c0.007-0.021,0.015-0.045,0.022-0.066c0.007-0.016,0.011-0.03,0.015-0.045
									c0.011-0.023,0.019-0.053,0.03-0.075c0-0.015,0.007-0.029,0.011-0.047c0.011-0.029,0.019-0.06,0.026-0.09
									c0.004-0.006,0.004-0.015,0.008-0.021c0.011-0.038,0.022-0.083,0.03-0.12c0-0.008,0.007-0.031,0.007-0.031
									c0.008-0.03,0.015-0.061,0.015-0.09c0.007-0.006,0.007-0.03,0.015-0.036c0.004-0.03,0.008-0.06,0.015-0.084
									c0.003-0.015,0.003-0.015,0.008-0.036c0.007-0.031,0.007-0.068,0.015-0.099c0-0.008,0-0.015,0-0.015
									c0.008-0.044,0.008-0.083,0.015-0.112c0-0.016,0-0.03,0-0.036c0-0.033,0-0.068,0.007-0.099c0-0.008,0-0.023,0-0.03
									c0-0.045,0.003-0.074,0.003-0.112c0-0.007,0-0.015,0-0.015c-0.003-0.039-0.003-0.075-0.003-0.105
									c0-0.015-0.007-0.023-0.007-0.038c0-0.03,0-0.061-0.007-0.09c0-0.016,0-0.03,0-0.03c-0.008-0.044-0.008-0.089-0.015-0.128
									l0.544,0.322l0,0l0,0l0,0l0,0l0,0c0.011,0.03,0.019,0.069,0.019,0.106c0,0,0,0.008,0,0.016c0,0.015,0.007,0.021,0.007,0.029
									c0,0.022,0.003,0.037,0.003,0.052c0,0.016,0,0.03,0.004,0.045c0,0.009,0,0.023,0,0.03c0,0.008,0,0.014,0,0.032
									c0,0.021,0.007,0.051,0.007,0.074c0,0,0,0.006,0,0.016l0,0c0,0.035,0,0.065-0.007,0.096c0,0.008,0,0.015,0,0.022
									c0,0.007,0,0.015,0,0.03c0,0.015,0,0.021,0,0.045c-0.004,0.015-0.004,0.029-0.004,0.045
									c-0.003,0.009-0.003,0.015-0.003,0.029c0,0.009,0,0.015,0,0.024c-0.007,0.029-0.007,0.06-0.007,0.09
									c0,0,0,0.006-0.008,0.006c0,0,0,0.015,0,0.023c0,0.021-0.007,0.045-0.011,0.075c0,0,0,0.008,0,0.015
									c-0.008,0.015-0.008,0.038-0.008,0.045c-0.003,0.008-0.007,0.029-0.007,0.038c-0.004,0.015-0.004,0.021-0.011,0.045
									c0,0.015-0.003,0.029-0.008,0.036c0,0.009,0,0.015-0.008,0.015c0,0.032-0.007,0.047-0.007,0.068
									c-0.008,0.016-0.011,0.023-0.011,0.038c0,0.007,0,0.007-0.004,0.007c-0.007,0.038-0.015,0.075-0.03,0.104
									c-0.008,0.038-0.015,0.075-0.03,0.107c0,0.006,0,0.015,0,0.021c0,0.009-0.011,0.024-0.011,0.03
									c-0.011,0.015-0.019,0.039-0.026,0.06c0,0.009,0,0.015,0,0.015c-0.007,0.016-0.007,0.038-0.019,0.045
									c-0.004,0.023-0.011,0.038-0.015,0.053c0,0-0.012,0.008-0.012,0.016c-0.007,0.023-0.007,0.045-0.015,0.054
									c-0.007,0.015-0.007,0.029-0.015,0.045l-0.008,0.006c-0.007,0.03-0.015,0.045-0.022,0.06
									c-0.004,0.015-0.008,0.024-0.015,0.039c-0.004,0.006-0.008,0.015-0.008,0.015c-0.007,0.03-0.016,0.045-0.023,0.068
									c-0.007,0.015-0.011,0.021-0.019,0.029c0,0,0,0.007-0.003,0.016c-0.015,0.021-0.022,0.045-0.03,0.066
									c-0.007,0.008-0.007,0.023-0.019,0.03c0,0.008-0.003,0.008-0.003,0.014c-0.015,0.03-0.03,0.068-0.045,0.099
									c0,0.009-0.008,0.009-0.008,0.023l0,0c-0.023,0.036-0.045,0.074-0.072,0.119c0,0-0.003,0.007-0.003,0.015
									c-0.007,0.008-0.007,0.008-0.015,0.022c-0.008,0.015-0.022,0.045-0.038,0.067c-0.004,0.007-0.008,0.024-0.016,0.03
									c-0.018,0.03-0.033,0.068-0.052,0.09l0,0c0,0,0,0,0,0.009c-0.022,0.03-0.037,0.06-0.052,0.09
									c-0.007,0.006-0.011,0.015-0.015,0.015c-0.015,0.029-0.03,0.044-0.038,0.068c-0.008,0.006-0.008,0.015-0.015,0.015
									c-0.015,0.03-0.03,0.051-0.045,0.074l0,0c-0.015,0.021-0.026,0.045-0.037,0.061c-0.008,0.006-0.008,0.006-0.008,0.006l0,0
									c-0.011,0.015-0.019,0.029-0.022,0.039C164.614,382.97,164.614,382.976,164.61,382.976z"/>
								<g>
									<polygon fill="#77287A" points="166.234,379.992 165.679,379.676 164.941,379.721 165.485,380.043 									"/>
								</g>
							</g>
						</g>
						<g>
							<polygon fill="#0379A9" points="165.477,378.867 164.326,378.19 164.326,379.384 165.485,380.052 							"/>
						</g>
						<path fill="#0897CD" d="M169.201,377.576c-0.011,0-0.023,0-0.038,0c-0.022,0-0.042,0-0.064,0c-0.026,0-0.057,0-0.086,0
							c-0.007,0-0.022,0-0.03,0c-0.045,0.009-0.094,0.009-0.139,0.016c-0.011,0.008-0.022,0.008-0.03,0.008
							c-0.042,0.007-0.09,0.015-0.132,0.021c-0.015,0-0.03,0-0.045,0.008c-0.066,0.007-0.134,0.03-0.202,0.045
							c-0.03,0-0.053,0.016-0.083,0.016c-0.022,0.015-0.044,0.023-0.075,0.029c-0.015,0.009-0.045,0.016-0.063,0.016
							c-0.03,0.009-0.057,0.015-0.086,0.023c-0.016,0.006-0.023,0.006-0.03,0.006c-0.052,0.024-0.101,0.039-0.15,0.054
							c-0.022,0.006-0.044,0.016-0.06,0.021c-0.045,0.009-0.09,0.023-0.135,0.045c-0.022,0-0.037,0.015-0.053,0.015
							c-0.082,0.03-0.165,0.062-0.239,0.092c-0.016,0-0.03,0.015-0.045,0.015c-0.082,0.03-0.172,0.067-0.244,0.097
							c-0.012,0.008-0.022,0.008-0.034,0.008c-0.048,0.021-0.098,0.045-0.146,0.066c-0.019,0.009-0.042,0.015-0.06,0.023
							c-0.042,0.024-0.079,0.03-0.124,0.045c-0.015,0.016-0.038,0.023-0.053,0.03c-0.045,0.022-0.082,0.038-0.127,0.06
							c-0.015,0-0.03,0.008-0.045,0.015c-0.052,0.016-0.105,0.045-0.15,0.068c-0.008,0-0.011,0-0.011,0
							c-0.007,0.007-0.019,0.007-0.026,0.007c-0.034,0.023-0.075,0.045-0.112,0.062c-0.011,0-0.03,0.006-0.038,0.016
							c-0.03,0.015-0.06,0.029-0.09,0.035c-0.015,0.01-0.03,0.024-0.053,0.03c-0.015,0.009-0.045,0.024-0.06,0.03
							c-0.022,0-0.037,0.015-0.056,0.015c-0.02,0.015-0.038,0.024-0.057,0.03c-0.015,0.009-0.03,0.023-0.053,0.023
							c-0.015,0.015-0.03,0.021-0.053,0.03c-0.007,0.006-0.022,0.006-0.037,0.015c-0.015,0.006-0.03,0.021-0.049,0.029
							c-0.011,0-0.018,0.007-0.026,0.015c-0.019,0-0.037,0.015-0.052,0.024c-0.007,0-0.015,0.006-0.022,0.006
							c-0.015,0.009-0.034,0.023-0.045,0.029l0,0c-0.023,0.009-0.038,0.016-0.049,0.024c-0.003,0-0.007,0-0.007,0
							c-0.011,0.006-0.022,0.015-0.033,0.015l0,0c-0.008,0.006-0.019,0.006-0.027,0.015l-1.151-0.677c0.003,0,0.007,0,0.019-0.006
							c0,0,0.004,0,0.011,0c0.008-0.009,0.015-0.009,0.022-0.015c0.008-0.009,0.008-0.009,0.008-0.009
							c0.018-0.007,0.03-0.016,0.048-0.021h0.004l0.007-0.009c0.015,0,0.03-0.015,0.045-0.021c0.007,0,0.011,0,0.011,0
							c0.02-0.015,0.038-0.023,0.064-0.037c0.003,0,0.007,0,0.015,0c0.022-0.016,0.044-0.022,0.067-0.037
							c0.011-0.008,0.015-0.008,0.022-0.015c0.026-0.009,0.052-0.016,0.082-0.03c0.004-0.008,0.011-0.008,0.023-0.015
							c0.022-0.016,0.052-0.023,0.09-0.038c0.007-0.009,0.007-0.009,0.015-0.009c0.034-0.03,0.076-0.036,0.113-0.061H165
							c0.045-0.021,0.083-0.035,0.128-0.06l0,0c0.037-0.015,0.075-0.03,0.112-0.051c0.008,0,0.015-0.009,0.022-0.015l0,0
							c0.008,0,0.008,0,0.008,0c0.053-0.016,0.105-0.039,0.154-0.069c0.019,0,0.034-0.015,0.052-0.022
							c0.042-0.016,0.079-0.03,0.12-0.045c0.019-0.007,0.038-0.021,0.057-0.03c0.041-0.015,0.075-0.029,0.12-0.045
							c0.022-0.015,0.042-0.021,0.06-0.029c0.045-0.016,0.105-0.036,0.15-0.061c0.008-0.006,0.015-0.006,0.03-0.006c0,0,0,0,0-0.009
							c0.082-0.03,0.161-0.06,0.24-0.098c0.019,0,0.038-0.007,0.048-0.007c0.083-0.038,0.161-0.068,0.236-0.09
							c0.012-0.008,0.015-0.008,0.022-0.008c0.015-0.007,0.026-0.007,0.038-0.015c0.044-0.016,0.09-0.03,0.131-0.045
							c0.019-0.008,0.034-0.016,0.064-0.016c0.045-0.015,0.09-0.039,0.139-0.054c0.011,0,0.026,0,0.033-0.006
							c0.007,0,0.007,0,0.007,0c0.03-0.009,0.049-0.015,0.075-0.024c0.022-0.006,0.053-0.015,0.083-0.029
							c0.022,0,0.045-0.006,0.068-0.015c0.03-0.007,0.045-0.007,0.075-0.021h0.003c0.072-0.015,0.139-0.023,0.2-0.045
							c0.015,0,0.018-0.008,0.026-0.008c0.011,0,0.018,0,0.026,0c0.045-0.007,0.09-0.015,0.127-0.021c0.007,0,0.015,0,0.022,0
							s0.007,0,0.012,0c0.049-0.016,0.093-0.016,0.138-0.016l0,0c0.008-0.008,0.015-0.008,0.022-0.008c0.038,0,0.061,0,0.098,0l0,0
							c0.022,0,0.041,0,0.061,0c0.015,0,0.022,0,0.038,0l0,0c0.029,0.008,0.052,0.008,0.066,0.015c0.012,0,0.02,0,0.023,0.009l0,0
							c0.03,0,0.057,0.007,0.083,0.015l0,0c0.034,0.007,0.06,0.029,0.083,0.045c0.39,0.217,0.773,0.441,1.163,0.666
							c-0.03-0.016-0.053-0.03-0.083-0.037c-0.03-0.008-0.057-0.015-0.083-0.022c-0.007,0-0.011,0-0.015,0
							C169.252,377.585,169.227,377.585,169.201,377.576z"/>
						<g>
							<path fill="#923995" d="M165.263,379.76L165.263,379.76l-0.682,0.298l-0.63-1.085l0.608-0.442l0,0
								c0.09-0.054,0.221-0.054,0.367,0.03c0.278,0.155,0.499,0.546,0.499,0.868C165.424,379.596,165.365,379.706,165.263,379.76z"
								/>
							<path fill="#A34D9D" d="M164.266,380.037c0.244,0.143,0.442,0.021,0.442-0.256c0-0.284-0.199-0.637-0.442-0.779
								c-0.247-0.144-0.45-0.023-0.45,0.254C163.816,379.542,164.019,379.894,164.266,380.037z"/>
							<path fill="#923995" d="M164.464,379.917c0.026,0,0.034,0,0.042-0.015c0.007-0.009,0.03-0.054,0.03-0.121
								c0-0.225-0.166-0.517-0.356-0.63c-0.042-0.029-0.083-0.036-0.117-0.036c-0.06,0-0.067,0.089-0.067,0.141
								c0,0.226,0.165,0.51,0.359,0.632C164.39,379.908,164.435,379.917,164.464,379.917z"/>
						</g>
					</g>
					<g>
						<path fill="#015579" d="M165.477,378.867l0.008,1.185l1.604-0.158l0.022,1.343l1.553-0.901
							c0.082-0.118,1.642-2.392,0.716-2.721C168.548,377.322,165.634,378.784,165.477,378.867z"/>
					</g>
				</g>
			</g>
			<g>
				<polygon fill="#45A7DE" points="167.524,399.641 167.528,401.776 234.819,362.915 234.815,360.789 				"/>
			</g>
			<g>
				<polygon fill="#355779" points="167.524,399.641 130.646,378.215 130.657,380.354 167.528,401.776 				"/>
			</g>
			<polygon fill="#4091CA" points="167.528,397.226 167.524,399.641 130.646,378.215 134.831,378.229 			"/>
		</g>
		<g>
			<g enable-background="new    ">
				<g>
					<polygon fill="#616161" points="235.344,355.173 232.524,353.533 232.72,482.619 235.54,484.263 					"/>
				</g>
				<path fill="#6B6C6C" d="M232.044,349.999c0.038-0.019,0.075-0.038,0.105-0.057c0.049-0.022,0.09-0.052,0.135-0.067
					c0.045-0.027,0.089-0.047,0.134-0.067c0.045-0.02,0.09-0.039,0.132-0.054c0.041-0.017,0.09-0.036,0.139-0.049
					c0.007-0.002,0.015-0.011,0.023-0.015c0.007,0,0.007,0,0.007,0c0.037-0.007,0.063-0.021,0.097-0.032
					c0.045-0.015,0.09-0.028,0.139-0.034c0.042-0.015,0.086-0.023,0.131-0.025c0.053-0.014,0.105-0.028,0.146-0.032
					c0.035-0.002,0.068-0.007,0.105-0.015c0,0,0.004,0,0.011,0c0.011,0,0.019,0,0.031,0c0.056-0.002,0.108-0.008,0.157-0.008
					c0.057,0,0.117,0.006,0.173,0.008c0.067,0.013,0.127,0.019,0.195,0.033c0,0,0,0,0.007,0c0,0,0,0,0,0.004
					c0.075,0.012,0.146,0.035,0.225,0.057c0.09,0.038,0.18,0.074,0.266,0.123c0.941,0.549,1.879,1.095,2.816,1.64
					c-0.15-0.086-0.314-0.149-0.487-0.188h-0.008c-0.173-0.03-0.36-0.045-0.555-0.026c-0.007,0-0.015,0-0.019,0
					c-0.194,0.02-0.401,0.06-0.607,0.135c-0.003,0-0.011,0.004-0.011,0.004c-0.214,0.069-0.442,0.178-0.667,0.303l-55.09,31.806
					l-2.812-1.636L232.044,349.999z"/>
				<g>
					<path fill="#444444" d="M179.774,383.441c-1.826,1.058-3.3,3.615-3.3,5.721l0.244,129.071l2.756-1.59l-0.165-129.123
						c0-0.3,0.214-0.658,0.48-0.816l55.086-31.81c0.254-0.148,0.468-0.025,0.468,0.278l0.177,129.104l2.909-1.679l-0.244-129.067
						c-0.003-2.1-1.5-2.941-3.322-1.896L179.774,383.441z"/>
				</g>
				<path fill="#767677" d="M173.655,387.372c0.007-0.054,0.011-0.107,0.011-0.158c0.004-0.053,0.012-0.104,0.019-0.164
					c0.003-0.054,0.007-0.107,0.011-0.167c0.012-0.051,0.015-0.104,0.026-0.163l0,0l0.004-0.01c0.004-0.051,0.011-0.104,0.027-0.155
					c0.011-0.054,0.018-0.113,0.033-0.174c0.011-0.06,0.026-0.112,0.033-0.172c0.022-0.06,0.038-0.12,0.053-0.18
					c0.007-0.038,0.03-0.083,0.041-0.128c0-0.009,0-0.009,0.004-0.015c0.004-0.015,0.004-0.023,0.004-0.03
					c0.019-0.06,0.041-0.113,0.056-0.173c0.022-0.053,0.045-0.113,0.064-0.164c0.019-0.054,0.037-0.113,0.059-0.166
					c0.019-0.052,0.035-0.104,0.061-0.156c0.019-0.038,0.034-0.083,0.056-0.122c0-0.006,0.003-0.006,0.003-0.006
					c0.004-0.015,0.008-0.024,0.008-0.03c0.026-0.054,0.049-0.112,0.075-0.166c0.026-0.051,0.056-0.111,0.085-0.171
					c0.035-0.068,0.068-0.137,0.098-0.196c0.037-0.075,0.083-0.149,0.12-0.209c0.007-0.016,0.015-0.023,0.022-0.038
					c0.007-0.016,0.015-0.03,0.022-0.045c0.075-0.135,0.165-0.264,0.248-0.391c0.067-0.096,0.135-0.201,0.21-0.3
					c0.045-0.067,0.098-0.127,0.143-0.188c0.045-0.06,0.082-0.113,0.127-0.164c0.045-0.053,0.086-0.098,0.128-0.143
					c0.044-0.054,0.085-0.099,0.131-0.149c0.007-0.009,0.015-0.016,0.026-0.024c0,0,0.007,0,0.012-0.006
					c0.026-0.039,0.063-0.074,0.094-0.113c0.052-0.044,0.097-0.089,0.143-0.134c0.052-0.045,0.093-0.09,0.146-0.129
					c0.048-0.053,0.098-0.098,0.146-0.135c0.03-0.022,0.052-0.045,0.079-0.067c0.003,0,0.011-0.007,0.011-0.007
					c0.022-0.015,0.041-0.029,0.06-0.047c0.048-0.036,0.098-0.075,0.146-0.11c0.049-0.03,0.094-0.075,0.146-0.105
					c0.045-0.029,0.09-0.062,0.143-0.098c0.038-0.023,0.09-0.054,0.135-0.074c0.012-0.016,0.022-0.016,0.038-0.024l2.812,1.636
					c-0.221,0.136-0.443,0.286-0.652,0.458c-0.008,0.006-0.015,0.016-0.022,0.021c-0.218,0.164-0.413,0.353-0.608,0.555
					c0,0.01-0.007,0.016-0.007,0.016c-0.39,0.421-0.747,0.9-1.035,1.41c-0.011,0.006-0.015,0.016-0.022,0.03
					c-0.143,0.253-0.273,0.51-0.39,0.772l-0.004,0.006c-0.116,0.271-0.217,0.534-0.296,0.811c-0.007,0-0.007,0.016-0.007,0.016
					c-0.165,0.546-0.255,1.102-0.255,1.626l0.244,129.071l-2.816-1.642l-0.247-129.071
					C173.655,387.468,173.655,387.423,173.655,387.372z"/>
			</g>
		</g>
		<g>
			<g>
				<polygon fill="#1C4178" points="203.423,470.291 204.492,489.414 220.9,498.885 223.06,494.289 223.87,482.094 				"/>
				<g>
					<g enable-background="new    ">
						<g>
							<polygon fill="#164989" points="223.87,482.094 242.453,471.296 240.774,496.779 222.187,507.585 							"/>
						</g>
						<g>
							<polygon fill="#D8B129" points="203.423,470.291 222.011,459.499 242.453,471.296 223.87,482.094 							"/>
						</g>
					</g>
				</g>
				<polygon fill="#1C4178" points="221.965,500.723 204.56,490.674 204.949,497.633 222.187,507.585 222.753,498.945 				"/>
				<polygon fill="#474746" points="209.592,466.084 208.53,466.705 206.367,471.994 207.019,472.369 				"/>
				<g>
					<g>
						<polygon fill="#8B8B8B" points="200.244,486.953 201.309,486.339 221.965,498.262 220.9,498.885 						"/>
					</g>
					<polygon fill="#A2A2A1" points="203.956,479.859 203.862,478.121 200.244,486.953 201.309,486.339 					"/>
					<polygon fill="#BFBEBE" points="230.185,479.161 220.9,498.885 200.244,486.953 203.858,478.082 203.727,475.705 
						199.167,487.562 221.965,500.723 231.253,479.776 					"/>
					<g>
						<polygon fill="#A2A2A1" points="231.257,479.776 232.322,479.161 223.03,500.108 221.965,500.723 						"/>
					</g>
				</g>
				<g>
					<polygon fill="#8B8B8B" points="230.188,479.161 231.25,478.541 232.318,479.161 231.257,479.776 					"/>
				</g>
				<g>
					<g>
						<g enable-background="new    ">
							<g>
								<polygon fill="#164989" points="224.507,481.87 224.5,483.1 202.714,470.518 202.722,469.294 								"/>
							</g>
							<g>
								<polygon fill="#2973BA" points="224.507,481.87 243.091,471.071 243.083,472.301 224.5,483.1 								"/>
							</g>
							<g>
								<polygon fill="#165FAC" points="202.722,469.294 221.306,458.496 243.091,471.071 224.507,481.87 								"/>
								<polygon fill="#164989" points="241.587,471.078 241.583,471.078 224.5,480.993 222.446,479.807 204.23,469.294 
									221.298,459.372 221.298,459.364 221.306,459.364 								"/>
							</g>
						</g>
					</g>
					<g>
						<polygon fill="#1C4178" points="241.583,471.078 224.5,480.993 222.446,479.807 221.298,459.372 221.298,459.364 
							221.306,459.364 						"/>
					</g>
				</g>
			</g>
			<g>
				<polygon fill="#147C3E" points="177.472,485.68 178.537,504.789 194.949,514.266 197.113,509.669 197.915,497.475 				"/>
				<g>
					<g enable-background="new    ">
						<g>
							<polygon fill="#146E38" points="197.915,497.475 216.506,486.677 214.819,512.16 196.235,522.967 							"/>
						</g>
						<g>
							<polygon fill="#D8B129" points="177.472,485.68 196.063,474.872 216.506,486.677 197.915,497.475 							"/>
						</g>
					</g>
				</g>
				<polygon fill="#147C3E" points="196.01,516.104 178.608,506.063 178.994,513.016 196.235,522.967 196.805,514.325 				"/>
				<polygon fill="#474746" points="183.637,481.465 182.576,482.088 180.412,487.374 181.067,487.75 				"/>
				<g>
					<g>
						<polygon fill="#8B8B8B" points="174.3,502.343 175.357,501.72 196.01,513.651 194.949,514.266 						"/>
					</g>
					<polygon fill="#A2A2A1" points="178.008,495.24 177.907,493.501 174.3,502.343 175.357,501.72 					"/>
					<polygon fill="#BFBEBE" points="204.233,494.536 194.949,514.266 174.3,502.343 177.907,493.462 177.772,491.087 
						173.213,502.951 196.01,516.104 205.294,495.159 					"/>
					<g>
						<polygon fill="#A2A2A1" points="205.31,495.159 206.367,494.536 197.075,515.497 196.01,516.104 						"/>
					</g>
				</g>
				<g>
					<polygon fill="#8B8B8B" points="204.237,494.536 205.294,493.922 206.367,494.536 205.302,495.159 					"/>
				</g>
				<g>
					<g>
						<g enable-background="new    ">
							<g>
								<polygon fill="#199346" points="198.552,497.251 198.552,498.48 176.767,485.903 176.767,484.684 								"/>
							</g>
							<g>
								<polygon fill="#195C2E" points="198.552,497.251 217.136,486.452 217.136,487.682 198.552,498.48 								"/>
							</g>
							<g>
								<polygon fill="#166131" points="176.767,484.684 195.354,473.876 217.136,486.452 198.552,497.251 								"/>
								<polygon fill="#1D5228" points="215.636,486.452 215.629,486.459 198.552,496.38 196.49,495.189 178.271,484.684 
									195.346,474.753 195.346,474.745 195.354,474.745 								"/>
							</g>
						</g>
					</g>
					<g>
						<polygon fill="#146E38" points="215.629,486.459 198.552,496.38 196.49,495.189 195.346,474.753 195.346,474.745 
							195.354,474.745 						"/>
					</g>
				</g>
			</g>
		</g>
		<g>
			<g enable-background="new    ">
				<g>
					<polygon fill="#444444" points="235.336,369.006 235.344,371.914 179.324,404.237 179.328,401.35 					"/>
				</g>
				<g>
					<polygon fill="#666666" points="179.328,401.35 179.324,398.006 232.592,367.37 235.336,369.006 					"/>
				</g>
			</g>
		</g>
	</g>
</g>
</svg>
