<?xml version="1.0" encoding="utf-8"?>
<!-- Generator: Adobe Illustrator 16.0.0, SVG Export Plug-In . SVG Version: 6.00 Build 0)  -->
<!DOCTYPE svg PUBLIC "-//W3C//DTD SVG 1.1//EN" "http://www.w3.org/Graphics/SVG/1.1/DTD/svg11.dtd">
<svg version="1.1" id="Layer_1" xmlns="http://www.w3.org/2000/svg" xmlns:xlink="http://www.w3.org/1999/xlink" x="0px" y="0px"
	 width="650px" height="650px" viewBox="0 0 650 650" enable-background="new 0 0 650 650" xml:space="preserve">
<polygon fill="#D5A484" points="414.125,500.489 414.125,500.489 414.749,500.843 "/>
<g>
	<path fill="#EEE1BC" d="M212.957,28.544l1.553,392.962l70.928,40.398l26.757-15.537l134.741,77.063l0.123,30.522l88.433,50.38
		l-1.55-392.994L212.957,28.544z"/>
	<g>
		<path fill="#223035" d="M214.063,308.831l0.446,112.676l70.928,40.398l7.147-4.152l19.61-11.385l134.741,77.063l0.123,30.522
			l88.433,50.38l-0.442-112.706L214.063,308.831z"/>
	</g>
	<g>
		<path fill="#121B1E" d="M447.021,545.719l0.037,8.235l88.433,50.38l-0.03-8.235L447.021,545.719z M214.509,421.507l70.928,40.398
			l7.147-4.152l-78.109-44.479L214.509,421.507z"/>
	</g>
	<polygon fill="#CCD9E0" points="285.438,461.905 447.059,553.96 446.936,523.415 312.199,446.36 	"/>
	<polygon fill="#7B3B31" points="449.08,194.587 450.365,520.619 316.204,443.864 285.438,461.905 282.266,460.07 281.853,98.925 	
		"/>
	<polygon fill="#121C27" points="312.199,446.36 310.872,119.597 445.63,196.401 446.887,523.415 	"/>
	<polygon fill="#F26344" points="449.087,194.587 281.853,98.91 282.258,460.063 285.355,461.831 285.209,105.015 445.63,196.367 
		447.059,553.96 450.516,555.947 	"/>
	<g>
		<polygon fill="#562F15" points="368.478,288.799 368.016,172.047 388.64,183.847 389.101,300.597 		"/>
		<polygon fill="#5C8780" points="386.008,295.287 371.545,287.016 371.11,177.361 385.576,185.632 		"/>
	</g>
	<g>
		<polygon fill="#562F15" points="369.134,455.533 368.672,338.782 389.299,350.58 389.76,467.337 		"/>
		<polygon fill="#5C8780" points="386.667,462.019 372.2,453.747 371.77,344.097 386.232,352.372 		"/>
	</g>
	<g>
		<g enable-background="new    ">
			<g>
				<polygon fill="#311B0F" points="317.205,310.662 317.205,314.081 314.108,315.903 314.104,312.475 				"/>
			</g>
			<g>
				<polygon fill="#311B0F" points="323.932,311.171 323.932,314.591 321.048,316.282 321.041,312.858 				"/>
			</g>
			<g>
				<polygon fill="#24150C" points="321.041,312.858 321.048,316.282 317.205,314.081 317.205,310.662 				"/>
			</g>
			<g>
				<polygon fill="#351D10" points="323.932,311.171 321.041,312.858 317.205,310.662 314.104,312.475 317.951,314.674 
					314.104,312.475 320.092,308.965 				"/>
			</g>
			<g>
				<polygon fill="#412513" points="338.96,323.109 338.956,326.528 335.863,328.349 335.859,324.924 				"/>
			</g>
			<polygon fill="#2E1B0F" points="314.104,312.475 314.108,315.903 335.863,328.349 335.859,324.924 			"/>
			<g>
				<polygon fill="#4A2914" points="338.96,323.109 335.859,324.924 317.951,314.674 314.104,312.475 317.205,310.662 
					321.041,312.858 				"/>
			</g>
		</g>
	</g>
</g>
</svg>
