<?xml version="1.0" encoding="utf-8"?>
<!-- Generator: Adobe Illustrator 16.0.0, SVG Export Plug-In . SVG Version: 6.00 Build 0)  -->
<!DOCTYPE svg PUBLIC "-//W3C//DTD SVG 1.1//EN" "http://www.w3.org/Graphics/SVG/1.1/DTD/svg11.dtd">
<svg version="1.1" id="Layer_1" xmlns="http://www.w3.org/2000/svg" xmlns:xlink="http://www.w3.org/1999/xlink" x="0px" y="0px"
	 width="650px" height="650px" viewBox="0 0 650 650" enable-background="new 0 0 650 650" xml:space="preserve">
<polygon fill="#D5A484" points="414.125,500.489 414.125,500.489 414.749,500.843 "/>
<g>
	<path opacity="0.1" fill="#121B1E" d="M377.954,494.725c16.182,9.262,16.241,24.38,0.133,33.767
		c-16.119,9.391-42.303,9.495-58.489,0.233c-16.191-9.261-16.248-24.381-0.136-33.768
		C335.581,485.566,361.766,485.471,377.954,494.725z"/>
	<g>
		
			<linearGradient id="SVGID_1_" gradientUnits="userSpaceOnUse" x1="293.9824" y1="295.9561" x2="312.395" y2="295.9561" gradientTransform="matrix(1 -0.004 0.004 1 -0.2227 1.7012)">
			<stop  offset="0.01" style="stop-color:#DBA293"/>
			<stop  offset="0.99" style="stop-color:#DF807B"/>
		</linearGradient>
		<path fill="url(#SVGID_1_)" d="M300.751,277.222c0,0-1.188,4.743-2.411,8.923c-1.23,4.185-4.864,12.674-2.704,21.318
			c2.164,8.639,10.806,8.867,16.889,7.698c0,0,1.807-6.936,0.232-12.275c0,0-2.727-0.137-2.16-2.698
			c0.558-2.564,0.866-3.768,0.866-3.768s-2.374-10.383-4.642-14.135c0,0-2.418-1.188-3.87-2.625
			C301.505,278.219,300.751,277.222,300.751,277.222z"/>
		<polygon fill="#F6B94B" points="438.229,239.44 425.386,253.051 403.953,227.719 416.788,214.1 		"/>
		<g>
			<path fill="#EE2F53" d="M342.942,504.593c0.034,0.247,0.019,0.518-0.018,0.787c-0.466,3.427-12.825,8.91-16.71,11.174
				c-3.899,2.265-7.792,1.516-9.243,0.038c-0.409-0.42-0.848-0.998-1.241-1.726c-0.848-1.62-1.421-3.87-0.795-6.337
				c0.079-0.307-0.023-0.862,0.307-0.922c5.543-1.064,15.869-4.957,15.869-4.957C339.207,499.905,342.811,501.624,342.942,504.593z"
				/>
			<path fill="#CC1F47" d="M342.942,504.593c0.034,0.247,0.019,0.518-0.018,0.787c-0.466,3.427-12.825,8.91-16.71,11.174
				c-3.899,2.265-7.792,1.516-9.243,0.038c-0.409-0.42-0.848-0.998-1.241-1.726c1.26,0.668,2.854,0.909,5.554,0.999
				c5.046,0.188,7.592-2.902,12.148-5.46C337.587,508.094,340.04,506.677,342.942,504.593z"/>
		</g>
		<g>
			<path fill="#EE2F53" d="M383.862,509.49c-4.076,3.156-12.838,9.966-19.441,11.383c-3.256,0.707-5.171-0.674-6.214-2.655
				c-1.064-2.016-1.252-4.695-1.102-6.389c0.461-5.279,17.627-8.556,22.669-9.313c2.922-0.412,5.197,0.93,5.802,2.753
				C386,506.597,385.569,508.178,383.862,509.49z"/>
			<path fill="#CC1F47" d="M383.862,509.49c-4.076,3.156-12.838,9.966-19.441,11.383c-3.256,0.707-5.171-0.674-6.214-2.655
				c1.293,0.788,3.143,1.029,6.918,0.376c5.924-1.005,10.817-4.853,14.681-7.528c3.243-2.229,4.567-4.117,5.771-5.797
				C386,506.597,385.569,508.178,383.862,509.49z"/>
		</g>
		
			<linearGradient id="SVGID_2_" gradientUnits="userSpaceOnUse" x1="356.1133" y1="513.5547" x2="366.1299" y2="513.5547" gradientTransform="matrix(1 -0.004 0.004 1 -0.2227 1.7012)">
			<stop  offset="0.01" style="stop-color:#DAA192"/>
			<stop  offset="0.99" style="stop-color:#DE817B"/>
		</linearGradient>
		<path fill="url(#SVGID_2_)" d="M357.938,511.986c0,0,0.064,2.664,0.79,3.022c0.724,0.352,3.244,0.832,6.383,0.57
			c2.283-0.188,2.22-0.907,2.22-0.907l0.626-2.459C367.956,512.213,364.071,512.398,357.938,511.986z"/>
		
			<linearGradient id="SVGID_3_" gradientUnits="userSpaceOnUse" x1="314.6152" y1="511.4111" x2="324.2813" y2="511.4111" gradientTransform="matrix(1 -0.004 0.004 1 -0.2227 1.7012)">
			<stop  offset="0.01" style="stop-color:#DAA192"/>
			<stop  offset="0.99" style="stop-color:#DE817B"/>
		</linearGradient>
		<path fill="url(#SVGID_3_)" d="M316.432,510.173c0.402,1.626,1.13,3.066,2.817,3.726c1.687,0.653,4.571,0.09,5.65-1.267
			c1.081-1.35,1.196-3.15,1.196-3.15s-1.829,2.272-4.825,2.356C318.281,511.911,316.432,510.173,316.432,510.173z"/>
		<path fill="#2D133D" d="M378.677,444.83c-1.489,9.173-8.732,66.22-10.729,67.383c-1.979,1.161-10-0.232-10-0.232
			s-4.293-34.394-2.665-46.534c1.627-12.135,7.288-18.141,7.757-19.342c0.48-1.215-12.939-26.659-20.449-39.782
			c-7.522-13.116-10.006-17.309-11.205-19.058c-1.208-1.76-0.84,31.934-1.289,48.65c-0.454,16.737-1.865,68.73-4.002,73.552
			c-2.145,4.823-9.471,1.965-10.116,0.038c-0.638-1.92-5.006-15.208-7.204-36.147c-2.182-20.93,3.322-34.833,5.23-38.726
			c1.913-3.898-5.253-28.729-9.816-48.355c-4.286-18.374-3.813-24.864-3.469-30.738c0.015-0.402,0.034-0.807,0.045-1.213
			c0,0,0.105,0.094,0.319,0.268c0,0,0,0,0,0.021c0.116,0.077,0.27,0.212,0.442,0.361c2.898,2.496,13.833,11.406,25.884,15.77
			c0.113,0.061,0.251,0.09,0.364,0.129c2.68,0.938,5.463,1.619,8.192,2.091c10.62,1.763,20.897,0.534,23.612,0.135
			c0.066,0,0.153-0.015,0.232-0.015c0.066-0.006,0.149-0.021,0.226-0.045c0.077,0,0.156-0.016,0.23-0.036
			c3.635,7.857,11.343,33.401,15.573,52.12c0,0.022,0,0.022,0.019,0.037c0,0.021,0,0.021,0,0.021
			C377.938,434.324,379.164,441.824,378.677,444.83z"/>
		<path fill="#E82642" d="M362.534,302.101c-5.867,1.602-8.381,3.517-5.805,18.141c0.24,1.407,0.552,2.929,0.882,4.581
			c3.925,18.835,2.657,48.187,2.657,48.187c-0.074,0.024-0.153,0.039-0.23,0.039c-0.076,0.021-0.159,0.036-0.226,0.045
			c-0.079,0.015-0.136,0.036-0.211,0.036c-8.475,1.59-16.461,1.238-23.634-0.156c-2.868-0.548-5.609-1.267-8.192-2.085
			c-0.113-0.038-0.251-0.074-0.364-0.134c-15.85-5.139-26.09-14.303-26.09-14.303c-0.063-0.404-0.176-0.982-0.236-1.83
			c0-0.019,0-0.019,0-0.019c-0.206-3.273,0.454-10.61,7.916-27.856c4.083-9.433,4.706-17.289,3.655-24.583
			c-0.967-6.831-3.401-13.176-5.834-19.869c-5.006-13.847-4.687-26.806,0.184-32.933c2.812-3.531,9.344-2.347,17.192,1.167
			c7.391,3.304,15.942,8.643,23.728,14.061c2.621,1.837,5.171,3.679,7.544,5.456C372.377,282.669,368.935,300.341,362.534,302.101z"
			/>
		
			<linearGradient id="SVGID_4_" gradientUnits="userSpaceOnUse" x1="390.2607" y1="191.1924" x2="378.3959" y2="330.6044" gradientTransform="matrix(1 -0.004 0.004 1 -0.2227 1.7012)">
			<stop  offset="0.01" style="stop-color:#DBA293"/>
			<stop  offset="0.99" style="stop-color:#DF807B"/>
		</linearGradient>
		<path fill="url(#SVGID_4_)" d="M425.903,234.171c-1.064,3.24-3.053,5.906-3.771,9.588c0.097,0,0.097,0,0.097,0
			s-4.181,28.534-15.257,47.253c-9.663,16.292-16.533,17.337-28.689,15.351c-3.816-0.64-7.904-2.07-11.78-3.824
			c-2.025-0.919-3.976-1.89-5.806-2.888c-5.732-3.135-10.236-6.314-11.353-7.289c-6.529-5.617-6.944-12.28,0.57-16.701
			c6.857-4.034,15.316,2.947,23.423,7.612c5.91,3.424,11.613,5.635,16.416,1.534c7.387-6.325,24.171-37.433,25.441-41.887
			c0,0,0.053,0,0.098,0c-0.06,0-0.098-0.015-0.098-0.015s-0.862-4.177-1.699-6.352c-0.861-2.152-1.721-4.999-0.981-5.1
			c0.713-0.098,2.463,4.421,4.397,2.992c0.521-0.368,0.945-1.279,0.795-2.974c-0.16-1.676-0.457-3.543-0.704-4.484
			c-0.236-0.926,0.625-1.579,1.038-0.619c0.405,0.938,1.283,4.192,1.692,4.44c0.396,0.254,0.606-1.177,0.115-3.54
			c-0.491-2.351-0.124-2.58,0.556-2.625c0.651,0,1.825,4.905,1.982,5.734c0.158,0.829,0.631-0.296,0.683-1.759
			c0.057-1.462-0.109-3.524,0.623-3.33c0.734,0.17,1.136,4.114,0.926,5.58c-0.199,1.466,0.432,0.9,0.694-0.428
			c0.243-1.327,0.379-2.333,0.817-2.085c0.134,0.061,0.273,0.292,0.356,0.653C426.713,229.916,426.684,231.708,425.903,234.171z"/>
		
			<linearGradient id="SVGID_5_" gradientUnits="userSpaceOnUse" x1="442.0693" y1="241.522" x2="343.9992" y2="319.0712" gradientTransform="matrix(1 -0.004 0.004 1 -0.2227 1.7012)">
			<stop  offset="0.01" style="stop-color:#DAA192"/>
			<stop  offset="0.99" style="stop-color:#DE817B"/>
		</linearGradient>
		<path opacity="0.2" fill="url(#SVGID_5_)" d="M425.903,234.171c-1.064,3.24-3.053,5.906-3.771,9.588c0.097,0,0.097,0,0.097,0
			s-4.181,28.534-15.257,47.253c-9.663,16.292-16.533,17.337-28.689,15.351c-3.816-0.64-7.904-2.07-11.78-3.824
			c-2.025-0.919-3.976-1.89-5.806-2.888l7.11-2.894c6.081,3.596,16.435,7.633,24.376,3.272c7.935-4.346,16.075-19.554,22.712-35.925
			c6.648-16.394,6.194-21.208,6.194-21.208s4.608-8.399,5.396-13.889C426.713,229.916,426.684,231.708,425.903,234.171z"/>
		<g>
			<path fill="#EE2F53" d="M373.337,283.273c-0.237,3.446-1.271,8.827-3.754,14.031c-0.843,1.792-1.86,3.574-3.081,5.235
				c-8.337-3.742-15.678-8.895-17.158-10.177c-3.844-3.318-5.577-6.99-4.804-10.364c0.551-2.328,2.298-4.533,5.374-6.337
				C356.771,271.627,365.23,278.608,373.337,283.273z"/>
			<path opacity="0.4" fill="#E82642" d="M369.583,297.304c-0.843,1.792-1.86,3.574-3.081,5.235
				c-8.337-3.742-15.678-8.895-17.158-10.177c-3.844-3.318-5.577-6.99-4.804-10.364
				C350.325,287.541,362.237,295.352,369.583,297.304z"/>
		</g>
		<path fill="#19AF91" d="M357.611,324.813c-0.33-1.658-0.642-3.174-0.882-4.58c-7.762,9.927-20.511,8.727-28.909,3.952
			c3.101-0.753,7.862-1.811,6.306-6.227c-1.975-5.581-5.545-4.448-10.73,3.032c0,0,0,0,0-0.002
			c4.829-7.628,0.487-13.335-3.389-11.268c-1.868,1.001-1.763,3.295-1.092,5.497c-2.403-3.93-4.417-8.628-6.258-13.068
			c1.054,7.297,0.432,15.156-3.655,24.592c-7.462,17.238-8.122,24.582-7.916,27.853c-0.213-0.174-0.319-0.268-0.319-0.268
			c-0.011,0.406-0.03,0.811-0.045,1.213c0.304,0.711,0.6,0.906,0.6,0.906s0.037-0.54,0.206-1.47
			c0.506-3.217,2.344-11.155,8.242-18.666c7.608-9.72,8.347-18.291,8.347-18.291s0.271,0.679,1.106,1.829
			c-2.669,6.592-3.322,23.285-3.322,23.285l3.529,2.685c-0.802-8.129,0.866-19.674,1.552-23.886c0.877,0.932,2.01,1.992,3.461,3.151
			c0.589,6.127-2.32,18.024-2.32,18.024l1.882,2.695c3.3-7.07,2.275-16.461,1.781-19.7c0.258,0.188,0.507,0.376,0.775,0.569
			c7.016,4.897,15.678,5.349,15.678,5.349s5.812,8.413,9.483,16.04c2.175,4.537,5.027,14.825,7.859,25.039
			c0,0.023,0.021,0.023,0.021,0.023c1.913,6.96,3.825,13.904,5.501,18.981c3.993,12.119,10.353,31.805,10.739,33.02
			C371.611,406.404,361.536,343.65,357.611,324.813z M329.669,317.977c1.875-0.118,3.884,1.888-3.514,5.184
			c-0.409-0.276-0.821-0.551-1.204-0.847C326.121,320.752,328.304,318.055,329.669,317.977z M320.625,317.781
			c-0.626-2.947-1.122-7.129,1.893-4.668c3.12,2.549,1.863,6.015,0.848,7.847C322.398,320.049,321.491,318.963,320.625,317.781z"/>
		<path fill="#EE2F53" d="M300.751,277.222c0,0,3.022,3.783,6.071,5.062c0,0-8.013-24.437,2.242-34.467c0,0-4.866,1.83-6.761,10.259
			C300.414,266.508,300.751,277.222,300.751,277.222z"/>
		
			<linearGradient id="SVGID_6_" gradientUnits="userSpaceOnUse" x1="343.2422" y1="245.1123" x2="335.1525" y2="261.9236" gradientTransform="matrix(1 -0.004 0.004 1 -0.2227 1.7012)">
			<stop  offset="0.01" style="stop-color:#DAA192"/>
			<stop  offset="0.99" style="stop-color:#DE817B"/>
		</linearGradient>
		<path opacity="0.2" fill="url(#SVGID_6_)" d="M343.403,252.631c-0.154,2.943,0.063,11.241-0.086,11.147
			c-3.337-1.894-10.116-5.771-14.976-8.546c0.146-1.912,0.041-3.832-0.233-5.452c0.983,0.443,2.371,0.84,4.317,0.926
			c2.942,0.143,5.946-0.292,8.656-2.38c0.057-0.045,0.095-0.079,0.15-0.116c4.74,4.525,10.701,3.828,13.84,3.003
			C352.691,253.381,348.709,254.07,343.403,252.631z"/>
		<g>
			<path fill="#CA7028" d="M354.821,224.925c-0.022,0.378-0.064,0.747-0.113,1.106c-0.48,2.984-1.12,7.022-1.611,10.083
				c-0.395,2.553-0.687,4.428-0.687,4.428c-0.956-1.462-1.729-2.411-2.37-2.944c-1.346-1.14-2.133-0.525-2.896,0.934
				c-0.794,1.478-1.536,3.825-2.822,6.112c-3.108,5.594-7.35,6.637-11.4,6.43c-1.779-0.083-3.043-0.454-3.947-0.855
				c-0.025-0.011-0.079-0.026-0.101-0.038c-1.058-0.491-1.519-0.986-1.519-0.986c-1.028-3.39-3.924-7.601-5.37-13.761
				c-0.487-2.138-0.81-4.492-0.82-7.136c-0.064-12.692,11.9-16.097,16.851-15.857c10.588,0.518,15.216,4.897,16.452,9.374
				C354.762,222.866,354.87,223.92,354.821,224.925z"/>
			<path fill="#19AF91" d="M347.09,263.764c-3.979,1.196-8.246-0.461-14.05-4.383c-5.07-3.431-6.817-5.609-7.643-8.474
				C332.154,253.924,339.972,258.811,347.09,263.764z"/>
			
				<linearGradient id="SVGID_7_" gradientUnits="userSpaceOnUse" x1="355.0869" y1="220.8525" x2="334.2748" y2="264.1027" gradientTransform="matrix(1 -0.004 0.004 1 -0.2227 1.7012)">
				<stop  offset="0.01" style="stop-color:#DBA293"/>
				<stop  offset="0.99" style="stop-color:#DF807B"/>
			</linearGradient>
			<path fill="url(#SVGID_7_)" d="M355.602,248.341c-0.297,1.02-0.784,1.92-1.448,2.663c-0.161,0.195-0.337,0.375-0.527,0.533
				c-2.18,1.979-5.82,2.609-10.665,1.289c-0.153,2.696,0.056,10.286-0.082,10.195c-3.056-1.729-9.25-5.279-13.698-7.814
				c0.135-1.744,0.042-3.506-0.21-4.983c0.896,0.401,2.172,0.765,3.948,0.847c2.692,0.128,5.434-0.27,7.913-2.178
				c0.057-0.038,0.089-0.072,0.142-0.109c1.208-0.99,2.33-2.332,3.359-4.146c3.131-5.595,3.124-11.654,8.084-4.103
				c0,0,1.41-9.022,2.288-14.5c0.052-0.371,0.105-0.739,0.116-1.106c0.049-1.004-0.06-2.063-0.345-3.116
				c1.77,3.776,0.524,7.919,1.237,10.525C356.43,235.007,357.509,241.783,355.602,248.341z"/>
			<path opacity="0.2" fill="#CA7028" d="M339.599,239.983c3.048-0.417,5.525-0.904,7.546-1.451
				c-0.794,1.478-1.536,3.825-2.822,6.112c-3.108,5.594-7.35,6.637-11.4,6.43c-1.779-0.083-3.043-0.454-3.947-0.855
				c-0.025-0.011-0.079-0.026-0.101-0.038c-1.058-0.491-1.519-0.986-1.519-0.986c-1.028-3.39-3.924-7.601-5.37-13.761
				C325.008,238.592,330.316,241.231,339.599,239.983z"/>
			<g>
				<g>
					<path fill="#19AF91" d="M326.991,229.132c1.121-1.429,2.149-3.326-0.022-5.441c-2.171-2.122-4.9,0.218-4.72,3.165
						C322.428,229.795,326.076,230.298,326.991,229.132z"/>
					<path fill="#B65E27" d="M326.714,261.181c-2.865,2.418-1.466,5.001-1.466,5.001s-0.548-0.255-1.369-0.746
						c-2.272-1.323-6.641-4.309-7.049-7.946c-0.554-4.941,4.972-7.386,2.513-12.906c-2.456-5.542-5.729-13.102-3.188-17.714
						c2.568-4.604,8.043-2.827,8.043-2.827c1.559,0.773,1.916,2.193,1.99,3.079c0.037,0.476-0.015,0.794-0.015,0.794
						s-2.434-1.474-3.656,0.559c-1.199,2.036,3.687,7.015,9.806,16.536C338.442,254.543,329.578,258.743,326.714,261.181z"/>
				</g>
				<path opacity="0.2" fill="#CA7028" d="M326.714,261.181c-2.865,2.418-1.466,5.001-1.466,5.001s-0.548-0.255-1.369-0.746
					c-1.71-5.778,3.465-9.336,5.092-15.816c1.85-7.337-8.275-13.959-7.799-19.888c0.375-4.713,3.303-3.791,5.017-2.609
					c0.037,0.476-0.015,0.794-0.015,0.794s-2.434-1.474-3.656,0.559c-1.199,2.036,3.687,7.015,9.806,16.536
					C338.442,254.543,329.578,258.743,326.714,261.181z"/>
			</g>
		</g>
	</g>
</g>
</svg>
