<?xml version="1.0" encoding="utf-8"?>
<!-- Generator: Adobe Illustrator 16.0.0, SVG Export Plug-In . SVG Version: 6.00 Build 0)  -->
<!DOCTYPE svg PUBLIC "-//W3C//DTD SVG 1.1//EN" "http://www.w3.org/Graphics/SVG/1.1/DTD/svg11.dtd">
<svg version="1.1" id="Layer_1" xmlns="http://www.w3.org/2000/svg" xmlns:xlink="http://www.w3.org/1999/xlink" x="0px" y="0px"
	 width="650px" height="650px" viewBox="0 0 650 650" enable-background="new 0 0 650 650" xml:space="preserve">
<polygon fill="#D5A484" points="414.125,500.489 414.125,500.489 414.749,500.843 "/>
<g>
	<path fill="#566569" d="M471.371,526.849l-24.32,14.044l-0.692,0.388l-36.209,20.914l-0.691,0.404l-35.868,20.702l-0.684,0.396
		l-30.057,17.351l-19.734-11.389l-0.675-0.396l-36.109-20.839h-0.008l-0.684-0.413l-35.884-20.71l-0.692-0.392l-36.326-20.978
		l-0.684-0.392l-36.143-20.877l-0.675-0.375h-0.008l-24.095-13.919l30.073-17.363l0.684-0.396l35.859-20.702l0.684-0.392
		l36.209-20.91l0.7-0.392l24.329-14.053l24.095,13.915l0.658,0.396c0.017,0,0.017,0,0.017,0l36.151,20.865l0.667,0.392
		l36.317,20.964l0.7,0.404l35.885,20.727l0.675,0.393l35.867,20.701l0.692,0.409L471.371,526.849z"/>
	<g>
		<g>
			<polygon fill="#121B1E" points="451.395,515.326 427.124,529.392 426.433,529.783 390.29,550.735 389.598,551.127 
				353.789,571.887 353.113,572.271 323.115,589.658 322.44,589.262 352.438,571.87 353.113,571.491 388.914,550.735 
				389.598,550.335 425.749,529.392 426.433,528.991 450.702,514.917 			"/>
		</g>
		<g>
			<path fill="#121B1E" d="M414.835,494.216c-6.345,3.66-14.773,8.521-24.312,14.036c-0.233,0.133-0.459,0.274-0.7,0.404
				c-11.089,6.395-23.637,13.648-36.21,20.91c-0.225,0.12-0.458,0.259-0.684,0.396c-12.439,7.184-24.87,14.349-35.875,20.706
				c-0.225,0.138-0.442,0.267-0.675,0.388c-12.723,7.35-23.486,13.561-30.048,17.367h-0.008l-0.684-0.413
				c6.479-3.73,17.259-9.946,30.073-17.342c0.225-0.129,0.442-0.259,0.667-0.396h0.008c10.989-6.341,23.419-13.507,35.868-20.706
				c0.241-0.138,0.458-0.259,0.684-0.392c12.556-7.246,25.12-14.516,36.226-20.915c0.226-0.129,0.45-0.267,0.667-0.388
				c9.53-5.502,17.942-10.354,24.329-14.049L414.835,494.216z"/>
		</g>
		<g>
			<path fill="#121B1E" d="M378.275,473.097c-6.42,3.711-14.84,8.571-24.328,14.041c-0.233,0.142-0.459,0.274-0.7,0.392
				c-11.114,6.44-23.67,13.689-36.209,20.914c-0.225,0.134-0.458,0.271-0.675,0.388h-0.008
				c-12.481,7.212-24.904,14.391-35.876,20.723c-0.208,0.133-0.45,0.259-0.659,0.396c-12.898,7.437-23.695,13.682-30.064,17.35
				l-0.692-0.392c6.261-3.603,17.091-9.859,30.073-17.354c0.233-0.138,0.458-0.271,0.684-0.396
				c10.931-6.328,23.37-13.494,35.851-20.701c0.233-0.121,0.467-0.259,0.692-0.396c12.515-7.24,25.079-14.486,36.209-20.905h0.017
				c0.233-0.138,0.45-0.275,0.676-0.409c9.463-5.452,17.867-10.305,24.312-14.053L378.275,473.097z"/>
		</g>
		<g>
			<path fill="#121B1E" d="M341.258,451.729c-6.562,3.794-14.957,8.638-24.32,14.04c-0.233,0.142-0.458,0.275-0.7,0.408
				c-11.197,6.462-23.737,13.699-36.209,20.894c-0.225,0.142-0.458,0.267-0.692,0.413c-12.531,7.229-24.962,14.411-35.851,20.697
				c-0.234,0.125-0.451,0.263-0.676,0.396h-0.017c-13.332,7.699-24.262,14.011-30.056,17.354l-0.684-0.392
				c5.653-3.269,16.616-9.588,30.064-17.366c0.225-0.125,0.442-0.259,0.675-0.384c10.872-6.27,23.312-13.47,35.868-20.719
				c0.233-0.12,0.45-0.259,0.675-0.392c12.464-7.183,25.012-14.415,36.226-20.91c0.233-0.117,0.45-0.259,0.675-0.392
				c9.346-5.395,17.75-10.238,24.354-14.04L341.258,451.729z"/>
		</g>
		<g>
			<path fill="#121B1E" d="M304.423,430.472c-6.419,3.707-14.832,8.567-24.312,14.053c-0.225,0.121-0.442,0.242-0.675,0.393
				c-11.13,6.402-23.695,13.656-36.226,20.91c-0.225,0.133-0.458,0.267-0.692,0.392c-12.473,7.212-24.912,14.374-35.868,20.702
				c-0.233,0.133-0.458,0.274-0.675,0.392c-12.898,7.44-23.711,13.694-30.064,17.35l-0.675-0.375
				c6.253-3.627,17.083-9.871,30.056-17.366c0.233-0.134,0.45-0.259,0.684-0.393c10.947-6.315,23.378-13.498,35.868-20.701
				c0.225-0.143,0.458-0.275,0.692-0.408c12.514-7.225,25.062-14.457,36.209-20.895c0.225-0.137,0.467-0.271,0.692-0.408
				c9.463-5.461,17.875-10.313,24.329-14.04L304.423,430.472z"/>
		</g>
		<g>
			<polygon fill="#121B1E" points="373.59,583.301 372.906,583.696 353.113,572.271 352.438,571.87 316.379,551.056 
				315.712,550.668 279.819,529.95 279.136,529.554 242.81,508.577 242.793,508.577 242.118,508.173 205.975,487.313 
				205.292,486.921 181.205,473.005 181.889,472.609 205.975,486.528 206.65,486.921 242.793,507.789 243.485,508.181 
				279.819,529.157 280.478,529.554 316.379,550.272 316.387,550.272 317.054,550.668 353.113,571.491 353.789,571.887 			"/>
		</g>
		<g>
			<polygon fill="#121B1E" points="410.149,562.194 409.458,562.599 389.598,551.127 388.914,550.735 352.93,529.962 
				352.255,529.566 316.362,508.831 316.354,508.831 315.67,508.456 279.336,487.483 278.661,487.07 242.518,466.219 
				241.843,465.827 217.748,451.907 218.431,451.516 242.535,465.419 243.21,465.827 279.336,486.679 280.028,487.07 
				316.362,508.06 317.038,508.443 352.938,529.175 353.613,529.566 389.598,550.335 390.29,550.735 			"/>
		</g>
		<g>
			<polygon fill="#121B1E" points="447.051,540.893 446.358,541.28 426.433,529.783 425.749,529.392 389.823,508.656 
				389.164,508.26 353.247,487.529 352.588,487.154 352.571,487.154 316.237,466.177 315.562,465.769 279.436,444.917 
				278.744,444.524 254.641,430.605 255.341,430.214 279.436,444.116 280.111,444.524 316.237,465.377 316.938,465.769 
				353.264,486.745 353.947,487.138 389.831,507.872 390.523,508.252 426.433,528.991 427.124,529.392 			"/>
		</g>
	</g>
	<polygon fill="#728184" points="472.388,166.01 472.213,239.934 471.513,526.882 245.169,396.218 246.336,109.437 246.637,35.58 	
		"/>
	<polygon fill="#223035" points="472.213,239.934 472.171,253.907 472.171,254.691 472.104,282.921 472.104,283.692 
		472.029,309.259 472.029,310.03 471.979,335.585 471.979,336.368 471.913,361.909 471.913,362.693 471.847,388.23 471.847,389.022 
		471.779,414.577 471.779,415.344 471.721,440.898 471.713,441.682 471.654,467.228 471.654,468.011 471.579,493.549 
		471.579,494.333 471.521,519.887 471.521,520.67 471.513,526.882 457.139,518.586 456.455,518.186 432.594,504.408 431.91,504.028 
		407.924,490.181 407.239,489.788 383.27,475.94 382.586,475.548 358.6,461.7 357.924,461.3 333.93,447.451 333.254,447.063 
		309.275,433.228 308.6,432.832 284.605,418.987 283.93,418.596 259.935,404.739 259.259,404.347 245.169,396.218 245.194,389.998 
		245.194,389.223 245.303,363.686 245.303,362.919 245.411,337.39 245.411,336.605 245.528,311.077 245.528,310.293 245.611,284.78 
		245.636,283.997 245.728,258.468 245.736,257.68 245.836,232.171 245.836,231.384 245.945,205.859 245.945,205.083 
		246.053,179.563 246.053,178.771 246.161,153.267 246.161,152.475 246.287,124.277 246.287,123.485 246.336,109.437 
		259.259,116.903 259.935,117.299 283.93,131.156 284.605,131.548 308.6,145.417 309.275,145.796 333.254,159.661 333.93,160.045 
		357.924,173.914 358.6,174.293 382.586,188.154 383.27,188.546 407.239,202.398 407.924,202.791 431.91,216.656 432.594,217.043 
		456.455,230.837 457.139,231.229 	"/>
	<path fill="#121B1E" d="M472.171,254.691v-0.784l-15.032-8.671v-14.007l-0.684-0.392v13.999l-23.861-13.782v-14.011l-0.684-0.388
		v14.007l-23.986-13.849v-14.023l-0.685-0.392v14.024l-23.97-13.849v-14.028l-0.684-0.392v14.028L358.6,188.333v-14.04l-0.676-0.379
		v14.036l-23.994-13.849v-14.057l-0.676-0.384v14.049l-23.979-13.849v-14.065l-0.675-0.379v14.053l-23.995-13.853v-14.069
		l-0.675-0.392v14.069l-23.995-13.848v-14.078l-0.675-0.396v14.078l-12.973-7.495v0.792l12.973,7.495v28.264l-13.098-7.562v0.792
		l13.098,7.558v25.583l-13.207-7.637v0.792l13.207,7.629v25.575l-13.314-7.683v0.775l13.314,7.695v25.583l-13.423-7.754v0.788
		l13.423,7.75v25.575l-13.523-7.816l-0.008,0.788l13.531,7.82v25.579l-13.623-7.87l-0.025,0.783l13.648,7.871v25.583l-13.731-7.941
		v0.784l13.731,7.941v25.583l-13.848-7.996v0.784l13.848,7.995v25.592l-13.957-8.058v0.767l13.957,8.066v25.592l-14.065-8.121v0.775
		l14.065,8.121v6.228l0.675,0.393v-6.229l23.995,13.849v6.236l0.675,0.392v-6.228L308.6,426.6v6.232l0.675,0.396v-6.232
		l23.979,13.849v6.22l0.676,0.388v-6.216l23.994,13.854v6.211l0.676,0.4v-6.22l23.986,13.844v6.224l0.684,0.393v-6.22l23.97,13.836
		v6.231l0.685,0.393v-6.232l23.986,13.853v6.228l0.684,0.38v-6.22l23.861,13.786v6.211l0.684,0.4v-6.22l14.383,8.304v-0.783
		l-14.383-8.292v-25.596l14.44,8.334v-0.784l-14.44-8.337v-25.58l14.516,8.379v-0.783l-14.516-8.383V433.27l14.574,8.412
		l0.008-0.783l-14.582-8.421v-25.575l14.641,8.441v-0.767l-14.641-8.467v-25.575l14.708,8.487v-0.792l-14.708-8.479v-25.579
		l14.774,8.521v-0.784l-14.774-8.521v-25.583l14.841,8.563v-0.783l-14.841-8.571v-25.575l14.891,8.592v-0.771l-14.891-8.604v-25.596
		l14.966,8.633v-0.771l-14.966-8.637V246.02L472.171,254.691z M283.93,411.567l-23.995-13.84v-25.584l23.995,13.853V411.567z
		 M283.93,385.208l-23.995-13.852v-25.58l23.995,13.849V385.208z M283.93,358.837l-23.995-13.844v-25.579l23.995,13.849V358.837z
		 M283.93,332.479l-23.995-13.849v-25.583l23.995,13.853V332.479z M283.93,306.107l-23.995-13.849V266.68l23.995,13.853V306.107z
		 M283.93,279.74l-23.995-13.844v-25.583l23.995,13.844V279.74z M283.93,253.374l-23.995-13.84V213.95l23.995,13.844V253.374z
		 M283.93,227.011l-23.995-13.849v-25.591l23.995,13.853V227.011z M283.93,200.644l-23.995-13.844v-25.596l23.995,13.849V200.644z
		 M283.93,174.277l-23.995-13.849v-28.264l23.995,13.844V174.277z M308.6,425.812l-23.995-13.844v-25.584l23.995,13.853V425.812z
		 M308.6,399.444l-23.995-13.844v-25.584L308.6,373.87V399.444z M308.6,373.082l-23.995-13.849v-25.579l23.995,13.853V373.082z
		 M308.6,346.715l-23.995-13.845v-25.583L308.6,321.14V346.715z M308.6,320.348l-23.995-13.844v-25.579l23.995,13.849V320.348z
		 M308.6,293.985l-23.995-13.848v-25.579l23.995,13.848V293.985z M308.6,267.618l-23.995-13.845v-25.6l23.995,13.853V267.618z
		 M308.6,241.251l-23.995-13.844v-25.592l23.995,13.844V241.251z M308.6,214.884l-23.995-13.844v-25.596l23.995,13.849V214.884z
		 M308.6,188.521l-23.995-13.844v-28.272l23.995,13.848V188.521z M333.254,440.061l-23.979-13.857v-25.575l23.979,13.849V440.061z
		 M333.254,413.685l-23.979-13.84v-25.579l23.979,13.849V413.685z M333.254,387.33l-23.979-13.853v-25.583l23.979,13.853V387.33z
		 M333.254,360.955l-23.979-13.845v-25.578l23.979,13.848V360.955z M333.254,334.593l-23.979-13.854v-25.587L333.254,309V334.593z
		 M333.254,308.225l-23.979-13.848v-25.588l23.979,13.845V308.225z M333.254,281.858l-23.979-13.845v-25.596l23.979,13.849V281.858z
		 M333.254,255.491l-23.979-13.84v-25.596l23.979,13.848V255.491z M333.254,229.128l-23.979-13.865v-25.571l23.979,13.844V229.128z
		 M333.254,202.753L309.275,188.9v-28.264l23.979,13.849V202.753z M357.924,454.296l-23.994-13.848v-25.575l23.994,13.849V454.296z
		 M357.924,427.934l-23.994-13.849v-25.579l23.994,13.849V427.934z M357.924,401.57l-23.994-13.856v-25.588l23.994,13.849V401.57z
		 M357.924,375.199l-23.994-13.849v-25.587l23.994,13.845V375.199z M357.924,348.833l-23.994-13.849v-25.592l23.994,13.849V348.833z
		 M357.924,322.466l-23.994-13.849v-25.588l23.994,13.845V322.466z M357.924,296.09l-23.994-13.836v-25.587l23.994,13.844V296.09z
		 M357.924,269.723l-23.994-13.848v-25.579l23.994,13.848V269.723z M357.924,243.36l-23.994-13.853v-25.575l23.994,13.849V243.36z
		 M357.924,216.993l-23.994-13.853v-28.264l23.994,13.844V216.993z M382.586,468.541L358.6,454.688v-25.571l23.986,13.841V468.541z
		 M382.586,442.174L358.6,428.325v-25.596l23.986,13.856V442.174z M382.586,415.811L358.6,401.958v-25.592l23.986,13.849V415.811z
		 M382.586,389.444L358.6,375.591V350l23.986,13.853V389.444z M382.586,363.068l-23.986-13.84v-25.596l23.986,13.849V363.068z
		 M382.586,336.697L358.6,322.849V297.27l23.986,13.849V336.697z M382.586,310.335L358.6,296.482v-25.579l23.986,13.848V310.335z
		 M382.586,283.963L358.6,270.115v-25.579l23.986,13.848V283.963z M382.586,257.601L358.6,243.752v-25.579l23.986,13.849V257.601z
		 M382.586,231.229L358.6,217.385v-28.268l23.986,13.849V231.229z M407.239,482.785l-23.97-13.849v-25.596l23.97,13.849V482.785z
		 M407.239,456.414l-23.97-13.849v-25.592l23.97,13.853V456.414z M407.239,430.052l-23.97-13.845v-25.601l23.97,13.854V430.052z
		 M407.239,403.672l-23.97-13.849v-25.579l23.97,13.849V403.672z M407.239,377.309l-23.97-13.856v-25.575l23.97,13.849V377.309z
		 M407.239,350.938l-23.97-13.844v-25.583l23.97,13.848V350.938z M407.239,324.575l-23.97-13.849v-25.579l23.97,13.848V324.575z
		 M407.239,298.204l-23.97-13.84V258.78l23.97,13.849V298.204z M407.239,271.841l-23.97-13.853v-25.575l23.97,13.849V271.841z
		 M407.239,245.474l-23.97-13.853v-28.259l23.97,13.853V245.474z M431.91,497.025l-23.986-13.849v-25.596l23.986,13.853V497.025z
		 M431.91,470.658l-23.986-13.86v-25.58l23.986,13.85V470.658z M431.91,444.274l-23.986-13.848v-25.575l23.986,13.853V444.274z
		 M431.91,417.912l-23.986-13.849v-25.579l23.986,13.853V417.912z M431.91,391.545L407.924,377.7v-25.578l23.986,13.848V391.545z
		 M431.91,365.178l-23.986-13.844v-25.583l23.986,13.856V365.178z M431.91,338.815l-23.986-13.849v-25.579l23.986,13.844V338.815z
		 M431.91,312.448l-23.986-13.845v-25.583l23.986,13.844V312.448z M431.91,286.081l-23.986-13.844v-25.583l23.986,13.849V286.081z
		 M431.91,259.718l-23.986-13.848v-28.272l23.986,13.857V259.718z M456.455,511.199L432.594,497.4v-25.57l23.861,13.773V511.199z
		 M456.455,484.836l-23.861-13.798v-25.571l23.861,13.77V484.836z M456.455,458.452l-23.861-13.777v-25.583l23.861,13.777V458.452z
		 M456.455,432.085l-23.861-13.781v-25.579l23.861,13.782V432.085z M456.455,405.723l-23.861-13.782v-25.578l23.861,13.777V405.723z
		 M456.455,379.355l-23.861-13.786v-25.574l23.861,13.777V379.355z M456.455,352.989l-23.861-13.782v-25.575l23.861,13.777V352.989z
		 M456.455,326.622l-23.861-13.777v-25.597l23.861,13.794V326.622z M456.455,300.259l-23.861-13.777v-25.6l23.861,13.794V300.259z
		 M456.455,273.892l-23.861-13.781v-28.268l23.861,13.782V273.892z"/>
</g>
</svg>
