<?xml version="1.0" encoding="utf-8"?>
<!-- Generator: Adobe Illustrator 16.0.0, SVG Export Plug-In . SVG Version: 6.00 Build 0)  -->
<!DOCTYPE svg PUBLIC "-//W3C//DTD SVG 1.1//EN" "http://www.w3.org/Graphics/SVG/1.1/DTD/svg11.dtd">
<svg version="1.1" id="Layer_1" xmlns="http://www.w3.org/2000/svg" xmlns:xlink="http://www.w3.org/1999/xlink" x="0px" y="0px"
	 width="650px" height="650px" viewBox="0 0 650 650" enable-background="new 0 0 650 650" xml:space="preserve">
<polygon fill="#D5A484" points="414.125,500.489 414.125,500.489 414.749,500.843 "/>
<g>
	<g>
		<g enable-background="new    ">
			<g>
				<polygon fill="#9FB2B8" points="395.075,292.025 395.075,292.109 395.067,295.098 392.491,293.602 340.666,263.679 
					340.666,260.61 340.732,260.652 				"/>
			</g>
			<g>
				<polygon fill="#717F81" points="395.067,295.094 407.223,288.145 407.231,285.039 395.075,292.025 				"/>
			</g>
			<g>
				<polygon fill="#B0C6CC" points="407.206,284.956 395.051,292.025 340.641,260.61 340.707,260.573 352.788,253.553 				"/>
			</g>
		</g>
	</g>
	<g>
		<g>
			<g>
				<g enable-background="new    ">
					<g>
						<polygon fill="#D7D7D7" points="309.375,126.328 309.325,249.263 255.357,218.098 255.708,95.338 						"/>
					</g>
					<g>
						<polygon fill="#B4B4B4" points="309.375,126.328 347.303,104.635 346.952,227.394 309.325,249.263 						"/>
					</g>
					<g>
						<polygon fill="#C8C8C8" points="255.708,95.338 293.326,73.474 347.303,104.635 309.375,126.328 						"/>
					</g>
				</g>
			</g>
			<g>
				<g>
					<path fill="#E1E1E1" d="M259.351,141.031c1.509,0.88,2.727,2.989,2.718,4.728l-0.083,32.011c0,1.734-1.234,2.435-2.751,1.559
						c-1.509-0.867-2.726-2.977-2.718-4.71l0.092-32.024C256.616,140.86,257.834,140.16,259.351,141.031z"/>
				</g>
				<path fill="#BCBCBB" d="M262.569,145.346c0-0.042-0.008-0.083-0.008-0.137c0-0.038,0-0.087-0.017-0.129
					c0-0.042,0-0.092-0.008-0.133c-0.008-0.046-0.008-0.092-0.025-0.142c0-0.046-0.008-0.092-0.025-0.133
					c-0.008-0.05-0.008-0.101-0.017-0.142c-0.017-0.05-0.025-0.1-0.042-0.146c-0.008-0.046-0.025-0.096-0.033-0.142
					c-0.009-0.038-0.025-0.079-0.034-0.121c-0.008,0-0.008,0-0.008,0c0-0.008,0-0.021,0-0.029c-0.017-0.046-0.033-0.087-0.05-0.138
					s-0.034-0.092-0.05-0.142c-0.017-0.046-0.033-0.087-0.05-0.133s-0.034-0.088-0.05-0.134c-0.017-0.037-0.033-0.066-0.05-0.1
					c0,0,0,0,0-0.004s0-0.021-0.008-0.029c-0.017-0.042-0.042-0.083-0.059-0.125c-0.025-0.05-0.05-0.1-0.075-0.15
					c-0.025-0.05-0.05-0.108-0.075-0.159c-0.033-0.063-0.067-0.121-0.1-0.175c-0.008-0.013-0.017-0.017-0.017-0.025
					c-0.008-0.025-0.017-0.034-0.017-0.042c-0.075-0.108-0.142-0.225-0.208-0.325c-0.059-0.083-0.117-0.167-0.175-0.242
					c-0.042-0.058-0.075-0.108-0.125-0.163c-0.033-0.046-0.067-0.087-0.1-0.133c-0.042-0.038-0.075-0.08-0.108-0.121
					c-0.033-0.042-0.066-0.083-0.108-0.117c0-0.008-0.008-0.017-0.017-0.025c0,0-0.008-0.004-0.008-0.008
					c-0.025-0.025-0.058-0.063-0.083-0.092c-0.033-0.033-0.075-0.075-0.117-0.108c-0.033-0.033-0.083-0.075-0.117-0.112
					c-0.042-0.038-0.083-0.075-0.125-0.104c-0.017-0.017-0.042-0.033-0.058-0.05c-0.008-0.009-0.017-0.009-0.017-0.017
					c-0.008-0.009-0.025-0.021-0.05-0.038c-0.033-0.029-0.075-0.063-0.117-0.087c-0.042-0.034-0.083-0.059-0.117-0.083
					c-0.042-0.034-0.075-0.059-0.117-0.08c-0.034-0.029-0.075-0.046-0.117-0.071c-0.008-0.008-0.017-0.012-0.025-0.017
					c-0.034-0.017-0.059-0.029-0.092-0.046c-0.034-0.021-0.075-0.046-0.108-0.058c-0.034-0.021-0.075-0.038-0.108-0.054
					c-0.034-0.013-0.075-0.029-0.117-0.05c-0.033-0.017-0.067-0.021-0.1-0.037c-0.008,0-0.017-0.004-0.025-0.004
					c0,0-0.009,0-0.009-0.004c-0.025-0.004-0.05-0.012-0.075-0.029c-0.042-0.008-0.083-0.021-0.117-0.029s-0.075-0.013-0.108-0.029
					c-0.042,0-0.083-0.008-0.125-0.008c-0.025-0.008-0.05-0.013-0.075-0.013c-0.008,0-0.008,0-0.025,0c0,0-0.008-0.004-0.017-0.004
					l-0.008,0.004l0,0l0.008-0.004c-0.05-0.004-0.092-0.004-0.133-0.004c-0.05,0-0.092,0.004-0.142,0.008
					c-0.05,0-0.108,0.013-0.15,0.021h-0.008c-0.008,0-0.008,0-0.008,0c-0.067,0.017-0.117,0.034-0.175,0.05
					c-0.083,0.033-0.15,0.063-0.225,0.104l-0.492,0.284c0.125-0.067,0.258-0.121,0.4-0.15c0,0,0,0,0.008,0
					c0.142-0.029,0.3-0.038,0.458-0.021c0.009,0,0.009,0,0.009,0c0.167,0.008,0.325,0.05,0.5,0.108c0.008,0,0.017,0,0.017,0.004
					c0.175,0.059,0.358,0.138,0.55,0.25c0.184,0.113,0.367,0.238,0.542,0.379c0,0,0.008,0.004,0.008,0.017
					c0.175,0.133,0.342,0.292,0.509,0.463c0,0.004,0,0.004,0.008,0.004c0.158,0.179,0.317,0.362,0.458,0.559l0,0
					c0.142,0.196,0.275,0.396,0.4,0.604c0,0.012,0.008,0.021,0.017,0.029c0.117,0.208,0.217,0.421,0.316,0.638
					c0,0.004,0,0.004,0.009,0.012c0.091,0.221,0.175,0.446,0.242,0.667c0,0.008,0,0.008,0.008,0.008
					c0.066,0.229,0.117,0.45,0.15,0.671c0,0.004,0,0.004,0,0.008c0.033,0.229,0.059,0.45,0.05,0.667l-0.083,32.011
					c0,0.217-0.025,0.413-0.059,0.592c0,0.004,0,0.008,0,0.021c-0.033,0.171-0.091,0.329-0.158,0.479c0,0,0,0-0.008,0.008
					c-0.05,0.117-0.125,0.217-0.2,0.309c-0.025,0.042-0.05,0.067-0.083,0.1c-0.083,0.096-0.183,0.183-0.292,0.25l0.492-0.288
					c0.117-0.067,0.217-0.154,0.309-0.254c0.025-0.025,0.042-0.059,0.066-0.092c0.034-0.042,0.067-0.075,0.1-0.121
					c0.042-0.063,0.075-0.121,0.1-0.188c0,0,0.008-0.004,0.017-0.012l0,0c0.017-0.046,0.034-0.087,0.059-0.146
					c0.008-0.042,0.025-0.092,0.042-0.142c0.017-0.05,0.025-0.092,0.042-0.142c0-0.017,0-0.038,0.008-0.059c0,0,0-0.008,0-0.017
					c0.008-0.017,0.008-0.033,0.008-0.059c0.017-0.042,0.017-0.083,0.025-0.125l-0.008,0.008l0,0l0.008-0.008
					c0.008-0.05,0.017-0.092,0.017-0.133c0-0.046,0.008-0.087,0.008-0.125c0-0.05,0-0.092,0-0.133c0-0.009,0-0.009,0-0.009
					l0.092-32.02C262.569,145.425,262.569,145.388,262.569,145.346z"/>
			</g>
			<polygon fill="#C8C8C8" points="310.143,125.853 310.435,248.604 309.325,249.263 309.375,126.328 			"/>
		</g>
		<polygon fill="#E1E1E1" points="255.458,95.167 309.425,126.328 310.184,125.891 256.258,94.705 		"/>
	</g>
	<g>
		<polygon fill="#D7D7D7" points="331.061,389.665 331.17,480.384 191.301,399.628 191.301,308.921 		"/>
	</g>
	<g>
		<polygon fill="#A8A7A8" points="331.061,389.665 409.891,344.276 409.633,434.787 331.17,480.384 		"/>
	</g>
	<g>
		<polygon fill="#BBBBBB" points="191.56,309.122 270.023,263.52 409.891,344.276 331.42,389.865 		"/>
	</g>
	<g>
		<polygon fill="#E1E1E1" points="332.896,384.987 332.87,392.425 189.375,309.559 189.375,302.139 		"/>
	</g>
	<g>
		<polygon fill="#B4B4B4" points="332.896,384.987 411.351,339.395 411.351,346.911 332.87,392.425 		"/>
	</g>
	<polygon fill="#EFEEEE" points="189.375,302.139 267.847,256.533 411.351,339.395 332.896,384.987 	"/>
	<polygon fill="#E1E1E1" points="386.979,339.433 368.129,350.388 332.87,370.881 267.688,333.245 232.597,312.97 213.762,302.097 
		267.864,270.653 	"/>
	<polygon fill="#B4B4B4" points="331.103,433.937 331.103,432.327 191.301,351.792 191.301,353.218 	"/>
	<polygon fill="#B4B4B4" points="331.17,480.384 332.953,479.342 332.87,392.425 331.061,391.374 	"/>
	<g>
		<g>
			<path fill="#BCBCBB" d="M280.228,369.859c0-0.054,0-0.112,0-0.163c-0.008-0.058-0.008-0.112-0.017-0.166
				c-0.008-0.051-0.008-0.108-0.017-0.158c-0.008-0.059-0.017-0.113-0.025-0.172l0,0c0-0.008,0-0.008,0-0.012
				c-0.008-0.055-0.025-0.101-0.033-0.158c-0.008-0.059-0.017-0.117-0.033-0.167c-0.008-0.063-0.025-0.117-0.034-0.175
				c-0.017-0.059-0.033-0.117-0.05-0.176c-0.008-0.05-0.025-0.1-0.042-0.146l0,0c-0.008-0.013-0.008-0.021-0.008-0.038
				c-0.025-0.054-0.034-0.112-0.059-0.162c-0.017-0.059-0.033-0.121-0.059-0.171c-0.017-0.059-0.033-0.108-0.058-0.163
				c-0.025-0.059-0.05-0.112-0.067-0.162c-0.017-0.042-0.042-0.084-0.05-0.134c-0.008,0-0.008,0-0.008-0.008
				c0,0-0.008-0.013-0.017-0.017c-0.017-0.059-0.042-0.108-0.067-0.158c-0.025-0.063-0.05-0.121-0.083-0.18
				c-0.033-0.063-0.066-0.129-0.1-0.2c-0.042-0.075-0.091-0.146-0.125-0.221c-0.008-0.009-0.017-0.017-0.017-0.025
				c-0.008-0.017-0.008-0.021-0.017-0.033c-0.083-0.142-0.167-0.283-0.258-0.408c-0.059-0.104-0.133-0.192-0.2-0.292
				c-0.008-0.004-0.017-0.013-0.025-0.017c-0.034-0.067-0.083-0.125-0.125-0.184c-0.05-0.054-0.092-0.101-0.134-0.158
				c-0.05-0.05-0.083-0.101-0.133-0.15c-0.042-0.05-0.083-0.096-0.125-0.146c-0.05-0.046-0.092-0.096-0.142-0.143
				c-0.042-0.045-0.092-0.096-0.133-0.137c-0.059-0.046-0.1-0.092-0.15-0.134c-0.042-0.046-0.1-0.092-0.15-0.134
				c-0.025-0.024-0.05-0.05-0.083-0.066l0,0c-0.025-0.025-0.042-0.041-0.058-0.054c-0.05-0.038-0.1-0.071-0.15-0.112
				c-0.05-0.025-0.1-0.067-0.15-0.101c-0.042-0.033-0.092-0.066-0.133-0.096c-0.05-0.029-0.1-0.059-0.142-0.088
				c-0.017,0-0.025-0.009-0.033-0.017l-30.215-17.45c-0.033-0.017-0.066-0.033-0.108-0.05c-0.042-0.025-0.091-0.05-0.133-0.075
				c-0.042-0.017-0.092-0.037-0.133-0.059c-0.042-0.021-0.083-0.042-0.133-0.058c-0.05-0.018-0.092-0.034-0.133-0.051
				c-0.009-0.008-0.017-0.008-0.025-0.008c-0.008,0-0.008,0-0.017,0c-0.033-0.017-0.058-0.025-0.092-0.033
				c-0.05-0.013-0.091-0.025-0.142-0.042c-0.042-0.009-0.083-0.021-0.133-0.029c-0.05-0.013-0.1-0.021-0.142-0.029
				c-0.034,0-0.067,0-0.1-0.009c-0.008,0-0.008,0-0.017,0c-0.017,0-0.025,0-0.034,0c-0.058,0-0.108,0-0.158,0
				c-0.059,0-0.117,0-0.175,0c-0.066,0.009-0.125,0.018-0.191,0.029l0,0c-0.009,0-0.009,0-0.009,0
				c-0.075,0.018-0.15,0.038-0.216,0.067c-0.1,0.029-0.192,0.07-0.275,0.12l-1.134,0.659c0.3-0.175,0.667-0.25,1.059-0.217h0.017
				c0.2,0.021,0.4,0.067,0.625,0.142l0,0c0.217,0.066,0.442,0.176,0.667,0.301l30.215,17.449c0.225,0.125,0.442,0.279,0.659,0.451
				c0.008,0.008,0.017,0.021,0.025,0.029c0.208,0.162,0.409,0.354,0.601,0.554c0.008,0.009,0.008,0.009,0.017,0.025
				c0.4,0.417,0.75,0.892,1.042,1.4c0.008,0.017,0.008,0.025,0.017,0.033c0.15,0.25,0.275,0.517,0.392,0.775
				c0,0.009,0.008,0.009,0.008,0.009c0.117,0.275,0.217,0.546,0.3,0.813c0,0.013,0,0.021,0.009,0.021
				c0.167,0.55,0.258,1.108,0.25,1.634c0,0.259-0.025,0.496-0.067,0.713c0,0.008,0,0.013,0,0.021
				c-0.05,0.217-0.108,0.408-0.192,0.592l0,0c-0.058,0.113-0.133,0.209-0.2,0.297c-0.142,0.208-0.309,0.383-0.509,0.496l1.134-0.65
				c0.2-0.117,0.367-0.297,0.509-0.505c0.017-0.029,0.05-0.038,0.066-0.063c0.042-0.067,0.083-0.146,0.125-0.226l0,0
				c0-0.008,0-0.017,0.008-0.017c0.025-0.058,0.05-0.116,0.066-0.167c0.025-0.063,0.042-0.116,0.059-0.179
				c0.017-0.054,0.033-0.112,0.042-0.171c0.008-0.017,0.017-0.042,0.017-0.059s0.008-0.021,0.008-0.029
				c0-0.029,0.008-0.045,0.008-0.07c0.017-0.051,0.017-0.101,0.025-0.158c0.008-0.051,0.017-0.104,0.017-0.159
				c0.008-0.05,0.008-0.1,0.008-0.149c0.008-0.055,0.008-0.113,0.008-0.158c0-0.009,0-0.013,0-0.013
				C280.236,369.955,280.236,369.905,280.228,369.859z"/>
			<g>
				<path fill="#E1E1E1" d="M275.784,364.919c1.834,1.06,3.327,3.627,3.318,5.745c0,2.109-1.509,2.947-3.335,1.893l-30.215-17.446
					c-1.834-1.059-3.318-3.631-3.318-5.731c0.008-2.122,1.501-2.964,3.335-1.909L275.784,364.919z"/>
			</g>
		</g>
		<g>
			<path fill="#BCBCBB" d="M280.228,414.618c0-0.054,0-0.107,0-0.166c-0.008-0.051-0.008-0.108-0.017-0.154
				c-0.008-0.059-0.008-0.113-0.017-0.163c-0.008-0.058-0.017-0.116-0.025-0.171v-0.004c0-0.004,0-0.004,0-0.008
				c-0.008-0.051-0.025-0.104-0.033-0.15c-0.008-0.059-0.017-0.117-0.033-0.18c-0.008-0.059-0.025-0.116-0.034-0.175
				c-0.017-0.059-0.033-0.121-0.05-0.171c-0.008-0.05-0.025-0.1-0.042-0.15l0,0c-0.008-0.008-0.008-0.021-0.008-0.029
				c-0.025-0.054-0.034-0.116-0.059-0.17c-0.017-0.059-0.033-0.117-0.059-0.167c-0.017-0.059-0.033-0.113-0.058-0.163
				c-0.025-0.059-0.05-0.112-0.067-0.171c-0.017-0.037-0.042-0.083-0.05-0.125c-0.008,0-0.008,0-0.008-0.009
				c0-0.008-0.008-0.016-0.017-0.021c-0.017-0.054-0.042-0.104-0.067-0.162c-0.025-0.059-0.05-0.117-0.083-0.171
				c-0.033-0.071-0.066-0.134-0.1-0.205c-0.042-0.07-0.091-0.149-0.125-0.217c-0.008-0.008-0.017-0.024-0.017-0.024
				c-0.008-0.013-0.008-0.025-0.017-0.042c-0.083-0.133-0.167-0.267-0.258-0.4c-0.059-0.1-0.133-0.199-0.2-0.296
				c-0.008-0.004-0.017-0.008-0.025-0.013c-0.034-0.07-0.083-0.129-0.125-0.188c-0.05-0.05-0.092-0.104-0.134-0.154
				c-0.05-0.05-0.083-0.104-0.133-0.154c-0.042-0.045-0.083-0.096-0.125-0.141c-0.05-0.055-0.092-0.097-0.142-0.146
				c-0.042-0.046-0.092-0.092-0.133-0.133c-0.059-0.051-0.1-0.092-0.15-0.134c-0.042-0.046-0.1-0.092-0.15-0.134
				c-0.025-0.025-0.05-0.046-0.083-0.066c0,0,0,0,0-0.008c-0.025-0.018-0.042-0.029-0.058-0.051c-0.05-0.033-0.1-0.075-0.15-0.112
				c-0.05-0.029-0.1-0.067-0.15-0.104c-0.042-0.025-0.092-0.059-0.133-0.088c-0.05-0.028-0.1-0.054-0.142-0.087
				c-0.017-0.009-0.025-0.009-0.033-0.017l-30.215-17.45c-0.033-0.017-0.066-0.033-0.108-0.05c-0.042-0.033-0.091-0.055-0.133-0.075
				c-0.042-0.021-0.092-0.042-0.133-0.067c-0.042-0.016-0.083-0.033-0.133-0.05c-0.05-0.017-0.092-0.042-0.133-0.054
				c-0.009,0-0.017-0.004-0.025-0.004c-0.008-0.009-0.008-0.009-0.017-0.009c-0.033-0.017-0.058-0.025-0.092-0.025
				c-0.05-0.017-0.091-0.033-0.142-0.041c-0.042-0.017-0.083-0.025-0.133-0.029c-0.05-0.013-0.1-0.021-0.142-0.025
				c-0.034-0.004-0.067-0.004-0.1-0.013c-0.008,0-0.008,0-0.017,0c-0.017,0-0.025-0.008-0.034-0.008c-0.058,0-0.108,0-0.158,0
				c-0.059,0-0.117,0-0.175,0.008c-0.066,0.009-0.125,0.013-0.191,0.029l0,0c-0.009,0-0.009,0-0.009,0
				c-0.075,0.013-0.15,0.038-0.216,0.063c-0.1,0.025-0.192,0.075-0.275,0.125l-1.134,0.654c0.3-0.175,0.667-0.245,1.059-0.221
				l0.017,0.009c0.2,0.017,0.4,0.066,0.625,0.134l0,0c0.217,0.074,0.442,0.175,0.667,0.316l30.215,17.441
				c0.225,0.125,0.442,0.275,0.659,0.45c0.008,0.009,0.017,0.017,0.025,0.025c0.208,0.167,0.409,0.351,0.601,0.55
				c0.008,0.018,0.008,0.025,0.017,0.033c0.4,0.413,0.75,0.893,1.042,1.405c0.008,0.005,0.008,0.021,0.017,0.029
				c0.15,0.25,0.275,0.509,0.392,0.775c0,0.009,0.008,0.009,0.008,0.009c0.117,0.274,0.217,0.541,0.3,0.816
				c0,0.004,0,0.009,0.009,0.017c0.167,0.551,0.258,1.109,0.25,1.634c0,0.255-0.025,0.492-0.067,0.713c0,0.005,0,0.014,0,0.021
				c-0.05,0.213-0.108,0.412-0.192,0.584l0,0c-0.058,0.116-0.133,0.208-0.2,0.309c-0.142,0.199-0.309,0.379-0.509,0.491l1.134-0.65
				c0.2-0.12,0.367-0.3,0.509-0.504c0.017-0.021,0.05-0.038,0.066-0.063c0.042-0.071,0.083-0.142,0.125-0.226v-0.008
				c0,0,0,0,0.008-0.009c0.025-0.059,0.05-0.116,0.066-0.171c0.025-0.059,0.042-0.117,0.059-0.175
				c0.017-0.059,0.033-0.112,0.042-0.171c0.008-0.017,0.017-0.038,0.017-0.066c0-0.009,0.008-0.018,0.008-0.025
				c0-0.025,0.008-0.042,0.008-0.066c0.017-0.055,0.017-0.101,0.025-0.159c0.008-0.054,0.017-0.108,0.017-0.158
				c0.008-0.05,0.008-0.1,0.008-0.158c0.008-0.054,0.008-0.104,0.008-0.158v-0.009C280.236,414.719,280.236,414.669,280.228,414.618
				z"/>
			<g>
				<path fill="#E1E1E1" d="M275.784,409.683c1.834,1.059,3.327,3.623,3.318,5.744c0,2.102-1.509,2.943-3.335,1.889l-30.215-17.441
					c-1.834-1.059-3.318-3.631-3.318-5.74c0.008-2.113,1.501-2.96,3.335-1.893L275.784,409.683z"/>
			</g>
		</g>
	</g>
	<g>
		<polygon fill="#D6DEE4" points="267.864,270.653 267.688,333.245 213.762,302.097 		"/>
	</g>
	<polygon fill="#C3D2DD" points="368.129,350.388 332.87,370.881 232.597,312.97 267.839,292.484 	"/>
	<g>
		<path fill="#EFEEEE" d="M300.721,337.314c-2.943,0-5.694-0.659-7.737-1.834c-1.859-1.076-2.885-2.427-2.885-3.823
			c0-1.384,1.025-2.742,2.885-3.814c2.042-1.184,4.794-1.834,7.737-1.834c2.952,0,5.703,0.65,7.746,1.834
			c1.859,1.072,2.876,2.431,2.876,3.814c0,1.396-1.017,2.747-2.876,3.823C306.424,336.655,303.673,337.314,300.721,337.314z"/>
		<path fill="#AFC1CA" d="M310.151,331.657c0,0.479-0.217,0.976-0.625,1.463c-0.383,0.468-0.95,0.909-1.659,1.318
			c-1.867,1.083-4.402,1.68-7.145,1.68c-2.734,0-5.277-0.597-7.145-1.68c-0.7-0.409-1.268-0.851-1.651-1.318
			c-0.409-0.487-0.625-0.983-0.625-1.463c0-0.93,0.826-1.938,2.276-2.78c1.868-1.075,4.411-1.676,7.145-1.676
			c2.743,0,5.278,0.601,7.145,1.676C309.317,329.719,310.151,330.728,310.151,331.657z"/>
		<path fill="#94AAB3" d="M309.525,333.12c-0.383,0.468-0.95,0.909-1.659,1.318c-1.867,1.083-4.402,1.68-7.145,1.68
			c-2.734,0-5.277-0.597-7.145-1.68c-0.7-0.409-1.268-0.851-1.651-1.318c0.392-0.496,0.976-0.983,1.734-1.425
			c1.851-1.067,4.36-1.651,7.062-1.651c2.709,0,5.219,0.584,7.079,1.651C308.55,332.137,309.134,332.624,309.525,333.12z"/>
	</g>
	<g>
		<g>
			<path fill="#A3B0B7" d="M303.056,280.924c0,0.021,0,0.038-0.008,0.063c0,0,0,0,0,0.004c-0.008,0.021-0.025,0.029-0.033,0.054
				c0,0,0,0.004,0,0.008c-0.017,0.017-0.034,0.033-0.05,0.05c-0.017,0.013-0.033,0.021-0.05,0.038
				c-0.008,0.013-0.017,0.013-0.033,0.021l-2.802,1.626v0.4l2.802-1.625c0,0,0,0,0.008,0c0.008-0.009,0.017-0.009,0.025-0.021
				c0.017-0.008,0.033-0.021,0.05-0.034l0,0c0.017-0.021,0.025-0.033,0.042-0.046c0-0.004,0-0.004,0-0.008
				c0.008,0,0.008,0,0.008-0.004c0-0.012,0.008-0.012,0.008-0.012c0.017-0.017,0.017-0.034,0.025-0.042l0,0c0,0,0,0,0-0.004
				c0-0.013,0-0.021,0.008-0.029c0-0.009,0-0.017,0-0.029c0,0,0,0,0-0.008v-0.354v-0.038V280.924z"/>
			<path fill="#A6ABB1" d="M294.818,280.199c-0.083-0.042-0.125-0.113-0.117-0.18l-0.008,0.404c0,0.071,0.042,0.134,0.125,0.18
				l4.536,2.626v-0.408L294.818,280.199z"/>
			<g>
				<path fill="#C7CDD0" d="M302.931,280.741c0.192,0.112,0.167,0.296-0.05,0.421l-2.802,1.626
					c-0.208,0.129-0.533,0.142-0.725,0.033l-4.536-2.622c-0.184-0.104-0.158-0.296,0.05-0.421l2.81-1.618
					c0.208-0.133,0.525-0.15,0.717-0.038L302.931,280.741z"/>
			</g>
			<path fill="#707D81" d="M300.079,282.788c-0.042,0.024-0.075,0.042-0.125,0.058c-0.008,0.004-0.025,0.008-0.033,0.008
				c-0.017,0.008-0.042,0.017-0.067,0.017c-0.017,0.009-0.025,0.009-0.042,0.017c-0.008,0-0.017,0-0.017,0
				c-0.025,0-0.05,0-0.075,0.004c-0.008,0-0.008,0-0.008,0c-0.042,0-0.067,0-0.092,0c-0.008,0-0.008,0-0.008,0
				c-0.033-0.004-0.066-0.004-0.092-0.012c0,0,0,0-0.008,0c-0.025-0.009-0.05-0.017-0.066-0.025c-0.008,0-0.008,0-0.017,0
				c-0.025-0.008-0.05-0.021-0.075-0.033v0.408c0.025,0.009,0.042,0.017,0.058,0.025h0.017c0,0,0.009,0,0.009,0.008
				c0.008,0,0.017,0.008,0.025,0.008c0.025,0,0.042,0.008,0.05,0.008l0,0c0.008,0.004,0.008,0.004,0.008,0.004
				c0.017,0.004,0.025,0.004,0.034,0.004c0.017,0,0.025,0.004,0.05,0.004c0,0,0,0,0.008,0l0,0c0.017,0,0.025,0,0.033,0
				c0.017,0,0.042,0,0.059,0l0,0c0.008,0,0.008,0,0.008,0c0.017,0,0.033,0,0.05,0c0.008-0.004,0.017-0.004,0.033-0.004
				c0,0,0.008,0,0.017-0.004c0.008,0,0.017,0,0.017,0c0.008-0.004,0.017-0.004,0.025-0.013c0.025,0,0.05,0,0.067-0.017
				c0.008,0,0.008,0,0.017,0s0.008-0.009,0.017-0.009c0.05-0.012,0.083-0.029,0.125-0.058V282.788z"/>
			<path fill="#A3B0B7" d="M302.647,276.56c0,0.009,0,0.009,0,0.009c-0.009,0.017-0.017,0.029-0.025,0.046
				c-0.008,0-0.008,0.004-0.008,0.012c-0.008,0.008-0.025,0.025-0.042,0.038c-0.008,0.008-0.017,0.021-0.033,0.025
				c-0.009,0.004-0.017,0.021-0.034,0.021l-2.651,1.551l-0.017,4.135l2.66-1.542h0.008c0.008,0,0.017-0.017,0.025-0.017
				c0.009-0.008,0.025-0.017,0.034-0.033l0,0c0.017-0.009,0.025-0.017,0.042-0.025c0-0.017,0-0.017,0-0.017v-0.008
				c0.008,0,0.008-0.008,0.008-0.012c0.008-0.009,0.008-0.017,0.017-0.029c0,0,0.008,0,0.008-0.009l0,0c0-0.008,0-0.008,0-0.017
				c0-0.008,0.009-0.021,0.009-0.029v-0.004l0.008-4.144C302.655,276.53,302.647,276.547,302.647,276.56z"/>
			<path fill="#949A9F" d="M295.285,276.018c-0.1-0.05-0.15-0.125-0.15-0.204l-0.008,4.148c0,0.075,0.05,0.142,0.15,0.205
				l3.869,2.23l0.008-4.135L295.285,276.018z"/>
			<g>
				<path fill="#C7CDD0" d="M302.505,276.31c0.2,0.108,0.2,0.296,0,0.4l-2.651,1.551c-0.191,0.108-0.508,0.108-0.7,0l-3.869-2.243
					c-0.2-0.108-0.2-0.292,0-0.404l2.651-1.538c0.2-0.117,0.509-0.117,0.709,0L302.505,276.31z"/>
			</g>
			<path fill="#707D81" d="M299.854,278.261c-0.025,0.008-0.058,0.025-0.091,0.037c-0.017,0.004-0.025,0.009-0.042,0.009
				c-0.017,0.004-0.033,0.013-0.05,0.017s-0.042,0.008-0.059,0.013c-0.008,0-0.008,0-0.017,0c-0.025,0.008-0.059,0.008-0.083,0.008
				h-0.008c-0.033,0-0.058,0-0.092-0.008h-0.008c-0.025-0.004-0.058-0.009-0.083-0.017c0,0-0.008,0-0.008-0.009
				c-0.025-0.004-0.05-0.008-0.067-0.013c0-0.004-0.017-0.004-0.017-0.004c-0.025-0.008-0.05-0.025-0.075-0.033l-0.008,4.135
				c0.025,0.017,0.05,0.025,0.067,0.034v0.004c0.008,0.004,0.017,0.004,0.017,0.013c0.017,0,0.033,0.004,0.05,0.008
				c0,0.004,0.017,0.004,0.025,0.004c0,0.004,0.009,0.004,0.009,0.004c0.008,0,0.008,0,0.008,0c0.025,0.008,0.033,0.008,0.058,0.008
				c0,0,0.008,0.009,0.017,0.009h0.008c0.008,0,0.008,0,0.025,0c0.009,0,0.025,0,0.042,0h0.017h0.017c0.008,0,0.008,0,0.017,0
				c0.017,0,0.034,0,0.059,0l0,0c0.008,0,0.017,0,0.017,0c0.017-0.009,0.033-0.009,0.042-0.009s0.017,0,0.017-0.008
				c0.017,0,0.042-0.004,0.058-0.009c0.008,0,0.017,0,0.025-0.004l0.008-0.004c0.034-0.017,0.067-0.034,0.092-0.05L299.854,278.261z
				"/>
		</g>
		<g>
			<g enable-background="new    ">
				<path fill="#808D96" d="M300.321,276.005l0.008,2.764c0,0.033,0,0.063,0.017,0.091l0,0c0,0.025,0.008,0.05,0.017,0.067
					c0.008,0,0.008,0,0.008,0c0,0.025,0.008,0.037,0.025,0.054c0.008,0.004,0.008,0.012,0.008,0.012
					c0.017,0.017,0.025,0.029,0.05,0.033l-6.162-3.576c-0.025-0.013-0.033-0.021-0.05-0.034c0-0.008-0.008-0.008-0.017-0.017
					c0-0.008,0-0.008-0.008-0.021c0-0.004-0.008-0.012-0.017-0.029l0,0l0,0c0,0,0-0.017-0.008-0.017
					c-0.009-0.008-0.009-0.017-0.009-0.025s0-0.012,0-0.021v-0.004c0-0.008,0-0.008,0-0.008c-0.008,0-0.008,0-0.008,0
					c0-0.017,0-0.025-0.008-0.025c0-0.009,0-0.017,0-0.021s0-0.012,0-0.021c0,0,0-0.008,0-0.017l0,0l-0.008-2.768L300.321,276.005z"
					/>
				<path fill="#C7CDD0" d="M296.969,270.336c0,0,0.008-0.004,0.017-0.008c0,0,0.008-0.004,0.017-0.004s0.008-0.008,0.017-0.012
					c0,0,0.008-0.004,0.017-0.004s0.008-0.004,0.017-0.004l0,0l0,0c0.008,0,0.008-0.004,0.017-0.013c0,0,0.008,0,0.017,0
					c0,0,0.009,0,0.017,0c0-0.008,0.008-0.008,0.008-0.008c0.008,0,0.008,0,0.017,0h0.008l0,0c0.008,0,0.008,0,0.017,0
					s0.017,0,0.017,0c0.008,0,0.025,0,0.025,0l0,0h0.009c0.008,0.008,0.017,0.008,0.025,0.008c0.017,0.013,0.025,0.013,0.033,0.017
					c2.051,1.196,4.11,2.393,6.162,3.577c-0.017-0.009-0.042-0.009-0.059-0.013l0,0c-0.025-0.009-0.042-0.009-0.067-0.009
					c-0.008,0-0.008,0-0.008,0c-0.017,0-0.05,0.013-0.075,0.013l0,0c-0.025,0.009-0.05,0.025-0.083,0.042l-2.401,1.392l-6.161-3.585
					L296.969,270.336z"/>
				<g>
					<path fill="#6C7680" d="M300.729,275.309c-0.225,0.125-0.408,0.442-0.408,0.696l0.008,2.764c0,0.258,0.183,0.358,0.408,0.233
						l2.401-1.393c0.233-0.125,0.409-0.442,0.409-0.692l-0.009-2.768c0-0.259-0.183-0.358-0.408-0.233L300.729,275.309z"/>
				</g>
				<path fill="#A3B0B7" d="M300.571,275.435L300.571,275.435c-0.025,0.024-0.05,0.054-0.067,0.083l0,0
					c-0.025,0.029-0.042,0.059-0.058,0.092c-0.008,0-0.008,0-0.008,0.004c-0.017,0.025-0.034,0.063-0.05,0.088
					c0,0.008,0,0.008,0,0.008c-0.008,0.025-0.017,0.063-0.033,0.1l0,0c-0.008,0.033-0.017,0.066-0.025,0.092
					c0,0.008,0,0.008,0,0.008c0,0.029-0.008,0.067-0.008,0.096l-6.162-3.581c0-0.004,0-0.009,0-0.017s0-0.008,0-0.025
					c0,0,0.008-0.008,0.008-0.017c0-0.004,0-0.009,0-0.017c0-0.009,0-0.013,0-0.025c0,0,0-0.008,0-0.017
					c0.008-0.008,0.008-0.013,0.008-0.025c0.008-0.004,0.008-0.008,0.008-0.017s0-0.017,0-0.025c0,0,0-0.013,0.009-0.013
					c0,0,0,0,0-0.004l0,0c0.008-0.009,0.008-0.017,0.008-0.021s0.009-0.021,0.009-0.021c0-0.008,0.008-0.017,0.008-0.021
					c0-0.004,0.008-0.017,0.008-0.021c0,0,0-0.008,0-0.017l0,0l0,0c0-0.008,0.008-0.017,0.017-0.024c0-0.009,0-0.013,0.008-0.021
					c0.008-0.004,0.008-0.012,0.017-0.021c0-0.008,0.008-0.017,0.008-0.029c0,0,0,0,0-0.004c0,0,0.008,0,0.008-0.004
					c0.008-0.012,0.017-0.038,0.034-0.05c0.008-0.008,0.017-0.024,0.017-0.029c0.008-0.017,0.017-0.017,0.025-0.034
					c0-0.004,0.008-0.008,0.008-0.017c0.008-0.004,0.017-0.012,0.017-0.017c0.008-0.008,0.008-0.008,0.017-0.017h0.008l0,0
					c0.008-0.008,0.008-0.017,0.008-0.017c0.009-0.004,0.009-0.013,0.017-0.017c0.008-0.008,0.008-0.017,0.025-0.017
					c0.008-0.009,0.008-0.009,0.017-0.017c0-0.009,0-0.009,0-0.009c0.008,0,0.008,0,0.008,0l0.008-0.004
					c0.008-0.008,0.008-0.013,0.017-0.017c0.008,0,0.017-0.004,0.017-0.013c0.009-0.004,0.009-0.008,0.017-0.008
					s0.008-0.008,0.017-0.008l0.008-0.008l6.161,3.585c-0.033,0.008-0.058,0.034-0.083,0.059l0,0
					C300.621,275.384,300.588,275.409,300.571,275.435z"/>
			</g>
		</g>
		<g>
			<g>
				<path fill="#7E8897" d="M279.653,260.548c0,0.246,0.167,0.496,0.483,0.688c0.659,0.375,1.717,0.375,2.376,0
					c0.317-0.192,0.476-0.434,0.492-0.667v0.942l0,0c0.008,0.267-0.15,0.525-0.492,0.717c-0.659,0.384-1.717,0.384-2.376,0
					c-0.333-0.191-0.5-0.45-0.483-0.717l0,0V260.548z"/>
				<path fill="#27353B" d="M283.004,260.519v0.017C283.004,260.527,283.004,260.519,283.004,260.519L283.004,260.519z"/>
				<path fill="#5E5E5E" d="M283.004,260.569v-0.034C283.004,260.548,283.004,260.552,283.004,260.569z"/>
				<path fill="#B3B8BE" d="M279.653,260.519c0.008-0.242,0.175-0.475,0.483-0.659c0.659-0.375,1.717-0.375,2.376,0
					c0.309,0.184,0.476,0.417,0.492,0.659c0,0,0,0.008,0,0.017v0.034c-0.017,0.233-0.175,0.475-0.492,0.667
					c-0.659,0.375-1.717,0.375-2.376,0c-0.317-0.192-0.483-0.442-0.483-0.688l0,0C279.653,260.535,279.653,260.527,279.653,260.519z
					"/>
			</g>
			<g enable-background="new    ">
				<path fill="#C1C5CA" d="M297.169,252.044c0.133,0.079,0.267,0.154,0.392,0.221c0.058,0.038,0.117,0.075,0.167,0.1l0.2,0.117
					c0.1,0.059,0.2,0.117,0.3,0.175c0.1,0.059,0.191,0.108,0.283,0.163c0.142,0.087,0.259,0.2,0.351,0.333v0.004
					c0.033,0.054,0.058,0.108,0.083,0.159c0.017,0.025,0.025,0.058,0.033,0.083c0.009,0.013,0.009,0.021,0.017,0.033
					c0,0,0,0.009,0.008,0.025c0.017,0.037,0.025,0.075,0.042,0.117c0.008,0.038,0.017,0.083,0.033,0.117c0,0.008,0,0.008,0,0.017
					c0.008,0.042,0.017,0.083,0.025,0.112c0,0.013,0,0.021,0,0.029c0.008,0.013,0.008,0.029,0.008,0.042
					c0,0.017,0.008,0.029,0.008,0.05c0,0.017,0,0.033,0,0.046c0,0.021,0.008,0.033,0.008,0.054c0,0,0,0,0,0.008
					c0.008,0.029,0.008,0.05,0.008,0.071c0,0.013,0,0.021,0,0.029l0,0c0,0.033,0,0.058,0,0.083l0,0l0.058,19.359
					c0,0-1.909-1.092-1.909-1.109l0,0l-0.042-19.351c0-0.042,0-0.117-0.017-0.208c0-0.008,0-0.017,0-0.025
					c-0.008-0.033-0.008-0.075-0.017-0.117c0-0.008,0-0.025,0-0.038c-0.017-0.046-0.017-0.104-0.034-0.163
					c-0.025-0.083-0.05-0.167-0.083-0.258c0-0.009-0.009-0.017-0.009-0.021c-0.033-0.087-0.075-0.179-0.125-0.254
					c-0.092-0.129-0.2-0.25-0.342-0.329L297.169,252.044z"/>
				<path fill="#C7CDD0" d="M294.201,250.843c0.075-0.046,0.15-0.096,0.234-0.133c0.025-0.013,0.042-0.021,0.066-0.038
					c0.034-0.013,0.067-0.034,0.108-0.05c0.034-0.021,0.067-0.042,0.108-0.058c0.034-0.017,0.059-0.025,0.092-0.046
					c0.033-0.013,0.067-0.029,0.1-0.046c0.017-0.008,0.042-0.025,0.066-0.025c0.05-0.025,0.1-0.046,0.15-0.067
					c0.017-0.017,0.05-0.017,0.066-0.033c0,0,0.017,0,0.017-0.004c0.075-0.029,0.15-0.063,0.225-0.083
					c0.008-0.009,0.008-0.009,0.017-0.009c0.025-0.004,0.042-0.012,0.058-0.021c0.042-0.008,0.092-0.025,0.133-0.042
					c0.025-0.008,0.042-0.008,0.067-0.017s0.05-0.017,0.075-0.021c0.017-0.004,0.033-0.013,0.05-0.013
					c0.05-0.017,0.1-0.025,0.15-0.033c0.008-0.009,0.017-0.009,0.033-0.017c0,0,0,0,0.017,0c0.058-0.004,0.117-0.021,0.175-0.025
					c0.008,0,0.017-0.004,0.033-0.004c0.008,0,0.033,0,0.05-0.004c0.034-0.008,0.067-0.008,0.092-0.008
					c0.042-0.008,0.067-0.008,0.108-0.008c0.017,0,0.05,0,0.075,0c0.058,0,0.125,0,0.184,0.008c0.008,0,0.008,0,0.008,0
					c0.017,0,0.034,0.008,0.05,0.008c0.042,0.004,0.092,0.013,0.15,0.017c0.008,0.008,0.017,0.013,0.025,0.013
					c0.042,0.004,0.083,0.021,0.125,0.038c0.025,0,0.05,0.004,0.083,0.017c0,0.004,0.017,0.008,0.017,0.013
					c0.091,0.029,0.175,0.071,0.242,0.112l1.901,1.101c-0.067-0.042-0.15-0.075-0.242-0.117c-0.034-0.008-0.075-0.017-0.108-0.025
					c-0.042-0.017-0.075-0.025-0.117-0.034c-0.059-0.012-0.117-0.025-0.192-0.025c-0.008-0.017-0.017-0.017-0.033-0.017
					c-0.092-0.008-0.175-0.008-0.275-0.008c-0.058,0-0.125,0.008-0.191,0.025c-0.017,0-0.034,0-0.059,0
					c-0.075,0.013-0.142,0.021-0.225,0.038c-0.008,0-0.025,0-0.033,0.004c-0.067,0.017-0.134,0.029-0.2,0.042
					c-0.017,0.017-0.05,0.017-0.067,0.025c-0.066,0.025-0.133,0.038-0.2,0.059c-0.017,0.008-0.042,0.017-0.058,0.025
					c-0.083,0.029-0.175,0.058-0.267,0.1c-0.017,0.008-0.042,0.017-0.058,0.025c-0.067,0.033-0.15,0.058-0.217,0.096
					c-0.042,0.013-0.075,0.029-0.1,0.046c-0.066,0.034-0.133,0.067-0.2,0.096c-0.042,0.021-0.083,0.042-0.125,0.066
					c-0.092,0.05-0.191,0.104-0.292,0.163c-3.81,2.201-13.439,7.758-13.948,8.054l-1.901-1.101
					C280.753,258.605,290.383,253.04,294.201,250.843z"/>
				<path fill="#B3B8BE" d="M279.653,259.902c0-0.008,0-0.017,0-0.025c0-0.017,0-0.025,0-0.034s0-0.021,0-0.025
					c0-0.017,0.008-0.025,0.008-0.033c0-0.009,0-0.021,0.008-0.034c0-0.008,0-0.017,0.008-0.033c0-0.004,0-0.017,0-0.025
					c0.008-0.008,0.008-0.017,0.008-0.033c0-0.009,0.008-0.021,0.017-0.029c0-0.013,0-0.021,0.008-0.038
					c0-0.008,0-0.013,0.008-0.029c0-0.008,0-0.021,0.008-0.029c0.009-0.009,0.009-0.017,0.017-0.029c0-0.009,0-0.013,0.009-0.021
					c0.008-0.017,0.008-0.025,0.017-0.038c0-0.008,0.008-0.017,0.008-0.029c0.008-0.008,0.017-0.025,0.025-0.033
					c0.008-0.013,0.017-0.025,0.025-0.042l0,0c0-0.008,0-0.008,0-0.008c0.017-0.029,0.025-0.05,0.05-0.075
					c0.008-0.017,0.025-0.033,0.033-0.05c0.008-0.009,0.017-0.025,0.025-0.038c0.008-0.008,0.017-0.012,0.025-0.029
					c0.009-0.008,0.017-0.017,0.017-0.025c0.017-0.004,0.025-0.017,0.033-0.034c0.008,0,0.008-0.008,0.017-0.021
					c0.008-0.004,0.017-0.008,0.025-0.025c0.017-0.004,0.025-0.013,0.025-0.013c0.008-0.017,0.025-0.025,0.033-0.033
					c0-0.009,0.008-0.009,0.017-0.013l0,0c0-0.004,0.008-0.004,0.008-0.008c0.008-0.004,0.017-0.013,0.025-0.021
					s0.017-0.008,0.025-0.017c0.008-0.008,0.017-0.013,0.033-0.017c0-0.004,0.008-0.013,0.017-0.017c0,0,0,0,0.008,0l1.901,1.101
					c-0.042,0.021-0.083,0.05-0.117,0.079c0,0,0,0-0.008,0.008c-0.042,0.029-0.075,0.063-0.108,0.096v0.008
					c-0.067,0.075-0.133,0.159-0.192,0.25v0.009c-0.025,0.042-0.05,0.087-0.066,0.142l0,0c-0.025,0.042-0.05,0.096-0.059,0.142
					c0,0,0,0,0,0.004c-0.033,0.096-0.05,0.196-0.05,0.296c0,0.042,0.008,0.083,0.017,0.125c0,0,0,0,0,0.008
					c0.008,0.038,0.017,0.067,0.033,0.1l0,0c0.008,0.021,0.017,0.042,0.034,0.058c0.025,0.034,0.05,0.067,0.091,0.088
					c-0.633-0.371-1.267-0.738-1.893-1.105c-0.042-0.017-0.066-0.05-0.091-0.091c-0.009-0.004-0.017-0.004-0.017-0.004
					c-0.008-0.021-0.017-0.029-0.017-0.042l0,0c0-0.009,0-0.009,0-0.009c-0.017-0.008-0.017-0.021-0.017-0.029
					c-0.008-0.008-0.008-0.025-0.008-0.029c-0.008-0.012-0.008-0.025-0.017-0.029c0-0.008,0-0.008,0-0.017l0,0
					c0-0.008,0-0.008,0-0.017c-0.008-0.008-0.008-0.021-0.008-0.029c0-0.004,0-0.021,0-0.029c0,0,0-0.013,0-0.025
					c0-0.017,0-0.017,0-0.025v-0.008C279.653,259.918,279.653,259.914,279.653,259.902z"/>
				<g>
					<path fill="#A6ABB1" d="M282.146,260.002c-0.333,0.191-0.6,0.65-0.6,1.034c0,0.375,0.267,0.525,0.6,0.333
						c0.509-0.292,10.138-5.853,13.957-8.054c0.892-0.517,1.5-0.659,1.917-0.638c0.425,0.038,0.667,0.225,0.842,0.475
						c0.1,0.163,0.167,0.354,0.216,0.538c0.059,0.242,0.059,0.458,0.059,0.542l0.058,19.359l1.184-0.692l-0.05-19.268
						c0-0.017,0-0.05,0-0.096c0-0.179-0.008-0.555-0.125-0.963c-0.116-0.413-0.333-0.859-0.742-1.143
						c-0.267-0.191-0.625-0.304-1.076-0.292c-0.6,0.025-1.351,0.267-2.293,0.809C292.284,254.149,282.654,259.706,282.146,260.002z"
						/>
				</g>
			</g>
		</g>
		<g>
			<path fill="#C7CDD0" d="M301.163,275.317c-0.017,0-0.033-0.008-0.042-0.008h-0.008c-0.017,0-0.034,0-0.05,0l0,0
				c-0.017,0.004-0.033,0.008-0.042,0.017l2.268-1.322l0,0c0.008,0,0.008-0.004,0.008-0.004c0.008,0,0.017-0.004,0.025-0.004
				c0,0,0-0.004,0.009-0.004l0,0l0,0c0.008,0,0.017,0,0.017,0c0.008,0,0.017,0,0.025,0l0,0c0.008,0,0.008,0,0.008,0s0.008,0,0.017,0
				c0,0,0.017,0.004,0.025,0.004c0,0.004,0.008,0.004,0.008,0.004c0.009,0,0.009,0.004,0.017,0.004c0,0,0,0,0.008,0.004
				c0.017,0.008,0.025,0.017,0.042,0.025l1.734,0.996l-2.276,1.322l-1.726-1.001c-0.017-0.017-0.042-0.017-0.059-0.033
				C301.171,275.317,301.171,275.317,301.163,275.317z"/>
			<path fill="#A6ABB1" d="M303.239,280.328v-0.167l0.008-3.347l0.017-4.115l2.268-1.317l-0.017,4.11l-0.008,3.352v0.167
				c0,0.034-0.017,0.059-0.042,0.067c-0.75,0.442-1.509,0.884-2.259,1.317C303.223,280.387,303.239,280.361,303.239,280.328z"/>
			<path fill="#C7CDD0" d="M303.223,272.583L303.223,272.583c-0.008-0.017-0.025-0.033-0.042-0.046l0,0
				c-0.017-0.013-0.033-0.029-0.05-0.038c-0.008-0.012-0.008-0.017-0.017-0.017s-0.008,0-0.017,0c0-0.004-0.009-0.004-0.017-0.004
				l0,0c-0.008-0.004-0.017,0-0.017,0l0,0c-0.017,0-0.017,0.004-0.025,0.004l2.268-1.317l0,0h0.009c0,0,0.008,0,0.008-0.004h0.009
				l0,0l0,0c0,0,0,0,0.008,0l0,0c0.008,0,0.008,0,0.008,0s0,0,0.008,0l0,0c0,0,0,0,0.008,0.004h0.008l0,0
				c0.008,0,0.008,0,0.008,0.004c0.008,0,0.017,0.004,0.025,0.004c0.017,0.013,0.034,0.025,0.042,0.033c0,0.009,0,0.009,0,0.009l0,0
				c0.008,0.004,0.008,0.008,0.008,0.012c0.008,0,0.008,0.004,0.008,0.012c0.008,0.004,0.008,0.009,0.017,0.013
				c0,0.004,0,0.004,0.008,0.013l0,0l0,0c0,0,0,0,0.008,0.008v0.008c0.008,0,0.008,0.004,0.008,0.008c0,0.008,0,0.008,0,0.012
				c0.008,0.004,0.008,0.004,0.008,0.009v0.013c0,0,0,0,0,0.008c0.008,0.009,0.008,0.009,0.008,0.017c0,0,0,0.009,0.008,0.013
				c0,0.004,0,0.017,0,0.021l-2.268,1.317c0-0.017-0.017-0.042-0.017-0.059l0,0C303.239,272.625,303.231,272.604,303.223,272.583z"
				/>
			<path fill="#808D96" d="M300.946,275.48c0-0.163,0.133-0.221,0.284-0.13l1.726,1.001c0.025,0.004,0.034,0.012,0.042,0.017
				l0.008-3.818c0-0.067,0.058-0.092,0.125-0.05c0.075,0.038,0.133,0.125,0.133,0.2l-0.017,4.115l-0.008,3.347v0.167
				c0,0.071-0.067,0.101-0.125,0.059c-0.034-0.017-1.801-1.038-1.893-1.088c-0.159-0.096-0.284-0.296-0.284-0.471L300.946,275.48z"
				/>
		</g>
	</g>
	<g>
		<path fill="#2E2E51" d="M320.706,282.279c-0.2-0.108-0.292-0.259-0.292-0.417c-0.008,5.011-0.025,10.018-0.042,15.024
			c0,0.158,0.1,0.308,0.292,0.421l11.355,6.557l0.051-15.024L320.706,282.279z"/>
		<g>
			<path fill="#4F4F84" d="M338.506,285.089c0.434,0.254,0.375,0.688-0.133,0.976l-4.627,2.693
				c-0.492,0.292-1.251,0.333-1.676,0.083l-11.364-6.562c-0.425-0.246-0.367-0.684,0.133-0.967l4.627-2.701
				c0.5-0.288,1.25-0.325,1.684-0.075L338.506,285.089z"/>
			<path fill="#24223D" d="M337.581,285.539l-4.261,2.477c-0.133,0.083-0.342,0.129-0.533,0.129c-0.158,0-0.259-0.029-0.292-0.046
				l-6.304-3.635l-4.552-2.635l4.261-2.48c0.083-0.042,0.191-0.079,0.316-0.1c0.066-0.008,0.143-0.021,0.217-0.021
				c0.158,0,0.25,0.034,0.283,0.05L337.581,285.539z"/>
		</g>
		<path fill="#24223D" d="M338.799,285.51c0,0.055-0.009,0.096-0.025,0.142c0,0.009,0,0.009,0,0.009
			c-0.018,0.046-0.042,0.087-0.084,0.129c0,0.013,0,0.017,0,0.017c-0.033,0.042-0.074,0.084-0.116,0.121
			c-0.034,0.038-0.075,0.063-0.126,0.096c-0.016,0.017-0.041,0.034-0.074,0.042l-4.627,2.693c-0.084,0.058-0.192,0.096-0.292,0.133
			c-0.025,0.009-0.05,0.017-0.067,0.025c-0.066,0.012-0.116,0.033-0.175,0.042c-0.024,0-0.058,0.017-0.083,0.017
			c-0.018,0.008-0.042,0.008-0.059,0.008c-0.059,0.009-0.117,0.013-0.167,0.017c-0.008,0-0.024,0-0.033,0
			c-0.066,0.004-0.134,0.004-0.2,0c-0.008,0-0.017,0-0.025,0c-0.066-0.004-0.133-0.013-0.191-0.025c-0.008,0-0.008,0-0.025,0
			c-0.058-0.017-0.107-0.025-0.166-0.046c-0.008-0.008-0.025-0.012-0.033-0.012c-0.059-0.025-0.108-0.042-0.158-0.075l-0.051,15.024
			c0.051,0.025,0.092,0.05,0.134,0.067c0.017,0,0.024,0.004,0.033,0.008c0.009,0,0.024,0.009,0.033,0.013
			c0.017,0.004,0.034,0.004,0.05,0.021c0.042,0.008,0.075,0.012,0.109,0.021c0.008,0,0.008,0,0.016,0
			c0,0.004,0.009,0.004,0.018,0.004c0.016,0.009,0.041,0.013,0.066,0.013c0.033,0.004,0.066,0.008,0.1,0.013
			c0.009,0,0.018,0,0.025,0s0.017,0,0.025,0c0.024,0.008,0.041,0.008,0.059,0.008c0.041,0,0.082,0,0.116,0c0.009,0,0.017,0,0.024,0
			c0.018-0.008,0.025-0.008,0.033-0.008c0.025,0,0.059,0,0.084-0.004c0.033-0.004,0.059-0.008,0.084-0.012
			c0.024,0,0.041,0,0.058-0.009c0.009,0,0.017,0,0.024-0.004c0.018,0,0.043-0.009,0.059-0.013c0.059-0.008,0.117-0.025,0.167-0.042
			c0.009-0.004,0.025-0.008,0.034-0.008c0.016-0.004,0.024-0.009,0.033-0.017c0.107-0.029,0.208-0.075,0.3-0.125l4.636-2.693
			c0.008-0.008,0.008-0.008,0.017-0.017c0.017-0.013,0.033-0.025,0.058-0.042c0.042-0.024,0.084-0.054,0.117-0.091
			c0,0,0.017,0,0.017-0.008c0.034-0.025,0.067-0.059,0.083-0.096c0,0,0.009-0.004,0.018-0.004c0-0.008,0.008-0.017,0.008-0.025
			c0.017-0.017,0.025-0.033,0.033-0.05c0.018-0.025,0.025-0.046,0.042-0.075c0,0,0,0,0-0.009l0,0c0-0.021,0.017-0.042,0.017-0.058
			c0.008-0.025,0.008-0.05,0.008-0.075v-0.004l0.034-12.902l0.009-2.118C338.799,285.522,338.799,285.519,338.799,285.51z"/>
		<path fill="#2A2A49" d="M337.581,285.539l-4.261,2.477c-0.133,0.083-0.342,0.129-0.533,0.129c-0.158,0-0.259-0.029-0.292-0.046
			l-6.304-3.635c0.018-1.734,0.018-3.473,0.025-5.215c0.066-0.008,0.143-0.021,0.217-0.021c0.158,0,0.25,0.034,0.283,0.05
			L337.581,285.539z"/>
	</g>
	<g>
		<path fill="#C2C2C2" d="M425.707,504.221c-0.533-1.918-2.185-3.743-4.785-5.249c-3.535-2.047-8.288-3.168-13.365-3.168
			c-5.086,0-9.83,1.121-13.365,3.168c-2.601,1.506-4.252,3.331-4.777,5.249c-0.125,0.441-0.183,0.888-0.183,1.343
			c0,2.393,1.759,4.727,4.96,6.582c3.535,2.038,8.279,3.164,13.365,3.164c5.077,0,9.83-1.126,13.365-3.164
			c3.201-1.855,4.969-4.189,4.969-6.582C425.891,505.108,425.824,504.662,425.707,504.221z"/>
		<path fill="#D0D1DA" d="M426.174,503.671c0-0.025,0.009-0.067,0.009-0.109c0-0.479-4.169-30.623-4.169-30.623l-28.931,0.059
			c0,0-4.152,30.086-4.152,30.564c0,0.042,0.009,0.084,0.009,0.109l-0.009,0.033h0.009c0.066,2.389,1.851,4.71,5.035,6.553
			c3.594,2.08,8.413,3.227,13.582,3.227s9.988-1.146,13.581-3.227c3.193-1.843,4.97-4.164,5.036-6.553h0.009L426.174,503.671z"/>
		<path fill="#DEDDE1" d="M422.056,472.938l-0.067-0.179c-0.092-0.505-0.292-1.014-0.592-1.505l-0.783-2.026l0,0
			c0.083,0.317,0.125,0.646,0.125,0.968c0,1.726-1.259,3.409-3.568,4.735c-2.543,1.467-5.962,2.276-9.613,2.276
			s-7.07-0.81-9.613-2.276c-2.301-1.326-3.568-3.01-3.568-4.735c0-0.321,0.042-0.65,0.125-0.968l0,0l-0.908,2.234
			c-0.167,0.317-0.301,0.638-0.393,0.954v0.005l0,0c-0.1,0.351-0.142,0.713-0.142,1.075c0,1.893,1.393,3.744,3.927,5.203
			c2.793,1.617,6.554,2.51,10.572,2.51s7.778-0.893,10.571-2.51c2.535-1.459,3.928-3.311,3.928-5.203
			c0-0.184-0.009-0.371-0.042-0.559H422.056z"/>
		<path fill="#E9E9E9" d="M420.613,469.229c-0.384-1.376-1.567-2.692-3.443-3.772c-2.543-1.463-5.962-2.276-9.613-2.276
			s-7.07,0.813-9.613,2.276c-1.876,1.08-3.06,2.396-3.443,3.772c-0.083,0.317-0.125,0.646-0.125,0.968
			c0,1.726,1.268,3.409,3.568,4.735c2.543,1.467,5.962,2.276,9.613,2.276s7.07-0.81,9.613-2.276c2.31-1.326,3.568-3.01,3.568-4.735
			C420.738,469.875,420.696,469.546,420.613,469.229z"/>
		<g>
			<path fill="#323340" d="M397.66,512.666l-2.326,1.355l-0.009,1.404l2.326-1.351c0.018-0.008,0.018-0.008,0.025-0.017
				c0.05-0.029,0.108-0.066,0.142-0.1c0,0,0,0,0.009,0v-1.409C397.785,512.596,397.727,512.633,397.66,512.666z"/>
			<g>
				<path fill="#606070" d="M391.198,508.719c0.525,0.862,1.385,1.663,2.568,2.347s2.576,1.18,4.061,1.484
					c-0.042,0.046-0.101,0.083-0.167,0.116l-2.326,1.355c-0.509,0.296-1.325,0.296-1.834,0l-4.827-2.794
					c-0.518-0.291-0.518-0.762-0.009-1.054l2.335-1.359C391.057,508.776,391.124,508.748,391.198,508.719z"/>
			</g>
			<path fill="#494956" d="M395.334,514.021c-0.083,0.046-0.167,0.087-0.259,0.112c-0.033,0.008-0.066,0.021-0.1,0.029
				c-0.042,0.012-0.084,0.029-0.125,0.037c-0.059,0.009-0.108,0.013-0.158,0.021c-0.018,0-0.025,0.008-0.034,0.008
				c-0.066,0.004-0.142,0.009-0.216,0.009c-0.018,0-0.025,0-0.034,0c-0.075,0-0.149-0.005-0.217-0.009c-0.017,0-0.024,0-0.033-0.008
				c-0.075-0.009-0.142-0.013-0.208-0.029c-0.017,0-0.025-0.018-0.033-0.018c-0.067-0.012-0.125-0.033-0.184-0.049
				c-0.009-0.009-0.025-0.009-0.033-0.009c-0.067-0.029-0.134-0.059-0.2-0.096l-4.827-2.794c-0.259-0.146-0.384-0.342-0.384-0.529
				v1.401c0,0.2,0.125,0.384,0.375,0.538l4.836,2.788c0.058,0.038,0.116,0.067,0.191,0.092l0,0c0.017,0,0.033,0.009,0.042,0.013
				c0.033,0.017,0.075,0.029,0.108,0.037c0.024,0.009,0.041,0.009,0.066,0.009c0.009,0.013,0.025,0.017,0.033,0.017
				c0.017,0.004,0.025,0.004,0.033,0.013c0.042,0.008,0.092,0.013,0.134,0.021c0.017,0,0.025,0,0.042,0c0.008,0,0.024,0,0.041,0.009
				c0.009,0,0.025,0,0.042,0c0.042,0.008,0.083,0.008,0.125,0.008c0.017,0.009,0.033,0,0.042,0c0.008,0,0.017,0,0.033,0
				c0.025,0,0.033,0,0.059,0c0.041,0,0.1,0,0.142-0.008c0.008,0,0.017,0,0.017,0c0.017-0.009,0.024-0.009,0.042-0.009
				c0.033,0,0.066-0.008,0.1-0.013c0.025,0,0.033-0.008,0.059-0.017c0.041-0.004,0.075-0.021,0.125-0.029
				c0.017-0.008,0.042-0.008,0.066-0.017c0.009,0,0.025-0.013,0.033-0.013c0.092-0.029,0.176-0.066,0.25-0.112L395.334,514.021z"/>
		</g>
	</g>
	<g>
		<g>
			<g enable-background="new    ">
				<g>
					<polygon fill="#B4D5DE" points="405.78,182.797 405.48,286.006 390.323,277.252 351.195,254.653 351.479,151.461 
						371.464,162.988 					"/>
				</g>
				<g>
					<polygon fill="#A9B2B5" points="405.497,182.973 407.132,182.014 407.206,285.006 405.497,286.006 					"/>
				</g>
				<g>
					<polygon fill="#BCC6CA" points="351.479,151.461 352.93,150.624 407.132,182.014 405.497,182.973 					"/>
				</g>
			</g>
		</g>
		<path opacity="0.38" fill="#CEE7EE" d="M405.497,182.973l-0.017,103.033l-15.157-8.754c-5.261-31.774-14.99-90.481-18.859-114.264
			L405.497,182.973z"/>
	</g>
	<g>
		<g enable-background="new    ">
			<g>
				<polygon fill="#A5A5A5" points="394.792,156.885 397.26,159.236 392.324,162.079 				"/>
			</g>
			<g>
				<polygon fill="#C2C2C2" points="392.324,162.079 369.238,148.673 371.697,143.466 394.792,156.885 				"/>
			</g>
		</g>
	</g>
	<g>
		<path fill="#E9ABB2" d="M359.517,310.843c0,1.014-0.742,2.002-2.093,2.776c-1.492,0.867-3.493,1.343-5.645,1.343
			c-1.551,0-3.035-0.259-4.311-0.721c-0.475-0.18-0.917-0.38-1.325-0.622c-0.476-0.267-0.876-0.571-1.192-0.888
			c-0.592-0.588-0.9-1.229-0.9-1.889c0-0.096,0.008-0.191,0.025-0.274l0,0l1.167-14.091l0,0c0.017,0.709,0.458,1.393,1.251,1.977
			c0.158,0.116,0.333,0.229,0.524,0.333c0.634,0.375,1.384,0.659,2.201,0.851c0.801,0.188,1.667,0.283,2.56,0.283
			c1.817,0,3.51-0.4,4.777-1.134c1.134-0.65,1.76-1.484,1.76-2.343l1.184,14.124h-0.009
			C359.508,310.651,359.517,310.747,359.517,310.843z"/>
		<path fill="#FBD0D6" d="M356.557,294.098c-1.268-0.729-2.96-1.13-4.777-1.13c-1.809,0-3.502,0.4-4.761,1.13
			c-1.142,0.658-1.775,1.496-1.775,2.347c0,0.013,0,0.025,0,0.033c0.024,0.847,0.649,1.668,1.775,2.31
			c1.259,0.734,2.952,1.134,4.761,1.134c1.817,0,3.51-0.4,4.777-1.134c1.134-0.65,1.76-1.484,1.76-2.343
			C358.316,295.594,357.69,294.756,356.557,294.098z"/>
		<g>
			<g>
				<path fill="#979796" d="M353.938,293.56c-0.017,0.267-0.225,0.534-0.583,0.746c-0.417,0.238-0.976,0.371-1.576,0.371
					c-0.584,0-1.15-0.133-1.567-0.371c-0.375-0.221-0.583-0.496-0.583-0.779v1.942h0.008c0.025,0.263,0.225,0.517,0.575,0.722
					c0.417,0.237,0.983,0.371,1.567,0.371c0.601,0,1.159-0.134,1.576-0.371c0.35-0.205,0.55-0.459,0.575-0.722h0.008v-0.033
					c0,0,0-0.013,0-0.021c0-0.013,0-0.013,0-0.021V293.56z"/>
				<path fill="#BDBDBD" d="M353.355,292.759c-0.417-0.242-0.976-0.375-1.576-0.375c-0.584,0-1.15,0.133-1.567,0.375
					c-0.375,0.217-0.583,0.488-0.583,0.767c0,0.283,0.208,0.559,0.583,0.779c0.417,0.238,0.983,0.371,1.567,0.371
					c0.601,0,1.159-0.133,1.576-0.371c0.358-0.212,0.566-0.479,0.583-0.746c0-0.017,0-0.017,0-0.033
					C353.938,293.247,353.73,292.976,353.355,292.759z"/>
			</g>
			<path fill="#908F8F" d="M352.988,291.175h-2.409v1.651l0,0c0,0.017,0,0.021,0,0.033c0,0.158,0.116,0.317,0.325,0.442
				c0.233,0.125,0.55,0.2,0.875,0.2c0.342,0,0.65-0.075,0.884-0.2c0.209-0.125,0.325-0.284,0.325-0.442c0-0.013,0-0.017,0-0.033l0,0
				V291.175z"/>
			<g>
				<path fill="#AFAFAF" d="M352.98,289.133c-0.325,0.183-0.742,0.283-1.201,0.283c-0.45,0-0.867-0.1-1.191-0.283
					c-0.284-0.159-0.442-0.375-0.442-0.588v2.146l0,0c0.017,0.205,0.167,0.4,0.442,0.559c0.324,0.192,0.741,0.284,1.191,0.284
					c0.459,0,0.876-0.091,1.201-0.284c0.267-0.158,0.425-0.354,0.433-0.559h0.009v-2.146
					C353.422,288.757,353.264,288.974,352.98,289.133z"/>
				<path fill="#CFD0D0" d="M352.98,287.957c-0.325-0.184-0.742-0.283-1.201-0.283c-0.45,0-0.867,0.1-1.191,0.283
					c-0.284,0.167-0.442,0.375-0.442,0.588c0,0.212,0.158,0.429,0.442,0.588c0.324,0.183,0.741,0.283,1.191,0.283
					c0.459,0,0.876-0.1,1.201-0.283c0.283-0.159,0.441-0.375,0.441-0.588C353.422,288.332,353.264,288.124,352.98,287.957z"/>
			</g>
		</g>
		<g>
			<path fill="#818181" d="M347.586,291.45c0.066,0.038,0.142,0.113,0.191,0.2c0.059,0.096,0.084,0.2,0.084,0.279
				s-0.025,0.138-0.067,0.158l3.136-1.813c0.041-0.021,0.066-0.075,0.066-0.15c0-0.092-0.033-0.192-0.084-0.279
				c-0.05-0.096-0.125-0.171-0.199-0.209c-0.067-0.042-0.125-0.046-0.168-0.021l-3.135,1.809
				C347.452,291.4,347.511,291.404,347.586,291.45z"/>
			<path fill="#B4B4B4" d="M347.344,291.584c0,0.083,0.025,0.183,0.084,0.279c0.05,0.087,0.116,0.162,0.191,0.204
				c0.066,0.042,0.133,0.05,0.175,0.021c0.042-0.021,0.067-0.079,0.067-0.158s-0.025-0.184-0.084-0.279
				c-0.05-0.087-0.125-0.163-0.191-0.2c-0.075-0.046-0.134-0.05-0.176-0.025C347.369,291.45,347.344,291.509,347.344,291.584z"/>
		</g>
		<path opacity="0.23" fill="#FBD0D6" d="M349.22,299.638l-1.751,14.604c-0.475-0.18-0.917-0.38-1.325-0.622
			c-0.476-0.267-0.876-0.571-1.192-0.888l1.543-14.277c0.158,0.116,0.333,0.229,0.524,0.333
			C347.652,299.162,348.402,299.446,349.22,299.638z"/>
	</g>
	<g>
		<g>
			<path fill="#A3B0B7" d="M374.599,322.086c0,0.021-0.008,0.038-0.008,0.067l0,0c-0.017,0.016-0.025,0.028-0.042,0.054
				c0,0,0,0,0,0.009c-0.017,0.012-0.033,0.033-0.042,0.05c-0.017,0.013-0.033,0.021-0.058,0.037
				c-0.009,0.005-0.017,0.013-0.034,0.021l-2.793,1.626v0.409l2.793-1.635c0,0,0,0,0.009,0s0.017-0.008,0.025-0.024
				c0.017-0.005,0.041-0.017,0.05-0.034c0.008,0,0.008,0,0.008,0c0.009-0.016,0.025-0.024,0.033-0.041c0,0,0.009,0,0.009-0.009
				c0,0,0,0,0-0.008c0.009-0.009,0.017-0.009,0.017-0.017c0.009-0.009,0.017-0.025,0.025-0.033l0,0c0,0,0,0,0-0.005
				c0-0.008,0-0.017,0-0.028c0.008-0.009,0.008-0.018,0.008-0.029c0,0,0,0,0-0.009v-0.354v-0.037V322.086z"/>
			<path fill="#A6ABB1" d="M366.361,321.36c-0.083-0.041-0.133-0.112-0.125-0.179l-0.008,0.4c0,0.075,0.041,0.142,0.125,0.188
				l4.544,2.622v-0.408L366.361,321.36z"/>
			<g>
				<path fill="#C7CDD0" d="M374.474,321.907c0.184,0.1,0.158,0.291-0.059,0.416l-2.793,1.626c-0.217,0.126-0.542,0.142-0.725,0.034
					l-4.536-2.623c-0.191-0.104-0.167-0.296,0.05-0.412l2.793-1.635c0.226-0.12,0.542-0.133,0.726-0.024L374.474,321.907z"/>
			</g>
			<path fill="#707D81" d="M371.622,323.949c-0.041,0.025-0.083,0.042-0.125,0.059c-0.017,0-0.024,0.009-0.033,0.009
				c-0.024,0.008-0.05,0.017-0.066,0.017s-0.033,0.008-0.042,0.008c-0.008,0-0.017,0-0.024,0c-0.025,0.009-0.051,0.009-0.075,0.009
				c0,0.004,0,0.004-0.009,0.004c-0.033,0-0.059,0-0.092-0.004c0,0,0,0-0.008,0c-0.033,0-0.067-0.009-0.084-0.009h-0.008
				c-0.033-0.008-0.059-0.017-0.075-0.024c0,0-0.009,0-0.017,0c-0.025-0.009-0.042-0.021-0.066-0.033v0.408
				c0.017,0.008,0.041,0.017,0.058,0.025h0.009c0,0,0.008,0,0.017,0.008c0.009,0,0.017,0.008,0.017,0.008
				c0.025,0.005,0.042,0.005,0.05,0.009c0,0,0,0,0.009,0c0,0,0,0,0.008,0c0,0.009,0.017,0.009,0.033,0.013
				c0.009,0,0.025,0,0.042,0.004c0,0,0,0,0.009,0c0.008,0,0.008,0,0.008,0c0.009,0,0.017,0,0.033,0c0.009,0,0.034,0,0.051,0
				c0,0,0,0,0.008,0h0.009c0.008,0,0.024,0,0.041-0.004c0.009,0,0.025,0,0.034-0.004c0.008,0,0.008,0,0.024,0l0.009-0.009
				c0.017,0,0.017-0.004,0.033-0.004c0.017-0.005,0.042-0.005,0.059-0.021c0.008,0,0.017,0,0.017,0c0.008,0,0.017,0,0.024-0.009
				c0.042-0.013,0.084-0.029,0.125-0.05V323.949z"/>
			<path fill="#A3B0B7" d="M374.182,317.722c0,0.008,0,0.008,0,0.008c-0.008,0.018-0.008,0.029-0.017,0.046
				c-0.008,0-0.017,0.005-0.017,0.013c0,0.009-0.017,0.025-0.033,0.037c-0.008,0.009-0.025,0.021-0.033,0.029
				c-0.009,0-0.025,0.018-0.033,0.018l-2.651,1.551l-0.017,4.135l2.651-1.543h0.008c0.009-0.008,0.017-0.016,0.025-0.016
				c0.008-0.009,0.024-0.018,0.042-0.029v-0.004c0.008-0.009,0.024-0.021,0.033-0.034c0-0.008,0-0.008,0-0.008
				c0.008,0,0.008,0,0.008-0.009c0,0,0,0,0.009-0.008c0.008-0.013,0.008-0.025,0.017-0.029v-0.004c0,0,0,0,0-0.009
				c0,0,0-0.009,0-0.017c0-0.009,0.008-0.021,0.008-0.029v-0.004l0.017-4.145C374.198,317.692,374.19,317.709,374.182,317.722z"/>
			<path fill="#949A9F" d="M366.82,317.188c-0.092-0.059-0.142-0.134-0.142-0.209l-0.009,4.144c0,0.075,0.042,0.142,0.142,0.2
				l3.869,2.234l0.008-4.135L366.82,317.188z"/>
			<g>
				<path fill="#C7CDD0" d="M374.04,317.472c0.209,0.108,0.209,0.287,0.009,0.4l-2.651,1.551c-0.2,0.107-0.517,0.107-0.709,0
					l-3.868-2.234c-0.192-0.117-0.192-0.301,0-0.413l2.651-1.538c0.2-0.117,0.508-0.117,0.708,0L374.04,317.472z"/>
			</g>
			<path fill="#707D81" d="M371.397,319.423c-0.033,0.008-0.066,0.024-0.101,0.041c-0.017,0.004-0.033,0.004-0.033,0.009
				c-0.024,0.004-0.041,0.013-0.058,0.017c-0.009,0-0.042,0-0.059,0.008c-0.009,0-0.009,0-0.017,0
				c-0.025,0.009-0.051,0.009-0.084,0.009h-0.008c-0.025,0-0.05,0-0.084-0.009c-0.008,0-0.008,0-0.017,0
				c-0.024-0.008-0.058-0.008-0.075-0.012c0,0-0.008-0.009-0.017-0.009c-0.024-0.004-0.041-0.009-0.066-0.025
				c-0.008,0-0.008,0-0.017,0c-0.025-0.004-0.05-0.021-0.075-0.028l-0.008,4.135c0.024,0.017,0.05,0.025,0.074,0.037l0,0
				c0,0,0.009,0,0.009,0.005c0.017,0.004,0.033,0.013,0.05,0.017c0.009,0,0.009,0,0.025,0c0,0.008,0.008,0.008,0.008,0.008
				c0.009,0,0.017,0.009,0.017,0.009c0.018,0,0.034,0,0.051,0c0.008,0.009,0.008,0.009,0.017,0.009c0.008,0,0.008,0,0.008,0
				c0.009,0,0.017,0,0.025,0c0.017,0,0.033,0,0.05,0h0.009h0.017c0.008,0,0.017,0,0.024,0c0.017,0,0.033,0,0.051,0
				c0.008,0,0.008,0,0.008,0s0.009,0,0.017,0c0.017-0.009,0.025-0.009,0.042-0.009c0.008,0,0.017,0,0.017,0
				c0.017-0.009,0.033-0.017,0.059-0.017c0-0.004,0.008-0.004,0.008-0.004c0.009-0.009,0.017-0.009,0.017-0.009
				c0.042-0.013,0.075-0.021,0.101-0.046L371.397,319.423z"/>
		</g>
		<g>
			<g enable-background="new    ">
				<path fill="#808D96" d="M371.855,317.171l0.017,2.76c0,0.033,0,0.063,0,0.092l0,0c0.009,0.029,0.018,0.051,0.034,0.075l0,0
					c0.008,0.013,0.017,0.029,0.024,0.042c0.009,0.008,0.009,0.008,0.009,0.017c0.017,0.017,0.033,0.029,0.042,0.033l-6.153-3.577
					c-0.017-0.008-0.033-0.021-0.05-0.037c0-0.004,0-0.013-0.009-0.013c-0.009-0.009-0.009-0.009-0.017-0.017
					c0-0.008-0.009-0.021-0.017-0.029l0,0l0,0c0-0.008,0-0.013-0.009-0.021c0-0.017-0.008-0.017-0.008-0.025
					c0-0.008,0-0.013,0-0.017s0-0.004,0-0.013c0-0.004,0-0.004,0-0.004c-0.009,0-0.009,0-0.009,0c0-0.017,0-0.017,0-0.024
					c0-0.009,0-0.018,0-0.021c0-0.008,0-0.013,0-0.021c0-0.009,0-0.009,0-0.017l0,0l-0.017-2.769L371.855,317.171z"/>
				<path fill="#C7CDD0" d="M368.513,311.493h0.008c0.009-0.004,0.009-0.008,0.018-0.008c0.008,0,0.008-0.009,0.017-0.013
					c0.008,0,0.017-0.004,0.017-0.004c0.008-0.005,0.008-0.005,0.017-0.005c0-0.008,0-0.008,0-0.008l0,0c0.008,0,0.017,0,0.017,0
					s0.008-0.004,0.017-0.004c0,0,0.008,0,0.017,0c0,0,0.008,0,0.017,0s0.009,0,0.017,0l0,0v-0.009c0.009,0,0.017,0,0.025,0
					c0.008,0,0.008,0,0.017,0.009c0.008,0,0.017,0,0.024,0l0,0l0,0c0.009,0,0.025,0,0.034,0c0,0.004,0.017,0.012,0.024,0.017
					c2.051,1.196,4.11,2.393,6.161,3.576c-0.024-0.008-0.041-0.008-0.058-0.017l0,0c-0.018-0.004-0.042-0.004-0.067-0.004h-0.008
					c-0.017,0.004-0.042,0.013-0.075,0.013l0,0c-0.017,0.008-0.05,0.024-0.075,0.042l-2.418,1.392l-6.152-3.585L368.513,311.493z"/>
				<g>
					<path fill="#6C7680" d="M372.256,316.471c-0.217,0.13-0.4,0.442-0.4,0.7l0.017,2.76c0,0.259,0.176,0.358,0.4,0.233l2.41-1.392
						c0.225-0.125,0.399-0.434,0.399-0.696l-0.008-2.765c0-0.258-0.184-0.362-0.4-0.232L372.256,316.471z"/>
				</g>
				<path fill="#A3B0B7" d="M372.114,316.596L372.114,316.596c-0.033,0.025-0.059,0.055-0.075,0.084l0,0
					c-0.024,0.028-0.041,0.058-0.058,0.091l0,0c-0.018,0.034-0.042,0.063-0.051,0.092c0,0.009,0,0.009,0,0.009
					c-0.017,0.029-0.024,0.059-0.041,0.096l0,0c-0.009,0.038-0.018,0.071-0.018,0.096c0,0.009,0,0.009,0,0.009
					c-0.008,0.029-0.017,0.066-0.017,0.1l-6.161-3.585c0-0.004,0-0.008,0-0.017c0-0.008,0-0.008,0-0.017s0.009-0.017,0.009-0.024
					c0-0.009,0-0.009,0-0.021c0-0.004,0-0.008,0.008-0.021v-0.017c0-0.009,0-0.009,0-0.021c0.009-0.004,0.009-0.021,0.009-0.024
					c0,0,0-0.013,0.008-0.021c0,0,0-0.009,0-0.014c0,0,0,0,0.009-0.004v-0.004c0-0.008,0-0.013,0-0.017
					c0-0.009,0.008-0.013,0.017-0.021c0-0.009,0-0.018,0-0.018c0.008-0.016,0.008-0.021,0.008-0.024s0-0.009,0-0.017l0,0h0.009
					c0-0.009,0.009-0.017,0.009-0.025c0,0,0.008-0.012,0.017-0.021c0-0.009,0-0.013,0.008-0.021
					c0.009-0.009,0.009-0.018,0.017-0.029c0,0,0,0,0-0.004c0,0,0,0,0-0.005c0.009-0.017,0.017-0.029,0.033-0.054
					c0-0.004,0.018-0.021,0.025-0.029c0.009-0.013,0.009-0.013,0.017-0.029c0,0,0.009-0.009,0.017-0.009
					c0-0.017,0.009-0.021,0.017-0.028c0,0,0.009-0.005,0.009-0.013c0.008-0.009,0.008-0.009,0.008-0.009l0,0
					c0.009,0,0.009-0.008,0.009-0.008c0.008-0.009,0.017-0.013,0.024-0.018c0-0.004,0.009-0.012,0.018-0.016
					c0-0.005,0.017-0.009,0.017-0.018c0-0.008,0.008-0.008,0.008-0.008h0.009v-0.009c0.008-0.004,0.008-0.008,0.017-0.013
					c0.008,0,0.017-0.008,0.017-0.012c0.008-0.004,0.017-0.009,0.017-0.009c0.009-0.004,0.017-0.009,0.017-0.017h0.009l6.152,3.585
					c-0.017,0.009-0.041,0.033-0.075,0.055l0,0C372.156,316.546,372.131,316.571,372.114,316.596z"/>
			</g>
		</g>
		<g>
			<g>
				<path fill="#7E8897" d="M351.195,301.705c0,0.25,0.159,0.5,0.476,0.692c0.659,0.375,1.726,0.375,2.376,0
					c0.317-0.184,0.483-0.434,0.492-0.671v0.946l0,0c0.017,0.267-0.15,0.525-0.492,0.725c-0.65,0.367-1.717,0.367-2.376,0
					c-0.333-0.2-0.491-0.458-0.476-0.725l0,0V301.705z"/>
				<polygon fill="#27353B" points="354.539,301.681 354.539,301.693 354.539,301.681 				"/>
				<path fill="#5E5E5E" d="M354.539,301.727v-0.034C354.539,301.701,354.539,301.718,354.539,301.727z"/>
				<path fill="#B3B8BE" d="M351.195,301.681c0.009-0.238,0.167-0.476,0.476-0.659c0.659-0.375,1.726-0.375,2.376,0
					c0.317,0.184,0.476,0.421,0.492,0.659c0,0,0,0.008,0,0.012v0.034c-0.009,0.237-0.175,0.487-0.492,0.671
					c-0.65,0.375-1.717,0.375-2.376,0c-0.316-0.192-0.476-0.442-0.476-0.692l0,0C351.195,301.697,351.195,301.688,351.195,301.681z"
					/>
			</g>
			<g enable-background="new    ">
				<path fill="#C1C5CA" d="M368.704,293.205c0.142,0.08,0.267,0.154,0.393,0.221c0.058,0.038,0.116,0.075,0.166,0.1l0.2,0.117
					c0.101,0.058,0.2,0.117,0.3,0.175c0.101,0.058,0.192,0.116,0.284,0.167c0.149,0.083,0.258,0.196,0.35,0.33
					c0,0.004,0,0.004,0.009,0.004c0.025,0.054,0.059,0.104,0.075,0.158c0.017,0.029,0.024,0.059,0.041,0.084
					c0,0.012,0.009,0.017,0.017,0.033c0,0.008,0,0.008,0,0.021c0.018,0.038,0.034,0.083,0.042,0.121
					c0.017,0.038,0.025,0.079,0.025,0.117c0,0,0.008,0.008,0.008,0.017c0.009,0.038,0.017,0.075,0.025,0.117
					c0,0.008,0,0.017,0,0.025c0.009,0.012,0.009,0.029,0.009,0.042c0,0.025,0.008,0.033,0.008,0.05
					c0.009,0.017,0.009,0.034,0.009,0.042c0,0.029,0,0.034,0,0.05c0.008,0.008,0.008,0.008,0.008,0.017c0,0.025,0,0.05,0,0.071
					c0,0.013,0,0.021,0,0.029l0,0c0,0.029,0,0.059,0,0.083l0,0l0.059,19.355c0,0-1.901-1.088-1.901-1.101l0,0l-0.05-19.363
					c0-0.038-0.008-0.108-0.008-0.2c0-0.008,0-0.017,0-0.025c-0.009-0.034-0.009-0.075-0.017-0.117
					c-0.009-0.009-0.009-0.021-0.009-0.038c-0.009-0.046-0.025-0.104-0.033-0.154c-0.017-0.091-0.042-0.183-0.084-0.267
					c0-0.008-0.008-0.017-0.008-0.021c-0.033-0.096-0.075-0.179-0.125-0.254c-0.092-0.133-0.192-0.242-0.342-0.325L368.704,293.205z
					"/>
				<path fill="#C7CDD0" d="M365.736,292.005c0.083-0.046,0.158-0.088,0.233-0.134c0.025-0.012,0.042-0.021,0.059-0.029
					c0.041-0.021,0.083-0.042,0.116-0.058c0.033-0.021,0.075-0.042,0.108-0.059s0.066-0.025,0.092-0.046
					c0.033-0.013,0.066-0.029,0.108-0.046c0.017-0.008,0.033-0.025,0.059-0.029c0.05-0.021,0.1-0.042,0.15-0.063
					c0.024-0.008,0.05-0.025,0.066-0.033c0.008,0,0.017-0.008,0.024-0.008c0.067-0.029,0.143-0.058,0.217-0.08
					c0.009-0.008,0.018-0.008,0.025-0.008c0.017-0.009,0.033-0.013,0.059-0.021c0.033-0.008,0.083-0.025,0.125-0.042
					c0.025-0.004,0.042-0.009,0.066-0.017c0.025-0.009,0.05-0.017,0.075-0.025c0.017,0,0.033-0.004,0.05-0.013
					c0.059-0.012,0.101-0.021,0.158-0.029c0,0,0.018-0.008,0.025-0.008l0.009-0.009c0.066-0.008,0.125-0.021,0.183-0.024
					c0.009,0,0.025-0.004,0.025-0.004c0.025,0,0.042-0.008,0.066-0.008c0.025-0.004,0.059-0.004,0.084-0.004
					c0.033,0,0.066-0.008,0.1-0.008s0.059,0,0.084,0c0.066,0,0.125,0,0.183,0.008c0.009,0,0.009,0,0.017,0
					c0.009,0,0.025,0.004,0.042,0.004c0.042,0.008,0.101,0.013,0.15,0.021c0.008,0.009,0.017,0.017,0.033,0.017
					c0.042,0,0.075,0.017,0.116,0.025c0.025,0.008,0.059,0.017,0.075,0.021c0.017,0.009,0.025,0.013,0.034,0.013
					c0.083,0.038,0.166,0.075,0.241,0.117l1.901,1.101c-0.075-0.042-0.159-0.075-0.25-0.113c-0.034-0.012-0.067-0.021-0.109-0.029
					c-0.033-0.017-0.074-0.025-0.116-0.034c-0.059-0.012-0.117-0.024-0.184-0.033c-0.017,0-0.024-0.008-0.033-0.008
					c-0.1,0-0.184-0.008-0.283,0c-0.059,0-0.117,0-0.192,0.008c-0.017,0.004-0.033,0.004-0.05,0.009
					c-0.075,0.012-0.15,0.021-0.225,0.033c-0.017,0-0.025,0.008-0.034,0.008c-0.074,0.017-0.133,0.034-0.199,0.046
					c-0.025,0.013-0.051,0.013-0.075,0.021c-0.059,0.017-0.125,0.038-0.2,0.067c-0.017,0-0.042,0.008-0.059,0.017
					c-0.083,0.029-0.175,0.059-0.267,0.096c-0.017,0.004-0.042,0.021-0.05,0.029c-0.075,0.025-0.15,0.059-0.226,0.096
					c-0.033,0.013-0.066,0.029-0.1,0.046c-0.067,0.033-0.134,0.063-0.192,0.101c-0.05,0.017-0.083,0.037-0.133,0.058
					c-0.092,0.054-0.192,0.104-0.292,0.167c-3.811,2.201-13.44,7.758-13.948,8.054l-1.901-1.104
					C352.288,299.763,361.918,294.21,365.736,292.005z"/>
				<path fill="#B3B8BE" d="M351.195,301.063c0-0.008,0-0.021,0-0.025c0-0.017,0-0.017,0-0.033c0-0.008,0-0.021,0-0.029
					c0-0.012,0-0.021,0.009-0.029c0-0.008,0-0.021,0.009-0.029c0-0.012,0-0.021,0-0.038c0-0.008,0-0.017,0.008-0.025
					c0-0.012,0-0.017,0-0.034c0.008-0.008,0.008-0.021,0.017-0.033c0-0.008,0.009-0.017,0.009-0.033
					c0.008-0.008,0.008-0.017,0.008-0.025c0.009-0.008,0.009-0.017,0.009-0.034c0.008-0.008,0.017-0.017,0.017-0.029
					c0-0.008,0-0.013,0.017-0.021c0-0.008,0-0.025,0.008-0.038c0.009-0.008,0.009-0.021,0.018-0.029
					c0.008-0.009,0.008-0.025,0.017-0.034c0.008-0.017,0.017-0.029,0.024-0.042l0,0c0-0.009,0-0.009,0-0.009
					c0.017-0.029,0.033-0.05,0.051-0.075c0.017-0.017,0.024-0.038,0.041-0.05c0-0.008,0.009-0.024,0.017-0.033
					c0.009-0.013,0.025-0.021,0.025-0.033c0.008-0.008,0.017-0.017,0.024-0.025c0.009-0.004,0.018-0.017,0.018-0.025
					c0.017-0.009,0.024-0.017,0.033-0.033c0.008,0,0.017-0.013,0.024-0.017c0.009-0.008,0.017-0.017,0.025-0.025
					s0.017-0.017,0.025-0.025c0.008-0.004,0.008-0.008,0.017-0.008l0,0c0-0.004,0.008-0.009,0.008-0.017
					c0.009-0.004,0.017-0.009,0.025-0.017c0.017-0.009,0.024-0.009,0.033-0.025c0.008,0,0.008-0.004,0.025-0.008
					c0-0.008,0.017-0.012,0.024-0.017c0,0,0,0,0-0.004l1.901,1.104c-0.042,0.021-0.075,0.05-0.117,0.08c0,0.004,0,0.004-0.008,0.004
					c-0.042,0.033-0.067,0.066-0.108,0.108l0,0c-0.075,0.066-0.134,0.158-0.192,0.25v0.008c-0.024,0.042-0.05,0.087-0.066,0.142
					c0,0,0,0-0.009,0c-0.008,0.042-0.033,0.087-0.05,0.142c0,0,0,0,0,0.004c-0.024,0.096-0.041,0.196-0.041,0.296
					c0,0.046,0,0.083,0.008,0.125l0,0c0.009,0.042,0.017,0.075,0.033,0.108l0,0c0.017,0.025,0.025,0.042,0.042,0.059
					c0.017,0.033,0.05,0.066,0.083,0.087c-0.625-0.371-1.259-0.738-1.893-1.113c-0.033-0.009-0.066-0.042-0.092-0.08
					c-0.008-0.008-0.008-0.008-0.008-0.012c-0.009-0.017-0.017-0.025-0.025-0.042l0,0c0-0.004,0-0.004,0-0.004
					c-0.009-0.009-0.017-0.021-0.017-0.029s-0.008-0.025-0.008-0.033c0-0.004,0-0.017-0.009-0.025c0-0.008,0-0.008,0-0.017l0,0
					c0-0.008-0.009-0.008-0.009-0.017c0-0.004,0-0.017,0-0.029c0-0.004,0-0.013,0-0.021c0-0.017,0-0.021,0-0.033
					c0-0.009,0-0.017,0-0.025s0-0.008,0-0.008C351.195,301.08,351.195,301.072,351.195,301.063z"/>
				<g>
					<path fill="#A6ABB1" d="M353.681,301.163c-0.325,0.192-0.592,0.65-0.592,1.034c0,0.375,0.267,0.534,0.6,0.333
						c0.5-0.288,10.13-5.853,13.948-8.054c0.893-0.517,1.51-0.658,1.927-0.633c0.416,0.033,0.658,0.217,0.833,0.471
						c0.108,0.162,0.176,0.354,0.209,0.538c0.066,0.242,0.066,0.458,0.066,0.542l0.059,19.355l1.192-0.688l-0.051-19.26
						c0-0.024,0-0.058,0-0.1c0-0.184-0.017-0.559-0.133-0.967c-0.117-0.413-0.325-0.859-0.742-1.138
						c-0.267-0.191-0.625-0.304-1.075-0.288c-0.592,0.012-1.351,0.258-2.293,0.8C363.818,295.311,354.188,300.867,353.681,301.163z"
						/>
				</g>
			</g>
		</g>
		<g>
			<path fill="#C7CDD0" d="M372.706,316.479c-0.024-0.009-0.033-0.009-0.05-0.009c-0.009,0-0.009,0-0.017,0
				c-0.009,0-0.025,0-0.042,0l0,0c-0.008,0-0.024,0.009-0.041,0.009l2.268-1.31l0,0c0.008-0.008,0.008-0.008,0.017-0.008
				c0.008,0,0.008,0,0.017-0.005c0.008-0.004,0.008-0.004,0.008-0.004l0,0l0,0c0.017,0,0.017,0,0.025,0c0,0,0.009-0.008,0.017,0
				h0.009c0,0,0,0,0.008,0h0.009c0,0,0.017,0.004,0.024,0.009c0.009,0,0.009,0,0.017,0c0,0,0,0,0.009,0.008c0.009,0,0.009,0,0.009,0
				c0.017,0.009,0.033,0.017,0.041,0.025l1.734,0.996l-2.268,1.321l-1.726-1c-0.025-0.009-0.042-0.017-0.059-0.033
				C372.706,316.479,372.706,316.479,372.706,316.479z"/>
			<path fill="#A6ABB1" d="M374.774,321.485v-0.162l0.017-3.348v-4.114l2.275-1.317l-0.008,4.11l-0.017,3.352v0.167
				c0,0.033-0.009,0.05-0.033,0.07c-0.759,0.438-1.51,0.88-2.276,1.313C374.766,321.548,374.774,321.523,374.774,321.485z"/>
			<path fill="#C7CDD0" d="M374.766,313.745c0,0,0,0-0.009,0c-0.008-0.018-0.024-0.038-0.033-0.047l0,0
				c-0.017-0.012-0.033-0.029-0.05-0.037c-0.008-0.013-0.017-0.013-0.024-0.013l-0.009-0.004c-0.009,0-0.017,0-0.017-0.004h-0.009
				c-0.008,0-0.008,0-0.017,0.004l0,0c-0.008,0-0.008,0-0.017,0.004l2.26-1.321l0,0c0.008,0,0.008,0,0.008,0
				c0.009-0.004,0.009-0.004,0.009-0.004s0,0,0.008,0l0,0l0,0l0,0c0.009,0,0.018,0,0.018,0h0.008l0,0c0,0,0,0,0.009,0l0,0
				l0.008,0.004l0,0c0.009,0,0.009,0,0.009,0c0.008,0.004,0.017,0.008,0.024,0.008c0.009,0.009,0.025,0.025,0.042,0.034
				c0,0.008,0,0.008,0,0.008l0,0c0.008,0.005,0.017,0.013,0.017,0.013c0,0.004,0.009,0.013,0.009,0.017
				c0.008,0,0.008,0.005,0.017,0.005c0,0.008,0,0.008,0,0.016l0,0l0,0c0.008,0,0.008,0,0.008,0.009c0,0.004,0,0.009,0,0.009
				c0.009,0,0.009,0.004,0.009,0.008c0,0,0,0.004,0,0.013l0.008,0.009c0.009,0,0.009,0.012,0.009,0.012v0.009v0.013
				c0.008,0.004,0.008,0.008,0.008,0.017c0,0.008,0,0.013,0,0.021l-2.275,1.317c0-0.017,0-0.038,0-0.059l0,0
				C374.782,313.786,374.774,313.766,374.766,313.745z"/>
			<path fill="#808D96" d="M372.481,316.642c0-0.162,0.133-0.221,0.292-0.129l1.726,1c0.017,0.005,0.017,0.018,0.033,0.018
				l0.017-3.819c0-0.066,0.059-0.1,0.125-0.05c0.059,0.037,0.125,0.125,0.117,0.2v4.114l-0.017,3.348v0.162
				c0,0.075-0.059,0.104-0.125,0.063c-0.025-0.008-1.802-1.042-1.893-1.088c-0.159-0.096-0.284-0.296-0.284-0.471L372.481,316.642z"
				/>
		</g>
	</g>
	<g>
		<path fill="#85C2BF" d="M454.704,284.847l0.018,27.289l-3.744-2.16c0,0,0-12.718,0-16.758c0-4.043-0.283-7.67,0.334-8.925
			C451.928,283.034,453.629,282.729,454.704,284.847z"/>
		<g>
			<g enable-background="new    ">
				<g>
					<polygon fill="#AFAFAF" points="431.276,239.292 425.023,242.923 418.737,239.292 424.99,235.665 					"/>
				</g>
				<g>
					<polygon fill="#A5A5A5" points="431.276,239.292 431.126,293.66 424.873,297.287 425.023,242.923 					"/>
				</g>
				<g>
					<polygon fill="#C2C2C2" points="425.023,242.923 424.873,297.287 418.587,293.66 418.737,239.292 					"/>
				</g>
			</g>
		</g>
		<g>
			<path fill="#818181" d="M423.631,246.554c-0.475,0.283-1.125,0.438-1.817,0.438s-1.334-0.154-1.817-0.438
				c-0.434-0.242-0.676-0.563-0.676-0.892v44.288c0,0.325,0.242,0.642,0.676,0.896c0.483,0.279,1.125,0.43,1.817,0.43
				s1.343-0.15,1.817-0.43c0.442-0.254,0.676-0.571,0.676-0.896v-44.288C424.307,245.991,424.073,246.312,423.631,246.554z"/>
			<path fill="#B4B4B4" d="M423.631,244.765c-0.475-0.279-1.125-0.429-1.817-0.429s-1.334,0.15-1.817,0.429
				c-0.434,0.25-0.676,0.571-0.676,0.896c0,0.329,0.242,0.65,0.676,0.892c0.483,0.283,1.125,0.438,1.817,0.438
				s1.343-0.154,1.817-0.438c0.442-0.242,0.676-0.563,0.676-0.892C424.307,245.336,424.073,245.015,423.631,244.765z"/>
		</g>
		<g>
			<path fill="#979797" d="M458.632,274.384c0-0.55,0.183-1.188,0.533-1.784c0.342-0.601,0.801-1.088,1.284-1.367
				c0.434-0.246,0.825-0.292,1.117-0.134l-38.369-22.144c-0.274-0.167-0.667-0.112-1.101,0.138
				c-0.483,0.279-0.941,0.763-1.283,1.355c-0.351,0.6-0.534,1.234-0.534,1.792c0,0.5,0.15,0.875,0.434,1.034l38.36,22.144
				C458.79,275.251,458.632,274.893,458.632,274.384z"/>
			<path fill="#B4B4B4" d="M460.183,275.284c0.475-0.275,0.934-0.763,1.283-1.363c0.342-0.6,0.534-1.234,0.534-1.788
				c0-0.505-0.159-0.867-0.434-1.034c-0.292-0.158-0.684-0.112-1.117,0.134c-0.483,0.279-0.942,0.767-1.284,1.367
				c-0.351,0.596-0.533,1.234-0.533,1.784c0,0.509,0.158,0.867,0.441,1.034C459.349,275.576,459.74,275.534,460.183,275.284z"/>
		</g>
		<g>
			<path fill="#979797" d="M458.632,292.088c0-0.554,0.183-1.192,0.533-1.792c0.342-0.597,0.801-1.08,1.284-1.359
				c0.434-0.246,0.825-0.296,1.117-0.133l-38.369-22.144c-0.274-0.163-0.667-0.121-1.101,0.138
				c-0.483,0.275-0.941,0.759-1.283,1.354c-0.351,0.601-0.534,1.234-0.534,1.797c0,0.5,0.15,0.867,0.434,1.025l38.36,22.148
				C458.79,292.959,458.632,292.597,458.632,292.088z"/>
			<path fill="#B4B4B4" d="M460.183,292.984c0.475-0.275,0.934-0.759,1.283-1.359c0.342-0.6,0.534-1.234,0.534-1.789
				c0-0.5-0.159-0.871-0.434-1.034c-0.292-0.163-0.684-0.113-1.117,0.133c-0.483,0.279-0.942,0.763-1.284,1.359
				c-0.351,0.6-0.533,1.238-0.533,1.792c0,0.509,0.158,0.872,0.441,1.034C459.349,293.285,459.74,293.234,460.183,292.984z"/>
		</g>
		<g>
			<path fill="#979797" d="M458.632,309.034c0-0.559,0.183-1.192,0.533-1.793c0.342-0.6,0.801-1.088,1.284-1.359
				c0.434-0.254,0.825-0.3,1.117-0.133l-38.369-22.152c-0.274-0.163-0.667-0.113-1.101,0.142c-0.483,0.275-0.941,0.759-1.283,1.351
				c-0.351,0.608-0.534,1.242-0.534,1.797c0,0.504,0.15,0.871,0.434,1.029l38.36,22.145
				C458.79,309.901,458.632,309.534,458.632,309.034z"/>
			<path fill="#B4B4B4" d="M460.183,309.926c0.475-0.274,0.934-0.763,1.283-1.358c0.342-0.601,0.534-1.23,0.534-1.793
				c0-0.492-0.159-0.867-0.434-1.025c-0.292-0.167-0.684-0.121-1.117,0.133c-0.483,0.271-0.942,0.759-1.284,1.359
				c-0.351,0.601-0.533,1.234-0.533,1.793c0,0.5,0.158,0.867,0.441,1.025C459.349,310.23,459.74,310.177,460.183,309.926z"/>
		</g>
		<path fill="#B4E1E0" d="M425.74,265.579c-1.301-0.392-4.335,0.984-4.335,4.319c0,4.777,0,27.863,0,27.863l29.572,17.184v-29.606
			c0,0,0.059-1.505,1.409-1.834c1.343-0.329,2.317,1.342,2.317,1.342v-1.542c0,0-0.517-1.53-3.143-2.889
			C448.943,279.053,426.391,265.771,425.74,265.579z"/>
	</g>
	<g>
		<polygon fill="#E1C13B" points="366.111,508.131 292.442,550.827 280.278,543.777 279.261,543.186 268.081,536.72 
			267.063,536.119 255.633,529.499 254.615,528.916 243.502,522.479 242.476,521.879 231.288,515.393 230.279,514.81 
			219.215,508.397 218.206,507.813 206.917,501.286 205.9,500.686 194.653,494.174 193.636,493.573 182.114,486.908 
			255.674,444.399 267.288,451.095 268.306,451.695 279.586,458.194 280.603,458.79 291.9,465.293 292.917,465.894 303.998,472.288 
			305.007,472.872 316.229,479.351 317.263,479.934 328.393,486.37 329.402,486.95 340.857,493.558 341.891,494.157 353.071,500.61 
			354.098,501.194 		"/>
		<g>
			<g>
				<polygon fill="#FEF5DE" points="354.098,501.194 280.278,543.777 279.261,543.186 353.071,500.61 				"/>
			</g>
			<g>
				<polygon fill="#FEF5DE" points="341.891,494.157 268.081,536.72 267.063,536.119 340.857,493.558 				"/>
			</g>
			<g>
				<polygon fill="#FEF5DE" points="317.263,479.934 243.502,522.479 242.476,521.879 316.229,479.351 				"/>
			</g>
			<g>
				<polygon fill="#FEF5DE" points="292.917,465.894 219.215,508.397 218.206,507.813 291.9,465.293 				"/>
			</g>
			<g>
				<polygon fill="#FEF5DE" points="329.402,486.95 255.633,529.499 254.615,528.916 328.393,486.37 				"/>
			</g>
			<g>
				<polygon fill="#FEF5DE" points="305.007,472.872 231.288,515.393 230.279,514.81 303.998,472.288 				"/>
			</g>
			<g>
				<polygon fill="#FEF5DE" points="280.603,458.79 206.917,501.286 205.9,500.686 279.586,458.194 				"/>
			</g>
			<g>
				<polygon fill="#FEF5DE" points="268.306,451.695 194.653,494.174 193.636,493.573 267.288,451.095 				"/>
			</g>
		</g>
	</g>
</g>
</svg>
