<?xml version="1.0" encoding="utf-8"?>
<!-- Generator: Adobe Illustrator 16.0.0, SVG Export Plug-In . SVG Version: 6.00 Build 0)  -->
<!DOCTYPE svg PUBLIC "-//W3C//DTD SVG 1.1//EN" "http://www.w3.org/Graphics/SVG/1.1/DTD/svg11.dtd">
<svg version="1.1" id="Layer_1" xmlns="http://www.w3.org/2000/svg" xmlns:xlink="http://www.w3.org/1999/xlink" x="0px" y="0px"
	 width="650px" height="650px" viewBox="0 0 650 650" enable-background="new 0 0 650 650" xml:space="preserve">
<polygon fill="#D5A484" points="414.125,500.489 414.125,500.489 414.749,500.843 "/>
<g>
	<path opacity="0.7" fill="#E1C13B" d="M290.425,495.133c14.282,8.237,14.282,21.619,0,29.856c-14.282,8.254-37.443,8.254-51.734,0
		c-14.282-8.237-14.282-21.619,0-29.856C252.981,486.879,276.143,486.879,290.425,495.133z"/>
	<g>
		<path fill="#E82642" d="M285.206,309.393c0.058-1.709,0.4-3.41,0.934-5.161c2.626-8.554,9.805-17.85,9.805-31.019
			c0-6.215-1.542-10.368-3.276-13.04c-2.118-3.339-4.494-4.423-4.494-4.423s-15.841-9.154-22.353-12.906
			c-0.191-0.117-0.383-0.225-0.559-0.325c-3.685-2.109-11.155-6.428-16.5-9.521c-2.568-1.48-4.652-2.685-5.586-3.218l-0.017-0.017
			l-0.025-0.017c-0.017,0-0.033,0-0.05-0.017s-0.017-0.017-0.033-0.037c-0.017,0-0.034-0.009-0.05-0.009
			c-0.025-0.037-0.042-0.037-0.058-0.046c-0.05-0.033-0.108-0.066-0.125-0.066c-0.017-0.013-0.017-0.013-0.017-0.013
			c-0.017,0-0.033-0.012-0.033-0.012c-0.092-0.075-0.125-0.083-0.125-0.083c-0.875-0.504-3.018-1.747-7.771-4.485
			c-12.948-7.475-24.604,12.206-14.774,41.837c3.052,9.138,4.469,14.124,5.27,17.396v0.045c0.942,3.777,1.042,5.236,1.893,8.196
			c1.567,5.523,1.034,13.373-2.626,21.068c-3.385,7.095-6.328,20.23-6.77,22.211c-0.033,0.158-0.05,0.254-0.05,0.254
			s0,0.038,0.033,0.096c0,0.017,0,0.017,0,0.025c0.033,0.158,0.108,0.476,0.283,0.9c0.092,0.237,0.2,0.509,0.342,0.805
			c1.709,3.581,7.688,11.813,27.914,18.409c16.491,5.373,29.864,4.123,37.676,2.355c2.143-0.492,3.869-1.001,5.136-1.431
			c0.967-0.329,1.659-0.612,2.059-0.775c0.033-0.013-0.033-0.404-0.133-1.108C290.216,349.07,284.889,318.472,285.206,309.393z"/>
		<g>
			<path fill="#4F2B1C" d="M279.886,196.533c-0.034,0.45-0.083,0.896-0.15,1.338c-0.592,3.602-1.376,8.475-1.993,12.172
				c-0.483,3.085-0.85,5.353-0.85,5.353c-1.142-1.775-2.076-2.926-2.843-3.568c-1.625-1.388-2.584-0.65-3.51,1.117
				c-0.959,1.776-1.876,4.606-3.435,7.358c-3.785,6.749-8.921,7.996-13.807,7.725c-2.16-0.104-3.685-0.563-4.769-1.05
				c-0.033-0.017-0.1-0.034-0.125-0.05c-1.276-0.6-1.826-1.192-1.826-1.192c-1.234-4.11-4.71-9.209-6.42-16.658
				c-0.583-2.585-0.958-5.436-0.958-8.629c-0.017-15.333,14.457-19.393,20.435-19.084c12.79,0.68,18.359,5.999,19.834,11.406
				C279.819,194.049,279.944,195.32,279.886,196.533z"/>
			<path fill="#EE2F53" d="M255.633,497.071c-0.15,1.684-6.795,18.78-6.795,18.78c-4.469,6.294-10.238,1.013-10.238,1.013
				c-0.375-0.254-0.767-1.201-0.976-2.681c-0.342-2.389-0.233-6.165,1.175-10.776c2.268-7.475,7.112-11.264,12.023-12.109
				c2.284-0.417,3.526,0.454,4.168,1.667C255.741,494.349,255.733,496.175,255.633,497.071z"/>
			<path fill="#EE2F53" d="M295.344,510.161c-0.075,1.463-0.75,2.922-2.009,3.855c-2.518,1.868-10.847,7.638-18.551,9.972
				c-7.72,2.326-10.038-1.059-10.038-1.059c-0.367-0.625-0.601-1.363-0.75-2.151c-0.467-2.4-0.092-5.223,0.608-6.361
				c3.01-4.827,13.532-5.327,24.712-8.612C293.526,504.579,295.527,507.339,295.344,510.161z"/>
			<polygon fill="#19AF91" points="252.489,394.4 258.284,397.144 254.524,376.366 			"/>
			
				<linearGradient id="SVGID_1_" gradientUnits="userSpaceOnUse" x1="183.7905" y1="506.8887" x2="195.894" y2="506.8887" gradientTransform="matrix(1 0 0 1 54.4004 0)">
				<stop  offset="0.01" style="stop-color:#DAA192"/>
				<stop  offset="0.99" style="stop-color:#DE817B"/>
			</linearGradient>
			<path fill="url(#SVGID_1_)" d="M238.191,501.628c0,0,0.008,6.824,0.8,8.199c0.775,1.376,3.927,3.544,8.454,1.455
				c4.002-1.851,2.618-9.316,2.618-9.316s-3.019,2.159-6.354,1.771C240.367,503.341,238.191,501.628,238.191,501.628z"/>
			<path fill="#74AFD7" d="M361.376,281.746c-0.951-1.388-1.843-1.117-4.068,0c-2.227,1.125-4.544-2.709-2.227-4.51
				c2.317-1.797,2.26-4.144,0.4-7.187c-1.843-3.035-0.534-10.205,4.577-7.475c5.11,2.731,6.161,2.806,9.838,1.588
				c3.66-1.217,8.946,4.469,6.945,7.795c-1.993,3.331-2.901,9.08-3.219,11.373C373.298,285.623,366.62,289.408,361.376,281.746z"/>
			<path fill="#2D133D" d="M291.258,356.369c-0.3,8.188-0.833,15.971-1.526,23.337c-0.017,0.066-0.017,0.129-0.017,0.188
				c-2.484,26.354-6.97,47.09-10.021,59.337c-3.943,15.866-4.986,68.476-4.986,68.476c-0.383,0.183-0.759,0.362-1.117,0.5
				c-3.118,1.242-5.761,0.867-7.679,0.142c-2.059-0.767-3.26-1.935-3.26-1.935s-10.289-40.103-8.904-55.727
				c1.4-15.6,9.238-21.582,8.446-29.369c-0.784-7.799-7.67-44.951-7.67-44.951s-6.812,56.378-6.295,76.305
				c0.517,19.918,1.843,49.295,1.843,49.295s-0.9,0.971-2.36,1.775c-1.375,0.754-3.227,1.354-5.252,0.854
				c-4.194-1.063-5.811-5.698-5.811-5.698c-2.926-9.896-13.073-38.406-12.014-56.449c1.05-18.063,8.129-29.889,7.862-34.191
				c-0.267-4.276-9.963-46.831-12.589-52.604c-2.626-5.773-2.876-16.254-1.776-18.646c0.092,0.237,0.2,0.509,0.342,0.805
				c1.709,3.581,7.688,11.813,27.914,18.409c16.066,5.231,29.189,4.181,37.068,2.48c2.443-0.518,4.369-1.084,5.745-1.556
				C290.166,356.815,290.858,356.532,291.258,356.369z"/>
			<path fill="#2D133D" d="M291.258,356.369c0.008-0.354,0.033-0.737,0.05-1.108c0,0-0.075,0-0.184,0
				C291.233,355.961,291.283,356.365,291.258,356.369z"/>
			
				<linearGradient id="SVGID_2_" gradientUnits="userSpaceOnUse" x1="226.6191" y1="191.9575" x2="201.4489" y2="244.2643" gradientTransform="matrix(1 0 0 1 54.4004 0)">
				<stop  offset="0.01" style="stop-color:#DAA192"/>
				<stop  offset="0.99" style="stop-color:#DE817B"/>
			</linearGradient>
			<path fill="url(#SVGID_2_)" d="M280.695,224.834c-0.35,1.226-0.934,2.318-1.743,3.21c-2.534,2.86-7.203,3.89-13.548,2.134
				c-0.184,3.277,0.1,8.421,0.417,12.648c-0.191-0.104-0.383-0.217-0.559-0.309c-3.677-2.109-11.147-6.436-16.5-9.521
				c0.158-2.101,0.066-4.227-0.233-6.02c1.084,0.487,2.609,0.946,4.769,1.05c3.235,0.175,6.57-0.313,9.563-2.614
				c1.517-1.176,2.959-2.831,4.244-5.111c3.81-6.749,3.835-14.065,9.788-4.907c0,0,1.751-10.905,2.843-17.525
				c0.066-0.442,0.116-0.888,0.15-1.338c0.058-1.213-0.067-2.484-0.417-3.764c2.143,4.585,0.6,9.584,1.459,12.714
				C281.787,208.723,283.046,216.922,280.695,224.834z"/>
			
				<linearGradient id="SVGID_3_" gradientUnits="userSpaceOnUse" x1="208.9111" y1="512.2559" x2="220.5781" y2="512.2559" gradientTransform="matrix(1 0 0 1 54.4004 0)">
				<stop  offset="0.01" style="stop-color:#DAA192"/>
				<stop  offset="0.99" style="stop-color:#DE817B"/>
			</linearGradient>
			<path fill="url(#SVGID_3_)" d="M263.312,506.96l1.434,8.266c0,0,0.425,2.664,5.636,2.289c3.66-0.267,4.661-1.201,4.594-3.752
				c-0.05-1.746-0.259-6.057-0.259-6.057s-3.677,1.529-6.628,1.142C265.146,508.452,263.312,506.96,263.312,506.96z"/>
			
				<linearGradient id="SVGID_4_" gradientUnits="userSpaceOnUse" x1="313.3862" y1="260.4219" x2="232.5482" y2="324.3448" gradientTransform="matrix(1 0 0 1 54.4004 0)">
				<stop  offset="0.01" style="stop-color:#DAA192"/>
				<stop  offset="0.99" style="stop-color:#DE817B"/>
			</linearGradient>
			<path fill="url(#SVGID_4_)" d="M365.795,284.146l0.017,0.017c-0.092,0.091-0.192,0.188-0.284,0.284
				c-0.066,0.075-0.108,0.142-0.108,0.142c-19.492,21.269-43.454,33.725-44.213,34.166c-2.876,1.651-5.511,0.192-5.511,0.192
				c-4.944-1.476-18.809-15.812-24.554-21.911c1.092-0.638,2.868-1.717,4.911-3.139c3.652-2.514,8.104-6.099,10.88-10.093
				l14.574,16.137c4.485-2.33,37.751-19.572,37.751-19.572c0.15-0.029,0.309-0.05,0.467-0.05c0,0-4.594-5.586-4.818-7.362
				c-0.233-1.776,3.293,2.676,4.568,3.151c1.293,0.45,1.084-9.146,2.284-9.333c1.176-0.171,0.226,8.025,1.102,8.137
				c0.842,0.096,1.092-10.526,2.667-10.497c1.576,0.045-0.35,10.717,0.126,11.401c0.475,0.675,2-6.778,3.185-6.27
				c0.875,0.38-1.31,7.8-0.65,8.321c0.675,0.5,2.143-2.314,2.802-1.793C372.015,276.864,367.195,282.538,365.795,284.146z"/>
			<path fill="#19AF91" d="M267.705,243.919v0.017c-18.867-1.809-21.127-11.756-21.219-12.239c0-0.017,0-0.017,0-0.017
				L267.705,243.919z"/>
			<path fill="#251235" d="M223.584,358.796c4.193,0.805,22.219,3.672,26.713,5.244c4.485,1.576,10.555,8.399,25.721,6.182
				c0,0-10.622,6.403-23.528-0.412c-12.915-6.816-9.729-2.363-16.449-3.936C229.52,364.345,223.584,358.796,223.584,358.796z"/>
			<path fill="#CC1F47" d="M255.633,497.071c-0.15,1.684-6.795,18.78-6.795,18.78c-4.469,6.294-10.238,1.013-10.238,1.013
				c-0.375-0.254-0.767-1.201-0.976-2.681c2.726,2.71,7.454,3.368,9.488,1.347c1.917-1.9,4.452-9.509,5.903-13.444
				c1.226-3.331,1.834-6.398,1.976-9.121C255.741,494.349,255.733,496.175,255.633,497.071z"/>
			<path fill="#CC1F47" d="M295.344,510.161c-0.075,1.463-0.75,2.922-2.009,3.855c-2.518,1.868-10.847,7.638-18.551,9.972
				c-7.72,2.326-10.038-1.059-10.038-1.059c-0.367-0.625-0.601-1.363-0.75-2.151c0.892,1.055,2.768,2.66,5.819,2.756
				c4.561,0.121,10.664-3.151,16.167-6.295C290.108,514.876,293.568,512.187,295.344,510.161z"/>
			<path opacity="0.2" fill="#2D133D" d="M265.913,508.348c-2.059-0.767-3.26-1.935-3.26-1.935s-10.289-40.103-8.904-55.727
				c1.4-15.6,9.238-21.582,8.446-29.369c-0.784-7.799-7.67-44.951-7.67-44.951s-6.812,56.378-6.295,76.305
				c0.517,19.918,1.843,49.295,1.843,49.295s-0.9,0.971-2.36,1.775c-0.617-4.439-1.351-10.938-2.126-20.252
				c-1.884-22.619-3.16-37.381-1.334-50.938c1.801-13.581,4.953-40.119,6.937-50.157c1.951-10.038,3.093-11.722,3.093-11.722
				s11.855,39.852,11.438,49.665c-0.375,9.854-8.646,29.706-6.478,51.733C260.818,488.055,264.187,501.928,265.913,508.348z"/>
			<path opacity="0.2" fill="#2D133D" d="M291.258,356.369c-0.3,8.188-0.833,15.971-1.526,23.337
				c-0.017,0.066-0.017,0.129-0.017,0.188c-2.484,26.354-6.97,47.09-10.021,59.337c-3.943,15.866-4.986,68.476-4.986,68.476
				c-0.383,0.183-0.759,0.362-1.117,0.5c-0.367-6.687-0.992-23.312,0.2-44.146c1.576-27.275,6.295-34.859,9.238-59.246
				c2.218-18.313,1.101-37.635,0.425-46.113c2.443-0.518,4.369-1.084,5.745-1.556C290.166,356.815,290.858,356.532,291.258,356.369z
				"/>
			<path opacity="0.4" fill="#E82642" d="M291.125,355.261c0.1,0.704,0.167,1.096,0.133,1.108c-0.4,0.163-1.092,0.446-2.059,0.775
				c-1.268,0.43-2.993,0.938-5.136,1.431c0.5-4.061,0.951-12.648-2.026-23.646c-4.186-15.462-5.428-22.481-1.042-31.499
				c3.985-8.15,13.848-27.592,11.672-43.258c1.734,2.672,3.276,6.824,3.276,13.04c0,13.169-7.178,22.465-9.805,31.019
				c-0.534,1.751-0.875,3.452-0.934,5.161C284.889,318.472,290.216,349.07,291.125,355.261z"/>
			<path fill="#EE2F53" d="M307.541,282.904c-0.191,0.292-0.408,0.601-0.608,0.9c-2.81,4.027-7.32,7.646-10.989,10.172
				c-1.993,1.388-3.727,2.422-4.802,3.06c-0.684,0.392-1.109,0.625-1.109,0.625s-8.487-3.918-15.141-17.262
				c-3.552-7.12-2.952-12.381-1.142-16.05c1.967-3.956,5.344-6.049,6.445-6.62C293.384,251.043,307.541,282.904,307.541,282.904z"/>
			<path fill="#19AF91" d="M291.309,354.564c-1.426-17.9-6.32-39.04-6.103-45.172c0.058-1.709,0.4-3.41,0.934-5.161
				c0,0-7.07,6.479-13.923,9.746c-5.002,2.143-13.382,2.969-22.119,0.571c-0.534-0.146-1.059-0.308-1.567-0.479
				c2.81-0.504,5.828-1.643,5.753-4.248c-0.125-4.852-6.028-5.569-8.121-2.426c-0.316,0.467-0.625,0.93-0.934,1.389
				c0.375-2.109,0.542-4.248,0.017-5.453c-1.317-2.947-7.412-3.473-8.262,0.721c-0.292,1.401,0.142,2.998,0.817,4.515
				c-0.775-0.567-1.442-1.101-1.976-1.551c-1.542-6.512-10.472-22.903-10.472-22.903s0,0.033,0.017,0.096v0.045
				c0.942,3.777,1.042,5.236,1.893,8.196c1.567,5.523,1.367,11.78-2.693,20.394c-3.602,7.62-6.72,23.252-6.72,23.261
				c-0.2,3.622,0.1,3.747,0.625,1.705c3.185-12.394,14.399-22.165,17.017-27.476c0.934,0.892,2.451,2.047,4.802,3.276
				c-0.809,2.093-3.527,9.208-5.019,15.286c-1.768,7.208-1.376,7.016-1.376,7.016l2.168,1.31c0,0,0.85-5.11,2.551-11.276
				c1.267-4.581,2.935-9.246,3.71-11.339c0.333,0.142,0.692,0.296,1.051,0.438c-0.175,3.811-1.134,17.45-6.495,26.013l2.093,1.385
				c0,0,3.06-4.628,4.427-11.614c1.017-5.14,1.717-11.823,2.018-14.991c1.692,0.617,3.61,1.222,5.819,1.793
				c10.172,2.613,17.317,0.917,21.235-0.713c2.702,2.848,7.445,8.934,11.939,20.089c2.326,5.778,3.744,12.098,4.561,18.296
				c0.083,0.617,0.159,1.23,0.226,1.843c0.967,8.4,0.875,16.471,0.533,22.562C290,376.813,292.226,366.153,291.309,354.564z
				 M247.862,308.379c0.659-0.784,4.302-1.955,4.585,1.117c0.233,2.481-4.677,3.348-6.595,3.589
				c-0.434-0.184-0.867-0.362-1.284-0.555C245.745,311.035,247.437,308.884,247.862,308.379z M238.683,305.428
				c0.067-3.405,3.744-3.672,4.986-0.717c0.734,1.738,0.167,4.832-0.425,7.065c-0.025,0.038-0.033,0.059-0.058,0.092
				c-0.967-0.491-1.868-1-2.702-1.509C239.55,308.921,238.649,307.091,238.683,305.428z"/>
			<path opacity="0.4" fill="#E82642" d="M295.944,293.977c-1.993,1.388-3.727,2.422-4.802,3.06
				c-0.684,0.392-1.109,0.625-1.109,0.625s-8.487-3.918-15.141-17.262c-3.552-7.12-2.952-12.381-1.142-16.05
				C275.242,271.591,280.145,283.893,295.944,293.977z"/>
			
				<linearGradient id="SVGID_5_" gradientUnits="userSpaceOnUse" x1="220.6104" y1="220.7983" x2="193.132" y2="242.5269" gradientTransform="matrix(1 0 0 1 54.4004 0)">
				<stop  offset="0.01" style="stop-color:#DAA192"/>
				<stop  offset="0.99" style="stop-color:#DE817B"/>
			</linearGradient>
			<path opacity="0.3" fill="url(#SVGID_5_)" d="M265.404,230.179c-0.184,3.277,0.1,8.421,0.417,12.648
				c-0.191-0.104-0.383-0.217-0.559-0.309c-3.677-2.109-11.147-6.436-16.5-9.521c0.158-2.101,0.066-4.227-0.233-6.02
				c1.084,0.487,2.609,0.946,4.769,1.05c3.235,0.175,6.57-0.313,9.563-2.614c4.686,5.507,11.797,3.981,16.091,2.63
				C276.418,230.904,271.749,231.934,265.404,230.179z"/>
			
				<linearGradient id="SVGID_6_" gradientUnits="userSpaceOnUse" x1="311.041" y1="262.6479" x2="233.3459" y2="324.0856" gradientTransform="matrix(1 0 0 1 54.4004 0)">
				<stop  offset="0.01" style="stop-color:#DAA192"/>
				<stop  offset="0.99" style="stop-color:#DE817B"/>
			</linearGradient>
			<path opacity="0.3" fill="url(#SVGID_6_)" d="M365.795,284.146l0.017,0.017c-0.092,0.091-0.192,0.188-0.284,0.284
				c-0.066,0.075-0.108,0.142-0.108,0.142c-19.492,21.269-43.454,33.725-44.213,34.166c-2.876,1.651-5.511,0.192-5.511,0.192
				c-4.944-1.476-18.809-15.812-24.554-21.911c1.092-0.638,2.868-1.717,4.911-3.139c4.869,5.207,17.325,18.205,21.402,19.639
				c5.111,1.805,19.61-8.434,32.641-17.483c11.13-7.708,18.017-15.57,20.894-19.977
				C372.015,276.864,367.195,282.538,365.795,284.146z"/>
			<path opacity="0.2" fill="#411F14" d="M261.411,214.655c3.685-0.488,6.687-1.067,9.129-1.709
				c-0.959,1.776-1.876,4.606-3.435,7.358c-3.785,6.749-8.921,7.996-13.807,7.725c-2.16-0.104-3.685-0.563-4.769-1.05
				c-0.033-0.017-0.1-0.034-0.125-0.05c-1.276-0.6-1.826-1.192-1.826-1.192c-1.234-4.11-4.71-9.209-6.42-16.658
				C243.793,212.908,250.197,216.118,261.411,214.655z"/>
			<g>
				<g>
					<path fill="#19AF91" d="M246.228,201.481c1.367-1.717,2.618-4.01,0-6.574c-2.609-2.572-5.919,0.246-5.711,3.802
						C240.717,202.257,245.127,202.882,246.228,201.481z"/>
					<path fill="#411F14" d="M245.745,240.209c-3.477,2.901-1.792,6.036-1.792,6.036s-0.659-0.313-1.651-0.909
						c-2.743-1.609-8.012-5.245-8.488-9.63c-0.642-5.978,6.045-8.909,3.11-15.591c-2.952-6.703-6.87-15.862-3.769-21.411
						c3.118-5.553,9.729-3.385,9.729-3.385c1.884,0.942,2.31,2.66,2.385,3.727c0.05,0.584-0.017,0.963-0.017,0.963
						s-2.935-1.796-4.418,0.659c-1.468,2.455,4.418,8.496,11.764,20.026C259.951,232.242,249.213,237.278,245.745,240.209z"/>
				</g>
				<path opacity="0.1" fill="#411F14" d="M245.745,240.209c-3.477,2.901-1.792,6.036-1.792,6.036s-0.659-0.313-1.651-0.909
					c-2.035-6.983,4.227-11.268,6.228-19.084c2.259-8.854-9.93-16.917-9.33-24.07c0.475-5.699,4.01-4.561,6.07-3.135
					c0.05,0.584-0.017,0.963-0.017,0.963s-2.935-1.796-4.418,0.659c-1.468,2.455,4.418,8.496,11.764,20.026
					C259.951,232.242,249.213,237.278,245.745,240.209z"/>
			</g>
		</g>
	</g>
</g>
</svg>
