<?xml version="1.0" encoding="utf-8"?>
<!-- Generator: Adobe Illustrator 16.0.0, SVG Export Plug-In . SVG Version: 6.00 Build 0)  -->
<!DOCTYPE svg PUBLIC "-//W3C//DTD SVG 1.1//EN" "http://www.w3.org/Graphics/SVG/1.1/DTD/svg11.dtd">
<svg version="1.1" id="Layer_1" xmlns="http://www.w3.org/2000/svg" xmlns:xlink="http://www.w3.org/1999/xlink" x="0px" y="0px"
	 width="650px" height="650px" viewBox="0 0 650 650" enable-background="new 0 0 650 650" xml:space="preserve">
<polygon fill="#D5A484" points="414.125,500.489 414.125,500.489 414.749,500.843 "/>
<g>
	<g>
		<path fill="#AE1F24" d="M302.522,546.374c-32.515,18.783-50.939,20.904-52.121,21.027c-1.052,0.107-1.591-1.094-1.203-2.684
			c0.398-1.584,1.565-2.949,2.613-3.063c0.45-0.037,45.193-5.305,118.597-70.934c1.107-1.008,2.199-0.752,2.466,0.492
			c0.272,1.262-0.392,3.066-1.491,4.037C344.228,519.532,321.079,535.675,302.522,546.374z"/>
	</g>
	<g>
		<g enable-background="new    ">
			<g>
				<polygon fill="#5C7680" points="314.779,359.949 325.881,353.501 382.132,510.8 371.022,517.267 				"/>
			</g>
			<g>
				<polygon fill="#87A9B4" points="309.671,345.282 371.022,517.267 365.489,514.069 304.146,342.093 				"/>
			</g>
		</g>
	</g>
	<g>
		<g enable-background="new    ">
			<g>
				<polygon fill="#5C7680" points="258.13,327.607 269.232,321.155 325.482,478.462 314.38,484.909 				"/>
			</g>
			<g>
				<polygon fill="#87A9B4" points="258.13,327.024 314.38,484.909 308.848,481.722 252.594,323.835 				"/>
			</g>
		</g>
	</g>
	<g>
		<path fill="#AE1F24" d="M243.973,515.122c-32.519,18.775-50.947,20.896-52.12,21.018c-1.056,0.1-1.598-1.088-1.203-2.676
			c0.384-1.586,1.557-2.959,2.605-3.066c0.458-0.045,45.193-5.314,118.612-70.947c1.092-0.996,2.185-0.744,2.458,0.502
			c0.266,1.256-0.398,3.068-1.495,4.043C285.693,488.269,262.533,504.415,243.973,515.122z"/>
	</g>
	<g>
		<g enable-background="new    ">
			<g>
				<polygon fill="#87A9B4" points="238.333,338.337 180.559,561.565 174.55,558.104 232.015,334.911 				"/>
			</g>
			<g>
				<polygon fill="#5C7680" points="238.031,338.935 249.136,332.479 191.657,555.122 180.559,561.565 				"/>
			</g>
		</g>
	</g>
	<g>
		<g>
			<g enable-background="new    ">
				<g>
					<polygon fill="#981B1E" points="304.991,386.046 304.973,391.853 280.193,406.253 280.201,400.454 					"/>
				</g>
				<g>
					<polygon fill="#87A9B4" points="280.223,400.47 280.167,406.249 224.707,374.214 221.77,372.534 221.77,366.702 					"/>
				</g>
			</g>
		</g>
		<polygon fill="#CB2A27" points="249.531,354.015 246.553,352.313 221.77,366.702 225.708,368.974 224.737,368.405 		"/>
		<polygon fill="#CB2A27" points="305.01,386.028 252.483,355.728 251.044,354.894 302.046,384.327 277.256,398.765 280.223,400.47 
					"/>
		<polygon fill="#D5A484" points="225.708,368.974 277.256,398.765 277.256,398.765 227.7,370.116 		"/>
		<polygon fill="#6C8997" points="251.044,354.894 249.531,354.015 224.737,368.405 225.708,368.974 227.7,370.116 277.256,398.765 
			302.046,384.327 		"/>
		<g>
			<polygon fill="#AE1F24" points="224.759,368.538 224.707,374.214 221.77,372.534 221.77,366.806 			"/>
		</g>
		<g>
			<polygon fill="#AE1F24" points="280.223,400.47 280.138,406.253 277.193,404.573 277.256,398.765 			"/>
		</g>
	</g>
	<g>
		<g>
			<g enable-background="new    ">
				<g>
					<polygon fill="#981B1E" points="292.602,439.312 292.58,445.116 267.792,459.521 267.815,453.708 					"/>
				</g>
				<g>
					<polygon fill="#87A9B4" points="267.83,453.733 267.774,459.521 212.31,427.474 209.379,425.792 209.379,419.964 					"/>
				</g>
			</g>
		</g>
		<polygon fill="#CB2A27" points="237.134,407.282 234.163,405.573 209.379,419.964 213.318,422.226 212.343,421.673 		"/>
		<polygon fill="#CB2A27" points="292.62,439.296 240.098,408.987 238.651,408.161 289.646,437.583 264.87,452.024 267.83,453.733 
					"/>
		<polygon fill="#D5A484" points="213.318,422.226 264.862,452.024 264.87,452.024 215.311,423.382 		"/>
		<polygon fill="#6C8997" points="238.651,408.161 237.134,407.282 212.343,421.673 213.318,422.226 215.311,423.382 
			264.87,452.024 289.646,437.583 		"/>
		<g>
			<polygon fill="#AE1F24" points="212.365,421.802 212.31,427.474 209.379,425.792 209.379,420.071 			"/>
		</g>
		<g>
			<polygon fill="#AE1F24" points="267.83,453.733 267.741,459.521 264.803,457.831 264.862,452.024 			"/>
		</g>
	</g>
	<g>
		<g>
			<g enable-background="new    ">
				<g>
					<polygon fill="#981B1E" points="278.736,492.571 278.71,498.376 253.938,512.782 253.945,506.979 					"/>
				</g>
				<g>
					<polygon fill="#87A9B4" points="253.963,507.003 253.912,512.771 198.444,480.735 195.514,479.06 195.514,473.231 					"/>
				</g>
			</g>
		</g>
		<polygon fill="#CB2A27" points="223.271,460.536 220.304,458.835 195.514,473.231 199.459,475.491 198.481,474.931 		"/>
		<polygon fill="#CB2A27" points="278.754,492.554 226.235,462.253 224.796,461.421 275.787,490.851 251.007,505.282 
			253.963,507.003 		"/>
		<polygon fill="#D5A484" points="199.459,475.491 251,505.29 251.007,505.282 201.445,476.638 		"/>
		<polygon fill="#6C8997" points="224.796,461.421 223.271,460.536 198.481,474.931 199.459,475.491 201.445,476.638 
			251.007,505.282 275.787,490.851 		"/>
		<g>
			<polygon fill="#AE1F24" points="198.503,475.063 198.444,480.735 195.514,479.06 195.514,473.331 			"/>
		</g>
		<g>
			<polygon fill="#AE1F24" points="253.963,507.003 253.875,512.782 250.941,511.103 251,505.29 			"/>
		</g>
	</g>
	<g>
		<g>
			<g enable-background="new    ">
				<g>
					<polygon fill="#981B1E" points="262.659,545.833 262.633,551.63 237.854,566.042 237.861,560.229 					"/>
				</g>
				<g>
					<polygon fill="#87A9B4" points="237.883,560.251 237.832,566.032 182.364,533.999 179.426,532.313 179.426,526.489 					"/>
				</g>
			</g>
		</g>
		<polygon fill="#CB2A27" points="207.184,513.808 204.216,512.095 179.426,526.489 183.371,528.751 182.397,528.187 		"/>
		<polygon fill="#CB2A27" points="262.67,545.813 210.147,515.517 208.708,514.69 259.71,544.116 234.923,558.546 237.883,560.251 
					"/>
		<polygon fill="#D5A484" points="183.371,528.751 234.916,558.554 234.923,558.546 185.364,529.899 		"/>
		<polygon fill="#6C8997" points="208.708,514.69 207.184,513.808 182.397,528.187 183.371,528.751 185.364,529.899 
			234.923,558.546 259.71,544.116 		"/>
		<g>
			<polygon fill="#AE1F24" points="182.426,528.331 182.364,533.999 179.426,532.313 179.426,526.589 			"/>
		</g>
		<g>
			<polygon fill="#AE1F24" points="237.883,560.251 237.794,566.042 234.856,564.364 234.916,558.554 			"/>
		</g>
	</g>
	<g>
		<g enable-background="new    ">
			<g>
				<polygon fill="#87A9B4" points="296.049,370.726 238.333,593.845 232.332,590.38 289.79,367.179 				"/>
			</g>
			<g>
				<polygon fill="#5C7680" points="295.805,371.202 306.907,364.751 249.435,587.39 238.333,593.845 				"/>
			</g>
		</g>
	</g>
	<g>
		<g>
			<g enable-background="new    ">
				<g>
					<polygon fill="#6C8997" points="329.693,347.776 313.295,357.307 312.229,357.952 295.451,367.706 230.701,330.302 
						247.479,320.547 248.553,319.96 264.951,310.413 					"/>
				</g>
				<g>
					<polygon fill="#435760" points="329.693,347.776 329.693,352.966 313.295,362.515 312.118,363.159 295.451,372.856 
						295.451,367.706 312.118,358.008 313.295,357.307 					"/>
				</g>
				<g>
					<polygon fill="#80A5AF" points="295.469,367.706 295.451,372.866 230.683,335.469 230.701,330.313 					"/>
				</g>
			</g>
		</g>
		<polygon fill="#435760" points="313.295,357.307 312.229,357.952 247.479,320.547 248.553,319.96 		"/>
		<polygon fill="#6C8997" points="313.295,357.307 313.295,362.515 312.118,363.159 312.118,358.008 		"/>
	</g>
	<g>
		<polygon fill="#AE1F24" points="175.536,554.292 181.596,557.536 180.559,561.565 174.55,558.104 		"/>
		<polygon fill="#981B1E" points="180.559,561.565 191.657,555.122 192.708,551.04 181.596,557.536 		"/>
	</g>
	<g>
		<polygon fill="#AE1F24" points="364.261,510.616 369.561,513.144 371.022,517.267 365.489,514.069 		"/>
		<polygon fill="#981B1E" points="369.561,513.144 380.722,506.866 382.132,510.8 371.022,517.267 		"/>
	</g>
	<g>
		<polygon fill="#AE1F24" points="307.623,478.267 312.916,480.798 314.38,484.909 308.848,481.722 		"/>
		<polygon fill="#981B1E" points="312.916,480.798 324.083,474.53 325.482,478.462 314.38,484.909 		"/>
	</g>
	<path fill="#5C7680" d="M313.609,461.524c0,0.539-0.443,0.971-0.982,0.971c-0.539,0-0.981-0.432-0.981-0.971
		c0-0.541,0.443-0.988,0.981-0.988C313.167,460.536,313.609,460.983,313.609,461.524z"/>
</g>
</svg>
