<?xml version="1.0" encoding="utf-8"?>
<!-- Generator: Adobe Illustrator 16.0.0, SVG Export Plug-In . SVG Version: 6.00 Build 0)  -->
<!DOCTYPE svg PUBLIC "-//W3C//DTD SVG 1.1//EN" "http://www.w3.org/Graphics/SVG/1.1/DTD/svg11.dtd">
<svg version="1.1" id="Layer_1" xmlns="http://www.w3.org/2000/svg" xmlns:xlink="http://www.w3.org/1999/xlink" x="0px" y="0px"
	 width="650px" height="650px" viewBox="0 0 650 650" enable-background="new 0 0 650 650" xml:space="preserve">
<polygon fill="#D5A484" points="414.125,500.489 414.125,500.489 414.749,500.843 "/>
<g>
	<g>
		<g>
			<path fill="#36312C" d="M407.194,381.37l0.008,113.682c-0.008,0.045-0.012,0.08-0.012,0.117l0,0c0,0.363,0.236,0.725,0.713,1.004
				c0.955,0.547,2.494,0.547,3.451,0c0.531-0.309,0.764-0.715,0.705-1.121h0.008L412.06,381.37H407.194z"/>
			<g>
				<path fill="#231F1B" d="M406.854,372.261v0.127c0-0.037,0-0.082,0.008-0.127H406.854z"/>
				<path fill="#231F1B" d="M412.399,372.261c0.059,0.451-0.207,0.916-0.805,1.264c-1.086,0.627-2.842,0.627-3.928,0
					c-0.547-0.311-0.813-0.717-0.813-1.137v10c0,0.406,0.266,0.82,0.813,1.131c1.086,0.627,2.842,0.627,3.928,0
					c0.539-0.311,0.811-0.725,0.811-1.131v-10.127H412.399z"/>
				<path fill="#36312C" d="M406.854,372.388L406.854,372.388L406.854,372.388z"/>
				<path fill="#36312C" d="M412.399,372.261c-0.053-0.369-0.318-0.723-0.805-1.004c-1.086-0.627-2.842-0.627-3.928,0
					c-0.482,0.281-0.756,0.635-0.805,1.004c-0.008,0.045-0.008,0.09-0.008,0.127l0,0c0,0.42,0.266,0.826,0.813,1.137
					c1.086,0.627,2.842,0.627,3.928,0C412.192,373.177,412.458,372.712,412.399,372.261z"/>
			</g>
		</g>
		<g>
			<g enable-background="new    ">
				<g>
					<polygon fill="#353029" points="427.46,370.792 425.177,383.548 414.96,377.657 405.12,371.974 396.183,366.813 
						393.968,351.453 					"/>
				</g>
				<g>
					<polygon fill="#1D1B15" points="427.464,370.784 431.944,368.187 429.649,380.95 425.177,383.548 					"/>
				</g>
				<g>
					<polygon fill="#252119" points="393.976,351.453 398.444,348.847 431.944,368.187 427.464,370.784 					"/>
				</g>
			</g>
		</g>
		<g>
			<g enable-background="new    ">
				<g>
					<polygon fill="#795D25" points="430.026,360.245 426.194,368.792 398.456,352.789 395.321,340.218 					"/>
				</g>
				<g>
					<polygon fill="#806628" points="430.026,360.245 432.542,358.79 428.712,367.331 426.194,368.792 					"/>
				</g>
				<g>
					<polygon fill="#BE922D" points="395.321,340.218 397.843,338.749 432.542,358.79 430.026,360.245 					"/>
				</g>
			</g>
		</g>
		<polygon fill="#231F1B" points="414.96,365.987 414.96,377.657 405.12,371.974 405.12,360.312 		"/>
	</g>
	<g>
		<g>
			<g>
				<g>
					<g>
						<path fill="#353635" d="M481.407,567.759c0-2.982-2.088-6.605-4.676-8.098c-1.291-0.738-2.457-0.813-3.303-0.324l0,0
							l1.912-1.107l0,0c0.842-0.486,2.008-0.414,3.307,0.332c2.584,1.484,4.672,5.115,4.672,8.098c0,1.49-0.523,2.539-1.365,3.025
							l-1.912,1.102C480.884,570.298,481.407,569.249,481.407,567.759z"/>
						<path fill="#5B5B5B" d="M480.042,570.786c-0.848,0.494-2.021,0.42-3.311-0.326c-2.58-1.49-4.672-5.115-4.672-8.098
							c0-1.49,0.523-2.539,1.369-3.025c0.846-0.488,2.012-0.414,3.303,0.324c2.588,1.492,4.676,5.115,4.676,8.098
							C481.407,569.249,480.884,570.298,480.042,570.786L480.042,570.786L480.042,570.786z"/>
						<path fill="#787878" d="M478.892,563.81c-0.762-1.307-1.783-2.406-2.82-3.004c-0.813-0.465-1.531-0.584-1.986-0.324
							c-0.445,0.258-0.701,0.943-0.701,1.881c0,1.197,0.428,2.637,1.189,3.943c0.76,1.313,1.793,2.406,2.826,3.01
							c0.805,0.467,1.527,0.584,1.979,0.326c0.451-0.266,0.705-0.945,0.705-1.883C480.083,566.563,479.647,565.124,478.892,563.81z"
							/>
					</g>
					<g>
						<path fill="#353635" d="M422.485,533.687c0-2.99-2.092-6.607-4.676-8.098c-1.291-0.746-2.459-0.82-3.307-0.332l0,0l1.914-1.1
							l0,0c0.846-0.488,2.012-0.422,3.305,0.324c2.582,1.498,4.672,5.115,4.672,8.098c0,1.49-0.523,2.539-1.365,3.025l-1.912,1.102
							C421.966,536.218,422.485,535.177,422.485,533.687z"/>
						<path fill="#5B5B5B" d="M421.116,536.706c-0.85,0.494-2.016,0.42-3.307-0.326c-2.584-1.49-4.676-5.115-4.676-8.098
							c0-1.482,0.523-2.531,1.369-3.025c0.848-0.488,2.016-0.414,3.307,0.332c2.584,1.49,4.676,5.107,4.676,8.098
							C422.485,535.177,421.966,536.218,421.116,536.706L421.116,536.706L421.116,536.706z"/>
						<path fill="#787878" d="M419.972,529.737c-0.76-1.307-1.785-2.414-2.826-3.004c-0.809-0.465-1.529-0.592-1.979-0.326
							c-0.451,0.26-0.705,0.938-0.705,1.875c0,1.197,0.432,2.637,1.191,3.949c0.754,1.314,1.779,2.4,2.82,2.998
							c0.813,0.473,1.527,0.598,1.982,0.332c0.445-0.26,0.705-0.945,0.705-1.875C421.161,532.483,420.726,531.044,419.972,529.737z"
							/>
					</g>
				</g>
				<g>
					<g>
						<path fill="#353635" d="M422.847,601.536c0-2.982-2.092-6.605-4.676-8.098c-1.287-0.738-2.457-0.813-3.303-0.324l0,0
							l1.908-1.107l0,0c0.848-0.486,2.016-0.414,3.307,0.332c2.584,1.492,4.676,5.115,4.676,8.09c0,1.498-0.523,2.547-1.369,3.041
							l-1.912,1.094C422.327,604.075,422.847,603.028,422.847,601.536z"/>
						<path fill="#5B5B5B" d="M421.478,604.563c-0.848,0.494-2.016,0.42-3.307-0.326c-2.576-1.482-4.668-5.115-4.668-8.098
							c0-1.49,0.52-2.539,1.365-3.025c0.846-0.488,2.016-0.414,3.303,0.324c2.584,1.492,4.676,5.115,4.676,8.098
							C422.847,603.028,422.327,604.075,421.478,604.563L421.478,604.563L421.478,604.563z"/>
						<path fill="#787878" d="M420.333,597.595c-0.76-1.314-1.785-2.406-2.818-3.004c-0.813-0.465-1.531-0.592-1.986-0.332
							c-0.449,0.258-0.705,0.943-0.705,1.881c0,1.197,0.432,2.637,1.193,3.949c0.76,1.307,1.785,2.406,2.818,3.006
							c0.813,0.465,1.529,0.582,1.979,0.324c0.451-0.258,0.713-0.945,0.713-1.883C421.526,600.341,421.091,598.901,420.333,597.595z
							"/>
					</g>
					<g>
						<path fill="#353635" d="M363.925,567.464c0-2.982-2.096-6.607-4.676-8.098c-1.289-0.738-2.462-0.82-3.304-0.324l0,0
							l1.912-1.107l0,0c0.845-0.488,2.015-0.422,3.304,0.332c2.583,1.49,4.676,5.107,4.676,8.09c0,1.49-0.524,2.539-1.373,3.025
							l-1.908,1.107C363.401,570.003,363.925,568.954,363.925,567.464z"/>
						<path fill="#5B5B5B" d="M362.556,570.489c-0.846,0.488-2.016,0.422-3.307-0.324c-2.58-1.498-4.676-5.115-4.676-8.105
							c0-1.482,0.527-2.539,1.372-3.018c0.842-0.496,2.015-0.414,3.304,0.324c2.58,1.49,4.676,5.115,4.676,8.098
							C363.925,568.954,363.401,570.003,362.556,570.489L362.556,570.489L362.556,570.489z"/>
						<path fill="#787878" d="M361.407,563.515c-0.76-1.307-1.785-2.406-2.819-3.004c-0.812-0.465-1.528-0.584-1.978-0.326
							c-0.451,0.26-0.709,0.945-0.709,1.875c0,1.197,0.436,2.637,1.188,3.949c0.761,1.314,1.786,2.406,2.827,3.006
							c0.812,0.465,1.527,0.59,1.979,0.332c0.445-0.266,0.701-0.945,0.701-1.883C362.597,566.269,362.168,564.829,361.407,563.515z"
							/>
					</g>
				</g>
			</g>
			<g>
				<g>
					<g enable-background="new    ">
						<g>
							<polygon fill="#5B5B5B" points="417.278,518.976 417.286,521.839 356.374,556.981 356.366,554.147 							"/>
						</g>
						<g>
							<polygon fill="#666666" points="356.366,554.147 353.503,552.487 414.577,517.366 417.278,518.976 							"/>
						</g>
					</g>
				</g>
				<g>
					<g enable-background="new    ">
						<g>
							<polygon fill="#5B5B5B" points="411.487,518.946 411.487,521.757 487.646,565.759 487.649,562.917 							"/>
						</g>
						<g>
							<polygon fill="#666666" points="487.646,562.917 487.646,559.69 414.351,517.417 411.483,518.976 							"/>
						</g>
					</g>
				</g>
				<g>
					<g enable-background="new    ">
						<g>
							<polygon fill="#5B5B5B" points="353.362,552.493 353.362,555.306 429.517,599.3 429.524,596.466 							"/>
						</g>
						<g>
							<polygon fill="#666666" points="429.517,596.466 429.517,593.239 356.226,550.958 353.354,552.524 							"/>
						</g>
					</g>
				</g>
				<g>
					<g enable-background="new    ">
						<g>
							<polygon fill="#444444" points="490.433,561.3 490.433,564.165 429.528,599.3 429.517,596.466 							"/>
						</g>
						<g>
							<polygon fill="#666666" points="429.517,596.466 426.649,594.804 487.726,559.677 490.433,561.3 							"/>
						</g>
					</g>
				</g>
			</g>
		</g>
		<g>
			<g>
				<g enable-background="new    ">
					<g>
						<path fill="#4F4F4F" d="M339.22,422.831l-0.296,105.053c-0.007,2.09,1.462,4.637,3.274,5.684l23.24,13.412
							c1.822,1.064,3.299,0.215,3.307-1.875l0.295-105.059L339.22,422.831z"/>
					</g>
					<path fill="#373636" d="M369.04,440.046l-0.295,105.059c0,1.033-0.369,1.771-0.96,2.111l47.399-27.547
						c0.596-0.34,0.961-1.07,0.965-2.119l0.295-105.045L369.04,440.046z"/>
					<g>
						<polygon fill="#575858" points="369.04,440.046 416.444,412.505 386.618,395.284 339.22,422.831 						"/>
					</g>
				</g>
			</g>
			<g>
				<g enable-background="new    ">
					<g>
						<polygon fill="#676767" points="337.647,415.841 337.621,424.183 370.325,443.063 370.347,434.724 						"/>
					</g>
					<g>
						<polygon fill="#484848" points="370.325,443.063 417.724,415.509 417.743,407.175 370.347,434.724 						"/>
					</g>
					<g>
						<polygon fill="#737373" points="370.347,434.724 417.743,407.175 385.05,388.294 337.647,415.841 						"/>
					</g>
				</g>
			</g>
		</g>
		<g>
			<g>
				<g enable-background="new    ">
					<g>
						<polygon fill="#616161" points="425.331,400.163 422.56,398.546 422.755,525.603 425.526,527.212 						"/>
					</g>
					<path fill="#6B6C6C" d="M422.091,395.069c0.037-0.021,0.066-0.037,0.104-0.059c0.043-0.021,0.088-0.045,0.133-0.066
						c0.043-0.021,0.088-0.045,0.133-0.066c0.041-0.021,0.084-0.037,0.125-0.051c0.045-0.016,0.088-0.037,0.133-0.053
						c0.008,0,0.016,0,0.025-0.008c0.012,0,0.012-0.006,0.012-0.006c0.029-0.008,0.059-0.016,0.092-0.031
						c0.049-0.006,0.094-0.021,0.137-0.035c0.045-0.008,0.09-0.023,0.133-0.023c0.053-0.014,0.096-0.021,0.145-0.029
						c0.037-0.008,0.063-0.008,0.1-0.008c0.004,0,0.004,0,0.008,0c0.014,0,0.025-0.006,0.037-0.006
						c0.051-0.008,0.104-0.008,0.154-0.008c0.059,0,0.117,0,0.166,0.014c0.066,0,0.129,0.008,0.191,0.029h0.004l0,0
						c0.074,0.008,0.152,0.031,0.223,0.061c0.092,0.029,0.18,0.072,0.266,0.117c0.922,0.539,1.852,1.078,2.775,1.617
						c-0.148-0.09-0.311-0.148-0.48-0.178c-0.008-0.008-0.008-0.008-0.012-0.008c-0.17-0.037-0.354-0.043-0.549-0.029
						c0,0.008-0.008,0.008-0.008,0.008c-0.199,0.016-0.398,0.059-0.605,0.117c-0.004,0.008-0.008,0.008-0.016,0.008
						c-0.205,0.074-0.428,0.178-0.648,0.303l-54.225,31.313l-2.775-1.617L422.091,395.069z"/>
					<g>
						<path fill="#444444" d="M370.642,427.991c-1.801,1.033-3.255,3.551-3.251,5.633l0.239,127.033l2.717-1.564l-0.162-127.086
							c0-0.303,0.207-0.664,0.465-0.813l54.225-31.305c0.25-0.146,0.457-0.029,0.457,0.273l0.178,127.072l2.863-1.646
							l-0.244-127.043c0-2.074-1.469-2.9-3.262-1.867L370.642,427.991z"/>
					</g>
					<path fill="#767677" d="M364.622,431.858c0.004-0.051,0.004-0.109,0.012-0.162c0-0.051,0-0.104,0.007-0.162
						c0-0.051,0.008-0.104,0.019-0.154c0.012-0.061,0.019-0.111,0.025-0.17l0,0v-0.008c0.008-0.051,0.016-0.104,0.022-0.154
						c0.015-0.053,0.03-0.111,0.037-0.17c0.015-0.053,0.022-0.111,0.04-0.17c0.02-0.053,0.026-0.119,0.049-0.17
						c0.008-0.045,0.018-0.088,0.037-0.125c0-0.008,0.004-0.023,0.004-0.023c0.003-0.008,0.003-0.021,0.007-0.029
						c0.011-0.059,0.04-0.111,0.056-0.17c0.014-0.059,0.033-0.109,0.059-0.162c0.015-0.059,0.033-0.104,0.059-0.162
						c0.016-0.053,0.041-0.104,0.06-0.162c0.019-0.029,0.04-0.074,0.06-0.111c0-0.008,0-0.008,0-0.014c0,0,0.007-0.016,0.007-0.023
						c0.029-0.051,0.052-0.104,0.073-0.162c0.03-0.051,0.057-0.111,0.086-0.17s0.066-0.125,0.1-0.191
						c0.037-0.074,0.073-0.141,0.117-0.207c0.004-0.016,0.016-0.029,0.016-0.037c0.011-0.014,0.021-0.029,0.025-0.045
						c0.078-0.125,0.158-0.258,0.244-0.383c0.066-0.096,0.137-0.199,0.206-0.295c0.044-0.066,0.093-0.125,0.144-0.186
						c0.037-0.059,0.082-0.104,0.122-0.162c0.044-0.045,0.085-0.096,0.13-0.146c0.04-0.045,0.08-0.09,0.125-0.141
						c0.008-0.008,0.019-0.016,0.029-0.023c0,0,0-0.006,0.008-0.006c0.033-0.037,0.066-0.074,0.1-0.104
						c0.041-0.045,0.092-0.096,0.133-0.141c0.052-0.045,0.1-0.088,0.145-0.125c0.051-0.053,0.103-0.09,0.14-0.133
						c0.033-0.023,0.056-0.045,0.085-0.061c0-0.014,0.008-0.014,0.011-0.014c0.022-0.016,0.04-0.021,0.056-0.053
						c0.052-0.029,0.092-0.066,0.145-0.102c0.051-0.031,0.096-0.074,0.14-0.104c0.052-0.023,0.096-0.061,0.144-0.09
						c0.041-0.029,0.089-0.059,0.137-0.08c0.012-0.008,0.022-0.016,0.029-0.023l2.775,1.617c-0.221,0.125-0.436,0.273-0.646,0.443
						c-0.011,0.008-0.019,0.014-0.026,0.021c-0.199,0.17-0.402,0.354-0.59,0.555c-0.004,0-0.008,0.006-0.016,0.006
						c-0.376,0.414-0.723,0.887-1.018,1.389c-0.004,0.008-0.016,0.014-0.02,0.029c-0.143,0.244-0.269,0.502-0.387,0.76v0.008
						c-0.114,0.266-0.215,0.531-0.295,0.797c0,0.008,0,0.008-0.004,0.016c-0.158,0.545-0.251,1.084-0.251,1.609l0.239,127.033
						l-2.779-1.609l-0.232-127.049C364.618,431.948,364.622,431.903,364.622,431.858z"/>
				</g>
			</g>
			<g>
				<g enable-background="new    ">
					<g>
						<polygon fill="#444444" points="425.448,415.495 425.36,418.388 370.162,450.239 370.173,447.397 						"/>
					</g>
					<g>
						<polygon fill="#666666" points="370.173,447.397 370.162,444.104 422.601,413.96 425.302,415.567 						"/>
					</g>
				</g>
			</g>
		</g>
		<g>
			<g>
				<g enable-background="new    ">
					<g>
						<path fill="#DB2D29" d="M407.962,558.747l2.969,14.814c0.002,0.93,0.66,1.299,1.469,0.834l54.789-31.631
							c0.803-0.473,1.457-1.602,1.457-2.523l2.875-18.195L407.962,558.747z"/>
					</g>
					<path fill="#A41E22" d="M407.962,558.747l2.969,14.814c0,0.109,0.01,0.213,0.029,0.316c0,0,0,0,0,0.008
						c0.021,0.096,0.051,0.178,0.084,0.25c0.004,0.008,0.004,0.008,0.004,0.016c0.021,0.045,0.055,0.08,0.082,0.117
						c0.063,0.098,0.139,0.178,0.225,0.23l-36.291-21.09c-0.085-0.059-0.162-0.133-0.222-0.221
						c-0.011-0.016-0.022-0.023-0.029-0.023c-0.019-0.037-0.04-0.072-0.06-0.109l0,0v-0.008c-0.014-0.021-0.021-0.053-0.029-0.074
						s-0.018-0.045-0.029-0.08c-0.008-0.016-0.008-0.045-0.015-0.066c0-0.016-0.007-0.023-0.007-0.031
						c0-0.006-0.004-0.006-0.004-0.014s0-0.023-0.004-0.029c-0.008-0.023-0.008-0.045-0.008-0.066
						c-0.011-0.023-0.011-0.053-0.011-0.074s-0.004-0.045-0.004-0.066c-0.007-0.021-0.007-0.045-0.007-0.066v-0.008l-2.961-14.822
						L407.962,558.747z"/>
				</g>
			</g>
			<g enable-background="new    ">
				<g>
					<polygon fill="#EF4140" points="406.589,558.03 406.597,560.134 472.831,521.89 472.827,519.786 					"/>
				</g>
				<g>
					<polygon fill="#A41E22" points="406.589,558.03 370.302,536.94 370.306,539.038 406.597,560.134 					"/>
				</g>
				<g>
					<polygon fill="#DB2D29" points="472.827,519.786 436.536,498.698 370.302,536.94 406.589,558.03 					"/>
					<polygon fill="#B92025" points="374.414,536.948 390.122,546.071 406.597,555.653 449.194,531.044 468.712,519.786 
						436.532,501.089 436.511,501.097 433.237,502.993 					"/>
				</g>
			</g>
			<path fill="#A41E22" d="M433.636,519.278l2.875-18.182l0.021-0.008l32.18,18.697l-19.518,11.258l-16.537-9.619
				C433.229,520.872,433.642,520.009,433.636,519.278z"/>
			<path fill="#C92027" d="M436.511,501.097l-2.875,18.182c0.006,0.73-0.406,1.594-0.979,2.146
				c-0.152,0.148-0.307,0.273-0.477,0.369l-42.059,24.277l-15.708-9.123L436.511,501.097z"/>
			<g>
				<g>
					<g>
						<g enable-background="new    ">
							<g>
								<polygon fill="#19A15B" points="431.708,538.425 431.712,539.79 445.194,532.011 445.19,530.646 								"/>
							</g>
							<g>
								<polygon fill="#127C47" points="431.708,538.425 422.755,533.222 422.763,534.595 431.712,539.79 								"/>
							</g>
							<g>
								<polygon fill="#10864F" points="445.19,530.646 436.241,525.435 422.755,533.222 431.708,538.425 								"/>
							</g>
						</g>
					</g>
					<g>
						<g enable-background="new    ">
							<g>
								<polygon fill="#EA576A" points="431.702,533.073 431.716,538.417 445.202,530.63 445.183,525.286 								"/>
							</g>
							<g>
								<polygon fill="#C2444E" points="431.702,533.073 422.755,527.87 422.763,533.206 431.716,538.417 								"/>
							</g>
							<g>
								<polygon fill="#D84C57" points="445.183,525.286 436.233,520.083 422.755,527.87 431.702,533.073 								"/>
							</g>
						</g>
					</g>
				</g>
				<g>
					<g>
						<g enable-background="new    ">
							<g>
								<polygon fill="#19A15B" points="431.708,530.948 431.712,532.327 445.194,524.54 445.19,523.167 								"/>
							</g>
							<g>
								<polygon fill="#127C47" points="431.708,530.948 422.755,525.751 422.763,527.124 431.712,532.327 								"/>
							</g>
							<g>
								<polygon fill="#10864F" points="445.19,523.167 436.241,517.964 422.755,525.751 431.708,530.948 								"/>
							</g>
						</g>
					</g>
					<g>
						<g enable-background="new    ">
							<g>
								<polygon fill="#53BD8E" points="431.702,525.597 431.716,530.933 445.202,523.153 445.183,517.815 								"/>
							</g>
							<g>
								<polygon fill="#19AA7D" points="431.702,525.597 422.755,520.399 422.763,525.735 431.716,530.933 								"/>
							</g>
							<g>
								<polygon fill="#33B886" points="445.183,517.815 436.233,512.604 422.755,520.399 431.702,525.597 								"/>
							</g>
						</g>
					</g>
				</g>
			</g>
			<g>
				<g>
					<g enable-background="new    ">
						<g>
							<polygon fill="#19A15B" points="406.243,550.413 406.247,551.778 419.731,543.997 419.722,542.632 							"/>
						</g>
						<g>
							<polygon fill="#127C47" points="406.243,550.413 397.288,545.208 397.288,546.581 406.247,551.778 							"/>
						</g>
						<g>
							<polygon fill="#10864F" points="419.722,542.632 410.774,537.421 397.288,545.208 406.243,550.413 							"/>
						</g>
					</g>
				</g>
				<g>
					<g enable-background="new    ">
						<g>
							<polygon fill="#EACE34" points="406.235,545.054 406.251,550.397 419.735,542.61 419.722,537.267 							"/>
						</g>
						<g>
							<polygon fill="#B9A732" points="406.235,545.054 397.282,539.856 397.3,545.194 406.251,550.397 							"/>
						</g>
						<g>
							<polygon fill="#CFBA2B" points="419.722,537.267 410.765,532.062 397.282,539.856 406.235,545.054 							"/>
						</g>
					</g>
				</g>
			</g>
		</g>
		<g>
			<g>
				<g enable-background="new    ">
					<g>
						<path fill="#DB2D29" d="M407.962,515.534l2.969,14.822c0.002,0.916,0.66,1.299,1.469,0.834l54.789-31.637
							c0.803-0.465,1.457-1.594,1.457-2.516l2.875-18.195L407.962,515.534z"/>
					</g>
					<path fill="#A41E22" d="M407.962,515.534l2.969,14.822c0,0.111,0.01,0.215,0.029,0.318l0,0
						c0.021,0.096,0.051,0.184,0.084,0.258c0.004,0,0.004,0,0.004,0c0.021,0.053,0.055,0.096,0.082,0.133
						c0.063,0.088,0.139,0.178,0.225,0.223l-36.291-21.09c-0.085-0.045-0.162-0.125-0.222-0.221
						c-0.011-0.016-0.022-0.016-0.029-0.023c-0.019-0.037-0.04-0.072-0.06-0.109l0,0l0,0c-0.014-0.023-0.021-0.045-0.029-0.074
						s-0.018-0.053-0.029-0.074c-0.008-0.029-0.008-0.051-0.015-0.074c0-0.014-0.007-0.029-0.007-0.029
						c0-0.008-0.004-0.008-0.004-0.014c0-0.008,0-0.023-0.004-0.031c-0.008-0.029-0.008-0.043-0.008-0.066
						c-0.011-0.029-0.011-0.051-0.011-0.072c0-0.023-0.004-0.045-0.004-0.066c-0.007-0.023-0.007-0.045-0.007-0.074c0,0,0,0,0-0.008
						l-2.961-14.814L407.962,515.534z"/>
				</g>
			</g>
			<g>
				<g enable-background="new    ">
					<g>
						<polygon fill="#EF4140" points="406.589,514.827 406.597,516.923 472.831,478.687 472.827,476.583 						"/>
					</g>
					<g>
						<polygon fill="#A41E22" points="406.589,514.827 370.302,493.729 370.306,495.835 406.597,516.923 						"/>
					</g>
					<g>
						<polygon fill="#DB2D29" points="472.827,476.583 436.536,455.495 370.302,493.729 406.589,514.827 						"/>
						<polygon fill="#C12326" points="374.414,493.745 390.122,502.876 406.597,512.45 449.194,487.847 468.712,476.575 
							436.532,457.878 436.511,457.886 433.237,459.782 						"/>
					</g>
				</g>
			</g>
			<path fill="#A41E22" d="M433.636,476.073l2.875-18.188l0.021-0.008l32.18,18.697l-19.518,11.271l-16.537-9.633
				C433.229,477.661,433.642,476.798,433.636,476.073z"/>
			<path fill="#DB2D29" d="M436.511,457.886l-2.875,18.188c0.006,0.725-0.406,1.588-0.979,2.141
				c-0.152,0.148-0.307,0.281-0.477,0.369l-42.059,24.293l-15.708-9.131L436.511,457.886z"/>
			<g>
				<g>
					<polygon fill="#6EACDD" points="444.099,468.737 443.231,484.267 429.896,491.966 428.14,488.231 427.487,478.325 					"/>
					<g>
						<g enable-background="new    ">
							<g>
								<polygon fill="#3A8ECC" points="427.487,478.325 412.376,469.548 413.741,490.253 428.853,499.038 								"/>
							</g>
							<g>
								<polygon fill="#D8B129" points="444.099,468.737 428.995,459.952 412.376,469.548 427.487,478.325 								"/>
							</g>
						</g>
					</g>
					<polygon fill="#6EACDD" points="429.028,493.464 443.179,485.3 442.862,490.948 428.853,499.038 428.388,492.011 					"/>
					<polygon fill="#474746" points="439.087,465.304 439.95,465.806 441.71,470.11 441.179,470.419 					"/>
					<g>
						<g>
							<polygon fill="#8B8B8B" points="446.687,482.274 445.821,481.772 429.028,491.464 429.896,491.966 							"/>
						</g>
						<polygon fill="#A2A2A1" points="443.667,476.503 443.747,475.093 446.687,482.274 445.821,481.772 						"/>
						<polygon fill="#BFBEBE" points="422.349,475.935 429.896,491.966 446.687,482.274 443.747,475.063 443.858,473.128 
							447.556,482.769 429.028,493.464 421.485,476.437 						"/>
						<g>
							<polygon fill="#A2A2A1" points="421.478,476.437 420.614,475.935 428.165,492.956 429.028,493.464 							"/>
						</g>
					</g>
					<g>
						<polygon fill="#8B8B8B" points="422.349,475.935 421.485,475.438 420.622,475.935 421.485,476.437 						"/>
					</g>
					<g>
						<g>
							<g enable-background="new    ">
								<g>
									<polygon fill="#58A2D9" points="426.974,478.142 426.974,479.138 444.679,468.913 444.671,467.917 									"/>
								</g>
								<g>
									<polygon fill="#197AB3" points="426.974,478.142 411.864,469.364 411.868,470.36 426.974,479.138 									"/>
								</g>
								<g>
									<polygon fill="#2C9CD7" points="444.671,467.917 429.562,459.142 411.864,469.364 426.974,478.142 									"/>
									<polygon fill="#1C7AB3" points="413.085,469.364 413.093,469.372 426.974,477.425 428.646,476.458 443.452,467.917 
										429.575,459.849 429.575,459.849 429.567,459.849 									"/>
								</g>
							</g>
						</g>
						<g>
							<polygon fill="#4B9CD5" points="413.093,469.372 426.974,477.425 428.646,476.458 429.575,459.849 429.575,459.849 
								429.567,459.849 							"/>
						</g>
					</g>
				</g>
				<g>
					<polygon fill="#DB2D29" points="424.149,479.647 423.278,495.185 409.948,502.884 408.185,499.142 407.53,489.235 					"/>
					<g>
						<g enable-background="new    ">
							<g>
								<polygon fill="#B82025" points="407.53,489.235 392.425,480.466 393.798,501.171 408.899,509.948 								"/>
							</g>
							<g>
								<polygon fill="#D8B129" points="424.149,479.647 409.044,470.87 392.425,480.466 407.53,489.235 								"/>
							</g>
						</g>
					</g>
					<polygon fill="#DB2D29" points="409.077,504.374 423.22,496.21 422.909,501.856 408.899,509.948 408.435,502.927 					"/>
					<polygon fill="#474746" points="419.138,476.229 420.001,476.724 421.759,481.026 421.228,481.329 					"/>
					<g>
						<g>
							<polygon fill="#8B8B8B" points="426.733,493.192 425.87,492.69 409.077,502.382 409.948,502.884 							"/>
						</g>
						<polygon fill="#A2A2A1" points="423.71,487.419 423.792,486.001 426.733,493.192 425.87,492.69 						"/>
						<polygon fill="#BFBEBE" points="402.401,486.851 409.948,502.884 426.733,493.192 423.796,485.972 423.899,484.038 
							427.608,493.679 409.077,504.374 401.534,487.353 						"/>
						<g>
							<polygon fill="#A2A2A1" points="401.526,487.353 400.663,486.851 408.214,503.88 409.077,504.374 							"/>
						</g>
					</g>
					<g>
						<polygon fill="#8B8B8B" points="402.397,486.851 401.534,486.349 400.663,486.851 401.526,487.353 						"/>
					</g>
					<g>
						<g>
							<g enable-background="new    ">
								<g>
									<polygon fill="#EF4140" points="407.019,489.058 407.019,490.054 424.722,479.831 424.722,478.827 									"/>
								</g>
								<g>
									<polygon fill="#A41E22" points="407.019,489.058 391.911,480.274 391.911,481.278 407.019,490.054 									"/>
								</g>
								<g>
									<polygon fill="#DB2D29" points="424.722,478.827 409.612,470.058 391.911,480.274 407.019,489.058 									"/>
									<polygon fill="#A41E22" points="393.134,480.274 393.138,480.282 407.019,488.343 408.692,487.374 423.501,478.827 
										409.624,470.767 409.624,470.767 409.612,470.767 									"/>
								</g>
							</g>
						</g>
						<g>
							<polygon fill="#DB2D29" points="393.138,480.282 407.019,488.343 408.692,487.374 409.624,470.767 409.624,470.767 
								409.612,470.767 							"/>
						</g>
					</g>
				</g>
			</g>
		</g>
		<g>
			<g>
				<g enable-background="new    ">
					<g>
						<path fill="#2D87C8" d="M407.962,472.331l2.969,14.814c0.002,0.924,0.66,1.299,1.469,0.842l54.789-31.637
							c0.803-0.465,1.457-1.602,1.457-2.523l2.875-18.189L407.962,472.331z"/>
					</g>
					<path fill="#3574A6" d="M407.962,472.331l2.969,14.814c0,0.119,0.01,0.223,0.029,0.318c0,0,0,0,0,0.008
						c0.021,0.096,0.051,0.176,0.088,0.258l0,0c0.021,0.051,0.055,0.088,0.082,0.141c0.063,0.08,0.139,0.162,0.225,0.221
						l-36.291-21.096c-0.085-0.053-0.155-0.133-0.222-0.229c-0.011,0-0.019-0.008-0.029-0.023c-0.019-0.029-0.04-0.059-0.06-0.096
						l0,0v-0.008c-0.007-0.029-0.021-0.051-0.029-0.072c-0.008-0.031-0.018-0.061-0.029-0.082c-0.008-0.021-0.008-0.051-0.015-0.074
						c0-0.008-0.007-0.021-0.007-0.037c0,0,0,0-0.004,0c0-0.014,0-0.021-0.004-0.037c-0.008-0.014-0.008-0.043-0.008-0.066
						c-0.008-0.021-0.011-0.035-0.011-0.066c0-0.021-0.004-0.051-0.004-0.072c-0.007-0.016-0.007-0.045-0.007-0.066l0,0
						l-2.961-14.83L407.962,472.331z"/>
				</g>
			</g>
			<g>
				<polygon fill="#4091CA" points="472.827,433.38 436.536,412.29 370.295,450.534 406.593,471.622 				"/>
				<polygon fill="#1F5E87" points="374.414,450.542 390.122,459.665 406.597,469.239 449.194,444.644 468.712,433.38 
					436.532,414.675 436.511,414.683 433.237,416.579 				"/>
			</g>
			<path fill="#3574A6" d="M433.636,432.87l2.875-18.188l0.021-0.008l32.18,18.705l-19.518,11.264l-16.537-9.633
				C433.229,434.458,433.642,433.601,433.636,432.87z"/>
			<path fill="#2D87C8" d="M436.511,414.683l-2.875,18.188c0.006,0.73-0.406,1.588-0.979,2.141
				c-0.152,0.141-0.307,0.281-0.477,0.369l-42.059,24.285l-15.708-9.123L436.511,414.683z"/>
			<g>
				<g>
					<polygon fill="#E1B624" points="453.739,421.378 452.782,438.517 438.063,447.021 436.122,442.901 435.407,431.97 					"/>
					<g>
						<g enable-background="new    ">
							<g>
								<polygon fill="#B7972F" points="435.407,431.97 418.731,422.278 420.237,445.132 436.909,454.823 								"/>
							</g>
							<g>
								<polygon fill="#D8B129" points="453.739,421.378 437.067,411.692 418.731,422.278 435.407,431.97 								"/>
							</g>
						</g>
					</g>
					<polygon fill="#E1B624" points="437.104,448.675 452.716,439.653 452.37,445.899 436.909,454.823 436.396,447.071 					"/>
					<polygon fill="#474746" points="448.206,417.606 449.159,418.159 451.101,422.897 450.513,423.237 					"/>
					<g>
						<g>
							<polygon fill="#8B8B8B" points="456.587,436.325 455.64,435.771 437.108,446.468 438.063,447.021 							"/>
						</g>
						<polygon fill="#A2A2A1" points="453.259,429.954 453.343,428.397 456.587,436.325 455.64,435.771 						"/>
						<polygon fill="#BFBEBE" points="429.737,429.335 438.063,447.021 456.587,436.325 453.351,428.368 453.466,426.235 
							457.552,436.87 437.104,448.675 428.778,429.888 						"/>
						<g>
							<polygon fill="#A2A2A1" points="428.774,429.888 427.819,429.335 436.151,448.12 437.104,448.675 							"/>
						</g>
					</g>
					<g>
						<polygon fill="#8B8B8B" points="429.733,429.335 428.778,428.78 427.825,429.335 428.778,429.888 						"/>
					</g>
					<g>
						<g>
							<g enable-background="new    ">
								<g>
									<polygon fill="#F3C716" points="434.835,431.755 434.835,432.856 454.37,421.585 454.366,420.483 									"/>
								</g>
								<g>
									<polygon fill="#A2832F" points="434.835,431.755 418.163,422.079 418.171,423.179 434.835,432.856 									"/>
								</g>
								<g>
									<polygon fill="#B4932F" points="454.366,420.483 437.702,410.792 418.163,422.079 434.835,431.755 									"/>
									<polygon fill="#735F26" points="419.507,422.079 419.515,422.079 434.835,430.981 436.681,429.911 453.019,420.483 
										437.71,411.583 437.71,411.575 437.702,411.575 									"/>
								</g>
							</g>
						</g>
						<g>
							<polygon fill="#85722D" points="419.515,422.079 434.835,430.981 436.681,429.911 437.71,411.583 437.71,411.575 
								437.702,411.575 							"/>
						</g>
					</g>
				</g>
				<g>
					<polygon fill="#147C3E" points="432.077,433.741 431.122,450.888 416.399,459.384 414.466,455.259 413.741,444.327 					"/>
					<g>
						<g enable-background="new    ">
							<g>
								<polygon fill="#146E38" points="413.741,444.327 397.067,434.634 398.581,457.495 415.247,467.187 								"/>
							</g>
							<g>
								<polygon fill="#D8B129" points="432.077,433.741 415.411,424.05 397.067,434.634 413.741,444.327 								"/>
							</g>
						</g>
					</g>
					<polygon fill="#147C3E" points="415.448,461.03 431.06,452.024 430.712,458.263 415.247,467.187 414.743,459.437 					"/>
					<polygon fill="#474746" points="426.55,429.97 427.501,430.522 429.438,435.269 428.853,435.601 					"/>
					<g>
						<g>
							<polygon fill="#8B8B8B" points="434.935,448.688 433.978,448.136 415.448,458.831 416.399,459.384 							"/>
						</g>
						<polygon fill="#A2A2A1" points="431.599,442.325 431.687,440.761 434.935,448.688 433.978,448.136 						"/>
						<polygon fill="#BFBEBE" points="408.081,441.69 416.399,459.384 434.935,448.688 431.687,440.724 431.804,438.591 
							435.894,449.228 415.448,461.03 407.12,442.253 						"/>
						<g>
							<polygon fill="#A2A2A1" points="407.114,442.253 406.165,441.69 414.495,460.483 415.448,461.03 							"/>
						</g>
					</g>
					<g>
						<polygon fill="#8B8B8B" points="408.073,441.69 407.12,441.138 406.165,441.69 407.114,442.253 						"/>
					</g>
					<g>
						<g>
							<g enable-background="new    ">
								<g>
									<polygon fill="#199346" points="413.173,444.128 413.173,445.22 432.716,433.948 432.712,432.849 									"/>
								</g>
								<g>
									<polygon fill="#195C2E" points="413.173,444.128 396.507,434.442 396.507,435.542 413.173,445.22 									"/>
								</g>
								<g>
									<polygon fill="#166131" points="432.712,432.849 416.038,423.157 396.507,434.442 413.173,444.128 									"/>
									<polygon fill="#1D5228" points="397.851,434.442 397.856,434.45 413.173,443.337 415.019,442.274 431.362,432.849 
										416.05,423.946 416.05,423.938 416.038,423.938 									"/>
								</g>
							</g>
						</g>
						<g>
							<polygon fill="#146E38" points="397.856,434.45 413.173,443.337 415.019,442.274 416.05,423.946 416.05,423.938 
								416.038,423.938 							"/>
						</g>
					</g>
				</g>
			</g>
			<polygon fill="#4091CA" points="468.712,433.38 406.597,469.239 406.593,471.622 472.827,433.38 			"/>
			<g>
				<g>
					<path fill="#5E5D27" d="M391.745,458.757c-2.631,1.521-2.631,3.979,0,5.5c2.629,1.512,6.891,1.512,9.52,0
						c2.627-1.521,2.627-3.979,0-5.5C398.636,457.243,394.374,457.243,391.745,458.757z"/>
					<path fill="#797C32" d="M391.272,456.956c-2.893,1.668-2.893,4.377,0,6.045c2.887,1.676,7.574,1.676,10.463,0
						c2.895-1.668,2.895-4.377,0-6.045C398.847,455.288,394.159,455.288,391.272,456.956z"/>
					<rect x="389.103" y="456.233" fill="#797C32" width="14.807" height="3.748"/>
					<path fill="#818535" d="M391.272,453.206c-2.893,1.668-2.893,4.377,0,6.045c2.887,1.668,7.574,1.668,10.463,0
						c2.895-1.668,2.895-4.377,0-6.045C398.847,451.538,394.159,451.538,391.272,453.206z"/>
					<polygon fill="#27B34B" points="389.601,454.144 403.438,454.247 403.851,455.7 389.161,455.7 					"/>
					<path fill="#8E9A39" d="M391.554,451.944c-2.738,1.58-2.738,4.133,0,5.713c2.73,1.588,7.168,1.588,9.902,0
						c2.734-1.58,2.734-4.133,0-5.713C398.722,450.372,394.284,450.372,391.554,451.944z"/>
					<rect x="389.501" y="432.065" fill="#8E9A39" width="14.004" height="22.676"/>
					<path fill="#A6AB37" d="M391.554,429.21c-2.738,1.572-2.738,4.133,0,5.713c2.73,1.58,7.168,1.58,9.902,0s2.734-4.141,0-5.713
						C398.722,427.63,394.284,427.63,391.554,429.21z"/>
					<path fill="#797C32" d="M393.267,430.722c0.17-0.258,0.428-0.494,0.789-0.707c1.359-0.783,3.543-0.783,4.895,0
						c0.365,0.213,0.627,0.449,0.789,0.707h0.225v0.701l0,0c0,0.518-0.338,1.02-1.014,1.41c-1.352,0.791-3.535,0.791-4.895,0
						c-0.672-0.391-1.008-0.893-1.008-1.41v-0.701H393.267z"/>
					<path fill="#A6AB37" d="M394.056,429.312c1.352-0.773,3.543-0.773,4.895,0c0.676,0.393,1.014,0.902,1.014,1.41
						c0,0.518-0.338,1.027-1.014,1.418c-1.352,0.783-3.543,0.783-4.895,0c-0.672-0.391-1.008-0.9-1.012-1.418
						C393.044,430.214,393.384,429.704,394.056,429.312z"/>
					<g>
						<path fill="#D31F33" d="M393.37,427.534v2.975c0,0.375,0.205,0.76,0.615,1.084c0.092,0.061,0.189,0.133,0.299,0.193
							c0.082,0.051,0.17,0.088,0.256,0.133c0.283,0.133,0.602,0.236,0.941,0.295c0.18,0.043,0.365,0.066,0.549,0.088
							c0.314,0.021,0.639,0.021,0.949,0c0.184-0.029,0.369-0.051,0.545-0.088c0.34-0.059,0.658-0.162,0.945-0.303
							c0.088-0.037,0.17-0.082,0.256-0.125c0.113-0.061,0.201-0.133,0.299-0.199c0.412-0.318,0.619-0.703,0.619-1.078v-2.975
							c0,0.369-0.207,0.752-0.619,1.076c-0.098,0.066-0.186,0.133-0.299,0.199c-0.086,0.053-0.168,0.09-0.256,0.135
							c-0.287,0.133-0.605,0.229-0.945,0.301c-0.176,0.031-0.361,0.061-0.545,0.074c-0.311,0.023-0.635,0.023-0.949,0
							c-0.184-0.014-0.369-0.043-0.549-0.074c-0.34-0.072-0.658-0.168-0.941-0.301c-0.086-0.045-0.174-0.082-0.256-0.135
							c-0.109-0.066-0.207-0.125-0.299-0.191c-0.158-0.133-0.291-0.266-0.395-0.406C393.437,427.991,393.37,427.763,393.37,427.534z
							"/>
						<path fill="#E81D31" d="M394.284,426.241c1.227-0.709,3.211-0.709,4.441,0c0.615,0.355,0.922,0.828,0.918,1.293
							c0,0.457-0.307,0.922-0.918,1.275c-1.23,0.703-3.215,0.703-4.441,0c-0.611-0.354-0.914-0.818-0.914-1.275
							C393.37,427.069,393.673,426.597,394.284,426.241z"/>
						<g>
							<path fill="#BB2029" d="M398.47,428.944v2.967c0.088-0.037,0.17-0.082,0.256-0.125c0.113-0.061,0.201-0.133,0.299-0.199
								v-2.977c-0.098,0.066-0.186,0.133-0.299,0.199C398.64,428.862,398.558,428.899,398.47,428.944z"/>
							<path fill="#BB2029" d="M396.979,429.319v2.982c0.184-0.029,0.369-0.051,0.545-0.088v-2.969
								C397.349,429.276,397.163,429.306,396.979,429.319z"/>
							<path fill="#BB2029" d="M395.481,429.245v2.969c0.18,0.043,0.365,0.066,0.549,0.088v-2.982
								C395.847,429.306,395.661,429.276,395.481,429.245z"/>
							<path fill="#BB2029" d="M393.985,428.618v2.975c0.092,0.061,0.189,0.133,0.299,0.193c0.082,0.051,0.17,0.088,0.256,0.133
								v-2.975c-0.086-0.045-0.174-0.082-0.256-0.135C394.175,428.743,394.077,428.685,393.985,428.618z"/>
						</g>
					</g>
					<path fill="#9A5E26" d="M389.501,438.878c0,1.027,0.691,2.053,2.053,2.842c2.73,1.58,7.168,1.58,9.902,0
						c1.361-0.789,2.049-1.814,2.049-2.842v13.266c0.004,1.041-0.68,2.074-2.049,2.871c-2.734,1.572-7.172,1.572-9.902,0
						c-1.373-0.797-2.057-1.83-2.053-2.871V438.878L389.501,438.878z"/>
				</g>
				<path opacity="0.3" fill="#FFFFFF" d="M399.644,456.247c0,0.725,0.584,0.967,1.311,0.555l0,0
					c0.723-0.414,1.311-1.344,1.311-2.068v-17.508c0-0.723-0.588-0.967-1.311-0.561l0,0c-0.727,0.42-1.311,1.344-1.311,2.074
					V456.247z"/>
			</g>
			<g>
				<defs>
					<filter id="Adobe_OpacityMaskFilter" filterUnits="userSpaceOnUse" x="400.802" y="455.368" width="11.275" height="14.719">
						<feFlood  style="flood-color:white;flood-opacity:1" result="back"/>
						<feBlend  in="SourceGraphic" in2="back" mode="normal"/>
					</filter>
				</defs>
				<mask maskUnits="userSpaceOnUse" x="400.802" y="455.368" width="11.275" height="14.719" id="SVGID_1_">
					<g filter="url(#Adobe_OpacityMaskFilter)">
						<defs>
							
								<filter id="Adobe_OpacityMaskFilter_1_" filterUnits="userSpaceOnUse" x="400.802" y="455.368" width="11.275" height="14.719">
								<feFlood  style="flood-color:white;flood-opacity:1" result="back"/>
								<feBlend  in="SourceGraphic" in2="back" mode="normal"/>
							</filter>
						</defs>
						<mask maskUnits="userSpaceOnUse" x="400.802" y="455.368" width="11.275" height="14.719" id="SVGID_1_">
							<g filter="url(#Adobe_OpacityMaskFilter_1_)">
							</g>
						</mask>
						
							<linearGradient id="SVGID_2_" gradientUnits="userSpaceOnUse" x1="217.0073" y1="470.6367" x2="217.0073" y2="457.8355" gradientTransform="matrix(-1 0 0 1 623.4463 0)">
							<stop  offset="0.005" style="stop-color:#FFFFFF"/>
							<stop  offset="1" style="stop-color:#808080"/>
						</linearGradient>
						<path mask="url(#SVGID_1_)" fill="url(#SVGID_2_)" d="M400.802,465.142c0-2.406,2.637-4.451,3.234-5.373
							c0.602-0.93,0.834-4.4,0.834-4.4l1.564,0.082l1.58-0.082c0,0,0.232,3.471,0.834,4.4c0.598,0.922,3.229,2.967,3.229,5.373
							s-2.381,4.945-5.635,4.945l0,0c0,0,0,0-0.008,0l0,0l0,0C403.187,470.087,400.802,467.548,400.802,465.142z"/>
					</g>
				</mask>
				
					<linearGradient id="SVGID_3_" gradientUnits="userSpaceOnUse" x1="217.0073" y1="470.6367" x2="217.0073" y2="457.8355" gradientTransform="matrix(-1 0 0 1 623.4463 0)">
					<stop  offset="0.005" style="stop-color:#56A1D9"/>
					<stop  offset="1" style="stop-color:#86B7E2"/>
				</linearGradient>
				<path fill="url(#SVGID_3_)" d="M400.802,465.142c0-2.406,2.637-4.451,3.234-5.373c0.602-0.93,0.834-4.4,0.834-4.4l1.564,0.082
					l1.58-0.082c0,0,0.232,3.471,0.834,4.4c0.598,0.922,3.229,2.967,3.229,5.373s-2.381,4.945-5.635,4.945l0,0c0,0,0,0-0.008,0l0,0
					l0,0C403.187,470.087,400.802,467.548,400.802,465.142z"/>
				<g opacity="0.4">
					<path fill="#56A1D9" d="M403.962,466.634c-1.365,0.789-1.365,2.074,0,2.855c1.373,0.797,3.592,0.797,4.957,0
						c1.369-0.781,1.369-2.066,0-2.855C407.554,465.843,405.335,465.843,403.962,466.634z"/>
				</g>
				<g>
					<path opacity="0.5" fill="#2E6286" d="M406.778,465.519c-0.186-0.104-0.488-0.104-0.676,0
						c-0.092,0.051-0.141,0.117-0.141,0.191v-9.654c0,0.074,0.049,0.133,0.141,0.191c0.188,0.104,0.49,0.104,0.676,0
						c0.092-0.059,0.137-0.117,0.137-0.191v9.654C406.915,465.636,406.87,465.569,406.778,465.519z"/>
					<path opacity="0.7" fill="#2E6286" d="M405.962,465.71c0-0.074,0.049-0.141,0.141-0.191c0.188-0.104,0.49-0.104,0.676,0
						c0.092,0.051,0.137,0.117,0.137,0.191l0,0l0,0c0,0.066-0.045,0.141-0.137,0.191c-0.186,0.111-0.488,0.111-0.676,0
						C406.011,465.851,405.962,465.776,405.962,465.71L405.962,465.71L405.962,465.71z"/>
					<path fill="#2E6286" d="M405.962,456.056c0-0.074,0.049-0.148,0.141-0.199c0.188-0.104,0.49-0.104,0.676,0
						c0.092,0.051,0.137,0.125,0.137,0.199l0,0l0,0c0,0.074-0.045,0.133-0.137,0.191c-0.186,0.104-0.488,0.104-0.676,0
						C406.011,456.188,405.962,456.13,405.962,456.056L405.962,456.056L405.962,456.056z"/>
				</g>
				<g opacity="0.4">
					<path fill="#85CEF3" d="M402.456,462.647c-2.199,1.277-2.199,3.336,0,4.605c2.199,1.262,5.771,1.262,7.973,0
						c2.199-1.27,2.199-3.328,0-4.605C408.228,461.378,404.655,461.378,402.456,462.647z"/>
				</g>
				<g>
					<path fill="#A0B0BE" d="M404.87,455.405h-0.008l0.125-0.885l2.908-0.008l0.119,0.842c0,0.008,0,0.008,0,0.008v0.006l0,0
						c0.037,0.26-0.115,0.525-0.459,0.725c-0.615,0.354-1.611,0.354-2.229,0C404.995,455.907,404.851,455.649,404.87,455.405z"/>
					<path fill="#AFBDCC" d="M405.415,453.929c-0.568,0.326-0.568,0.85,0,1.189c0.566,0.324,1.488,0.324,2.053,0
						c0.568-0.34,0.568-0.863,0-1.189C406.903,453.597,405.981,453.597,405.415,453.929z"/>
					<g>
						<path fill="#849CB1" d="M404.987,454.122v-1.359h2.908v1.359c0,0.213-0.141,0.428-0.428,0.605
							c-0.564,0.324-1.486,0.324-2.053,0C405.128,454.55,404.987,454.335,404.987,454.122z"/>
						<path fill="#AFBDCC" d="M405.415,452.165c-0.568,0.332-0.568,0.863,0,1.189c0.566,0.324,1.488,0.324,2.053,0
							c0.568-0.326,0.568-0.857,0-1.189C406.903,451.841,405.981,451.841,405.415,452.165z"/>
					</g>
				</g>
				<path opacity="0.5" fill="#FFFFFF" d="M404.987,460.175c0,0.242,0.193,0.545,0.436,0.686l0,0
					c0.244,0.148,0.436,0.059,0.436-0.176v-3.205c0-0.236-0.191-0.553-0.436-0.686l0,0c-0.242-0.141-0.436-0.059-0.436,0.178
					V460.175z"/>
				<path opacity="0.5" fill="#FFFFFF" d="M402.448,463.2c0,0.701,0.568,1.27,1.27,1.27s1.27-0.568,1.27-1.27
					s-0.568-1.277-1.27-1.277S402.448,462.499,402.448,463.2z"/>
				<g>
					<g>
						<g>
							<polygon fill="#0378A7" points="406.165,452.181 405.032,451.517 405.054,452.837 406.187,453.501 							"/>
						</g>
						<g>
							<g enable-background="new    ">
								<g>
									<path fill="#642466" d="M404.585,452.327c0.24,1.389-0.848,2.879-0.908,2.961l0.396-0.229
										c1.174-1.299,1.24-2.703,1.25-2.775L404.585,452.327z"/>
								</g>
								<path fill="#A256A2" d="M403.726,455.214c-0.008,0.016-0.016,0.021-0.021,0.029v0.008c-0.008,0.008-0.008,0.008-0.016,0.016
									c0,0.006,0,0.006-0.004,0.006c-0.004,0.008-0.004,0.016-0.008,0.016l-0.541-0.318c0.004,0,0.006-0.006,0.006-0.014
									c0,0,0,0,0.012-0.008c0,0,0,0,0.012-0.016c0,0,0-0.006,0.008-0.014c0,0,0-0.008,0.01-0.016
									c0.004-0.006,0.004-0.006,0.012-0.014c0-0.008,0.008-0.016,0.014-0.023c0-0.006,0.008-0.014,0.012-0.014
									c0.008-0.016,0.021-0.029,0.033-0.045c0-0.014,0.008-0.014,0.008-0.021c0.008-0.021,0.025-0.045,0.041-0.059
									c0.004,0,0.01-0.016,0.018-0.031c0.008-0.014,0.016-0.035,0.037-0.051c0-0.008,0.008-0.021,0.012-0.029
									c0.018-0.021,0.025-0.053,0.047-0.082c0,0,0.008-0.006,0.008-0.014c0.016-0.023,0.029-0.053,0.051-0.082
									c0.008-0.008,0.008-0.021,0.016-0.037c0.016-0.021,0.021-0.037,0.037-0.066c0.008-0.006,0.016-0.014,0.021-0.037
									c0.016-0.035,0.041-0.072,0.063-0.117c0.004-0.008,0.008-0.016,0.008-0.021c0.02-0.031,0.025-0.053,0.041-0.09
									c0.012-0.014,0.018-0.029,0.025-0.051c0.012-0.016,0.02-0.029,0.029-0.059c0.012-0.016,0.016-0.031,0.023-0.045
									c0.006-0.021,0.01-0.037,0.018-0.059c0.008-0.023,0.02-0.037,0.029-0.061c0.008-0.014,0.008-0.029,0.016-0.043
									c0.01-0.029,0.018-0.045,0.021-0.066c0.012-0.023,0.016-0.029,0.021-0.053c0.008-0.021,0.016-0.037,0.023-0.059
									s0.01-0.037,0.014-0.045c0.012-0.029,0.02-0.051,0.029-0.072c0-0.023,0.008-0.031,0.012-0.045
									c0.012-0.037,0.02-0.059,0.025-0.088c0.004-0.008,0.004-0.023,0.008-0.031c0.012-0.035,0.021-0.072,0.029-0.109
									c0-0.016,0.008-0.029,0.008-0.037c0.008-0.029,0.016-0.059,0.016-0.09c0.006-0.006,0.006-0.021,0.014-0.029
									c0.004-0.029,0.008-0.059,0.016-0.088c0.004-0.008,0.004-0.016,0.008-0.029c0.006-0.037,0.006-0.074,0.014-0.104
									c0,0,0-0.008,0-0.016c0.008-0.035,0.008-0.08,0.016-0.109c0-0.016,0-0.029,0-0.037c0-0.029,0-0.059,0.006-0.09
									c0-0.006,0-0.021,0-0.035c0-0.037,0.004-0.066,0.004-0.111c0-0.008,0-0.016,0-0.016c-0.004-0.037-0.004-0.066-0.004-0.104
									c0-0.006-0.006-0.021-0.006-0.035c0-0.031,0-0.053-0.008-0.082c0-0.016,0-0.029,0-0.037
									c-0.008-0.045-0.008-0.08-0.016-0.117l0.535,0.309l0,0l0,0l0,0l0,0l0,0c0.012,0.037,0.02,0.066,0.02,0.104
									c0,0.008,0,0.016,0,0.023c0,0.006,0.008,0.014,0.008,0.029c0,0.014,0.002,0.037,0.002,0.051c0,0.016,0,0.029,0.004,0.037
									c0,0.008,0,0.021,0,0.029c0,0.016,0,0.023,0,0.029c0,0.023,0.008,0.053,0.008,0.074v0.016v0.006
									c0,0.031,0,0.066-0.008,0.098v0.014c0,0.008,0,0.021,0,0.029c0,0.023,0,0.029,0,0.053c-0.004,0.014-0.004,0.021-0.004,0.043
									c-0.002,0.008-0.002,0.016-0.002,0.029c0,0.008,0,0.008,0,0.016c-0.008,0.037-0.008,0.059-0.008,0.096
									c0,0,0,0.008-0.008,0.008c0,0,0,0.008,0,0.016c0,0.021-0.008,0.051-0.012,0.072c0,0.008,0,0.016,0,0.023
									c-0.008,0.014-0.008,0.029-0.008,0.037c-0.002,0.014-0.006,0.029-0.006,0.035c-0.004,0.023-0.004,0.031-0.012,0.045
									c0,0.016-0.004,0.029-0.008,0.037c0,0.016,0,0.016-0.008,0.021c0,0.023-0.006,0.045-0.006,0.061
									c-0.008,0.014-0.012,0.021-0.012,0.035c0,0.008,0,0.008-0.004,0.016c-0.008,0.029-0.014,0.066-0.029,0.104
									c-0.008,0.037-0.016,0.066-0.029,0.104c0,0,0,0.008,0,0.014c0,0.016-0.012,0.023-0.012,0.037
									c-0.01,0.016-0.018,0.037-0.025,0.053c0,0.014,0,0.014,0,0.021c-0.008,0.016-0.008,0.029-0.018,0.045
									c-0.004,0.014-0.012,0.029-0.016,0.051c0,0-0.012,0.008-0.012,0.016c-0.006,0.014-0.006,0.037-0.014,0.051
									c-0.008,0.008-0.008,0.023-0.016,0.037c0,0.008-0.008,0.016-0.008,0.016c-0.006,0.021-0.014,0.037-0.021,0.059
									c-0.004,0.008-0.008,0.021-0.014,0.037c-0.004,0.008-0.008,0.008-0.008,0.014c-0.008,0.023-0.016,0.045-0.023,0.061
									c-0.006,0.014-0.01,0.021-0.018,0.029c0,0.008,0,0.014-0.004,0.014c-0.014,0.023-0.021,0.053-0.029,0.066
									c-0.008,0.016-0.008,0.029-0.018,0.037l-0.004,0.008c-0.016,0.037-0.029,0.066-0.045,0.104c0,0.008-0.008,0.008-0.008,0.014
									l0,0c-0.021,0.037-0.043,0.082-0.07,0.119c0,0.008-0.004,0.008-0.004,0.021c-0.006,0-0.006,0.008-0.014,0.016
									c-0.008,0.021-0.021,0.043-0.037,0.074c-0.004,0.006-0.008,0.014-0.016,0.029c-0.018,0.021-0.033,0.059-0.051,0.088l0,0l0,0
									c-0.021,0.029-0.037,0.059-0.053,0.088c-0.006,0.016-0.01,0.016-0.014,0.023c-0.016,0.021-0.029,0.043-0.037,0.059
									s-0.008,0.016-0.016,0.021c-0.014,0.023-0.029,0.053-0.043,0.066c0,0,0,0,0,0.008c-0.016,0.021-0.025,0.037-0.037,0.059
									c-0.008,0-0.008,0-0.008,0c0,0.008,0,0.008,0,0.008c-0.012,0.008-0.018,0.021-0.021,0.029S403.729,455.214,403.726,455.214z
									"/>
								<g>
									<polygon fill="#77287A" points="405.323,452.284 404.778,451.966 404.05,452.019 404.585,452.327 									"/>
								</g>
							</g>
						</g>
						<g>
							<polygon fill="#0379A9" points="404.577,451.177 403.444,450.513 403.444,451.679 404.585,452.343 							"/>
						</g>
						<path fill="#0897CD" d="M408.243,449.899c-0.012,0-0.021,0-0.037,0c-0.021,0-0.041,0-0.063,0c-0.025,0-0.055,0-0.086,0
							c-0.006,0-0.021,0-0.029,0c-0.043,0.016-0.092,0.016-0.137,0.021c-0.01,0.008-0.021,0.008-0.029,0.008
							c-0.039,0.008-0.088,0.008-0.129,0.016c-0.014,0-0.029,0.006-0.045,0.014c-0.066,0.008-0.133,0.023-0.199,0.037
							c-0.029,0.008-0.051,0.016-0.08,0.021c-0.021,0.008-0.045,0.016-0.074,0.031c-0.014,0-0.045,0.006-0.063,0.014
							c-0.029,0-0.055,0.008-0.086,0.021c-0.014,0-0.021,0-0.029,0.008c-0.051,0.016-0.1,0.029-0.146,0.053
							c-0.023,0.006-0.045,0.006-0.059,0.014c-0.045,0.016-0.09,0.029-0.133,0.045c-0.023,0.008-0.037,0.014-0.053,0.014
							c-0.082,0.037-0.162,0.061-0.236,0.09c-0.014,0.008-0.029,0.014-0.045,0.021c-0.08,0.029-0.168,0.066-0.238,0.096
							c-0.012,0-0.023,0-0.033,0.008c-0.049,0.016-0.098,0.045-0.145,0.059c-0.02,0.008-0.041,0.016-0.059,0.023
							c-0.041,0.021-0.078,0.037-0.123,0.051c-0.014,0.008-0.037,0.016-0.051,0.029c-0.045,0.016-0.082,0.037-0.125,0.053
							c-0.016,0.006-0.029,0.014-0.045,0.021c-0.053,0.016-0.104,0.037-0.148,0.059c-0.006,0-0.01,0.008-0.01,0.008
							c-0.008,0-0.02,0.008-0.027,0.008c-0.033,0.014-0.072,0.037-0.109,0.051c-0.012,0.008-0.029,0.008-0.037,0.023
							c-0.029,0.006-0.059,0.021-0.088,0.035c-0.016,0.008-0.031,0.016-0.053,0.023c-0.014,0.014-0.045,0.021-0.059,0.029
							c-0.023,0.008-0.037,0.014-0.057,0.021c-0.018,0.008-0.035,0.023-0.055,0.029c-0.014,0.008-0.029,0.016-0.051,0.023
							c-0.016,0.008-0.029,0.014-0.053,0.029c-0.008,0-0.021,0.008-0.037,0.008c-0.014,0.014-0.029,0.021-0.047,0.029
							c-0.012,0.008-0.02,0.014-0.025,0.014c-0.02,0.008-0.037,0.016-0.053,0.023c-0.008,0-0.014,0.006-0.021,0.014
							c-0.016,0.008-0.033,0.016-0.045,0.023l0,0c-0.021,0.006-0.037,0.014-0.047,0.021c-0.004,0-0.008,0-0.008,0.008
							c-0.012,0-0.023,0.006-0.033,0.014l0,0c-0.008,0.008-0.02,0.008-0.027,0.016l-1.133-0.664c0.004-0.008,0.008-0.008,0.02-0.008
							c0-0.008,0.004-0.008,0.01-0.008c0.008,0,0.016-0.008,0.023-0.014c0.008,0,0.008,0,0.008-0.008
							c0.018,0,0.029-0.008,0.047-0.016l0.004-0.008l0.008-0.006c0.014,0,0.029-0.008,0.045-0.016
							c0.006-0.008,0.01-0.008,0.01-0.008c0.02-0.006,0.037-0.014,0.063-0.029c0.004,0,0.008,0,0.016-0.008
							c0.021-0.006,0.045-0.014,0.066-0.037c0.012-0.006,0.014-0.006,0.021-0.006c0.025-0.016,0.053-0.023,0.082-0.037
							c0.004,0,0.01,0,0.021-0.008c0.021-0.021,0.053-0.029,0.088-0.045c0.008,0,0.008-0.006,0.016-0.006
							c0.033-0.023,0.074-0.031,0.111-0.061h0.008c0.043-0.014,0.08-0.037,0.125-0.051l0,0c0.037-0.021,0.074-0.037,0.109-0.053
							c0.008-0.006,0.016-0.014,0.023-0.014l0,0c0.008,0,0.008-0.008,0.008-0.008c0.051-0.008,0.102-0.037,0.15-0.059
							c0.018-0.008,0.033-0.016,0.051-0.021c0.041-0.016,0.078-0.037,0.119-0.045c0.018-0.008,0.037-0.021,0.055-0.037
							c0.041-0.008,0.074-0.021,0.119-0.045c0.021-0.008,0.041-0.014,0.059-0.029c0.045-0.014,0.104-0.037,0.148-0.059
							c0.006,0,0.014,0,0.029-0.008l0,0c0.08-0.037,0.158-0.059,0.236-0.096c0.018,0,0.037-0.008,0.047-0.016
							c0.082-0.029,0.158-0.059,0.232-0.08c0.012-0.008,0.016-0.008,0.023-0.016c0.014,0,0.025-0.006,0.037-0.006
							c0.043-0.023,0.088-0.031,0.129-0.045c0.018-0.016,0.033-0.016,0.063-0.021c0.043-0.016,0.088-0.031,0.137-0.045
							c0.01,0,0.025,0,0.033-0.016c0.006,0,0.006,0,0.006,0c0.031-0.006,0.049-0.006,0.074-0.021
							c0.023-0.008,0.053-0.016,0.082-0.021c0.021-0.008,0.045-0.016,0.066-0.016c0.029-0.008,0.045-0.014,0.074-0.021h0.004
							c0.068-0.016,0.135-0.029,0.195-0.045c0.014,0,0.018-0.008,0.025-0.008c0.012,0,0.018,0,0.025-0.008
							c0.045-0.006,0.088-0.006,0.125-0.014c0.008,0,0.016,0,0.023,0s0.008,0,0.01-0.008c0.049-0.008,0.094-0.008,0.137-0.014l0,0
							c0.008,0,0.016,0,0.023,0c0.037,0,0.059,0,0.096,0l0,0c0.021,0,0.041,0,0.059,0c0.016,0,0.021,0,0.037,0l0,0
							c0.029,0,0.051,0.006,0.066,0.014c0.012,0,0.018,0,0.021,0l0,0c0.029,0.008,0.057,0.016,0.082,0.021l0,0
							c0.033,0.008,0.059,0.023,0.08,0.037c0.385,0.223,0.762,0.443,1.145,0.658c-0.029-0.016-0.051-0.029-0.08-0.029
							c-0.029-0.008-0.057-0.016-0.082-0.029c-0.008,0-0.012,0-0.016,0C408.294,449.915,408.269,449.907,408.243,449.899z"/>
						<g>
							<path fill="#923995" d="M404.368,452.056L404.368,452.056l-0.672,0.295l-0.621-1.07l0.6-0.436l0,0
								c0.088-0.061,0.217-0.061,0.361,0.029c0.273,0.146,0.49,0.539,0.49,0.855C404.526,451.886,404.468,452.003,404.368,452.056z"
								/>
							<path fill="#A34D9D" d="M403.386,452.321c0.24,0.139,0.436,0.021,0.436-0.252c0-0.281-0.195-0.627-0.436-0.768
								c-0.244-0.133-0.443-0.021-0.443,0.258C402.942,451.841,403.142,452.181,403.386,452.321z"/>
							<path fill="#923995" d="M403.581,452.21c0.027,0,0.033-0.008,0.041-0.021c0.008-0.008,0.029-0.045,0.029-0.119
								c0-0.215-0.162-0.51-0.35-0.613c-0.041-0.029-0.082-0.037-0.115-0.037c-0.059,0-0.066,0.09-0.066,0.141
								c0,0.223,0.162,0.502,0.354,0.613C403.509,452.202,403.552,452.21,403.581,452.21z"/>
						</g>
					</g>
					<g>
						<path fill="#015579" d="M404.577,451.177l0.008,1.166l1.58-0.162l0.021,1.32l1.529-0.877c0.08-0.119,1.615-2.363,0.705-2.68
							C407.601,449.647,404.733,451.095,404.577,451.177z"/>
					</g>
				</g>
			</g>
			<g>
				<polygon fill="#45A7DE" points="406.593,471.622 406.597,473.72 472.831,435.476 472.827,433.38 				"/>
			</g>
			<g>
				<polygon fill="#355779" points="406.593,471.622 370.295,450.534 370.306,452.63 406.597,473.72 				"/>
			</g>
			<polygon fill="#4091CA" points="406.597,469.239 406.593,471.622 370.295,450.534 374.414,450.542 			"/>
		</g>
		<g>
			<g enable-background="new    ">
				<g>
					<polygon fill="#616161" points="473.347,427.851 470.571,426.241 470.765,553.298 473.54,554.907 					"/>
				</g>
				<path fill="#6B6C6C" d="M470.099,422.757c0.037-0.014,0.074-0.035,0.104-0.051c0.049-0.021,0.09-0.051,0.133-0.066
					c0.045-0.029,0.09-0.045,0.133-0.066c0.045-0.021,0.09-0.037,0.131-0.051c0.039-0.023,0.088-0.037,0.135-0.053
					c0.008,0,0.016-0.008,0.023-0.014c0.008,0,0.008,0,0.008,0c0.035-0.008,0.063-0.023,0.096-0.031
					c0.043-0.014,0.088-0.029,0.137-0.035c0.039-0.016,0.084-0.023,0.129-0.023c0.051-0.014,0.104-0.029,0.143-0.029
					c0.033-0.008,0.066-0.008,0.104-0.016c0,0,0.004,0,0.012,0c0.012,0,0.018,0,0.029,0c0.055-0.006,0.107-0.006,0.156-0.006
					c0.055,0,0.113,0,0.168,0.006c0.066,0.008,0.127,0.016,0.193,0.031c0,0,0,0,0.006,0c0,0,0,0,0,0.006
					c0.074,0.008,0.145,0.031,0.223,0.053c0.088,0.037,0.178,0.074,0.262,0.125c0.926,0.539,1.85,1.078,2.771,1.609
					c-0.146-0.082-0.311-0.148-0.48-0.184h-0.006c-0.17-0.031-0.355-0.045-0.547-0.023c-0.008,0-0.016,0-0.018,0
					c-0.193,0.016-0.396,0.059-0.6,0.133c-0.002,0-0.01,0-0.01,0c-0.211,0.066-0.436,0.178-0.658,0.303l-54.223,31.305l-2.77-1.609
					L470.099,422.757z"/>
				<g>
					<path fill="#444444" d="M418.651,455.679c-1.799,1.033-3.248,3.559-3.248,5.633l0.24,127.033l2.713-1.564l-0.164-127.086
						c0-0.295,0.211-0.656,0.473-0.805l54.221-31.313c0.252-0.146,0.461-0.021,0.461,0.273l0.174,127.08l2.865-1.654l-0.24-127.041
						c-0.004-2.068-1.477-2.895-3.271-1.861L418.651,455.679z"/>
				</g>
				<path fill="#767677" d="M412.628,459.54c0.008-0.045,0.01-0.104,0.01-0.148c0.004-0.059,0.012-0.104,0.02-0.162
					c0.004-0.059,0.008-0.111,0.012-0.17c0.01-0.045,0.014-0.104,0.025-0.154l0,0c0-0.008,0.004-0.016,0.004-0.016
					c0.004-0.051,0.01-0.096,0.025-0.154c0.012-0.053,0.018-0.111,0.033-0.17c0.012-0.053,0.025-0.111,0.033-0.162
					c0.021-0.066,0.037-0.119,0.051-0.186c0.008-0.029,0.031-0.08,0.041-0.117c0-0.016,0-0.016,0.004-0.023
					c0.004-0.006,0.004-0.014,0.004-0.021c0.018-0.059,0.041-0.111,0.055-0.178c0.023-0.051,0.045-0.104,0.063-0.154
					c0.02-0.059,0.037-0.111,0.061-0.17c0.018-0.051,0.033-0.104,0.059-0.154c0.018-0.037,0.033-0.074,0.055-0.119
					c0-0.008,0.004-0.008,0.004-0.008c0.004-0.006,0.008-0.014,0.008-0.021c0.025-0.059,0.049-0.111,0.074-0.162
					c0.025-0.059,0.055-0.117,0.084-0.17c0.033-0.066,0.066-0.133,0.096-0.191c0.037-0.074,0.082-0.148,0.119-0.215
					c0.008-0.008,0.014-0.021,0.021-0.037c0.008-0.014,0.016-0.021,0.021-0.043c0.074-0.133,0.164-0.26,0.244-0.385
					c0.066-0.096,0.133-0.199,0.207-0.295c0.045-0.059,0.096-0.125,0.141-0.186c0.043-0.051,0.08-0.109,0.125-0.154
					c0.045-0.051,0.086-0.104,0.125-0.146c0.045-0.045,0.086-0.09,0.129-0.148c0.008,0,0.016-0.016,0.027-0.021
					c0,0,0.006,0,0.01-0.008c0.027-0.029,0.063-0.074,0.094-0.104c0.051-0.045,0.096-0.088,0.139-0.133
					c0.053-0.045,0.094-0.096,0.145-0.125c0.049-0.061,0.096-0.104,0.145-0.141c0.029-0.016,0.051-0.045,0.076-0.059
					c0.004-0.008,0.012-0.008,0.012-0.016c0.021-0.016,0.041-0.021,0.059-0.045c0.049-0.037,0.098-0.072,0.145-0.104
					c0.049-0.035,0.092-0.072,0.145-0.102c0.043-0.031,0.088-0.066,0.141-0.098c0.035-0.021,0.088-0.051,0.133-0.08
					c0.01-0.008,0.021-0.008,0.035-0.016l2.77,1.609c-0.219,0.125-0.436,0.281-0.643,0.451c-0.008,0.006-0.016,0.014-0.021,0.014
					c-0.215,0.17-0.406,0.355-0.6,0.555c0,0-0.006,0.006-0.006,0.014c-0.385,0.414-0.734,0.879-1.02,1.381
					c-0.012,0.008-0.014,0.021-0.021,0.037c-0.141,0.244-0.27,0.494-0.385,0.76h-0.004c-0.113,0.266-0.213,0.531-0.291,0.805
					c-0.008,0-0.008,0.008-0.008,0.008c-0.162,0.539-0.25,1.084-0.25,1.609l0.24,127.033l-2.771-1.607l-0.244-127.043
					C412.628,459.644,412.628,459.591,412.628,459.54z"/>
			</g>
		</g>
		<g>
			<g>
				<polygon fill="#1C4178" points="441.929,541.163 442.979,559.979 459.13,569.302 461.257,564.776 462.054,552.774 				"/>
				<g>
					<g enable-background="new    ">
						<g>
							<polygon fill="#164989" points="462.054,552.774 480.345,542.153 478.692,567.235 460.397,577.864 							"/>
						</g>
						<g>
							<polygon fill="#D8B129" points="441.929,541.163 460.224,530.534 480.345,542.153 462.054,552.774 							"/>
						</g>
					</g>
				</g>
				<polygon fill="#1C4178" points="460.179,571.118 443.046,561.226 443.431,568.069 460.397,577.864 460.954,569.36 				"/>
				<polygon fill="#474746" points="447.999,537.015 446.954,537.628 444.825,542.831 445.468,543.208 				"/>
				<g>
					<g>
						<polygon fill="#8B8B8B" points="438.798,557.565 439.847,556.952 460.179,568.696 459.13,569.302 						"/>
					</g>
					<polygon fill="#A2A2A1" points="442.452,550.575 442.36,548.862 438.798,557.565 439.847,556.952 					"/>
					<polygon fill="#BFBEBE" points="468.269,549.888 459.13,569.302 438.798,557.565 442.356,548.833 442.228,546.485 
						437.739,558.163 460.179,571.118 469.321,550.493 					"/>
					<g>
						<polygon fill="#A2A2A1" points="469.325,550.493 470.372,549.888 461.228,570.513 460.179,571.118 						"/>
					</g>
				</g>
				<g>
					<polygon fill="#8B8B8B" points="468.272,549.888 469.317,549.276 470.368,549.888 469.325,550.493 					"/>
				</g>
				<g>
					<g>
						<g enable-background="new    ">
							<g>
								<polygon fill="#164989" points="462.681,552.554 462.673,553.763 441.231,541.386 441.237,540.183 								"/>
							</g>
							<g>
								<polygon fill="#2973BA" points="462.681,552.554 480.972,541.923 480.966,543.134 462.673,553.763 								"/>
							</g>
							<g>
								<polygon fill="#165FAC" points="441.237,540.183 459.528,529.546 480.972,541.923 462.681,552.554 								"/>
								<polygon fill="#164989" points="479.493,541.931 479.489,541.931 462.673,551.696 460.651,550.522 442.722,540.183 
									459.522,530.417 459.522,530.401 459.528,530.401 								"/>
							</g>
						</g>
					</g>
					<g>
						<polygon fill="#1C4178" points="479.489,541.931 462.673,551.696 460.651,550.522 459.522,530.417 459.522,530.401 
							459.528,530.401 						"/>
					</g>
				</g>
			</g>
			<g>
				<polygon fill="#147C3E" points="416.384,556.304 417.433,575.118 433.587,584.44 435.716,579.917 436.507,567.921 				"/>
				<g>
					<g enable-background="new    ">
						<g>
							<polygon fill="#146E38" points="436.507,567.921 454.806,557.292 453.144,582.374 434.853,593.003 							"/>
						</g>
						<g>
							<polygon fill="#D8B129" points="416.384,556.304 434.683,545.667 454.806,557.292 436.507,567.921 							"/>
						</g>
					</g>
				</g>
				<polygon fill="#147C3E" points="434.632,586.257 417.503,576.366 417.884,583.208 434.853,593.003 435.415,584.507 				"/>
				<polygon fill="#474746" points="422.452,552.155 421.407,552.767 419.278,557.978 419.925,558.347 				"/>
				<g>
					<g>
						<polygon fill="#8B8B8B" points="413.263,572.704 414.304,572.099 434.632,583.843 433.587,584.44 						"/>
					</g>
					<polygon fill="#A2A2A1" points="416.913,565.714 416.813,564.009 413.263,572.704 414.304,572.099 					"/>
					<polygon fill="#BFBEBE" points="442.726,565.028 433.587,584.44 413.263,572.704 416.813,563.972 416.681,561.624 
						412.192,573.31 434.632,586.257 443.771,565.634 					"/>
					<g>
						<polygon fill="#A2A2A1" points="443.784,565.634 444.825,565.028 435.681,585.651 434.632,586.257 						"/>
					</g>
				</g>
				<g>
					<polygon fill="#8B8B8B" points="442.729,565.028 443.771,564.423 444.825,565.028 443.776,565.634 					"/>
				</g>
				<g>
					<g>
						<g enable-background="new    ">
							<g>
								<polygon fill="#199346" points="437.134,567.692 437.134,568.903 415.69,556.532 415.69,555.321 								"/>
							</g>
							<g>
								<polygon fill="#195C2E" points="437.134,567.692 455.425,557.063 455.425,558.274 437.134,568.903 								"/>
							</g>
							<g>
								<polygon fill="#166131" points="415.69,555.321 433.985,544.685 455.425,557.063 437.134,567.692 								"/>
								<polygon fill="#1D5228" points="453.948,557.071 453.942,557.077 437.134,566.837 435.104,565.663 417.171,555.321 
									433.978,545.556 433.978,545.54 433.985,545.54 								"/>
							</g>
						</g>
					</g>
					<g>
						<polygon fill="#146E38" points="453.942,557.077 437.134,566.837 435.104,565.663 433.978,545.556 433.978,545.54 
							433.985,545.54 						"/>
					</g>
				</g>
			</g>
		</g>
		<g>
			<g enable-background="new    ">
				<g>
					<polygon fill="#444444" points="473.341,441.47 473.347,444.333 418.208,476.14 418.212,473.298 					"/>
				</g>
				<g>
					<polygon fill="#666666" points="418.212,473.298 418.208,470.007 470.638,439.86 473.341,441.47 					"/>
				</g>
			</g>
		</g>
	</g>
</g>
</svg>
