<?xml version="1.0" encoding="utf-8"?>
<!-- Generator: Adobe Illustrator 16.0.0, SVG Export Plug-In . SVG Version: 6.00 Build 0)  -->
<!DOCTYPE svg PUBLIC "-//W3C//DTD SVG 1.1//EN" "http://www.w3.org/Graphics/SVG/1.1/DTD/svg11.dtd">
<svg version="1.1" id="Layer_1" xmlns="http://www.w3.org/2000/svg" xmlns:xlink="http://www.w3.org/1999/xlink" x="0px" y="0px"
	 width="650px" height="650px" viewBox="0 0 650 650" enable-background="new 0 0 650 650" xml:space="preserve">
<polygon fill="#D5A484" points="414.125,500.489 414.125,500.489 414.749,500.843 "/>
<g>
	<g>
		<g>
			<g>
				<path fill="#89411E" d="M337.451,71.567v14.467l0,0c0,0.687,0.487,1.344,1.377,1.853c0.956,0.554,2.24,0.864,3.612,0.864
					c1.373,0,2.658-0.31,3.61-0.864c0.897-0.509,1.38-1.167,1.38-1.853V71.567H337.451z"/>
				<path fill="#A95425" d="M342.44,74.272c-1.372,0-2.656-0.306-3.612-0.86c-0.89-0.509-1.377-1.166-1.377-1.845
					s0.487-1.343,1.377-1.853c0.956-0.546,2.24-0.856,3.612-0.856c1.373,0,2.654,0.31,3.61,0.856c0.897,0.51,1.38,1.174,1.38,1.853
					s-0.482,1.336-1.38,1.845C345.099,73.966,343.813,74.272,342.44,74.272z"/>
			</g>
			<g>
				<path fill="#F6851F" d="M353.093,70.231V47.165h-20.989v23.074l0,0c0,1.55,1.022,3.097,3.074,4.281
					c4.097,2.366,10.743,2.366,14.837,0C352.066,73.335,353.093,71.789,353.093,70.231z"/>
				<path fill="#F7942F" d="M350.015,43.138c4.107,2.37,4.107,6.211,0,8.574c-4.094,2.366-10.74,2.366-14.837,0
					c-4.107-2.362-4.107-6.204,0-8.574C339.274,40.772,345.921,40.772,350.015,43.138z"/>
				<path fill="#E07325" d="M342.604,52.693c-2.672,0-5.167-0.598-7.03-1.675c-1.725-0.997-2.676-2.266-2.676-3.591
					s0.951-2.598,2.676-3.591c1.863-1.078,4.358-1.668,7.03-1.668c2.657,0,5.152,0.59,7.013,1.668
					c1.727,0.993,2.68,2.266,2.68,3.591s-0.953,2.595-2.68,3.591C347.756,52.095,345.261,52.693,342.604,52.693z"/>
			</g>
		</g>
		<path fill="#6E6D6E" d="M342.228,84.632c0.361-0.406,0.59-0.934,0.59-1.528c0-1.163-0.878-2.119-2.008-2.244l-0.021-0.019
			c-0.029,0.003-0.06,0.003-0.096,0.011c-0.045-0.007-0.09-0.011-0.133-0.011c-0.576,0-1.086,0.21-1.484,0.561
			c-0.029,0.019-0.052,0.041-0.081,0.063c-0.007,0.015-0.03,0.022-0.04,0.037c-0.842,0.694-2.289,2.196-5.99,5.558
			c-3.739,3.41-8.707,7.935-13.671,12.467c-8.415,7.673-16.808,15.353-19.177,17.509h-17.284c1.199,0,2.167,0.982,2.167,2.174
			s-0.967,2.17-2.167,2.17h17.209l2.03,1.842c-0.38-0.602-0.17-1.299,0.661-1.779c0.978-0.561,2.476-0.635,3.598-0.222l-2.185-1.985
			c11.135-10.19,34.763-31.667,37.771-34.331c0.104-0.078,0.195-0.155,0.273-0.244c0.008,0,0.025-0.015,0.037-0.022V84.632z"/>
		<g>
			<g>
				<path fill="#89411E" d="M242.497,110.216v14.475l0,0c0,0.675,0.491,1.336,1.38,1.853c0.952,0.55,2.236,0.86,3.609,0.86
					s2.665-0.31,3.617-0.86c0.886-0.517,1.377-1.178,1.377-1.853v-14.475H242.497z"/>
				<path fill="#A95425" d="M247.486,112.922c-1.373,0-2.657-0.306-3.609-0.853c-0.89-0.517-1.38-1.167-1.38-1.853
					c0-0.679,0.491-1.343,1.38-1.853c0.952-0.561,2.236-0.853,3.609-0.853s2.657,0.292,3.617,0.853
					c0.886,0.509,1.377,1.174,1.377,1.853c0,0.687-0.491,1.336-1.377,1.853C250.151,112.616,248.859,112.922,247.486,112.922z"/>
			</g>
			<g>
				<path fill="#F6851F" d="M258.138,108.88V85.806h-20.985v23.074l0,0c0,1.55,1.019,3.101,3.071,4.289
					c4.097,2.369,10.74,2.369,14.844,0C257.119,111.981,258.138,110.431,258.138,108.88z"/>
				<path fill="#F7942F" d="M255.067,81.791c4.104,2.37,4.104,6.201,0,8.57c-4.104,2.37-10.747,2.37-14.844,0
					c-4.104-2.369-4.104-6.2,0-8.57C244.32,79.421,250.963,79.421,255.067,81.791z"/>
				<path fill="#E07325" d="M247.645,91.328c-2.668,0-5.164-0.583-7.023-1.661c-1.724-0.989-2.68-2.273-2.68-3.595
					s0.956-2.591,2.68-3.587c1.86-1.078,4.355-1.668,7.023-1.668c2.665,0,5.156,0.59,7.016,1.668
					c1.734,0.997,2.679,2.266,2.679,3.587s-0.945,2.605-2.672,3.595C252.801,90.744,250.31,91.328,247.645,91.328z"/>
			</g>
		</g>
		<path fill="#653012" d="M316.385,119.465c-4.045,2.333-9.441,3.617-15.213,3.617c-5.787,0-11.19-1.284-15.224-3.617
			c-3.742-2.155-5.798-4.916-5.798-7.78v11.659c0,2.875,2.056,5.632,5.798,7.795c4.034,2.34,9.437,3.613,15.224,3.613
			c5.772,0,11.168-1.273,15.213-3.613c3.742-2.163,5.798-4.92,5.798-7.795v-11.659C322.183,114.549,320.127,117.31,316.385,119.465z
			"/>
		<polygon fill="#653012" points="322.183,111.686 322.183,111.686 322.183,111.686 		"/>
		<path fill="#89411E" d="M316.385,103.891c-4.045-2.333-9.441-3.609-15.213-3.609c-5.787,0-11.19,1.277-15.224,3.609
			c-3.742,2.155-5.798,4.931-5.798,7.795c0,2.864,2.056,5.625,5.798,7.78c4.034,2.333,9.437,3.617,15.224,3.617
			c5.772,0,11.168-1.284,15.213-3.617c3.742-2.155,5.798-4.916,5.798-7.78l0,0C322.183,108.821,320.12,106.046,316.385,103.891z"/>
		<path fill="#6E6D6E" d="M282.833,117.004h-33.996c-1.196,0-2.17,0.971-2.17,2.167s0.974,2.166,2.17,2.166h33.996
			c1.199,0,2.167-0.97,2.167-2.166S284.032,117.004,282.833,117.004z"/>
		<g>
			<path fill="#653012" d="M316.385,112.538c-4.045,2.329-9.441,3.613-15.213,3.613c-5.787,0-11.19-1.285-15.224-3.613
				c-3.742-2.159-5.798-4.927-5.798-7.784v6.865h0.077c0.347,2.576,2.333,5.027,5.721,6.979c4.034,2.329,9.437,3.609,15.224,3.609
				c5.772,0,11.168-1.28,15.213-3.609c3.38-1.952,5.381-4.403,5.721-6.979h0.015v-0.133c0.022-0.229,0.063-0.451,0.063-0.672l0,0
				c0-0.229-0.041-0.447-0.063-0.668v-4.728C321.821,108.046,319.832,110.549,316.385,112.538z"/>
			<path fill="#89411E" d="M316.385,96.967c-4.045-2.34-9.441-3.625-15.213-3.625c-5.787,0-11.19,1.285-15.224,3.625
				c-3.742,2.155-5.798,4.923-5.798,7.788c0,2.856,2.056,5.625,5.798,7.784c4.034,2.329,9.437,3.613,15.224,3.613
				c5.772,0,11.168-1.285,15.213-3.613c3.447-1.989,5.437-4.492,5.735-7.12c0.022-0.225,0.063-0.443,0.063-0.664l0,0
				C322.183,101.89,320.12,99.122,316.385,96.967z"/>
		</g>
		<path fill="#6E6D6E" d="M341.732,153.225c0,0-34.457-31.552-34.914-31.818c-0.155-0.088-0.317-0.159-0.487-0.221
			c-1.122-0.41-2.62-0.347-3.598,0.221c-0.831,0.483-1.041,1.177-0.661,1.771l36.752,33.253c0.413,0.38,0.931,0.565,1.45,0.565
			c0.587,0,1.178-0.232,1.605-0.712C342.685,155.395,342.614,154.029,341.732,153.225z"/>
		<g>
			<g>
				<path fill="#89411E" d="M336.646,145.596v14.475l0,0c0,0.683,0.495,1.34,1.38,1.853c0.961,0.554,2.244,0.86,3.617,0.86
					s2.646-0.307,3.617-0.86c0.886-0.513,1.373-1.17,1.373-1.853v-14.475H336.646z"/>
				<path fill="#A95425" d="M341.644,148.305c-1.373,0-2.656-0.299-3.617-0.86c-0.885-0.509-1.38-1.17-1.38-1.849
					s0.495-1.339,1.38-1.853c0.961-0.546,2.244-0.853,3.617-0.853s2.646,0.306,3.617,0.853c0.886,0.513,1.373,1.173,1.373,1.853
					s-0.487,1.34-1.373,1.849C344.29,148.006,343.017,148.305,341.644,148.305z"/>
			</g>
			<g>
				<path fill="#F6851F" d="M352.296,144.263v-23.078h-20.993v23.078l0,0c0,1.55,1.025,3.097,3.07,4.289
					c4.097,2.362,10.747,2.362,14.845,0C351.272,147.36,352.296,145.813,352.296,144.263z"/>
				<path fill="#F7942F" d="M349.218,117.173c4.093,2.362,4.093,6.204,0,8.566c-4.098,2.369-10.748,2.369-14.845,0
					c-4.097-2.362-4.097-6.204,0-8.566C338.47,114.808,345.12,114.808,349.218,117.173z"/>
				<path fill="#E07325" d="M341.792,126.718c-2.665,0-5.152-0.594-7.017-1.672c-1.728-0.997-2.672-2.27-2.672-3.595
					c0-1.314,0.944-2.587,2.672-3.587c1.864-1.074,4.352-1.668,7.017-1.668c2.672,0,5.163,0.594,7.027,1.668
					c1.719,1,2.672,2.273,2.672,3.587c0,1.325-0.953,2.598-2.672,3.595C346.955,126.124,344.464,126.718,341.792,126.718z"/>
			</g>
		</g>
		<g>
			<path fill="#6E6D6E" d="M301.171,106.917c-1.203,0-2.174-0.971-2.174-2.163V41.366c0-1.2,0.971-2.167,2.174-2.167
				c1.188,0,2.155,0.967,2.155,2.167v63.388C303.327,105.946,302.36,106.917,301.171,106.917z"/>
		</g>
	</g>
	<path fill="#73C5D3" d="M243.53,100.997c0.598-1.173,7.064-2.022,6.964-3.133c-0.092-1.111,0.163-3.34-1.48-5.156
		c-1.646-1.823-4.156-2.982-6.998-3.085c-2.834-0.111-4.174,1.262-4.864,1.919c-0.701,0.657-2.506,7.681-1.048,8.769
		C237.558,101.403,241.707,104.533,243.53,100.997z"/>
	<linearGradient id="SVGID_1_" gradientUnits="userSpaceOnUse" x1="246.7026" y1="79.3564" x2="205.858" y2="164.4834">
		<stop  offset="0.01" style="stop-color:#DAA192"/>
		<stop  offset="0.99" style="stop-color:#DE817B"/>
	</linearGradient>
	<path fill="url(#SVGID_1_)" d="M244.131,98.775c-0.812-0.104,2.329-5.662,2.429-7.189c0.1-1.506-1.214-0.2-1.72,0.708
		c-0.505,0.915-1.096,4.148-2.066,3.853c-0.963-0.31,3.477-6.784,2.167-7.588c-1.311-0.812-4.245,5.263-4.85,5.964
		c-0.609,0.708,1.413-4.901,0.398-5.388c-1.008-0.48-2.126,5.698-2.628,5.794c-0.498,0.096-1.21-4.045-1.21-4.045
		c-1.307-0.096-0.886,7.278-0.886,7.278s-2.285,3.772-7.957,11.094c-5.677,7.315-11.67,14.018-20.635,27.459
		c-8.964,13.442-8.352,27.584-8.352,27.584c5.396-5.854,17.081,5.363,17.081,5.363c0.318-4.717,4.326-13.516,6.972-23.514
		c2.303-8.695,10.522-21.129,13.231-26.418c3.123-6.089,6.023-15.242,6.673-17.335c0.45-0.897,6.415-2.82,6.112-4.233
		C248.579,96.753,244.94,98.872,244.131,98.775z"/>
	<g>
		
			<linearGradient id="SVGID_2_" gradientUnits="userSpaceOnUse" x1="391.5869" y1="-6.2334" x2="287.8954" y2="75.761" gradientTransform="matrix(0.7938 -0.6082 0.6082 0.7938 1.7939 349.1943)">
			<stop  offset="0.01" style="stop-color:#DAA192"/>
			<stop  offset="0.99" style="stop-color:#DE817B"/>
		</linearGradient>
		<path fill="url(#SVGID_2_)" d="M305.542,124.507l0.022,0.003c-0.022,0.118-0.033,0.232-0.044,0.358c-0.007,0.089,0,0.159,0,0.159
			c5.389,27.596-1.114,59.221-1.41,59.952c-1.155,2.761-21.111,23.488-28.566,22.273c0.432-1.056-0.026-11.663-2.746-18.981
			l15.117-9.828c1.926-4.13,10.884-53.05,10.884-53.05c0.092-0.107-6.765-3.743-7.193-5.13c-0.147-0.472,3.322,0.066,5.706,1.41
			c1.078,0.602-2.237-9.079-1.34-9.703c1.399-0.963,2.779,6.927,3.06,6.691c0.594-0.491-0.886-9.12,0.683-9.4
			c1.398-0.248,1.007,9.142,1.716,9.378c0.712,0.225,0.676-6.466,1.797-6.75c0.838-0.203,0.631,7.075,1.392,7.083
			c0.753-0.008,1.617-4.001,2.37-3.994C308.162,114.978,305.667,122.591,305.542,124.507z"/>
	</g>
	<path fill="#EE2F53" d="M199.256,154.018c0,0,10.91-1.185,17.516,3.266l-0.871,12.379c0,0-6.724-7.407-11.906-6.957
		c-5.189,0.447-6.304,3.396-6.304,3.396S196.731,160.48,199.256,154.018z"/>
	<g>
		<path fill="#EE2F53" d="M228.132,408.704c-0.141,1.512-6.127,16.926-6.127,16.926c-4.022,5.668-9.23,0.906-9.23,0.906
			c-0.343-0.225-0.697-1.076-0.882-2.408c-0.317-2.148-0.214-5.566,1.07-9.711c2.037-6.74,6.407-10.156,10.829-10.922
			c2.052-0.371,3.178,0.406,3.757,1.5C228.228,406.249,228.213,407.892,228.132,408.704z"/>
		<linearGradient id="SVGID_3_" gradientUnits="userSpaceOnUse" x1="212.4058" y1="417.541" x2="223.3198" y2="417.541">
			<stop  offset="0.01" style="stop-color:#DAA192"/>
			<stop  offset="0.99" style="stop-color:#DE817B"/>
		</linearGradient>
		<path fill="url(#SVGID_3_)" d="M212.406,412.796c0,0,0.004,6.164,0.712,7.4c0.709,1.24,3.551,3.193,7.629,1.303
			c3.609-1.656,2.366-8.393,2.366-8.393s-2.724,1.949-5.739,1.602C214.366,414.351,212.406,412.796,212.406,412.796z"/>
	</g>
	<path fill="#2D133D" d="M284.799,338.446c-8.455,15.357-17.029,31.479-17.029,31.479c-1.672-0.014-3.632-1.07-5.112-2.063
		c-1.376-0.949-2.366-1.834-2.366-1.834s0.133-24.274,4.174-36.004c5.337-15.497,12.294-21.244,12.619-23.376
		c0.343-2.155,4.377-5.747-17.132-3.739c-18.107,1.675-28.839-3.75-31.821-5.529c-0.48,1.532-1.004,2.521-1.004,2.521
		s-6.142,50.811-5.676,68.784c0.469,17.955,1.668,44.434,1.668,44.434s-0.517,0.564-1.414,1.15c-0.218,0.145-0.465,0.293-0.72,0.439
		c-1.236,0.691-2.916,1.227-4.743,0.771c-3.768-0.955-5.222-5.127-5.222-5.127c-2.635-8.932-11.799-34.619-10.843-50.891
		c0.956-16.275,7.33-26.936,7.086-30.817c-0.225-3.846-8.979-42.226-11.338-47.415c-2.362-5.204-2.591-14.648-1.602-16.804
		c0.081,0.214,0.177,0.454,0.306,0.727c0.1,0.196,0.214,0.406,0.321,0.631c0.066,0.111,0.166,0.262,0.251,0.406
		c0.059,0.092,0.111,0.196,0.17,0.288c0.118,0.199,0.247,0.395,0.376,0.568c0.048,0.081,0.092,0.14,0.14,0.225
		c0.162,0.203,0.332,0.439,0.509,0.679c0.044,0.052,0.096,0.1,0.14,0.166c0.203,0.24,0.406,0.498,0.635,0.775
		c0.052,0.033,0.078,0.082,0.125,0.129c0.244,0.273,0.502,0.568,0.793,0.838c0.033,0.044,0.063,0.085,0.115,0.118
		c0.292,0.306,0.598,0.59,0.941,0.904c0.029,0.03,0.063,0.063,0.107,0.096c0.343,0.325,0.708,0.653,1.1,0.963
		c0.055,0.019,0.092,0.056,0.118,0.089c0.398,0.325,0.823,0.664,1.277,0.997c0.029,0.026,0.074,0.052,0.111,0.07
		c0.458,0.344,0.952,0.69,1.473,1.034c0.033,0.019,0.063,0.052,0.096,0.066c0.521,0.358,1.082,0.712,1.668,1.07
		c0.033,0.015,0.07,0.026,0.096,0.048c0.602,0.354,1.214,0.712,1.871,1.067c0.037,0.025,0.07,0.048,0.107,0.063
		c0.661,0.362,1.354,0.716,2.1,1.085c0.019,0,0.063,0.015,0.082,0.033c0.745,0.376,1.521,0.728,2.347,1.085
		c0.015,0.011,0.052,0.03,0.078,0.048c0.823,0.354,1.687,0.712,2.587,1.085c0.022,0,0.037,0,0.044,0.007
		c0.915,0.362,1.868,0.738,2.871,1.096c0.827,0.281,1.631,0.572,2.51,0.856c14.859,4.846,26.913,3.716,33.97,2.129
		c1.919-0.439,3.491-0.9,4.624-1.299c0.875-0.284,1.502-0.542,1.853-0.69c0.019-0.019-0.026-0.376-0.107-0.997
		c-0.177-1.173-0.535-3.303-0.967-6.008l0.79-0.111c0,0,37.933,7.599,40.199,17.11C302.847,303.153,293.259,323.079,284.799,338.446
		z"/>
	<path fill="#E82642" d="M198.083,269.862c-0.273-0.288-0.539-0.564-0.783-0.838C197.536,269.298,197.809,269.575,198.083,269.862z"
		/>
	<path fill="#E82642" d="M214.358,279.768c-0.893-0.354-1.757-0.72-2.58-1.078C212.602,279.048,213.458,279.414,214.358,279.768z"/>
	<path fill="#E82642" d="M197.174,268.884c-0.221-0.266-0.443-0.521-0.642-0.768C196.731,268.364,196.953,268.619,197.174,268.884z"
		/>
	<path fill="#E82642" d="M195.196,266.183c-0.082-0.133-0.17-0.277-0.236-0.406C195.026,265.906,195.115,266.05,195.196,266.183z"/>
	<path fill="#E82642" d="M211.69,278.646c-0.812-0.354-1.587-0.716-2.329-1.081C210.103,277.93,210.878,278.292,211.69,278.646z"/>
	<path fill="#E82642" d="M259.171,274.867c-1.657-10.252-4.617-28.854-4.392-35.331c0.059-1.546,0.369-3.07,0.849-4.65
		c2.37-7.713,8.835-16.099,8.835-27.964c0-5.606-1.391-9.341-2.952-11.759c-1.912-3.004-4.053-3.99-4.053-3.99
		s-14.283-8.241-20.147-11.625c-0.173-0.107-0.343-0.203-0.502-0.292c-3.325-1.905-10.057-5.791-14.87-8.577
		c-2.321-1.34-4.204-2.425-5.042-2.909l-0.007-0.018l-0.029-0.004c-0.015,0-0.033,0-0.044-0.019
		c-0.022-0.019-0.022-0.019-0.029-0.029c-0.015,0-0.037-0.019-0.044-0.019c-0.022-0.026-0.044-0.026-0.056-0.041
		c-0.041-0.026-0.092-0.059-0.114-0.059c-0.015-0.011-0.015-0.011-0.015-0.011c-0.015,0-0.03-0.015-0.03-0.015
		c-0.081-0.055-0.11-0.07-0.11-0.07c-0.797-0.454-2.724-1.576-7.005-4.038c-11.67-6.743-22.177,11.01-13.309,37.697
		c2.746,8.245,4.02,12.744,4.747,15.686v0.044c0.853,3.403,0.93,4.728,1.705,7.389c1.414,4.979,0.93,12.054-2.377,18.989
		c-3.048,6.396-5.695,18.239-6.093,20.019c-0.033,0.144-0.041,0.229-0.041,0.229s0,0.029,0.022,0.089c0,0.015,0,0.015,0,0.025
		c0.026,0.141,0.096,0.428,0.254,0.812c0.089,0.214,0.188,0.454,0.314,0.72c0.096,0.2,0.199,0.41,0.325,0.631
		c0.066,0.129,0.155,0.273,0.236,0.406c0.059,0.096,0.111,0.203,0.177,0.306c0.118,0.181,0.247,0.369,0.376,0.562
		c0.048,0.077,0.092,0.136,0.147,0.218c0.155,0.217,0.325,0.446,0.502,0.679c0.052,0.056,0.085,0.111,0.133,0.17
		c0.199,0.247,0.421,0.502,0.642,0.768c0.044,0.048,0.078,0.092,0.125,0.14c0.244,0.273,0.509,0.55,0.783,0.838
		c0.051,0.041,0.081,0.082,0.125,0.115c0.288,0.302,0.598,0.602,0.941,0.908c0.033,0.041,0.07,0.063,0.107,0.1
		c0.343,0.317,0.716,0.631,1.111,0.952c0.03,0.037,0.063,0.063,0.1,0.088c0.406,0.333,0.831,0.668,1.288,1
		c0.033,0.029,0.07,0.052,0.1,0.074c0.473,0.343,0.953,0.683,1.477,1.03c0.037,0.029,0.066,0.052,0.096,0.066
		c0.524,0.347,1.085,0.705,1.672,1.056c0.033,0.026,0.063,0.041,0.096,0.063c0.594,0.354,1.222,0.712,1.878,1.078
		c0.03,0.011,0.063,0.03,0.1,0.048c0.661,0.366,1.354,0.72,2.093,1.085c0.037,0.007,0.07,0.022,0.096,0.041
		c0.742,0.365,1.517,0.727,2.329,1.081c0.03,0.015,0.056,0.03,0.089,0.044c0.823,0.358,1.687,0.724,2.58,1.078
		c0.015,0.011,0.041,0.015,0.052,0.019c0.922,0.365,1.875,0.724,2.871,1.085h0.004c0.812,0.292,1.635,0.58,2.51,0.871
		c14.855,4.85,26.917,3.713,33.966,2.126c1.926-0.446,3.477-0.904,4.617-1.295c0.882-0.292,1.502-0.546,1.86-0.694
		c0.029-0.019-0.026-0.365-0.114-1.008C259.954,279.709,259.603,277.576,259.171,274.867z"/>
	<path fill="#E82642" d="M199.149,270.885c-0.343-0.306-0.653-0.605-0.941-0.908C198.496,270.279,198.806,270.579,199.149,270.885z"
		/>
	<path fill="#E82642" d="M217.281,280.872c-0.996-0.361-1.949-0.72-2.871-1.085C215.333,280.152,216.285,280.51,217.281,280.872z"/>
	<path fill="#E82642" d="M207.073,276.391c-0.657-0.365-1.284-0.723-1.878-1.078C205.789,275.668,206.416,276.026,207.073,276.391z"
		/>
	<path fill="#E82642" d="M201.754,273.025c-0.458-0.333-0.882-0.668-1.288-1C200.873,272.357,201.297,272.693,201.754,273.025z"/>
	<path fill="#E82642" d="M203.331,274.129c-0.524-0.347-1.004-0.687-1.477-1.03C202.327,273.442,202.814,273.782,203.331,274.129z"
		/>
	<path fill="#E82642" d="M205.098,275.251c-0.586-0.351-1.147-0.708-1.672-1.056C203.951,274.553,204.512,274.9,205.098,275.251z"/>
	<path fill="#E82642" d="M196.399,267.947c-0.177-0.232-0.347-0.461-0.502-0.679C196.045,267.485,196.222,267.714,196.399,267.947z"
		/>
	<path fill="#E82642" d="M195.75,267.05c-0.129-0.192-0.259-0.38-0.376-0.562C195.491,266.67,195.621,266.858,195.75,267.05z"/>
	<path fill="#E82642" d="M200.367,271.937c-0.395-0.321-0.768-0.635-1.111-0.952C199.599,271.302,199.972,271.616,200.367,271.937z"
		/>
	<path fill="#E82642" d="M209.265,277.524c-0.738-0.366-1.432-0.72-2.093-1.085C207.833,276.805,208.527,277.159,209.265,277.524z"
		/>
	<path fill="#2D133D" d="M260.238,281.879c0.011-0.329,0.029-0.665,0.044-1.008c0,0-0.063,0.011-0.159,0.011
		C260.212,281.503,260.256,281.875,260.238,281.879z"/>
	<path fill="#251235" d="M199.237,284.068c3.783,0.72,20.034,3.311,24.082,4.721c4.038,1.421,9.515,7.573,23.192,5.565
		c0,0-9.581,5.783-21.221-0.362c-11.633-6.145-8.77-2.133-14.826-3.543C204.593,289.065,199.237,284.068,199.237,284.068z"/>
	<path fill="#CC1F47" d="M228.132,408.704c-0.141,1.512-6.127,16.926-6.127,16.926c-4.022,5.668-9.23,0.906-9.23,0.906
		c-0.343-0.225-0.697-1.076-0.882-2.408c2.458,2.441,6.725,3.033,8.555,1.205c1.727-1.707,4.012-8.564,5.314-12.107
		c1.115-3.01,1.661-5.773,1.786-8.23C228.228,406.249,228.213,407.892,228.132,408.704z"/>
	<path opacity="0.4" fill="#E82642" d="M260.124,280.872c0.088,0.643,0.144,0.989,0.114,1.008c-0.358,0.147-0.978,0.402-1.86,0.694
		c-1.14,0.391-2.69,0.849-4.617,1.295c0.45-3.668,0.849-11.404-1.838-21.317c-3.764-13.937-4.886-20.266-0.93-28.382
		c3.587-7.352,12.478-24.875,10.519-39.007c1.561,2.417,2.952,6.152,2.952,11.759c0,11.866-6.466,20.251-8.835,27.964
		c-0.479,1.58-0.79,3.104-0.849,4.65C254.495,247.722,259.304,275.295,260.124,280.872z"/>
	<g>
		<path fill="#EE2F53" d="M272.495,188.013c0.185,0.262,0.339,0.561,0.509,0.842c2.222,3.82,3.455,8.887,4.134,12.847
			c0.365,2.155,0.553,3.96,0.664,5.075c0.059,0.716,0.089,1.159,0.089,1.159s-6.429,5.429-19.864,5.787
			c-7.175,0.192-11.242-2.295-13.548-5.167c-2.491-3.122-2.912-6.676-2.957-7.794C241.079,187.445,272.495,188.013,272.495,188.013z
			"/>
		<path opacity="0.4" fill="#E82642" d="M277.138,201.702c0.365,2.155,0.553,3.96,0.664,5.075c0.059,0.716,0.089,1.159,0.089,1.159
			s-6.429,5.429-19.864,5.787c-7.175,0.192-11.242-2.295-13.548-5.167C250.956,210.091,262.884,210.755,277.138,201.702z"/>
	</g>
	<g>
		<path fill="#4F2B1C" d="M245.977,138.218c0.019,0.413,0.037,0.804,0.037,1.207c-0.1,3.289-0.196,7.75-0.292,11.124
			c-0.059,2.809-0.104,4.879-0.104,4.879c-1.248-1.443-2.214-2.358-2.982-2.834c-1.617-1.044-2.384-0.27-2.997,1.425
			c-0.635,1.705-1.1,4.348-2.151,7.001c-2.562,6.485-6.99,8.227-11.386,8.592c-1.948,0.163-3.358-0.059-4.396-0.362
			c-0.026-0.007-0.085-0.019-0.122-0.026c-1.203-0.38-1.764-0.845-1.764-0.845c-1.602-3.513-5.337-7.64-7.776-14.087
			c-0.838-2.233-1.528-4.728-1.923-7.581c-1.897-13.692,10.537-19.092,15.911-19.546c11.504-0.971,17.121,3.096,19.107,7.747
			C245.615,136.003,245.881,137.125,245.977,138.218z"/>
		
			<linearGradient id="SVGID_4_" gradientUnits="userSpaceOnUse" x1="245.5625" y1="101.1377" x2="222.876" y2="148.2831" gradientTransform="matrix(0.9907 -0.1362 0.1362 0.9907 -10.6318 67.2446)">
			<stop  offset="0.01" style="stop-color:#DAA192"/>
			<stop  offset="0.99" style="stop-color:#DE817B"/>
		</linearGradient>
		<path fill="url(#SVGID_4_)" d="M250.181,163.393c-0.177,1.14-0.561,2.181-1.167,3.078c-1.912,2.868-5.957,4.352-11.84,3.577
			c0.244,2.945,1.115,7.5,1.919,11.238c-0.177-0.066-0.362-0.144-0.528-0.214c-3.547-1.428-10.744-4.373-15.903-6.47
			c-0.118-1.897-0.465-3.779-0.956-5.352c1.037,0.303,2.447,0.524,4.396,0.362c2.905-0.254,5.824-1.092,8.216-3.51
			c1.218-1.24,2.288-2.897,3.17-5.083c2.558-6.499,1.701-13.039,8.13-5.591c0,0,0.222-9.946,0.395-16.003
			c0-0.402-0.019-0.793-0.037-1.207c-0.096-1.093-0.361-2.215-0.837-3.307c2.48,3.824,1.72,8.481,2.86,11.175
			C249.169,148.87,251.299,156.037,250.181,163.393z"/>
		<path fill="#19AF91" d="M240.917,182.027v0.015c-17.066,0.698-20.31-7.901-20.454-8.326c0-0.019,0-0.019,0-0.019L240.917,182.027z
			"/>
		
			<linearGradient id="SVGID_5_" gradientUnits="userSpaceOnUse" x1="240.1514" y1="127.1245" x2="215.3808" y2="146.7119" gradientTransform="matrix(0.9907 -0.1362 0.1362 0.9907 -10.6318 67.2446)">
			<stop  offset="0.01" style="stop-color:#DAA192"/>
			<stop  offset="0.99" style="stop-color:#DE817B"/>
		</linearGradient>
		<path opacity="0.3" fill="url(#SVGID_5_)" d="M237.174,170.047c0.244,2.945,1.115,7.5,1.919,11.238
			c-0.177-0.066-0.362-0.144-0.528-0.214c-3.547-1.428-10.744-4.373-15.903-6.47c-0.118-1.897-0.465-3.779-0.956-5.352
			c1.037,0.303,2.447,0.524,4.396,0.362c2.905-0.254,5.824-1.092,8.216-3.51c4.872,4.336,11.028,2.111,14.696,0.369
			C247.103,169.338,243.058,170.822,237.174,170.047z"/>
		<path opacity="0.2" fill="#411F14" d="M231.705,156.665c3.222-0.882,5.846-1.772,7.935-2.646c-0.635,1.705-1.1,4.348-2.151,7.001
			c-2.562,6.485-6.99,8.227-11.386,8.592c-1.948,0.163-3.358-0.059-4.396-0.362c-0.026-0.007-0.085-0.019-0.122-0.026
			c-1.203-0.38-1.764-0.845-1.764-0.845c-1.602-3.513-5.337-7.64-7.776-14.087C215.761,157.27,221.873,159.351,231.705,156.665z"/>
		<g>
			<g>
				<path fill="#19AF91" d="M216.536,146.77c1.003-1.702,1.834-3.901-0.812-5.872c-2.65-1.971-5.259,0.945-4.636,4.093
					C211.708,148.143,215.706,148.153,216.536,146.77z"/>
				<path fill="#411F14" d="M220.851,181.403c-2.75,3.034-0.864,5.617-0.864,5.617s-0.627-0.196-1.583-0.613
					c-2.635-1.1-7.798-3.69-8.758-7.559c-1.307-5.255,4.303-8.688,0.86-14.302c-3.455-5.613-8.072-13.316-5.994-18.656
					c2.104-5.341,8.267-4.215,8.267-4.215c1.801,0.616,2.399,2.089,2.602,3.041c0.107,0.513,0.096,0.856,0.096,0.856
					s-2.842-1.244-3.872,1.129c-1,2.373,4.998,7.042,12.977,16.435C232.554,172.56,223.593,178.366,220.851,181.403z"/>
			</g>
			<path opacity="0.1" fill="#411F14" d="M220.851,181.403c-2.75,3.034-0.864,5.617-0.864,5.617s-0.627-0.196-1.583-0.613
				c-2.672-5.986,2.392-10.574,3.218-17.808c0.938-8.186-10.939-13.881-11.282-20.343c-0.277-5.148,3.019-4.569,5.042-3.54
				c0.107,0.513,0.096,0.856,0.096,0.856s-2.842-1.244-3.872,1.129c-1,2.373,4.998,7.042,12.977,16.435
				C232.554,172.56,223.593,178.366,220.851,181.403z"/>
		</g>
	</g>
	<path fill="#251235" d="M281.544,310.413c-3.444,5.514-8.695,7.344-13.549,26.352c-3.107,12.156-4.632,24.074-5.337,31.098
		c-1.376-0.949-2.366-1.834-2.366-1.834s0.133-24.274,4.174-36.004c5.337-15.497,12.294-21.244,12.619-23.376
		c0.343-2.155,4.377-5.747-17.132-3.739c-18.107,1.675-28.839-3.75-31.821-5.529c-0.48,1.532-1.004,2.521-1.004,2.521
		s-6.142,50.811-5.676,68.784c0.469,17.955,1.668,44.434,1.668,44.434s-0.517,0.564-1.414,1.15
		c-0.376-9.807-1.886-19.506-2.856-40.055c-1.008-21.676,0.756-36.642,2.912-51.393c2.148-14.764,5.48-27.899,5.48-27.899
		s8.898,3.717,19.269,4.979c10.349,1.277,27.061,1.358,33.866,0C287.209,298.558,284.977,304.887,281.544,310.413z"/>
	<path fill="#19AF91" d="M277.514,279.229c0,0-5.071-2.447-12.349-10.725c-7.282-8.282-8.677-14.948-8.817-15.874l0,0
		c-0.904-5.938-1.635-11.216-1.568-13.095c0.059-1.546,0.369-3.07,0.849-4.65c0,0-6.37,5.839-12.556,8.784
		c-4.506,1.93-12.062,2.668-19.938,0.513c-0.479-0.14-0.948-0.284-1.41-0.424c2.532-0.458,5.248-1.487,5.189-3.834
		c-0.118-4.374-5.44-5.027-7.333-2.188c-0.276,0.42-0.55,0.841-0.83,1.251c0.347-1.901,0.487-3.831,0.011-4.916
		c-1.185-2.657-6.684-3.13-7.448,0.653c-0.254,1.258,0.122,2.709,0.742,4.063c-0.694-0.509-1.299-0.982-1.786-1.396
		c-1.388-5.864-9.441-20.646-9.441-20.646s0,0.033,0.022,0.085v0.044c0.853,3.403,0.93,4.728,1.705,7.389
		c1.414,4.979,1.229,10.622-2.432,18.383c-3.244,6.876-6.057,20.956-6.057,20.967c-0.185,3.267,0.088,3.377,0.568,1.532
		c2.864-11.165,12.969-19.981,15.335-24.761c0.845,0.801,2.214,1.842,4.333,2.96c-0.735,1.879-3.185,8.29-4.529,13.771
		c-1.587,6.499-1.244,6.322-1.244,6.322l1.96,1.177c0,0,0.768-4.606,2.295-10.157c1.151-4.134,2.65-8.337,3.351-10.224
		c0.295,0.133,0.613,0.262,0.938,0.398c-0.151,3.429-1.019,15.734-5.85,23.444l1.886,1.24c0,0,2.753-4.167,3.99-10.463
		c0.919-4.632,1.554-10.655,1.819-13.508c1.536,0.554,3.255,1.104,5.249,1.617c9.164,2.354,15.604,0.823,19.144-0.642
		c2.429,2.561,16.265,29.201,16.25,28.489l0.007,0.007C263.416,275.819,277.514,279.229,277.514,279.229z M216.957,241.688
		c-0.015,0.026-0.029,0.044-0.048,0.081c-0.875-0.443-1.687-0.904-2.429-1.366c-0.845-1.295-1.661-2.941-1.631-4.439
		c0.055-3.071,3.37-3.311,4.491-0.65C218.001,236.886,217.488,239.672,216.957,241.688z M218.152,242.363
		c1.06-1.347,2.591-3.289,2.967-3.742c0.587-0.705,3.879-1.761,4.138,1.011c0.21,2.233-4.219,3.011-5.938,3.229
		C218.92,242.699,218.529,242.536,218.152,242.363z"/>
	<g>
		<path fill="#EE2F53" d="M287.808,372.36c-0.262,1.297-1.067,2.506-2.303,3.168c-2.495,1.332-10.692,5.369-17.867,6.426
			c-7.186,1.043-8.806-2.281-8.806-2.281c-0.244-0.609-0.347-1.299-0.391-2.02c-0.089-2.211,0.613-4.668,1.395-5.592
			c3.329-3.904,12.777-2.945,23.185-4.391C286.925,367.138,288.339,369.87,287.808,372.36z"/>
		
			<linearGradient id="SVGID_6_" gradientUnits="userSpaceOnUse" x1="280.2373" y1="406.2363" x2="289.3872" y2="406.2363" gradientTransform="matrix(0.989 0.1477 -0.1477 0.989 42.4565 -72.8525)">
			<stop  offset="0.01" style="stop-color:#DAA192"/>
			<stop  offset="0.99" style="stop-color:#DE817B"/>
		</linearGradient>
		<path fill="url(#SVGID_6_)" d="M260.286,365.788l-0.424,7.012c0,0,0.011,2.643,4.72,2.791c1.89,0.063,2.923-0.262,3.717-2.43
			c0.649-1.768,0.649-5.455,0.649-5.455s-2.69,0.592-5.267-0.146C261.105,366.817,260.286,365.788,260.286,365.788z"/>
		<path fill="#CC1F47" d="M287.808,372.36c-0.262,1.297-1.067,2.506-2.303,3.168c-2.495,1.332-10.692,5.369-17.867,6.426
			c-7.186,1.043-8.806-2.281-8.806-2.281c-0.244-0.609-0.347-1.299-0.391-2.02c0.661,1.057,2.118,2.734,4.828,3.227
			c4.048,0.723,9.928-1.385,15.25-3.455C282.504,375.87,285.958,373.929,287.808,372.36z"/>
	</g>
</g>
</svg>
