<?xml version="1.0" encoding="utf-8"?>
<!-- Generator: Adobe Illustrator 16.0.0, SVG Export Plug-In . SVG Version: 6.00 Build 0)  -->
<!DOCTYPE svg PUBLIC "-//W3C//DTD SVG 1.1//EN" "http://www.w3.org/Graphics/SVG/1.1/DTD/svg11.dtd">
<svg version="1.1" id="Layer_1" xmlns="http://www.w3.org/2000/svg" xmlns:xlink="http://www.w3.org/1999/xlink" x="0px" y="0px"
	 width="650px" height="650px" viewBox="0 0 650 650" enable-background="new 0 0 650 650" xml:space="preserve">
<polygon fill="#D5A484" points="414.125,500.489 414.125,500.489 414.749,500.843 "/>
<g>
	<g>
		<polygon fill="#1A6C40" points="539.244,381.404 517.552,368.877 516.66,368.361 475.158,344.395 474.266,343.879 432.776,319.92 
			431.886,319.405 392.711,296.786 391.826,296.269 350.316,272.298 349.446,271.8 307.937,247.833 307.052,247.316 
			285.854,235.076 285.854,30.541 307.052,42.77 307.937,43.283 349.446,67.257 350.316,67.752 391.826,91.723 392.711,92.236 
			431.886,114.848 432.776,115.361 474.266,139.317 475.158,139.831 516.66,163.801 517.552,164.314 539.244,176.865 		"/>
		<polygon fill="#0D4A24" points="285.869,30.604 285.869,235.136 266.921,246.078 266.016,246.577 245.717,258.3 244.84,258.806 
			224.534,270.53 223.649,271.042 203.315,282.773 202.459,283.276 182.127,294.996 181.239,295.499 160.952,307.225 
			160.046,307.746 139.765,319.458 138.874,319.97 115.607,333.389 115.607,187.8 115.593,176.091 115.593,128.91 138.874,115.467 
			139.765,114.951 160.046,103.238 160.952,102.721 181.239,90.994 203.315,78.255 223.649,66.528 224.534,66.012 		"/>
		<path fill="#102D1A" d="M266.023,50.641l0.891-0.509l18.94-10.946v-1.157l-18.94,10.935v-7.425l-0.891,0.516v7.429l-20.306,11.713
			l-0.884,0.513l-20.299,11.727v-7.432l-0.891,0.516v7.429l-20.32,11.727l-0.871,0.502l-20.318,11.727v-7.433l-0.888,0.517v7.429
			l-20.302,11.727l-0.888,0.517l-20.303,11.713v-7.429l-0.888,0.516v7.429l-23.281,13.446v1.157l23.281-13.443l0.888-0.516
			l20.303-11.713v11.713l-20.303,11.709l-0.888,0.521l-23.281,13.443v1.16l23.281-13.446v11.695l-23.281,13.45v1.157l23.281-13.44
			l0.888-0.516l20.303-11.713v11.696l-20.303,11.727l-0.888,0.502l-23.281,13.443v1.164l23.281-13.45v11.731L115.6,187.793v1.164
			l23.267-13.433l0.888-0.513l20.303-11.727v11.695l-20.303,11.73l-0.888,0.509L115.6,200.656v1.156l23.267-13.432v11.702
			L115.6,213.511v1.164l23.267-13.432l0.888-0.517l20.303-11.73v11.717l-20.303,11.723l-0.888,0.52L115.6,226.384v1.16
			l23.267-13.432v11.695L115.6,239.24v1.174l23.267-13.428l0.888-0.517l20.303-11.73v11.702l-20.303,11.724l-0.888,0.517
			L115.6,252.109v1.165l23.267-13.429v11.699L115.6,264.969v1.178l23.267-13.432l0.888-0.513l20.303-11.728v11.696l-20.303,11.727
			l-0.888,0.513L115.6,277.845v1.157l23.267-13.432v11.717l-23.252,13.424v1.161l23.252-13.429l0.888-0.499l20.303-11.728v11.695
			l-20.303,11.73l-0.888,0.499l-23.252,13.429v1.16l23.252-13.428v11.709l-23.252,13.436v1.157l23.252-13.428l0.888-0.506
			l20.303-11.724v11.699l-20.303,11.727l-0.888,0.502l-23.252,13.424v1.164l23.252-13.435v2.939l0.888-0.52v-2.915l20.303-11.73
			v2.936l0.888-0.517v-2.929l20.302-11.734v2.936l0.888-0.499v-2.932l20.318-11.745v2.954l0.871-0.502v-2.951l20.32-11.724v2.947
			l0.891-0.52v-2.946l20.299-11.728v2.951l0.884-0.502v-2.964l20.306-11.709v2.947l0.891-0.495v-2.972l18.94-10.935v-1.156
			l-18.94,10.938l-0.891,0.513l-20.306,11.709v-11.695l20.306-11.713l0.891-0.513l18.94-10.945v-1.153l-18.94,10.935v-11.71
			l18.94-10.938v-1.16l-18.94,10.941l-0.891,0.513l-20.306,11.713v-11.699l20.306-11.713l0.891-0.516l18.94-10.938v-1.161
			l-18.94,10.942v-11.713l18.94-10.942v-1.157l-18.94,10.938l-0.891,0.513l-20.306,11.716v-11.699l20.306-11.709l0.891-0.52
			l18.94-10.934v-1.178l-18.94,10.941v-11.706l18.94-10.935v-1.157l-18.94,10.935l-0.891,0.516l-20.306,11.717v-11.703
			l20.306-11.713l0.891-0.513l18.94-10.942v-1.174l-18.94,10.941v-11.699l18.94-10.938v-1.156l-18.94,10.938l-0.891,0.513
			l-20.306,11.713v-11.713l20.306-11.713l0.891-0.516l18.94-10.938v-1.161l-18.94,10.938v-11.695l18.94-10.938v-1.16l-18.94,10.938
			l-0.891,0.516l-20.306,11.716v-11.716l20.306-11.709l0.891-0.52l18.94-10.938v-1.16l-18.94,10.942V88.73l18.94-10.942v-1.157
			l-18.94,10.935l-0.891,0.516l-20.306,11.716V88.083l20.306-11.709l0.891-0.516l18.94-10.935v-1.164l-18.94,10.938V62.998
			l18.94-10.938v-1.161l-18.94,10.942l-0.891,0.513l-20.306,11.713V62.354L266.023,50.641z M160.944,111.307l20.302-11.724
			l0.888-0.517l20.318-11.73v11.72l-20.318,11.727l-0.888,0.513l-20.302,11.727V111.307z M223.643,99.683l-20.32,11.727
			l-0.871,0.502l-20.318,11.728V111.94l20.318-11.728l0.871-0.506l20.32-11.72V99.683z M139.754,148.108V136.41l20.303-11.713
			l0.888-0.517l20.302-11.727v11.699l-20.302,11.73l-0.888,0.509L139.754,148.108z M160.944,137.04l20.302-11.728l0.888-0.513
			l20.318-11.727v11.713l-20.318,11.724l-0.888,0.516l-20.302,11.706V137.04z M223.643,125.411l-20.32,11.727l-0.871,0.499
			l-20.318,11.745v-11.716l20.318-11.727l0.871-0.513l20.32-11.728V125.411z M139.754,173.852v-11.716l20.303-11.724l0.888-0.513
			l20.302-11.713v11.713l-20.302,11.713l-0.888,0.513L139.754,173.852z M160.944,162.765l20.302-11.709l0.888-0.513l20.318-11.745
			v11.713l-20.318,11.728l-0.888,0.513l-20.302,11.727V162.765z M223.643,151.129l-20.32,11.738l-0.871,0.502l-20.318,11.727
			v-11.695l20.318-11.728l0.871-0.505l20.32-11.738V151.129z M139.754,199.566v-11.699l20.303-11.727l0.888-0.499l20.302-11.728
			v11.695l-20.302,11.727l-0.888,0.502L139.754,199.566z M160.944,188.497l20.302-11.727l0.888-0.517l20.318-11.728v11.713
			l-20.318,11.727l-0.888,0.52l-20.302,11.727V188.497z M223.643,176.858l-20.32,11.738l-0.871,0.506l-20.318,11.727v-11.702
			l20.318-11.724l0.871-0.506l20.32-11.735V176.858z M139.754,225.295V213.6l20.303-11.728l0.888-0.502l20.302-11.727v11.699
			l-20.302,11.727l-0.888,0.499L139.754,225.295z M160.944,214.24l20.302-11.724l0.888-0.517l20.318-11.727v11.699l-20.318,11.727
			l-0.888,0.513l-20.302,11.731V214.24z M223.643,202.587l-20.32,11.741l-0.871,0.499l-20.318,11.727v-11.698l20.318-11.728
			l0.871-0.498l20.32-11.742V202.587z M139.754,251.023v-11.699l20.303-11.727l0.888-0.495l20.302-11.73v11.699l-20.302,11.727
			l-0.888,0.499L139.754,251.023z M160.944,239.972l20.302-11.727l0.888-0.513l20.318-11.727V227.7l-20.318,11.727l-0.888,0.513
			l-20.302,11.728V239.972z M223.643,228.348l-20.32,11.724l-0.871,0.502l-20.318,11.745v-11.727l20.318-11.727l0.871-0.502
			l20.32-11.741V228.348z M139.754,276.781v-11.723l20.303-11.728l0.888-0.502l20.302-11.724v11.709l-20.302,11.727l-0.888,0.517
			L139.754,276.781z M160.944,265.701l20.302-11.724l0.888-0.502l20.318-11.745v11.699l-20.318,11.745l-0.888,0.502l-20.302,11.72
			V265.701z M223.643,254.073l-20.32,11.727l-0.871,0.502l-20.318,11.745v-11.713l20.318-11.741l0.871-0.502l20.32-11.724V254.073z
			 M139.754,302.509V290.8l20.303-11.724l0.888-0.516l20.302-11.728v11.709l-20.302,11.727l-0.888,0.517L139.754,302.509z
			 M182.134,290.899l-0.888,0.503l-20.302,11.726V291.43l20.302-11.723l0.888-0.506l20.318-11.741v11.702L182.134,290.899z
			 M244.833,254.692l-20.299,11.727l-0.891,0.513l-20.32,11.727V266.96l20.32-11.728l0.891-0.516l20.299-11.724V254.692z
			 M266.023,217.891v11.716l-20.306,11.71l-0.884,0.516l-20.299,11.727v-11.713l20.299-11.724l0.884-0.517L266.023,217.891z
			 M244.833,228.963l-20.299,11.724l-0.891,0.516l-20.32,11.73v-11.706l20.32-11.72l0.891-0.521l20.299-11.727V228.963z
			 M266.023,192.158v11.72l-20.306,11.706l-0.884,0.52l-20.299,11.728v-11.71l20.299-11.73l0.884-0.513L266.023,192.158z
			 M244.833,203.231l-20.299,11.727l-0.891,0.502l-20.32,11.742v-11.699l20.32-11.744l0.891-0.499l20.299-11.724V203.231z
			 M266.023,166.433v11.699l-20.306,11.71l-0.884,0.52l-20.299,11.728v-11.703l20.299-11.73l0.884-0.509L266.023,166.433z
			 M244.833,177.502l-20.299,11.728l-0.891,0.499l-20.32,11.741v-11.699l20.32-11.738l0.891-0.499l20.299-11.73V177.502z
			 M266.023,140.704v11.695l-20.306,11.713l-0.884,0.516l-20.299,11.728v-11.699l20.299-11.728l0.884-0.52L266.023,140.704z
			 M244.833,151.773l-20.299,11.73l-0.891,0.495l-20.32,11.745v-11.716l20.32-11.738l0.891-0.506l20.299-11.723V151.773z
			 M266.023,114.976v11.699l-20.306,11.713l-0.884,0.509l-20.299,11.727v-11.695l20.299-11.728l0.884-0.517L266.023,114.976z
			 M244.833,126.041l-20.299,11.73l-0.891,0.499l-20.32,11.741v-11.716l20.32-11.72l0.891-0.52l20.299-11.728V126.041z
			 M266.023,89.243v11.699l-20.306,11.709l-0.884,0.521l-20.299,11.727v-11.709l20.299-11.72l0.884-0.509L266.023,89.243z
			 M244.833,100.312l-20.299,11.713l-0.891,0.516l-20.32,11.72V112.57l20.32-11.728l0.891-0.513l20.299-11.73V100.312z
			 M266.023,63.518v11.695l-20.306,11.713l-0.884,0.513l-20.299,11.727V87.467l20.299-11.727l0.884-0.513L266.023,63.518z
			 M244.833,74.583l-20.299,11.728l-0.891,0.513l-20.32,11.727V86.837l20.32-11.727l0.891-0.516l20.299-11.724V74.583z"/>
		<path opacity="0.7" fill="#102D1A" d="M538.742,377.053v-11.656l0.559,0.309v-1.229l-0.559-0.314v-11.709l0.509,0.277v-1.141
			l-0.509-0.275v-11.689l0.509,0.287l-0.007-1.227l-0.502-0.252V326.77l0.509,0.238v-1.193l-0.509-0.233v-11.671l0.488,0.252v-1.186
			l-0.488-0.24v-11.699l0.24,0.145v-1.164l-0.24-0.142v-11.709l0.155,0.085v-1.178l-0.155-0.085v-11.695l0.155,0.085v-1.157
			l-0.155-0.088v-11.695l0.127,0.067l0.028,0.018v-1.178l-0.028-0.011l-0.127-0.07v-11.699l0.099,0.053l0.057,0.032v-1.16
			l-0.063-0.042l-0.092-0.046v-11.709l0.056,0.028l0.1,0.053v-1.153l-0.1-0.056l-0.056-0.028V223.82l0.015,0.018v-1.161
			l-0.015-0.018l-0.885-0.499l-20.306-11.723l-0.892-0.52l-20.306-11.728v-11.698l20.306,11.73l0.892,0.509l20.306,11.72
			l0.855,0.499v-1.161l-0.855-0.502l-20.306-11.713v-11.709l20.306,11.728l0.828,0.47l-0.014-1.161l-0.814-0.47l-20.306-11.723
			l-0.892-0.502l-20.306-11.745v-11.698l20.306,11.727l0.892,0.517l21.692,12.537v-1.185l-21.692-12.527v-7.518l-0.892-0.513v7.518
			l-20.306-11.727l-0.885-0.517l-20.312-11.73v-7.514l-0.893-0.513v7.525l-20.298-11.724l-0.892-0.517l-20.3-11.709v-7.532
			l-0.891-0.513v7.528L413.907,112l-0.891-0.521l-20.306-11.727v-7.518l-0.885-0.513v7.528l-20.299-11.727l-0.898-0.513
			l-20.313-11.728v-7.532l-0.87-0.495v7.528l-20.319-11.727l-0.885-0.517l-20.306-11.73v-7.528l-0.885-0.513v7.528l-20.306-11.713
			l-0.891-0.516v1.164v11.695v1.157v11.72v1.157v11.695v1.164v11.713v1.153v11.706v1.157v11.709v1.161v11.699v1.174v11.703v1.157
			v11.695v1.175v11.699v1.156v11.717v1.161v11.695v1.16v11.716v1.157v11.695v1.164v11.709v1.157l0.891,0.52l20.306,11.71v2.879
			l0.885,0.516v-2.876l20.306,11.72l0.885,0.52l20.319,11.727v2.876l0.87,0.498v-2.876l20.313,11.724l0.898,0.52l20.299,11.727
			v2.876l0.885,0.517v-2.876l20.306,11.709l0.891,0.52l17.979,10.375v2.89l0.891,0.516v-2.893l20.3,11.726l0.892,0.508
			l20.298,11.723v2.895l0.893,0.516v-2.893l20.312,11.727l0.885,0.502l20.306,11.736v2.895l0.892,0.516v-2.906l20.306,11.727
			l0.885,0.52l0.502,0.283v-1.16L538.742,377.053z M537.857,363.652l-20.306-11.713V340.23l20.306,11.709V363.652z M307.937,219.224
			l20.306,11.728l0.885,0.502l20.319,11.728v11.713l-20.319-11.728l-0.885-0.516l-20.306-11.731V219.224z M307.937,193.496
			l20.306,11.727l0.885,0.513l20.319,11.727v11.699l-20.319-11.724l-0.885-0.517l-20.306-11.73V193.496z M307.937,167.76
			l20.306,11.734l0.885,0.513l20.319,11.728v11.695l-20.319-11.724l-0.885-0.513l-20.306-11.73V167.76z M307.937,142.034
			l20.306,11.727l0.885,0.517l20.319,11.724v11.702l-20.319-11.73l-0.885-0.513l-20.306-11.728V142.034z M307.937,116.292
			l20.306,11.727l0.885,0.521l20.319,11.72v11.717l-20.319-11.734l-0.885-0.513L307.937,128V116.292z M307.937,90.559l20.306,11.73
			l0.885,0.513l20.319,11.728v11.709l-20.319-11.724l-0.885-0.516l-20.306-11.724V90.559z M307.937,64.834l20.306,11.727
			l0.885,0.513l20.319,11.727v11.713l-20.319-11.728l-0.885-0.517l-20.306-11.727V64.834z M474.266,172.578l-20.298-11.717
			l-0.892-0.513l-20.3-11.73v-11.713l20.3,11.731l0.892,0.516l20.298,11.709V172.578z M516.66,248.515l-20.306-11.741l-0.885-0.495
			l-20.312-11.727V212.85l20.312,11.731l0.885,0.499l20.306,11.741V248.515z M516.66,274.237l-20.306-11.731l-0.885-0.502
			l-20.312-11.728v-11.695l20.312,11.73l0.885,0.496l20.306,11.727V274.237z M516.66,299.983l-20.306-11.73l-0.885-0.502
			l-20.312-11.723v-11.703l20.312,11.727l0.885,0.506l20.306,11.741V299.983z M516.66,325.695l-20.306-11.73l-0.885-0.514
			l-20.312-11.727v-11.67l20.312,11.727l0.885,0.501l20.306,11.728V325.695z M495.47,326.32l-20.312-11.719l-0.893-0.521
			l-20.298-11.709v-11.699l20.298,11.724l0.893,0.516l20.312,11.728V326.32z M350.316,217.965l20.313,11.741l0.898,0.499
			l20.299,11.727v11.681l-20.299-11.709l-0.898-0.517l-20.313-11.724V217.965z M350.316,192.232l20.313,11.741l0.898,0.513
			l20.299,11.716v11.699l-20.299-11.724l-0.898-0.506l-20.313-11.737V192.232z M350.316,166.507l20.313,11.724l0.898,0.52
			l20.299,11.72v11.703l-20.299-11.728l-0.898-0.516l-20.313-11.731V166.507z M350.316,140.761l20.313,11.745l0.898,0.509
			l20.299,11.713v11.713l-20.299-11.727l-0.898-0.513l-20.313-11.727V140.761z M350.316,115.032l20.313,11.738l0.898,0.502
			l20.299,11.727v11.716l-20.299-11.727l-0.898-0.517l-20.313-11.724V115.032z M371.527,114.417l20.299,11.727l0.885,0.513
			l20.306,11.716v11.709l-20.306-11.727l-0.885-0.52l-20.299-11.72V114.417z M474.266,224.032l-20.298-11.727l-0.892-0.499
			l-20.3-11.724V188.38l20.3,11.716l0.892,0.517l20.298,11.723V224.032z M474.266,249.768l-20.298-11.727l-0.892-0.503l-20.3-11.73
			v-11.695l20.3,11.727l0.892,0.502l20.298,11.73V249.768z M474.266,275.511l-20.298-11.727l-0.892-0.52l-20.3-11.709v-11.698
			l20.3,11.727l0.892,0.502l20.298,11.727V275.511z M474.266,301.211l-20.298-11.709l-0.892-0.521l-20.3-11.713v-11.681l20.3,11.713
			l0.892,0.513l20.298,11.727V301.211z M392.711,242.452l20.306,11.72l0.891,0.521l17.979,10.375v11.681l-17.979-10.375
			l-0.891-0.514l-20.306-11.727V242.452z M453.076,276.126l-20.3-11.731l-0.891-0.499l-17.979-10.383v-11.695l17.979,10.383
			l0.891,0.513l20.3,11.73V276.126z M392.711,216.72l20.306,11.727l0.891,0.516l17.979,10.38v11.698l-17.979-10.382l-0.891-0.513
			l-20.306-11.728V216.72z M453.076,250.408l-20.3-11.727l-0.891-0.499l-17.979-10.396v-11.713l17.979,10.396l0.891,0.499
			l20.3,11.73V250.408z M392.711,190.991l20.306,11.709l0.891,0.517l17.979,10.383v11.695l-17.979-10.379l-0.891-0.517
			l-20.306-11.713V190.991z M453.076,224.665l-20.3-11.724l-0.891-0.506l-17.979-10.394v-11.681l17.979,10.376l0.891,0.516
			l20.3,11.709V224.665z M392.711,165.244l20.306,11.731l0.891,0.509l17.979,10.383v11.699l-17.979-10.383l-0.891-0.513
			l-20.306-11.713V165.244z M453.076,198.936l-20.3-11.723l-0.891-0.502l-17.979-10.397v-11.695l17.979,10.379l0.891,0.513
			l20.3,11.728V198.936z M431.886,173.833l-17.979-10.376l-0.891-0.513l-20.306-11.716v-11.709l20.306,11.72l0.891,0.502
			l17.979,10.394V173.833z M371.527,140.142l20.299,11.727l0.885,0.52l20.306,11.709v11.713l-20.306-11.727l-0.885-0.513
			l-20.299-11.728V140.142z M371.527,165.892l20.299,11.709l0.885,0.513l20.306,11.728v11.698l-20.306-11.727l-0.885-0.513
			l-20.299-11.727V165.892z M371.527,191.603l20.299,11.73l0.885,0.513l20.306,11.724v11.703l-20.306-11.71l-0.885-0.52
			l-20.299-11.727V191.603z M371.527,217.349l20.299,11.728l0.885,0.502l20.306,11.728v11.695l-20.306-11.727l-0.885-0.513
			l-20.299-11.713V217.349z M371.527,243.079l20.299,11.712l0.885,0.517l20.306,11.724v11.698l-20.306-11.72l-0.885-0.52
			l-20.299-11.713V243.079z M413.907,267.551l17.979,10.375l0.891,0.517l20.3,11.709v11.707l-20.3-11.73l-0.891-0.499
			l-17.979-10.383V267.551z M495.47,300.596l-20.312-11.727l-0.893-0.517l-20.298-11.713v-11.684l20.298,11.73l0.893,0.499
			l20.312,11.741V300.596z M495.47,274.896l-20.312-11.728l-0.893-0.517l-20.298-11.73v-11.709l20.298,11.727l0.893,0.517
			l20.312,11.728V274.896z M495.47,249.148l-20.312-11.723l-0.893-0.517l-20.298-11.727v-11.699l20.298,11.727l0.893,0.513
			l20.312,11.727V249.148z M495.47,223.42l-20.312-11.742l-0.893-0.502l-20.298-11.724V187.74l20.298,11.728l0.893,0.513
			l20.312,11.727V223.42z M474.266,198.303l-20.298-11.724l-0.892-0.499l-20.3-11.728v-11.716l20.3,11.731l0.892,0.513
			l20.298,11.723V198.303z M453.076,173.208l-20.3-11.727l-0.891-0.502l-17.979-10.397v-11.699l17.979,10.387l0.891,0.516
			l20.3,11.724V173.208z M431.886,148.108l-17.979-10.383l-0.891-0.517l-20.306-11.713v-11.709l20.306,11.727l0.891,0.495
			l17.979,10.383V148.108z M391.826,124.983l-20.299-11.727l-0.898-0.51l-20.313-11.73V89.299l20.313,11.745l0.898,0.502
			l20.299,11.724V124.983z M329.127,89.943l20.319,11.727l0.87,0.502l20.313,11.73v11.71l-20.313-11.745l-0.87-0.495l-20.319-11.728
			V89.943z M329.127,115.676l20.319,11.727l0.87,0.499l20.313,11.727v11.713l-20.313-11.741l-0.87-0.499l-20.319-11.73V115.676z
			 M329.127,141.404l20.319,11.724l0.87,0.505l20.313,11.738v11.699l-20.313-11.741l-0.87-0.499l-20.319-11.727V141.404z
			 M329.127,167.133l20.319,11.727l0.87,0.506l20.313,11.738v11.699l-20.313-11.727l-0.87-0.503l-20.319-11.738V167.133z
			 M329.127,192.866l20.319,11.727l0.87,0.513l20.313,11.727v11.695l-20.313-11.723l-0.87-0.502l-20.319-11.724V192.866z
			 M329.127,218.591l20.319,11.727l0.87,0.506l20.313,11.738v11.699l-20.313-11.724l-0.87-0.502l-20.319-11.727V218.591z
			 M350.316,243.697l20.313,11.724l0.898,0.502l20.299,11.724v11.716l-20.299-11.734l-0.898-0.509l-20.313-11.73V243.697z
			 M392.711,268.163l20.306,11.713l0.891,0.513l17.979,10.382v11.713l-17.979-10.378l-0.891-0.517l-20.306-11.73V268.163z
			 M432.776,291.288l20.3,11.709l0.892,0.52l20.298,11.724v11.716l-20.298-11.73l-0.892-0.513l-20.3-11.716V291.288z
			 M475.158,315.744l20.312,11.723l0.885,0.52l20.306,11.729v11.713l-20.306-11.732l-0.885-0.5l-20.312-11.738V315.744z
			 M537.857,350.793l-20.306-11.727l-0.892-0.502l-20.306-11.725v-11.698l20.306,11.745l0.892,0.5l20.306,11.723V350.793z
			 M537.857,337.922l-20.306-11.711v-11.688l20.306,11.73V337.922z M537.857,325.065l-20.306-11.73l-0.892-0.502l-20.306-11.734
			v-11.674l20.306,11.731l0.892,0.516l20.306,11.72V325.065z M537.857,312.224l-20.306-11.734v-11.678l20.306,11.713V312.224z
			 M537.857,299.368l-20.306-11.72l-0.892-0.513l-20.306-11.742v-11.713l20.306,11.724l0.892,0.517l20.306,11.727V299.368z
			 M537.857,286.477l-20.306-11.727v-11.695l20.306,11.727V286.477z M537.857,273.622l-20.306-11.731l-0.892-0.513l-20.306-11.727
			v-11.699l20.306,11.727l0.892,0.517l20.306,11.727V273.622z M537.857,260.749l-20.306-11.728v-11.698l20.306,11.727V260.749z
			 M537.857,247.886l-20.306-11.724l-0.892-0.513l-20.306-11.727v-11.713l20.306,11.727l0.892,0.517l20.306,11.723V247.886z
			 M537.857,223.321v11.695l-20.306-11.728v-11.694L537.857,223.321z M516.66,211.077v11.699l-20.306-11.727l-0.885-0.499
			l-20.312-11.727V187.11l20.312,11.737l0.885,0.502L516.66,211.077z M495.47,197.691l-20.312-11.741l-0.893-0.499l-20.298-11.727
			v-11.703l20.298,11.713l0.893,0.517l20.312,11.728V197.691z M516.66,185.345v11.716l-20.306-11.727l-0.885-0.517l-20.312-11.73
			v-11.709l20.312,11.741l0.885,0.506L516.66,185.345z M474.266,148.006l0.893,0.517l20.312,11.723v11.721l-20.312-11.731
			l-0.893-0.517l-20.298-11.727v-11.699L474.266,148.006z M431.886,123.537l0.891,0.516l20.3,11.727v11.699l-20.3-11.713
			l-0.891-0.521l-17.979-10.379v-11.713L431.886,123.537z M391.826,100.411l0.885,0.513l20.306,11.713v11.713l-20.306-11.727
			l-0.885-0.513l-20.299-11.71V88.684L391.826,100.411z M349.446,75.938l0.87,0.506l20.313,11.723v11.716l-20.313-11.741
			l-0.87-0.502l-20.319-11.728V64.214L349.446,75.938z M286.746,39.745l20.306,11.713l0.885,0.517l20.306,11.727v11.695
			l-20.306-11.724l-0.885-0.499l-20.306-11.727V39.745z M286.746,52.604l20.306,11.709v11.713l-20.306-11.713V52.604z
			 M286.746,65.478l20.306,11.713l0.885,0.513l20.306,11.728v11.695l-20.306-11.728l-0.885-0.499l-20.306-11.727V65.478z
			 M286.746,78.33l20.306,11.727v11.699l-20.306-11.709V78.33z M286.746,91.207l20.306,11.709l0.885,0.517l20.306,11.727v11.703
			l-20.306-11.728l-0.885-0.502l-20.306-11.728V91.207z M286.746,104.065l20.306,11.727v11.695l-20.306-11.709V104.065z
			 M286.746,116.936l20.306,11.723l0.885,0.502l20.306,11.73v11.695l-20.306-11.724l-0.885-0.502l-20.306-11.724V116.936z
			 M286.746,129.809l20.306,11.709v11.702l-20.306-11.716V129.809z M286.746,142.667l20.306,11.724l0.885,0.502l20.306,11.727
			v11.696l-20.306-11.727l-0.885-0.499l-20.306-11.727V142.667z M286.746,155.538l20.306,11.727v11.699l-20.306-11.728V155.538z
			 M286.746,168.396l20.306,11.727l0.885,0.499l20.306,11.724v11.713l-20.306-11.727l-0.885-0.51l-20.306-11.716V168.396z
			 M286.746,181.27l20.306,11.724v11.685l-20.306-11.716V181.27z M286.746,194.122l20.306,11.731l0.885,0.498l20.306,11.724v11.713
			l-20.306-11.72l-0.885-0.52l-20.306-11.709V194.122z M286.746,206.999l20.306,11.709v11.703l-20.306-11.716V206.999z
			 M307.937,243.793l-0.885-0.513l-20.306-11.709v-11.712l20.306,11.723l0.885,0.517l20.306,11.724v11.699L307.937,243.793z
			 M350.316,268.263l-0.87-0.499l-20.319-11.728v-11.713l20.319,11.742l0.87,0.502l20.313,11.738v11.684L350.316,268.263z
			 M392.711,292.746l-0.885-0.513l-20.299-11.727v-11.699l20.299,11.727l0.885,0.513l20.306,11.727v11.688L392.711,292.746z
			 M432.776,315.875l-0.891-0.52l-17.979-10.38v-11.68l17.979,10.375l0.891,0.52l20.3,11.723v11.689L432.776,315.875z
			 M475.158,340.344l-0.893-0.52l-20.298-11.721V316.43l20.298,11.727l0.893,0.518l20.312,11.723v11.674L475.158,340.344z
			 M517.552,364.814l-0.892-0.504l-20.306-11.74v-11.668l20.306,11.738l0.892,0.512l20.306,11.732v11.656L517.552,364.814z"/>
	</g>
	<polygon fill="#7A7F81" points="285.869,30.604 285.869,130.816 115.607,229.324 115.593,128.91 	"/>
	<polygon fill="#8D9094" points="539.244,176.865 539.123,194.043 538.955,295.172 285.777,148.696 285.777,30.456 	"/>
	<g>
		<g enable-background="new    ">
			<g>
				<polygon fill="#C8C7BF" points="337.319,127.555 337.319,235.897 392.711,203.846 393.051,95.83 				"/>
			</g>
			<g>
				<polygon fill="#DDDDD8" points="337.319,127.548 337.319,235.893 285.338,205.513 285.338,97.209 				"/>
			</g>
			<g>
				<polygon fill="#ADACA6" points="393.051,95.83 335.883,62.906 278.708,93.407 337.319,127.555 				"/>
			</g>
		</g>
	</g>
	<g>
		<g>
			<g enable-background="new    ">
				<g>
					<polygon fill="#50545A" points="429.339,293.467 429.324,297.034 334.836,242.477 334.843,238.915 					"/>
				</g>
				<g>
					<polygon fill="#272A2F" points="429.339,293.467 461.488,274.786 461.48,278.352 429.324,297.034 					"/>
				</g>
				<g>
					<polygon fill="#2B3036" points="334.843,238.915 367,220.226 461.488,274.786 429.339,293.467 					"/>
				</g>
			</g>
		</g>
		<g>
			<g enable-background="new    ">
				<g>
					<polygon fill="#666C71" points="412.62,254.586 429.331,293.545 334.836,238.993 351.746,219.437 					"/>
				</g>
				<g>
					<polygon fill="#4A5057" points="412.62,254.586 444.777,235.897 461.488,274.86 429.331,293.545 					"/>
				</g>
				<g>
					<polygon fill="#42484E" points="351.746,219.437 383.896,200.751 444.777,235.897 412.62,254.586 					"/>
				</g>
			</g>
		</g>
		<g>
			<g enable-background="new    ">
				<g>
					<polygon fill="#505357" points="399.956,136.211 399.764,247.125 361.941,225.397 362.132,114.48 					"/>
				</g>
				<g>
					<polygon fill="#393C3D" points="399.871,136.211 432.027,117.53 431.907,228.411 399.758,247.093 					"/>
				</g>
				<g>
					<polygon fill="#42484E" points="362.026,114.49 394.175,95.809 432.041,117.505 399.886,136.19 					"/>
				</g>
			</g>
		</g>
	</g>
	<g>
		<polygon fill="#DDDDD8" points="226.501,131.043 226.501,239.562 172.94,208.644 172.94,100.121 		"/>
	</g>
	<g>
		<polygon fill="#C8C7BF" points="285.338,97.209 285.338,205.513 226.501,239.562 226.501,131.043 		"/>
	</g>
	<polygon fill="#ADACA6" points="172.94,100.164 226.501,131.093 340.305,65.45 285.854,34.113 	"/>
	<polygon fill="#A6A49E" points="337.319,179.494 337.319,181.171 285.338,151.147 285.338,149.47 	"/>
	<polygon fill="#A6A49E" points="285.338,149.566 285.338,151.246 226.501,185.221 226.501,183.548 	"/>
	<g>
		<g>
			<g enable-background="new    ">
				<g>
					<polygon fill="#C8C7BF" points="495.888,219.26 495.888,327.605 539.23,302.577 539.23,194.235 					"/>
				</g>
				<g>
					<polygon fill="#DDDDD8" points="495.88,219.26 495.88,327.605 437.362,293.587 437.263,261.24 437.263,259.574 
						437.149,220.547 437.149,218.888 437.044,185.239 					"/>
				</g>
				<g>
					<polygon fill="#ADACA6" points="539.23,180.095 539.301,194.235 495.959,219.256 437.129,185.239 492.725,153.365 					"/>
				</g>
			</g>
		</g>
		<polygon fill="#A6A49E" points="495.88,252.792 495.88,254.452 437.149,220.547 437.149,218.888 		"/>
		<polygon fill="#A6A49E" points="495.88,293.415 495.88,295.077 437.263,261.24 437.263,259.574 		"/>
		<g>
			<g>
				<g enable-background="new    ">
					<g>
						<polygon fill="#81817F" points="454.838,220.721 454.83,222.026 452.899,223.151 452.899,221.846 						"/>
					</g>
					<g>
						<polygon fill="#81817F" points="476.897,233.456 476.897,234.769 474.959,235.89 474.966,234.577 						"/>
					</g>
					<g>
						<polygon fill="#908E88" points="476.897,233.456 474.966,234.577 476.629,235.54 475.646,236.113 449.086,220.792 
							450.083,220.208 451.858,221.241 453.798,220.116 454.838,220.721 452.899,221.846 473.926,233.979 475.864,232.858 						"/>
					</g>
					<g>
						<polygon fill="#81817F" points="476.629,235.54 476.629,236.856 475.639,237.429 475.646,236.113 						"/>
					</g>
					<g>
						<polygon fill="#5C5C58" points="475.646,236.113 475.639,237.429 449.086,222.097 449.086,220.792 						"/>
					</g>
				</g>
			</g>
			<g>
				<g enable-background="new    ">
					<g>
						<polygon fill="#81817F" points="454.838,260.579 454.83,261.888 452.899,263.013 452.899,261.703 						"/>
					</g>
					<g>
						<polygon fill="#81817F" points="476.897,273.314 476.897,274.626 474.959,275.751 474.966,274.442 						"/>
					</g>
					<g>
						<polygon fill="#908E88" points="476.897,273.314 474.966,274.442 476.629,275.405 475.646,275.978 449.086,260.649 
							450.083,260.069 451.858,261.102 453.798,259.974 454.838,260.579 452.899,261.703 473.926,273.841 475.864,272.712 						"/>
					</g>
					<g>
						<polygon fill="#81817F" points="476.629,275.405 476.629,276.713 475.639,277.29 475.646,275.978 						"/>
					</g>
					<g>
						<polygon fill="#5C5C58" points="475.646,275.978 475.639,277.29 449.086,261.955 449.086,260.649 						"/>
					</g>
				</g>
			</g>
			<g>
				<g enable-background="new    ">
					<g>
						<polygon fill="#81817F" points="454.838,291.872 454.83,293.181 452.899,294.309 452.899,292.997 						"/>
					</g>
					<g>
						<polygon fill="#81817F" points="476.897,304.608 476.897,305.919 474.959,307.045 474.966,305.735 						"/>
					</g>
					<g>
						<polygon fill="#908E88" points="476.897,304.608 474.966,305.735 476.629,306.698 475.646,307.271 449.086,291.943 
							450.083,291.366 451.858,292.396 453.798,291.267 454.838,291.872 452.899,292.997 473.926,305.134 475.864,304.009 						"/>
					</g>
					<g>
						<polygon fill="#81817F" points="476.629,306.698 476.629,308.006 475.639,308.583 475.646,307.271 						"/>
					</g>
					<g>
						<polygon fill="#5C5C58" points="475.646,307.271 475.639,308.583 449.086,293.252 449.086,291.943 						"/>
					</g>
				</g>
			</g>
		</g>
	</g>
	<g>
		<g enable-background="new    ">
			<g>
				<polygon fill="#81817F" points="265.181,153.723 265.188,155.028 267.126,156.157 267.119,154.844 				"/>
			</g>
			<g>
				<polygon fill="#81817F" points="243.113,166.458 243.121,167.767 245.06,168.892 245.052,167.583 				"/>
			</g>
			<g>
				<polygon fill="#908E88" points="243.113,166.458 245.052,167.583 243.39,168.549 244.373,169.122 270.926,153.79 
					269.935,153.217 268.16,154.243 266.228,153.117 265.181,153.723 267.119,154.844 246.099,166.981 244.161,165.856 				"/>
			</g>
			<g>
				<polygon fill="#81817F" points="243.39,168.549 243.39,169.854 244.38,170.43 244.373,169.122 				"/>
			</g>
			<g>
				<polygon fill="#5C5C58" points="244.373,169.122 244.38,170.43 270.933,155.099 270.926,153.79 				"/>
			</g>
		</g>
	</g>
	<g>
		<g enable-background="new    ">
			<g>
				<polygon fill="#81817F" points="265.181,207.815 265.188,209.128 267.126,210.253 267.119,208.944 				"/>
			</g>
			<g>
				<polygon fill="#81817F" points="243.113,220.558 243.121,221.863 245.06,222.992 245.052,221.687 				"/>
			</g>
			<g>
				<polygon fill="#908E88" points="243.113,220.558 245.052,221.687 243.39,222.642 244.373,223.218 270.926,207.886 
					269.935,207.31 268.16,208.339 266.228,207.211 265.181,207.815 267.119,208.944 246.099,221.082 244.161,219.956 				"/>
			</g>
			<g>
				<polygon fill="#81817F" points="243.39,222.642 243.39,223.958 244.38,224.527 244.373,223.218 				"/>
			</g>
			<g>
				<polygon fill="#5C5C58" points="244.373,223.218 244.38,224.527 270.933,209.199 270.926,207.886 				"/>
			</g>
		</g>
	</g>
	<g>
		<path fill="#272A2F" d="M378.475,222.914c0-1.037,0.729-1.461,1.628-0.941c0.898,0.517,1.627,1.78,1.627,2.816
			c0,1.036-0.729,1.457-1.627,0.938C379.204,225.21,378.475,223.954,378.475,222.914z"/>
		<path fill="#272A2F" d="M378.475,228.957c0-1.037,0.729-1.458,1.628-0.935c0.898,0.517,1.627,1.78,1.627,2.813
			c0,1.041-0.729,1.458-1.627,0.941C379.204,231.256,378.475,229.996,378.475,228.957z"/>
		<path fill="#272A2F" d="M378.475,216.865c0-1.033,0.729-1.454,1.628-0.934c0.898,0.517,1.627,1.78,1.627,2.816
			c0,1.036-0.729,1.457-1.627,0.937C379.204,219.167,378.475,217.905,378.475,216.865z"/>
		<path fill="#272A2F" d="M378.475,210.826c0-1.037,0.729-1.461,1.628-0.941c0.898,0.513,1.627,1.783,1.627,2.815
			c0,1.037-0.729,1.458-1.627,0.938C379.204,213.118,378.475,211.859,378.475,210.826z"/>
	</g>
	<g>
		<g>
			<g enable-background="new    ">
				<g>
					<polygon fill="#8A602B" points="181.162,266.96 181.172,270.502 123.811,303.393 123.799,299.86 					"/>
				</g>
				<g>
					<polygon fill="#73471C" points="123.811,303.393 115.625,298.664 115.614,295.126 123.799,299.86 					"/>
				</g>
				<g>
					<polygon fill="#AE722E" points="123.799,299.86 115.614,295.126 173.27,262.372 181.166,266.96 					"/>
				</g>
			</g>
		</g>
		<g>
			<polygon fill="#8A602B" points="175.834,141.635 175.834,264.106 118.875,296.987 118.875,174.52 			"/>
			<polygon fill="#C1E8FB" points="175.834,151.083 175.834,254.657 127.086,282.805 127.086,179.236 			"/>
		</g>
		<polygon fill="#73471C" points="118.883,174.509 115.646,172.609 115.618,295.105 118.883,296.987 		"/>
		<polygon fill="#AE722E" points="115.618,172.613 172.339,139.661 175.834,141.635 118.858,174.52 		"/>
		<polygon fill="#8A602B" points="168.567,258.941 175.831,254.745 175.831,148.763 168.699,153.422 		"/>
		<polygon fill="#73471C" points="168.567,258.87 167.241,258.099 167.241,152.608 168.699,153.422 		"/>
		<g>
			<g>
				<polygon fill="#F2F2F2" points="125.869,240.309 169.937,215.04 169.937,212.514 125.869,237.701 				"/>
				<polygon fill="#F2F2F2" points="125.869,236.753 169.937,211.484 169.937,208.951 125.869,234.142 				"/>
				<polygon fill="#F2F2F2" points="125.869,233.307 169.937,208.045 169.937,205.513 125.869,230.697 				"/>
				<polygon fill="#F2F2F2" points="125.869,229.908 169.937,204.646 169.937,202.113 125.869,227.308 				"/>
				<polygon fill="#F2F2F2" points="125.869,226.349 169.937,201.083 169.937,198.554 125.869,223.749 				"/>
				<polygon fill="#F2F2F2" points="125.869,222.911 169.937,197.645 169.937,195.116 125.869,220.303 				"/>
				<polygon fill="#F2F2F2" points="125.869,219.408 169.937,194.143 169.937,191.614 125.869,216.805 				"/>
				<polygon fill="#F2F2F2" points="125.869,215.85 169.937,190.588 169.937,188.059 125.869,213.246 				"/>
				<polygon fill="#F2F2F2" points="125.869,212.404 169.937,187.146 169.937,184.616 125.869,209.808 				"/>
				<polygon fill="#F2F2F2" points="125.869,209.011 169.937,183.746 169.937,181.22 125.869,206.408 				"/>
				<polygon fill="#F2F2F2" points="125.869,205.453 169.937,180.19 169.937,177.658 125.869,202.853 				"/>
				<polygon fill="#F2F2F2" points="125.869,202.011 169.937,176.745 169.937,174.219 125.869,199.407 				"/>
				<polygon fill="#F2F2F2" points="125.869,198.508 169.937,173.247 169.937,170.717 125.869,195.905 				"/>
				<polygon fill="#F2F2F2" points="125.869,194.953 169.937,169.688 169.937,167.158 125.869,192.35 				"/>
				<polygon fill="#F2F2F2" points="125.869,191.511 169.937,166.242 169.937,163.716 125.869,188.911 				"/>
				<polygon fill="#F2F2F2" points="125.869,188.115 169.937,162.853 169.937,160.324 125.869,185.512 				"/>
				<polygon fill="#F2F2F2" points="125.869,184.556 169.937,159.294 169.937,156.765 125.869,181.952 				"/>
				<polygon fill="#F2F2F2" points="125.869,181.114 169.937,155.845 169.937,153.319 125.869,178.514 				"/>
			</g>
			<g>
				<g enable-background="new    ">
					<g>
						<polygon fill="#B28F62" points="170.344,152.095 170.351,153.857 126.754,179.133 126.739,177.371 						"/>
					</g>
					<g>
						<polygon fill="#7E6645" points="126.754,179.133 124.38,177.753 124.366,175.992 126.739,177.371 						"/>
					</g>
					<g>
						<polygon fill="#C59F6D" points="126.739,177.371 124.366,175.992 167.967,150.715 170.344,152.095 						"/>
					</g>
				</g>
			</g>
		</g>
		<polygon fill="#AE722E" points="127.079,282.805 168.567,258.87 167.241,258.099 127.079,281.178 		"/>
	</g>
	<g>
		<g enable-background="new    ">
			<g>
				<polygon fill="#81817F" points="301.236,151.95 301.229,153.266 299.297,154.388 299.297,153.082 				"/>
			</g>
			<g>
				<polygon fill="#81817F" points="323.296,164.692 323.296,166.001 321.357,167.13 321.365,165.821 				"/>
			</g>
			<g>
				<polygon fill="#908E88" points="323.296,164.692 321.365,165.821 323.027,166.78 322.044,167.353 295.491,152.028 
					296.481,151.455 298.257,152.477 300.196,151.352 301.236,151.95 299.297,153.082 320.317,165.216 322.256,164.095 				"/>
			</g>
			<g>
				<polygon fill="#81817F" points="323.027,166.78 323.027,168.092 322.037,168.665 322.044,167.353 				"/>
			</g>
			<g>
				<polygon fill="#5C5C58" points="322.044,167.353 322.037,168.665 295.483,153.337 295.491,152.028 				"/>
			</g>
		</g>
	</g>
	<g>
		<g enable-background="new    ">
			<g>
				<polygon fill="#81817F" points="301.236,206.379 301.229,207.692 299.29,208.813 299.297,207.504 				"/>
			</g>
			<g>
				<polygon fill="#81817F" points="323.296,219.122 323.296,220.427 321.357,221.556 321.365,220.24 				"/>
			</g>
			<g>
				<polygon fill="#908E88" points="323.296,219.122 321.365,220.24 323.027,221.206 322.037,221.778 295.491,206.45 
					296.481,205.874 298.257,206.903 300.188,205.778 301.236,206.379 299.297,207.504 320.317,219.642 322.256,218.52 				"/>
			</g>
			<g>
				<polygon fill="#81817F" points="323.027,221.206 323.027,222.521 322.037,223.091 322.037,221.778 				"/>
			</g>
			<g>
				<polygon fill="#5C5C58" points="322.037,221.778 322.037,223.091 295.483,207.763 295.491,206.45 				"/>
			</g>
		</g>
	</g>
	<g opacity="0.4">
		<polygon fill="#ADACA6" points="280.492,143.198 280.492,105 232.755,132.836 232.755,170.717 		"/>
	</g>
	<g opacity="0.4">
		<polygon fill="#ADACA6" points="280.492,199.18 280.492,160.982 232.755,188.815 232.755,226.696 		"/>
	</g>
</g>
</svg>
