<?xml version="1.0" encoding="utf-8"?>
<!-- Generator: Adobe Illustrator 16.0.0, SVG Export Plug-In . SVG Version: 6.00 Build 0)  -->
<!DOCTYPE svg PUBLIC "-//W3C//DTD SVG 1.1//EN" "http://www.w3.org/Graphics/SVG/1.1/DTD/svg11.dtd">
<svg version="1.1" id="Layer_1" xmlns="http://www.w3.org/2000/svg" xmlns:xlink="http://www.w3.org/1999/xlink" x="0px" y="0px"
	 width="650px" height="650px" viewBox="0 0 650 650" enable-background="new 0 0 650 650" xml:space="preserve">
<polygon fill="#D5A484" points="414.125,500.489 414.125,500.489 414.749,500.843 "/>
<g>
	<g>
		<path fill="#E82642" d="M363.929,456.291c-0.913-4.527-8.059-7.859-14.893-6.293c-2.739,0.627-10.613,2.379-19.067,4.256
			c-3.17,3.035-3.948,14.686-5.526,25.244c7.563-3.838,14.257-6.955,14.589-5.861c0.68,2.281-10.832,25.18-13.23,29.906
			c-0.275,0.545-0.438,0.859-0.438,0.859c3.092,3.535,9.522,5.338,9.522,5.338c0.418-0.488,0.963-1.178,1.578-2.008
			C344.076,497.443,365.237,462.674,363.929,456.291z"/>
		<path fill="#AE722E" d="M254.639,500.391c-1.012,4.875,0.24,11.664-2.13,12.768c-1.288,0.607-3.297,0.57-5.087-0.813
			c-1.464-1.129-2.816-3.164-3.502-6.51c-1.521-7.408,1.578-15.125,5.483-15.125c0.17,0,0.325,0,0.481,0.016
			c3.566,0.184,4.755,2.332,4.755,2.332S255.658,495.512,254.639,500.391z"/>
		<linearGradient id="SVGID_1_" gradientUnits="userSpaceOnUse" x1="352.4746" y1="498.5557" x2="313.1071" y2="419.2472">
			<stop  offset="0.01" style="stop-color:#DAA192"/>
			<stop  offset="0.99" style="stop-color:#DE817B"/>
		</linearGradient>
		<path fill="url(#SVGID_1_)" d="M348.661,479.074c0,0-7.395-22.17-16.054-35.42c-8.668-13.248-14.059-30.783-14.059-30.783
			l-13.471,7.09c0,0,0.537,2.539,2.228,5.512c0.085,0.17,4.203,7.51,6.948,13.85c2.752,6.342,7.648,11.465,13.252,19.365
			c5.61,7.902,14.78,24.246,14.78,24.246s1.407,3.598,4.082,6.459c2.668,2.869,1.748-0.488,1.521-1.096
			c-0.282-0.797-0.961-1.52-0.813-1.914c0.24-0.623,3.035,1.426,3.997,5.199c0.716,2.834,2.108,4.064,2.073,1.682
			c-0.05-3.188-0.877-4.154-0.877-4.154s0.644,0.148,2.504,5.268c0.623,1.727,2.505,2.469,1.437-1.684
			c-0.283-1.096-0.53-1.938-0.743-2.604c0.538,1.139,1.211,2.205,1.691,1.787C358.007,491.146,355.148,484.043,348.661,479.074z"/>
		<path fill="#AE722E" d="M336.463,507.732c-0.615,0.83-1.16,1.52-1.578,2.008c0,0-6.431-1.803-9.522-5.338
			c0,0,0.163-0.314,0.438-0.859c-1.012,0-3.162,1.814-3.162,4.994c0,0.398,0.042,0.801,0.127,1.201
			c0.615,2.932,9.664,5.744,15.184,7.729c2.688,0.965,4.98,0.535,6.227-0.559c1.344-1.213,1.443-3.197-0.538-5.049
			C342.229,510.541,339.428,509.072,336.463,507.732z"/>
		<path fill="#E82642" d="M268.888,489.689c-5.137-5.26-12.169-10.576-16.266-13.623c0.354,4.115,1.896,13.949,8.837,19.445
			l-8.95-3.395c-2.816,0.584-4.5,6.738-2.604,7.824c1.882,1.1,50.325,33.512,69.053,21.092c4.507-2.988,3.24-9.432-0.17-13.238
			c-1.464-1.637-3.226-3.549-5.15-5.627c-5.837,4.676-12.487,6.986-15.516,7.885C293.906,511.307,276.529,497.516,268.888,489.689z"
			/>
		<linearGradient id="SVGID_2_" gradientUnits="userSpaceOnUse" x1="324.2617" y1="520.2842" x2="262.5899" y2="439.6077">
			<stop  offset="0.01" style="stop-color:#DAA192"/>
			<stop  offset="0.99" style="stop-color:#DE817B"/>
		</linearGradient>
		<path fill="url(#SVGID_2_)" d="M258.445,434.27c0.092,0.129,0.191,0.299,0.311,0.475c-0.063-0.17-0.12-0.354-0.176-0.533
			L258.445,434.27z"/>
		<path fill="#391B51" d="M308.644,425.221l1.62-0.9c-0.24-1.426-0.538-3.15-0.927-5.078
			C309.139,422.854,308.644,425.221,308.644,425.221z"/>
		<path fill="#391B51" d="M312.266,419.238c0,1.502-0.063,2.846-0.191,4.063l9.269-5.172c-5.406-16.506-14.73-24.838-18.834-25.34
			c0,0,0.474,0.445,1.195,1.588C310.731,399.096,312.266,412.656,312.266,419.238z"/>
		<path fill="#2D133D" d="M309.896,431.91c0.955-2.121,1.818-4.748,2.179-8.609l-1.812,1.02c0.417,2.574,0.594,4.188,0.594,4.188
			C310.674,429.664,310.321,430.824,309.896,431.91z"/>
		<g>
			<path fill="#2D133D" d="M303.705,394.377c-1.245-0.842-2.667-1.412-4.295-1.6c5.264,7.289,8.321,18.537,9.927,26.465
				c0.389,1.928,0.687,3.652,0.927,5.078l1.812-1.02c0.127-1.217,0.191-2.561,0.191-4.063
				C312.266,412.656,310.731,399.096,303.705,394.377z"/>
			<g>
				<path fill="#2D133D" d="M272.391,404.471c-5.137,2.736-9.629,5.121-10.62,5.67c-2.349,1.287-5.921,8.67-7.698,21.668
					c-0.828,5.947-1.209,15.316-1.387,23.744c5.83-2.471,15.764-7.625,20.603-12.686c7.309-7.682,6.431-17.129,4.776-25.797
					C276.841,410.674,273.869,406.32,272.391,404.471z"/>
				<path fill="#2D133D" d="M301.668,403.494c-1.274-3.168-2.682-7.783-4.685-10.734c-0.48,0.053-0.962,0.117-1.471,0.227
					c-1.684,0.357-3.53,1.043-5.576,2.123c-2.228,1.199-8.851,4.732-15.147,8.08c1.712,2.32,4.818,6.863,6.622,11.586
					c2.59,6.791,3.623,15.477,3.623,15.477l20.737-12.123C305.771,418.129,303.762,408.75,301.668,403.494z"/>
			</g>
		</g>
		<path fill="#19AF91" d="M306.726,439.592c-0.326,1.527-0.665,3.615-1.005,5.9C306.083,443.338,306.464,441.176,306.726,439.592z"
			/>
		<path fill="#19AF91" d="M299.41,392.777c-1.196-0.154-1.061-0.396-2.483-0.1c0.021,0.033,0.035,0.061,0.056,0.082
			C297.833,392.676,298.64,392.676,299.41,392.777z"/>
		<path fill="#19AF91" d="M309.896,431.91c-0.538,1.225-1.104,2.266-1.613,3.305C308.792,434.328,309.387,433.184,309.896,431.91z"
			/>
		<path fill="#19AF91" d="M307.561,459.232c0,0-2.512-2.18-3.169-3.979c-0.127-0.33-0.17-0.652-0.142-0.943
			c0.106-0.855,0.764-4.723,1.429-8.59c0.007-0.074,0.029-0.152,0.042-0.229c0.34-2.285,0.679-4.373,1.005-5.9
			c0.015-0.061,0.036-0.111,0.036-0.152c0.254-1.486,0.424-2.449,0.424-2.449s0.474-0.689,1.097-1.775
			c0.509-1.039,1.075-2.08,1.613-3.305c0.425-1.086,0.892-1.686,1.075-2.852c0,0-2.703-24.02-11.561-36.281
			c-0.771-0.102-1.578-0.102-2.427-0.018c2.002,2.951,3.41,7.566,4.685,10.734c2.094,5.256,4.103,14.635,4.103,14.635
			l-20.737,12.123c0,0-1.033-8.686-3.623-15.477c-1.804-4.723-4.91-9.266-6.622-11.586c-0.807,0.432-1.599,0.852-2.398,1.281
			c1.479,1.85,4.45,6.203,5.674,12.6c1.655,8.668,2.533,18.115-4.776,25.797c-4.839,5.061-14.773,10.215-20.603,12.686
			c-0.226,9.965-0.156,18.6-0.156,18.6c0,0.021,0,0.732,0.092,1.914c4.096,3.047,11.129,8.363,16.266,13.623
			c7.641,7.826,25.018,21.617,29.235,20.363c3.028-0.898,9.679-3.209,15.516-7.885c2.307-1.869,4.5-4.084,6.283-6.748
			c2.299-3.412,3.559-9.463,4.521-15.922c1.578-10.559,2.356-22.209,5.526-25.244c0.211-0.193,0.424-0.367,0.658-0.492
			L307.561,459.232z"/>
		<g>
			<linearGradient id="SVGID_3_" gradientUnits="userSpaceOnUse" x1="331.0537" y1="514.8398" x2="269.4963" y2="434.313">
				<stop  offset="0.01" style="stop-color:#DAA192"/>
				<stop  offset="0.99" style="stop-color:#DE817B"/>
			</linearGradient>
			<path fill="url(#SVGID_3_)" d="M330.895,502.225c-1.994-1.25-4.86-3.932-5.412-4.441c0.637,0.58,3.92,2.025,5.504,2.332
				c1.613,0.311,0.375-1.363-2.794-3.35c-3.057-1.918-3.495-3.605-3.495-3.605s4.146,0.135,3.432-0.98
				c-0.707-1.117-7.684-2.232-7.684-2.232c-1.621-1.783-5.625-7.703-10.111-13.633c-5.384-7.117-12.771-15.045-17.878-18.643
				c-2.972-2.096-8.448-12.305-12.523-20.482l-14.907,8.27c2.306,3.918,4.783,7.949,6.693,10.582
				c4.379,6.006,22.173,26.035,42.634,38.121c2.831,5.508,8.2,12.648,9.071,12.088c1.33-0.857-1.182-4.094-1.182-4.094
				c2.703,3.051,5.702,4.596,6.346,3.938c0.828-0.846-3.982-4.936-4.541-5.49c-0.566-0.555,2.907,1.43,5.504,2.918
				C332.162,505.012,333.279,503.705,330.895,502.225z"/>
			<path fill="#391B51" d="M261.544,409.922c-3.127,1.799-6.665,7.65-4.379,18.865c0.41,1.98,0.891,3.779,1.415,5.424
				c0.056,0.18,0.113,0.363,0.176,0.533c2.42,7.322,5.547,11.123,5.547,11.123l0.722-0.408l14.907-8.27l0.616-0.344
				C280.548,436.846,274.81,402.275,261.544,409.922z"/>
		</g>
		<g>
			<linearGradient id="SVGID_4_" gradientUnits="userSpaceOnUse" x1="287.1387" y1="409.252" x2="289.4324" y2="399.1213">
				<stop  offset="0.01" style="stop-color:#DAA192"/>
				<stop  offset="0.99" style="stop-color:#DE817B"/>
			</linearGradient>
			<path fill="url(#SVGID_4_)" d="M284.85,390.408c0,0-1.443,8.342-5.279,11.836c0,0-2.299,3.955,5.279,5.314
				c7.577,1.354,12.862-2.994,13.273-6.012c0,0-0.029,0-0.029-0.002c-1.047,0.555-2.122,0.824-3.184,0.699
				C288.826,401.551,285.826,396.336,284.85,390.408z"/>
			<linearGradient id="SVGID_5_" gradientUnits="userSpaceOnUse" x1="297.7178" y1="401.5391" x2="291.411" y2="366.9476">
				<stop  offset="0.01" style="stop-color:#DAA192"/>
				<stop  offset="0.99" style="stop-color:#DE817B"/>
			</linearGradient>
			<path fill="url(#SVGID_5_)" d="M306.917,375.045c-1.698,1.871-5.992,5.246-11.08,3.615c-5.922-1.918-6.686-3.064-8.221-0.578
				c-1.528,2.488-2.929,4.133-2.929,4.133c-1.055-2.859-3.984-1.963-4.21,1.648c-0.184,2.857,2.469,6.262,4.373,6.545
				c0.212,1.295,0.53,2.557,0.948,3.742c1.485,4.244,4.358,7.561,9.112,8.094c1.062,0.125,2.137-0.145,3.184-0.699
				c4.974-2.637,9.453-12.135,9.453-22.492C307.547,377.514,307.32,376.191,306.917,375.045z"/>
			<path fill="#CA7028" d="M303.486,366.045c0,0-4.755-7.482-17.652-2.211c-11.023,4.51-11.972,12.707-10.068,24.805
				c1.202,7.566-7.584,9.166-10.125,11.799c-2.54,2.639-1.146,8.234-1.146,8.234l2.653-1.418c0,0,5.243-2.783,12.098-3.061
				c6.849-0.279,7.606-5.469,6.552-10.043c-0.418-1.186-0.736-2.447-0.948-3.742c-1.904-0.283-4.557-3.688-4.373-6.545
				c0.227-3.611,3.156-4.508,4.21-1.648c0,0,1.4-1.645,2.929-4.133c1.535-2.486,2.299-1.34,8.221,0.578
				c2.541,0.813,9.721,2.02,13.16-2.738C313.122,370.223,303.486,366.045,303.486,366.045z"/>
		</g>
		<path fill="#975C25" d="M245.095,498.771c-0.453,3.676,0.354,9.172,2.328,13.574c-1.464-1.129-2.816-3.164-3.502-6.51
			c-1.521-7.408,1.578-15.125,5.483-15.125c0.17,0,0.325,0,0.481,0.016C248.193,491.979,245.562,494.992,245.095,498.771z"/>
		<path fill="#975C25" d="M344.176,516.908c-1.246,1.094-3.538,1.523-6.227,0.559c-5.52-1.984-14.568-4.797-15.184-7.729
			c-0.085-0.4-0.127-0.803-0.127-1.201c2.852,2.123,8.964,4.869,13.994,6.857C339.506,516.52,342.188,516.861,344.176,516.908z"/>
	</g>
	<g>
		<g>
			<path fill="#28141A" d="M382.169,487.549l-7.097-1.035l-14.624,27.799c-0.545,0.77-0.275,1.686,0.806,2.313
				c1.431,0.828,3.765,0.828,5.201,0c0.453-0.262,0.764-0.576,0.926-0.91l0,0L382.169,487.549z"/>
			<path fill="#331C21" d="M381.299,485.363c1.437,0.832,1.437,2.172,0,3.004c-1.437,0.828-3.765,0.828-5.201,0
				c-1.436-0.832-1.436-2.172,0-3.004C377.534,484.535,379.862,484.535,381.299,485.363z"/>
		</g>
		<g>
			<g>
				<g enable-background="new    ">
					<path fill="#89181C" d="M380.979,524.754c0,0.086-0.014,0.174-0.042,0.264c0,0.006,0,0.018-0.007,0.02
						c-0.021,0.082-0.064,0.156-0.12,0.234c-0.007,0.018-0.015,0.027-0.021,0.041c-0.058,0.074-0.12,0.15-0.198,0.217
						c-0.05,0.049-0.12,0.088-0.177,0.135c-0.057,0.035-0.099,0.074-0.155,0.105l-7.946,4.617l-0.007,2.555l7.945-4.617
						c0.008-0.004,0.021-0.014,0.028-0.02c0.05-0.029,0.085-0.064,0.127-0.094c0.058-0.039,0.128-0.082,0.17-0.127
						c0.008-0.004,0.015-0.012,0.022-0.012c0.056-0.057,0.105-0.109,0.155-0.17c0.007-0.008,0.015-0.021,0.027-0.035
						c0.008-0.018,0.015-0.031,0.029-0.045c0.006-0.021,0.028-0.043,0.043-0.064c0.027-0.047,0.049-0.1,0.063-0.145
						c0.008-0.008,0.008-0.014,0.008-0.018c0.007-0.008,0.007-0.021,0.007-0.037c0.014-0.027,0.021-0.055,0.028-0.084
						c0.007-0.049,0.021-0.098,0.021-0.148c0-0.002,0-0.014,0-0.018v-2.289v-0.248C380.979,524.771,380.979,524.762,380.979,524.754
						z"/>
					<g>
						<path fill="#991B21" d="M380.237,523.719c0.99,0.568,0.997,1.488,0.021,2.051l-7.946,4.617c-0.976,0.572-2.561,0.572-3.545,0
							l-28.654-16.535c-0.976-0.572-0.982-1.488-0.007-2.059l7.945-4.613c0.97-0.568,2.554-0.568,3.545,0.004L380.237,523.719z"/>
					</g>
					<path fill="#5D0816" d="M372.313,530.387c-0.148,0.092-0.318,0.16-0.495,0.219c-0.056,0.021-0.128,0.039-0.19,0.057
						c-0.078,0.025-0.163,0.047-0.248,0.064c-0.1,0.02-0.198,0.037-0.305,0.049c-0.021,0.004-0.049,0.012-0.077,0.014
						c-0.134,0.016-0.276,0.021-0.418,0.025c-0.021,0-0.049,0-0.07,0c-0.135-0.004-0.275-0.01-0.41-0.025
						c-0.028,0-0.043-0.002-0.063-0.01c-0.135-0.016-0.27-0.035-0.396-0.068c-0.028-0.002-0.057-0.006-0.078-0.018
						c-0.12-0.031-0.233-0.059-0.346-0.102c-0.022-0.008-0.043-0.018-0.064-0.021c-0.135-0.053-0.262-0.113-0.383-0.184
						l-28.654-16.535c-0.487-0.291-0.735-0.666-0.735-1.037l-0.007,2.551c0,0.373,0.248,0.75,0.735,1.037l28.655,16.539
						c0.113,0.066,0.233,0.119,0.36,0.172c0,0,0.015,0.008,0.021,0.008c0.022,0.008,0.043,0.018,0.058,0.021
						c0.077,0.023,0.147,0.057,0.226,0.074c0.043,0.01,0.085,0.018,0.127,0.031c0.022,0.004,0.043,0.016,0.064,0.018
						c0.028,0.004,0.05,0.01,0.07,0.014c0.085,0.02,0.163,0.037,0.248,0.047c0.028,0.004,0.064,0.004,0.092,0.004
						c0.021,0.004,0.043,0.006,0.063,0.014c0.029,0,0.058,0.004,0.093,0.008c0.077,0.01,0.162,0.014,0.247,0.014
						c0.022,0,0.05,0,0.078,0c0.021,0,0.042,0,0.057,0c0.043,0,0.085,0,0.113,0c0.1,0,0.19-0.012,0.283-0.021
						c0.014,0,0.021,0,0.035,0c0.021-0.01,0.05-0.014,0.071-0.014c0.07-0.012,0.148-0.014,0.211-0.031
						c0.036-0.004,0.064-0.016,0.093-0.023c0.085-0.012,0.17-0.041,0.247-0.059c0.05-0.014,0.093-0.018,0.135-0.035
						c0.021-0.004,0.035-0.018,0.057-0.021c0.177-0.061,0.34-0.131,0.495-0.219L372.313,530.387z"/>
				</g>
			</g>
			<path fill="#DABDC3" d="M372.214,526.686c-1.153,0.666-3.014,0.666-4.167,0l-22.365-12.914c-1.146-0.662-1.146-1.738,0-2.402
				l2.47-1.43c1.153-0.658,3.007-0.658,4.168,0l22.356,12.916c1.154,0.664,1.154,1.744,0,2.404L372.214,526.686z"/>
			<g>
				<path fill="#700D1C" d="M366.42,519.215c0-0.945,0.658-2.084,1.472-2.559c0.41-0.236,0.777-0.254,1.046-0.102l-9.586-5.533
					c-0.262-0.156-0.637-0.135-1.04,0.104c-0.821,0.469-1.479,1.613-1.479,2.557c0,0.471,0.162,0.801,0.431,0.955l9.587,5.529l0,0
					C366.582,520.014,366.42,519.686,366.42,519.215z"/>
				<path fill="#89181C" d="M367.892,520.064c0.813-0.471,1.479-1.613,1.479-2.555c0-0.475-0.17-0.803-0.433-0.955l0,0l0,0
					c-0.269-0.152-0.636-0.135-1.046,0.102c-0.813,0.475-1.472,1.613-1.472,2.559c0,0.471,0.162,0.799,0.431,0.951
					C367.12,520.318,367.48,520.301,367.892,520.064z"/>
			</g>
		</g>
		<path fill="#A77575" d="M380.648,485.738c1.074,0.623,1.074,1.631,0,2.254c-1.076,0.623-2.824,0.623-3.899,0
			c-1.082-0.623-1.082-1.631,0-2.254C377.824,485.111,379.572,485.111,380.648,485.738z"/>
		<g>
			<polygon fill="#A77575" points="429.034,384.92 376.042,486.436 381.354,487.291 434.419,385.564 			"/>
			<path fill="#B98383" d="M433.719,383.998c1.074,0.621,1.074,1.631,0,2.25c-1.083,0.623-2.831,0.623-3.899,0
				c-1.082-0.619-1.082-1.629,0-2.25C430.888,383.371,432.636,383.371,433.719,383.998z"/>
		</g>
	</g>
	<g>
		<g>
			<polygon fill="#09AA88" points="389.881,549.916 389.803,578.338 365.627,564.385 364.021,534.953 			"/>
		</g>
		<g>
			<polygon fill="#06917D" points="389.881,549.916 401.427,543.211 401.35,571.635 389.803,578.338 			"/>
		</g>
		<polygon fill="#06917D" points="361.912,534.992 362.067,536.41 389.881,552.471 389.881,551.137 		"/>
		<polygon fill="#04715B" points="389.881,552.471 403.536,544.615 403.536,543.211 389.881,551.137 		"/>
		<g>
			<polygon fill="#02AE8C" points="403.536,543.203 401.42,544.43 389.881,551.137 376.388,543.344 361.912,534.988 
				375.567,527.057 			"/>
			<polygon fill="#06917D" points="401.427,543.211 394.422,547.279 389.881,549.922 376.317,542.092 371.549,539.336 
				364.021,534.988 375.567,528.281 375.567,528.281 			"/>
		</g>
		<g>
			<polygon fill="#036857" points="401.427,543.186 401.427,543.211 394.422,547.279 389.881,549.922 376.317,542.092 
				376.027,536.729 375.567,528.281 375.567,528.225 			"/>
		</g>
		<polygon opacity="0.4" fill="#FFFFFF" points="394.422,547.279 389.881,549.922 371.549,539.336 376.027,536.729 376.091,536.697 
					"/>
		<polygon fill="#222827" points="394.896,550.932 405.298,561.373 401.377,559.111 401.37,560.93 405.488,563.342 406.932,563.066 
			406.932,560.428 396.488,549.922 		"/>
	</g>
</g>
</svg>
