<?xml version="1.0" encoding="utf-8"?>
<!-- Generator: Adobe Illustrator 16.0.0, SVG Export Plug-In . SVG Version: 6.00 Build 0)  -->
<!DOCTYPE svg PUBLIC "-//W3C//DTD SVG 1.1//EN" "http://www.w3.org/Graphics/SVG/1.1/DTD/svg11.dtd">
<svg version="1.1" id="Layer_1" xmlns="http://www.w3.org/2000/svg" xmlns:xlink="http://www.w3.org/1999/xlink" x="0px" y="0px"
	 width="650px" height="650px" viewBox="0 0 650 650" enable-background="new 0 0 650 650" xml:space="preserve">
<polygon fill="#D5A484" points="414.125,500.489 414.125,500.489 414.749,500.843 "/>
<g>
	<g>
		<g>
			<g enable-background="new    ">
				<g>
					<polygon fill="#B3B2B3" points="509.854,182.748 510.38,367.329 507.615,368.929 507.079,184.347 					"/>
				</g>
				<g>
					<polygon fill="#DEDEDD" points="507.615,368.929 394.566,303.234 394.051,118.657 507.079,184.347 					"/>
				</g>
			</g>
		</g>
		<g>
			<g enable-background="new    ">
				<g>
					<polygon fill="#B3B2B3" points="232.017,342.461 232.543,527.053 229.763,528.651 229.242,344.06 					"/>
				</g>
				<g>
					<polygon fill="#DEDEDD" points="229.763,528.651 116.729,462.957 116.198,278.365 229.242,344.06 					"/>
				</g>
				<g>
					<polygon fill="#97A3A7" points="229.242,344.06 116.198,278.365 118.978,276.767 232.017,342.461 					"/>
				</g>
			</g>
		</g>
		<g>
			<g enable-background="new    ">
				<g>
					<polygon fill="#B3B2B3" points="525.119,189.71 525.14,196.446 249.222,355.746 249.201,349.011 					"/>
				</g>
				<g>
					<polygon fill="#DEDEDD" points="249.222,355.746 116.224,278.458 116.203,271.723 249.201,349.011 					"/>
				</g>
				<g>
					<polygon fill="#CAC8CA" points="249.201,349.011 116.203,271.723 392.121,112.428 525.119,189.71 					"/>
				</g>
			</g>
		</g>
	</g>
	<g>
		<polygon fill="#B3B2B3" points="70.88,385.318 121.861,355.685 121.567,461.019 70.581,490.642 		"/>
	</g>
	<g>
		<polygon fill="#CAC8CA" points="70.581,490.642 121.567,461.019 321.373,576.378 270.393,606.001 		"/>
	</g>
	<g>
		<g enable-background="new    ">
			<g>
				<polygon fill="#DEDEDD" points="131.969,455.675 131.768,524.186 72.159,489.755 72.355,421.255 				"/>
			</g>
			<g>
				<polygon fill="#ABABAB" points="131.969,455.675 178.514,428.63 178.324,497.13 131.768,524.186 				"/>
			</g>
			<g>
				<polygon fill="#BFBEBE" points="72.355,421.255 118.896,394.21 178.514,428.63 131.969,455.675 				"/>
			</g>
		</g>
	</g>
	<g>
		<g>
			<g>
				<g enable-background="new    ">
					<g>
						<polygon fill="#DC9C2C" points="181.413,510.281 181.32,545.361 139.881,521.441 139.979,486.361 						"/>
					</g>
					<g>
						<polygon fill="#C18D2C" points="181.413,510.281 215.885,490.261 215.781,525.32 181.32,545.361 						"/>
					</g>
					<g>
						<polygon fill="#D89E2B" points="139.979,486.361 174.445,466.319 215.885,490.261 181.413,510.281 						"/>
					</g>
				</g>
			</g>
			<g>
				<g enable-background="new    ">
					<g>
						<polygon fill="#FAA42F" points="181.459,507.094 181.438,511.726 139.04,487.238 139.056,482.617 						"/>
					</g>
					<g>
						<polygon fill="#B37F2C" points="181.459,507.094 216.72,486.608 216.709,491.22 181.438,511.726 						"/>
					</g>
					<g>
						<polygon fill="#C9882A" points="139.056,482.617 174.316,462.122 216.72,486.608 181.459,507.094 						"/>
					</g>
				</g>
			</g>
			<g>
				<path fill="#FFFFFF" d="M149.21,501.369v12.501l22.068,12.75v-12.502L149.21,501.369z M168.571,521.916l-16.643-9.613v-6.229
					l16.643,9.603V521.916z"/>
			</g>
		</g>
		<g>
			<g>
				<g>
					<g enable-background="new    ">
						<g>
							<polygon fill="#151A1E" points="204.466,507.362 204.616,559.193 240.434,538.522 240.289,486.681 							"/>
						</g>
						<g>
							<polygon fill="#21282E" points="204.466,507.362 188.942,498.172 188.974,550.023 204.616,559.193 							"/>
						</g>
						<g>
							<polygon fill="#151A1E" points="240.289,486.681 224.766,477.491 188.942,498.172 204.466,507.362 							"/>
							<polygon fill="#37484D" points="240.289,486.681 225.982,478.223 190.16,498.904 204.466,507.362 							"/>
						</g>
					</g>
				</g>
				<path fill="#151A1E" d="M195.936,552.148c1.8,1.052,3.27,0.206,3.27-1.877c0-2.095-1.47-4.621-3.27-5.663
					c-1.795-1.042-3.265-0.195-3.265,1.888C192.671,548.569,194.141,551.117,195.936,552.148z"/>
			</g>
			<g>
				<g>
					<g enable-background="new    ">
						<g>
							<polygon fill="#151A1E" points="220.867,516.985 221.006,568.817 256.834,548.146 256.679,496.315 							"/>
						</g>
						<g>
							<polygon fill="#21282E" points="220.867,516.985 205.338,507.795 205.358,559.657 221.006,568.817 							"/>
						</g>
						<g>
							<polygon fill="#151A1E" points="256.679,496.315 241.156,487.114 205.338,507.795 220.867,516.985 							"/>
							<polygon fill="#37484D" points="256.679,496.315 242.383,487.856 206.57,508.538 220.867,516.985 							"/>
						</g>
					</g>
				</g>
				<path fill="#151A1E" d="M212.326,561.782c1.805,1.031,3.275,0.196,3.275-1.888c0-2.094-1.47-4.62-3.275-5.662
					c-1.785-1.042-3.26-0.196-3.26,1.888C209.066,558.203,210.542,560.741,212.326,561.782z"/>
			</g>
		</g>
		<g>
			<g>
				<g>
					<g enable-background="new    ">
						<g>
							<polygon fill="#E5D0B7" points="243.383,526.021 243.533,581.061 281.579,559.101 281.414,504.062 							"/>
						</g>
						<g>
							<polygon fill="#FFECDA" points="243.383,526.021 226.9,516.253 226.921,571.323 243.533,581.061 							"/>
						</g>
						<g>
							<polygon fill="#B4AB9E" points="281.414,504.062 264.941,494.293 226.9,516.253 243.383,526.021 							"/>
							<polygon fill="#BF9D7C" points="281.414,504.062 266.236,495.077 228.2,517.037 243.383,526.021 							"/>
						</g>
					</g>
				</g>
				<polygon fill="#E2CCB0" points="229.613,531.54 240.8,538.038 240.794,531.396 229.603,524.887 				"/>
				<path fill="#BF9D7C" d="M234.327,571.777c1.914,1.094,3.471,0.206,3.471-2.001c0-2.229-1.557-4.92-3.471-6.014
					c-1.908-1.113-3.476-0.217-3.476,2.001C230.851,567.972,232.419,570.663,234.327,571.777z"/>
			</g>
			<g>
				<g>
					<g enable-background="new    ">
						<g>
							<polygon fill="#E5D0B7" points="263.389,537.43 263.539,592.458 301.579,570.519 301.414,515.47 							"/>
						</g>
						<g>
							<polygon fill="#FFECDA" points="263.389,537.43 246.901,527.661 246.921,582.731 263.539,592.458 							"/>
						</g>
						<g>
							<polygon fill="#B4AB9E" points="301.414,515.47 284.941,505.701 246.901,527.661 263.389,537.43 							"/>
							<polygon fill="#BF9D7C" points="301.414,515.47 286.231,506.495 248.201,528.445 263.389,537.43 							"/>
						</g>
					</g>
				</g>
				<polygon fill="#E2CCB0" points="249.614,542.938 260.805,549.446 260.805,542.804 249.614,536.295 				"/>
				<path fill="#BF9D7C" d="M254.328,583.175c1.913,1.104,3.471,0.217,3.471-1.99c0-2.218-1.558-4.91-3.471-6.014
					c-1.919-1.114-3.476-0.206-3.476,2.001C250.852,579.38,252.409,582.071,254.328,583.175z"/>
			</g>
			<g>
				<polygon fill="#E2CCB0" points="243.218,547.641 230.217,540.132 230.217,539.74 243.218,547.239 				"/>
				<polygon fill="#E2CCB0" points="243.218,553.634 230.217,546.125 230.217,545.723 243.218,553.242 				"/>
				<polygon fill="#E2CCB0" points="243.218,559.616 230.217,552.118 230.217,551.726 243.218,559.225 				"/>
				<polygon fill="#E2CCB0" points="243.208,565.609 230.201,558.101 230.201,557.708 243.208,565.218 				"/>
			</g>
		</g>
	</g>
	<g>
		<g enable-background="new    ">
			<g>
				<polygon fill="#DEDEDD" points="270.609,531.437 270.676,534.995 70.777,419.656 70.793,416.118 				"/>
			</g>
			<g>
				<polygon fill="#BFBEBE" points="70.793,416.118 119.55,387.784 319.434,503.03 270.676,531.364 				"/>
			</g>
		</g>
	</g>
	<g>
		<g>
			<g>
				<g enable-background="new    ">
					<g>
						<polygon fill="#C8C2BA" points="121.34,424.287 83.918,402.534 113.831,385.267 151.252,407.021 						"/>
					</g>
					<g>
						<polygon fill="#D8D1C7" points="121.34,424.287 121.51,439.357 84.011,417.676 83.918,402.534 						"/>
					</g>
					<g>
						<polygon fill="#B4AB9E" points="151.252,407.021 151.423,422.08 121.51,439.357 121.34,424.287 						"/>
						<polygon fill="#616E73" points="151.252,407.021 151.397,420.894 121.484,438.161 121.34,424.287 						"/>
					</g>
				</g>
			</g>
			<polygon fill="#EBE9E6" points="92.814,420.327 92.784,410.146 118.441,424.958 118.483,435.149 			"/>
			<path fill="#616E73" d="M85.378,411.755c0.005-1.743,1.227-2.444,2.728-1.578c1.516,0.877,2.739,3.002,2.739,4.725
				c0.01,1.743-1.228,2.455-2.739,1.588C86.605,415.612,85.383,413.488,85.378,411.755z"/>
		</g>
		<g>
			<g>
				<g enable-background="new    ">
					<g>
						<polygon fill="#C8C2BA" points="165.776,450.136 128.359,428.393 158.267,411.115 195.688,432.869 						"/>
					</g>
					<g>
						<polygon fill="#D8D1C7" points="165.776,450.136 165.951,465.206 128.452,443.534 128.359,428.393 						"/>
					</g>
					<g>
						<polygon fill="#B4AB9E" points="195.688,432.869 195.869,447.938 165.951,465.206 165.776,450.136 						"/>
						<polygon fill="#616E73" points="195.688,432.869 195.838,446.742 165.93,464.009 165.776,450.136 						"/>
					</g>
				</g>
			</g>
			<polygon fill="#EBE9E6" points="137.255,446.175 137.225,436.005 162.888,450.817 162.918,460.997 			"/>
			<path fill="#616E73" d="M129.818,437.604c0.011-1.732,1.228-2.444,2.733-1.567c1.506,0.866,2.744,2.98,2.744,4.724
				c0,1.733-1.238,2.444-2.744,1.568C131.046,441.472,129.829,439.347,129.818,437.604z"/>
		</g>
		<g>
			<g>
				<g enable-background="new    ">
					<g>
						<polygon fill="#C8C2BA" points="212.997,477.191 175.575,455.438 205.482,438.171 242.909,459.914 						"/>
					</g>
					<g>
						<polygon fill="#D8D1C7" points="212.997,477.191 213.162,492.251 175.667,470.58 175.575,455.438 						"/>
					</g>
					<g>
						<polygon fill="#B4AB9E" points="242.909,459.914 243.079,474.984 213.162,492.251 212.997,477.191 						"/>
						<polygon fill="#616E73" points="242.909,459.914 243.053,473.788 213.146,491.055 212.997,477.191 						"/>
					</g>
				</g>
			</g>
			<polygon fill="#EBE9E6" points="184.471,473.221 184.435,463.04 210.098,477.862 210.129,488.043 			"/>
			<path fill="#616E73" d="M177.04,464.649c0-1.733,1.222-2.445,2.733-1.568c1.506,0.866,2.723,2.98,2.723,4.725
				c0.005,1.732-1.217,2.444-2.723,1.578C178.262,468.507,177.044,466.392,177.04,464.649z"/>
		</g>
		<g>
			<g>
				<g enable-background="new    ">
					<g>
						<polygon fill="#C8C2BA" points="260.341,504.227 222.919,482.473 252.821,465.195 290.249,486.96 						"/>
					</g>
					<g>
						<polygon fill="#D8D1C7" points="260.341,504.227 260.516,519.296 223.017,497.625 222.919,482.473 						"/>
					</g>
					<g>
						<polygon fill="#B4AB9E" points="290.249,486.96 290.429,502.019 260.516,519.296 260.341,504.227 						"/>
						<polygon fill="#616E73" points="290.249,486.96 290.398,500.822 260.485,518.1 260.341,504.227 						"/>
					</g>
				</g>
			</g>
			<polygon fill="#EBE9E6" points="231.811,500.266 231.785,490.085 257.453,504.907 257.474,515.088 			"/>
			<path fill="#616E73" d="M224.389,491.694c0-1.743,1.217-2.455,2.728-1.578s2.733,2.991,2.733,4.724
				c0.005,1.743-1.232,2.455-2.733,1.578C225.606,495.552,224.394,493.438,224.389,491.694z"/>
		</g>
	</g>
	<g>
		<polygon fill="#CAC8CA" points="66.981,377.933 117.957,348.299 325.603,468.187 274.627,497.811 		"/>
	</g>
	<g>
		<polygon fill="#B3B2B3" points="274.627,497.811 325.603,468.187 325.277,583.753 274.297,613.387 		"/>
	</g>
	<g>
		<path fill="#DEDEDD" d="M66.981,377.933l207.646,119.878l-0.33,115.576L66.651,493.499L66.981,377.933z M270.393,606.001
			l0.299-105.333L70.88,385.318l-0.299,105.323L270.393,606.001L270.393,606.001z"/>
	</g>
	<g>
		<g>
			<g>
				<g enable-background="new    ">
					<g>
						<polygon fill="#151A1E" points="207.21,213.29 207.024,278.747 161.784,252.646 161.98,187.173 						"/>
					</g>
					<g>
						<polygon fill="#21282E" points="207.21,213.29 220.856,205.203 220.82,270.67 207.024,278.747 						"/>
					</g>
					<g>
						<polygon fill="#151A1E" points="161.98,187.173 175.611,179.086 220.856,205.203 207.21,213.29 						"/>
						<polygon fill="#37484D" points="161.98,187.173 174.224,179.845 219.464,205.956 207.21,213.29 						"/>
					</g>
				</g>
			</g>
			<polygon fill="#6E6965" points="219.082,220.804 208.798,226.823 208.798,220.83 219.082,214.816 			"/>
			<path fill="#151A1E" d="M213.945,272.135c-2.285,1.31-4.136,0.248-4.136-2.383c0-2.64,1.852-5.838,4.136-7.159
				c2.27-1.31,4.126-0.247,4.126,2.383C218.071,267.607,216.215,270.815,213.945,272.135z"/>
		</g>
		<g>
			<g>
				<g enable-background="new    ">
					<g>
						<polygon fill="#151A1E" points="191.604,222.176 191.423,287.638 146.178,261.521 146.374,196.054 						"/>
					</g>
					<g>
						<polygon fill="#21282E" points="191.604,222.176 205.25,214.095 205.219,279.552 191.423,287.638 						"/>
					</g>
					<g>
						<polygon fill="#151A1E" points="146.374,196.054 160,187.967 205.25,214.095 191.604,222.176 						"/>
						<polygon fill="#37484D" points="146.374,196.054 158.627,188.72 203.863,214.842 191.604,222.176 						"/>
					</g>
				</g>
			</g>
			<polygon fill="#6E6965" points="203.481,229.814 193.192,235.838 193.192,229.721 203.481,223.697 			"/>
			<path fill="#151A1E" d="M198.344,281.016c-2.285,1.31-4.136,0.248-4.136-2.382c0-2.641,1.852-5.838,4.136-7.148
				c2.264-1.32,4.121-0.258,4.121,2.383C202.465,276.498,200.608,279.706,198.344,281.016z"/>
		</g>
		<g>
			<g>
				<g enable-background="new    ">
					<g>
						<polygon fill="#151A1E" points="175.977,231.145 175.781,296.612 130.541,270.505 130.731,205.028 						"/>
					</g>
					<g>
						<polygon fill="#21282E" points="175.977,231.145 189.613,223.058 189.582,288.536 175.781,296.612 						"/>
					</g>
					<g>
						<polygon fill="#151A1E" points="130.731,205.028 144.362,196.946 189.613,223.058 175.977,231.145 						"/>
						<polygon fill="#37484D" points="130.731,205.028 142.98,197.704 188.231,223.811 175.977,231.145 						"/>
					</g>
				</g>
			</g>
			<polygon fill="#6E6965" points="187.839,238.834 177.555,244.858 177.555,238.7 187.839,232.671 			"/>
			<path fill="#151A1E" d="M182.697,289.99c-2.279,1.31-4.131,0.247-4.131-2.383c0-2.641,1.852-5.838,4.131-7.148
				c2.285-1.32,4.126-0.247,4.126,2.383C186.823,285.472,184.981,288.67,182.697,289.99z"/>
		</g>
	</g>
	<g>
		<g enable-background="new    ">
			<g>
				<path fill="#A1802E" d="M455.278,193.315c4.863,2.806,4.895,7.359,0.052,10.165l-18.964,11.026
					c-4.843,2.816-12.687,2.816-17.561,0l-19.093-11.026c-4.868-2.806-4.904-7.359-0.062-10.165l18.974-11.026
					c4.833-2.811,12.703-2.801,17.561,0L455.278,193.315z"/>
			</g>
			<path fill="#654E1F" d="M458.92,198.767c-0.011,0.129-0.021,0.258-0.052,0.392c-0.011,0.103-0.041,0.216-0.088,0.32
				c-0.021,0.124-0.052,0.242-0.098,0.355c-0.042,0.108-0.083,0.212-0.124,0.32c-0.062,0.118-0.113,0.252-0.176,0.376
				c-0.057,0.093-0.118,0.186-0.175,0.273c-0.093,0.149-0.186,0.294-0.289,0.428c-0.062,0.093-0.134,0.18-0.201,0.258
				c-0.16,0.186-0.346,0.381-0.521,0.567c-0.072,0.062-0.135,0.134-0.222,0.196c-0.104,0.113-0.243,0.217-0.366,0.32
				c-0.119,0.093-0.228,0.186-0.346,0.273c-0.149,0.108-0.299,0.201-0.459,0.304c-0.145,0.104-0.299,0.196-0.475,0.299
				l-18.964,11.021c-0.541,0.32-1.129,0.583-1.728,0.831c-0.16,0.057-0.33,0.119-0.5,0.175c-0.366,0.134-0.769,0.253-1.16,0.361
				c-0.397,0.113-0.82,0.227-1.243,0.309c-0.495,0.103-1.001,0.196-1.512,0.258c-0.113,0.021-0.236,0.042-0.366,0.052
				c-0.686,0.077-1.382,0.113-2.078,0.119c-0.113,0-0.231,0-0.34,0c-0.681-0.005-1.377-0.042-2.063-0.119
				c-0.093-0.01-0.201-0.016-0.299-0.031c-0.671-0.083-1.352-0.196-1.991-0.341c-0.123-0.031-0.242-0.062-0.371-0.082
				c-0.577-0.155-1.155-0.33-1.717-0.526c-0.094-0.041-0.201-0.067-0.295-0.104c-0.675-0.258-1.299-0.557-1.897-0.902
				l-19.093-11.021c-2.444-1.414-3.682-3.275-3.672-5.122l-0.01,1.449c0,1.852,1.237,3.714,3.682,5.116l19.093,11.026
				c0.557,0.32,1.155,0.614,1.79,0.856c0.036,0.021,0.066,0.031,0.107,0.041c0.083,0.031,0.191,0.062,0.295,0.098
				c0.365,0.134,0.727,0.273,1.108,0.376c0.201,0.062,0.412,0.103,0.619,0.154c0.118,0.026,0.237,0.063,0.34,0.083
				c0.113,0.021,0.217,0.052,0.341,0.082c0.396,0.083,0.805,0.155,1.232,0.212c0.134,0.016,0.294,0.025,0.438,0.046
				c0.098,0.01,0.206,0.031,0.299,0.031c0.155,0.021,0.305,0.047,0.454,0.057c0.412,0.031,0.825,0.057,1.237,0.067
				c0.124,0.005,0.248,0,0.372,0c0.108,0,0.211,0,0.319,0c0.186,0,0.382,0,0.567-0.011c0.459-0.015,0.918-0.041,1.382-0.082
				c0.052-0.011,0.104-0.026,0.149-0.031c0.13-0.01,0.243-0.036,0.356-0.052c0.361-0.041,0.732-0.082,1.083-0.144
				c0.145-0.031,0.289-0.083,0.438-0.114c0.423-0.082,0.835-0.196,1.232-0.304c0.227-0.063,0.459-0.099,0.665-0.165
				c0.171-0.057,0.346-0.135,0.506-0.196c0.17-0.057,0.33-0.119,0.49-0.181c0.608-0.242,1.196-0.511,1.737-0.825l18.964-11.026
				c0.052-0.031,0.093-0.057,0.145-0.083c0.134-0.083,0.247-0.165,0.371-0.248s0.278-0.175,0.402-0.268s0.242-0.196,0.361-0.279
				c0.134-0.108,0.263-0.211,0.366-0.309c0.036-0.021,0.051-0.046,0.087-0.062c0.042-0.052,0.083-0.098,0.114-0.139
				c0.195-0.191,0.366-0.376,0.541-0.567c0.031-0.046,0.067-0.087,0.113-0.129c0.036-0.042,0.042-0.083,0.088-0.124
				c0.104-0.15,0.196-0.289,0.278-0.434c0.047-0.062,0.093-0.118,0.129-0.186c0.021-0.031,0.021-0.062,0.047-0.093
				c0.072-0.124,0.124-0.248,0.186-0.382c0.021-0.072,0.072-0.154,0.093-0.227c0.011-0.031,0.011-0.052,0.031-0.078
				c0.046-0.129,0.062-0.248,0.098-0.366c0.036-0.083,0.062-0.171,0.077-0.258c0.011-0.026,0.011-0.042,0.011-0.067
				c0.021-0.129,0.031-0.253,0.041-0.387c0.011-0.083,0.031-0.17,0.031-0.258c0-0.042,0-0.072,0-0.108l0.01-1.444
				C458.95,198.52,458.93,198.643,458.92,198.767z"/>
		</g>
	</g>
	<g>
		<path fill="#17252E" d="M437.413,202.913c-1.475,0.959-2.661,1.609-3.702,1.986c-0.279,0.098-0.542,0.186-0.784,0.248
			c-1.361,0.335-2.507,0.19-3.848-0.32c-2.553-0.975-4.404-3.213-4.925-3.734c-0.531-0.521-3.812-2.192-4.616-2.661
			c-0.814-0.479-4.074-2.208-4.518-2.667c-0.465-0.454-0.985-1.872-0.691-2.187c0.031-0.031,0.083-0.066,0.196-0.134
			c1.021-0.701,5.786-3.353,7.308-4.208c1.655-0.938,2.688-0.98,3.878-0.815c1.182,0.176,2.368-0.036,3.007-0.113
			c0.63-0.077,2.857-1.372,6.313,1.434c3.456,2.806,5.096,7.045,5.482,8.015C440.89,198.736,441.313,200.365,437.413,202.913z"/>
		<path fill="#101B1F" d="M432.927,205.146c-1.361,0.335-2.507,0.19-3.848-0.32c-2.553-0.975-4.404-3.213-4.925-3.734
			c-0.531-0.521-3.812-2.192-4.616-2.661c-0.814-0.479-4.074-2.208-4.518-2.667c-0.465-0.454-0.985-1.872-0.691-2.187
			c0.031-0.031,0.083-0.066,0.196-0.134c0.928,0.743,3.919,1.795,5.827,0.97c3.425-1.496,6.55,1.063,9.263,4.972
			C431.307,201.841,432.235,203.759,432.927,205.146z"/>
	</g>
</g>
</svg>
