<?xml version="1.0" encoding="utf-8"?>
<!-- Generator: Adobe Illustrator 16.0.0, SVG Export Plug-In . SVG Version: 6.00 Build 0)  -->
<!DOCTYPE svg PUBLIC "-//W3C//DTD SVG 1.1//EN" "http://www.w3.org/Graphics/SVG/1.1/DTD/svg11.dtd">
<svg version="1.1" id="Layer_1" xmlns="http://www.w3.org/2000/svg" xmlns:xlink="http://www.w3.org/1999/xlink" x="0px" y="0px"
	 width="650px" height="650px" viewBox="0 0 650 650" enable-background="new 0 0 650 650" xml:space="preserve">
<polygon fill="#D5A484" points="414.125,500.489 414.125,500.489 414.749,500.843 "/>
<g>
	<g>
		<g enable-background="new    ">
			<g>
				<polygon fill="#454545" points="395.928,229.809 317.917,275.137 291.223,259.727 369.223,214.398 				"/>
			</g>
			<g>
				<polygon fill="#1C1C1C" points="395.928,229.809 395.917,233.321 317.913,278.654 317.917,275.137 				"/>
			</g>
			<g>
				<polygon fill="#282828" points="317.917,275.137 317.913,278.654 291.213,263.244 291.223,259.727 				"/>
			</g>
		</g>
	</g>
	<g>
		<g>
			<polygon fill="#101B1F" points="242.651,225.146 237.798,222.325 237.731,137.146 242.589,139.973 			"/>
		</g>
		<g>
			<g>
				<g>
					<path fill="#182932" d="M331.563,214.208c0.279,4.255-2.361,8.551-7.988,11.81c-10.722,6.189-28.103,6.189-38.819,0
						c-5.627-3.259-8.262-7.555-7.989-11.81h-0.052v4.208l0,0c0,4.064,2.677,8.118,8.041,11.207c10.717,6.184,28.097,6.184,38.819,0
						c5.358-3.089,8.041-7.143,8.041-11.207l0,0v-4.208H331.563z"/>
					<path fill="#2F4E5C" d="M323.575,203.604c-10.722-6.189-28.103-6.189-38.819,0c-5.096,2.939-7.741,6.746-7.989,10.604
						c-0.273,4.255,2.362,8.551,7.989,11.81c10.717,6.189,28.097,6.189,38.819,0c5.627-3.259,8.268-7.555,7.988-11.81
						C331.306,210.35,328.671,206.544,323.575,203.604z"/>
				</g>
				<g>
					<g enable-background="new    ">
						<g>
							<polygon fill="#243D47" points="314.668,168.271 314.782,209.969 296.215,220.696 296.092,178.993 							"/>
						</g>
						<g>
							<polygon fill="#182932" points="296.215,220.696 293.667,219.21 293.544,177.519 296.092,178.993 							"/>
						</g>
						<g>
							<polygon fill="#28434E" points="296.092,178.993 293.544,177.519 312.11,166.796 314.668,168.271 							"/>
						</g>
					</g>
				</g>
			</g>
			<g>
				<polygon fill="#17252E" points="356.69,73.984 356.69,159.308 242.651,225.146 242.589,139.973 				"/>
				<polygon fill="#7A8C97" points="352.085,81.953 352.085,156.652 351.997,156.703 351.977,156.719 247.236,217.188 
					247.236,211.789 247.189,142.624 350.017,83.149 				"/>
			</g>
			<g>
				<polygon fill="#2F4E5C" points="242.62,139.973 237.772,137.146 351.832,71.164 356.69,73.984 				"/>
			</g>
			<g>
				<polygon fill="#2F4E5C" points="351.997,156.703 247.236,217.188 247.236,214.94 350.053,155.574 				"/>
			</g>
			<g>
				<polygon fill="#101B1F" points="352.085,81.953 352.085,156.652 351.997,156.703 351.977,156.719 350.089,155.62 
					350.017,83.149 				"/>
			</g>
		</g>
	</g>
	<g>
		<g>
			<g>
				<path fill="#515559" d="M419.899,327.35l-2.063,1.196c0,0.361,0.016,0.682,0.016,0.939l-0.005,82.518
					c-0.011,0.319-0.067,0.598-0.176,0.835l0,0c-0.113,0.228-0.247,0.392-0.443,0.495l2.073-1.196
					c0.145-0.093,0.258-0.206,0.355-0.361c0.031-0.041,0.058-0.082,0.099-0.134c0.01-0.041,0.021-0.082,0.025-0.124
					c0.026-0.041,0.036-0.072,0.047-0.113c0.01-0.03,0.021-0.062,0.03-0.103c0.011-0.042,0.011-0.072,0.011-0.104
					c0.011-0.021,0.021-0.063,0.021-0.104c0-0.021,0.011-0.062,0.011-0.093c0-0.03,0-0.062,0-0.093
					c0.01-0.041,0.01-0.072,0.01-0.104v-0.01l0.011-82.518C419.92,328.021,419.899,327.711,419.899,327.35z"/>
				<g>
					<polygon fill="#70757A" points="417.811,322.182 419.879,320.976 503.324,451.808 501.23,453.004 					"/>
				</g>
				<path fill="#515559" d="M421.652,306.813c-0.36,0.196-0.654,0.454-0.938,0.732c-0.077,0.072-0.149,0.154-0.237,0.237
					c-0.186,0.217-0.366,0.444-0.526,0.67c-0.03,0.062-0.082,0.113-0.113,0.155c-0.021,0.042-0.041,0.093-0.062,0.134
					c-0.119,0.165-0.206,0.351-0.299,0.516c-0.042,0.093-0.083,0.165-0.124,0.248c-0.021,0.051-0.052,0.103-0.077,0.155
					c-0.052,0.124-0.114,0.248-0.16,0.382c-0.062,0.175-0.134,0.381-0.186,0.577c-0.011,0.011-0.011,0.031-0.011,0.052
					c-0.01,0.041-0.021,0.093-0.041,0.145c-0.057,0.186-0.108,0.361-0.14,0.567c-0.03,0.113-0.051,0.247-0.077,0.382
					c-0.031,0.124-0.062,0.258-0.082,0.392c-0.011,0.083-0.031,0.165-0.042,0.248c-0.041,0.175-0.062,0.351-0.082,0.526
					c-0.031,0.237-0.062,0.454-0.093,0.691c-0.021,0.072-0.036,0.154-0.047,0.227c-0.01,0.124-0.021,0.248-0.036,0.382
					c-0.057,0.475-0.103,0.949-0.139,1.413c-0.016,0.104-0.026,0.206-0.036,0.31c-0.011,0.103-0.011,0.186-0.021,0.289
					c-0.011,0.113-0.021,0.227-0.021,0.34c-0.031,0.361-0.052,0.712-0.072,1.052c0,0.093-0.011,0.186-0.011,0.279
					c-0.021,0.351-0.041,0.681-0.052,1c-0.01,0.063-0.01,0.134-0.01,0.196c-0.021,0.351-0.036,0.681-0.042,0.959l-0.025,0.784
					c0,0.041,0,0.093-0.005,0.155c0,0.083-0.011,0.196-0.011,0.309c0,0.248-0.016,0.537-0.025,0.866l2.068-1.206
					c0.01-0.32,0.021-0.588,0.021-0.836c0.01-0.196,0.021-0.381,0.021-0.495l0.021-0.784c0.01-0.279,0.031-0.588,0.041-0.939
					c0.011-0.082,0.011-0.186,0.011-0.289c0.01-0.258,0.03-0.537,0.052-0.835c0-0.145,0.015-0.31,0.021-0.475
					c0.015-0.258,0.03-0.547,0.057-0.814c0.01-0.186,0.03-0.361,0.046-0.537c0.011-0.155,0.026-0.309,0.026-0.464
					c0.057-0.505,0.108-1.021,0.159-1.526c0.021-0.186,0.052-0.371,0.063-0.557c0.041-0.228,0.072-0.454,0.103-0.691
					c0.047-0.269,0.093-0.536,0.129-0.805c0.031-0.113,0.057-0.237,0.078-0.361c0.072-0.351,0.154-0.681,0.242-0.99
					c0-0.031,0.005-0.072,0.016-0.103c0.108-0.372,0.227-0.722,0.36-1.011c0.052-0.134,0.124-0.258,0.191-0.382
					c0.103-0.186,0.19-0.371,0.304-0.547c0.063-0.103,0.129-0.186,0.181-0.278c0.16-0.227,0.335-0.454,0.526-0.67
					c0.088-0.083,0.16-0.165,0.242-0.248c0.278-0.269,0.583-0.526,0.938-0.732L421.652,306.813z"/>
				<g>
					<polygon fill="#61666A" points="501.23,453.004 503.324,451.808 512.793,457.274 510.726,458.48 					"/>
				</g>
				<path fill="#61666A" d="M471.102,322.801l-30.413-17.556c-0.696-0.402-1.372-0.773-2.037-1.134
					c-0.314-0.175-0.619-0.32-0.929-0.485c-0.242-0.134-0.495-0.258-0.737-0.382c-0.181-0.093-0.387-0.206-0.572-0.299
					c-0.66-0.32-1.295-0.629-1.913-0.897c-0.067-0.041-0.14-0.062-0.201-0.093c-0.129-0.062-0.248-0.104-0.372-0.155
					c-0.351-0.144-0.706-0.32-1.057-0.454c-0.49-0.196-0.975-0.372-1.439-0.537c-0.036-0.01-0.062-0.021-0.098-0.031
					c-0.036-0.021-0.072-0.031-0.119-0.042c-0.36-0.134-0.711-0.248-1.072-0.351c-0.392-0.124-0.784-0.227-1.16-0.33
					c-0.083-0.01-0.149-0.031-0.212-0.051c-0.062-0.011-0.113-0.021-0.175-0.031c-0.237-0.052-0.47-0.113-0.702-0.155
					c-0.335-0.072-0.675-0.124-1-0.165c-0.149-0.021-0.289-0.031-0.434-0.051c-0.062,0-0.134-0.011-0.206-0.021
					c-0.108,0-0.212-0.021-0.319-0.031c-0.32-0.021-0.635-0.031-0.929-0.031c-0.222,0.011-0.434,0.021-0.655,0.021
					c-0.041,0.01-0.108,0.01-0.159,0.021c-0.031,0-0.083,0-0.124,0c-0.341,0.031-0.655,0.083-0.959,0.144
					c-0.181,0.031-0.352,0.093-0.506,0.135c-0.108,0.03-0.222,0.051-0.319,0.082c-0.083,0.031-0.176,0.042-0.264,0.072
					c-0.438,0.155-0.846,0.341-1.232,0.557l-2.068,1.207c0.465-0.268,0.96-0.464,1.491-0.629c0.113-0.031,0.206-0.062,0.309-0.093
					c0.521-0.124,1.053-0.227,1.609-0.278c0.052,0,0.104,0,0.155-0.011c0.588-0.031,1.237-0.021,1.897,0.042
					c0.062,0.01,0.14,0.01,0.212,0.031c0.675,0.062,1.387,0.186,2.119,0.351c0.062,0.021,0.129,0.031,0.19,0.042
					c0.769,0.186,1.584,0.433,2.43,0.722c0.052,0.021,0.093,0.031,0.145,0.041c0.819,0.299,1.702,0.65,2.584,1.031
					c0.129,0.052,0.231,0.093,0.351,0.155c0.851,0.371,1.759,0.804,2.677,1.269c0.268,0.134,0.536,0.278,0.804,0.413
					c0.949,0.505,1.919,1.021,2.93,1.609l30.397,17.546l44.105,25.467l2.063-1.207L471.102,322.801z"/>
				<g>
					<path fill="#BABABA" d="M513.123,349.465c1.135,0.66,2.063,2.279,2.063,3.589l-0.31,110.233c0,1.331-0.944,1.847-2.084,1.196
						l-12.331-7.127c-0.516-0.289-0.979-0.764-1.366-1.361l-81.26-127.449c0,0.361,0.016,0.682,0.016,0.939l-0.005,82.518
						c-0.011,1.31-0.954,1.856-2.094,1.196c-1.171-0.671-2.084-2.27-2.104-3.59l0.005-82.497c0.016-0.711-0.041-7.313,0.036-8.901
						l0.005-0.743c0.129-2.877,0.372-8.839,1.718-11.841c0.351-0.753,0.753-1.423,1.207-2.011
						c3.595-4.631,10.676-3.703,22.001,2.836l30.397,17.546L513.123,349.465z M510.726,458.48l0.299-105.437L438.6,311.238
						c-14.09-8.128-17.721-5.116-19.324-1.578c-1.078,2.383-1.295,8.004-1.398,10.407l-0.025,0.784
						c-0.016,0.248-0.016,0.743-0.041,1.33l83.42,130.822L510.726,458.48L510.726,458.48z"/>
				</g>
				<path fill="#515559" d="M517.26,351.765c0-0.031,0-0.072,0-0.104c0-0.041,0-0.062,0-0.103c-0.016-0.031-0.016-0.062-0.016-0.093
					c-0.011-0.041-0.011-0.083-0.025-0.104c0-0.041-0.011-0.072-0.016-0.113c-0.011-0.031-0.011-0.072-0.026-0.104
					c-0.01-0.03-0.01-0.072-0.016-0.113c-0.01-0.041-0.025-0.072-0.036-0.113c-0.01-0.031-0.021-0.063-0.03-0.104
					c-0.011-0.041-0.021-0.072-0.031-0.113c-0.021-0.031-0.021-0.062-0.041-0.104c-0.011-0.041-0.021-0.062-0.041-0.103
					c0-0.041-0.021-0.072-0.031-0.104c-0.021-0.03-0.036-0.062-0.052-0.103c-0.01-0.031-0.021-0.063-0.041-0.093
					c-0.011-0.042-0.036-0.072-0.052-0.114c-0.031-0.041-0.046-0.082-0.067-0.123c-0.025-0.052-0.051-0.093-0.077-0.145
					c-0.005,0-0.005-0.011-0.005-0.011c0-0.01-0.016-0.021-0.026-0.03c-0.041-0.083-0.103-0.166-0.154-0.248
					c-0.041-0.062-0.082-0.124-0.124-0.195c-0.036-0.031-0.066-0.072-0.103-0.124c-0.031-0.021-0.047-0.063-0.083-0.093
					c-0.021-0.031-0.052-0.063-0.072-0.094c-0.03-0.03-0.062-0.062-0.082-0.092c0,0,0-0.011-0.021-0.011v-0.011
					c-0.021-0.021-0.042-0.041-0.072-0.062c-0.021-0.041-0.057-0.062-0.088-0.093c-0.025-0.031-0.052-0.063-0.083-0.082
					c-0.036-0.031-0.066-0.063-0.098-0.083s-0.062-0.052-0.093-0.062c-0.031-0.042-0.057-0.052-0.082-0.083
					c-0.031-0.021-0.072-0.052-0.099-0.052c-0.021-0.031-0.057-0.051-0.088-0.072c-0.03-0.01-0.051-0.031-0.082-0.051
					c-0.011,0-0.021-0.011-0.021-0.011l-2.063,1.207c0.269,0.154,0.558,0.382,0.795,0.649c0,0,0,0,0,0.011
					c0.247,0.258,0.469,0.557,0.66,0.876c0.01,0.011,0.01,0.021,0.01,0.021c0.186,0.319,0.335,0.67,0.443,1.011l0,0
					c0.104,0.351,0.155,0.69,0.155,1.021l-0.31,110.233c0,0.32-0.057,0.599-0.165,0.825l0,0c-0.104,0.227-0.253,0.402-0.434,0.506
					l2.073-1.207c0.145-0.082,0.258-0.196,0.356-0.351c0.03-0.042,0.052-0.083,0.066-0.134v-0.011
					c0.016-0.011,0.016-0.011,0.016-0.011c0.016-0.03,0.031-0.062,0.041-0.103c0.016-0.042,0.026-0.072,0.031-0.104
					c0.016-0.041,0.026-0.072,0.036-0.113c0.011-0.031,0.011-0.062,0.016-0.093c0.016-0.041,0.016-0.072,0.016-0.104
					c0.01-0.031,0.01-0.072,0.021-0.103c0-0.042,0-0.072,0-0.093c0-0.052,0-0.072,0-0.113v-0.011l0.31-110.213
					C517.26,351.827,517.26,351.796,517.26,351.765z"/>
			</g>
			<g>
				<g enable-background="new    ">
					<g>
						<path fill="#785C25" d="M467.966,319.253l-0.021,6.303L437.548,308c-11.336-6.54-18.423-7.458-22.002-2.806l-0.846,0.093
							c-2.063-4.776-3.084-14.564,7.365-12.532L467.966,319.253z"/>
					</g>
					<polygon fill="#A9812D" points="467.966,319.253 467.945,325.556 474.154,321.935 474.175,315.643 					"/>
					<path fill="#BB912E" d="M428.274,289.144c-0.314-0.062-0.629-0.113-0.928-0.155c-0.31-0.041-0.588-0.072-0.888-0.082
						c-0.021-0.011-0.03,0-0.052-0.011c-0.041,0-0.072,0-0.103,0c-0.228-0.021-0.454-0.031-0.671-0.021
						c-0.268,0-0.557,0.01-0.81,0.031c-0.021,0-0.031,0.01-0.057,0.01s-0.072,0.011-0.104,0.011
						c-0.216,0.031-0.438,0.062-0.649,0.103c-0.16,0.021-0.31,0.083-0.454,0.113c-0.082,0.031-0.175,0.052-0.278,0.083
						c-0.041,0.011-0.093,0.021-0.145,0.041c-0.319,0.114-0.608,0.248-0.887,0.413l-6.21,3.6c0.3-0.175,0.66-0.319,1.042-0.443
						c0.072-0.031,0.165-0.052,0.253-0.083c0.346-0.093,0.717-0.165,1.119-0.207c0.041-0.01,0.072-0.021,0.104-0.021
						c0.474-0.041,1-0.062,1.552-0.021c0.021,0,0.057,0,0.072,0c0.572,0.041,1.212,0.113,1.883,0.248l45.9,26.499l6.209-3.61
						L428.274,289.144z"/>
				</g>
			</g>
		</g>
		<g>
			<path fill="#28405C" d="M417.346,327.433c-0.051-0.031-0.107-0.063-0.149-0.083c-0.051-0.041-0.123-0.072-0.175-0.093
				c-0.077-0.041-0.135-0.072-0.201-0.104c-0.067-0.02-0.129-0.051-0.181-0.072c-0.062-0.03-0.124-0.051-0.19-0.071
				c-0.026,0-0.058-0.021-0.088-0.031c-0.005,0-0.005,0-0.021,0c-0.016-0.011-0.063-0.021-0.093-0.031
				c-0.052-0.021-0.124-0.041-0.187-0.052c-0.066-0.021-0.139-0.03-0.206-0.041c-0.062-0.021-0.134-0.031-0.195-0.041
				c-0.083-0.01-0.15-0.01-0.237-0.021c-0.072,0-0.14,0-0.217,0c-0.099,0-0.186,0-0.278,0.011c-0.104,0.01-0.196,0.02-0.289,0.041
				c-0.021,0-0.031,0.01-0.057,0.01c-0.021,0-0.036,0.011-0.052,0.021c-0.093,0.021-0.19,0.042-0.273,0.072
				c-0.17,0.063-0.319,0.124-0.464,0.206c-28.304,16.463-56.617,32.904-84.932,49.367c0.237-0.135,0.485-0.238,0.732-0.3
				c0.021,0,0.042-0.01,0.067-0.01c0.531-0.124,1.124-0.093,1.758,0.113c0,0,0.011,0.011,0.011,0.021
				c0.319,0.093,0.655,0.248,0.99,0.434l83.745,48.355l84.932-49.356L417.346,327.433z"/>
			<path fill="#1B2230" d="M427.944,321.553l-0.346,119.774c0,1.269-0.489,2.166-1.273,2.62l84.932-49.346
				c0.314-0.196,0.588-0.454,0.789-0.784c0.057-0.062,0.093-0.145,0.129-0.217c0.01,0,0.01-0.01,0.015-0.02
				c0.006-0.011,0.016-0.021,0.026-0.042c0.031-0.072,0.072-0.154,0.093-0.227c0.031-0.062,0.052-0.134,0.062-0.217
				c0.021-0.052,0.042-0.124,0.052-0.196c0.021-0.062,0.031-0.123,0.041-0.186c0.016-0.072,0.021-0.123,0.031-0.186
				c0-0.062,0.016-0.123,0.016-0.186c0.005-0.052,0.005-0.113,0.021-0.176c0-0.062,0-0.123,0-0.175c0-0.011,0-0.021,0-0.021
				l0.335-119.774L427.944,321.553z"/>
			<g>
				<path fill="#3E5473" d="M422.24,312.857c3.167,1.826,5.704,5.694,5.704,8.695l-0.346,119.774c0,2.476-1.815,3.507-4.229,2.733
					l-0.676-0.258c-0.186-0.072-0.382-0.134-0.567-0.237l-89.748-51.82c-3.027-1.744-5.478-6.51-5.467-10.646
					c0.021-4.136,2.485-6.065,5.508-4.321l83.745,48.355l0.314-110.203C416.495,311.93,419.063,311.021,422.24,312.857z"/>
			</g>
			<path fill="#314561" d="M424.448,314.549c0.005,0.01,0.03,0.031,0.041,0.042c0.325,0.319,0.64,0.66,0.928,1.011
				c0.021,0.021,0.031,0.031,0.042,0.041c0.268,0.351,0.546,0.712,0.794,1.083c0.025,0.041,0.052,0.083,0.082,0.134
				c0.232,0.361,0.454,0.732,0.64,1.104c0,0,0,0,0,0.01c0.212,0.392,0.382,0.805,0.526,1.217l0,0
				c0.289,0.804,0.443,1.609,0.443,2.362l84.921-49.355c0-0.062,0-0.124,0-0.176c0-0.072,0-0.124-0.01-0.186
				c0-0.072,0-0.134-0.011-0.196c-0.01-0.062-0.021-0.134-0.021-0.196c-0.021-0.072-0.021-0.124-0.031-0.196
				c-0.01-0.062-0.021-0.134-0.03-0.206l0,0c0,0,0-0.011,0-0.021c-0.021-0.052-0.031-0.124-0.042-0.186
				c-0.01-0.072-0.03-0.144-0.051-0.216l-0.026,0.021l0,0l0.026-0.021c-0.026-0.072-0.036-0.134-0.052-0.207
				c-0.026-0.072-0.057-0.144-0.072-0.216s-0.052-0.145-0.067-0.227c-0.025-0.042-0.036-0.083-0.057-0.124c0-0.011,0-0.021,0-0.031
				c-0.01-0.01-0.01-0.031-0.021-0.062c-0.031-0.062-0.052-0.134-0.083-0.207c-0.03-0.072-0.051-0.134-0.087-0.206
				c-0.031-0.083-0.057-0.145-0.093-0.227c-0.021-0.063-0.057-0.134-0.093-0.207c-0.047-0.093-0.078-0.165-0.129-0.258
				c0,0-0.011-0.01-0.011-0.021c0-0.021-0.011-0.021-0.011-0.031c-0.041-0.072-0.062-0.134-0.113-0.207
				c-0.062-0.144-0.159-0.289-0.247-0.433c-0.083-0.155-0.176-0.289-0.273-0.444c-0.021-0.051-0.057-0.103-0.088-0.155
				c-0.016-0.01-0.041-0.052-0.046-0.062c-0.104-0.165-0.212-0.32-0.336-0.475c-0.082-0.113-0.165-0.217-0.247-0.33
				c-0.052-0.072-0.113-0.145-0.176-0.206c0-0.011,0-0.021-0.01-0.031c-0.011-0.01-0.021-0.021-0.031-0.041
				c-0.077-0.093-0.16-0.176-0.237-0.269c-0.082-0.083-0.154-0.175-0.237-0.258c-0.088-0.103-0.175-0.186-0.258-0.268
				c-0.072-0.072-0.124-0.134-0.186-0.196c-0.011-0.011-0.011-0.011-0.021-0.021c-0.031-0.021-0.047-0.042-0.077-0.062
				c-0.088-0.093-0.191-0.186-0.284-0.268c-0.098-0.083-0.201-0.165-0.299-0.258c-0.093-0.083-0.196-0.165-0.3-0.248
				c-0.03-0.031-0.071-0.052-0.098-0.083c-0.016,0-0.025-0.01-0.025-0.01c-0.057-0.052-0.124-0.093-0.176-0.145
				c-0.103-0.072-0.195-0.145-0.31-0.206c-0.093-0.072-0.195-0.145-0.294-0.196c-0.103-0.072-0.201-0.124-0.294-0.186
				c-0.021-0.021-0.052-0.021-0.072-0.041c-0.072-0.042-0.165-0.083-0.216-0.124c-0.114-0.052-0.207-0.103-0.3-0.154
				c-0.098-0.052-0.195-0.093-0.289-0.135c-0.082-0.041-0.186-0.072-0.268-0.113c-0.072-0.031-0.165-0.062-0.237-0.082l-0.011-0.011
				c-0.01,0-0.021-0.01-0.041-0.01c-0.082-0.031-0.17-0.062-0.263-0.093c-0.099-0.031-0.181-0.051-0.284-0.072
				c-0.082-0.031-0.181-0.042-0.268-0.062c-0.093-0.021-0.186-0.031-0.284-0.052c-0.005,0-0.03,0-0.057,0c0,0-0.005,0-0.01-0.01
				c-0.083,0-0.145-0.011-0.217-0.021c-0.093,0-0.186,0-0.289,0c-0.098,0-0.196,0-0.299,0c-0.072,0.021-0.155,0.03-0.237,0.041
				c-0.011,0-0.011,0-0.031,0.01c-0.021,0-0.052,0-0.072,0c-0.124,0.031-0.247,0.062-0.382,0.103
				c-0.144,0.062-0.278,0.124-0.423,0.196c-28.318,16.452-56.617,32.904-84.931,49.355c0.268-0.145,0.552-0.247,0.876-0.31
				c0.026,0,0.031,0,0.042,0c0.33-0.051,0.67-0.062,1.026-0.021c0.016,0,0.021,0,0.036,0c0.36,0.052,0.753,0.145,1.176,0.299
				c0,0,0.021,0,0.03,0.01c0.413,0.155,0.847,0.351,1.3,0.608c0.382,0.217,0.759,0.485,1.109,0.753
				c0.036,0.011,0.046,0.031,0.072,0.042C423.782,313.931,424.118,314.229,424.448,314.549z"/>
		</g>
		<g>
			<g>
				<path fill="#515559" d="M330.584,379.666l-2.078,1.207c0,0.371,0.015,0.67,0.015,0.929l-0.01,82.518
					c0,0.33-0.047,0.607-0.16,0.835l0,0c-0.107,0.227-0.258,0.402-0.448,0.505l2.073-1.206c0.145-0.083,0.263-0.196,0.361-0.361
					c0.03-0.03,0.051-0.083,0.077-0.134c0.025-0.031,0.041-0.083,0.057-0.113c0.005-0.042,0.026-0.072,0.03-0.113
					c0.016-0.031,0.021-0.072,0.031-0.104c0.011-0.031,0.011-0.072,0.021-0.104c0.01-0.031,0.01-0.072,0.015-0.104
					c0-0.03,0.016-0.062,0.016-0.092c0-0.031,0-0.072,0-0.104s0-0.063,0-0.093v-0.011l0.011-82.518
					C330.595,380.347,330.584,380.037,330.584,379.666z"/>
				<g>
					<polygon fill="#70757A" points="328.49,374.509 330.563,373.302 413.994,504.134 411.926,505.33 					"/>
				</g>
				<path fill="#515559" d="M332.333,359.13c-0.356,0.216-0.66,0.464-0.944,0.732c-0.088,0.082-0.149,0.175-0.228,0.247
					c-0.195,0.227-0.371,0.433-0.531,0.671c-0.035,0.051-0.087,0.103-0.113,0.144c-0.025,0.052-0.046,0.093-0.077,0.124
					c-0.103,0.186-0.19,0.361-0.294,0.536c-0.031,0.093-0.082,0.165-0.123,0.248c-0.026,0.041-0.047,0.103-0.067,0.154
					c-0.062,0.114-0.108,0.248-0.155,0.382c-0.072,0.176-0.134,0.371-0.195,0.578c-0.011,0.021-0.011,0.03-0.011,0.051
					c-0.011,0.042-0.026,0.083-0.036,0.135c-0.051,0.186-0.108,0.371-0.145,0.566c-0.035,0.124-0.057,0.259-0.077,0.383
					c-0.021,0.134-0.052,0.258-0.077,0.401c-0.016,0.083-0.036,0.165-0.047,0.248c-0.035,0.165-0.057,0.351-0.082,0.526
					c-0.031,0.227-0.072,0.453-0.098,0.681c-0.006,0.082-0.026,0.154-0.037,0.227c-0.016,0.134-0.02,0.258-0.041,0.392
					c-0.041,0.475-0.098,0.939-0.134,1.414c-0.011,0.103-0.031,0.195-0.036,0.299c-0.006,0.103-0.016,0.195-0.016,0.289
					c-0.01,0.113-0.021,0.216-0.036,0.34c-0.021,0.371-0.041,0.712-0.067,1.052c0,0.104-0.01,0.187-0.01,0.278
					c-0.021,0.352-0.041,0.691-0.052,1.001c-0.011,0.062-0.011,0.134-0.011,0.206c-0.02,0.352-0.035,0.682-0.041,0.959l-0.031,0.784
					c0,0.042,0,0.093,0,0.155c0,0.082-0.01,0.195-0.015,0.299c0,0.248-0.005,0.536-0.016,0.877l2.073-1.207
					c0.005-0.31,0.021-0.598,0.021-0.836c0-0.195,0-0.381,0.021-0.494l0.021-0.784c0.004-0.278,0.02-0.599,0.035-0.938
					c0-0.094,0.006-0.196,0.011-0.289c0.025-0.269,0.025-0.547,0.046-0.836c0.006-0.154,0.016-0.319,0.031-0.475
					c0.01-0.268,0.031-0.546,0.057-0.824c0.006-0.176,0.021-0.352,0.036-0.526c0.011-0.165,0.021-0.31,0.036-0.475
					c0.047-0.505,0.098-1.021,0.154-1.526c0.026-0.186,0.037-0.361,0.067-0.547c0.031-0.237,0.067-0.464,0.104-0.691
					c0.041-0.278,0.083-0.547,0.124-0.805c0.03-0.123,0.051-0.236,0.072-0.36c0.072-0.351,0.154-0.691,0.236-0.99
					c0.011-0.042,0.021-0.072,0.031-0.114c0.108-0.371,0.222-0.722,0.351-1c0.062-0.134,0.14-0.258,0.201-0.392
					c0.099-0.187,0.19-0.361,0.305-0.547c0.046-0.093,0.124-0.176,0.175-0.269c0.17-0.237,0.341-0.464,0.531-0.67
					c0.078-0.083,0.15-0.176,0.232-0.258c0.278-0.269,0.588-0.516,0.938-0.732L332.333,359.13z"/>
				<g>
					<polygon fill="#61666A" points="411.926,505.33 413.994,504.134 423.479,509.61 421.395,510.808 					"/>
				</g>
				<path fill="#61666A" d="M381.766,375.117l-30.397-17.545c-0.691-0.402-1.372-0.774-2.032-1.146
					c-0.319-0.175-0.619-0.319-0.934-0.484c-0.252-0.113-0.489-0.248-0.732-0.371c-0.195-0.094-0.392-0.207-0.582-0.31
					c-0.655-0.32-1.284-0.619-1.898-0.888c-0.077-0.041-0.145-0.072-0.217-0.093c-0.123-0.062-0.247-0.103-0.36-0.154
					c-0.361-0.155-0.717-0.319-1.067-0.454c-0.49-0.195-0.97-0.382-1.439-0.547c-0.031-0.01-0.062-0.01-0.088-0.031
					c-0.046-0.01-0.082-0.02-0.118-0.03c-0.361-0.124-0.723-0.247-1.078-0.361c-0.397-0.113-0.789-0.227-1.165-0.319
					c-0.078-0.021-0.14-0.031-0.212-0.041c-0.062-0.021-0.113-0.031-0.176-0.042c-0.227-0.052-0.459-0.113-0.701-0.154
					c-0.34-0.072-0.665-0.124-0.995-0.165c-0.149-0.021-0.289-0.041-0.429-0.052c-0.072-0.011-0.144-0.011-0.211-0.021
					c-0.104,0-0.222-0.021-0.32-0.031c-0.324-0.021-0.629-0.031-0.938-0.031c-0.217,0-0.429,0.011-0.645,0.031
					c-0.053,0-0.104,0-0.155,0c-0.042,0.011-0.083,0.011-0.124,0.011c-0.33,0.03-0.66,0.072-0.969,0.134
					c-0.176,0.031-0.341,0.093-0.501,0.135c-0.113,0.03-0.222,0.062-0.33,0.092c-0.077,0.021-0.17,0.042-0.253,0.072
					c-0.438,0.155-0.846,0.341-1.227,0.568l-2.074,1.186c0.454-0.258,0.959-0.464,1.486-0.629c0.103-0.031,0.216-0.052,0.319-0.083
					c0.505-0.134,1.036-0.237,1.599-0.278c0.063-0.01,0.113-0.01,0.16-0.01c0.604-0.042,1.232-0.021,1.902,0.041
					c0.063,0,0.135,0.01,0.207,0.021c0.67,0.072,1.371,0.196,2.114,0.36c0.072,0.021,0.129,0.031,0.196,0.042
					c0.773,0.186,1.578,0.433,2.413,0.712c0.052,0.021,0.104,0.041,0.16,0.051c0.82,0.289,1.696,0.64,2.584,1.032
					c0.123,0.041,0.237,0.093,0.34,0.144c0.866,0.382,1.764,0.815,2.688,1.279c0.263,0.145,0.531,0.279,0.799,0.413
					c0.949,0.495,1.919,1.021,2.93,1.608l30.408,17.546l44.095,25.467l2.068-1.217L381.766,375.117z"/>
				<g>
					<path fill="#BABABA" d="M423.798,401.791c1.146,0.66,2.084,2.27,2.068,3.59l-0.305,110.223
						c-0.01,1.341-0.948,1.847-2.094,1.196l-12.326-7.117c-0.505-0.299-0.979-0.763-1.371-1.361l-81.265-127.448
						c0,0.371,0.015,0.67,0.015,0.929l-0.01,82.518c-0.005,1.33-0.938,1.856-2.094,1.196c-1.155-0.671-2.078-2.259-2.084-3.579
						l0.006-82.497c0-0.712-0.063-7.313,0.02-8.912l0.026-0.743c0.118-2.867,0.361-8.84,1.702-11.83
						c0.366-0.754,0.758-1.435,1.212-2.012c3.604-4.642,10.671-3.713,21.996,2.836l30.408,17.546L423.798,401.791z M421.395,510.808
						l0.299-105.438l-72.409-41.815c-14.09-8.128-17.726-5.116-19.329-1.568c-1.089,2.372-1.3,7.994-1.403,10.407l-0.031,0.784
						c-0.015,0.248-0.015,0.743-0.03,1.331l83.436,130.821L421.395,510.808L421.395,510.808z"/>
				</g>
				<path fill="#515559" d="M427.935,404.091c0-0.041,0-0.072,0-0.113c0-0.031,0-0.062-0.011-0.093c0-0.03-0.01-0.072-0.01-0.103
					c0-0.031-0.011-0.072-0.021-0.104c0-0.031,0-0.063-0.01-0.104c-0.011-0.031-0.011-0.082-0.021-0.113
					c-0.011-0.031-0.021-0.072-0.021-0.104c-0.011-0.03-0.021-0.072-0.031-0.113c-0.021-0.03-0.021-0.072-0.031-0.103
					c-0.016-0.042-0.021-0.083-0.03-0.114c-0.021-0.03-0.036-0.072-0.042-0.103c-0.01-0.041-0.036-0.072-0.046-0.104
					c-0.011-0.041-0.016-0.072-0.031-0.103c-0.021-0.031-0.031-0.063-0.046-0.104c-0.021-0.031-0.042-0.062-0.047-0.093
					c-0.025-0.041-0.036-0.072-0.057-0.113c-0.021-0.042-0.041-0.083-0.072-0.134c-0.011-0.052-0.041-0.094-0.072-0.135
					c0-0.01,0-0.01,0-0.01c-0.016-0.011-0.016-0.031-0.021-0.031c-0.052-0.093-0.104-0.176-0.149-0.258
					c-0.057-0.052-0.099-0.124-0.149-0.176c-0.016-0.051-0.063-0.093-0.083-0.134c-0.031-0.031-0.062-0.062-0.082-0.093
					c-0.031-0.041-0.047-0.063-0.083-0.093c-0.025-0.031-0.062-0.062-0.077-0.093c-0.005-0.011-0.005-0.011-0.005-0.011
					s0-0.01-0.016-0.01c-0.016-0.031-0.047-0.052-0.067-0.072c-0.031-0.031-0.062-0.063-0.082-0.083
					c-0.031-0.031-0.063-0.062-0.104-0.093c-0.021-0.021-0.052-0.052-0.083-0.072c-0.03-0.021-0.066-0.062-0.082-0.082
					c-0.041-0.011-0.083-0.042-0.108-0.062c-0.021-0.021-0.057-0.053-0.088-0.063c-0.016-0.021-0.052-0.041-0.082-0.062
					c-0.031-0.011-0.052-0.042-0.093-0.052c0,0,0-0.011-0.016-0.021l-2.068,1.217c0.278,0.165,0.552,0.382,0.805,0.649
					c0,0,0,0,0.011,0.011c0.242,0.258,0.464,0.558,0.639,0.877c0,0,0.016,0.011,0.016,0.021c0.191,0.33,0.336,0.66,0.443,1l0,0
					c0.108,0.352,0.171,0.702,0.155,1.032l-0.305,110.223c0,0.33-0.062,0.619-0.165,0.835l0,0c-0.108,0.228-0.268,0.393-0.443,0.506
					l2.063-1.207c0.149-0.082,0.278-0.195,0.371-0.351c0.021-0.041,0.052-0.093,0.072-0.134v-0.011c0,0,0-0.01,0-0.021
					c0.021-0.031,0.03-0.051,0.052-0.093c0.015-0.03,0.025-0.072,0.03-0.113c0.016-0.031,0.021-0.072,0.036-0.104
					c0.006-0.041,0.006-0.071,0.006-0.093c0.015-0.051,0.015-0.082,0.025-0.113c0-0.031,0.01-0.062,0.01-0.093
					c0.011-0.041,0.011-0.083,0.011-0.103c0-0.042,0-0.072,0-0.104v-0.011l0.314-110.212
					C427.944,404.143,427.944,404.122,427.935,404.091z"/>
			</g>
			<g>
				<g enable-background="new    ">
					<g>
						<path fill="#785C25" d="M378.641,371.59l-0.026,6.281l-30.392-17.545c-11.337-6.55-18.412-7.458-22.002-2.816l-0.841,0.093
							c-2.058-4.766-3.084-14.554,7.355-12.521L378.641,371.59z"/>
					</g>
					<polygon fill="#A9812D" points="378.641,371.59 378.614,377.871 384.84,374.261 384.85,367.97 					"/>
					<path fill="#BB912E" d="M338.96,341.471c-0.325-0.062-0.641-0.113-0.939-0.165c-0.304-0.031-0.598-0.063-0.877-0.082
						c-0.02,0-0.035,0-0.061,0c-0.037,0-0.068,0-0.104-0.011c-0.227-0.011-0.459-0.021-0.66-0.021
						c-0.279,0.01-0.557,0.01-0.815,0.041c-0.021,0-0.03,0.01-0.052,0.01c-0.041,0-0.062,0.011-0.103,0.011
						c-0.228,0.031-0.454,0.052-0.66,0.093c-0.16,0.041-0.3,0.083-0.454,0.124c-0.082,0.031-0.186,0.041-0.268,0.083
						c-0.042,0.01-0.104,0.02-0.145,0.03c-0.33,0.124-0.625,0.258-0.893,0.413l-6.215,3.62c0.314-0.186,0.66-0.341,1.042-0.464
						c0.083-0.021,0.175-0.041,0.258-0.072c0.351-0.093,0.717-0.165,1.114-0.217c0.041,0,0.072-0.01,0.104-0.01
						c0.479-0.053,0.99-0.063,1.557-0.021c0.025,0,0.052,0,0.063,0c0.598,0.031,1.217,0.113,1.883,0.248l45.905,26.509l6.209-3.62
						L338.96,341.471z"/>
				</g>
			</g>
		</g>
	</g>
	<g>
		<g>
			<polygon fill="#09AA88" points="499.684,468.517 499.838,524.227 547.234,496.861 550.375,439.182 			"/>
		</g>
		<g>
			<polygon fill="#06917D" points="499.684,468.517 477.058,455.366 477.223,511.075 499.838,524.227 			"/>
		</g>
		<polygon fill="#06917D" points="554.501,439.254 554.207,442.05 499.684,473.52 499.684,470.899 		"/>
		<polygon fill="#04715B" points="499.684,473.52 472.927,458.13 472.927,455.355 499.684,470.899 		"/>
		<g>
			<polygon fill="#02AE8C" points="472.927,455.355 477.068,457.759 499.684,470.91 526.125,455.634 554.501,439.254 
				527.744,423.71 			"/>
			<polygon fill="#06917D" points="477.058,455.366 490.771,463.339 499.684,468.517 526.254,453.169 535.609,447.774 
				550.375,439.254 527.744,426.103 527.734,426.103 			"/>
		</g>
		<g>
			<polygon fill="#036857" points="477.058,455.324 477.058,455.366 490.771,463.339 499.684,468.517 526.254,453.169 
				526.837,442.668 527.734,426.103 527.744,425.989 			"/>
		</g>
		<polygon opacity="0.4" fill="#FFFFFF" points="490.771,463.339 499.684,468.517 535.609,447.774 526.837,442.668 526.708,442.596 
					"/>
		<polygon fill="#222827" points="489.854,470.497 469.461,490.962 477.146,486.526 477.161,490.095 469.085,494.829 
			466.259,494.283 466.259,489.115 486.733,468.517 		"/>
	</g>
</g>
</svg>
