<?xml version="1.0" encoding="utf-8"?>
<!-- Generator: Adobe Illustrator 16.0.0, SVG Export Plug-In . SVG Version: 6.00 Build 0)  -->
<!DOCTYPE svg PUBLIC "-//W3C//DTD SVG 1.1//EN" "http://www.w3.org/Graphics/SVG/1.1/DTD/svg11.dtd">
<svg version="1.1" id="Layer_1" xmlns="http://www.w3.org/2000/svg" xmlns:xlink="http://www.w3.org/1999/xlink" x="0px" y="0px"
	 width="650px" height="650px" viewBox="0 0 650 650" enable-background="new 0 0 650 650" xml:space="preserve">
<polygon fill="#D5A484" points="414.125,500.489 414.125,500.489 414.749,500.843 "/>
<g>
	<g>
		<path fill="#EE2F53" d="M537.812,417.49c-4.651,1.413-9.371,4.961-17.339,12.264c-7.947,7.272-19.943,4.899-21.584,0.382
			c-0.072-0.227-0.134-0.484-0.134-0.773v-0.021c0.062-5.034,13.605-16.473,19.319-20.888c8.768-6.715,17.772-5.271,21.021-1.629
			c0.805,0.876,1.418,2.083,1.759,3.372C541.669,413.127,541.056,416.489,537.812,417.49z"/>
		
			<linearGradient id="SVGID_1_" gradientUnits="userSpaceOnUse" x1="999.166" y1="443.3438" x2="1082.7517" y2="383.7717" gradientTransform="matrix(0.9998 -0.0179 0.0179 0.9998 -496.7563 -2.4248)">
			<stop  offset="0.01" style="stop-color:#DAA192"/>
			<stop  offset="0.99" style="stop-color:#DE817B"/>
		</linearGradient>
		<path fill="url(#SVGID_1_)" d="M523.613,404.235c0,0-10.929,6.705-10.814,12.935c0.01,0.774,0.19,1.537,0.608,2.29
			c1.852,3.414,8.159,2.104,14.085-1.011c5.729-3.032,11.088-7.788,11.624-11.624C532.5,412.033,523.613,404.235,523.613,404.235z"
			/>
		<path fill="#C51F45" d="M537.812,417.49c-4.651,1.413-9.371,4.961-17.339,12.264c-7.947,7.272-19.943,4.899-21.584,0.382
			c-0.072-0.227-0.134-0.484-0.134-0.773c2.857,2.29,9.593,5.064,14.755,2.806c6.102-2.702,9.428-6.529,11.898-9.098
			c2.471-2.6,4.807-4.704,8.757-5.931c3.688-1.166,5.251-2.527,6.689-6.942C541.669,413.127,541.056,416.489,537.812,417.49z"/>
	</g>
	<path fill="#2D133D" d="M538.957,407.608c-0.913,0.33-1.759,0.557-2.574,0.732c-8.603,1.856-12.79-4.137-12.79-4.137
		s-18.695-74.307-21.104-103.404c-2.053-24.869-1.924-40.238-2.29-51.491c3.77,1.95,17.169,8.582,30.479,11.563
		c1.532,0.361,3.084,0.67,4.632,0.897c-1.815,23.001-4.271,65.013-0.269,88.5C539.519,376.479,541.447,406.67,538.957,407.608z"/>
	<path opacity="0.3" fill="#2D133D" d="M538.957,407.608c-0.913,0.33-1.759,0.557-2.574,0.732
		c0.938-6.622,1.661-17.772-0.814-33.585c-3.213-20.269-7.689-30.067-7.076-53.678c0.495-16.813,1.558-45.229,2.187-60.207
		c1.532,0.361,3.084,0.67,4.632,0.897c-1.815,23.001-4.271,65.013-0.269,88.5C539.519,376.479,541.447,406.67,538.957,407.608z"/>
	<g>
		<g>
			<path fill="#2993B8" d="M426.129,242.413c0-0.046,0-0.087,0-0.129v-1.753l-0.979-0.258c-0.32-0.32-0.671-0.619-1.135-0.888
				l-16.916-9.768c-2.837-1.64-7.438-1.64-10.273,0l-2.182,1.253c-0.536,0.314-0.949,0.676-1.273,1.047l-0.856-0.222v1.847
				l0.052,0.01c-0.135,1.171,0.536,2.357,2.078,3.25l16.911,9.768c2.847,1.645,7.437,1.645,10.283,0l2.177-1.253
				c1.341-0.779,2.021-1.79,2.104-2.805h0.01V242.413z"/>
			<path fill="#37A1D0" d="M421.838,244.925c-2.847,1.64-7.437,1.64-10.283,0l-16.911-9.768c-2.831-1.63-2.831-4.291,0-5.931
				l2.182-1.253c2.836-1.645,7.437-1.645,10.273,0l16.916,9.763c2.837,1.641,2.826,4.296,0,5.937L421.838,244.925z"/>
		</g>
		<g>
			<linearGradient id="SVGID_2_" gradientUnits="userSpaceOnUse" x1="413.2783" y1="255.2734" x2="480.4157" y2="100.4396">
				<stop  offset="0.01" style="stop-color:#DAA192"/>
				<stop  offset="0.99" style="stop-color:#DE817B"/>
			</linearGradient>
			<path fill="url(#SVGID_2_)" d="M448.884,207.803c-7.607,11.232-22.342,25.91-22.342,25.91s-4.229,8.375-5.817,9.046
				c-0.031,0.021-0.063,0.021-0.072,0.021c-1.604,0.542,0.588-5.085,0.072-5.395c-0.501-0.283-9.057,5.426-11.336,5.446
				c-1.852,0,5.698-5.137,5.193-5.446c-0.521-0.283-8.401,5.446-11.053,4.755c-1.773-0.464,7.576-4.549,7.2-5.549
				c-0.382-1.006-6.561,3.032-7.989,2.233c-1.459-0.8,6.102-3.698,6.009-4.441c-0.134-0.748-4.353,1.15-4.214-0.108
				c0.077-0.64,2.337-1.336,4.874-1.976c2.548-0.67,5.327-1.258,6.4-1.743c1.975-2.986,25.523-41.842,31.79-79.387
				c5.596-33.507,13.125-43.224,16.828-49.722c0,0-1.104,19.33,3.568,41.063c0.341,1.568,0.732,3.136,1.114,4.704
				C471.029,154.692,469.544,177.405,448.884,207.803z"/>
			<linearGradient id="SVGID_3_" gradientUnits="userSpaceOnUse" x1="420.6523" y1="192.6445" x2="469.7275" y2="192.6445">
				<stop  offset="0.01" style="stop-color:#DAA192"/>
				<stop  offset="0.99" style="stop-color:#DE817B"/>
			</linearGradient>
			<path opacity="0.2" fill="url(#SVGID_3_)" d="M448.884,207.803c-7.607,11.232-22.342,25.91-22.342,25.91
				s-4.229,8.375-5.817,9.046c-0.031,0.021-0.063,0.021-0.072,0.021c0.428-1.846,1.356-4.316,3.274-6.323
				c3.657-3.775,16.097-21.145,27.938-41.058c10.407-17.504,13.466-35.746,16.132-52.889c0.341,1.568,0.732,3.136,1.114,4.704
				C471.029,154.692,469.544,177.405,448.884,207.803z"/>
		</g>
	</g>
	<path fill="#E82642" d="M557.198,211.624c-18.412,3.62-53.316-1.676-62.384-10.134c0,0-13.553-31.749-15.11-35.126
		c-2.59-5.55-6.932-9.505-10.191-10.269c-0.031,0-0.082-0.031-0.082-0.031c-0.66-0.144-1.3-0.33-1.908-0.546
		c-7.53-2.558-10.759-9.551-11.831-20.072c-1.264-12.347-1.14-27.045,2.847-36.891c1.64-4.018,3.904-7.22,6.983-9.113
		c1.66-1.026,3.568-1.682,5.714-1.872c5.849-0.531,12.336-0.759,18.603-0.738c1.594-0.01,3.172,0.021,4.703,0.062
		c10.413,0.222,19.542,1.171,23.131,2.661c6.22,2.558,12.471,18.525,9.057,35.364c-0.495,2.542-1.011,4.899-1.434,7.07
		c-1.666,8.52-2.394,14.492,0.392,20.093c1.238,2.455,3.146,4.848,5.952,7.339c8.695,7.684,26.813,23.301,34.234,36.746
		c0.624,1.145,1.176,2.244,1.635,3.352C571.087,206.044,566.059,209.886,557.198,211.624z"/>
	
		<linearGradient id="SVGID_4_" gradientUnits="userSpaceOnUse" x1="1432.3389" y1="132.8926" x2="1446.7399" y2="158.7702" gradientTransform="matrix(0.8841 -0.4673 0.4673 0.8841 -861.8799 641.2251)">
		<stop  offset="0.01" style="stop-color:#DAA192"/>
		<stop  offset="0.99" style="stop-color:#DE817B"/>
	</linearGradient>
	<path fill="url(#SVGID_4_)" d="M462.7,95.718l2.078,8.855c0,0,6.116,2.976,16.188-4.074c10.063-7.04,5.462-13.265,3.224-14.121
		c-2.218-0.861-10.629-8.778-10.629-8.778s-1.784,7.406-4.729,10.996C465.872,92.185,462.7,95.718,462.7,95.718z"/>
	<path fill="#D2D8DA" d="M464.778,104.573c1.083,4.776,7.974,24.549,12.765,30.129c0,0,1.129-4.74,5.327-16.524
		c4.219-11.779,4.26-25.704,4.26-25.704s-3.548,8.551-12.171,11.346C467.362,106.27,464.778,104.573,464.778,104.573z"/>
	<g>
		<path fill="#EE2F53" d="M581.252,434.406c-0.021,1.619-0.335,3.538-0.979,5.756c-2.156,7.446-19.118,23.837-28.093,18.886
			c-2.408-1.361-3.46-3.032-3.6-4.838c-0.382-4.827,5.611-10.531,7.886-12.842c3.141-3.187,6.143-8.85,8.112-13.316
			c0,0,11.501-1.104,13.868-0.258C580.081,428.393,581.392,430.569,581.252,434.406z"/>
		
			<linearGradient id="SVGID_5_" gradientUnits="userSpaceOnUse" x1="1043.1602" y1="466.6406" x2="1124.9823" y2="408.3255" gradientTransform="matrix(0.9998 -0.0179 0.0179 0.9998 -496.7563 -2.4248)">
			<stop  offset="0.01" style="stop-color:#DAA192"/>
			<stop  offset="0.99" style="stop-color:#DE817B"/>
		</linearGradient>
		<path fill="url(#SVGID_5_)" d="M565.254,428.196c0,0-8.288,15.596-4.596,17.618c2.894,1.619,12.879-3.579,17.309-9.572
			c1.155-1.547,1.949-3.115,2.135-4.662c0.124-0.382,0.242-1.135,0.393-2.136C576.301,434.675,566.425,429.073,565.254,428.196z"/>
		<path fill="#C51F45" d="M581.252,434.406c-0.021,1.619-0.335,3.538-0.979,5.756c-2.156,7.446-19.118,23.837-28.093,18.886
			c-2.408-1.361-3.46-3.032-3.6-4.838c1.867,2.342,5.281,4.064,8.515,3.982c4.39-0.124,12.213-6.323,15.745-9.861
			C575.878,445.299,579.019,440.162,581.252,434.406z"/>
	</g>
	<path fill="#2D133D" d="M580.504,429.444c-0.139,1.104-1.47,2.177-3.692,2.59c-1.036,0.206-2.264,0.258-3.656,0.134
		c-4.39-0.443-8.577-4.116-8.577-4.116c-3.476-20.402-12.414-89.273-15.838-118.051c-1.919-16.081-6.478-35.101-8.778-47.716
		c0.382,0.021,0.784,0.072,1.166,0.103c10.696,0.382,23.197-2.496,31.712-4.961c0.135-0.052,0.238-0.072,0.336-0.104
		c2.733-0.794,5.013-1.547,6.684-2.104c0.97,11.326,1.852,25.179,1.65,36.153c-0.402,22.486-2.63,45.643,1.145,69.377
		C586.43,384.493,580.504,429.444,580.504,429.444z"/>
	<path fill="#19AF91" d="M582.861,254.167c0,0-1.119,0.433-3.002,1.052c-1.671,0.558-3.95,1.311-6.684,2.104
		c-0.815,0.227-1.661,0.485-2.543,0.722c-8.386,2.31-19.701,4.693-29.505,4.342c-0.382-0.031-0.784-0.082-1.166-0.103
		c-1.526-0.103-3.073-0.289-4.651-0.516c-14.709-2.29-30.903-10.279-35.111-12.46c-0.665-0.361-1.026-0.541-1.026-0.541
		s-4.11-21.125-5.679-31.527c-1.547-10.407-4.141-26.473-9.618-37.906c-5.441-11.429-7.751-18.242-14.481-22.383
		c-0.666-0.413-1.284-0.897-1.883-1.444c-5.354-4.848-7.509-13.997-7.509-13.997s-6.685-23.074-1.455-42.94
		c1.609-4.033,3.904-7.251,6.983-9.123c-1.99,5.606-5.085,16.369-4.115,27.004c1.063,11.279,4.368,21.377,6.075,25.978
		c6.725,0.371,17.752-0.021,32.068-4.022c0-0.083-1.207-32.977-9.706-51.584c0.964,0,1.939,0,2.898,0.031
		c0.588,0,1.207,0.021,1.789,0.021c2.398,6.064,10.31,27.581,11.099,49.675c0,0,10.542,8.355,20.047,15.544
		c1.96,1.47,3.848,2.857,5.606,4.162c10.376,7.607,32.945,30.145,43.136,52.249C584.635,230.598,582.861,254.167,582.861,254.167z"
		/>
	<g>
		<path fill="#CA7028" d="M479.451,60.333c0.428-1.248,1.934-4.94,6.767-4.415c4.853,0.516,10.088,8.654,3.919,15.472
			C483.984,78.214,476.259,69.776,479.451,60.333z"/>
		
			<linearGradient id="SVGID_6_" gradientUnits="userSpaceOnUse" x1="1425.2764" y1="88.6309" x2="1445.35" y2="145.1138" gradientTransform="matrix(0.8841 -0.4673 0.4673 0.8841 -861.8799 641.2251)">
			<stop  offset="0.01" style="stop-color:#DAA192"/>
			<stop  offset="0.99" style="stop-color:#DE817B"/>
		</linearGradient>
		<path fill="url(#SVGID_6_)" d="M479.59,60.245c-2.279,0.088-3.682,1.223-4.012,2.491c-8.881-12.037-24.684-19.608-38.645-4.084
			c-7.771,8.654,12.001,41.857,24.193,42.187c7.221,0.186,19-10.701,19.237-24.25c0.01,0,0.134,0.273,0.154,0.278
			C485.934,76.579,485.537,59.993,479.59,60.245z"/>
		<path fill="#CA7028" d="M480.457,60.364c3.961,0.351-3.219-20.341-18.149-23.755c-14.92-3.414-25.183,9.948-28.804,22.939
			c-3.61,12.997,3.022,21.362,6.767,21.032c0,0-10.681-17.417,3.43-26.334c11.352-7.158,27.102,1.187,31.878,8.489
			C475.578,62.736,476.212,59.972,480.457,60.364z"/>
	</g>
	<path fill="#D81E41" d="M458.569,98.487c0,0-8.83,16.256-8.907,40.325c0,0,3.218,1.852,6.627,1.687c0,0-1.701-11.929-1.31-20.996
		C455.371,110.421,458.569,98.487,458.569,98.487z"/>
	<path opacity="0.3" fill="#2D133D" d="M580.504,429.444c-0.139,1.104-1.47,2.177-3.692,2.59
		c2.378-13.822,2.759-23.734,2.408-39.949c-0.443-18.154-2.161-32.873-4.44-44.849c-2.27-11.976,0.795-34.461,0-53.729
		c-0.5-12.409-1.393-27.138-1.939-36.081c0.135-0.052,0.238-0.072,0.336-0.104c2.733-0.794,5.013-1.547,6.684-2.104
		c0.97,11.326,1.852,25.179,1.65,36.153c-0.402,22.486-2.63,45.643,1.145,69.377C586.43,384.493,580.504,429.444,580.504,429.444z"
		/>
	<path opacity="0.3" fill="#19AF91" d="M582.861,254.167c0,0-1.119,0.433-3.002,1.052c-1.671,0.558-3.95,1.311-6.684,2.104
		c-0.815,0.227-1.661,0.485-2.543,0.722c1.619-13.621,2.832-28.881-3.904-45.256c-8.344-20.346-17.339-33.198-28.917-44.121
		c-11.558-10.923-31.465-28.262-33.605-31.274c-2.155-2.981-1.717-18.402-5.575-31.244c-2.677-8.922-4.832-15.859-5.879-19.299
		c0.588,0,1.207,0.021,1.789,0.021c2.398,6.064,10.31,27.581,11.099,49.675c0,0,10.542,8.355,20.047,15.544
		c1.96,1.47,3.848,2.857,5.606,4.162c10.376,7.607,32.945,30.145,43.136,52.249C584.635,230.598,582.861,254.167,582.861,254.167z"
		/>
	<g>
		<defs>
			<filter id="Adobe_OpacityMaskFilter" filterUnits="userSpaceOnUse" x="478.621" y="210.144" width="28.604" height="35.908">
				<feFlood  style="flood-color:white;flood-opacity:1" result="back"/>
				<feBlend  in="SourceGraphic" in2="back" mode="normal"/>
			</filter>
		</defs>
		<mask maskUnits="userSpaceOnUse" x="478.621" y="210.144" width="28.604" height="35.908" id="SVGID_7_">
			<g filter="url(#Adobe_OpacityMaskFilter)">
				<defs>
					
						<filter id="Adobe_OpacityMaskFilter_1_" filterUnits="userSpaceOnUse" x="478.621" y="210.144" width="28.604" height="35.908">
						<feFlood  style="flood-color:white;flood-opacity:1" result="back"/>
						<feBlend  in="SourceGraphic" in2="back" mode="normal"/>
					</filter>
				</defs>
				<mask maskUnits="userSpaceOnUse" x="478.621" y="210.144" width="28.604" height="35.908" id="SVGID_7_">
					<g filter="url(#Adobe_OpacityMaskFilter_1_)">
					</g>
				</mask>
				
					<linearGradient id="SVGID_8_" gradientUnits="userSpaceOnUse" x1="466.0137" y1="263.2358" x2="466.0137" y2="231.3501" gradientTransform="matrix(-0.879 0.4768 0.4768 0.879 784.3042 -208.1396)">
					<stop  offset="0.005" style="stop-color:#FFFFFF"/>
					<stop  offset="1" style="stop-color:#808080"/>
				</linearGradient>
				<path mask="url(#SVGID_7_)" fill="url(#SVGID_8_)" d="M481.313,240.108c-2.856-5.276,0.485-12.873,0.691-15.617
					c0.227-2.744-3.383-10.614-3.383-10.614l3.532-1.702l3.348-2.032c0,0,4.631,7.313,7.045,8.634
					c2.413,1.32,10.604,2.661,13.471,7.937c2.847,5.266,0.649,13.652-6.473,17.52l0,0l0,0c-0.01,0-0.01,0-0.01,0l0,0
					C492.401,248.097,484.186,245.374,481.313,240.108z"/>
			</g>
		</mask>
		
			<linearGradient id="SVGID_9_" gradientUnits="userSpaceOnUse" x1="466.0137" y1="263.2358" x2="466.0137" y2="231.3501" gradientTransform="matrix(-0.879 0.4768 0.4768 0.879 784.3042 -208.1396)">
			<stop  offset="0.005" style="stop-color:#56A1D9"/>
			<stop  offset="1" style="stop-color:#86B7E2"/>
		</linearGradient>
		<path fill="url(#SVGID_9_)" d="M481.313,240.108c-2.856-5.276,0.485-12.873,0.691-15.617c0.227-2.744-3.383-10.614-3.383-10.614
			l3.532-1.702l3.348-2.032c0,0,4.631,7.313,7.045,8.634c2.413,1.32,10.604,2.661,13.471,7.937
			c2.847,5.266,0.649,13.652-6.473,17.52l0,0l0,0c-0.01,0-0.01,0-0.01,0l0,0C492.401,248.097,484.186,245.374,481.313,240.108z"/>
		<g opacity="0.4">
			<path fill="#56A1D9" d="M490.008,239.613c-2.053,3.352-0.536,6.157,3.409,6.261c3.93,0.113,8.783-2.527,10.846-5.885
				c2.053-3.352,0.531-6.163-3.394-6.261C496.93,233.62,492.071,236.256,490.008,239.613z"/>
		</g>
		<g>
			<path opacity="0.5" fill="#2E6286" d="M494.841,233.826c-0.531-0.015-1.187,0.341-1.47,0.8c-0.135,0.222-0.16,0.428-0.078,0.588
				l-11.459-21.15c0.077,0.155,0.258,0.258,0.531,0.268c0.531,0.01,1.186-0.351,1.465-0.799c0.149-0.232,0.165-0.438,0.071-0.593
				l11.48,21.145C495.289,233.935,495.104,233.826,494.841,233.826z"/>
			<path opacity="0.7" fill="#2E6286" d="M493.293,235.214c-0.082-0.16-0.057-0.366,0.078-0.588c0.283-0.459,0.938-0.815,1.47-0.8
				c0.263,0,0.448,0.108,0.541,0.258l0,0l0,0c0.077,0.155,0.052,0.361-0.082,0.593c-0.278,0.449-0.938,0.81-1.465,0.794
				C493.577,235.467,493.381,235.363,493.293,235.214L493.293,235.214L493.293,235.214z"/>
			<path fill="#2E6286" d="M481.834,214.063c-0.088-0.145-0.067-0.361,0.066-0.583c0.284-0.459,0.939-0.81,1.47-0.799
				c0.273,0,0.449,0.103,0.531,0.258l0,0l0,0c0.094,0.154,0.078,0.36-0.071,0.593c-0.279,0.449-0.934,0.81-1.465,0.799
				C482.092,214.321,481.911,214.218,481.834,214.063L481.834,214.063L481.834,214.063z"/>
		</g>
		<g opacity="0.4">
			<path fill="#85CEF3" d="M481.979,232.676c-3.307,5.4-0.861,9.902,5.472,10.072c6.328,0.17,14.142-4.069,17.447-9.469
				c3.306-5.395,0.861-9.902-5.462-10.067C493.103,223.037,485.284,227.276,481.979,232.676z"/>
		</g>
		<g>
			<path fill="#A0B0BE" d="M478.662,213.955l-0.011,0.005l-0.778-2.083l6.369-3.456l1.237,1.702c0,0.005,0,0.005,0.011,0.011
				l0.011,0.01l0,0c0.387,0.521,0.376,1.279-0.145,2.125c-0.929,1.506-3.115,2.687-4.879,2.641
				C479.528,214.889,478.899,214.518,478.662,213.955z"/>
			<path fill="#AFBDCC" d="M478.1,210.071c-0.861,1.393-0.227,2.559,1.408,2.6c1.64,0.046,3.641-1.052,4.508-2.444
				c0.855-1.382,0.227-2.548-1.413-2.6C480.967,207.591,478.956,208.679,478.1,210.071z"/>
			<g>
				<path fill="#849CB1" d="M477.394,211.005l-1.609-2.98l6.369-3.45l1.614,2.98c0.258,0.47,0.201,1.109-0.227,1.805
					c-0.861,1.393-2.883,2.486-4.508,2.445C478.219,211.784,477.646,211.479,477.394,211.005z"/>
				<path fill="#AFBDCC" d="M476.011,206.225c-0.855,1.387-0.227,2.553,1.413,2.599c1.625,0.042,3.642-1.052,4.503-2.444
					c0.846-1.393,0.211-2.553-1.419-2.599C478.879,203.738,476.867,204.832,476.011,206.225z"/>
			</g>
		</g>
		<path opacity="0.5" fill="#FFFFFF" d="M484.588,224.26c0.283,0.521,1.088,0.964,1.759,0.985l0,0
			c0.701,0.021,1.031-0.392,0.747-0.923l-3.801-7.009c-0.283-0.521-1.083-0.964-1.773-0.99l0,0
			c-0.691-0.016-1.026,0.402-0.732,0.929L484.588,224.26z"/>
		<path opacity="0.5" fill="#FFFFFF" d="M482.612,233.888c0.836,1.547,2.76,2.115,4.291,1.279c1.537-0.835,2.109-2.754,1.274-4.291
			c-0.831-1.532-2.755-2.104-4.291-1.269C482.354,230.438,481.777,232.362,482.612,233.888z"/>
		<g>
			<g>
				<g>
					<polygon fill="#0378A7" points="477.672,205.353 474.396,205.255 476.011,208.122 479.291,208.22 					"/>
				</g>
				<g>
					<g enable-background="new    ">
						<g>
							<path fill="#642466" d="M474.396,207.555c2.177,2.754,1.542,7.313,1.512,7.551l0.588-0.959
								c1.026-4.245-0.475-7.401-0.558-7.561L474.396,207.555z"/>
						</g>
						<path fill="#A256A2" d="M475.929,214.899c0,0.031-0.011,0.051-0.011,0.083c0,0.01,0,0.01,0,0.021c0,0.016,0,0.031,0,0.052
							c0,0-0.01,0.01,0,0.016c-0.01,0.021-0.01,0.025-0.01,0.036l-1.568-0.052c0,0,0.011-0.016,0.011-0.031
							c0-0.005,0.01-0.021,0.01-0.025c0-0.016,0-0.021,0-0.042c0-0.01,0-0.026,0-0.036s0.011-0.031,0.011-0.051
							c0-0.016,0-0.031,0-0.052s0.01-0.041,0.01-0.072c0-0.016,0.016-0.031,0.016-0.052c0-0.046,0-0.082,0.016-0.134
							c0-0.016,0-0.026,0-0.041c0.005-0.063,0.005-0.124,0.005-0.191c0-0.025,0-0.046,0.011-0.072c0-0.057,0-0.103,0-0.159
							c0-0.031,0-0.057,0.016-0.083c0-0.072,0-0.149,0.01-0.227c0-0.011,0-0.031,0-0.042c0-0.078,0-0.165,0-0.248
							c0-0.031,0-0.057,0-0.088c0-0.062,0-0.129,0-0.19c0-0.031,0-0.062,0-0.098c0-0.119,0-0.232,0-0.345
							c0-0.026-0.01-0.042-0.01-0.067c0-0.077,0-0.16-0.016-0.242c0-0.036,0-0.088,0-0.124c-0.011-0.062-0.011-0.113-0.011-0.175
							c0-0.036-0.005-0.093-0.005-0.134c-0.016-0.052-0.016-0.103-0.016-0.145c-0.016-0.062-0.025-0.108-0.025-0.16
							c0-0.046-0.011-0.087-0.011-0.129c-0.01-0.051-0.021-0.113-0.021-0.17c-0.01-0.041-0.021-0.077-0.021-0.129
							c0-0.051-0.01-0.108-0.036-0.175c0-0.036,0-0.072-0.016-0.114c-0.01-0.062-0.021-0.119-0.03-0.18
							c-0.011-0.036-0.011-0.078-0.021-0.114c-0.01-0.067-0.021-0.15-0.046-0.222c-0.011-0.021-0.011-0.046-0.011-0.072
							c-0.025-0.093-0.046-0.186-0.077-0.289c0-0.031-0.01-0.052-0.021-0.083c-0.016-0.062-0.041-0.134-0.062-0.196
							c-0.011-0.042-0.011-0.067-0.021-0.093c-0.021-0.072-0.047-0.139-0.067-0.196c-0.016-0.036-0.016-0.067-0.036-0.093
							c-0.021-0.083-0.062-0.16-0.083-0.232c-0.01-0.016-0.01-0.031-0.01-0.041c-0.041-0.093-0.072-0.181-0.113-0.273
							c-0.006-0.021-0.021-0.041-0.031-0.072c-0.021-0.062-0.057-0.129-0.104-0.196c0-0.025-0.01-0.051-0.021-0.072
							c-0.041-0.093-0.093-0.175-0.134-0.258c-0.011-0.01-0.011-0.021-0.025-0.03c-0.036-0.078-0.078-0.145-0.119-0.228
							c-0.01-0.021-0.025-0.046-0.046-0.067c-0.036-0.057-0.078-0.119-0.129-0.18c-0.011-0.031-0.031-0.052-0.042-0.072
							c-0.062-0.083-0.123-0.165-0.186-0.248l1.563,0.052l0,0l0,0l0,0l0,0l0,0c0.057,0.062,0.104,0.134,0.16,0.207
							c0.011,0.01,0.011,0.021,0.021,0.031c0.021,0.031,0.036,0.047,0.041,0.072c0.042,0.036,0.063,0.072,0.072,0.108
							c0.021,0.025,0.042,0.052,0.052,0.077c0.011,0.021,0.026,0.052,0.052,0.072c0.011,0.021,0.021,0.031,0.031,0.052
							c0.03,0.057,0.057,0.118,0.093,0.165c0,0.01,0.021,0.025,0.021,0.041c0,0,0,0,0.01,0.005c0.031,0.067,0.072,0.139,0.104,0.207
							c0.011,0.015,0.011,0.03,0.021,0.041c0.011,0.025,0.021,0.046,0.031,0.067c0.021,0.036,0.036,0.067,0.062,0.103
							c0,0.036,0.021,0.062,0.031,0.104c0.025,0.021,0.025,0.052,0.031,0.062c0,0.021,0.015,0.036,0.03,0.052
							c0.026,0.072,0.052,0.145,0.088,0.217c0,0.005,0,0.005,0,0.01c0,0.011,0.011,0.026,0.011,0.036
							c0.021,0.063,0.046,0.119,0.066,0.181c0.011,0.016,0.011,0.036,0.011,0.052c0.025,0.031,0.025,0.062,0.036,0.093
							c0.005,0.031,0.021,0.062,0.036,0.093c0.005,0.031,0.021,0.062,0.03,0.104c0.011,0.031,0.021,0.062,0.031,0.103
							c0,0.006,0,0.021,0.011,0.042c0.016,0.052,0.021,0.103,0.052,0.15c0,0.031,0.01,0.057,0.01,0.087
							c0.011,0.005,0.011,0.016,0.011,0.021c0.021,0.093,0.041,0.175,0.066,0.263c0.026,0.093,0.036,0.181,0.057,0.284v0.01
							c0.011,0.031,0.021,0.062,0.021,0.098c0.01,0.047,0.025,0.108,0.03,0.16c0,0.016,0,0.021,0,0.041
							c0.016,0.031,0.026,0.072,0.026,0.114c0,0.046,0.015,0.083,0.015,0.124c0.011,0.016,0.011,0.031,0.011,0.052
							c0.011,0.041,0.011,0.088,0.021,0.134c0.011,0.031,0.011,0.067,0.011,0.098c0.01,0.021,0.01,0.036,0.01,0.057
							c0,0.046,0,0.087,0.011,0.134c0,0.036,0.01,0.062,0.01,0.093c0,0.021,0,0.042,0,0.062c0.011,0.051,0.011,0.103,0.011,0.155
							c0,0.031,0.021,0.052,0.031,0.083c0,0.01,0,0.026,0,0.042c0,0.062,0,0.124,0.005,0.18c0,0.031,0.016,0.057,0.016,0.087
							c0,0.011,0,0.021,0,0.031c0,0.088,0,0.175,0.01,0.269c0,0.01,0,0.015,0,0.03c0,0.006,0,0.006,0,0.006c0,0.124,0,0.242,0,0.36
							c0,0.005,0,0.026,0,0.036c0,0.016,0,0.031,0,0.052c0,0.072,0,0.134,0,0.206c0,0.026,0,0.052,0,0.072c0,0.098,0,0.186,0,0.269
							l0,0l0,0c0,0.093-0.01,0.175-0.01,0.258c0,0.025,0,0.041,0,0.062c0,0.072-0.016,0.135-0.016,0.186
							c-0.005,0.021-0.005,0.031-0.005,0.051c0,0.072,0,0.14-0.031,0.212v0.005c0,0.062,0,0.124-0.011,0.175c0,0,0,0,0,0.01v0.005
							c0,0.046,0,0.078-0.01,0.108C475.929,214.889,475.929,214.894,475.929,214.899z"/>
						<g>
							<polygon fill="#77287A" points="475.938,206.585 474.371,206.544 472.834,207.503 474.396,207.555 							"/>
						</g>
					</g>
				</g>
				<g>
					<polygon fill="#0379A9" points="473.01,205.028 469.729,204.935 471.122,207.488 474.396,207.586 					"/>
				</g>
				<path fill="#0897CD" d="M479.508,197.911c-0.011,0.005-0.057,0.021-0.067,0.036c-0.057,0.026-0.098,0.046-0.149,0.078
					c-0.062,0.03-0.104,0.062-0.175,0.103c-0.021,0.011-0.047,0.021-0.083,0.042c-0.077,0.057-0.165,0.124-0.269,0.186
					c-0.01,0.015-0.036,0.036-0.057,0.041c-0.087,0.067-0.17,0.134-0.263,0.206c-0.031,0.026-0.052,0.052-0.093,0.072
					c-0.113,0.104-0.248,0.222-0.382,0.34c-0.041,0.036-0.098,0.083-0.134,0.134c-0.052,0.041-0.088,0.083-0.134,0.124
					c-0.058,0.041-0.094,0.087-0.135,0.124c-0.046,0.051-0.103,0.103-0.145,0.155c-0.036,0.021-0.046,0.041-0.072,0.062
					c-0.093,0.088-0.175,0.186-0.258,0.279c-0.046,0.036-0.082,0.072-0.113,0.113c-0.066,0.083-0.154,0.165-0.227,0.248
					c-0.031,0.041-0.063,0.072-0.093,0.104c-0.145,0.154-0.278,0.309-0.429,0.474c-0.005,0.031-0.041,0.062-0.066,0.083
					c-0.135,0.17-0.278,0.33-0.413,0.495c-0.01,0.021-0.036,0.041-0.062,0.062c-0.077,0.103-0.155,0.207-0.248,0.309
					c-0.021,0.042-0.066,0.083-0.087,0.124c-0.072,0.077-0.135,0.165-0.201,0.248c-0.031,0.042-0.072,0.072-0.104,0.119
					c-0.062,0.088-0.134,0.181-0.206,0.253c-0.021,0.041-0.041,0.072-0.077,0.108c-0.078,0.108-0.171,0.211-0.237,0.325
					c-0.016,0.005-0.016,0.01-0.016,0.01c-0.031,0.021-0.031,0.036-0.041,0.052c-0.058,0.082-0.124,0.165-0.191,0.237
					c-0.016,0.036-0.036,0.072-0.067,0.098c-0.046,0.062-0.093,0.119-0.134,0.181c-0.021,0.041-0.062,0.072-0.082,0.113
					c-0.031,0.052-0.067,0.093-0.104,0.145c-0.031,0.041-0.052,0.072-0.082,0.113c-0.031,0.041-0.072,0.083-0.099,0.124
					c-0.016,0.041-0.046,0.072-0.066,0.103c-0.031,0.042-0.067,0.083-0.088,0.114c-0.026,0.036-0.047,0.062-0.067,0.093
					c-0.021,0.041-0.057,0.077-0.082,0.113c-0.021,0.025-0.031,0.041-0.042,0.062c-0.03,0.047-0.057,0.083-0.077,0.119
					c-0.016,0.01-0.025,0.025-0.036,0.041c-0.03,0.036-0.046,0.072-0.082,0.108c0,0,0,0,0,0.01
					c-0.021,0.031-0.052,0.072-0.072,0.098c0,0.005,0,0.016-0.016,0.016c-0.016,0.03-0.036,0.046-0.047,0.062c0,0.01,0,0.01,0,0.021
					c-0.021,0.021-0.03,0.031-0.03,0.042l-3.28-0.093c0-0.01,0.016-0.03,0.025-0.041c0.011-0.005,0.011-0.01,0.011-0.021
					c0.016-0.021,0.036-0.041,0.046-0.062c0-0.005,0.016-0.01,0.021-0.021c0.021-0.031,0.051-0.062,0.071-0.103c0,0,0,0,0-0.011
					c0.011,0,0.011-0.01,0.011-0.021c0.025-0.025,0.057-0.062,0.077-0.093c0-0.005,0.016-0.021,0.016-0.031
					c0.031-0.042,0.067-0.083,0.083-0.134c0.03-0.01,0.03-0.021,0.051-0.041c0.031-0.042,0.063-0.098,0.104-0.145
					c0.011-0.021,0.021-0.041,0.041-0.052c0.031-0.062,0.083-0.113,0.113-0.181c0.021-0.015,0.021-0.025,0.031-0.036
					c0.063-0.072,0.104-0.134,0.145-0.206c0.025-0.01,0.025-0.021,0.036-0.041c0.057-0.072,0.118-0.155,0.176-0.227
					c0-0.021,0.015-0.026,0.015-0.031c0.072-0.088,0.14-0.176,0.207-0.269l0,0c0.066-0.087,0.123-0.165,0.186-0.247
					c0.021-0.021,0.03-0.036,0.041-0.052l0,0c0,0,0.011-0.011,0.011-0.016c0.077-0.108,0.159-0.217,0.247-0.325
					c0.036-0.036,0.057-0.072,0.093-0.113c0.052-0.077,0.124-0.154,0.191-0.237c0.035-0.046,0.066-0.093,0.098-0.134
					c0.072-0.083,0.129-0.155,0.196-0.242c0.03-0.042,0.066-0.088,0.103-0.124c0.083-0.108,0.17-0.206,0.248-0.314
					c0.021-0.011,0.03-0.031,0.041-0.047c0.016-0.005,0.016-0.005,0.016-0.005c0.129-0.165,0.273-0.33,0.418-0.485
					c0.021-0.031,0.051-0.072,0.062-0.103c0.154-0.155,0.283-0.31,0.423-0.464c0.011-0.011,0.021-0.031,0.031-0.042
					c0.025-0.021,0.046-0.042,0.072-0.072c0.077-0.078,0.154-0.155,0.227-0.248c0.031-0.036,0.072-0.067,0.104-0.104
					c0.082-0.093,0.175-0.186,0.258-0.273c0.021-0.026,0.041-0.036,0.062-0.057c0-0.01,0-0.015,0.011-0.021
					c0.051-0.041,0.082-0.082,0.123-0.124c0.052-0.051,0.104-0.103,0.16-0.15c0.047-0.036,0.088-0.077,0.129-0.129
					c0.041-0.036,0.088-0.082,0.134-0.124c0-0.005,0-0.005,0.011-0.005c0.124-0.118,0.258-0.227,0.382-0.335
					c0.021-0.016,0.041-0.031,0.052-0.041c0.021-0.011,0.03-0.021,0.041-0.042c0.082-0.062,0.17-0.129,0.258-0.196
					c0.01-0.005,0.025-0.026,0.041-0.031c0.016-0.01,0.016-0.01,0.016-0.016c0.104-0.066,0.19-0.129,0.283-0.186v-0.005
					c0.021-0.011,0.031-0.026,0.052-0.031c0.063-0.041,0.124-0.082,0.186-0.113c0,0,0.021,0,0.021-0.005
					c0.042-0.026,0.083-0.047,0.124-0.067c0.036-0.01,0.063-0.021,0.077-0.041c0.016,0,0.016,0,0.016,0
					c0.057-0.031,0.108-0.042,0.16-0.062c0.021-0.005,0.031-0.01,0.052-0.01l0,0c0.072-0.031,0.134-0.041,0.19-0.052
					c0.011,0,0.011,0,0.011,0c0.082-0.021,0.154-0.021,0.227-0.021c1.083,0.031,2.182,0.072,3.275,0.103
					c-0.078-0.005-0.145,0-0.222,0.01c-0.072,0.011-0.135,0.026-0.207,0.052c-0.01,0-0.021,0.01-0.03,0.01
					C479.642,197.859,479.575,197.88,479.508,197.911z"/>
				<g>
					<path fill="#923995" d="M473.582,207.204L473.582,207.204l-1.119,1.454l-2.63-1.614l0.794-1.655l0,0
						c0.124-0.237,0.402-0.382,0.825-0.371c0.789,0.021,1.712,0.593,2.083,1.279C473.742,206.657,473.742,206.987,473.582,207.204z"
						/>
					<path fill="#A34D9D" d="M471.751,208.963c0.691,0.021,0.98-0.459,0.655-1.073s-1.16-1.129-1.862-1.145
						c-0.701-0.016-0.99,0.464-0.649,1.078C470.225,208.437,471.05,208.952,471.751,208.963z"/>
					<path fill="#923995" d="M472.05,208.488c0.042-0.031,0.052-0.052,0.063-0.088c0.016-0.036,0.016-0.139-0.072-0.309
						c-0.263-0.475-0.965-0.908-1.506-0.923c-0.113,0-0.217,0.021-0.278,0.052c-0.135,0.077-0.063,0.283,0.01,0.397
						c0.258,0.48,0.949,0.908,1.485,0.923C471.875,208.545,471.978,208.524,472.05,208.488z"/>
				</g>
			</g>
			<g>
				<path fill="#015579" d="M473.01,205.028l1.387,2.558l3.275-2.233l1.619,2.868l2.301-3.739c0.041-0.351,0.753-7.076-1.65-6.705
					C477.806,198.106,473.241,204.688,473.01,205.028z"/>
			</g>
		</g>
	</g>
	
		<linearGradient id="SVGID_10_" gradientUnits="userSpaceOnUse" x1="503.667" y1="228.4189" x2="563.9299" y2="102.6542" gradientTransform="matrix(0.9812 -0.193 0.193 0.9812 -38.0791 97.0117)">
		<stop  offset="0.01" style="stop-color:#DAA192"/>
		<stop  offset="0.99" style="stop-color:#DE817B"/>
	</linearGradient>
	<path fill="url(#SVGID_10_)" d="M536.403,173.217c-14.972,17.344-41.815,35.39-41.815,35.39l-11.548-5.766
		c0,0,33.967-38.401,37.098-45.9c1.877-4.549-0.759-15.673-4.193-26.447c-2.223-6.994-4.786-13.853-6.622-18.623
		c-4.662-12.083-4.038-21.8,8.35-22.316c10.16-0.413,17.339,17.68,20.934,33.131c0.181,0.717,0.341,1.454,0.511,2.166
		C543.355,143.098,547.126,160.819,536.403,173.217z"/>
	<path fill="#D81E41" d="M539.116,124.852c-1.877,0.201-3.775,0.495-5.632,0.846c-7.179,1.341-13.981,3.548-17.54,4.796
		c-2.223-6.994-4.786-13.853-6.622-18.623c-4.626-11.996-4.038-21.661,8.112-22.295c0.083-0.021,0.16-0.01,0.237-0.021
		c10.16-0.413,17.339,17.68,20.934,33.131C538.786,123.402,538.946,124.14,539.116,124.852z"/>
	<linearGradient id="SVGID_11_" gradientUnits="userSpaceOnUse" x1="493.7012" y1="166.7295" x2="543.3721" y2="166.7295">
		<stop  offset="0.01" style="stop-color:#DAA192"/>
		<stop  offset="0.99" style="stop-color:#DE817B"/>
	</linearGradient>
	<path opacity="0.2" fill="url(#SVGID_11_)" d="M493.701,208.163c0.299-0.464,0.588-0.846,0.876-1.072
		c2.156-1.98,7.86-7.942,21.806-20.382c13.977-12.409,21.661-20.33,22.496-33.745c0.815-13.409-5.384-27.267-5.384-27.267
		c2.352-0.454,5.601-0.846,5.601-0.846c4.25,18.247,8.03,35.957-2.692,48.366c-14.961,17.344-41.815,35.39-41.815,35.39
		L493.701,208.163z"/>
	<linearGradient id="SVGID_12_" gradientUnits="userSpaceOnUse" x1="478.6035" y1="219.5918" x2="487.0707" y2="201.9212">
		<stop  offset="0.01" style="stop-color:#DAA192"/>
		<stop  offset="0.99" style="stop-color:#DE817B"/>
	</linearGradient>
	<path fill="url(#SVGID_12_)" d="M478.972,207.168c-1.548,1.655-7.829,3.677-6.859,4.642c0.835,0.81,3.961-0.542,5.193-0.964
		c0,0,1.212-0.609,1.315-0.216c0.087,0.392-7.045,2.485-6.364,3.703c0.753,1.32,6.034-0.938,7.251-1.661
		c0,0-4.445,2.517-3.878,3.321c0.562,0.815,5.425-1.661,5.425-1.661s-2.955,2.032-2.434,2.646c0.351,0.397,2.052,0.531,5.766-1.253
		c3.713-1.774,7.427-5.09,9.943-7.117c0,0-1.526-1.934-5.234-3.352c-3.719-1.413-4.729-3.909-4.729-3.909s-1.898,0.742-2.651,0.773
		l-0.263,1.805C481.452,203.924,480.508,205.523,478.972,207.168z"/>
</g>
</svg>
